G04 Layer_Color=16711935*
%FSLAX25Y25*%
%MOIN*%
G70*
G01*
G75*
%ADD11R,0.07480X0.04724*%
%ADD12R,0.04724X0.07480*%
%ADD13R,0.04331X0.04331*%
%ADD14R,0.04331X0.04331*%
%ADD38C,0.12520*%
%ADD39C,0.10236*%
%ADD40C,0.03937*%
%ADD41C,0.09000*%
%ADD42C,0.11811*%
%ADD43C,0.05512*%
%ADD44C,0.08661*%
%ADD45C,0.07000*%
%ADD46C,0.15000*%
%ADD47C,0.04724*%
%ADD48C,0.13386*%
%ADD49C,0.04000*%
%ADD50C,0.05000*%
%ADD51R,0.05905X0.13780*%
%ADD52R,0.05118X0.04331*%
D11*
X326000Y42000D02*
D03*
Y52236D02*
D03*
X326500Y80264D02*
D03*
Y90500D02*
D03*
D12*
X953382Y37500D02*
D03*
X963618D02*
D03*
X1192882Y38500D02*
D03*
X1203118D02*
D03*
X104618Y46000D02*
D03*
X94382D02*
D03*
D13*
X356000Y82252D02*
D03*
Y88748D02*
D03*
X336500Y43500D02*
D03*
Y49996D02*
D03*
X345500Y43504D02*
D03*
Y50000D02*
D03*
X355000Y43504D02*
D03*
Y50000D02*
D03*
X346500Y82004D02*
D03*
Y88500D02*
D03*
X337000Y82252D02*
D03*
Y88748D02*
D03*
X674004Y134496D02*
D03*
Y128000D02*
D03*
X681004Y134496D02*
D03*
Y128000D02*
D03*
X636004Y127500D02*
D03*
Y133996D02*
D03*
X629504Y127500D02*
D03*
Y133996D02*
D03*
X595004D02*
D03*
Y127500D02*
D03*
X589004Y133748D02*
D03*
Y127252D02*
D03*
X552004Y126752D02*
D03*
Y133248D02*
D03*
X545504Y126500D02*
D03*
Y132996D02*
D03*
X511504Y133248D02*
D03*
Y126752D02*
D03*
X505504Y133248D02*
D03*
Y126752D02*
D03*
X469004Y127000D02*
D03*
Y133496D02*
D03*
X462004Y127000D02*
D03*
Y133496D02*
D03*
X1188000Y136996D02*
D03*
Y130500D02*
D03*
X1195000Y136996D02*
D03*
Y130500D02*
D03*
X928500Y136996D02*
D03*
Y130500D02*
D03*
X935500Y136996D02*
D03*
Y130500D02*
D03*
X1150000Y130000D02*
D03*
Y136496D02*
D03*
X1143500Y130000D02*
D03*
Y136496D02*
D03*
X890500Y130000D02*
D03*
Y136496D02*
D03*
X884000Y130000D02*
D03*
Y136496D02*
D03*
X1109000D02*
D03*
Y130000D02*
D03*
X1103000Y136248D02*
D03*
Y129752D02*
D03*
X849500Y136496D02*
D03*
Y130000D02*
D03*
X843500Y136248D02*
D03*
Y129752D02*
D03*
X1066000Y129252D02*
D03*
Y135748D02*
D03*
X1059500Y129000D02*
D03*
Y135496D02*
D03*
X806500Y129252D02*
D03*
Y135748D02*
D03*
X800000Y129000D02*
D03*
Y135496D02*
D03*
X1025500Y135748D02*
D03*
Y129252D02*
D03*
X1019500Y135748D02*
D03*
Y129252D02*
D03*
X766000Y135748D02*
D03*
Y129252D02*
D03*
X760000Y135748D02*
D03*
Y129252D02*
D03*
X983000Y129500D02*
D03*
Y135996D02*
D03*
X976000Y129500D02*
D03*
Y135996D02*
D03*
X723500Y129500D02*
D03*
Y135996D02*
D03*
X716500Y129500D02*
D03*
Y135996D02*
D03*
X479528Y327500D02*
D03*
Y321004D02*
D03*
X470528Y327500D02*
D03*
Y321004D02*
D03*
X492528Y196996D02*
D03*
Y190500D02*
D03*
X501028Y196996D02*
D03*
Y190500D02*
D03*
X333000Y327500D02*
D03*
Y321004D02*
D03*
X324000Y327500D02*
D03*
Y321004D02*
D03*
X346000Y196996D02*
D03*
Y190500D02*
D03*
X354500Y196996D02*
D03*
Y190500D02*
D03*
X182500Y327500D02*
D03*
Y321004D02*
D03*
X173500Y327500D02*
D03*
Y321004D02*
D03*
X195500Y196996D02*
D03*
Y190500D02*
D03*
X204000Y196996D02*
D03*
Y190500D02*
D03*
X600000Y327472D02*
D03*
Y320976D02*
D03*
X591000Y327472D02*
D03*
Y320976D02*
D03*
X613000Y196968D02*
D03*
Y190472D02*
D03*
X621500Y196968D02*
D03*
Y190472D02*
D03*
X1228000Y330000D02*
D03*
Y323504D02*
D03*
X1219000Y330000D02*
D03*
Y323504D02*
D03*
X1241000Y199496D02*
D03*
Y193000D02*
D03*
X1249500Y199496D02*
D03*
Y193000D02*
D03*
X928028Y327500D02*
D03*
Y321004D02*
D03*
X919028Y327500D02*
D03*
Y321004D02*
D03*
X941028Y196996D02*
D03*
Y190500D02*
D03*
X949528Y196996D02*
D03*
Y190500D02*
D03*
X1078028Y327500D02*
D03*
Y321004D02*
D03*
X1069028Y327500D02*
D03*
Y321004D02*
D03*
X1091028Y196996D02*
D03*
Y190500D02*
D03*
X1099528Y196996D02*
D03*
Y190500D02*
D03*
D14*
X102748Y58000D02*
D03*
X96252D02*
D03*
X430652Y201696D02*
D03*
X437148D02*
D03*
X436396Y263696D02*
D03*
X429900D02*
D03*
X430652Y193696D02*
D03*
X437148D02*
D03*
X436396Y271296D02*
D03*
X429900D02*
D03*
X284124Y201696D02*
D03*
X290620D02*
D03*
X289868Y263696D02*
D03*
X283372D02*
D03*
X284124Y193696D02*
D03*
X290620D02*
D03*
X289868Y271296D02*
D03*
X283372D02*
D03*
X133624Y201696D02*
D03*
X140120D02*
D03*
X139368Y263696D02*
D03*
X132872D02*
D03*
X133624Y193696D02*
D03*
X140120D02*
D03*
X139368Y271296D02*
D03*
X132872D02*
D03*
X823752Y201748D02*
D03*
X830248D02*
D03*
X829748Y269248D02*
D03*
X823252D02*
D03*
X824004Y193748D02*
D03*
X830500D02*
D03*
X829748Y261748D02*
D03*
X823252D02*
D03*
X768748Y201996D02*
D03*
X775244D02*
D03*
X774744Y269496D02*
D03*
X768248D02*
D03*
X769000Y193996D02*
D03*
X775496D02*
D03*
X774744Y261996D02*
D03*
X768248D02*
D03*
X714870Y202500D02*
D03*
X721366D02*
D03*
X720866Y270000D02*
D03*
X714370D02*
D03*
X715122Y194500D02*
D03*
X721618D02*
D03*
X720866Y262500D02*
D03*
X714370D02*
D03*
X1179124Y204196D02*
D03*
X1185620D02*
D03*
X1184869Y266196D02*
D03*
X1178372D02*
D03*
X1179124Y196196D02*
D03*
X1185620D02*
D03*
X1184869Y273796D02*
D03*
X1178372D02*
D03*
X879152Y201696D02*
D03*
X885648D02*
D03*
X884896Y263696D02*
D03*
X878400D02*
D03*
X879152Y193696D02*
D03*
X885648D02*
D03*
X884896Y271296D02*
D03*
X878400D02*
D03*
X1029152Y201696D02*
D03*
X1035648D02*
D03*
X1034896Y263696D02*
D03*
X1028400D02*
D03*
X1029152Y193696D02*
D03*
X1035648D02*
D03*
X1034896Y271296D02*
D03*
X1028400D02*
D03*
D38*
X1300000Y1309000D02*
D03*
X901000D02*
D03*
X1299500Y24000D02*
D03*
X1300000Y474000D02*
D03*
X779500Y24000D02*
D03*
X21000D02*
D03*
X1300000Y789000D02*
D03*
X901000Y941500D02*
D03*
X899500Y675000D02*
D03*
X531500Y1309000D02*
D03*
Y1013500D02*
D03*
Y728000D02*
D03*
Y465500D02*
D03*
X21000Y1309000D02*
D03*
Y751000D02*
D03*
Y445000D02*
D03*
X466000Y24000D02*
D03*
D39*
X1187500Y600500D02*
D03*
Y620500D02*
D03*
Y580500D02*
D03*
Y660500D02*
D03*
Y640500D02*
D03*
Y560500D02*
D03*
Y540500D02*
D03*
Y520500D02*
D03*
X967500Y660500D02*
D03*
Y640500D02*
D03*
Y600500D02*
D03*
Y620500D02*
D03*
Y580500D02*
D03*
Y540500D02*
D03*
Y560500D02*
D03*
Y520500D02*
D03*
X416500Y954500D02*
D03*
Y934500D02*
D03*
Y914500D02*
D03*
Y894500D02*
D03*
Y874500D02*
D03*
Y854500D02*
D03*
Y834500D02*
D03*
Y814500D02*
D03*
X196500Y954500D02*
D03*
Y934500D02*
D03*
Y914500D02*
D03*
Y894500D02*
D03*
Y874500D02*
D03*
Y854500D02*
D03*
Y834500D02*
D03*
Y814500D02*
D03*
X416500Y1249000D02*
D03*
Y1229000D02*
D03*
Y1209000D02*
D03*
Y1189000D02*
D03*
Y1169000D02*
D03*
Y1149000D02*
D03*
Y1129000D02*
D03*
Y1109000D02*
D03*
X196500Y1249000D02*
D03*
Y1229000D02*
D03*
Y1209000D02*
D03*
Y1189000D02*
D03*
Y1169000D02*
D03*
Y1149000D02*
D03*
Y1129000D02*
D03*
Y1109000D02*
D03*
X1187500Y1250000D02*
D03*
Y1230000D02*
D03*
Y1210000D02*
D03*
Y1190000D02*
D03*
Y1170000D02*
D03*
Y1150000D02*
D03*
Y1130000D02*
D03*
Y1110000D02*
D03*
X967500Y1250000D02*
D03*
Y1230000D02*
D03*
Y1210000D02*
D03*
Y1190000D02*
D03*
Y1170000D02*
D03*
Y1150000D02*
D03*
Y1130000D02*
D03*
Y1110000D02*
D03*
X1187500Y955500D02*
D03*
Y935500D02*
D03*
Y915500D02*
D03*
Y895500D02*
D03*
Y875500D02*
D03*
Y855500D02*
D03*
Y835500D02*
D03*
Y815500D02*
D03*
X967500Y955500D02*
D03*
Y935500D02*
D03*
Y915500D02*
D03*
Y895500D02*
D03*
Y875500D02*
D03*
Y855500D02*
D03*
Y835500D02*
D03*
Y815500D02*
D03*
X416500Y659500D02*
D03*
Y639500D02*
D03*
Y619500D02*
D03*
Y599500D02*
D03*
Y579500D02*
D03*
Y559500D02*
D03*
Y539500D02*
D03*
Y519500D02*
D03*
X196500Y659500D02*
D03*
Y639500D02*
D03*
Y619500D02*
D03*
Y599500D02*
D03*
Y579500D02*
D03*
Y559500D02*
D03*
Y539500D02*
D03*
Y519500D02*
D03*
D40*
X1077500Y710500D02*
D03*
Y470500D02*
D03*
X306500Y764500D02*
D03*
Y1004500D02*
D03*
Y1059000D02*
D03*
Y1299000D02*
D03*
X1077500Y1060000D02*
D03*
Y1300000D02*
D03*
Y765500D02*
D03*
Y1005500D02*
D03*
X306500Y469500D02*
D03*
Y709500D02*
D03*
D41*
X146500Y64500D02*
D03*
Y46000D02*
D03*
D42*
X311500Y26000D02*
D03*
Y66000D02*
D03*
Y106000D02*
D03*
X231500Y56000D02*
D03*
Y76000D02*
D03*
Y106000D02*
D03*
X1271000Y936300D02*
D03*
Y892500D02*
D03*
Y848700D02*
D03*
X68500D02*
D03*
Y892500D02*
D03*
Y936300D02*
D03*
D43*
X103685Y138500D02*
D03*
X84000D02*
D03*
D44*
X880000Y505500D02*
D03*
X888000Y770000D02*
D03*
X582500Y1308000D02*
D03*
X615500Y1012500D02*
D03*
X610000Y697000D02*
D03*
X884000Y1060500D02*
D03*
X658500Y1061000D02*
D03*
X855350D02*
D03*
X658650Y770000D02*
D03*
X855500D02*
D03*
X658650Y471000D02*
D03*
X855500D02*
D03*
X109000Y33000D02*
D03*
X89000D02*
D03*
X843961Y1010847D02*
D03*
X804000D02*
D03*
X843961Y804154D02*
D03*
X764039Y1010847D02*
D03*
X804000Y804154D02*
D03*
X764039D02*
D03*
X843961Y716878D02*
D03*
X804000D02*
D03*
X843961Y510185D02*
D03*
X764039Y716878D02*
D03*
X804000Y510185D02*
D03*
X764039D02*
D03*
X658421Y1100653D02*
D03*
X698579D02*
D03*
X658421Y1307347D02*
D03*
X698579D02*
D03*
X658421Y805153D02*
D03*
X698579D02*
D03*
X658421Y1011847D02*
D03*
X698579D02*
D03*
X658421Y510185D02*
D03*
X698579D02*
D03*
X658421Y716878D02*
D03*
X698579D02*
D03*
X764039Y1099291D02*
D03*
Y1305984D02*
D03*
X804000Y1099291D02*
D03*
Y1305984D02*
D03*
X843961Y1099291D02*
D03*
Y1305984D02*
D03*
X1314500Y126000D02*
D03*
X1315000Y106000D02*
D03*
X1217500Y66500D02*
D03*
X727500Y25000D02*
D03*
X303000Y140000D02*
D03*
X463500Y52500D02*
D03*
D45*
X1092378Y32500D02*
D03*
X1086925Y43681D02*
D03*
X1081472Y32500D02*
D03*
X1076020Y43681D02*
D03*
X1070567Y32500D02*
D03*
X1065114Y43681D02*
D03*
X1059661Y32500D02*
D03*
X1054209Y43681D02*
D03*
X1048756Y32500D02*
D03*
X1043303Y43681D02*
D03*
X1037850Y32500D02*
D03*
X1032398Y43681D02*
D03*
X1026945Y32500D02*
D03*
X1021492Y43681D02*
D03*
X1016039Y32500D02*
D03*
X1103284D02*
D03*
X1114189D02*
D03*
X1125095D02*
D03*
X1136000D02*
D03*
X1146906D02*
D03*
X1097831Y43681D02*
D03*
X1108736D02*
D03*
X1119642D02*
D03*
X1130547D02*
D03*
X1141453D02*
D03*
D46*
X988874Y38091D02*
D03*
X1174071D02*
D03*
D47*
X516028Y249000D02*
D03*
Y219000D02*
D03*
X369500Y249000D02*
D03*
Y219000D02*
D03*
X219000Y249000D02*
D03*
Y219000D02*
D03*
X636500Y248972D02*
D03*
Y218972D02*
D03*
X1264500Y251500D02*
D03*
Y221500D02*
D03*
X964528Y249000D02*
D03*
Y219000D02*
D03*
X1114528Y249000D02*
D03*
Y219000D02*
D03*
D48*
X488000Y879500D02*
D03*
Y958240D02*
D03*
X610047Y800760D02*
D03*
X488000D02*
D03*
X610047Y958240D02*
D03*
Y879500D02*
D03*
D49*
X408000Y32748D02*
D03*
X417000D02*
D03*
X431000Y34831D02*
D03*
X110000Y108500D02*
D03*
X115500D02*
D03*
X110000Y101500D02*
D03*
X115500D02*
D03*
X138618Y139000D02*
D03*
X731500Y385500D02*
D03*
X786500Y385000D02*
D03*
X686500Y342500D02*
D03*
X741000Y343000D02*
D03*
X796500Y342882D02*
D03*
X309000Y178000D02*
D03*
X492000Y74500D02*
D03*
X486000Y73000D02*
D03*
X869000Y79500D02*
D03*
X702000Y79000D02*
D03*
X784500Y79500D02*
D03*
X531000Y80500D02*
D03*
X441500Y94000D02*
D03*
X447000Y80500D02*
D03*
X525000Y87000D02*
D03*
X574000Y66000D02*
D03*
X567500Y65500D02*
D03*
X656500Y54000D02*
D03*
X651000Y54500D02*
D03*
X1044000Y90000D02*
D03*
X1128000D02*
D03*
X718500Y104000D02*
D03*
X727000D02*
D03*
X476004Y159004D02*
D03*
X579500Y182500D02*
D03*
X455000D02*
D03*
X599020Y187000D02*
D03*
X161250Y178250D02*
D03*
X530256Y127000D02*
D03*
X446504D02*
D03*
X145441Y273059D02*
D03*
X145941Y267941D02*
D03*
X120000Y267500D02*
D03*
X296559Y268941D02*
D03*
Y274059D02*
D03*
X271500Y269000D02*
D03*
X443618Y267382D02*
D03*
X414000Y267500D02*
D03*
X443500Y272500D02*
D03*
X701500Y271000D02*
D03*
X755500Y270000D02*
D03*
X743000Y281000D02*
D03*
X759500Y262000D02*
D03*
X706000Y262500D02*
D03*
X699500Y281000D02*
D03*
X697500Y304000D02*
D03*
X756250Y280750D02*
D03*
X811059Y269941D02*
D03*
X834882Y275618D02*
D03*
X726000Y275500D02*
D03*
X780059Y275059D02*
D03*
X834000Y281000D02*
D03*
X812500Y280500D02*
D03*
X800500Y281500D02*
D03*
X733000Y268500D02*
D03*
X751000Y304000D02*
D03*
X807000Y304500D02*
D03*
X814500Y261500D02*
D03*
X863000Y273000D02*
D03*
X863500Y267500D02*
D03*
X892500Y273000D02*
D03*
X890696Y279000D02*
D03*
X895500Y267500D02*
D03*
X899000Y261000D02*
D03*
X1044000Y266500D02*
D03*
X1038500Y279000D02*
D03*
X1041500Y272500D02*
D03*
X1012618Y267382D02*
D03*
X1013000Y272500D02*
D03*
X1195118Y270382D02*
D03*
X1192000Y275500D02*
D03*
X1189500Y281000D02*
D03*
X1164000Y271000D02*
D03*
Y277000D02*
D03*
X1182821Y284996D02*
D03*
X295500Y279000D02*
D03*
X778500Y281500D02*
D03*
X961000Y90000D02*
D03*
X614000Y84000D02*
D03*
X525000Y100500D02*
D03*
X446500Y103000D02*
D03*
X530500Y108000D02*
D03*
X614500Y107500D02*
D03*
X1128500Y110000D02*
D03*
X961000Y108000D02*
D03*
Y129500D02*
D03*
X869000Y110500D02*
D03*
X869252Y132000D02*
D03*
X700500Y108500D02*
D03*
X784752Y110752D02*
D03*
Y129500D02*
D03*
X1044000Y108000D02*
D03*
X626504Y101000D02*
D03*
X871600Y201696D02*
D03*
X892400Y259809D02*
D03*
X892000Y201696D02*
D03*
X982028Y362500D02*
D03*
X934028Y324500D02*
D03*
X958528Y284500D02*
D03*
X961028Y393000D02*
D03*
X970280Y333748D02*
D03*
X947528Y207500D02*
D03*
X982528Y383500D02*
D03*
X919028Y327500D02*
D03*
X967638Y278000D02*
D03*
X959528Y189500D02*
D03*
X911528Y401500D02*
D03*
X984528D02*
D03*
X927047Y188500D02*
D03*
X960500Y386500D02*
D03*
X921000Y317500D02*
D03*
X945496Y349996D02*
D03*
X891500Y341500D02*
D03*
X1132528Y383500D02*
D03*
X1069028Y327500D02*
D03*
X1095496Y349996D02*
D03*
X1041500Y341500D02*
D03*
X1120280Y333748D02*
D03*
X1071000Y317500D02*
D03*
X1117638Y278000D02*
D03*
X1097528Y207500D02*
D03*
X1061528Y401500D02*
D03*
X1101028Y392996D02*
D03*
X1132028Y362500D02*
D03*
X1084028Y324500D02*
D03*
X1108528Y284500D02*
D03*
X1134528Y401500D02*
D03*
X1021600Y201696D02*
D03*
X1042000D02*
D03*
X1282500Y386000D02*
D03*
X1219000Y330000D02*
D03*
X1259500Y192000D02*
D03*
X1245469Y352496D02*
D03*
X1191472Y344000D02*
D03*
X1270252Y336248D02*
D03*
X1220972Y320000D02*
D03*
X1267610Y280500D02*
D03*
X1247500Y210000D02*
D03*
X1211500Y404000D02*
D03*
X1251000Y395496D02*
D03*
X1282000Y365000D02*
D03*
X1234000Y327000D02*
D03*
X1192372Y262310D02*
D03*
X1258500Y287000D02*
D03*
X1227020Y191000D02*
D03*
X1284500Y404000D02*
D03*
X1261000Y395500D02*
D03*
X1260472Y389000D02*
D03*
X1171572Y204196D02*
D03*
X1191972D02*
D03*
X1017500Y262000D02*
D03*
X726618Y254000D02*
D03*
X701618Y205500D02*
D03*
X654000Y362472D02*
D03*
X630500Y284472D02*
D03*
X635504Y383472D02*
D03*
X633000Y392972D02*
D03*
X593252Y317472D02*
D03*
X642252Y333720D02*
D03*
X619500Y207472D02*
D03*
X623000Y392969D02*
D03*
X654500Y383472D02*
D03*
X591000Y327472D02*
D03*
X639610Y277972D02*
D03*
X631500Y189472D02*
D03*
X583500Y401472D02*
D03*
X656500D02*
D03*
X606000Y324472D02*
D03*
X598500Y342969D02*
D03*
X646531Y349969D02*
D03*
X781496Y208248D02*
D03*
X780496Y253496D02*
D03*
X727500Y202500D02*
D03*
X756500D02*
D03*
X836500Y208000D02*
D03*
X810500Y204748D02*
D03*
X835500Y253248D02*
D03*
X829748Y261748D02*
D03*
X774744Y261996D02*
D03*
X720866Y262500D02*
D03*
X237000Y383500D02*
D03*
X173500Y327500D02*
D03*
X214000Y189500D02*
D03*
X145972Y341500D02*
D03*
X224752Y333748D02*
D03*
X175472Y317500D02*
D03*
X222110Y278000D02*
D03*
X121972Y262000D02*
D03*
X202000Y207500D02*
D03*
X166000Y401500D02*
D03*
X205500Y392996D02*
D03*
X236500Y362500D02*
D03*
X188500Y324500D02*
D03*
X146872Y259809D02*
D03*
X213000Y284500D02*
D03*
X181520Y188500D02*
D03*
X239000Y401500D02*
D03*
X215500Y393000D02*
D03*
X214972Y386500D02*
D03*
X126872Y322992D02*
D03*
X126072Y201696D02*
D03*
X146472D02*
D03*
X867500Y262000D02*
D03*
X199969Y349996D02*
D03*
X387500Y383500D02*
D03*
X324000Y327500D02*
D03*
X364500Y189500D02*
D03*
X350468Y349996D02*
D03*
X296472Y341500D02*
D03*
X375252Y333748D02*
D03*
X325972Y317500D02*
D03*
X372610Y278000D02*
D03*
X272472Y262000D02*
D03*
X352500Y207500D02*
D03*
X316500Y401500D02*
D03*
X356000Y392996D02*
D03*
X387000Y362500D02*
D03*
X339000Y324500D02*
D03*
X363500Y284500D02*
D03*
X332020Y188500D02*
D03*
X389500Y401500D02*
D03*
X366000Y393000D02*
D03*
X365472Y386500D02*
D03*
X277372Y322992D02*
D03*
X276572Y201696D02*
D03*
X296972D02*
D03*
X534028Y383500D02*
D03*
X470528Y327500D02*
D03*
X511028Y189500D02*
D03*
X496996Y349996D02*
D03*
X443000Y341500D02*
D03*
X521779Y333748D02*
D03*
X472500Y317500D02*
D03*
X519138Y278000D02*
D03*
X419000Y262000D02*
D03*
X499028Y207500D02*
D03*
X463028Y401500D02*
D03*
X502528Y392996D02*
D03*
X533528Y362500D02*
D03*
X485528Y324500D02*
D03*
X443900Y259809D02*
D03*
X510028Y284500D02*
D03*
X478547Y188500D02*
D03*
X536028Y401500D02*
D03*
X512528Y393000D02*
D03*
X512000Y386500D02*
D03*
X423900Y322992D02*
D03*
X423100Y201696D02*
D03*
X443500D02*
D03*
X976504Y136000D02*
D03*
X1066500Y129000D02*
D03*
X1059500Y136504D02*
D03*
X1103000Y129500D02*
D03*
X1143504Y137500D02*
D03*
X1180000Y162500D02*
D03*
X1150000Y130000D02*
D03*
X1188000Y130500D02*
D03*
X1019500Y129000D02*
D03*
X983000Y129500D02*
D03*
X1044252D02*
D03*
X1156000Y103500D02*
D03*
X1140500D02*
D03*
X1071000D02*
D03*
X1060000D02*
D03*
X701500Y129500D02*
D03*
X717004Y136000D02*
D03*
X751500Y161500D02*
D03*
X760000Y129000D02*
D03*
X800000Y136504D02*
D03*
X807000Y129000D02*
D03*
X814504Y161500D02*
D03*
X723500Y129500D02*
D03*
X730500Y161504D02*
D03*
X800500Y103500D02*
D03*
X811500D02*
D03*
X835248Y161500D02*
D03*
X843500Y129500D02*
D03*
X896500Y103500D02*
D03*
X881000D02*
D03*
X890500Y130000D02*
D03*
X884004Y137500D02*
D03*
X898500Y163000D02*
D03*
X920500Y162500D02*
D03*
X928500Y130500D02*
D03*
X469004Y127000D02*
D03*
X546004Y101000D02*
D03*
X557004D02*
D03*
X580752Y159000D02*
D03*
X589004Y127000D02*
D03*
X636004Y127500D02*
D03*
X642004Y101000D02*
D03*
X644004Y160500D02*
D03*
X666004Y160000D02*
D03*
X674004Y128000D02*
D03*
X462508Y133500D02*
D03*
X505504Y126500D02*
D03*
X497004Y159000D02*
D03*
X552504Y126500D02*
D03*
X545504Y134004D02*
D03*
X560008Y159000D02*
D03*
X629508Y135000D02*
D03*
X614504Y129500D02*
D03*
X1111028Y393000D02*
D03*
X1110500Y386500D02*
D03*
X951028Y392996D02*
D03*
X872400Y322992D02*
D03*
X1022400D02*
D03*
X1172372Y325492D02*
D03*
X818500Y433500D02*
D03*
X709618Y434000D02*
D03*
X764500D02*
D03*
X1167472Y264500D02*
D03*
X1198500Y263248D02*
D03*
X1032848Y282496D02*
D03*
X1048500Y260500D02*
D03*
X882848Y282496D02*
D03*
X788000Y270500D02*
D03*
X782500Y286000D02*
D03*
X724000Y281000D02*
D03*
X727500Y286500D02*
D03*
X434348Y282496D02*
D03*
X450000Y261500D02*
D03*
X287821Y282496D02*
D03*
X303000Y261000D02*
D03*
X296500Y260500D02*
D03*
X414500Y273000D02*
D03*
X271500Y274500D02*
D03*
X120000Y273000D02*
D03*
X137320Y282496D02*
D03*
X153500Y261000D02*
D03*
X1128500Y132000D02*
D03*
X1201000Y196500D02*
D03*
X1192500Y96500D02*
D03*
X1077000Y188500D02*
D03*
X1116000Y96500D02*
D03*
X947000Y148000D02*
D03*
Y96500D02*
D03*
X856500Y144000D02*
D03*
Y96500D02*
D03*
X774000Y145000D02*
D03*
Y96500D02*
D03*
X989000Y104000D02*
D03*
X972000Y103500D02*
D03*
X760000Y104000D02*
D03*
X441500Y278500D02*
D03*
X144500D02*
D03*
X1041000Y261500D02*
D03*
X1158000Y163000D02*
D03*
X1074004Y161500D02*
D03*
X1094748D02*
D03*
X1011000D02*
D03*
X1116000Y174000D02*
D03*
X1109528Y189500D02*
D03*
X990000Y161504D02*
D03*
D50*
X387882Y25000D02*
D03*
X388264Y104000D02*
D03*
X399000D02*
D03*
D51*
X276071Y106000D02*
D03*
X259929D02*
D03*
X275571Y54500D02*
D03*
X259429D02*
D03*
D52*
X511028Y189472D02*
D03*
Y198528D02*
D03*
X364500Y189472D02*
D03*
Y198528D02*
D03*
X214000Y189472D02*
D03*
Y198528D02*
D03*
X631500Y189445D02*
D03*
Y198500D02*
D03*
X1259500Y191972D02*
D03*
Y201028D02*
D03*
X959528Y189472D02*
D03*
Y198528D02*
D03*
X1109528Y189472D02*
D03*
Y198528D02*
D03*
M02*
