G04 Layer_Color=8388736*
%FSLAX25Y25*%
%MOIN*%
G70*
G01*
G75*
%ADD10O,0.07480X0.02362*%
%ADD11R,0.07480X0.04724*%
%ADD12R,0.04724X0.07480*%
%ADD13R,0.04331X0.04331*%
%ADD14R,0.04331X0.04331*%
%ADD15R,0.03543X0.02756*%
%ADD17R,0.20866X0.07874*%
%ADD18R,0.21654X0.07874*%
%ADD19R,0.06299X0.16929*%
%ADD20R,0.03937X0.05512*%
%ADD21R,0.01575X0.06299*%
%ADD22R,0.07441X0.06181*%
%ADD23R,0.02362X0.04331*%
%ADD24R,0.04331X0.02362*%
%ADD26R,0.04488X0.07480*%
%ADD27R,0.11614X0.30000*%
%ADD28R,0.11614X0.06614*%
%ADD31R,0.04331X0.05118*%
%ADD32R,0.04803X0.03583*%
%ADD38C,0.12520*%
%ADD39C,0.10236*%
%ADD40C,0.03937*%
%ADD41C,0.09000*%
%ADD42C,0.11811*%
%ADD43C,0.05512*%
%ADD44C,0.08661*%
%ADD45C,0.07000*%
%ADD46C,0.15000*%
%ADD47C,0.04724*%
%ADD48C,0.13386*%
%ADD49C,0.04000*%
%ADD50C,0.05000*%
%ADD61R,0.10787X0.13150*%
%ADD62R,0.03120X0.08100*%
%ADD63R,0.04685X0.06457*%
%ADD64R,0.10000X0.06457*%
D10*
X496256Y121500D02*
D03*
Y126500D02*
D03*
Y131500D02*
D03*
Y136500D02*
D03*
X477752Y121500D02*
D03*
Y126500D02*
D03*
Y131500D02*
D03*
Y136500D02*
D03*
X579756Y121500D02*
D03*
Y126500D02*
D03*
Y131500D02*
D03*
Y136500D02*
D03*
X561252Y121500D02*
D03*
Y126500D02*
D03*
Y131500D02*
D03*
Y136500D02*
D03*
X664756Y121500D02*
D03*
Y126500D02*
D03*
Y131500D02*
D03*
Y136500D02*
D03*
X646252Y121500D02*
D03*
Y126500D02*
D03*
Y131500D02*
D03*
Y136500D02*
D03*
X750752Y124000D02*
D03*
Y129000D02*
D03*
Y134000D02*
D03*
Y139000D02*
D03*
X732248Y124000D02*
D03*
Y129000D02*
D03*
Y134000D02*
D03*
Y139000D02*
D03*
X834252Y124000D02*
D03*
Y129000D02*
D03*
Y134000D02*
D03*
Y139000D02*
D03*
X815748Y124000D02*
D03*
Y129000D02*
D03*
Y134000D02*
D03*
Y139000D02*
D03*
X900748D02*
D03*
Y134000D02*
D03*
Y129000D02*
D03*
Y124000D02*
D03*
X919252Y139000D02*
D03*
Y134000D02*
D03*
Y129000D02*
D03*
Y124000D02*
D03*
X991748Y139000D02*
D03*
Y134000D02*
D03*
Y129000D02*
D03*
Y124000D02*
D03*
X1010252Y139000D02*
D03*
Y134000D02*
D03*
Y129000D02*
D03*
Y124000D02*
D03*
X1075248Y139000D02*
D03*
Y134000D02*
D03*
Y129000D02*
D03*
Y124000D02*
D03*
X1093752Y139000D02*
D03*
Y134000D02*
D03*
Y129000D02*
D03*
Y124000D02*
D03*
X1160248Y139000D02*
D03*
Y134000D02*
D03*
Y129000D02*
D03*
Y124000D02*
D03*
X1178752Y139000D02*
D03*
Y134000D02*
D03*
Y129000D02*
D03*
Y124000D02*
D03*
D11*
X687500Y352500D02*
D03*
Y342264D02*
D03*
X732000Y375764D02*
D03*
Y386000D02*
D03*
X796500Y353118D02*
D03*
Y342882D02*
D03*
X742000Y353618D02*
D03*
Y343382D02*
D03*
X786500Y374764D02*
D03*
Y385000D02*
D03*
X423900Y294496D02*
D03*
Y304732D02*
D03*
X436700Y294496D02*
D03*
Y304732D02*
D03*
X277372Y294496D02*
D03*
Y304732D02*
D03*
X290172Y294496D02*
D03*
Y304732D02*
D03*
X126872Y294496D02*
D03*
Y304732D02*
D03*
X139672Y294496D02*
D03*
Y304732D02*
D03*
X815000Y295748D02*
D03*
Y305984D02*
D03*
X829000Y296248D02*
D03*
Y306484D02*
D03*
X759996Y295996D02*
D03*
Y306232D02*
D03*
X773996Y296496D02*
D03*
Y306732D02*
D03*
X706118Y296500D02*
D03*
Y306736D02*
D03*
X720118Y297000D02*
D03*
Y307236D02*
D03*
X1172372Y296996D02*
D03*
Y307232D02*
D03*
X1185172Y296996D02*
D03*
Y307232D02*
D03*
X872400Y294496D02*
D03*
Y304732D02*
D03*
X885200Y294496D02*
D03*
Y304732D02*
D03*
X1022400Y294496D02*
D03*
Y304732D02*
D03*
X1035200Y294496D02*
D03*
Y304732D02*
D03*
D12*
X731000Y433500D02*
D03*
X720764D02*
D03*
X398118Y25000D02*
D03*
X387882D02*
D03*
X398500Y104000D02*
D03*
X388264D02*
D03*
X128382Y139000D02*
D03*
X138618D02*
D03*
X819236Y367248D02*
D03*
X809000D02*
D03*
X808882Y382748D02*
D03*
X819118D02*
D03*
Y336748D02*
D03*
X808882D02*
D03*
X819236Y352748D02*
D03*
X809000D02*
D03*
X819118Y397748D02*
D03*
X808882D02*
D03*
Y412748D02*
D03*
X819118D02*
D03*
X764232Y367496D02*
D03*
X753996D02*
D03*
X753878Y382996D02*
D03*
X764114D02*
D03*
Y336996D02*
D03*
X753878D02*
D03*
X764232Y352996D02*
D03*
X753996D02*
D03*
X764114Y397996D02*
D03*
X753878D02*
D03*
Y412996D02*
D03*
X764114D02*
D03*
X710354Y368000D02*
D03*
X700118D02*
D03*
X700000Y383500D02*
D03*
X710236D02*
D03*
Y337500D02*
D03*
X700000D02*
D03*
X710354Y353500D02*
D03*
X700118D02*
D03*
X710236Y398500D02*
D03*
X700000D02*
D03*
Y413500D02*
D03*
X710236D02*
D03*
D13*
X1164500Y95748D02*
D03*
Y89252D02*
D03*
X1172500Y95748D02*
D03*
Y89252D02*
D03*
X1089500Y95496D02*
D03*
Y89000D02*
D03*
X1081500Y95496D02*
D03*
Y89000D02*
D03*
X1005500Y94996D02*
D03*
Y88500D02*
D03*
X913500Y96248D02*
D03*
Y89752D02*
D03*
X905500Y96248D02*
D03*
Y89752D02*
D03*
X830000Y96248D02*
D03*
Y89752D02*
D03*
X822000Y96248D02*
D03*
Y89752D02*
D03*
X745500Y95500D02*
D03*
Y89004D02*
D03*
X737500Y95748D02*
D03*
Y89252D02*
D03*
X997500Y94996D02*
D03*
Y88500D02*
D03*
X659000Y93748D02*
D03*
Y87252D02*
D03*
X651000Y93500D02*
D03*
Y87004D02*
D03*
X575500Y93248D02*
D03*
Y86752D02*
D03*
X567500Y93248D02*
D03*
Y86752D02*
D03*
X491500Y92248D02*
D03*
Y85752D02*
D03*
X483000Y92248D02*
D03*
Y85752D02*
D03*
X720000Y326248D02*
D03*
Y319752D02*
D03*
X773500Y325496D02*
D03*
Y319000D02*
D03*
X829000Y325248D02*
D03*
Y318752D02*
D03*
X650504Y151496D02*
D03*
Y145000D02*
D03*
X659504Y151496D02*
D03*
Y145000D02*
D03*
X566504Y150748D02*
D03*
Y144252D02*
D03*
X574004Y150496D02*
D03*
Y144000D02*
D03*
X482504Y150996D02*
D03*
Y144500D02*
D03*
X490504Y150996D02*
D03*
Y144500D02*
D03*
X1164500Y155000D02*
D03*
Y148504D02*
D03*
X905000Y153996D02*
D03*
Y147500D02*
D03*
X1173000Y155000D02*
D03*
Y148504D02*
D03*
X914000Y153996D02*
D03*
Y147500D02*
D03*
X1080500Y153248D02*
D03*
Y146752D02*
D03*
X821000Y153248D02*
D03*
Y146752D02*
D03*
X1088000Y152996D02*
D03*
Y146500D02*
D03*
X828500Y152996D02*
D03*
Y146500D02*
D03*
X996500Y154248D02*
D03*
Y147752D02*
D03*
X737000Y153496D02*
D03*
Y147000D02*
D03*
X1005000Y153996D02*
D03*
Y147500D02*
D03*
X745000Y153496D02*
D03*
Y147000D02*
D03*
X512028Y393000D02*
D03*
Y386504D02*
D03*
X502528Y392996D02*
D03*
Y386500D02*
D03*
X427500Y188000D02*
D03*
Y194496D02*
D03*
X435500Y188000D02*
D03*
Y194496D02*
D03*
X450000Y254504D02*
D03*
Y261000D02*
D03*
X365500Y393000D02*
D03*
Y386504D02*
D03*
X356000Y392996D02*
D03*
Y386500D02*
D03*
X280972Y188000D02*
D03*
Y194496D02*
D03*
X288972Y188000D02*
D03*
Y194496D02*
D03*
X302972Y254496D02*
D03*
Y260992D02*
D03*
X215000Y393000D02*
D03*
Y386504D02*
D03*
X205500Y392996D02*
D03*
Y386500D02*
D03*
X130472Y188000D02*
D03*
Y194496D02*
D03*
X138000Y188000D02*
D03*
Y194496D02*
D03*
X153500Y254504D02*
D03*
Y261000D02*
D03*
X815000Y324748D02*
D03*
Y318252D02*
D03*
X818882Y194000D02*
D03*
Y200496D02*
D03*
X827000Y194248D02*
D03*
Y200744D02*
D03*
X842500Y253252D02*
D03*
Y259748D02*
D03*
X759996Y324996D02*
D03*
Y318500D02*
D03*
X763878Y194248D02*
D03*
Y200744D02*
D03*
X771996Y194496D02*
D03*
Y200992D02*
D03*
X788000Y253752D02*
D03*
Y260248D02*
D03*
X706118Y325500D02*
D03*
Y319004D02*
D03*
X710000Y194752D02*
D03*
Y201248D02*
D03*
X718118Y195000D02*
D03*
Y201496D02*
D03*
X733500Y253000D02*
D03*
Y259496D02*
D03*
X632500Y392972D02*
D03*
Y386476D02*
D03*
X623000Y392969D02*
D03*
Y386472D02*
D03*
X1260500Y395500D02*
D03*
Y389004D02*
D03*
X1251000Y395496D02*
D03*
Y389000D02*
D03*
X1175972Y190500D02*
D03*
Y196996D02*
D03*
X1183972Y190500D02*
D03*
Y196996D02*
D03*
X1198500Y256752D02*
D03*
Y263248D02*
D03*
X960528Y393000D02*
D03*
Y386504D02*
D03*
X951028Y392996D02*
D03*
Y386500D02*
D03*
X876000Y188000D02*
D03*
Y194496D02*
D03*
X884000Y188000D02*
D03*
Y194496D02*
D03*
X899000Y254752D02*
D03*
Y261248D02*
D03*
X1110528Y393000D02*
D03*
Y386504D02*
D03*
X1101028Y392996D02*
D03*
Y386500D02*
D03*
X1026000Y188000D02*
D03*
Y194496D02*
D03*
X1034000Y188000D02*
D03*
Y194496D02*
D03*
X1048500Y254000D02*
D03*
Y260496D02*
D03*
X524028Y349996D02*
D03*
Y343500D02*
D03*
X478028Y342996D02*
D03*
Y336500D02*
D03*
X423900Y316496D02*
D03*
Y322992D02*
D03*
X436300Y316096D02*
D03*
Y322592D02*
D03*
X377500Y349996D02*
D03*
Y343500D02*
D03*
X331500Y342996D02*
D03*
Y336500D02*
D03*
X277372Y316496D02*
D03*
Y322992D02*
D03*
X289772Y316096D02*
D03*
Y322592D02*
D03*
X227000Y349996D02*
D03*
Y343500D02*
D03*
X181000Y342996D02*
D03*
Y336500D02*
D03*
X126872Y316496D02*
D03*
Y322992D02*
D03*
X139272Y316096D02*
D03*
Y322592D02*
D03*
X818500Y426752D02*
D03*
Y433248D02*
D03*
X763496Y427000D02*
D03*
Y433496D02*
D03*
X709618Y427504D02*
D03*
Y434000D02*
D03*
X644500Y349969D02*
D03*
Y343472D02*
D03*
X598500Y342969D02*
D03*
Y336472D02*
D03*
X1272500Y352496D02*
D03*
Y346000D02*
D03*
X1226500Y345496D02*
D03*
Y339000D02*
D03*
X1172372Y318996D02*
D03*
Y325492D02*
D03*
X1184772Y318596D02*
D03*
Y325092D02*
D03*
X972528Y349996D02*
D03*
Y343500D02*
D03*
X926528Y342996D02*
D03*
Y336500D02*
D03*
X872400Y316496D02*
D03*
Y322992D02*
D03*
X884800Y316096D02*
D03*
Y322592D02*
D03*
X1122528Y349996D02*
D03*
Y343500D02*
D03*
X1076528Y342996D02*
D03*
Y336500D02*
D03*
X1022400Y316496D02*
D03*
Y322992D02*
D03*
X1034800Y316096D02*
D03*
Y322592D02*
D03*
X408000Y26252D02*
D03*
Y32748D02*
D03*
X417000Y26252D02*
D03*
Y32748D02*
D03*
X510028Y284500D02*
D03*
Y290996D02*
D03*
X541028Y285004D02*
D03*
Y291500D02*
D03*
X532028Y285000D02*
D03*
Y291496D02*
D03*
X363500Y284500D02*
D03*
Y290996D02*
D03*
X394500Y285004D02*
D03*
Y291500D02*
D03*
X385500Y285000D02*
D03*
Y291496D02*
D03*
X213000Y284500D02*
D03*
Y290996D02*
D03*
X244000Y285004D02*
D03*
Y291500D02*
D03*
X235000Y285000D02*
D03*
Y291496D02*
D03*
X630500Y284472D02*
D03*
Y290968D02*
D03*
X661500Y284976D02*
D03*
Y291472D02*
D03*
X652500Y284972D02*
D03*
Y291469D02*
D03*
X1258500Y287000D02*
D03*
Y293496D02*
D03*
X1289500Y287504D02*
D03*
Y294000D02*
D03*
X1280500Y287500D02*
D03*
Y293996D02*
D03*
X958528Y284500D02*
D03*
Y290996D02*
D03*
X989528Y285004D02*
D03*
Y291500D02*
D03*
X980528Y285000D02*
D03*
Y291496D02*
D03*
X1108528Y284500D02*
D03*
Y290996D02*
D03*
X1139528Y285004D02*
D03*
Y291500D02*
D03*
X1130528Y285000D02*
D03*
Y291496D02*
D03*
D14*
X680748Y121500D02*
D03*
X674252D02*
D03*
X650748Y324500D02*
D03*
X644252D02*
D03*
X629008Y120500D02*
D03*
X635504D02*
D03*
X644508Y160000D02*
D03*
X651004D02*
D03*
X651504Y101500D02*
D03*
X658000D02*
D03*
X666252Y160000D02*
D03*
X659756D02*
D03*
X621252Y129500D02*
D03*
X614756D02*
D03*
X545256Y120000D02*
D03*
X551752D02*
D03*
X560008Y159000D02*
D03*
X566504D02*
D03*
X567756Y101500D02*
D03*
X574252D02*
D03*
X580752Y159000D02*
D03*
X574256D02*
D03*
X536752Y127000D02*
D03*
X530256D02*
D03*
X596252Y120500D02*
D03*
X589756D02*
D03*
X461756Y120000D02*
D03*
X468252D02*
D03*
X476008Y159000D02*
D03*
X482504D02*
D03*
X484008Y101000D02*
D03*
X490504D02*
D03*
X497004Y159000D02*
D03*
X490508D02*
D03*
X453000Y127000D02*
D03*
X446504D02*
D03*
X512752Y119500D02*
D03*
X506256D02*
D03*
X1143004Y123000D02*
D03*
X1149500D02*
D03*
X1157752Y163000D02*
D03*
X1164248D02*
D03*
X883504Y123000D02*
D03*
X890000D02*
D03*
X899004Y162500D02*
D03*
X905500D02*
D03*
X1165500Y104000D02*
D03*
X1171996D02*
D03*
X906000D02*
D03*
X912496D02*
D03*
X1179748Y163000D02*
D03*
X1173252D02*
D03*
X920748Y162500D02*
D03*
X914252D02*
D03*
X1135996Y132000D02*
D03*
X1129500D02*
D03*
X875748D02*
D03*
X869252D02*
D03*
X1194496Y123500D02*
D03*
X1188000D02*
D03*
X934996D02*
D03*
X928500D02*
D03*
X1059252Y122500D02*
D03*
X1065748D02*
D03*
X1074004Y161500D02*
D03*
X1080500D02*
D03*
X799752Y122500D02*
D03*
X806248D02*
D03*
X814504Y161500D02*
D03*
X821000D02*
D03*
X1081752Y104000D02*
D03*
X1088248D02*
D03*
X822252D02*
D03*
X828748D02*
D03*
X1094748Y161500D02*
D03*
X1088252D02*
D03*
X835248D02*
D03*
X828752D02*
D03*
X1050748Y129500D02*
D03*
X1044252D02*
D03*
X791248D02*
D03*
X784752D02*
D03*
X1110248Y123000D02*
D03*
X1103752D02*
D03*
X850748D02*
D03*
X844252D02*
D03*
X975752Y122500D02*
D03*
X982248D02*
D03*
X990004Y162000D02*
D03*
X996500D02*
D03*
X716252Y122500D02*
D03*
X722748D02*
D03*
X730504Y161500D02*
D03*
X737000D02*
D03*
X998004Y103500D02*
D03*
X1004500D02*
D03*
X738504D02*
D03*
X745000D02*
D03*
X1011496Y162000D02*
D03*
X1005000D02*
D03*
X751500Y161500D02*
D03*
X745004D02*
D03*
X967496Y129500D02*
D03*
X961000D02*
D03*
X707996D02*
D03*
X701500D02*
D03*
X1026748Y122000D02*
D03*
X1020252D02*
D03*
X767248D02*
D03*
X760752D02*
D03*
X368996Y324500D02*
D03*
X362500D02*
D03*
X383748D02*
D03*
X377252D02*
D03*
X515248D02*
D03*
X508752D02*
D03*
X217748D02*
D03*
X211252D02*
D03*
X530028Y324496D02*
D03*
X523531D02*
D03*
X232996Y324500D02*
D03*
X226500D02*
D03*
X635248Y324472D02*
D03*
X628752D02*
D03*
X1263248Y327000D02*
D03*
X1256752D02*
D03*
X1278496D02*
D03*
X1272000D02*
D03*
X1113248Y324500D02*
D03*
X1106752D02*
D03*
X1128524D02*
D03*
X1122028D02*
D03*
X963276D02*
D03*
X956779D02*
D03*
X978248D02*
D03*
X971752D02*
D03*
X629008Y113000D02*
D03*
X635504D02*
D03*
X636004Y135000D02*
D03*
X629508D02*
D03*
X680500Y113500D02*
D03*
X674004D02*
D03*
X545256Y112500D02*
D03*
X551752D02*
D03*
X551504Y134500D02*
D03*
X545008D02*
D03*
X596752Y113000D02*
D03*
X590256D02*
D03*
X461508Y111500D02*
D03*
X468004D02*
D03*
X469004Y133500D02*
D03*
X462508D02*
D03*
X512500Y111500D02*
D03*
X506004D02*
D03*
X1143004Y115500D02*
D03*
X1149500D02*
D03*
X883504D02*
D03*
X890000D02*
D03*
X1150000Y137500D02*
D03*
X1143504D02*
D03*
X890500D02*
D03*
X884004D02*
D03*
X1194496Y116000D02*
D03*
X1188000D02*
D03*
X934996D02*
D03*
X928500D02*
D03*
X1059252Y115000D02*
D03*
X1065748D02*
D03*
X799752D02*
D03*
X806248D02*
D03*
X1065500Y137000D02*
D03*
X1059004D02*
D03*
X806000D02*
D03*
X799504D02*
D03*
X1110748Y115500D02*
D03*
X1104252D02*
D03*
X851248D02*
D03*
X844752D02*
D03*
X975504Y114000D02*
D03*
X982000D02*
D03*
X716004D02*
D03*
X722500D02*
D03*
X983000Y136000D02*
D03*
X976504D02*
D03*
X723500D02*
D03*
X717004D02*
D03*
X1026496Y114000D02*
D03*
X1020000D02*
D03*
X766996D02*
D03*
X760500D02*
D03*
X529776Y334000D02*
D03*
X523279D02*
D03*
X525531Y371000D02*
D03*
X532028D02*
D03*
X523531Y315500D02*
D03*
X530028D02*
D03*
X481531Y306500D02*
D03*
X488028D02*
D03*
X481779Y296000D02*
D03*
X488276D02*
D03*
X478279Y364000D02*
D03*
X484776D02*
D03*
X479276Y317500D02*
D03*
X472780D02*
D03*
X465279Y306500D02*
D03*
X471776D02*
D03*
X465279Y296000D02*
D03*
X471776D02*
D03*
X427852Y282496D02*
D03*
X434348D02*
D03*
X383248Y334000D02*
D03*
X376752D02*
D03*
X379004Y371000D02*
D03*
X385500D02*
D03*
X377004Y315500D02*
D03*
X383500D02*
D03*
X335004Y306500D02*
D03*
X341500D02*
D03*
X335252Y296000D02*
D03*
X341748D02*
D03*
X331752Y364000D02*
D03*
X338248D02*
D03*
X332748Y317500D02*
D03*
X326252D02*
D03*
X318752Y306500D02*
D03*
X325248D02*
D03*
X318752Y296000D02*
D03*
X325248D02*
D03*
X281324Y282496D02*
D03*
X287821D02*
D03*
X232748Y334000D02*
D03*
X226252D02*
D03*
X228504Y371000D02*
D03*
X235000D02*
D03*
X226504Y315500D02*
D03*
X233000D02*
D03*
X184504Y306500D02*
D03*
X191000D02*
D03*
X184752Y296000D02*
D03*
X191248D02*
D03*
X181252Y364000D02*
D03*
X187748D02*
D03*
X182248Y317500D02*
D03*
X175752D02*
D03*
X168252Y306500D02*
D03*
X174748D02*
D03*
X168252Y296000D02*
D03*
X174748D02*
D03*
X130824Y282496D02*
D03*
X137320D02*
D03*
X819252Y285748D02*
D03*
X825748D02*
D03*
X764248Y285996D02*
D03*
X770744D02*
D03*
X710370Y286500D02*
D03*
X716866D02*
D03*
X650248Y333972D02*
D03*
X643752D02*
D03*
X646004Y370972D02*
D03*
X652500D02*
D03*
X644004Y315472D02*
D03*
X650500D02*
D03*
X602004Y306472D02*
D03*
X608500D02*
D03*
X602252Y295972D02*
D03*
X608748D02*
D03*
X598752Y363972D02*
D03*
X605248D02*
D03*
X599748Y317472D02*
D03*
X593252D02*
D03*
X585752Y306472D02*
D03*
X592248D02*
D03*
X585752Y295972D02*
D03*
X592248D02*
D03*
X1278248Y336500D02*
D03*
X1271752D02*
D03*
X1274004Y373500D02*
D03*
X1280500D02*
D03*
X1272004Y318000D02*
D03*
X1278500D02*
D03*
X1230004Y309000D02*
D03*
X1236500D02*
D03*
X1230252Y298500D02*
D03*
X1236748D02*
D03*
X1226752Y366500D02*
D03*
X1233248D02*
D03*
X1227748Y320000D02*
D03*
X1221252D02*
D03*
X1213752Y309000D02*
D03*
X1220248D02*
D03*
X1213752Y298500D02*
D03*
X1220248D02*
D03*
X1176324Y284996D02*
D03*
X1182821D02*
D03*
X978276Y334000D02*
D03*
X971780D02*
D03*
X974032Y371000D02*
D03*
X980528D02*
D03*
X972031Y315500D02*
D03*
X978528D02*
D03*
X930031Y306500D02*
D03*
X936528D02*
D03*
X930280Y296000D02*
D03*
X936776D02*
D03*
X926779Y364000D02*
D03*
X933276D02*
D03*
X927776Y317500D02*
D03*
X921280D02*
D03*
X913780Y306500D02*
D03*
X920276D02*
D03*
X913780Y296000D02*
D03*
X920276D02*
D03*
X876352Y282496D02*
D03*
X882848D02*
D03*
X1128276Y334000D02*
D03*
X1121780D02*
D03*
X1124032Y371000D02*
D03*
X1130528D02*
D03*
X1122031Y315500D02*
D03*
X1128528D02*
D03*
X1080031Y306500D02*
D03*
X1086528D02*
D03*
X1080280Y296000D02*
D03*
X1086776D02*
D03*
X1076779Y364000D02*
D03*
X1083276D02*
D03*
X1077776Y317500D02*
D03*
X1071280D02*
D03*
X1063780Y306500D02*
D03*
X1070276D02*
D03*
X1063780Y296000D02*
D03*
X1070276D02*
D03*
X1026352Y282496D02*
D03*
X1032848D02*
D03*
D15*
X420913Y267941D02*
D03*
Y273059D02*
D03*
X428000Y270500D02*
D03*
X869413Y267941D02*
D03*
Y273059D02*
D03*
X876500Y270500D02*
D03*
X441500Y272500D02*
D03*
Y267382D02*
D03*
X434413Y269941D02*
D03*
X274913Y269441D02*
D03*
Y274559D02*
D03*
X282000Y272000D02*
D03*
X295087Y274059D02*
D03*
Y268941D02*
D03*
X288000Y271500D02*
D03*
X125000Y267882D02*
D03*
Y273000D02*
D03*
X132087Y270441D02*
D03*
X143759Y273059D02*
D03*
Y267941D02*
D03*
X136672Y270500D02*
D03*
X812913Y269941D02*
D03*
Y275059D02*
D03*
X820000Y272500D02*
D03*
X833000Y275618D02*
D03*
Y270500D02*
D03*
X825913Y273059D02*
D03*
X757913Y269941D02*
D03*
Y275059D02*
D03*
X765000Y272500D02*
D03*
X778587Y275059D02*
D03*
Y269941D02*
D03*
X771500Y272500D02*
D03*
X704000Y270500D02*
D03*
Y275618D02*
D03*
X711087Y273059D02*
D03*
X724000Y275500D02*
D03*
Y270382D02*
D03*
X716913Y272941D02*
D03*
X1169000Y271382D02*
D03*
Y276500D02*
D03*
X1176087Y273941D02*
D03*
X1190000Y275500D02*
D03*
Y270382D02*
D03*
X1182913Y272941D02*
D03*
X890000Y273000D02*
D03*
Y267882D02*
D03*
X882913Y270441D02*
D03*
X1019500Y267382D02*
D03*
Y272500D02*
D03*
X1026587Y269941D02*
D03*
X1039500Y272500D02*
D03*
Y267382D02*
D03*
X1032413Y269941D02*
D03*
D17*
X87500Y72500D02*
D03*
D18*
Y86279D02*
D03*
D19*
X152130Y104500D02*
D03*
X141500D02*
D03*
D20*
X434740Y26169D02*
D03*
X427260D02*
D03*
X431000Y34831D02*
D03*
D21*
X524528Y285500D02*
D03*
X521969D02*
D03*
X519410D02*
D03*
X516850D02*
D03*
Y302035D02*
D03*
X519410D02*
D03*
X521969D02*
D03*
X524528D02*
D03*
X378000Y285500D02*
D03*
X375441D02*
D03*
X372882D02*
D03*
X370323D02*
D03*
Y302035D02*
D03*
X372882D02*
D03*
X375441D02*
D03*
X378000D02*
D03*
X227500Y285500D02*
D03*
X224941D02*
D03*
X222382D02*
D03*
X219823D02*
D03*
Y302035D02*
D03*
X222382D02*
D03*
X224941D02*
D03*
X227500D02*
D03*
X645000Y285472D02*
D03*
X642441D02*
D03*
X639882D02*
D03*
X637323D02*
D03*
Y302008D02*
D03*
X639882D02*
D03*
X642441D02*
D03*
X645000D02*
D03*
X1273000Y288000D02*
D03*
X1270441D02*
D03*
X1267882D02*
D03*
X1265323D02*
D03*
Y304535D02*
D03*
X1267882D02*
D03*
X1270441D02*
D03*
X1273000D02*
D03*
X973028Y285500D02*
D03*
X970469D02*
D03*
X967909D02*
D03*
X965350D02*
D03*
Y302035D02*
D03*
X967909D02*
D03*
X970469D02*
D03*
X973028D02*
D03*
X1123028Y285500D02*
D03*
X1120469D02*
D03*
X1117909D02*
D03*
X1115350D02*
D03*
Y302035D02*
D03*
X1117909D02*
D03*
X1120469D02*
D03*
X1123028D02*
D03*
D22*
X520689Y293768D02*
D03*
X374161D02*
D03*
X223661D02*
D03*
X641161Y293740D02*
D03*
X1269161Y296268D02*
D03*
X969189Y293768D02*
D03*
X1119189D02*
D03*
D23*
X478547Y199130D02*
D03*
X482287D02*
D03*
X486028D02*
D03*
Y188500D02*
D03*
X478547D02*
D03*
X332020Y199130D02*
D03*
X335760D02*
D03*
X339500D02*
D03*
Y188500D02*
D03*
X332020D02*
D03*
X181520Y199130D02*
D03*
X185260D02*
D03*
X189000D02*
D03*
Y188500D02*
D03*
X181520D02*
D03*
X599020Y199102D02*
D03*
X602760D02*
D03*
X606500D02*
D03*
Y188472D02*
D03*
X599020D02*
D03*
X1227020Y201630D02*
D03*
X1230760D02*
D03*
X1234500D02*
D03*
Y191000D02*
D03*
X1227020D02*
D03*
X927047Y199130D02*
D03*
X930787D02*
D03*
X934528D02*
D03*
Y188500D02*
D03*
X927047D02*
D03*
X1077047Y199130D02*
D03*
X1080787D02*
D03*
X1084528D02*
D03*
Y188500D02*
D03*
X1077047D02*
D03*
D24*
X463343Y330240D02*
D03*
Y326500D02*
D03*
Y322760D02*
D03*
X452713D02*
D03*
Y330240D02*
D03*
X316815D02*
D03*
Y326500D02*
D03*
Y322760D02*
D03*
X306185D02*
D03*
Y330240D02*
D03*
X166315D02*
D03*
Y326500D02*
D03*
Y322760D02*
D03*
X155685D02*
D03*
Y330240D02*
D03*
X583815Y330213D02*
D03*
Y326472D02*
D03*
Y322732D02*
D03*
X573185D02*
D03*
Y330213D02*
D03*
X1211815Y332740D02*
D03*
Y329000D02*
D03*
Y325260D02*
D03*
X1201185D02*
D03*
Y332740D02*
D03*
X911843Y330240D02*
D03*
Y326500D02*
D03*
Y322760D02*
D03*
X901213D02*
D03*
Y330240D02*
D03*
X1061843D02*
D03*
Y326500D02*
D03*
Y322760D02*
D03*
X1051213D02*
D03*
Y330240D02*
D03*
D26*
X465020Y258528D02*
D03*
X477028D02*
D03*
X489035D02*
D03*
Y214000D02*
D03*
X477028D02*
D03*
X465020D02*
D03*
X318492Y258528D02*
D03*
X330500D02*
D03*
X342508D02*
D03*
Y214000D02*
D03*
X330500D02*
D03*
X318492D02*
D03*
X167992Y258528D02*
D03*
X180000D02*
D03*
X192008D02*
D03*
Y214000D02*
D03*
X180000D02*
D03*
X167992D02*
D03*
X585492Y258500D02*
D03*
X597500D02*
D03*
X609508D02*
D03*
Y213972D02*
D03*
X597500D02*
D03*
X585492D02*
D03*
X1213492Y261028D02*
D03*
X1225500D02*
D03*
X1237508D02*
D03*
Y216500D02*
D03*
X1225500D02*
D03*
X1213492D02*
D03*
X913520Y258528D02*
D03*
X925528D02*
D03*
X937535D02*
D03*
Y214000D02*
D03*
X925528D02*
D03*
X913520D02*
D03*
X1063520Y258528D02*
D03*
X1075528D02*
D03*
X1087535D02*
D03*
Y214000D02*
D03*
X1075528D02*
D03*
X1063520D02*
D03*
D27*
X114591Y590500D02*
D03*
X144000D02*
D03*
X886091D02*
D03*
X915500D02*
D03*
X115591Y886000D02*
D03*
X145000D02*
D03*
X886091D02*
D03*
X915500D02*
D03*
X116000Y1177500D02*
D03*
X145409D02*
D03*
X886091D02*
D03*
X915500D02*
D03*
D28*
X114591Y569791D02*
D03*
X144000D02*
D03*
X886091D02*
D03*
X915500D02*
D03*
X115591Y865291D02*
D03*
X145000D02*
D03*
X886091D02*
D03*
X915500D02*
D03*
X116000Y1156791D02*
D03*
X145409D02*
D03*
X886091D02*
D03*
X915500D02*
D03*
D31*
X536028Y401500D02*
D03*
X526972D02*
D03*
X472555Y402000D02*
D03*
X463500D02*
D03*
X389500Y401500D02*
D03*
X380445D02*
D03*
X326028Y402000D02*
D03*
X316972D02*
D03*
X239000Y401500D02*
D03*
X229945D02*
D03*
X175528Y402000D02*
D03*
X166472D02*
D03*
X656500Y401472D02*
D03*
X647445D02*
D03*
X593028Y401972D02*
D03*
X583972D02*
D03*
X1284500Y404000D02*
D03*
X1275445D02*
D03*
X1221028Y404500D02*
D03*
X1211972D02*
D03*
X921055Y402000D02*
D03*
X912000D02*
D03*
X1134528Y401500D02*
D03*
X1125472D02*
D03*
X1071055Y402000D02*
D03*
X1062000D02*
D03*
X533528Y362500D02*
D03*
X524472D02*
D03*
X487055Y353500D02*
D03*
X478000D02*
D03*
X387000Y362500D02*
D03*
X377945D02*
D03*
X340528Y353500D02*
D03*
X331472D02*
D03*
X236500Y362500D02*
D03*
X227445D02*
D03*
X190028Y353500D02*
D03*
X180972D02*
D03*
X654000Y362472D02*
D03*
X644945D02*
D03*
X607528Y353472D02*
D03*
X598472D02*
D03*
X1282000Y365000D02*
D03*
X1272945D02*
D03*
X1235528Y356000D02*
D03*
X1226472D02*
D03*
X982028Y362500D02*
D03*
X972972D02*
D03*
X935555Y353500D02*
D03*
X926500D02*
D03*
X1132028Y362500D02*
D03*
X1122972D02*
D03*
X1085555Y353500D02*
D03*
X1076500D02*
D03*
X974972Y401500D02*
D03*
X984028D02*
D03*
D32*
X489028Y285083D02*
D03*
Y274000D02*
D03*
X465528Y274500D02*
D03*
Y285583D02*
D03*
X342500Y285083D02*
D03*
Y274000D02*
D03*
X319000Y274500D02*
D03*
Y285583D02*
D03*
X192000Y285083D02*
D03*
Y274000D02*
D03*
X168500Y274500D02*
D03*
Y285583D02*
D03*
X609500Y285055D02*
D03*
Y273972D02*
D03*
X586000Y274472D02*
D03*
Y285555D02*
D03*
X1237500Y287583D02*
D03*
Y276500D02*
D03*
X1214000Y277000D02*
D03*
Y288083D02*
D03*
X937528Y285083D02*
D03*
Y274000D02*
D03*
X914028Y274500D02*
D03*
Y285583D02*
D03*
X1087528Y285083D02*
D03*
Y274000D02*
D03*
X1064028Y274500D02*
D03*
Y285583D02*
D03*
D38*
X1300000Y1309000D02*
D03*
X901000D02*
D03*
X1299500Y24000D02*
D03*
X1300000Y474000D02*
D03*
X779500Y24000D02*
D03*
X21000D02*
D03*
X1300000Y789000D02*
D03*
X901000Y941500D02*
D03*
X899500Y675000D02*
D03*
X531500Y1309000D02*
D03*
Y1013500D02*
D03*
Y728000D02*
D03*
Y465500D02*
D03*
X21000Y1309000D02*
D03*
Y751000D02*
D03*
Y445000D02*
D03*
X466000Y24000D02*
D03*
D39*
X1187500Y600500D02*
D03*
Y620500D02*
D03*
Y580500D02*
D03*
Y660500D02*
D03*
Y640500D02*
D03*
Y560500D02*
D03*
Y540500D02*
D03*
Y520500D02*
D03*
X967500Y660500D02*
D03*
Y640500D02*
D03*
Y600500D02*
D03*
Y620500D02*
D03*
Y580500D02*
D03*
Y540500D02*
D03*
Y560500D02*
D03*
Y520500D02*
D03*
X416500Y954500D02*
D03*
Y934500D02*
D03*
Y914500D02*
D03*
Y894500D02*
D03*
Y874500D02*
D03*
Y854500D02*
D03*
Y834500D02*
D03*
Y814500D02*
D03*
X196500Y954500D02*
D03*
Y934500D02*
D03*
Y914500D02*
D03*
Y894500D02*
D03*
Y874500D02*
D03*
Y854500D02*
D03*
Y834500D02*
D03*
Y814500D02*
D03*
X416500Y1249000D02*
D03*
Y1229000D02*
D03*
Y1209000D02*
D03*
Y1189000D02*
D03*
Y1169000D02*
D03*
Y1149000D02*
D03*
Y1129000D02*
D03*
Y1109000D02*
D03*
X196500Y1249000D02*
D03*
Y1229000D02*
D03*
Y1209000D02*
D03*
Y1189000D02*
D03*
Y1169000D02*
D03*
Y1149000D02*
D03*
Y1129000D02*
D03*
Y1109000D02*
D03*
X1187500Y1250000D02*
D03*
Y1230000D02*
D03*
Y1210000D02*
D03*
Y1190000D02*
D03*
Y1170000D02*
D03*
Y1150000D02*
D03*
Y1130000D02*
D03*
Y1110000D02*
D03*
X967500Y1250000D02*
D03*
Y1230000D02*
D03*
Y1210000D02*
D03*
Y1190000D02*
D03*
Y1170000D02*
D03*
Y1150000D02*
D03*
Y1130000D02*
D03*
Y1110000D02*
D03*
X1187500Y955500D02*
D03*
Y935500D02*
D03*
Y915500D02*
D03*
Y895500D02*
D03*
Y875500D02*
D03*
Y855500D02*
D03*
Y835500D02*
D03*
Y815500D02*
D03*
X967500Y955500D02*
D03*
Y935500D02*
D03*
Y915500D02*
D03*
Y895500D02*
D03*
Y875500D02*
D03*
Y855500D02*
D03*
Y835500D02*
D03*
Y815500D02*
D03*
X416500Y659500D02*
D03*
Y639500D02*
D03*
Y619500D02*
D03*
Y599500D02*
D03*
Y579500D02*
D03*
Y559500D02*
D03*
Y539500D02*
D03*
Y519500D02*
D03*
X196500Y659500D02*
D03*
Y639500D02*
D03*
Y619500D02*
D03*
Y599500D02*
D03*
Y579500D02*
D03*
Y559500D02*
D03*
Y539500D02*
D03*
Y519500D02*
D03*
D40*
X1077500Y710500D02*
D03*
Y470500D02*
D03*
X306500Y764500D02*
D03*
Y1004500D02*
D03*
Y1059000D02*
D03*
Y1299000D02*
D03*
X1077500Y1060000D02*
D03*
Y1300000D02*
D03*
Y765500D02*
D03*
Y1005500D02*
D03*
X306500Y469500D02*
D03*
Y709500D02*
D03*
D41*
X146500Y64500D02*
D03*
Y46000D02*
D03*
D42*
X311500Y26000D02*
D03*
Y66000D02*
D03*
Y106000D02*
D03*
X231500Y56000D02*
D03*
Y76000D02*
D03*
Y106000D02*
D03*
X1271000Y936300D02*
D03*
Y892500D02*
D03*
Y848700D02*
D03*
X68500D02*
D03*
Y892500D02*
D03*
Y936300D02*
D03*
D43*
X103685Y138500D02*
D03*
X84000D02*
D03*
D44*
X880000Y505500D02*
D03*
X888000Y770000D02*
D03*
X582500Y1308000D02*
D03*
X615500Y1012500D02*
D03*
X610000Y697000D02*
D03*
X884000Y1060500D02*
D03*
X658500Y1061000D02*
D03*
X855350D02*
D03*
X658650Y770000D02*
D03*
X855500D02*
D03*
X658650Y471000D02*
D03*
X855500D02*
D03*
X109000Y33000D02*
D03*
X89000D02*
D03*
X843961Y1010847D02*
D03*
X804000D02*
D03*
X843961Y804154D02*
D03*
X764039Y1010847D02*
D03*
X804000Y804154D02*
D03*
X764039D02*
D03*
X843961Y716878D02*
D03*
X804000D02*
D03*
X843961Y510185D02*
D03*
X764039Y716878D02*
D03*
X804000Y510185D02*
D03*
X764039D02*
D03*
X658421Y1100653D02*
D03*
X698579D02*
D03*
X658421Y1307347D02*
D03*
X698579D02*
D03*
X658421Y805153D02*
D03*
X698579D02*
D03*
X658421Y1011847D02*
D03*
X698579D02*
D03*
X658421Y510185D02*
D03*
X698579D02*
D03*
X658421Y716878D02*
D03*
X698579D02*
D03*
X764039Y1099291D02*
D03*
Y1305984D02*
D03*
X804000Y1099291D02*
D03*
Y1305984D02*
D03*
X843961Y1099291D02*
D03*
Y1305984D02*
D03*
X1314500Y126000D02*
D03*
X1315000Y106000D02*
D03*
X1217500Y66500D02*
D03*
X727500Y25000D02*
D03*
X303000Y140000D02*
D03*
X463500Y52500D02*
D03*
D45*
X1092378Y32500D02*
D03*
X1086925Y43681D02*
D03*
X1081472Y32500D02*
D03*
X1076020Y43681D02*
D03*
X1070567Y32500D02*
D03*
X1065114Y43681D02*
D03*
X1059661Y32500D02*
D03*
X1054209Y43681D02*
D03*
X1048756Y32500D02*
D03*
X1043303Y43681D02*
D03*
X1037850Y32500D02*
D03*
X1032398Y43681D02*
D03*
X1026945Y32500D02*
D03*
X1021492Y43681D02*
D03*
X1016039Y32500D02*
D03*
X1103284D02*
D03*
X1114189D02*
D03*
X1125095D02*
D03*
X1136000D02*
D03*
X1146906D02*
D03*
X1097831Y43681D02*
D03*
X1108736D02*
D03*
X1119642D02*
D03*
X1130547D02*
D03*
X1141453D02*
D03*
D46*
X988874Y38091D02*
D03*
X1174071D02*
D03*
D47*
X516028Y249000D02*
D03*
Y219000D02*
D03*
X369500Y249000D02*
D03*
Y219000D02*
D03*
X219000Y249000D02*
D03*
Y219000D02*
D03*
X636500Y248972D02*
D03*
Y218972D02*
D03*
X1264500Y251500D02*
D03*
Y221500D02*
D03*
X964528Y249000D02*
D03*
Y219000D02*
D03*
X1114528Y249000D02*
D03*
Y219000D02*
D03*
D48*
X488000Y879500D02*
D03*
Y958240D02*
D03*
X610047Y800760D02*
D03*
X488000D02*
D03*
X610047Y958240D02*
D03*
Y879500D02*
D03*
D49*
X408000Y32748D02*
D03*
X417000D02*
D03*
X431000Y34831D02*
D03*
X110000Y108500D02*
D03*
X115500D02*
D03*
X110000Y101500D02*
D03*
X115500D02*
D03*
X138618Y139000D02*
D03*
X731500Y385500D02*
D03*
X786500Y385000D02*
D03*
X686500Y342500D02*
D03*
X741000Y343000D02*
D03*
X796500Y342882D02*
D03*
X309000Y178000D02*
D03*
X492000Y74500D02*
D03*
X486000Y73000D02*
D03*
X869000Y79500D02*
D03*
X702000Y79000D02*
D03*
X784500Y79500D02*
D03*
X531000Y80500D02*
D03*
X441500Y94000D02*
D03*
X447000Y80500D02*
D03*
X525000Y87000D02*
D03*
X574000Y66000D02*
D03*
X567500Y65500D02*
D03*
X656500Y54000D02*
D03*
X651000Y54500D02*
D03*
X1044000Y90000D02*
D03*
X1128000D02*
D03*
X718500Y104000D02*
D03*
X727000D02*
D03*
X476004Y159004D02*
D03*
X579500Y182500D02*
D03*
X455000D02*
D03*
X599020Y187000D02*
D03*
X161250Y178250D02*
D03*
X530256Y127000D02*
D03*
X446504D02*
D03*
X145441Y273059D02*
D03*
X145941Y267941D02*
D03*
X120000Y267500D02*
D03*
X296559Y268941D02*
D03*
Y274059D02*
D03*
X271500Y269000D02*
D03*
X443618Y267382D02*
D03*
X414000Y267500D02*
D03*
X443500Y272500D02*
D03*
X701500Y271000D02*
D03*
X755500Y270000D02*
D03*
X743000Y281000D02*
D03*
X759500Y262000D02*
D03*
X706000Y262500D02*
D03*
X699500Y281000D02*
D03*
X697500Y304000D02*
D03*
X756250Y280750D02*
D03*
X811059Y269941D02*
D03*
X834882Y275618D02*
D03*
X726000Y275500D02*
D03*
X780059Y275059D02*
D03*
X834000Y281000D02*
D03*
X812500Y280500D02*
D03*
X800500Y281500D02*
D03*
X733000Y268500D02*
D03*
X751000Y304000D02*
D03*
X807000Y304500D02*
D03*
X814500Y261500D02*
D03*
X863000Y273000D02*
D03*
X863500Y267500D02*
D03*
X892500Y273000D02*
D03*
X890696Y279000D02*
D03*
X895500Y267500D02*
D03*
X899000Y261000D02*
D03*
X1044000Y266500D02*
D03*
X1038500Y279000D02*
D03*
X1041500Y272500D02*
D03*
X1012618Y267382D02*
D03*
X1013000Y272500D02*
D03*
X1195118Y270382D02*
D03*
X1192000Y275500D02*
D03*
X1189500Y281000D02*
D03*
X1164000Y271000D02*
D03*
Y277000D02*
D03*
X1182821Y284996D02*
D03*
X295500Y279000D02*
D03*
X778500Y281500D02*
D03*
X961000Y90000D02*
D03*
X614000Y84000D02*
D03*
X525000Y100500D02*
D03*
X446500Y103000D02*
D03*
X530500Y108000D02*
D03*
X614500Y107500D02*
D03*
X1128500Y110000D02*
D03*
X961000Y108000D02*
D03*
Y129500D02*
D03*
X869000Y110500D02*
D03*
X869252Y132000D02*
D03*
X700500Y108500D02*
D03*
X784752Y110752D02*
D03*
Y129500D02*
D03*
X1044000Y108000D02*
D03*
X626504Y101000D02*
D03*
X871600Y201696D02*
D03*
X892400Y259809D02*
D03*
X892000Y201696D02*
D03*
X982028Y362500D02*
D03*
X934028Y324500D02*
D03*
X958528Y284500D02*
D03*
X961028Y393000D02*
D03*
X970280Y333748D02*
D03*
X947528Y207500D02*
D03*
X982528Y383500D02*
D03*
X919028Y327500D02*
D03*
X967638Y278000D02*
D03*
X959528Y189500D02*
D03*
X911528Y401500D02*
D03*
X984528D02*
D03*
X927047Y188500D02*
D03*
X960500Y386500D02*
D03*
X921000Y317500D02*
D03*
X945496Y349996D02*
D03*
X891500Y341500D02*
D03*
X1132528Y383500D02*
D03*
X1069028Y327500D02*
D03*
X1095496Y349996D02*
D03*
X1041500Y341500D02*
D03*
X1120280Y333748D02*
D03*
X1071000Y317500D02*
D03*
X1117638Y278000D02*
D03*
X1097528Y207500D02*
D03*
X1061528Y401500D02*
D03*
X1101028Y392996D02*
D03*
X1132028Y362500D02*
D03*
X1084028Y324500D02*
D03*
X1108528Y284500D02*
D03*
X1134528Y401500D02*
D03*
X1021600Y201696D02*
D03*
X1042000D02*
D03*
X1282500Y386000D02*
D03*
X1219000Y330000D02*
D03*
X1259500Y192000D02*
D03*
X1245469Y352496D02*
D03*
X1191472Y344000D02*
D03*
X1270252Y336248D02*
D03*
X1220972Y320000D02*
D03*
X1267610Y280500D02*
D03*
X1247500Y210000D02*
D03*
X1211500Y404000D02*
D03*
X1251000Y395496D02*
D03*
X1282000Y365000D02*
D03*
X1234000Y327000D02*
D03*
X1192372Y262310D02*
D03*
X1258500Y287000D02*
D03*
X1227020Y191000D02*
D03*
X1284500Y404000D02*
D03*
X1261000Y395500D02*
D03*
X1260472Y389000D02*
D03*
X1171572Y204196D02*
D03*
X1191972D02*
D03*
X1017500Y262000D02*
D03*
X726618Y254000D02*
D03*
X701618Y205500D02*
D03*
X654000Y362472D02*
D03*
X630500Y284472D02*
D03*
X635504Y383472D02*
D03*
X633000Y392972D02*
D03*
X593252Y317472D02*
D03*
X642252Y333720D02*
D03*
X619500Y207472D02*
D03*
X623000Y392969D02*
D03*
X654500Y383472D02*
D03*
X591000Y327472D02*
D03*
X639610Y277972D02*
D03*
X631500Y189472D02*
D03*
X583500Y401472D02*
D03*
X656500D02*
D03*
X606000Y324472D02*
D03*
X598500Y342969D02*
D03*
X646531Y349969D02*
D03*
X781496Y208248D02*
D03*
X780496Y253496D02*
D03*
X727500Y202500D02*
D03*
X756500D02*
D03*
X836500Y208000D02*
D03*
X810500Y204748D02*
D03*
X835500Y253248D02*
D03*
X829748Y261748D02*
D03*
X774744Y261996D02*
D03*
X720866Y262500D02*
D03*
X237000Y383500D02*
D03*
X173500Y327500D02*
D03*
X214000Y189500D02*
D03*
X145972Y341500D02*
D03*
X224752Y333748D02*
D03*
X175472Y317500D02*
D03*
X222110Y278000D02*
D03*
X121972Y262000D02*
D03*
X202000Y207500D02*
D03*
X166000Y401500D02*
D03*
X205500Y392996D02*
D03*
X236500Y362500D02*
D03*
X188500Y324500D02*
D03*
X146872Y259809D02*
D03*
X213000Y284500D02*
D03*
X181520Y188500D02*
D03*
X239000Y401500D02*
D03*
X215500Y393000D02*
D03*
X214972Y386500D02*
D03*
X126872Y322992D02*
D03*
X126072Y201696D02*
D03*
X146472D02*
D03*
X867500Y262000D02*
D03*
X199969Y349996D02*
D03*
X387500Y383500D02*
D03*
X324000Y327500D02*
D03*
X364500Y189500D02*
D03*
X350468Y349996D02*
D03*
X296472Y341500D02*
D03*
X375252Y333748D02*
D03*
X325972Y317500D02*
D03*
X372610Y278000D02*
D03*
X272472Y262000D02*
D03*
X352500Y207500D02*
D03*
X316500Y401500D02*
D03*
X356000Y392996D02*
D03*
X387000Y362500D02*
D03*
X339000Y324500D02*
D03*
X363500Y284500D02*
D03*
X332020Y188500D02*
D03*
X389500Y401500D02*
D03*
X366000Y393000D02*
D03*
X365472Y386500D02*
D03*
X277372Y322992D02*
D03*
X276572Y201696D02*
D03*
X296972D02*
D03*
X534028Y383500D02*
D03*
X470528Y327500D02*
D03*
X511028Y189500D02*
D03*
X496996Y349996D02*
D03*
X443000Y341500D02*
D03*
X521779Y333748D02*
D03*
X472500Y317500D02*
D03*
X519138Y278000D02*
D03*
X419000Y262000D02*
D03*
X499028Y207500D02*
D03*
X463028Y401500D02*
D03*
X502528Y392996D02*
D03*
X533528Y362500D02*
D03*
X485528Y324500D02*
D03*
X443900Y259809D02*
D03*
X510028Y284500D02*
D03*
X478547Y188500D02*
D03*
X536028Y401500D02*
D03*
X512528Y393000D02*
D03*
X512000Y386500D02*
D03*
X423900Y322992D02*
D03*
X423100Y201696D02*
D03*
X443500D02*
D03*
X976504Y136000D02*
D03*
X1066500Y129000D02*
D03*
X1059500Y136504D02*
D03*
X1103000Y129500D02*
D03*
X1143504Y137500D02*
D03*
X1180000Y162500D02*
D03*
X1150000Y130000D02*
D03*
X1188000Y130500D02*
D03*
X1019500Y129000D02*
D03*
X983000Y129500D02*
D03*
X1044252D02*
D03*
X1156000Y103500D02*
D03*
X1140500D02*
D03*
X1071000D02*
D03*
X1060000D02*
D03*
X701500Y129500D02*
D03*
X717004Y136000D02*
D03*
X751500Y161500D02*
D03*
X760000Y129000D02*
D03*
X800000Y136504D02*
D03*
X807000Y129000D02*
D03*
X814504Y161500D02*
D03*
X723500Y129500D02*
D03*
X730500Y161504D02*
D03*
X800500Y103500D02*
D03*
X811500D02*
D03*
X835248Y161500D02*
D03*
X843500Y129500D02*
D03*
X896500Y103500D02*
D03*
X881000D02*
D03*
X890500Y130000D02*
D03*
X884004Y137500D02*
D03*
X898500Y163000D02*
D03*
X920500Y162500D02*
D03*
X928500Y130500D02*
D03*
X469004Y127000D02*
D03*
X546004Y101000D02*
D03*
X557004D02*
D03*
X580752Y159000D02*
D03*
X589004Y127000D02*
D03*
X636004Y127500D02*
D03*
X642004Y101000D02*
D03*
X644004Y160500D02*
D03*
X666004Y160000D02*
D03*
X674004Y128000D02*
D03*
X462508Y133500D02*
D03*
X505504Y126500D02*
D03*
X497004Y159000D02*
D03*
X552504Y126500D02*
D03*
X545504Y134004D02*
D03*
X560008Y159000D02*
D03*
X629508Y135000D02*
D03*
X614504Y129500D02*
D03*
X1111028Y393000D02*
D03*
X1110500Y386500D02*
D03*
X951028Y392996D02*
D03*
X872400Y322992D02*
D03*
X1022400D02*
D03*
X1172372Y325492D02*
D03*
X818500Y433500D02*
D03*
X709618Y434000D02*
D03*
X764500D02*
D03*
X1167472Y264500D02*
D03*
X1198500Y263248D02*
D03*
X1032848Y282496D02*
D03*
X1048500Y260500D02*
D03*
X882848Y282496D02*
D03*
X788000Y270500D02*
D03*
X782500Y286000D02*
D03*
X724000Y281000D02*
D03*
X727500Y286500D02*
D03*
X434348Y282496D02*
D03*
X450000Y261500D02*
D03*
X287821Y282496D02*
D03*
X303000Y261000D02*
D03*
X296500Y260500D02*
D03*
X414500Y273000D02*
D03*
X271500Y274500D02*
D03*
X120000Y273000D02*
D03*
X137320Y282496D02*
D03*
X153500Y261000D02*
D03*
X1128500Y132000D02*
D03*
X1201000Y196500D02*
D03*
X1192500Y96500D02*
D03*
X1077000Y188500D02*
D03*
X1116000Y96500D02*
D03*
X947000Y148000D02*
D03*
Y96500D02*
D03*
X856500Y144000D02*
D03*
Y96500D02*
D03*
X774000Y145000D02*
D03*
Y96500D02*
D03*
X989000Y104000D02*
D03*
X972000Y103500D02*
D03*
X760000Y104000D02*
D03*
X441500Y278500D02*
D03*
X144500D02*
D03*
X1041000Y261500D02*
D03*
X1158000Y163000D02*
D03*
X1074004Y161500D02*
D03*
X1094748D02*
D03*
X1011000D02*
D03*
X1116000Y174000D02*
D03*
X1109528Y189500D02*
D03*
X990000Y161504D02*
D03*
D50*
X387882Y25000D02*
D03*
X388264Y104000D02*
D03*
X399000D02*
D03*
D61*
X112847Y105000D02*
D03*
X84500D02*
D03*
D62*
X438700Y211696D02*
D03*
X423700D02*
D03*
X428700D02*
D03*
X433700D02*
D03*
X423700Y254609D02*
D03*
X428700D02*
D03*
X433700D02*
D03*
X438700D02*
D03*
X292172Y211696D02*
D03*
X277172D02*
D03*
X282172D02*
D03*
X287172D02*
D03*
X277172Y254609D02*
D03*
X282172D02*
D03*
X287172D02*
D03*
X292172D02*
D03*
X141672Y211696D02*
D03*
X126672D02*
D03*
X131672D02*
D03*
X136672D02*
D03*
X126672Y254609D02*
D03*
X131672D02*
D03*
X136672D02*
D03*
X141672D02*
D03*
X830500Y211500D02*
D03*
X815500D02*
D03*
X820500D02*
D03*
X825500D02*
D03*
X815500Y254413D02*
D03*
X820500D02*
D03*
X825500D02*
D03*
X830500D02*
D03*
X775496Y211083D02*
D03*
X760496D02*
D03*
X765496D02*
D03*
X770496D02*
D03*
X760496Y253996D02*
D03*
X765496D02*
D03*
X770496D02*
D03*
X775496D02*
D03*
X721618Y211587D02*
D03*
X706618D02*
D03*
X711618D02*
D03*
X716618D02*
D03*
X706618Y254500D02*
D03*
X711618D02*
D03*
X716618D02*
D03*
X721618D02*
D03*
X1187172Y214196D02*
D03*
X1172172D02*
D03*
X1177172D02*
D03*
X1182172D02*
D03*
X1172172Y257109D02*
D03*
X1177172D02*
D03*
X1182172D02*
D03*
X1187172D02*
D03*
X887200Y211696D02*
D03*
X872200D02*
D03*
X877200D02*
D03*
X882200D02*
D03*
X872200Y254609D02*
D03*
X877200D02*
D03*
X882200D02*
D03*
X887200D02*
D03*
X1037200Y211696D02*
D03*
X1022200D02*
D03*
X1027200D02*
D03*
X1032200D02*
D03*
X1022200Y254609D02*
D03*
X1027200D02*
D03*
X1032200D02*
D03*
X1037200D02*
D03*
D63*
X525177Y383000D02*
D03*
X481878Y377000D02*
D03*
X378650Y383000D02*
D03*
X335350Y377000D02*
D03*
X228150Y383000D02*
D03*
X184850Y377000D02*
D03*
X645650Y382972D02*
D03*
X602350Y376972D02*
D03*
X1273650Y385500D02*
D03*
X1230350Y379500D02*
D03*
X973677Y383000D02*
D03*
X930378Y377000D02*
D03*
X1123677Y383000D02*
D03*
X1080378Y377000D02*
D03*
D64*
X534528Y383000D02*
D03*
X472528Y377000D02*
D03*
X388000Y383000D02*
D03*
X326000Y377000D02*
D03*
X237500Y383000D02*
D03*
X175500Y377000D02*
D03*
X655000Y382972D02*
D03*
X593000Y376972D02*
D03*
X1283000Y385500D02*
D03*
X1221000Y379500D02*
D03*
X983028Y383000D02*
D03*
X921028Y377000D02*
D03*
X1133028Y383000D02*
D03*
X1071028Y377000D02*
D03*
M02*
