G04 Layer_Color=16711935*
%FSLAX25Y25*%
%MOIN*%
G70*
G01*
G75*
%ADD66C,0.00394*%
D66*
X484642Y135299D02*
G03*
X484642Y135299I-1969J0D01*
G01*
X568142D02*
G03*
X568142Y135299I-1969J0D01*
G01*
X653142D02*
G03*
X653142Y135299I-1969J0D01*
G01*
X739138Y137799D02*
G03*
X739138Y137799I-1969J0D01*
G01*
X822638D02*
G03*
X822638Y137799I-1969J0D01*
G01*
X907638D02*
G03*
X907638Y137799I-1969J0D01*
G01*
X998638D02*
G03*
X998638Y137799I-1969J0D01*
G01*
X1082138D02*
G03*
X1082138Y137799I-1969J0D01*
G01*
X1167138D02*
G03*
X1167138Y137799I-1969J0D01*
G01*
X479130Y119158D02*
X494878D01*
X479130Y138842D02*
X494878D01*
Y119158D02*
Y138842D01*
X479130Y119158D02*
Y138842D01*
X562630Y119158D02*
X578378D01*
X562630Y138842D02*
X578378D01*
Y119158D02*
Y138842D01*
X562630Y119158D02*
Y138842D01*
X647630Y119158D02*
X663378D01*
X647630Y138842D02*
X663378D01*
Y119158D02*
Y138842D01*
X647630Y119158D02*
Y138842D01*
X733626Y121658D02*
X749374D01*
X733626Y141342D02*
X749374D01*
Y121658D02*
Y141342D01*
X733626Y121658D02*
Y141342D01*
X817126Y121658D02*
X832874D01*
X817126Y141342D02*
X832874D01*
Y121658D02*
Y141342D01*
X817126Y121658D02*
Y141342D01*
X902126Y121658D02*
Y141342D01*
X917874Y121658D02*
Y141342D01*
X902126D02*
X917874D01*
X902126Y121658D02*
X917874D01*
X993126D02*
Y141342D01*
X1008874Y121658D02*
Y141342D01*
X993126D02*
X1008874D01*
X993126Y121658D02*
X1008874D01*
X1076626D02*
Y141342D01*
X1092374Y121658D02*
Y141342D01*
X1076626D02*
X1092374D01*
X1076626Y121658D02*
X1092374D01*
X1161626D02*
Y141342D01*
X1177374Y121658D02*
Y141342D01*
X1161626D02*
X1177374D01*
X1161626Y121658D02*
X1177374D01*
M02*
