G04 Layer_Color=32768*
%FSLAX25Y25*%
%MOIN*%
G70*
G01*
G75*
%ADD66C,0.00394*%
D66*
X487004Y127032D02*
Y130968D01*
X485035Y129000D02*
X488972D01*
X473618Y118764D02*
X500390D01*
X473618Y139236D02*
X500390D01*
Y118764D02*
Y139236D01*
X473618Y118764D02*
Y139236D01*
X570504Y127032D02*
Y130968D01*
X568535Y129000D02*
X572472D01*
X557118Y118764D02*
X583890D01*
X557118Y139236D02*
X583890D01*
Y118764D02*
Y139236D01*
X557118Y118764D02*
Y139236D01*
X655504Y127032D02*
Y130968D01*
X653535Y129000D02*
X657472D01*
X642118Y118764D02*
X668890D01*
X642118Y139236D02*
X668890D01*
Y118764D02*
Y139236D01*
X642118Y118764D02*
Y139236D01*
X741500Y129532D02*
Y133468D01*
X739532Y131500D02*
X743469D01*
X728114Y121264D02*
X754886D01*
X728114Y141736D02*
X754886D01*
Y121264D02*
Y141736D01*
X728114Y121264D02*
Y141736D01*
X825000Y129532D02*
Y133468D01*
X823032Y131500D02*
X826968D01*
X811614Y121264D02*
X838386D01*
X811614Y141736D02*
X838386D01*
Y121264D02*
Y141736D01*
X811614Y121264D02*
Y141736D01*
X896614Y121264D02*
Y141736D01*
X923386Y121264D02*
Y141736D01*
X896614D02*
X923386D01*
X896614Y121264D02*
X923386D01*
X908031Y131500D02*
X911969D01*
X910000Y129532D02*
Y133468D01*
X987614Y121264D02*
Y141736D01*
X1014386Y121264D02*
Y141736D01*
X987614D02*
X1014386D01*
X987614Y121264D02*
X1014386D01*
X999032Y131500D02*
X1002969D01*
X1001000Y129532D02*
Y133468D01*
X1071114Y121264D02*
Y141736D01*
X1097886Y121264D02*
Y141736D01*
X1071114D02*
X1097886D01*
X1071114Y121264D02*
X1097886D01*
X1082532Y131500D02*
X1086469D01*
X1084500Y129532D02*
Y133468D01*
X1156114Y121264D02*
Y141736D01*
X1182886Y121264D02*
Y141736D01*
X1156114D02*
X1182886D01*
X1156114Y121264D02*
X1182886D01*
X1167531Y131500D02*
X1171469D01*
X1169500Y129532D02*
Y133468D01*
M02*
