M48
;Layer_Color=9474304
;FILE_FORMAT=2:5
INCH,LZ
;TYPE=PLATED
T1F00S00C0.02800
T2F00S00C0.03000
T3F00S00C0.03346
T4F00S00C0.03543
T5F00S00C0.04500
T6F00S00C0.04724
T7F00S00C0.20000
%
T01
X04015Y-0234
X0371Y-0246
X0314Y-02355
X0248Y-02345
X02455Y-0267
X0246Y-0284
X02035Y-02355
X0182Y-02345
X0151Y-02355
X01265Y-0231
X00865Y-02355
X0046Y-0227
X01575Y-02195
X0152Y-00695
X0179413Y-007
X01985
X0085Y-00695
X0246043Y-0069457
X0269Y-0069
X0317957Y-0069457
X03395Y-00695
X0381043Y-0069457
X02795Y-0219
X02425Y-0193
X039Y-02165
X04035Y-00695
X04225Y-00505
X0433Y-00605
X0435Y-0036
X04465Y-00475
X034Y-0024
X02715Y-00345
T02
X0391Y-00215
X0401
X0411
X0421
X03715
X03615
X03515
T03
X04105Y-0368957
Y-0308957
X0384
X0346Y-0309457
X03195
X02765Y-0309957
X025
Y-0369957
X02765
X03195Y-0369457
X0346
X0384Y-0368957
X0211Y-037
X01845
X0141Y-0371
X01145
Y-0311
X0141
X01845Y-031
X0211
X0076Y-03105
X00495
Y-03705
X0076
X00755Y-02045
X0049
Y-01445
X00755
X0115
X01415
X0183
X02095
Y-02045
X0183
X01415
X0115
X02505
X0277
X03195
X0346
X03845Y-0204
Y-0144
X0346Y-01445
X03195
X0277
X02505
X0411Y-0144
Y-0204
T04
X00515Y-04085
X00615
X00715
X00815
X00915
X01015
X01115
X01215
X01315
X01415
X01515
X01615
X01925
X02025
X02125
X02225
X02325
X02425
X02525
X02625
X02725
X02825
X02925
X03025
X039Y-02945
X0395
X0395Y-0256957
X039
X0385
X0385Y-02945
X03305Y-0295
X03255
X03205
X03205Y-0257457
X03255
X03305
X0261Y-0257957
X0256
X0251
X0251Y-02955
X0256
X0261
X01955Y-0295543
X01905
X01855
X01855Y-0258
X01905
X01955
X01255Y-0259
X01205
X01155
X01155Y-0296543
X01205
X01255
X00605Y-0296043
X00555
X00505
X00505Y-02585
X00555
X00605
X006Y-0130043
X0055
X005
X005Y-00925
X0055
X006
X0116Y-00925
X0121
X0126
X0126Y-0130043
X0121
X0116
X0184
X0189
X0194
X0194Y-00925
X0189
X0184
X02515
X02565
X02615
X02615Y-0130043
X02565
X02515
X03205
X03255
X03305
X03305Y-00925
X03255
X03205
X03855Y-0092
X03855Y-0129543
X03905
X03955
X03955Y-0092
X03905
X0168Y-00125
X0158
X0148
X0138
X0128
X0118
X0108
X0098
X0088
X0078
X0068
X0058
T05
X02445Y-0019
X02245
X02045
T06
X0425Y-0298047
Y-0256866
X03605Y-0257366
Y-0298547
X0291Y-0299047
Y-0257866
X02255Y-0257909
Y-0299091
X01555Y-0300091
Y-025891
X00905Y-025841
Y-029959
X009Y-0133591
Y-0092409
X0156
Y-0133591
X0224
Y-0092409
X02915
Y-0133591
X03605
Y-0092409
X04255Y-0091909
Y-0133091
T07
X00175Y-041
X04675
X0469Y-0015
X0016
M30
