G04 Layer_Physical_Order=2*
G04 Layer_Color=16711680*
%FSLAX25Y25*%
%MOIN*%
G70*
G01*
G75*
%ADD12R,0.05512X0.04724*%
%ADD13C,0.01000*%
%ADD14C,0.02500*%
%ADD16C,0.07000*%
%ADD17C,0.06000*%
%ADD18R,0.07874X0.07874*%
%ADD19C,0.07874*%
%ADD20C,0.05512*%
%ADD21O,0.03937X0.07874*%
%ADD22O,0.03937X0.07874*%
%ADD23R,0.05906X0.05906*%
%ADD24C,0.05906*%
%ADD25C,0.05000*%
%ADD26R,0.04331X0.04331*%
%ADD27R,0.04331X0.05118*%
G36*
X451000Y-6000D02*
Y-420000D01*
X34000D01*
Y-5500D01*
X450500D01*
X451000Y-6000D01*
D02*
G37*
%LPC*%
G36*
X185000Y-258500D02*
X182506D01*
Y-259968D01*
X182608Y-260743D01*
X182907Y-261466D01*
X183383Y-262086D01*
X184003Y-262561D01*
X184725Y-262861D01*
X185000Y-262897D01*
Y-258500D01*
D02*
G37*
G36*
X320000Y-257957D02*
X317506D01*
Y-259425D01*
X317608Y-260200D01*
X317907Y-260922D01*
X318383Y-261542D01*
X319003Y-262018D01*
X319725Y-262317D01*
X320000Y-262353D01*
Y-257957D01*
D02*
G37*
G36*
X384500Y-257457D02*
X382006D01*
Y-258925D01*
X382108Y-259700D01*
X382407Y-260422D01*
X382883Y-261042D01*
X383503Y-261518D01*
X384225Y-261817D01*
X384500Y-261854D01*
Y-257457D01*
D02*
G37*
G36*
X246500Y-280536D02*
Y-283500D01*
X249464D01*
X249410Y-283086D01*
X249057Y-282235D01*
X248496Y-281504D01*
X247765Y-280943D01*
X246914Y-280590D01*
X246500Y-280536D01*
D02*
G37*
G36*
X115000Y-259500D02*
X112506D01*
Y-260968D01*
X112608Y-261743D01*
X112907Y-262466D01*
X113383Y-263086D01*
X114003Y-263562D01*
X114725Y-263861D01*
X115000Y-263897D01*
Y-259500D01*
D02*
G37*
G36*
X50000Y-259000D02*
X47506D01*
Y-260469D01*
X47608Y-261243D01*
X47907Y-261966D01*
X48383Y-262586D01*
X49003Y-263061D01*
X49725Y-263361D01*
X50000Y-263397D01*
Y-259000D01*
D02*
G37*
G36*
X115000Y-254103D02*
X114725Y-254139D01*
X114003Y-254438D01*
X113383Y-254914D01*
X112907Y-255534D01*
X112608Y-256257D01*
X112506Y-257031D01*
Y-258500D01*
X115000D01*
Y-254103D01*
D02*
G37*
G36*
X384500Y-252060D02*
X384225Y-252096D01*
X383503Y-252395D01*
X382883Y-252871D01*
X382407Y-253491D01*
X382108Y-254213D01*
X382006Y-254988D01*
Y-256457D01*
X384500D01*
Y-252060D01*
D02*
G37*
G36*
X125500Y-254037D02*
X124725Y-254139D01*
X124003Y-254438D01*
X123383Y-254914D01*
X123250Y-255087D01*
X122750D01*
X122617Y-254914D01*
X121997Y-254438D01*
X121275Y-254139D01*
X120500Y-254037D01*
X119725Y-254139D01*
X119003Y-254438D01*
X118383Y-254914D01*
X118250Y-255087D01*
X117750D01*
X117617Y-254914D01*
X116997Y-254438D01*
X116275Y-254139D01*
X116000Y-254103D01*
Y-259000D01*
Y-263897D01*
X116275Y-263861D01*
X116997Y-263562D01*
X117617Y-263086D01*
X117750Y-262913D01*
X118250D01*
X118383Y-263086D01*
X119003Y-263562D01*
X119725Y-263861D01*
X120500Y-263963D01*
X121275Y-263861D01*
X121997Y-263562D01*
X122617Y-263086D01*
X122750Y-262913D01*
X123250D01*
X123383Y-263086D01*
X124003Y-263562D01*
X124725Y-263861D01*
X125500Y-263963D01*
X126275Y-263861D01*
X126997Y-263562D01*
X127617Y-263086D01*
X128093Y-262466D01*
X128392Y-261743D01*
X128494Y-260968D01*
Y-257031D01*
X128392Y-256257D01*
X128093Y-255534D01*
X127617Y-254914D01*
X126997Y-254438D01*
X126275Y-254139D01*
X125500Y-254037D01*
D02*
G37*
G36*
X60500Y-253537D02*
X59725Y-253639D01*
X59003Y-253939D01*
X58383Y-254414D01*
X58250Y-254587D01*
X57750D01*
X57617Y-254414D01*
X56997Y-253939D01*
X56275Y-253639D01*
X55500Y-253537D01*
X54725Y-253639D01*
X54003Y-253939D01*
X53383Y-254414D01*
X53250Y-254587D01*
X52750D01*
X52617Y-254414D01*
X51997Y-253939D01*
X51275Y-253639D01*
X51000Y-253603D01*
Y-258500D01*
Y-263397D01*
X51275Y-263361D01*
X51997Y-263061D01*
X52617Y-262586D01*
X52750Y-262413D01*
X53250D01*
X53383Y-262586D01*
X54003Y-263061D01*
X54725Y-263361D01*
X55500Y-263463D01*
X56275Y-263361D01*
X56997Y-263061D01*
X57617Y-262586D01*
X57750Y-262413D01*
X58250D01*
X58383Y-262586D01*
X59003Y-263061D01*
X59725Y-263361D01*
X60500Y-263463D01*
X61275Y-263361D01*
X61997Y-263061D01*
X62617Y-262586D01*
X63093Y-261966D01*
X63392Y-261243D01*
X63494Y-260469D01*
Y-256532D01*
X63392Y-255757D01*
X63093Y-255034D01*
X62617Y-254414D01*
X61997Y-253939D01*
X61275Y-253639D01*
X60500Y-253537D01*
D02*
G37*
G36*
X50000Y-253603D02*
X49725Y-253639D01*
X49003Y-253939D01*
X48383Y-254414D01*
X47907Y-255034D01*
X47608Y-255757D01*
X47506Y-256532D01*
Y-258000D01*
X50000D01*
Y-253603D01*
D02*
G37*
G36*
X185000Y-253103D02*
X184725Y-253139D01*
X184003Y-253438D01*
X183383Y-253914D01*
X182907Y-254534D01*
X182608Y-255257D01*
X182506Y-256031D01*
Y-257500D01*
X185000D01*
Y-253103D01*
D02*
G37*
G36*
X320000Y-252560D02*
X319725Y-252596D01*
X319003Y-252895D01*
X318383Y-253371D01*
X317907Y-253991D01*
X317608Y-254713D01*
X317506Y-255488D01*
Y-256957D01*
X320000D01*
Y-252560D01*
D02*
G37*
G36*
X245500Y-280536D02*
X245086Y-280590D01*
X244235Y-280943D01*
X243504Y-281504D01*
X242943Y-282235D01*
X242590Y-283086D01*
X242536Y-283500D01*
X245500D01*
Y-280536D01*
D02*
G37*
G36*
X320000Y-290103D02*
X319725Y-290139D01*
X319003Y-290439D01*
X318383Y-290914D01*
X317907Y-291534D01*
X317608Y-292257D01*
X317506Y-293032D01*
Y-294500D01*
X320000D01*
Y-290103D01*
D02*
G37*
G36*
X384500Y-289603D02*
X384225Y-289639D01*
X383503Y-289938D01*
X382883Y-290414D01*
X382407Y-291034D01*
X382108Y-291757D01*
X382006Y-292531D01*
Y-294000D01*
X384500D01*
Y-289603D01*
D02*
G37*
G36*
X125500Y-291581D02*
X124725Y-291683D01*
X124003Y-291982D01*
X123383Y-292458D01*
X123250Y-292631D01*
X122750D01*
X122617Y-292458D01*
X121997Y-291982D01*
X121275Y-291683D01*
X120500Y-291581D01*
X119725Y-291683D01*
X119003Y-291982D01*
X118383Y-292458D01*
X118250Y-292631D01*
X117750D01*
X117617Y-292458D01*
X116997Y-291982D01*
X116275Y-291683D01*
X116000Y-291647D01*
Y-296543D01*
Y-301440D01*
X116275Y-301404D01*
X116997Y-301105D01*
X117617Y-300629D01*
X117750Y-300456D01*
X118250D01*
X118383Y-300629D01*
X119003Y-301105D01*
X119725Y-301404D01*
X120500Y-301506D01*
X121275Y-301404D01*
X121997Y-301105D01*
X122617Y-300629D01*
X122750Y-300456D01*
X123250D01*
X123383Y-300629D01*
X124003Y-301105D01*
X124725Y-301404D01*
X125500Y-301506D01*
X126275Y-301404D01*
X126997Y-301105D01*
X127617Y-300629D01*
X128093Y-300009D01*
X128392Y-299287D01*
X128494Y-298512D01*
Y-294575D01*
X128392Y-293800D01*
X128093Y-293078D01*
X127617Y-292458D01*
X126997Y-291982D01*
X126275Y-291683D01*
X125500Y-291581D01*
D02*
G37*
G36*
X50000Y-291146D02*
X49725Y-291183D01*
X49003Y-291482D01*
X48383Y-291958D01*
X47907Y-292578D01*
X47608Y-293300D01*
X47506Y-294075D01*
Y-295543D01*
X50000D01*
Y-291146D01*
D02*
G37*
G36*
X185000Y-290647D02*
X184725Y-290683D01*
X184003Y-290982D01*
X183383Y-291458D01*
X182907Y-292078D01*
X182608Y-292800D01*
X182506Y-293575D01*
Y-295043D01*
X185000D01*
Y-290647D01*
D02*
G37*
G36*
X250500Y-290603D02*
X250225Y-290639D01*
X249503Y-290938D01*
X248883Y-291414D01*
X248407Y-292034D01*
X248108Y-292757D01*
X248006Y-293531D01*
Y-295000D01*
X250500D01*
Y-290603D01*
D02*
G37*
G36*
X60500Y-291081D02*
X59725Y-291183D01*
X59003Y-291482D01*
X58383Y-291958D01*
X58250Y-292131D01*
X57750D01*
X57617Y-291958D01*
X56997Y-291482D01*
X56275Y-291183D01*
X55500Y-291081D01*
X54725Y-291183D01*
X54003Y-291482D01*
X53383Y-291958D01*
X53250Y-292131D01*
X52750D01*
X52617Y-291958D01*
X51997Y-291482D01*
X51275Y-291183D01*
X51000Y-291146D01*
Y-296043D01*
Y-300940D01*
X51275Y-300904D01*
X51997Y-300605D01*
X52617Y-300129D01*
X52750Y-299956D01*
X53250D01*
X53383Y-300129D01*
X54003Y-300605D01*
X54725Y-300904D01*
X55500Y-301006D01*
X56275Y-300904D01*
X56997Y-300605D01*
X57617Y-300129D01*
X57750Y-299956D01*
X58250D01*
X58383Y-300129D01*
X59003Y-300605D01*
X59725Y-300904D01*
X60500Y-301006D01*
X61275Y-300904D01*
X61997Y-300605D01*
X62617Y-300129D01*
X63093Y-299509D01*
X63392Y-298787D01*
X63494Y-298012D01*
Y-294075D01*
X63392Y-293300D01*
X63093Y-292578D01*
X62617Y-291958D01*
X61997Y-291482D01*
X61275Y-291183D01*
X60500Y-291081D01*
D02*
G37*
G36*
X395000Y-289537D02*
X394225Y-289639D01*
X393503Y-289938D01*
X392883Y-290414D01*
X392750Y-290587D01*
X392250D01*
X392117Y-290414D01*
X391497Y-289938D01*
X390775Y-289639D01*
X390000Y-289537D01*
X389225Y-289639D01*
X388503Y-289938D01*
X387883Y-290414D01*
X387750Y-290587D01*
X387250D01*
X387117Y-290414D01*
X386497Y-289938D01*
X385775Y-289639D01*
X385500Y-289603D01*
Y-294500D01*
Y-299397D01*
X385775Y-299361D01*
X386497Y-299061D01*
X387117Y-298586D01*
X387250Y-298413D01*
X387750D01*
X387883Y-298586D01*
X388503Y-299061D01*
X389225Y-299361D01*
X390000Y-299463D01*
X390775Y-299361D01*
X391497Y-299061D01*
X392117Y-298586D01*
X392250Y-298413D01*
X392750D01*
X392883Y-298586D01*
X393503Y-299061D01*
X394225Y-299361D01*
X395000Y-299463D01*
X395775Y-299361D01*
X396497Y-299061D01*
X397117Y-298586D01*
X397593Y-297966D01*
X397892Y-297243D01*
X397994Y-296468D01*
Y-292531D01*
X397892Y-291757D01*
X397593Y-291034D01*
X397117Y-290414D01*
X396497Y-289938D01*
X395775Y-289639D01*
X395000Y-289537D01*
D02*
G37*
G36*
X245500Y-284500D02*
X242536D01*
X242590Y-284914D01*
X242943Y-285765D01*
X243504Y-286496D01*
X244235Y-287057D01*
X245086Y-287410D01*
X245500Y-287464D01*
Y-284500D01*
D02*
G37*
G36*
X249464D02*
X246500D01*
Y-287464D01*
X246914Y-287410D01*
X247765Y-287057D01*
X248496Y-286496D01*
X249057Y-285765D01*
X249410Y-284914D01*
X249464Y-284500D01*
D02*
G37*
G36*
X195500Y-290581D02*
X194725Y-290683D01*
X194003Y-290982D01*
X193383Y-291458D01*
X193250Y-291631D01*
X192750D01*
X192617Y-291458D01*
X191997Y-290982D01*
X191275Y-290683D01*
X190500Y-290581D01*
X189725Y-290683D01*
X189003Y-290982D01*
X188383Y-291458D01*
X188250Y-291631D01*
X187750D01*
X187617Y-291458D01*
X186997Y-290982D01*
X186275Y-290683D01*
X186000Y-290647D01*
Y-295543D01*
Y-300440D01*
X186275Y-300404D01*
X186997Y-300105D01*
X187617Y-299629D01*
X187750Y-299456D01*
X188250D01*
X188383Y-299629D01*
X189003Y-300105D01*
X189725Y-300404D01*
X190500Y-300506D01*
X191275Y-300404D01*
X191997Y-300105D01*
X192617Y-299629D01*
X192750Y-299456D01*
X193250D01*
X193383Y-299629D01*
X194003Y-300105D01*
X194725Y-300404D01*
X195500Y-300506D01*
X196275Y-300404D01*
X196997Y-300105D01*
X197617Y-299629D01*
X198093Y-299009D01*
X198392Y-298287D01*
X198494Y-297512D01*
Y-293575D01*
X198392Y-292800D01*
X198093Y-292078D01*
X197617Y-291458D01*
X196997Y-290982D01*
X196275Y-290683D01*
X195500Y-290581D01*
D02*
G37*
G36*
X261000Y-290537D02*
X260225Y-290639D01*
X259503Y-290938D01*
X258883Y-291414D01*
X258750Y-291587D01*
X258250D01*
X258117Y-291414D01*
X257497Y-290938D01*
X256775Y-290639D01*
X256000Y-290537D01*
X255225Y-290639D01*
X254503Y-290938D01*
X253883Y-291414D01*
X253750Y-291587D01*
X253250D01*
X253117Y-291414D01*
X252497Y-290938D01*
X251775Y-290639D01*
X251500Y-290603D01*
Y-295500D01*
Y-300397D01*
X251775Y-300361D01*
X252497Y-300061D01*
X253117Y-299586D01*
X253250Y-299413D01*
X253750D01*
X253883Y-299586D01*
X254503Y-300061D01*
X255225Y-300361D01*
X256000Y-300463D01*
X256775Y-300361D01*
X257497Y-300061D01*
X258117Y-299586D01*
X258250Y-299413D01*
X258750D01*
X258883Y-299586D01*
X259503Y-300061D01*
X260225Y-300361D01*
X261000Y-300463D01*
X261775Y-300361D01*
X262497Y-300061D01*
X263117Y-299586D01*
X263593Y-298966D01*
X263892Y-298243D01*
X263994Y-297468D01*
Y-293531D01*
X263892Y-292757D01*
X263593Y-292034D01*
X263117Y-291414D01*
X262497Y-290938D01*
X261775Y-290639D01*
X261000Y-290537D01*
D02*
G37*
G36*
X330500Y-290037D02*
X329725Y-290139D01*
X329003Y-290439D01*
X328383Y-290914D01*
X328250Y-291087D01*
X327750D01*
X327617Y-290914D01*
X326997Y-290439D01*
X326275Y-290139D01*
X325500Y-290037D01*
X324725Y-290139D01*
X324003Y-290439D01*
X323383Y-290914D01*
X323250Y-291087D01*
X322750D01*
X322617Y-290914D01*
X321997Y-290439D01*
X321275Y-290139D01*
X321000Y-290103D01*
Y-295000D01*
Y-299897D01*
X321275Y-299861D01*
X321997Y-299562D01*
X322617Y-299086D01*
X322750Y-298913D01*
X323250D01*
X323383Y-299086D01*
X324003Y-299562D01*
X324725Y-299861D01*
X325500Y-299963D01*
X326275Y-299861D01*
X326997Y-299562D01*
X327617Y-299086D01*
X327750Y-298913D01*
X328250D01*
X328383Y-299086D01*
X329003Y-299562D01*
X329725Y-299861D01*
X330500Y-299963D01*
X331275Y-299861D01*
X331997Y-299562D01*
X332617Y-299086D01*
X333093Y-298466D01*
X333392Y-297743D01*
X333494Y-296969D01*
Y-293032D01*
X333392Y-292257D01*
X333093Y-291534D01*
X332617Y-290914D01*
X331997Y-290439D01*
X331275Y-290139D01*
X330500Y-290037D01*
D02*
G37*
G36*
X411000Y-200212D02*
X410019Y-200341D01*
X409106Y-200719D01*
X408321Y-201321D01*
X407719Y-202106D01*
X407341Y-203019D01*
X407212Y-204000D01*
X407341Y-204980D01*
X407719Y-205894D01*
X408321Y-206679D01*
X409106Y-207281D01*
X410019Y-207659D01*
X411000Y-207788D01*
X411980Y-207659D01*
X412894Y-207281D01*
X413679Y-206679D01*
X414281Y-205894D01*
X414659Y-204980D01*
X414788Y-204000D01*
X414659Y-203019D01*
X414281Y-202106D01*
X413679Y-201321D01*
X412894Y-200719D01*
X411980Y-200341D01*
X411000Y-200212D01*
D02*
G37*
G36*
X49000Y-140712D02*
X48019Y-140841D01*
X47106Y-141219D01*
X46321Y-141821D01*
X45719Y-142606D01*
X45341Y-143519D01*
X45212Y-144500D01*
X45341Y-145481D01*
X45719Y-146394D01*
X46321Y-147179D01*
X47106Y-147781D01*
X48019Y-148159D01*
X49000Y-148288D01*
X49981Y-148159D01*
X50894Y-147781D01*
X51679Y-147179D01*
X52281Y-146394D01*
X52659Y-145481D01*
X52788Y-144500D01*
X52659Y-143519D01*
X52281Y-142606D01*
X51679Y-141821D01*
X50894Y-141219D01*
X49981Y-140841D01*
X49000Y-140712D01*
D02*
G37*
G36*
X75500D02*
X74519Y-140841D01*
X73606Y-141219D01*
X72821Y-141821D01*
X72219Y-142606D01*
X71841Y-143519D01*
X71712Y-144500D01*
X71841Y-145481D01*
X72219Y-146394D01*
X72821Y-147179D01*
X73606Y-147781D01*
X74519Y-148159D01*
X75500Y-148288D01*
X76481Y-148159D01*
X77394Y-147781D01*
X78179Y-147179D01*
X78781Y-146394D01*
X79159Y-145481D01*
X79288Y-144500D01*
X79159Y-143519D01*
X78781Y-142606D01*
X78179Y-141821D01*
X77394Y-141219D01*
X76481Y-140841D01*
X75500Y-140712D01*
D02*
G37*
G36*
X319500Y-200712D02*
X318519Y-200841D01*
X317606Y-201219D01*
X316821Y-201821D01*
X316219Y-202606D01*
X315841Y-203520D01*
X315712Y-204500D01*
X315841Y-205481D01*
X316219Y-206394D01*
X316821Y-207179D01*
X317606Y-207781D01*
X318519Y-208159D01*
X319500Y-208288D01*
X320480Y-208159D01*
X321394Y-207781D01*
X322179Y-207179D01*
X322781Y-206394D01*
X323159Y-205481D01*
X323288Y-204500D01*
X323159Y-203520D01*
X322781Y-202606D01*
X322179Y-201821D01*
X321394Y-201219D01*
X320480Y-200841D01*
X319500Y-200712D01*
D02*
G37*
G36*
X346000D02*
X345020Y-200841D01*
X344106Y-201219D01*
X343321Y-201821D01*
X342719Y-202606D01*
X342341Y-203520D01*
X342212Y-204500D01*
X342341Y-205481D01*
X342719Y-206394D01*
X343321Y-207179D01*
X344106Y-207781D01*
X345020Y-208159D01*
X346000Y-208288D01*
X346981Y-208159D01*
X347894Y-207781D01*
X348679Y-207179D01*
X349281Y-206394D01*
X349659Y-205481D01*
X349788Y-204500D01*
X349659Y-203520D01*
X349281Y-202606D01*
X348679Y-201821D01*
X347894Y-201219D01*
X346981Y-200841D01*
X346000Y-200712D01*
D02*
G37*
G36*
X384500Y-200212D02*
X383520Y-200341D01*
X382606Y-200719D01*
X381821Y-201321D01*
X381219Y-202106D01*
X380841Y-203019D01*
X380712Y-204000D01*
X380841Y-204980D01*
X381219Y-205894D01*
X381821Y-206679D01*
X382606Y-207281D01*
X383520Y-207659D01*
X384500Y-207788D01*
X385480Y-207659D01*
X386394Y-207281D01*
X387179Y-206679D01*
X387781Y-205894D01*
X388159Y-204980D01*
X388288Y-204000D01*
X388159Y-203019D01*
X387781Y-202106D01*
X387179Y-201321D01*
X386394Y-200719D01*
X385480Y-200341D01*
X384500Y-200212D01*
D02*
G37*
G36*
X115000Y-140712D02*
X114020Y-140841D01*
X113106Y-141219D01*
X112321Y-141821D01*
X111719Y-142606D01*
X111341Y-143519D01*
X111212Y-144500D01*
X111341Y-145481D01*
X111719Y-146394D01*
X112321Y-147179D01*
X113106Y-147781D01*
X114020Y-148159D01*
X115000Y-148288D01*
X115981Y-148159D01*
X116894Y-147781D01*
X117679Y-147179D01*
X118281Y-146394D01*
X118659Y-145481D01*
X118788Y-144500D01*
X118659Y-143519D01*
X118281Y-142606D01*
X117679Y-141821D01*
X116894Y-141219D01*
X115981Y-140841D01*
X115000Y-140712D01*
D02*
G37*
G36*
X250500D02*
X249519Y-140841D01*
X248606Y-141219D01*
X247821Y-141821D01*
X247219Y-142606D01*
X246841Y-143519D01*
X246712Y-144500D01*
X246841Y-145481D01*
X247219Y-146394D01*
X247821Y-147179D01*
X248606Y-147781D01*
X249519Y-148159D01*
X250500Y-148288D01*
X251481Y-148159D01*
X252394Y-147781D01*
X253179Y-147179D01*
X253781Y-146394D01*
X254159Y-145481D01*
X254288Y-144500D01*
X254159Y-143519D01*
X253781Y-142606D01*
X253179Y-141821D01*
X252394Y-141219D01*
X251481Y-140841D01*
X250500Y-140712D01*
D02*
G37*
G36*
X277000D02*
X276020Y-140841D01*
X275106Y-141219D01*
X274321Y-141821D01*
X273719Y-142606D01*
X273341Y-143519D01*
X273212Y-144500D01*
X273341Y-145481D01*
X273719Y-146394D01*
X274321Y-147179D01*
X275106Y-147781D01*
X276020Y-148159D01*
X277000Y-148288D01*
X277980Y-148159D01*
X278894Y-147781D01*
X279679Y-147179D01*
X280281Y-146394D01*
X280659Y-145481D01*
X280788Y-144500D01*
X280659Y-143519D01*
X280281Y-142606D01*
X279679Y-141821D01*
X278894Y-141219D01*
X277980Y-140841D01*
X277000Y-140712D01*
D02*
G37*
G36*
X319500D02*
X318519Y-140841D01*
X317606Y-141219D01*
X316821Y-141821D01*
X316219Y-142606D01*
X315841Y-143519D01*
X315712Y-144500D01*
X315841Y-145481D01*
X316219Y-146394D01*
X316821Y-147179D01*
X317606Y-147781D01*
X318519Y-148159D01*
X319500Y-148288D01*
X320480Y-148159D01*
X321394Y-147781D01*
X322179Y-147179D01*
X322781Y-146394D01*
X323159Y-145481D01*
X323288Y-144500D01*
X323159Y-143519D01*
X322781Y-142606D01*
X322179Y-141821D01*
X321394Y-141219D01*
X320480Y-140841D01*
X319500Y-140712D01*
D02*
G37*
G36*
X141500D02*
X140519Y-140841D01*
X139606Y-141219D01*
X138821Y-141821D01*
X138219Y-142606D01*
X137841Y-143519D01*
X137712Y-144500D01*
X137841Y-145481D01*
X138219Y-146394D01*
X138821Y-147179D01*
X139606Y-147781D01*
X140519Y-148159D01*
X141500Y-148288D01*
X142481Y-148159D01*
X143394Y-147781D01*
X144179Y-147179D01*
X144781Y-146394D01*
X145159Y-145481D01*
X145288Y-144500D01*
X145159Y-143519D01*
X144781Y-142606D01*
X144179Y-141821D01*
X143394Y-141219D01*
X142481Y-140841D01*
X141500Y-140712D01*
D02*
G37*
G36*
X183000D02*
X182019Y-140841D01*
X181106Y-141219D01*
X180321Y-141821D01*
X179719Y-142606D01*
X179341Y-143519D01*
X179212Y-144500D01*
X179341Y-145481D01*
X179719Y-146394D01*
X180321Y-147179D01*
X181106Y-147781D01*
X182019Y-148159D01*
X183000Y-148288D01*
X183981Y-148159D01*
X184894Y-147781D01*
X185679Y-147179D01*
X186281Y-146394D01*
X186659Y-145481D01*
X186788Y-144500D01*
X186659Y-143519D01*
X186281Y-142606D01*
X185679Y-141821D01*
X184894Y-141219D01*
X183981Y-140841D01*
X183000Y-140712D01*
D02*
G37*
G36*
X209500D02*
X208520Y-140841D01*
X207606Y-141219D01*
X206821Y-141821D01*
X206219Y-142606D01*
X205841Y-143519D01*
X205712Y-144500D01*
X205841Y-145481D01*
X206219Y-146394D01*
X206821Y-147179D01*
X207606Y-147781D01*
X208520Y-148159D01*
X209500Y-148288D01*
X210480Y-148159D01*
X211394Y-147781D01*
X212179Y-147179D01*
X212781Y-146394D01*
X213159Y-145481D01*
X213288Y-144500D01*
X213159Y-143519D01*
X212781Y-142606D01*
X212179Y-141821D01*
X211394Y-141219D01*
X210480Y-140841D01*
X209500Y-140712D01*
D02*
G37*
G36*
X277000Y-200712D02*
X276020Y-200841D01*
X275106Y-201219D01*
X274321Y-201821D01*
X273719Y-202606D01*
X273341Y-203520D01*
X273212Y-204500D01*
X273341Y-205481D01*
X273719Y-206394D01*
X274321Y-207179D01*
X275106Y-207781D01*
X276020Y-208159D01*
X277000Y-208288D01*
X277980Y-208159D01*
X278894Y-207781D01*
X279679Y-207179D01*
X280281Y-206394D01*
X280659Y-205481D01*
X280788Y-204500D01*
X280659Y-203520D01*
X280281Y-202606D01*
X279679Y-201821D01*
X278894Y-201219D01*
X277980Y-200841D01*
X277000Y-200712D01*
D02*
G37*
G36*
X203500Y-231970D02*
X202586Y-232090D01*
X201735Y-232443D01*
X201004Y-233004D01*
X200443Y-233735D01*
X200090Y-234586D01*
X199970Y-235500D01*
X200090Y-236414D01*
X200188Y-236649D01*
X193367Y-243471D01*
X152529D01*
Y-238655D01*
X152765Y-238557D01*
X153496Y-237996D01*
X154057Y-237265D01*
X154410Y-236414D01*
X154530Y-235500D01*
X154410Y-234586D01*
X154057Y-233735D01*
X153496Y-233004D01*
X152765Y-232443D01*
X151914Y-232090D01*
X151000Y-231970D01*
X150086Y-232090D01*
X149235Y-232443D01*
X148504Y-233004D01*
X147943Y-233735D01*
X147590Y-234586D01*
X147470Y-235500D01*
X147590Y-236414D01*
X147943Y-237265D01*
X148504Y-237996D01*
X149235Y-238557D01*
X149471Y-238655D01*
Y-245000D01*
X149587Y-245585D01*
X149919Y-246081D01*
X150415Y-246413D01*
X151000Y-246529D01*
X194000D01*
X194585Y-246413D01*
X195081Y-246081D01*
X202351Y-238812D01*
X202586Y-238910D01*
X203500Y-239030D01*
X204414Y-238910D01*
X205265Y-238557D01*
X205996Y-237996D01*
X206557Y-237265D01*
X206910Y-236414D01*
X207030Y-235500D01*
X206910Y-234586D01*
X206557Y-233735D01*
X205996Y-233004D01*
X205265Y-232443D01*
X204414Y-232090D01*
X203500Y-231970D01*
D02*
G37*
G36*
X158000Y-8513D02*
X156968Y-8649D01*
X156007Y-9047D01*
X155181Y-9681D01*
X154547Y-10507D01*
X154149Y-11468D01*
X154013Y-12500D01*
X154149Y-13532D01*
X154547Y-14493D01*
X155181Y-15319D01*
X156007Y-15953D01*
X156968Y-16351D01*
X158000Y-16487D01*
X159032Y-16351D01*
X159496Y-16159D01*
X199419Y-56081D01*
X199915Y-56413D01*
X200500Y-56529D01*
X305867D01*
X309471Y-60133D01*
Y-219500D01*
X309587Y-220085D01*
X309919Y-220581D01*
X312471Y-223133D01*
Y-232345D01*
X312235Y-232443D01*
X311504Y-233004D01*
X310943Y-233735D01*
X310590Y-234586D01*
X310470Y-235500D01*
X310590Y-236414D01*
X310943Y-237265D01*
X311504Y-237996D01*
X312235Y-238557D01*
X313086Y-238910D01*
X314000Y-239030D01*
X314914Y-238910D01*
X315765Y-238557D01*
X316496Y-237996D01*
X317057Y-237265D01*
X317410Y-236414D01*
X317530Y-235500D01*
X317410Y-234586D01*
X317057Y-233735D01*
X316496Y-233004D01*
X315765Y-232443D01*
X315529Y-232345D01*
Y-222500D01*
X315413Y-221915D01*
X315081Y-221419D01*
X312529Y-218866D01*
Y-59500D01*
X312413Y-58915D01*
X312081Y-58419D01*
X307581Y-53919D01*
X307085Y-53587D01*
X306500Y-53471D01*
X201133D01*
X161659Y-13996D01*
X161851Y-13532D01*
X161987Y-12500D01*
X161851Y-11468D01*
X161453Y-10507D01*
X160819Y-9681D01*
X159993Y-9047D01*
X159032Y-8649D01*
X158000Y-8513D01*
D02*
G37*
G36*
X128000D02*
X126968Y-8649D01*
X126007Y-9047D01*
X125181Y-9681D01*
X124547Y-10507D01*
X124149Y-11468D01*
X124013Y-12500D01*
X124149Y-13532D01*
X124547Y-14493D01*
X125181Y-15319D01*
X126007Y-15953D01*
X126968Y-16351D01*
X128000Y-16487D01*
X129032Y-16351D01*
X129496Y-16159D01*
X167971Y-54633D01*
Y-222471D01*
X160156D01*
X160044Y-222142D01*
X160016Y-221971D01*
X160557Y-221265D01*
X160910Y-220414D01*
X161030Y-219500D01*
X160910Y-218586D01*
X160812Y-218351D01*
X166581Y-212581D01*
X166913Y-212085D01*
X167029Y-211500D01*
Y-101909D01*
X166913Y-101324D01*
X166581Y-100828D01*
X160937Y-95184D01*
Y-87472D01*
X151063D01*
Y-97347D01*
X158774D01*
X163971Y-102543D01*
Y-210866D01*
X158649Y-216188D01*
X158414Y-216090D01*
X157500Y-215970D01*
X156586Y-216090D01*
X155735Y-216443D01*
X155004Y-217004D01*
X154443Y-217735D01*
X154090Y-218586D01*
X153970Y-219500D01*
X154090Y-220414D01*
X154443Y-221265D01*
X154984Y-221971D01*
X154956Y-222142D01*
X154844Y-222471D01*
X133000D01*
X132415Y-222587D01*
X131919Y-222919D01*
X127266Y-227571D01*
X126500Y-227470D01*
X125586Y-227590D01*
X124735Y-227943D01*
X124004Y-228504D01*
X123443Y-229235D01*
X123090Y-230086D01*
X122970Y-231000D01*
X123090Y-231914D01*
X123443Y-232765D01*
X124004Y-233496D01*
X124735Y-234057D01*
X125586Y-234410D01*
X126500Y-234530D01*
X127414Y-234410D01*
X128265Y-234057D01*
X128996Y-233496D01*
X129557Y-232765D01*
X129910Y-231914D01*
X130030Y-231000D01*
X129910Y-230086D01*
X129666Y-229497D01*
X133633Y-225529D01*
X169500D01*
X170085Y-225413D01*
X170581Y-225081D01*
X170913Y-224585D01*
X171029Y-224000D01*
Y-54000D01*
X170913Y-53415D01*
X170581Y-52919D01*
X131659Y-13996D01*
X131851Y-13532D01*
X131987Y-12500D01*
X131851Y-11468D01*
X131453Y-10507D01*
X130819Y-9681D01*
X129993Y-9047D01*
X129032Y-8649D01*
X128000Y-8513D01*
D02*
G37*
G36*
X195500Y-253037D02*
X194725Y-253139D01*
X194003Y-253438D01*
X193383Y-253914D01*
X193250Y-254087D01*
X192750D01*
X192617Y-253914D01*
X191997Y-253438D01*
X191275Y-253139D01*
X190500Y-253037D01*
X189725Y-253139D01*
X189003Y-253438D01*
X188383Y-253914D01*
X188250Y-254087D01*
X187750D01*
X187617Y-253914D01*
X186997Y-253438D01*
X186275Y-253139D01*
X186000Y-253103D01*
Y-258000D01*
Y-262897D01*
X186275Y-262861D01*
X186997Y-262561D01*
X187617Y-262086D01*
X187750Y-261913D01*
X188250D01*
X188383Y-262086D01*
X189003Y-262561D01*
X189725Y-262861D01*
X190500Y-262963D01*
X191275Y-262861D01*
X191997Y-262561D01*
X192617Y-262086D01*
X192750Y-261913D01*
X193250D01*
X193383Y-262086D01*
X194003Y-262561D01*
X194725Y-262861D01*
X195500Y-262963D01*
X196275Y-262861D01*
X196997Y-262561D01*
X197617Y-262086D01*
X198093Y-261466D01*
X198392Y-260743D01*
X198494Y-259968D01*
Y-256031D01*
X198392Y-255257D01*
X198093Y-254534D01*
X197617Y-253914D01*
X196997Y-253438D01*
X196275Y-253139D01*
X195500Y-253037D01*
D02*
G37*
G36*
X330500Y-252494D02*
X329725Y-252596D01*
X329003Y-252895D01*
X328383Y-253371D01*
X328250Y-253544D01*
X327750D01*
X327617Y-253371D01*
X326997Y-252895D01*
X326275Y-252596D01*
X325500Y-252494D01*
X324725Y-252596D01*
X324003Y-252895D01*
X323383Y-253371D01*
X323250Y-253544D01*
X322750D01*
X322617Y-253371D01*
X321997Y-252895D01*
X321275Y-252596D01*
X321000Y-252560D01*
Y-257457D01*
Y-262353D01*
X321275Y-262317D01*
X321997Y-262018D01*
X322617Y-261542D01*
X322750Y-261369D01*
X323250D01*
X323383Y-261542D01*
X324003Y-262018D01*
X324725Y-262317D01*
X325500Y-262419D01*
X326275Y-262317D01*
X326997Y-262018D01*
X327617Y-261542D01*
X327750Y-261369D01*
X328250D01*
X328383Y-261542D01*
X329003Y-262018D01*
X329725Y-262317D01*
X330500Y-262419D01*
X331275Y-262317D01*
X331997Y-262018D01*
X332617Y-261542D01*
X333093Y-260922D01*
X333392Y-260200D01*
X333494Y-259425D01*
Y-255488D01*
X333392Y-254713D01*
X333093Y-253991D01*
X332617Y-253371D01*
X331997Y-252895D01*
X331275Y-252596D01*
X330500Y-252494D01*
D02*
G37*
G36*
X395000Y-251994D02*
X394225Y-252096D01*
X393503Y-252395D01*
X392883Y-252871D01*
X392750Y-253044D01*
X392250D01*
X392117Y-252871D01*
X391497Y-252395D01*
X390775Y-252096D01*
X390000Y-251994D01*
X389225Y-252096D01*
X388503Y-252395D01*
X387883Y-252871D01*
X387750Y-253044D01*
X387250D01*
X387117Y-252871D01*
X386497Y-252395D01*
X385775Y-252096D01*
X385500Y-252060D01*
Y-256957D01*
Y-261854D01*
X385775Y-261817D01*
X386497Y-261518D01*
X387117Y-261042D01*
X387250Y-260869D01*
X387750D01*
X387883Y-261042D01*
X388503Y-261518D01*
X389225Y-261817D01*
X390000Y-261919D01*
X390775Y-261817D01*
X391497Y-261518D01*
X392117Y-261042D01*
X392250Y-260869D01*
X392750D01*
X392883Y-261042D01*
X393503Y-261518D01*
X394225Y-261817D01*
X395000Y-261919D01*
X395775Y-261817D01*
X396497Y-261518D01*
X397117Y-261042D01*
X397593Y-260422D01*
X397892Y-259700D01*
X397994Y-258925D01*
Y-254988D01*
X397892Y-254213D01*
X397593Y-253491D01*
X397117Y-252871D01*
X396497Y-252395D01*
X395775Y-252096D01*
X395000Y-251994D01*
D02*
G37*
G36*
X168000Y-8513D02*
X166968Y-8649D01*
X166007Y-9047D01*
X165181Y-9681D01*
X164547Y-10507D01*
X164149Y-11468D01*
X164013Y-12500D01*
X164149Y-13532D01*
X164547Y-14493D01*
X165181Y-15319D01*
X166007Y-15953D01*
X166968Y-16351D01*
X168000Y-16487D01*
X169032Y-16351D01*
X169496Y-16159D01*
X202919Y-49581D01*
X203415Y-49913D01*
X204000Y-50029D01*
X352366D01*
X370471Y-68133D01*
Y-215500D01*
X370587Y-216085D01*
X370919Y-216581D01*
X371919Y-217581D01*
X372415Y-217913D01*
X373000Y-218029D01*
X386845D01*
X386943Y-218265D01*
X387504Y-218996D01*
X388235Y-219557D01*
X389086Y-219910D01*
X390000Y-220030D01*
X390914Y-219910D01*
X391765Y-219557D01*
X392496Y-218996D01*
X393057Y-218265D01*
X393410Y-217414D01*
X393530Y-216500D01*
X393410Y-215586D01*
X393057Y-214735D01*
X392496Y-214004D01*
X391765Y-213443D01*
X390914Y-213090D01*
X390000Y-212970D01*
X389086Y-213090D01*
X388235Y-213443D01*
X387504Y-214004D01*
X386943Y-214735D01*
X386845Y-214971D01*
X373634D01*
X373529Y-214866D01*
Y-67500D01*
X373413Y-66915D01*
X373081Y-66419D01*
X354081Y-47419D01*
X353585Y-47087D01*
X353000Y-46971D01*
X204633D01*
X171659Y-13996D01*
X171851Y-13532D01*
X171987Y-12500D01*
X171851Y-11468D01*
X171453Y-10507D01*
X170819Y-9681D01*
X169993Y-9047D01*
X169032Y-8649D01*
X168000Y-8513D01*
D02*
G37*
G36*
X141500Y-200712D02*
X140519Y-200841D01*
X139606Y-201219D01*
X138821Y-201821D01*
X138219Y-202606D01*
X137841Y-203520D01*
X137712Y-204500D01*
X137841Y-205481D01*
X138219Y-206394D01*
X138821Y-207179D01*
X139606Y-207781D01*
X140519Y-208159D01*
X141500Y-208288D01*
X142481Y-208159D01*
X143394Y-207781D01*
X144179Y-207179D01*
X144781Y-206394D01*
X145159Y-205481D01*
X145288Y-204500D01*
X145159Y-203520D01*
X144781Y-202606D01*
X144179Y-201821D01*
X143394Y-201219D01*
X142481Y-200841D01*
X141500Y-200712D01*
D02*
G37*
G36*
X183000D02*
X182019Y-200841D01*
X181106Y-201219D01*
X180321Y-201821D01*
X179719Y-202606D01*
X179341Y-203520D01*
X179212Y-204500D01*
X179341Y-205481D01*
X179719Y-206394D01*
X180321Y-207179D01*
X181106Y-207781D01*
X182019Y-208159D01*
X183000Y-208288D01*
X183981Y-208159D01*
X184894Y-207781D01*
X185679Y-207179D01*
X186281Y-206394D01*
X186659Y-205481D01*
X186788Y-204500D01*
X186659Y-203520D01*
X186281Y-202606D01*
X185679Y-201821D01*
X184894Y-201219D01*
X183981Y-200841D01*
X183000Y-200712D01*
D02*
G37*
G36*
X209500D02*
X208520Y-200841D01*
X207606Y-201219D01*
X206821Y-201821D01*
X206219Y-202606D01*
X205841Y-203520D01*
X205712Y-204500D01*
X205841Y-205481D01*
X206219Y-206394D01*
X206821Y-207179D01*
X207606Y-207781D01*
X208520Y-208159D01*
X209500Y-208288D01*
X210480Y-208159D01*
X211394Y-207781D01*
X212179Y-207179D01*
X212781Y-206394D01*
X213159Y-205481D01*
X213288Y-204500D01*
X213159Y-203520D01*
X212781Y-202606D01*
X212179Y-201821D01*
X211394Y-201219D01*
X210480Y-200841D01*
X209500Y-200712D01*
D02*
G37*
G36*
X49000D02*
X48019Y-200841D01*
X47106Y-201219D01*
X46321Y-201821D01*
X45719Y-202606D01*
X45341Y-203520D01*
X45212Y-204500D01*
X45341Y-205481D01*
X45719Y-206394D01*
X46321Y-207179D01*
X47106Y-207781D01*
X48019Y-208159D01*
X49000Y-208288D01*
X49981Y-208159D01*
X50894Y-207781D01*
X51679Y-207179D01*
X52281Y-206394D01*
X52659Y-205481D01*
X52788Y-204500D01*
X52659Y-203520D01*
X52281Y-202606D01*
X51679Y-201821D01*
X50894Y-201219D01*
X49981Y-200841D01*
X49000Y-200712D01*
D02*
G37*
G36*
X75500D02*
X74519Y-200841D01*
X73606Y-201219D01*
X72821Y-201821D01*
X72219Y-202606D01*
X71841Y-203520D01*
X71712Y-204500D01*
X71841Y-205481D01*
X72219Y-206394D01*
X72821Y-207179D01*
X73606Y-207781D01*
X74519Y-208159D01*
X75500Y-208288D01*
X76481Y-208159D01*
X77394Y-207781D01*
X78179Y-207179D01*
X78781Y-206394D01*
X79159Y-205481D01*
X79288Y-204500D01*
X79159Y-203520D01*
X78781Y-202606D01*
X78179Y-201821D01*
X77394Y-201219D01*
X76481Y-200841D01*
X75500Y-200712D01*
D02*
G37*
G36*
X115000D02*
X114020Y-200841D01*
X113106Y-201219D01*
X112321Y-201821D01*
X111719Y-202606D01*
X111341Y-203520D01*
X111212Y-204500D01*
X111341Y-205481D01*
X111719Y-206394D01*
X112321Y-207179D01*
X113106Y-207781D01*
X114020Y-208159D01*
X115000Y-208288D01*
X115981Y-208159D01*
X116894Y-207781D01*
X117679Y-207179D01*
X118281Y-206394D01*
X118659Y-205481D01*
X118788Y-204500D01*
X118659Y-203520D01*
X118281Y-202606D01*
X117679Y-201821D01*
X116894Y-201219D01*
X115981Y-200841D01*
X115000Y-200712D01*
D02*
G37*
G36*
X272500Y-404513D02*
X271468Y-404649D01*
X270507Y-405047D01*
X269681Y-405681D01*
X269047Y-406507D01*
X268649Y-407468D01*
X268513Y-408500D01*
X268649Y-409532D01*
X269047Y-410493D01*
X269681Y-411319D01*
X270507Y-411953D01*
X271468Y-412351D01*
X272500Y-412487D01*
X273532Y-412351D01*
X274493Y-411953D01*
X275319Y-411319D01*
X275953Y-410493D01*
X276351Y-409532D01*
X276487Y-408500D01*
X276351Y-407468D01*
X275953Y-406507D01*
X275319Y-405681D01*
X274493Y-405047D01*
X273532Y-404649D01*
X272500Y-404513D01*
D02*
G37*
G36*
X292500D02*
X291468Y-404649D01*
X290507Y-405047D01*
X289681Y-405681D01*
X289047Y-406507D01*
X288649Y-407468D01*
X288513Y-408500D01*
X288649Y-409532D01*
X289047Y-410493D01*
X289681Y-411319D01*
X290507Y-411953D01*
X291468Y-412351D01*
X292500Y-412487D01*
X293532Y-412351D01*
X294493Y-411953D01*
X295319Y-411319D01*
X295953Y-410493D01*
X296351Y-409532D01*
X296487Y-408500D01*
X296351Y-407468D01*
X295953Y-406507D01*
X295319Y-405681D01*
X294493Y-405047D01*
X293532Y-404649D01*
X292500Y-404513D01*
D02*
G37*
G36*
X55453Y-404547D02*
X47547D01*
Y-412453D01*
X55453D01*
Y-404547D01*
D02*
G37*
G36*
X211000Y-366212D02*
X210019Y-366341D01*
X209106Y-366719D01*
X208321Y-367321D01*
X207719Y-368106D01*
X207341Y-369020D01*
X207212Y-370000D01*
X207341Y-370981D01*
X207719Y-371894D01*
X208321Y-372679D01*
X209106Y-373281D01*
X209471Y-373432D01*
Y-375500D01*
X209587Y-376085D01*
X209919Y-376581D01*
X239393Y-406056D01*
X239047Y-406507D01*
X238649Y-407468D01*
X238513Y-408500D01*
X238649Y-409532D01*
X239047Y-410493D01*
X239681Y-411319D01*
X240507Y-411953D01*
X241468Y-412351D01*
X242500Y-412487D01*
X243532Y-412351D01*
X244493Y-411953D01*
X245319Y-411319D01*
X245953Y-410493D01*
X246351Y-409532D01*
X246487Y-408500D01*
X246351Y-407468D01*
X245953Y-406507D01*
X245319Y-405681D01*
X244493Y-405047D01*
X243532Y-404649D01*
X242500Y-404513D01*
X242214Y-404551D01*
X212529Y-374867D01*
Y-373432D01*
X212894Y-373281D01*
X213679Y-372679D01*
X214281Y-371894D01*
X214659Y-370981D01*
X214788Y-370000D01*
X214659Y-369020D01*
X214281Y-368106D01*
X213679Y-367321D01*
X212894Y-366719D01*
X211981Y-366341D01*
X211000Y-366212D01*
D02*
G37*
G36*
X252500Y-404513D02*
X251468Y-404649D01*
X250507Y-405047D01*
X249681Y-405681D01*
X249047Y-406507D01*
X248649Y-407468D01*
X248513Y-408500D01*
X248649Y-409532D01*
X249047Y-410493D01*
X249681Y-411319D01*
X250507Y-411953D01*
X251468Y-412351D01*
X252500Y-412487D01*
X253532Y-412351D01*
X254493Y-411953D01*
X255319Y-411319D01*
X255953Y-410493D01*
X256351Y-409532D01*
X256487Y-408500D01*
X256351Y-407468D01*
X255953Y-406507D01*
X255319Y-405681D01*
X254493Y-405047D01*
X253532Y-404649D01*
X252500Y-404513D01*
D02*
G37*
G36*
X250000Y-366168D02*
X249020Y-366298D01*
X248106Y-366676D01*
X247321Y-367278D01*
X246719Y-368062D01*
X246341Y-368976D01*
X246212Y-369957D01*
X246341Y-370937D01*
X246719Y-371851D01*
X247321Y-372635D01*
X248106Y-373237D01*
X248471Y-373389D01*
Y-394500D01*
X248587Y-395085D01*
X248919Y-395581D01*
X259393Y-406056D01*
X259047Y-406507D01*
X258649Y-407468D01*
X258513Y-408500D01*
X258649Y-409532D01*
X259047Y-410493D01*
X259681Y-411319D01*
X260507Y-411953D01*
X261468Y-412351D01*
X262500Y-412487D01*
X263532Y-412351D01*
X264493Y-411953D01*
X265319Y-411319D01*
X265953Y-410493D01*
X266351Y-409532D01*
X266487Y-408500D01*
X266351Y-407468D01*
X265953Y-406507D01*
X265319Y-405681D01*
X264493Y-405047D01*
X263532Y-404649D01*
X262500Y-404513D01*
X262214Y-404551D01*
X251529Y-393866D01*
Y-373389D01*
X251894Y-373237D01*
X252679Y-372635D01*
X253281Y-371851D01*
X253659Y-370937D01*
X253788Y-369957D01*
X253659Y-368976D01*
X253281Y-368062D01*
X252679Y-367278D01*
X251894Y-366676D01*
X250980Y-366298D01*
X250000Y-366168D01*
D02*
G37*
G36*
X196453Y-404547D02*
X188547D01*
Y-412453D01*
X196453D01*
Y-404547D01*
D02*
G37*
G36*
X276500Y-366168D02*
X275519Y-366298D01*
X274606Y-366676D01*
X273821Y-367278D01*
X273219Y-368062D01*
X272841Y-368976D01*
X272712Y-369957D01*
X272841Y-370937D01*
X273219Y-371851D01*
X273821Y-372635D01*
X274606Y-373237D01*
X275519Y-373616D01*
X276500Y-373745D01*
X277481Y-373616D01*
X278394Y-373237D01*
X279179Y-372635D01*
X279781Y-371851D01*
X280159Y-370937D01*
X280288Y-369957D01*
X280159Y-368976D01*
X279781Y-368062D01*
X279179Y-367278D01*
X278394Y-366676D01*
X277481Y-366298D01*
X276500Y-366168D01*
D02*
G37*
G36*
X319500Y-365668D02*
X318519Y-365797D01*
X317606Y-366176D01*
X316821Y-366778D01*
X316219Y-367563D01*
X315841Y-368476D01*
X315712Y-369457D01*
X315841Y-370437D01*
X315992Y-370802D01*
X282247Y-404546D01*
X281468Y-404649D01*
X280507Y-405047D01*
X279681Y-405681D01*
X279047Y-406507D01*
X278649Y-407468D01*
X278513Y-408500D01*
X278649Y-409532D01*
X279047Y-410493D01*
X279681Y-411319D01*
X280507Y-411953D01*
X281468Y-412351D01*
X282500Y-412487D01*
X283532Y-412351D01*
X284493Y-411953D01*
X285319Y-411319D01*
X285953Y-410493D01*
X286351Y-409532D01*
X286487Y-408500D01*
X286351Y-407468D01*
X285953Y-406507D01*
X285371Y-405749D01*
X318155Y-372965D01*
X318519Y-373116D01*
X319500Y-373245D01*
X320480Y-373116D01*
X321394Y-372738D01*
X322179Y-372135D01*
X322781Y-371351D01*
X323159Y-370437D01*
X323288Y-369457D01*
X323159Y-368476D01*
X322781Y-367563D01*
X322179Y-366778D01*
X321394Y-366176D01*
X320480Y-365797D01*
X319500Y-365668D01*
D02*
G37*
G36*
X346000D02*
X345020Y-365797D01*
X344106Y-366176D01*
X343321Y-366778D01*
X342719Y-367563D01*
X342341Y-368476D01*
X342212Y-369457D01*
X342341Y-370437D01*
X342719Y-371351D01*
X343321Y-372135D01*
X344106Y-372738D01*
X345020Y-373116D01*
X346000Y-373245D01*
X346981Y-373116D01*
X347894Y-372738D01*
X348679Y-372135D01*
X349281Y-371351D01*
X349659Y-370437D01*
X349788Y-369457D01*
X349659Y-368476D01*
X349281Y-367563D01*
X348679Y-366778D01*
X347894Y-366176D01*
X346981Y-365797D01*
X346000Y-365668D01*
D02*
G37*
G36*
X114500Y-367212D02*
X113520Y-367341D01*
X112606Y-367719D01*
X111821Y-368321D01*
X111219Y-369106D01*
X110841Y-370020D01*
X110712Y-371000D01*
X110841Y-371981D01*
X111219Y-372894D01*
X111821Y-373679D01*
X112606Y-374281D01*
X113520Y-374659D01*
X114500Y-374788D01*
X115480Y-374659D01*
X116394Y-374281D01*
X117179Y-373679D01*
X117781Y-372894D01*
X118159Y-371981D01*
X118288Y-371000D01*
X118159Y-370020D01*
X117781Y-369106D01*
X117179Y-368321D01*
X116394Y-367719D01*
X115480Y-367341D01*
X114500Y-367212D01*
D02*
G37*
G36*
X49500Y-366712D02*
X48520Y-366841D01*
X47606Y-367219D01*
X46821Y-367821D01*
X46219Y-368606D01*
X45841Y-369519D01*
X45712Y-370500D01*
X45841Y-371480D01*
X46219Y-372394D01*
X46821Y-373179D01*
X47606Y-373781D01*
X48520Y-374159D01*
X49500Y-374288D01*
X50481Y-374159D01*
X51394Y-373781D01*
X52179Y-373179D01*
X52781Y-372394D01*
X53159Y-371480D01*
X53288Y-370500D01*
X53159Y-369519D01*
X52781Y-368606D01*
X52179Y-367821D01*
X51394Y-367219D01*
X50481Y-366841D01*
X49500Y-366712D01*
D02*
G37*
G36*
X184500Y-366212D02*
X183519Y-366341D01*
X182606Y-366719D01*
X181821Y-367321D01*
X181219Y-368106D01*
X180841Y-369020D01*
X180712Y-370000D01*
X180841Y-370981D01*
X181219Y-371894D01*
X181821Y-372679D01*
X182606Y-373281D01*
X183519Y-373659D01*
X184500Y-373788D01*
X185480Y-373659D01*
X186394Y-373281D01*
X187179Y-372679D01*
X187781Y-371894D01*
X188159Y-370981D01*
X188288Y-370000D01*
X188159Y-369020D01*
X187781Y-368106D01*
X187179Y-367321D01*
X186394Y-366719D01*
X185480Y-366341D01*
X184500Y-366212D01*
D02*
G37*
G36*
X232500Y-404513D02*
X231468Y-404649D01*
X230507Y-405047D01*
X229681Y-405681D01*
X229047Y-406507D01*
X228649Y-407468D01*
X228513Y-408500D01*
X228649Y-409532D01*
X229047Y-410493D01*
X229681Y-411319D01*
X230507Y-411953D01*
X231468Y-412351D01*
X232500Y-412487D01*
X233532Y-412351D01*
X234493Y-411953D01*
X235319Y-411319D01*
X235953Y-410493D01*
X236351Y-409532D01*
X236487Y-408500D01*
X236351Y-407468D01*
X235953Y-406507D01*
X235319Y-405681D01*
X234493Y-405047D01*
X233532Y-404649D01*
X232500Y-404513D01*
D02*
G37*
G36*
X91500D02*
X90468Y-404649D01*
X89507Y-405047D01*
X88681Y-405681D01*
X88047Y-406507D01*
X87649Y-407468D01*
X87513Y-408500D01*
X87649Y-409532D01*
X88047Y-410493D01*
X88681Y-411319D01*
X89507Y-411953D01*
X90468Y-412351D01*
X91500Y-412487D01*
X92532Y-412351D01*
X93493Y-411953D01*
X94319Y-411319D01*
X94953Y-410493D01*
X95351Y-409532D01*
X95487Y-408500D01*
X95351Y-407468D01*
X94953Y-406507D01*
X94319Y-405681D01*
X93493Y-405047D01*
X92532Y-404649D01*
X91500Y-404513D01*
D02*
G37*
G36*
X101500D02*
X100468Y-404649D01*
X99507Y-405047D01*
X98681Y-405681D01*
X98047Y-406507D01*
X97649Y-407468D01*
X97513Y-408500D01*
X97649Y-409532D01*
X98047Y-410493D01*
X98681Y-411319D01*
X99507Y-411953D01*
X100468Y-412351D01*
X101500Y-412487D01*
X102532Y-412351D01*
X103493Y-411953D01*
X104319Y-411319D01*
X104953Y-410493D01*
X105351Y-409532D01*
X105487Y-408500D01*
X105351Y-407468D01*
X104953Y-406507D01*
X104319Y-405681D01*
X103493Y-405047D01*
X102532Y-404649D01*
X101500Y-404513D01*
D02*
G37*
G36*
X111500D02*
X110468Y-404649D01*
X109507Y-405047D01*
X108681Y-405681D01*
X108047Y-406507D01*
X107649Y-407468D01*
X107513Y-408500D01*
X107649Y-409532D01*
X108047Y-410493D01*
X108681Y-411319D01*
X109507Y-411953D01*
X110468Y-412351D01*
X111500Y-412487D01*
X112532Y-412351D01*
X113493Y-411953D01*
X114319Y-411319D01*
X114953Y-410493D01*
X115351Y-409532D01*
X115487Y-408500D01*
X115351Y-407468D01*
X114953Y-406507D01*
X114319Y-405681D01*
X113493Y-405047D01*
X112532Y-404649D01*
X111500Y-404513D01*
D02*
G37*
G36*
X61500D02*
X60468Y-404649D01*
X59507Y-405047D01*
X58681Y-405681D01*
X58047Y-406507D01*
X57649Y-407468D01*
X57513Y-408500D01*
X57649Y-409532D01*
X58047Y-410493D01*
X58681Y-411319D01*
X59507Y-411953D01*
X60468Y-412351D01*
X61500Y-412487D01*
X62532Y-412351D01*
X63493Y-411953D01*
X64319Y-411319D01*
X64953Y-410493D01*
X65351Y-409532D01*
X65487Y-408500D01*
X65351Y-407468D01*
X64953Y-406507D01*
X64319Y-405681D01*
X63493Y-405047D01*
X62532Y-404649D01*
X61500Y-404513D01*
D02*
G37*
G36*
X71500D02*
X70468Y-404649D01*
X69507Y-405047D01*
X68681Y-405681D01*
X68047Y-406507D01*
X67649Y-407468D01*
X67513Y-408500D01*
X67649Y-409532D01*
X68047Y-410493D01*
X68681Y-411319D01*
X69507Y-411953D01*
X70468Y-412351D01*
X71500Y-412487D01*
X72532Y-412351D01*
X73493Y-411953D01*
X74319Y-411319D01*
X74953Y-410493D01*
X75351Y-409532D01*
X75487Y-408500D01*
X75351Y-407468D01*
X74953Y-406507D01*
X74319Y-405681D01*
X73493Y-405047D01*
X72532Y-404649D01*
X71500Y-404513D01*
D02*
G37*
G36*
X81500D02*
X80468Y-404649D01*
X79507Y-405047D01*
X78681Y-405681D01*
X78047Y-406507D01*
X77649Y-407468D01*
X77513Y-408500D01*
X77649Y-409532D01*
X78047Y-410493D01*
X78681Y-411319D01*
X79507Y-411953D01*
X80468Y-412351D01*
X81500Y-412487D01*
X82532Y-412351D01*
X83493Y-411953D01*
X84319Y-411319D01*
X84953Y-410493D01*
X85351Y-409532D01*
X85487Y-408500D01*
X85351Y-407468D01*
X84953Y-406507D01*
X84319Y-405681D01*
X83493Y-405047D01*
X82532Y-404649D01*
X81500Y-404513D01*
D02*
G37*
G36*
X121500D02*
X120468Y-404649D01*
X119507Y-405047D01*
X118681Y-405681D01*
X118047Y-406507D01*
X117649Y-407468D01*
X117513Y-408500D01*
X117649Y-409532D01*
X118047Y-410493D01*
X118681Y-411319D01*
X119507Y-411953D01*
X120468Y-412351D01*
X121500Y-412487D01*
X122532Y-412351D01*
X123493Y-411953D01*
X124319Y-411319D01*
X124953Y-410493D01*
X125351Y-409532D01*
X125487Y-408500D01*
X125351Y-407468D01*
X124953Y-406507D01*
X124319Y-405681D01*
X123493Y-405047D01*
X122532Y-404649D01*
X121500Y-404513D01*
D02*
G37*
G36*
X161500D02*
X160468Y-404649D01*
X159507Y-405047D01*
X158681Y-405681D01*
X158047Y-406507D01*
X157649Y-407468D01*
X157513Y-408500D01*
X157649Y-409532D01*
X158047Y-410493D01*
X158681Y-411319D01*
X159507Y-411953D01*
X160468Y-412351D01*
X161500Y-412487D01*
X162532Y-412351D01*
X163493Y-411953D01*
X164319Y-411319D01*
X164953Y-410493D01*
X165351Y-409532D01*
X165487Y-408500D01*
X165351Y-407468D01*
X164953Y-406507D01*
X164319Y-405681D01*
X163493Y-405047D01*
X162532Y-404649D01*
X161500Y-404513D01*
D02*
G37*
G36*
X212500D02*
X211468Y-404649D01*
X210507Y-405047D01*
X209681Y-405681D01*
X209047Y-406507D01*
X208649Y-407468D01*
X208513Y-408500D01*
X208649Y-409532D01*
X209047Y-410493D01*
X209681Y-411319D01*
X210507Y-411953D01*
X211468Y-412351D01*
X212500Y-412487D01*
X213532Y-412351D01*
X214493Y-411953D01*
X215319Y-411319D01*
X215953Y-410493D01*
X216351Y-409532D01*
X216487Y-408500D01*
X216351Y-407468D01*
X215953Y-406507D01*
X215319Y-405681D01*
X214493Y-405047D01*
X213532Y-404649D01*
X212500Y-404513D01*
D02*
G37*
G36*
X76000Y-366712D02*
X75020Y-366841D01*
X74106Y-367219D01*
X73321Y-367821D01*
X72719Y-368606D01*
X72341Y-369519D01*
X72212Y-370500D01*
X72341Y-371480D01*
X72719Y-372394D01*
X73321Y-373179D01*
X74106Y-373781D01*
X75020Y-374159D01*
X76000Y-374288D01*
X76981Y-374159D01*
X77345Y-374008D01*
X99419Y-396081D01*
X99915Y-396413D01*
X100500Y-396529D01*
X189866D01*
X199393Y-406056D01*
X199047Y-406507D01*
X198649Y-407468D01*
X198513Y-408500D01*
X198649Y-409532D01*
X199047Y-410493D01*
X199681Y-411319D01*
X200507Y-411953D01*
X201468Y-412351D01*
X202500Y-412487D01*
X203532Y-412351D01*
X204493Y-411953D01*
X205319Y-411319D01*
X205953Y-410493D01*
X206351Y-409532D01*
X206487Y-408500D01*
X206351Y-407468D01*
X205953Y-406507D01*
X205319Y-405681D01*
X204493Y-405047D01*
X203532Y-404649D01*
X202500Y-404513D01*
X202214Y-404551D01*
X192654Y-394991D01*
X192846Y-394529D01*
X207867D01*
X219393Y-406056D01*
X219047Y-406507D01*
X218649Y-407468D01*
X218513Y-408500D01*
X218649Y-409532D01*
X219047Y-410493D01*
X219681Y-411319D01*
X220507Y-411953D01*
X221468Y-412351D01*
X222500Y-412487D01*
X223532Y-412351D01*
X224493Y-411953D01*
X225319Y-411319D01*
X225953Y-410493D01*
X226351Y-409532D01*
X226487Y-408500D01*
X226351Y-407468D01*
X225953Y-406507D01*
X225319Y-405681D01*
X224493Y-405047D01*
X223532Y-404649D01*
X222500Y-404513D01*
X222214Y-404551D01*
X209581Y-391919D01*
X209085Y-391587D01*
X208500Y-391471D01*
X184134D01*
X162581Y-369919D01*
X162085Y-369587D01*
X161500Y-369471D01*
X144432D01*
X144281Y-369106D01*
X143679Y-368321D01*
X142894Y-367719D01*
X141981Y-367341D01*
X141000Y-367212D01*
X140020Y-367341D01*
X139106Y-367719D01*
X138321Y-368321D01*
X137719Y-369106D01*
X137341Y-370020D01*
X137212Y-371000D01*
X137341Y-371981D01*
X137719Y-372894D01*
X138321Y-373679D01*
X139106Y-374281D01*
X140020Y-374659D01*
X141000Y-374788D01*
X141981Y-374659D01*
X142894Y-374281D01*
X143679Y-373679D01*
X144281Y-372894D01*
X144432Y-372529D01*
X160866D01*
X181346Y-393009D01*
X181154Y-393471D01*
X101134D01*
X79508Y-371845D01*
X79659Y-371480D01*
X79788Y-370500D01*
X79659Y-369519D01*
X79281Y-368606D01*
X78679Y-367821D01*
X77894Y-367219D01*
X76981Y-366841D01*
X76000Y-366712D01*
D02*
G37*
G36*
X131500Y-404513D02*
X130468Y-404649D01*
X129507Y-405047D01*
X128681Y-405681D01*
X128047Y-406507D01*
X127649Y-407468D01*
X127513Y-408500D01*
X127649Y-409532D01*
X128047Y-410493D01*
X128681Y-411319D01*
X129507Y-411953D01*
X130468Y-412351D01*
X131500Y-412487D01*
X132532Y-412351D01*
X133493Y-411953D01*
X134319Y-411319D01*
X134953Y-410493D01*
X135351Y-409532D01*
X135487Y-408500D01*
X135351Y-407468D01*
X134953Y-406507D01*
X134319Y-405681D01*
X133493Y-405047D01*
X132532Y-404649D01*
X131500Y-404513D01*
D02*
G37*
G36*
X141500D02*
X140468Y-404649D01*
X139507Y-405047D01*
X138681Y-405681D01*
X138047Y-406507D01*
X137649Y-407468D01*
X137513Y-408500D01*
X137649Y-409532D01*
X138047Y-410493D01*
X138681Y-411319D01*
X139507Y-411953D01*
X140468Y-412351D01*
X141500Y-412487D01*
X142532Y-412351D01*
X143493Y-411953D01*
X144319Y-411319D01*
X144953Y-410493D01*
X145351Y-409532D01*
X145487Y-408500D01*
X145351Y-407468D01*
X144953Y-406507D01*
X144319Y-405681D01*
X143493Y-405047D01*
X142532Y-404649D01*
X141500Y-404513D01*
D02*
G37*
G36*
X151500D02*
X150468Y-404649D01*
X149507Y-405047D01*
X148681Y-405681D01*
X148047Y-406507D01*
X147649Y-407468D01*
X147513Y-408500D01*
X147649Y-409532D01*
X148047Y-410493D01*
X148681Y-411319D01*
X149507Y-411953D01*
X150468Y-412351D01*
X151500Y-412487D01*
X152532Y-412351D01*
X153493Y-411953D01*
X154319Y-411319D01*
X154953Y-410493D01*
X155351Y-409532D01*
X155487Y-408500D01*
X155351Y-407468D01*
X154953Y-406507D01*
X154319Y-405681D01*
X153493Y-405047D01*
X152532Y-404649D01*
X151500Y-404513D01*
D02*
G37*
G36*
X291000Y-294068D02*
X289711Y-294237D01*
X288510Y-294735D01*
X287479Y-295526D01*
X286687Y-296557D01*
X286190Y-297758D01*
X286020Y-299047D01*
X286190Y-300336D01*
X286687Y-301537D01*
X287479Y-302568D01*
X288510Y-303360D01*
X289711Y-303857D01*
X291000Y-304027D01*
X292289Y-303857D01*
X293490Y-303360D01*
X294521Y-302568D01*
X295312Y-301537D01*
X295810Y-300336D01*
X295980Y-299047D01*
X295810Y-297758D01*
X295312Y-296557D01*
X294521Y-295526D01*
X293490Y-294735D01*
X292289Y-294237D01*
X291000Y-294068D01*
D02*
G37*
G36*
X360500Y-293568D02*
X359211Y-293737D01*
X358010Y-294235D01*
X356979Y-295026D01*
X356188Y-296057D01*
X355690Y-297258D01*
X355520Y-298547D01*
X355690Y-299836D01*
X356188Y-301037D01*
X356979Y-302068D01*
X358010Y-302860D01*
X359211Y-303357D01*
X360500Y-303527D01*
X361789Y-303357D01*
X362990Y-302860D01*
X364021Y-302068D01*
X364812Y-301037D01*
X365310Y-299836D01*
X365480Y-298547D01*
X365310Y-297258D01*
X364812Y-296057D01*
X364021Y-295026D01*
X362990Y-294235D01*
X361789Y-293737D01*
X360500Y-293568D01*
D02*
G37*
G36*
X425000Y-293068D02*
X423711Y-293237D01*
X422510Y-293735D01*
X421479Y-294526D01*
X420687Y-295557D01*
X420190Y-296758D01*
X420020Y-298047D01*
X420190Y-299336D01*
X420687Y-300537D01*
X421479Y-301568D01*
X422510Y-302360D01*
X423711Y-302857D01*
X425000Y-303027D01*
X426289Y-302857D01*
X427490Y-302360D01*
X428521Y-301568D01*
X429313Y-300537D01*
X429810Y-299336D01*
X429980Y-298047D01*
X429810Y-296758D01*
X429313Y-295557D01*
X428521Y-294526D01*
X427490Y-293735D01*
X426289Y-293237D01*
X425000Y-293068D01*
D02*
G37*
G36*
X155500Y-295111D02*
X154211Y-295281D01*
X153010Y-295778D01*
X151979Y-296569D01*
X151188Y-297601D01*
X150690Y-298802D01*
X150520Y-300091D01*
X150690Y-301379D01*
X151188Y-302580D01*
X151979Y-303612D01*
X153010Y-304403D01*
X154211Y-304901D01*
X155500Y-305070D01*
X156789Y-304901D01*
X157990Y-304403D01*
X159021Y-303612D01*
X159812Y-302580D01*
X160310Y-301379D01*
X160480Y-300091D01*
X160310Y-298802D01*
X159812Y-297601D01*
X159021Y-296569D01*
X157990Y-295778D01*
X156789Y-295281D01*
X155500Y-295111D01*
D02*
G37*
G36*
X90500Y-294611D02*
X89211Y-294781D01*
X88010Y-295278D01*
X86979Y-296069D01*
X86187Y-297101D01*
X85690Y-298302D01*
X85520Y-299590D01*
X85690Y-300879D01*
X86187Y-302080D01*
X86979Y-303112D01*
X88010Y-303903D01*
X89211Y-304400D01*
X90500Y-304570D01*
X91789Y-304400D01*
X92990Y-303903D01*
X94021Y-303112D01*
X94813Y-302080D01*
X95310Y-300879D01*
X95480Y-299590D01*
X95310Y-298302D01*
X94813Y-297101D01*
X94021Y-296069D01*
X92990Y-295278D01*
X91789Y-294781D01*
X90500Y-294611D01*
D02*
G37*
G36*
X225500Y-294111D02*
X224211Y-294281D01*
X223010Y-294778D01*
X221979Y-295569D01*
X221187Y-296601D01*
X220690Y-297802D01*
X220520Y-299091D01*
X220690Y-300379D01*
X221187Y-301580D01*
X221979Y-302612D01*
X223010Y-303403D01*
X224211Y-303901D01*
X225500Y-304070D01*
X226789Y-303901D01*
X227990Y-303403D01*
X229021Y-302612D01*
X229813Y-301580D01*
X230310Y-300379D01*
X230480Y-299091D01*
X230310Y-297802D01*
X229813Y-296601D01*
X229021Y-295569D01*
X227990Y-294778D01*
X226789Y-294281D01*
X225500Y-294111D01*
D02*
G37*
G36*
X115000Y-297043D02*
X112506D01*
Y-298512D01*
X112608Y-299287D01*
X112907Y-300009D01*
X113383Y-300629D01*
X114003Y-301105D01*
X114725Y-301404D01*
X115000Y-301440D01*
Y-297043D01*
D02*
G37*
G36*
X320000Y-295500D02*
X317506D01*
Y-296969D01*
X317608Y-297743D01*
X317907Y-298466D01*
X318383Y-299086D01*
X319003Y-299562D01*
X319725Y-299861D01*
X320000Y-299897D01*
Y-295500D01*
D02*
G37*
G36*
X384500Y-295000D02*
X382006D01*
Y-296468D01*
X382108Y-297243D01*
X382407Y-297966D01*
X382883Y-298586D01*
X383503Y-299061D01*
X384225Y-299361D01*
X384500Y-299397D01*
Y-295000D01*
D02*
G37*
G36*
X115000Y-291647D02*
X114725Y-291683D01*
X114003Y-291982D01*
X113383Y-292458D01*
X112907Y-293078D01*
X112608Y-293800D01*
X112506Y-294575D01*
Y-296043D01*
X115000D01*
Y-291647D01*
D02*
G37*
G36*
X50000Y-296543D02*
X47506D01*
Y-298012D01*
X47608Y-298787D01*
X47907Y-299509D01*
X48383Y-300129D01*
X49003Y-300605D01*
X49725Y-300904D01*
X50000Y-300940D01*
Y-296543D01*
D02*
G37*
G36*
X185000Y-296043D02*
X182506D01*
Y-297512D01*
X182608Y-298287D01*
X182907Y-299009D01*
X183383Y-299629D01*
X184003Y-300105D01*
X184725Y-300404D01*
X185000Y-300440D01*
Y-296043D01*
D02*
G37*
G36*
X250500Y-296000D02*
X248006D01*
Y-297468D01*
X248108Y-298243D01*
X248407Y-298966D01*
X248883Y-299586D01*
X249503Y-300061D01*
X250225Y-300361D01*
X250500Y-300397D01*
Y-296000D01*
D02*
G37*
G36*
X410500Y-305168D02*
X409519Y-305297D01*
X408606Y-305676D01*
X407821Y-306278D01*
X407219Y-307063D01*
X406841Y-307976D01*
X406712Y-308957D01*
X406841Y-309937D01*
X407219Y-310851D01*
X407821Y-311635D01*
X408606Y-312238D01*
X409519Y-312616D01*
X410500Y-312745D01*
X411481Y-312616D01*
X412394Y-312238D01*
X413179Y-311635D01*
X413781Y-310851D01*
X414159Y-309937D01*
X414288Y-308957D01*
X414159Y-307976D01*
X413781Y-307063D01*
X413179Y-306278D01*
X412394Y-305676D01*
X411481Y-305297D01*
X410500Y-305168D01*
D02*
G37*
G36*
X141000Y-307212D02*
X140020Y-307341D01*
X139106Y-307719D01*
X138321Y-308321D01*
X137719Y-309106D01*
X137341Y-310019D01*
X137212Y-311000D01*
X137341Y-311981D01*
X137719Y-312894D01*
X138321Y-313679D01*
X139106Y-314281D01*
X140020Y-314659D01*
X141000Y-314788D01*
X141981Y-314659D01*
X142894Y-314281D01*
X143679Y-313679D01*
X144281Y-312894D01*
X144659Y-311981D01*
X144788Y-311000D01*
X144659Y-310019D01*
X144281Y-309106D01*
X143679Y-308321D01*
X142894Y-307719D01*
X141981Y-307341D01*
X141000Y-307212D01*
D02*
G37*
G36*
X49500Y-306712D02*
X48520Y-306841D01*
X47606Y-307219D01*
X46821Y-307821D01*
X46219Y-308606D01*
X45841Y-309520D01*
X45712Y-310500D01*
X45841Y-311480D01*
X46219Y-312394D01*
X46821Y-313179D01*
X47606Y-313781D01*
X48520Y-314159D01*
X49500Y-314288D01*
X50481Y-314159D01*
X51394Y-313781D01*
X52179Y-313179D01*
X52781Y-312394D01*
X53159Y-311480D01*
X53288Y-310500D01*
X53159Y-309520D01*
X52781Y-308606D01*
X52179Y-307821D01*
X51394Y-307219D01*
X50481Y-306841D01*
X49500Y-306712D01*
D02*
G37*
G36*
X76000D02*
X75020Y-306841D01*
X74106Y-307219D01*
X73321Y-307821D01*
X72719Y-308606D01*
X72341Y-309520D01*
X72212Y-310500D01*
X72341Y-311480D01*
X72719Y-312394D01*
X73321Y-313179D01*
X74106Y-313781D01*
X75020Y-314159D01*
X76000Y-314288D01*
X76981Y-314159D01*
X77894Y-313781D01*
X78679Y-313179D01*
X79281Y-312394D01*
X79659Y-311480D01*
X79788Y-310500D01*
X79659Y-309520D01*
X79281Y-308606D01*
X78679Y-307821D01*
X77894Y-307219D01*
X76981Y-306841D01*
X76000Y-306712D01*
D02*
G37*
G36*
X384000Y-365168D02*
X383019Y-365298D01*
X382106Y-365676D01*
X381321Y-366278D01*
X380719Y-367062D01*
X380341Y-367976D01*
X380212Y-368957D01*
X380341Y-369937D01*
X380492Y-370302D01*
X345323Y-405471D01*
X305045D01*
X304493Y-405047D01*
X303532Y-404649D01*
X302500Y-404513D01*
X301468Y-404649D01*
X300507Y-405047D01*
X299681Y-405681D01*
X299047Y-406507D01*
X298649Y-407468D01*
X298513Y-408500D01*
X298649Y-409532D01*
X299047Y-410493D01*
X299681Y-411319D01*
X300507Y-411953D01*
X301468Y-412351D01*
X302500Y-412487D01*
X303532Y-412351D01*
X304493Y-411953D01*
X305319Y-411319D01*
X305953Y-410493D01*
X306351Y-409532D01*
X306483Y-408529D01*
X345957D01*
X346542Y-408413D01*
X347038Y-408081D01*
X382655Y-372465D01*
X383019Y-372616D01*
X384000Y-372745D01*
X384981Y-372616D01*
X385894Y-372237D01*
X386679Y-371635D01*
X387281Y-370851D01*
X387659Y-369937D01*
X387788Y-368957D01*
X387659Y-367976D01*
X387281Y-367062D01*
X386679Y-366278D01*
X385894Y-365676D01*
X384981Y-365298D01*
X384000Y-365168D01*
D02*
G37*
G36*
X410500D02*
X409519Y-365298D01*
X408606Y-365676D01*
X407821Y-366278D01*
X407219Y-367062D01*
X406841Y-367976D01*
X406712Y-368957D01*
X406841Y-369937D01*
X407219Y-370851D01*
X407821Y-371635D01*
X408606Y-372237D01*
X409519Y-372616D01*
X410500Y-372745D01*
X411481Y-372616D01*
X412394Y-372237D01*
X413179Y-371635D01*
X413781Y-370851D01*
X414159Y-369937D01*
X414288Y-368957D01*
X414159Y-367976D01*
X413781Y-367062D01*
X413179Y-366278D01*
X412394Y-365676D01*
X411481Y-365298D01*
X410500Y-365168D01*
D02*
G37*
G36*
X114500Y-307212D02*
X113520Y-307341D01*
X112606Y-307719D01*
X111821Y-308321D01*
X111219Y-309106D01*
X110841Y-310019D01*
X110712Y-311000D01*
X110841Y-311981D01*
X111219Y-312894D01*
X111821Y-313679D01*
X112606Y-314281D01*
X113520Y-314659D01*
X114500Y-314788D01*
X115480Y-314659D01*
X116394Y-314281D01*
X117179Y-313679D01*
X117781Y-312894D01*
X118159Y-311981D01*
X118288Y-311000D01*
X118159Y-310019D01*
X117781Y-309106D01*
X117179Y-308321D01*
X116394Y-307719D01*
X115480Y-307341D01*
X114500Y-307212D01*
D02*
G37*
G36*
X184500Y-306212D02*
X183519Y-306341D01*
X182606Y-306719D01*
X181821Y-307321D01*
X181219Y-308106D01*
X180841Y-309019D01*
X180712Y-310000D01*
X180841Y-310981D01*
X181219Y-311894D01*
X181821Y-312679D01*
X182606Y-313281D01*
X183519Y-313659D01*
X184500Y-313788D01*
X185480Y-313659D01*
X186394Y-313281D01*
X187179Y-312679D01*
X187781Y-311894D01*
X188159Y-310981D01*
X188288Y-310000D01*
X188159Y-309019D01*
X187781Y-308106D01*
X187179Y-307321D01*
X186394Y-306719D01*
X185480Y-306341D01*
X184500Y-306212D01*
D02*
G37*
G36*
X319500Y-305668D02*
X318519Y-305798D01*
X317606Y-306176D01*
X316821Y-306778D01*
X316219Y-307562D01*
X315841Y-308476D01*
X315712Y-309457D01*
X315841Y-310437D01*
X316219Y-311351D01*
X316821Y-312135D01*
X317606Y-312737D01*
X318519Y-313116D01*
X319500Y-313245D01*
X320480Y-313116D01*
X321394Y-312737D01*
X322179Y-312135D01*
X322781Y-311351D01*
X323159Y-310437D01*
X323288Y-309457D01*
X323159Y-308476D01*
X322781Y-307562D01*
X322179Y-306778D01*
X321394Y-306176D01*
X320480Y-305798D01*
X319500Y-305668D01*
D02*
G37*
G36*
X346000D02*
X345020Y-305798D01*
X344106Y-306176D01*
X343321Y-306778D01*
X342719Y-307562D01*
X342341Y-308476D01*
X342212Y-309457D01*
X342341Y-310437D01*
X342719Y-311351D01*
X343321Y-312135D01*
X344106Y-312737D01*
X345020Y-313116D01*
X346000Y-313245D01*
X346981Y-313116D01*
X347894Y-312737D01*
X348679Y-312135D01*
X349281Y-311351D01*
X349659Y-310437D01*
X349788Y-309457D01*
X349659Y-308476D01*
X349281Y-307562D01*
X348679Y-306778D01*
X347894Y-306176D01*
X346981Y-305798D01*
X346000Y-305668D01*
D02*
G37*
G36*
X384000Y-305168D02*
X383019Y-305297D01*
X382106Y-305676D01*
X381321Y-306278D01*
X380719Y-307063D01*
X380341Y-307976D01*
X380212Y-308957D01*
X380341Y-309937D01*
X380719Y-310851D01*
X381321Y-311635D01*
X382106Y-312238D01*
X383019Y-312616D01*
X384000Y-312745D01*
X384981Y-312616D01*
X385894Y-312238D01*
X386679Y-311635D01*
X387281Y-310851D01*
X387659Y-309937D01*
X387788Y-308957D01*
X387659Y-307976D01*
X387281Y-307063D01*
X386679Y-306278D01*
X385894Y-305676D01*
X384981Y-305297D01*
X384000Y-305168D01*
D02*
G37*
G36*
X211000Y-306212D02*
X210019Y-306341D01*
X209106Y-306719D01*
X208321Y-307321D01*
X207719Y-308106D01*
X207341Y-309019D01*
X207212Y-310000D01*
X207341Y-310981D01*
X207719Y-311894D01*
X208321Y-312679D01*
X209106Y-313281D01*
X210019Y-313659D01*
X211000Y-313788D01*
X211981Y-313659D01*
X212894Y-313281D01*
X213679Y-312679D01*
X214281Y-311894D01*
X214659Y-310981D01*
X214788Y-310000D01*
X214659Y-309019D01*
X214281Y-308106D01*
X213679Y-307321D01*
X212894Y-306719D01*
X211981Y-306341D01*
X211000Y-306212D01*
D02*
G37*
G36*
X250000Y-306168D02*
X249020Y-306297D01*
X248106Y-306676D01*
X247321Y-307278D01*
X246719Y-308063D01*
X246341Y-308976D01*
X246212Y-309957D01*
X246341Y-310937D01*
X246719Y-311851D01*
X247321Y-312635D01*
X248106Y-313238D01*
X249020Y-313616D01*
X250000Y-313745D01*
X250980Y-313616D01*
X251894Y-313238D01*
X252679Y-312635D01*
X253281Y-311851D01*
X253659Y-310937D01*
X253788Y-309957D01*
X253659Y-308976D01*
X253281Y-308063D01*
X252679Y-307278D01*
X251894Y-306676D01*
X250980Y-306297D01*
X250000Y-306168D01*
D02*
G37*
G36*
X276500D02*
X275519Y-306297D01*
X274606Y-306676D01*
X273821Y-307278D01*
X273219Y-308063D01*
X272841Y-308976D01*
X272712Y-309957D01*
X272841Y-310937D01*
X273219Y-311851D01*
X273821Y-312635D01*
X274606Y-313238D01*
X275519Y-313616D01*
X276500Y-313745D01*
X277481Y-313616D01*
X278394Y-313238D01*
X279179Y-312635D01*
X279781Y-311851D01*
X280159Y-310937D01*
X280288Y-309957D01*
X280159Y-308976D01*
X279781Y-308063D01*
X279179Y-307278D01*
X278394Y-306676D01*
X277481Y-306297D01*
X276500Y-306168D01*
D02*
G37*
G36*
X346000Y-140712D02*
X345020Y-140841D01*
X344106Y-141219D01*
X343321Y-141821D01*
X342719Y-142606D01*
X342341Y-143519D01*
X342212Y-144500D01*
X342341Y-145481D01*
X342719Y-146394D01*
X343321Y-147179D01*
X344106Y-147781D01*
X345020Y-148159D01*
X346000Y-148288D01*
X346981Y-148159D01*
X347894Y-147781D01*
X348679Y-147179D01*
X349281Y-146394D01*
X349659Y-145481D01*
X349788Y-144500D01*
X349659Y-143519D01*
X349281Y-142606D01*
X348679Y-141821D01*
X347894Y-141219D01*
X346981Y-140841D01*
X346000Y-140712D01*
D02*
G37*
G36*
X271000Y-31036D02*
X270586Y-31090D01*
X269735Y-31443D01*
X269004Y-32004D01*
X268443Y-32735D01*
X268090Y-33586D01*
X268036Y-34000D01*
X271000D01*
Y-31036D01*
D02*
G37*
G36*
X272000D02*
Y-34000D01*
X274964D01*
X274910Y-33586D01*
X274557Y-32735D01*
X273996Y-32004D01*
X273265Y-31443D01*
X272414Y-31090D01*
X272000Y-31036D01*
D02*
G37*
G36*
X219752Y-30335D02*
X217087D01*
Y-33000D01*
X219752D01*
Y-30335D01*
D02*
G37*
G36*
X274964Y-35000D02*
X272000D01*
Y-37964D01*
X272414Y-37910D01*
X273265Y-37557D01*
X273996Y-36996D01*
X274557Y-36265D01*
X274910Y-35414D01*
X274964Y-35000D01*
D02*
G37*
G36*
X219752Y-34000D02*
X217087D01*
Y-36665D01*
X219752D01*
Y-34000D01*
D02*
G37*
G36*
X404693Y-7441D02*
X398362D01*
Y-14559D01*
X399178D01*
Y-17925D01*
X398983Y-18006D01*
X398147Y-18647D01*
X397506Y-19483D01*
X397103Y-20456D01*
X396966Y-21500D01*
X397103Y-22544D01*
X397506Y-23517D01*
X398147Y-24353D01*
X398983Y-24994D01*
X399178Y-25075D01*
Y-28941D01*
X397807D01*
Y-32421D01*
X396022Y-34206D01*
X386413D01*
Y-33335D01*
X380083D01*
X380083Y-33335D01*
X379917D01*
Y-33335D01*
X379583Y-33335D01*
X376831D01*
X365472Y-21976D01*
X365534Y-21500D01*
X365397Y-20456D01*
X364994Y-19483D01*
X364353Y-18647D01*
X363517Y-18006D01*
X362544Y-17603D01*
X361500Y-17466D01*
X360456Y-17603D01*
X359483Y-18006D01*
X358647Y-18647D01*
X358006Y-19483D01*
X357603Y-20456D01*
X357466Y-21500D01*
X357603Y-22544D01*
X358006Y-23517D01*
X358647Y-24353D01*
X359483Y-24994D01*
X360456Y-25397D01*
X361500Y-25534D01*
X362421Y-25413D01*
X373587Y-36579D01*
Y-39249D01*
X244256D01*
Y-38319D01*
X244256Y-38181D01*
Y-37819D01*
X244256Y-37681D01*
Y-31095D01*
X236744D01*
Y-32927D01*
X229913D01*
Y-30335D01*
X228529D01*
Y-24000D01*
X228413Y-23415D01*
X228081Y-22919D01*
X227689Y-22526D01*
X227709Y-22209D01*
X228431Y-21269D01*
X228884Y-20175D01*
X229039Y-19000D01*
X228884Y-17825D01*
X228431Y-16731D01*
X227709Y-15791D01*
X226769Y-15069D01*
X225675Y-14616D01*
X224500Y-14461D01*
X223325Y-14616D01*
X222231Y-15069D01*
X221291Y-15791D01*
X220569Y-16731D01*
X220116Y-17825D01*
X219961Y-19000D01*
X220116Y-20175D01*
X220569Y-21269D01*
X221291Y-22209D01*
X222231Y-22931D01*
X223325Y-23384D01*
X224357Y-23520D01*
X225471Y-24633D01*
Y-29981D01*
X225117Y-30335D01*
X223583Y-30335D01*
X223083Y-30335D01*
X220752D01*
Y-33500D01*
Y-36665D01*
X223083D01*
X223417Y-36665D01*
X223917Y-36665D01*
X229913D01*
Y-35986D01*
X236744D01*
Y-37681D01*
X236744Y-37819D01*
Y-38181D01*
X236744Y-38319D01*
Y-44905D01*
X244256D01*
Y-43837D01*
X384093D01*
X407000Y-66744D01*
X406808Y-67206D01*
X406151D01*
X405996Y-67004D01*
X405265Y-66443D01*
X404414Y-66090D01*
X403500Y-65970D01*
X402586Y-66090D01*
X401735Y-66443D01*
X401004Y-67004D01*
X400443Y-67735D01*
X400363Y-67927D01*
X384198D01*
X384101Y-67692D01*
X383540Y-66961D01*
X382808Y-66400D01*
X381957Y-66047D01*
X381043Y-65926D01*
X380130Y-66047D01*
X379278Y-66400D01*
X378547Y-66961D01*
X377986Y-67692D01*
X377633Y-68543D01*
X377513Y-69457D01*
X377633Y-70370D01*
X377986Y-71222D01*
X378547Y-71953D01*
X379278Y-72514D01*
X380130Y-72867D01*
X381043Y-72987D01*
X381957Y-72867D01*
X382808Y-72514D01*
X383540Y-71953D01*
X384101Y-71222D01*
X384198Y-70986D01*
X400327D01*
X400443Y-71265D01*
X401004Y-71996D01*
X401735Y-72557D01*
X401971Y-72655D01*
Y-124000D01*
X402087Y-124585D01*
X402419Y-125081D01*
X421971Y-144633D01*
Y-222867D01*
X412366Y-232471D01*
X404655D01*
X404557Y-232235D01*
X403996Y-231504D01*
X403265Y-230943D01*
X402414Y-230590D01*
X401500Y-230470D01*
X400586Y-230590D01*
X399735Y-230943D01*
X399004Y-231504D01*
X398443Y-232235D01*
X398090Y-233086D01*
X397970Y-234000D01*
X398090Y-234914D01*
X398443Y-235765D01*
X399004Y-236496D01*
X399735Y-237057D01*
X399971Y-237155D01*
Y-244221D01*
X374046D01*
X373496Y-243504D01*
X372765Y-242943D01*
X371914Y-242590D01*
X371000Y-242470D01*
X370086Y-242590D01*
X369235Y-242943D01*
X368504Y-243504D01*
X367943Y-244235D01*
X367590Y-245086D01*
X367470Y-246000D01*
X367590Y-246914D01*
X367943Y-247765D01*
X368504Y-248496D01*
X369235Y-249057D01*
X370086Y-249410D01*
X371000Y-249530D01*
X371914Y-249410D01*
X372765Y-249057D01*
X373496Y-248496D01*
X374057Y-247765D01*
X374258Y-247279D01*
X401250D01*
X401835Y-247163D01*
X402331Y-246831D01*
X402581Y-246581D01*
X402913Y-246085D01*
X403029Y-245500D01*
Y-237155D01*
X403265Y-237057D01*
X403996Y-236496D01*
X404557Y-235765D01*
X404655Y-235529D01*
X413000D01*
X413585Y-235413D01*
X414081Y-235081D01*
X424581Y-224581D01*
X424913Y-224085D01*
X425029Y-223500D01*
Y-144000D01*
X424913Y-143415D01*
X424581Y-142919D01*
X405029Y-123366D01*
Y-72655D01*
X405265Y-72557D01*
X405996Y-71996D01*
X406151Y-71794D01*
X413000D01*
X413878Y-71619D01*
X414622Y-71122D01*
X443622Y-42122D01*
X444119Y-41378D01*
X444294Y-40500D01*
Y-29906D01*
X445756D01*
Y-23181D01*
X445756D01*
Y-22819D01*
X445756D01*
Y-16094D01*
X444294D01*
Y-13543D01*
X444119Y-12665D01*
X443622Y-11921D01*
X440579Y-8878D01*
X439835Y-8381D01*
X438957Y-8206D01*
X404693D01*
Y-7441D01*
D02*
G37*
G36*
X391000Y-17466D02*
X389956Y-17603D01*
X388983Y-18006D01*
X388147Y-18647D01*
X387506Y-19483D01*
X387103Y-20456D01*
X386965Y-21500D01*
X387103Y-22544D01*
X387506Y-23517D01*
X388147Y-24353D01*
X388983Y-24994D01*
X389956Y-25397D01*
X391000Y-25534D01*
X392044Y-25397D01*
X393017Y-24994D01*
X393853Y-24353D01*
X394494Y-23517D01*
X394897Y-22544D01*
X395035Y-21500D01*
X394897Y-20456D01*
X394494Y-19483D01*
X393853Y-18647D01*
X393017Y-18006D01*
X392044Y-17603D01*
X391000Y-17466D01*
D02*
G37*
G36*
X351000Y-22000D02*
X347531D01*
X347603Y-22544D01*
X348006Y-23517D01*
X348647Y-24353D01*
X349483Y-24994D01*
X350456Y-25397D01*
X351000Y-25469D01*
Y-22000D01*
D02*
G37*
G36*
X355469D02*
X352000D01*
Y-25469D01*
X352544Y-25397D01*
X353517Y-24994D01*
X354353Y-24353D01*
X354994Y-23517D01*
X355397Y-22544D01*
X355469Y-22000D01*
D02*
G37*
G36*
X339500Y-24500D02*
X336536D01*
X336590Y-24914D01*
X336943Y-25765D01*
X337504Y-26496D01*
X338235Y-27057D01*
X339086Y-27410D01*
X339500Y-27464D01*
Y-24500D01*
D02*
G37*
G36*
X343464D02*
X340500D01*
Y-27464D01*
X340914Y-27410D01*
X341765Y-27057D01*
X342496Y-26496D01*
X343057Y-25765D01*
X343410Y-24914D01*
X343464Y-24500D01*
D02*
G37*
G36*
X371500Y-17466D02*
X370456Y-17603D01*
X369483Y-18006D01*
X368647Y-18647D01*
X368006Y-19483D01*
X367603Y-20456D01*
X367465Y-21500D01*
X367603Y-22544D01*
X368006Y-23517D01*
X368647Y-24353D01*
X369483Y-24994D01*
X370456Y-25397D01*
X371500Y-25534D01*
X372544Y-25397D01*
X373517Y-24994D01*
X374353Y-24353D01*
X374994Y-23517D01*
X375397Y-22544D01*
X375535Y-21500D01*
X375397Y-20456D01*
X374994Y-19483D01*
X374353Y-18647D01*
X373517Y-18006D01*
X372544Y-17603D01*
X371500Y-17466D01*
D02*
G37*
G36*
X271000Y-35000D02*
X268036D01*
X268090Y-35414D01*
X268443Y-36265D01*
X269004Y-36996D01*
X269735Y-37557D01*
X270586Y-37910D01*
X271000Y-37964D01*
Y-35000D01*
D02*
G37*
G36*
X148000Y-8513D02*
X146968Y-8649D01*
X146007Y-9047D01*
X145181Y-9681D01*
X144547Y-10507D01*
X144149Y-11468D01*
X144013Y-12500D01*
X144149Y-13532D01*
X144547Y-14493D01*
X145181Y-15319D01*
X146007Y-15953D01*
X146968Y-16351D01*
X148000Y-16487D01*
X149032Y-16351D01*
X149496Y-16159D01*
X199424Y-66087D01*
X199191Y-66561D01*
X198500Y-66470D01*
X197586Y-66590D01*
X196735Y-66943D01*
X196004Y-67504D01*
X195443Y-68235D01*
X195345Y-68471D01*
X182568D01*
X182471Y-68235D01*
X181910Y-67504D01*
X181178Y-66943D01*
X180327Y-66590D01*
X179413Y-66470D01*
X178500Y-66590D01*
X177648Y-66943D01*
X176917Y-67504D01*
X176529Y-68009D01*
X176029Y-67839D01*
Y-49000D01*
X175913Y-48415D01*
X175581Y-47919D01*
X141659Y-13996D01*
X141851Y-13532D01*
X141987Y-12500D01*
X141851Y-11468D01*
X141453Y-10507D01*
X140819Y-9681D01*
X139993Y-9047D01*
X139032Y-8649D01*
X138000Y-8513D01*
X136968Y-8649D01*
X136007Y-9047D01*
X135181Y-9681D01*
X134547Y-10507D01*
X134149Y-11468D01*
X134013Y-12500D01*
X134149Y-13532D01*
X134547Y-14493D01*
X135181Y-15319D01*
X136007Y-15953D01*
X136968Y-16351D01*
X138000Y-16487D01*
X139032Y-16351D01*
X139496Y-16159D01*
X172971Y-49633D01*
Y-218500D01*
X173087Y-219085D01*
X173419Y-219581D01*
X180471Y-226634D01*
Y-231345D01*
X180235Y-231443D01*
X179504Y-232004D01*
X178943Y-232735D01*
X178590Y-233586D01*
X178470Y-234500D01*
X178590Y-235414D01*
X178943Y-236265D01*
X179504Y-236996D01*
X180235Y-237557D01*
X181086Y-237910D01*
X182000Y-238030D01*
X182914Y-237910D01*
X183765Y-237557D01*
X184496Y-236996D01*
X185057Y-236265D01*
X185410Y-235414D01*
X185530Y-234500D01*
X185410Y-233586D01*
X185057Y-232735D01*
X184496Y-232004D01*
X183765Y-231443D01*
X183529Y-231345D01*
Y-226000D01*
X183413Y-225415D01*
X183081Y-224919D01*
X176029Y-217866D01*
Y-72161D01*
X176529Y-71991D01*
X176917Y-72496D01*
X177648Y-73057D01*
X178500Y-73410D01*
X179413Y-73530D01*
X180327Y-73410D01*
X181178Y-73057D01*
X181910Y-72496D01*
X182471Y-71765D01*
X182568Y-71529D01*
X195345D01*
X195443Y-71765D01*
X196004Y-72496D01*
X196735Y-73057D01*
X197586Y-73410D01*
X198500Y-73530D01*
X199414Y-73410D01*
X200265Y-73057D01*
X200996Y-72496D01*
X201557Y-71765D01*
X201910Y-70914D01*
X202030Y-70000D01*
X201939Y-69309D01*
X202413Y-69076D01*
X220348Y-87011D01*
X220156Y-87472D01*
X219063D01*
Y-97347D01*
X222471D01*
Y-125901D01*
X222587Y-126487D01*
X222919Y-126983D01*
X223415Y-127314D01*
X224000Y-127431D01*
X228768D01*
X232471Y-131133D01*
Y-248776D01*
X228274Y-252972D01*
X220563D01*
Y-260684D01*
X206776Y-274471D01*
X177634D01*
X160991Y-257828D01*
X160495Y-257497D01*
X160437Y-257485D01*
Y-253972D01*
X150563D01*
Y-261684D01*
X139776Y-272471D01*
X113134D01*
X97991Y-257328D01*
X97495Y-256996D01*
X96909Y-256880D01*
X95437D01*
Y-255635D01*
X101581Y-249491D01*
X101913Y-248995D01*
X102029Y-248409D01*
Y-102910D01*
X101913Y-102324D01*
X101581Y-101828D01*
X94937Y-95184D01*
Y-87472D01*
X86092D01*
Y-72836D01*
X86765Y-72557D01*
X87496Y-71996D01*
X88057Y-71265D01*
X88155Y-71029D01*
X148845D01*
X148943Y-71265D01*
X149504Y-71996D01*
X150235Y-72557D01*
X151086Y-72910D01*
X152000Y-73030D01*
X152914Y-72910D01*
X153765Y-72557D01*
X154496Y-71996D01*
X155057Y-71265D01*
X155410Y-70414D01*
X155530Y-69500D01*
X155410Y-68586D01*
X155057Y-67735D01*
X154496Y-67004D01*
X153765Y-66443D01*
X152914Y-66090D01*
X152000Y-65970D01*
X151086Y-66090D01*
X150235Y-66443D01*
X149504Y-67004D01*
X148943Y-67735D01*
X148845Y-67971D01*
X88155D01*
X88057Y-67735D01*
X87496Y-67004D01*
X86765Y-66443D01*
X85914Y-66090D01*
X85000Y-65970D01*
X84086Y-66090D01*
X83235Y-66443D01*
X82504Y-67004D01*
X81943Y-67735D01*
X81590Y-68586D01*
X81470Y-69500D01*
X81590Y-70414D01*
X81943Y-71265D01*
X82504Y-71996D01*
X83034Y-72403D01*
Y-127804D01*
X82919Y-127919D01*
X82587Y-128415D01*
X82471Y-129000D01*
Y-229000D01*
X82587Y-229585D01*
X82919Y-230081D01*
X84738Y-231901D01*
X84736Y-232166D01*
X84656Y-232503D01*
X84004Y-233004D01*
X83443Y-233735D01*
X83090Y-234586D01*
X82970Y-235500D01*
X83090Y-236414D01*
X83443Y-237265D01*
X84004Y-237996D01*
X84735Y-238557D01*
X85586Y-238910D01*
X86500Y-239030D01*
X87414Y-238910D01*
X88265Y-238557D01*
X88996Y-237996D01*
X89557Y-237265D01*
X89910Y-236414D01*
X90030Y-235500D01*
X89910Y-234586D01*
X89557Y-233735D01*
X88996Y-233004D01*
X88265Y-232443D01*
X88029Y-232345D01*
Y-231500D01*
X87913Y-230915D01*
X87581Y-230419D01*
X85529Y-228366D01*
Y-136696D01*
X86029Y-136526D01*
X86479Y-137112D01*
X87510Y-137903D01*
X88711Y-138400D01*
X90000Y-138570D01*
X91289Y-138400D01*
X92490Y-137903D01*
X93521Y-137112D01*
X94313Y-136080D01*
X94810Y-134879D01*
X94980Y-133591D01*
X94810Y-132302D01*
X94313Y-131101D01*
X93521Y-130069D01*
X92490Y-129278D01*
X91289Y-128781D01*
X90000Y-128611D01*
X88711Y-128781D01*
X87510Y-129278D01*
X86479Y-130069D01*
X86029Y-130655D01*
X85529Y-130485D01*
Y-129633D01*
X85644Y-129518D01*
X85976Y-129022D01*
X86092Y-128437D01*
Y-97347D01*
X92774D01*
X98971Y-103543D01*
Y-247776D01*
X93274Y-253472D01*
X85563D01*
Y-263347D01*
X95437D01*
Y-259939D01*
X96276D01*
X111419Y-275081D01*
X111915Y-275413D01*
X112500Y-275529D01*
X140409D01*
X140995Y-275413D01*
X141491Y-275081D01*
X152726Y-263846D01*
X160437D01*
Y-262253D01*
X160899Y-262062D01*
X175919Y-277081D01*
X176415Y-277413D01*
X177000Y-277529D01*
X207409D01*
X207995Y-277413D01*
X208491Y-277081D01*
X222726Y-262846D01*
X228274D01*
X242009Y-276581D01*
X242505Y-276913D01*
X243091Y-277029D01*
X283500D01*
X284085Y-276913D01*
X284581Y-276581D01*
X292081Y-269081D01*
X292413Y-268585D01*
X292529Y-268000D01*
Y-262803D01*
X293774D01*
X307552Y-276581D01*
X308049Y-276913D01*
X308634Y-277029D01*
X345500D01*
X346085Y-276913D01*
X346581Y-276581D01*
X360860Y-262303D01*
X363274D01*
X378052Y-277081D01*
X378549Y-277413D01*
X379134Y-277529D01*
X413000D01*
X413585Y-277413D01*
X414081Y-277081D01*
X419081Y-272081D01*
X419413Y-271585D01*
X419529Y-271000D01*
Y-264500D01*
X422226Y-261803D01*
X429937D01*
Y-251929D01*
X420063D01*
Y-259640D01*
X416919Y-262785D01*
X416587Y-263281D01*
X416471Y-263866D01*
Y-270367D01*
X412366Y-274471D01*
X379767D01*
X365437Y-260140D01*
Y-252429D01*
X362029D01*
Y-210134D01*
X368672Y-203491D01*
X369004Y-202995D01*
X369120Y-202410D01*
Y-99500D01*
X369004Y-98915D01*
X368672Y-98419D01*
X365437Y-95184D01*
Y-87472D01*
X355563D01*
Y-97347D01*
X363274D01*
X366061Y-100134D01*
Y-201776D01*
X359419Y-208419D01*
X359087Y-208915D01*
X358971Y-209500D01*
Y-252429D01*
X355563D01*
Y-262303D01*
X355881D01*
X356072Y-262765D01*
X344866Y-273971D01*
X309267D01*
X295937Y-260640D01*
Y-255092D01*
X304581Y-246448D01*
X304913Y-245951D01*
X305029Y-245366D01*
Y-104410D01*
X304913Y-103824D01*
X304581Y-103328D01*
X296437Y-95184D01*
Y-87472D01*
X287529D01*
Y-77500D01*
X287413Y-76915D01*
X287081Y-76419D01*
X278581Y-67919D01*
X278085Y-67587D01*
X277500Y-67471D01*
X272155D01*
X272057Y-67235D01*
X271496Y-66504D01*
X270765Y-65943D01*
X269914Y-65590D01*
X269000Y-65470D01*
X268086Y-65590D01*
X267235Y-65943D01*
X266504Y-66504D01*
X265943Y-67235D01*
X265845Y-67471D01*
X248931D01*
X248539Y-66961D01*
X247808Y-66400D01*
X246957Y-66047D01*
X246043Y-65926D01*
X245130Y-66047D01*
X244278Y-66400D01*
X243547Y-66961D01*
X242986Y-67692D01*
X242633Y-68543D01*
X242513Y-69457D01*
X242633Y-70370D01*
X242986Y-71222D01*
X243547Y-71953D01*
X244278Y-72514D01*
X245130Y-72867D01*
X246043Y-72987D01*
X246957Y-72867D01*
X247808Y-72514D01*
X248539Y-71953D01*
X249101Y-71222D01*
X249387Y-70529D01*
X265845D01*
X265943Y-70765D01*
X266504Y-71496D01*
X267235Y-72057D01*
X268086Y-72410D01*
X269000Y-72530D01*
X269914Y-72410D01*
X270765Y-72057D01*
X271496Y-71496D01*
X272057Y-70765D01*
X272155Y-70529D01*
X276867D01*
X284471Y-78133D01*
Y-216866D01*
X283867Y-217471D01*
X282655D01*
X282557Y-217235D01*
X281996Y-216504D01*
X281265Y-215943D01*
X280414Y-215590D01*
X279500Y-215470D01*
X278586Y-215590D01*
X278351Y-215688D01*
X254581Y-191919D01*
X254085Y-191587D01*
X253500Y-191471D01*
X245655D01*
X245557Y-191235D01*
X244996Y-190504D01*
X244265Y-189943D01*
X243414Y-189590D01*
X242500Y-189470D01*
X241586Y-189590D01*
X240735Y-189943D01*
X240029Y-190484D01*
X239858Y-190456D01*
X239529Y-190344D01*
Y-96414D01*
X239413Y-95829D01*
X239081Y-95333D01*
X229640Y-85891D01*
X229144Y-85559D01*
X228558Y-85443D01*
X223106D01*
X151659Y-13996D01*
X151851Y-13532D01*
X151987Y-12500D01*
X151851Y-11468D01*
X151453Y-10507D01*
X150819Y-9681D01*
X149993Y-9047D01*
X149032Y-8649D01*
X148000Y-8513D01*
D02*
G37*
G36*
X432500Y-61000D02*
X429536D01*
X429590Y-61414D01*
X429943Y-62265D01*
X430504Y-62996D01*
X431235Y-63557D01*
X432086Y-63910D01*
X432500Y-63964D01*
Y-61000D01*
D02*
G37*
G36*
X436464D02*
X433500D01*
Y-63964D01*
X433914Y-63910D01*
X434765Y-63557D01*
X435496Y-62996D01*
X436057Y-62265D01*
X436410Y-61414D01*
X436464Y-61000D01*
D02*
G37*
G36*
X126000Y-87537D02*
X125225Y-87639D01*
X124503Y-87938D01*
X123883Y-88414D01*
X123750Y-88587D01*
X123250D01*
X123117Y-88414D01*
X122497Y-87938D01*
X121775Y-87639D01*
X121000Y-87537D01*
X120225Y-87639D01*
X119503Y-87938D01*
X118883Y-88414D01*
X118750Y-88587D01*
X118250D01*
X118117Y-88414D01*
X117497Y-87938D01*
X116775Y-87639D01*
X116500Y-87603D01*
Y-92500D01*
Y-97397D01*
X116775Y-97361D01*
X117497Y-97062D01*
X118117Y-96586D01*
X118250Y-96412D01*
X118750D01*
X118883Y-96586D01*
X119503Y-97062D01*
X120225Y-97361D01*
X121000Y-97463D01*
X121775Y-97361D01*
X122497Y-97062D01*
X123117Y-96586D01*
X123250Y-96412D01*
X123750D01*
X123883Y-96586D01*
X124503Y-97062D01*
X125225Y-97361D01*
X126000Y-97463D01*
X126775Y-97361D01*
X127497Y-97062D01*
X128117Y-96586D01*
X128593Y-95966D01*
X128892Y-95243D01*
X128994Y-94468D01*
Y-90531D01*
X128892Y-89757D01*
X128593Y-89034D01*
X128117Y-88414D01*
X127497Y-87938D01*
X126775Y-87639D01*
X126000Y-87537D01*
D02*
G37*
G36*
X395500Y-87037D02*
X394725Y-87139D01*
X394003Y-87438D01*
X393383Y-87914D01*
X393250Y-88087D01*
X392750D01*
X392617Y-87914D01*
X391997Y-87438D01*
X391275Y-87139D01*
X390500Y-87037D01*
X389725Y-87139D01*
X389003Y-87438D01*
X388383Y-87914D01*
X388250Y-88087D01*
X387750D01*
X387617Y-87914D01*
X386997Y-87438D01*
X386275Y-87139D01*
X386000Y-87103D01*
Y-92000D01*
Y-96897D01*
X386275Y-96861D01*
X386997Y-96561D01*
X387617Y-96086D01*
X387750Y-95912D01*
X388250D01*
X388383Y-96086D01*
X389003Y-96561D01*
X389725Y-96861D01*
X390500Y-96963D01*
X391275Y-96861D01*
X391997Y-96561D01*
X392617Y-96086D01*
X392750Y-95912D01*
X393250D01*
X393383Y-96086D01*
X394003Y-96561D01*
X394725Y-96861D01*
X395500Y-96963D01*
X396275Y-96861D01*
X396997Y-96561D01*
X397617Y-96086D01*
X398093Y-95466D01*
X398392Y-94743D01*
X398494Y-93968D01*
Y-90031D01*
X398392Y-89257D01*
X398093Y-88534D01*
X397617Y-87914D01*
X396997Y-87438D01*
X396275Y-87139D01*
X395500Y-87037D01*
D02*
G37*
G36*
X317957Y-65926D02*
X317043Y-66047D01*
X316192Y-66400D01*
X315460Y-66961D01*
X314899Y-67692D01*
X314547Y-68543D01*
X314426Y-69457D01*
X314547Y-70370D01*
X314899Y-71222D01*
X315460Y-71953D01*
X316192Y-72514D01*
X317043Y-72867D01*
X317957Y-72987D01*
X318870Y-72867D01*
X319722Y-72514D01*
X320453Y-71953D01*
X321014Y-71222D01*
X321094Y-71029D01*
X336345D01*
X336443Y-71265D01*
X337004Y-71996D01*
X337735Y-72557D01*
X338586Y-72910D01*
X339500Y-73030D01*
X340414Y-72910D01*
X341265Y-72557D01*
X341996Y-71996D01*
X342557Y-71265D01*
X342910Y-70414D01*
X343030Y-69500D01*
X342910Y-68586D01*
X342557Y-67735D01*
X341996Y-67004D01*
X341265Y-66443D01*
X340414Y-66090D01*
X339500Y-65970D01*
X338586Y-66090D01*
X337735Y-66443D01*
X337004Y-67004D01*
X336443Y-67735D01*
X336345Y-67971D01*
X321129D01*
X321014Y-67692D01*
X320453Y-66961D01*
X319722Y-66400D01*
X318870Y-66047D01*
X317957Y-65926D01*
D02*
G37*
G36*
X449964Y-48000D02*
X447000D01*
Y-50964D01*
X447414Y-50910D01*
X448265Y-50557D01*
X448996Y-49996D01*
X449557Y-49265D01*
X449910Y-48414D01*
X449964Y-48000D01*
D02*
G37*
G36*
X446000Y-44036D02*
X445586Y-44090D01*
X444735Y-44443D01*
X444004Y-45004D01*
X443443Y-45735D01*
X443090Y-46586D01*
X443036Y-47000D01*
X446000D01*
Y-44036D01*
D02*
G37*
G36*
X447000D02*
Y-47000D01*
X449964D01*
X449910Y-46586D01*
X449557Y-45735D01*
X448996Y-45004D01*
X448265Y-44443D01*
X447414Y-44090D01*
X447000Y-44036D01*
D02*
G37*
G36*
X432500Y-57036D02*
X432086Y-57090D01*
X431235Y-57443D01*
X430504Y-58004D01*
X429943Y-58735D01*
X429590Y-59586D01*
X429536Y-60000D01*
X432500D01*
Y-57036D01*
D02*
G37*
G36*
X433500D02*
Y-60000D01*
X436464D01*
X436410Y-59586D01*
X436057Y-58735D01*
X435496Y-58004D01*
X434765Y-57443D01*
X433914Y-57090D01*
X433500Y-57036D01*
D02*
G37*
G36*
X446000Y-48000D02*
X443036D01*
X443090Y-48414D01*
X443443Y-49265D01*
X444004Y-49996D01*
X444735Y-50557D01*
X445586Y-50910D01*
X446000Y-50964D01*
Y-48000D01*
D02*
G37*
G36*
X391972Y-11500D02*
X389307D01*
Y-14559D01*
X391972D01*
Y-11500D01*
D02*
G37*
G36*
X395638D02*
X392972D01*
Y-14559D01*
X395638D01*
Y-11500D01*
D02*
G37*
G36*
X376583Y-7835D02*
X376083Y-7835D01*
X373752D01*
Y-11000D01*
Y-14165D01*
X376083D01*
X376417Y-14165D01*
X376917Y-14165D01*
X379248D01*
Y-11000D01*
Y-7835D01*
X376917D01*
X376583Y-7835D01*
D02*
G37*
G36*
X108000Y-8513D02*
X106968Y-8649D01*
X106007Y-9047D01*
X105181Y-9681D01*
X104547Y-10507D01*
X104149Y-11468D01*
X104013Y-12500D01*
X104149Y-13532D01*
X104547Y-14493D01*
X105181Y-15319D01*
X106007Y-15953D01*
X106968Y-16351D01*
X108000Y-16487D01*
X109032Y-16351D01*
X109993Y-15953D01*
X110819Y-15319D01*
X111453Y-14493D01*
X111851Y-13532D01*
X111987Y-12500D01*
X111851Y-11468D01*
X111453Y-10507D01*
X110819Y-9681D01*
X109993Y-9047D01*
X109032Y-8649D01*
X108000Y-8513D01*
D02*
G37*
G36*
X118000D02*
X116968Y-8649D01*
X116007Y-9047D01*
X115181Y-9681D01*
X114547Y-10507D01*
X114149Y-11468D01*
X114013Y-12500D01*
X114149Y-13532D01*
X114341Y-13996D01*
X76867Y-51471D01*
X41000D01*
X40415Y-51587D01*
X39919Y-51919D01*
X39587Y-52415D01*
X39471Y-53000D01*
Y-221413D01*
X39587Y-221999D01*
X39919Y-222495D01*
X42860Y-225436D01*
X42590Y-226086D01*
X42470Y-227000D01*
X42590Y-227914D01*
X42943Y-228765D01*
X43504Y-229496D01*
X44235Y-230057D01*
X45086Y-230410D01*
X46000Y-230530D01*
X46914Y-230410D01*
X47765Y-230057D01*
X48496Y-229496D01*
X49057Y-228765D01*
X49410Y-227914D01*
X49530Y-227000D01*
X49410Y-226086D01*
X49057Y-225235D01*
X48496Y-224504D01*
X47765Y-223943D01*
X46914Y-223590D01*
X46000Y-223470D01*
X45310Y-223561D01*
X42529Y-220780D01*
Y-54529D01*
X77500D01*
X78085Y-54413D01*
X78581Y-54081D01*
X116504Y-16159D01*
X116968Y-16351D01*
X118000Y-16487D01*
X119032Y-16351D01*
X119993Y-15953D01*
X120819Y-15319D01*
X121453Y-14493D01*
X121851Y-13532D01*
X121987Y-12500D01*
X121851Y-11468D01*
X121453Y-10507D01*
X120819Y-9681D01*
X119993Y-9047D01*
X119032Y-8649D01*
X118000Y-8513D01*
D02*
G37*
G36*
X61953Y-8547D02*
X54047D01*
Y-16453D01*
X61953D01*
Y-8547D01*
D02*
G37*
G36*
X372752Y-7835D02*
X370087D01*
Y-10500D01*
X372752D01*
Y-7835D01*
D02*
G37*
G36*
X380248D02*
Y-10500D01*
X382913D01*
Y-7835D01*
X380248D01*
D02*
G37*
G36*
X395638Y-7441D02*
X392972D01*
Y-10500D01*
X395638D01*
Y-7441D01*
D02*
G37*
G36*
X372752Y-11500D02*
X370087D01*
Y-14165D01*
X372752D01*
Y-11500D01*
D02*
G37*
G36*
X382913D02*
X380248D01*
Y-14165D01*
X382913D01*
Y-11500D01*
D02*
G37*
G36*
X391972Y-7441D02*
X389307D01*
Y-10500D01*
X391972D01*
Y-7441D01*
D02*
G37*
G36*
X98000Y-8513D02*
X96968Y-8649D01*
X96007Y-9047D01*
X95181Y-9681D01*
X94547Y-10507D01*
X94149Y-11468D01*
X94013Y-12500D01*
X94149Y-13532D01*
X94547Y-14493D01*
X95181Y-15319D01*
X96007Y-15953D01*
X96968Y-16351D01*
X98000Y-16487D01*
X99032Y-16351D01*
X99993Y-15953D01*
X100819Y-15319D01*
X101453Y-14493D01*
X101851Y-13532D01*
X101987Y-12500D01*
X101851Y-11468D01*
X101453Y-10507D01*
X100819Y-9681D01*
X99993Y-9047D01*
X99032Y-8649D01*
X98000Y-8513D01*
D02*
G37*
G36*
X204000Y-19500D02*
X200027D01*
X200116Y-20175D01*
X200569Y-21269D01*
X201291Y-22209D01*
X202231Y-22931D01*
X203325Y-23384D01*
X204000Y-23473D01*
Y-19500D01*
D02*
G37*
G36*
X208973D02*
X205000D01*
Y-23473D01*
X205675Y-23384D01*
X206769Y-22931D01*
X207709Y-22209D01*
X208431Y-21269D01*
X208884Y-20175D01*
X208973Y-19500D01*
D02*
G37*
G36*
X351000Y-17531D02*
X350456Y-17603D01*
X349483Y-18006D01*
X348647Y-18647D01*
X348006Y-19483D01*
X347603Y-20456D01*
X347531Y-21000D01*
X351000D01*
Y-17531D01*
D02*
G37*
G36*
X244500Y-14461D02*
X243325Y-14616D01*
X242231Y-15069D01*
X241291Y-15791D01*
X240569Y-16731D01*
X240116Y-17825D01*
X239961Y-19000D01*
X240116Y-20175D01*
X240569Y-21269D01*
X241291Y-22209D01*
X242231Y-22931D01*
X243325Y-23384D01*
X244500Y-23539D01*
X245675Y-23384D01*
X246769Y-22931D01*
X247709Y-22209D01*
X248431Y-21269D01*
X248884Y-20175D01*
X249039Y-19000D01*
X248884Y-17825D01*
X248431Y-16731D01*
X247709Y-15791D01*
X246769Y-15069D01*
X245675Y-14616D01*
X244500Y-14461D01*
D02*
G37*
G36*
X339500Y-20536D02*
X339086Y-20590D01*
X338235Y-20943D01*
X337504Y-21504D01*
X336943Y-22235D01*
X336590Y-23086D01*
X336536Y-23500D01*
X339500D01*
Y-20536D01*
D02*
G37*
G36*
X340500D02*
Y-23500D01*
X343464D01*
X343410Y-23086D01*
X343057Y-22235D01*
X342496Y-21504D01*
X341765Y-20943D01*
X340914Y-20590D01*
X340500Y-20536D01*
D02*
G37*
G36*
X68000Y-8513D02*
X66968Y-8649D01*
X66007Y-9047D01*
X65181Y-9681D01*
X64547Y-10507D01*
X64149Y-11468D01*
X64013Y-12500D01*
X64149Y-13532D01*
X64547Y-14493D01*
X65181Y-15319D01*
X66007Y-15953D01*
X66968Y-16351D01*
X68000Y-16487D01*
X69032Y-16351D01*
X69993Y-15953D01*
X70819Y-15319D01*
X71453Y-14493D01*
X71851Y-13532D01*
X71987Y-12500D01*
X71851Y-11468D01*
X71453Y-10507D01*
X70819Y-9681D01*
X69993Y-9047D01*
X69032Y-8649D01*
X68000Y-8513D01*
D02*
G37*
G36*
X78000D02*
X76968Y-8649D01*
X76007Y-9047D01*
X75181Y-9681D01*
X74547Y-10507D01*
X74149Y-11468D01*
X74013Y-12500D01*
X74149Y-13532D01*
X74547Y-14493D01*
X75181Y-15319D01*
X76007Y-15953D01*
X76968Y-16351D01*
X78000Y-16487D01*
X79032Y-16351D01*
X79993Y-15953D01*
X80819Y-15319D01*
X81453Y-14493D01*
X81851Y-13532D01*
X81987Y-12500D01*
X81851Y-11468D01*
X81453Y-10507D01*
X80819Y-9681D01*
X79993Y-9047D01*
X79032Y-8649D01*
X78000Y-8513D01*
D02*
G37*
G36*
X88000D02*
X86968Y-8649D01*
X86007Y-9047D01*
X85181Y-9681D01*
X84547Y-10507D01*
X84149Y-11468D01*
X84013Y-12500D01*
X84149Y-13532D01*
X84547Y-14493D01*
X85181Y-15319D01*
X86007Y-15953D01*
X86968Y-16351D01*
X88000Y-16487D01*
X89032Y-16351D01*
X89993Y-15953D01*
X90819Y-15319D01*
X91453Y-14493D01*
X91851Y-13532D01*
X91987Y-12500D01*
X91851Y-11468D01*
X91453Y-10507D01*
X90819Y-9681D01*
X89993Y-9047D01*
X89032Y-8649D01*
X88000Y-8513D01*
D02*
G37*
G36*
X352000Y-17531D02*
Y-21000D01*
X355469D01*
X355397Y-20456D01*
X354994Y-19483D01*
X354353Y-18647D01*
X353517Y-18006D01*
X352544Y-17603D01*
X352000Y-17531D01*
D02*
G37*
G36*
X204000Y-14527D02*
X203325Y-14616D01*
X202231Y-15069D01*
X201291Y-15791D01*
X200569Y-16731D01*
X200116Y-17825D01*
X200027Y-18500D01*
X204000D01*
Y-14527D01*
D02*
G37*
G36*
X205000D02*
Y-18500D01*
X208973D01*
X208884Y-17825D01*
X208431Y-16731D01*
X207709Y-15791D01*
X206769Y-15069D01*
X205675Y-14616D01*
X205000Y-14527D01*
D02*
G37*
G36*
X60000Y-125081D02*
X59225Y-125183D01*
X58503Y-125482D01*
X57883Y-125958D01*
X57750Y-126131D01*
X57250D01*
X57117Y-125958D01*
X56497Y-125482D01*
X55775Y-125183D01*
X55000Y-125081D01*
X54225Y-125183D01*
X53503Y-125482D01*
X52883Y-125958D01*
X52750Y-126131D01*
X52250D01*
X52117Y-125958D01*
X51497Y-125482D01*
X50775Y-125183D01*
X50500Y-125146D01*
Y-130043D01*
Y-134940D01*
X50775Y-134904D01*
X51497Y-134605D01*
X52117Y-134129D01*
X52250Y-133956D01*
X52750D01*
X52883Y-134129D01*
X53503Y-134605D01*
X54225Y-134904D01*
X55000Y-135006D01*
X55775Y-134904D01*
X56497Y-134605D01*
X57117Y-134129D01*
X57250Y-133956D01*
X57750D01*
X57883Y-134129D01*
X58503Y-134605D01*
X59225Y-134904D01*
X60000Y-135006D01*
X60775Y-134904D01*
X61497Y-134605D01*
X62117Y-134129D01*
X62593Y-133509D01*
X62892Y-132787D01*
X62994Y-132012D01*
Y-128075D01*
X62892Y-127300D01*
X62593Y-126578D01*
X62117Y-125958D01*
X61497Y-125482D01*
X60775Y-125183D01*
X60000Y-125081D01*
D02*
G37*
G36*
X126000D02*
X125225Y-125183D01*
X124503Y-125482D01*
X123883Y-125958D01*
X123750Y-126131D01*
X123250D01*
X123117Y-125958D01*
X122497Y-125482D01*
X121775Y-125183D01*
X121000Y-125081D01*
X120225Y-125183D01*
X119503Y-125482D01*
X118883Y-125958D01*
X118750Y-126131D01*
X118250D01*
X118117Y-125958D01*
X117497Y-125482D01*
X116775Y-125183D01*
X116500Y-125146D01*
Y-130043D01*
Y-134940D01*
X116775Y-134904D01*
X117497Y-134605D01*
X118117Y-134129D01*
X118250Y-133956D01*
X118750D01*
X118883Y-134129D01*
X119503Y-134605D01*
X120225Y-134904D01*
X121000Y-135006D01*
X121775Y-134904D01*
X122497Y-134605D01*
X123117Y-134129D01*
X123250Y-133956D01*
X123750D01*
X123883Y-134129D01*
X124503Y-134605D01*
X125225Y-134904D01*
X126000Y-135006D01*
X126775Y-134904D01*
X127497Y-134605D01*
X128117Y-134129D01*
X128593Y-133509D01*
X128892Y-132787D01*
X128994Y-132012D01*
Y-128075D01*
X128892Y-127300D01*
X128593Y-126578D01*
X128117Y-125958D01*
X127497Y-125482D01*
X126775Y-125183D01*
X126000Y-125081D01*
D02*
G37*
G36*
X194000D02*
X193225Y-125183D01*
X192503Y-125482D01*
X191883Y-125958D01*
X191750Y-126131D01*
X191250D01*
X191117Y-125958D01*
X190497Y-125482D01*
X189775Y-125183D01*
X189000Y-125081D01*
X188225Y-125183D01*
X187503Y-125482D01*
X186883Y-125958D01*
X186750Y-126131D01*
X186250D01*
X186117Y-125958D01*
X185497Y-125482D01*
X184775Y-125183D01*
X184500Y-125146D01*
Y-130043D01*
Y-134940D01*
X184775Y-134904D01*
X185497Y-134605D01*
X186117Y-134129D01*
X186250Y-133956D01*
X186750D01*
X186883Y-134129D01*
X187503Y-134605D01*
X188225Y-134904D01*
X189000Y-135006D01*
X189775Y-134904D01*
X190497Y-134605D01*
X191117Y-134129D01*
X191250Y-133956D01*
X191750D01*
X191883Y-134129D01*
X192503Y-134605D01*
X193225Y-134904D01*
X194000Y-135006D01*
X194775Y-134904D01*
X195497Y-134605D01*
X196117Y-134129D01*
X196593Y-133509D01*
X196892Y-132787D01*
X196994Y-132012D01*
Y-128075D01*
X196892Y-127300D01*
X196593Y-126578D01*
X196117Y-125958D01*
X195497Y-125482D01*
X194775Y-125183D01*
X194000Y-125081D01*
D02*
G37*
G36*
X330500D02*
X329725Y-125183D01*
X329003Y-125482D01*
X328383Y-125958D01*
X328250Y-126131D01*
X327750D01*
X327617Y-125958D01*
X326997Y-125482D01*
X326275Y-125183D01*
X325500Y-125081D01*
X324725Y-125183D01*
X324003Y-125482D01*
X323383Y-125958D01*
X323250Y-126131D01*
X322750D01*
X322617Y-125958D01*
X321997Y-125482D01*
X321275Y-125183D01*
X321000Y-125146D01*
Y-130043D01*
Y-134940D01*
X321275Y-134904D01*
X321997Y-134605D01*
X322617Y-134129D01*
X322750Y-133956D01*
X323250D01*
X323383Y-134129D01*
X324003Y-134605D01*
X324725Y-134904D01*
X325500Y-135006D01*
X326275Y-134904D01*
X326997Y-134605D01*
X327617Y-134129D01*
X327750Y-133956D01*
X328250D01*
X328383Y-134129D01*
X329003Y-134605D01*
X329725Y-134904D01*
X330500Y-135006D01*
X331275Y-134904D01*
X331997Y-134605D01*
X332617Y-134129D01*
X333093Y-133509D01*
X333392Y-132787D01*
X333494Y-132012D01*
Y-128075D01*
X333392Y-127300D01*
X333093Y-126578D01*
X332617Y-125958D01*
X331997Y-125482D01*
X331275Y-125183D01*
X330500Y-125081D01*
D02*
G37*
G36*
X251000Y-125146D02*
X250725Y-125183D01*
X250003Y-125482D01*
X249383Y-125958D01*
X248907Y-126578D01*
X248608Y-127300D01*
X248506Y-128075D01*
Y-129543D01*
X251000D01*
Y-125146D01*
D02*
G37*
G36*
X320000D02*
X319725Y-125183D01*
X319003Y-125482D01*
X318383Y-125958D01*
X317907Y-126578D01*
X317608Y-127300D01*
X317506Y-128075D01*
Y-129543D01*
X320000D01*
Y-125146D01*
D02*
G37*
G36*
X385000Y-124646D02*
X384725Y-124683D01*
X384003Y-124982D01*
X383383Y-125458D01*
X382907Y-126078D01*
X382608Y-126800D01*
X382506Y-127575D01*
Y-129043D01*
X385000D01*
Y-124646D01*
D02*
G37*
G36*
X320000Y-93000D02*
X317506D01*
Y-94468D01*
X317608Y-95243D01*
X317907Y-95966D01*
X318383Y-96586D01*
X319003Y-97062D01*
X319725Y-97361D01*
X320000Y-97397D01*
Y-93000D01*
D02*
G37*
G36*
X49500Y-93000D02*
X47006D01*
Y-94468D01*
X47108Y-95243D01*
X47407Y-95966D01*
X47883Y-96586D01*
X48503Y-97062D01*
X49225Y-97361D01*
X49500Y-97397D01*
Y-93000D01*
D02*
G37*
G36*
X115500D02*
X113006D01*
Y-94468D01*
X113108Y-95243D01*
X113407Y-95966D01*
X113883Y-96586D01*
X114503Y-97062D01*
X115225Y-97361D01*
X115500Y-97397D01*
Y-93000D01*
D02*
G37*
G36*
X251000Y-93000D02*
X248506D01*
Y-94468D01*
X248608Y-95243D01*
X248907Y-95966D01*
X249383Y-96586D01*
X250003Y-97062D01*
X250725Y-97361D01*
X251000Y-97397D01*
Y-93000D01*
D02*
G37*
G36*
X261500Y-125081D02*
X260725Y-125183D01*
X260003Y-125482D01*
X259383Y-125958D01*
X259250Y-126131D01*
X258750D01*
X258617Y-125958D01*
X257997Y-125482D01*
X257275Y-125183D01*
X256500Y-125081D01*
X255725Y-125183D01*
X255003Y-125482D01*
X254383Y-125958D01*
X254250Y-126131D01*
X253750D01*
X253617Y-125958D01*
X252997Y-125482D01*
X252275Y-125183D01*
X252000Y-125146D01*
Y-130043D01*
Y-134940D01*
X252275Y-134904D01*
X252997Y-134605D01*
X253617Y-134129D01*
X253750Y-133956D01*
X254250D01*
X254383Y-134129D01*
X255003Y-134605D01*
X255725Y-134904D01*
X256500Y-135006D01*
X257275Y-134904D01*
X257997Y-134605D01*
X258617Y-134129D01*
X258750Y-133956D01*
X259250D01*
X259383Y-134129D01*
X260003Y-134605D01*
X260725Y-134904D01*
X261500Y-135006D01*
X262275Y-134904D01*
X262997Y-134605D01*
X263617Y-134129D01*
X264093Y-133509D01*
X264392Y-132787D01*
X264494Y-132012D01*
Y-128075D01*
X264392Y-127300D01*
X264093Y-126578D01*
X263617Y-125958D01*
X262997Y-125482D01*
X262275Y-125183D01*
X261500Y-125081D01*
D02*
G37*
G36*
X395500Y-124581D02*
X394725Y-124683D01*
X394003Y-124982D01*
X393383Y-125458D01*
X393250Y-125631D01*
X392750D01*
X392617Y-125458D01*
X391997Y-124982D01*
X391275Y-124683D01*
X390500Y-124581D01*
X389725Y-124683D01*
X389003Y-124982D01*
X388383Y-125458D01*
X388250Y-125631D01*
X387750D01*
X387617Y-125458D01*
X386997Y-124982D01*
X386275Y-124683D01*
X386000Y-124646D01*
Y-129543D01*
Y-134440D01*
X386275Y-134404D01*
X386997Y-134105D01*
X387617Y-133629D01*
X387750Y-133456D01*
X388250D01*
X388383Y-133629D01*
X389003Y-134105D01*
X389725Y-134404D01*
X390500Y-134506D01*
X391275Y-134404D01*
X391997Y-134105D01*
X392617Y-133629D01*
X392750Y-133456D01*
X393250D01*
X393383Y-133629D01*
X394003Y-134105D01*
X394725Y-134404D01*
X395500Y-134506D01*
X396275Y-134404D01*
X396997Y-134105D01*
X397617Y-133629D01*
X398093Y-133009D01*
X398392Y-132287D01*
X398494Y-131512D01*
Y-127575D01*
X398392Y-126800D01*
X398093Y-126078D01*
X397617Y-125458D01*
X396997Y-124982D01*
X396275Y-124683D01*
X395500Y-124581D01*
D02*
G37*
G36*
X183500Y-93000D02*
X181006D01*
Y-94468D01*
X181108Y-95243D01*
X181407Y-95966D01*
X181883Y-96586D01*
X182503Y-97062D01*
X183225Y-97361D01*
X183500Y-97397D01*
Y-93000D01*
D02*
G37*
G36*
X183500Y-125146D02*
X183225Y-125183D01*
X182503Y-125482D01*
X181883Y-125958D01*
X181407Y-126578D01*
X181108Y-127300D01*
X181006Y-128075D01*
Y-129543D01*
X183500D01*
Y-125146D01*
D02*
G37*
G36*
X360500Y-128611D02*
X359211Y-128781D01*
X358010Y-129278D01*
X356979Y-130069D01*
X356188Y-131101D01*
X355690Y-132302D01*
X355520Y-133591D01*
X355690Y-134879D01*
X356188Y-136080D01*
X356979Y-137112D01*
X358010Y-137903D01*
X359211Y-138400D01*
X360500Y-138570D01*
X361789Y-138400D01*
X362990Y-137903D01*
X364021Y-137112D01*
X364812Y-136080D01*
X365310Y-134879D01*
X365480Y-133591D01*
X365310Y-132302D01*
X364812Y-131101D01*
X364021Y-130069D01*
X362990Y-129278D01*
X361789Y-128781D01*
X360500Y-128611D01*
D02*
G37*
G36*
X425500Y-128111D02*
X424211Y-128281D01*
X423010Y-128778D01*
X421979Y-129569D01*
X421187Y-130601D01*
X420690Y-131802D01*
X420520Y-133091D01*
X420690Y-134379D01*
X421187Y-135580D01*
X421979Y-136612D01*
X423010Y-137403D01*
X424211Y-137900D01*
X425500Y-138070D01*
X426789Y-137900D01*
X427990Y-137403D01*
X429021Y-136612D01*
X429812Y-135580D01*
X430310Y-134379D01*
X430480Y-133091D01*
X430310Y-131802D01*
X429812Y-130601D01*
X429021Y-129569D01*
X427990Y-128778D01*
X426789Y-128281D01*
X425500Y-128111D01*
D02*
G37*
G36*
X49500Y-130543D02*
X47006D01*
Y-132012D01*
X47108Y-132787D01*
X47407Y-133509D01*
X47883Y-134129D01*
X48503Y-134605D01*
X49225Y-134904D01*
X49500Y-134940D01*
Y-130543D01*
D02*
G37*
G36*
X224000Y-128611D02*
X222711Y-128781D01*
X221510Y-129278D01*
X220479Y-130069D01*
X219688Y-131101D01*
X219190Y-132302D01*
X219020Y-133591D01*
X219190Y-134879D01*
X219688Y-136080D01*
X220479Y-137112D01*
X221510Y-137903D01*
X222711Y-138400D01*
X224000Y-138570D01*
X225289Y-138400D01*
X226490Y-137903D01*
X227521Y-137112D01*
X228312Y-136080D01*
X228810Y-134879D01*
X228980Y-133591D01*
X228810Y-132302D01*
X228312Y-131101D01*
X227521Y-130069D01*
X226490Y-129278D01*
X225289Y-128781D01*
X224000Y-128611D01*
D02*
G37*
G36*
X384500Y-140212D02*
X383520Y-140341D01*
X382606Y-140719D01*
X381821Y-141321D01*
X381219Y-142106D01*
X380841Y-143019D01*
X380712Y-144000D01*
X380841Y-144981D01*
X381219Y-145894D01*
X381821Y-146679D01*
X382606Y-147281D01*
X383520Y-147659D01*
X384500Y-147788D01*
X385480Y-147659D01*
X386394Y-147281D01*
X387179Y-146679D01*
X387781Y-145894D01*
X388159Y-144981D01*
X388288Y-144000D01*
X388159Y-143019D01*
X387781Y-142106D01*
X387179Y-141321D01*
X386394Y-140719D01*
X385480Y-140341D01*
X384500Y-140212D01*
D02*
G37*
G36*
X411000D02*
X410019Y-140341D01*
X409106Y-140719D01*
X408321Y-141321D01*
X407719Y-142106D01*
X407341Y-143019D01*
X407212Y-144000D01*
X407341Y-144981D01*
X407719Y-145894D01*
X408321Y-146679D01*
X409106Y-147281D01*
X410019Y-147659D01*
X411000Y-147788D01*
X411980Y-147659D01*
X412894Y-147281D01*
X413679Y-146679D01*
X414281Y-145894D01*
X414659Y-144981D01*
X414788Y-144000D01*
X414659Y-143019D01*
X414281Y-142106D01*
X413679Y-141321D01*
X412894Y-140719D01*
X411980Y-140341D01*
X411000Y-140212D01*
D02*
G37*
G36*
X156000Y-128611D02*
X154711Y-128781D01*
X153510Y-129278D01*
X152479Y-130069D01*
X151688Y-131101D01*
X151190Y-132302D01*
X151020Y-133591D01*
X151190Y-134879D01*
X151688Y-136080D01*
X152479Y-137112D01*
X153510Y-137903D01*
X154711Y-138400D01*
X156000Y-138570D01*
X157289Y-138400D01*
X158490Y-137903D01*
X159521Y-137112D01*
X160312Y-136080D01*
X160810Y-134879D01*
X160980Y-133591D01*
X160810Y-132302D01*
X160312Y-131101D01*
X159521Y-130069D01*
X158490Y-129278D01*
X157289Y-128781D01*
X156000Y-128611D01*
D02*
G37*
G36*
X385000Y-130043D02*
X382506D01*
Y-131512D01*
X382608Y-132287D01*
X382907Y-133009D01*
X383383Y-133629D01*
X384003Y-134105D01*
X384725Y-134404D01*
X385000Y-134440D01*
Y-130043D01*
D02*
G37*
G36*
X49500Y-125146D02*
X49225Y-125183D01*
X48503Y-125482D01*
X47883Y-125958D01*
X47407Y-126578D01*
X47108Y-127300D01*
X47006Y-128075D01*
Y-129543D01*
X49500D01*
Y-125146D01*
D02*
G37*
G36*
X115500D02*
X115225Y-125183D01*
X114503Y-125482D01*
X113883Y-125958D01*
X113407Y-126578D01*
X113108Y-127300D01*
X113006Y-128075D01*
Y-129543D01*
X115500D01*
Y-125146D01*
D02*
G37*
G36*
X320000Y-130543D02*
X317506D01*
Y-132012D01*
X317608Y-132787D01*
X317907Y-133509D01*
X318383Y-134129D01*
X319003Y-134605D01*
X319725Y-134904D01*
X320000Y-134940D01*
Y-130543D01*
D02*
G37*
G36*
X115500D02*
X113006D01*
Y-132012D01*
X113108Y-132787D01*
X113407Y-133509D01*
X113883Y-134129D01*
X114503Y-134605D01*
X115225Y-134904D01*
X115500Y-134940D01*
Y-130543D01*
D02*
G37*
G36*
X183500D02*
X181006D01*
Y-132012D01*
X181108Y-132787D01*
X181407Y-133509D01*
X181883Y-134129D01*
X182503Y-134605D01*
X183225Y-134904D01*
X183500Y-134940D01*
Y-130543D01*
D02*
G37*
G36*
X251000D02*
X248506D01*
Y-132012D01*
X248608Y-132787D01*
X248907Y-133509D01*
X249383Y-134129D01*
X250003Y-134605D01*
X250725Y-134904D01*
X251000Y-134940D01*
Y-130543D01*
D02*
G37*
G36*
X385000Y-92500D02*
X382506D01*
Y-93968D01*
X382608Y-94743D01*
X382907Y-95466D01*
X383383Y-96086D01*
X384003Y-96561D01*
X384725Y-96861D01*
X385000Y-96897D01*
Y-92500D01*
D02*
G37*
G36*
X183500Y-87603D02*
X183225Y-87639D01*
X182503Y-87938D01*
X181883Y-88414D01*
X181407Y-89034D01*
X181108Y-89757D01*
X181006Y-90531D01*
Y-92000D01*
X183500D01*
Y-87603D01*
D02*
G37*
G36*
X115500Y-87603D02*
X115225Y-87639D01*
X114503Y-87938D01*
X113883Y-88414D01*
X113407Y-89034D01*
X113108Y-89757D01*
X113006Y-90531D01*
Y-92000D01*
X115500D01*
Y-87603D01*
D02*
G37*
G36*
X60000Y-87537D02*
X59225Y-87639D01*
X58503Y-87938D01*
X57883Y-88414D01*
X57750Y-88587D01*
X57250D01*
X57117Y-88414D01*
X56497Y-87938D01*
X55775Y-87639D01*
X55000Y-87537D01*
X54225Y-87639D01*
X53503Y-87938D01*
X52883Y-88414D01*
X52750Y-88587D01*
X52250D01*
X52117Y-88414D01*
X51497Y-87938D01*
X50775Y-87639D01*
X50500Y-87603D01*
Y-92500D01*
Y-97397D01*
X50775Y-97361D01*
X51497Y-97062D01*
X52117Y-96586D01*
X52250Y-96412D01*
X52750D01*
X52883Y-96586D01*
X53503Y-97062D01*
X54225Y-97361D01*
X55000Y-97463D01*
X55775Y-97361D01*
X56497Y-97062D01*
X57117Y-96586D01*
X57250Y-96412D01*
X57750D01*
X57883Y-96586D01*
X58503Y-97062D01*
X59225Y-97361D01*
X60000Y-97463D01*
X60775Y-97361D01*
X61497Y-97062D01*
X62117Y-96586D01*
X62593Y-95966D01*
X62892Y-95243D01*
X62994Y-94468D01*
Y-90531D01*
X62892Y-89757D01*
X62593Y-89034D01*
X62117Y-88414D01*
X61497Y-87938D01*
X60775Y-87639D01*
X60000Y-87537D01*
D02*
G37*
G36*
X251000Y-87603D02*
X250725Y-87639D01*
X250003Y-87938D01*
X249383Y-88414D01*
X248907Y-89034D01*
X248608Y-89757D01*
X248506Y-90531D01*
Y-92000D01*
X251000D01*
Y-87603D01*
D02*
G37*
G36*
X320000D02*
X319725Y-87639D01*
X319003Y-87938D01*
X318383Y-88414D01*
X317907Y-89034D01*
X317608Y-89757D01*
X317506Y-90531D01*
Y-92000D01*
X320000D01*
Y-87603D01*
D02*
G37*
G36*
X385000Y-87103D02*
X384725Y-87139D01*
X384003Y-87438D01*
X383383Y-87914D01*
X382907Y-88534D01*
X382608Y-89257D01*
X382506Y-90031D01*
Y-91500D01*
X385000D01*
Y-87103D01*
D02*
G37*
G36*
X330500Y-87537D02*
X329725Y-87639D01*
X329003Y-87938D01*
X328383Y-88414D01*
X328250Y-88587D01*
X327750D01*
X327617Y-88414D01*
X326997Y-87938D01*
X326275Y-87639D01*
X325500Y-87537D01*
X324725Y-87639D01*
X324003Y-87938D01*
X323383Y-88414D01*
X323250Y-88587D01*
X322750D01*
X322617Y-88414D01*
X321997Y-87938D01*
X321275Y-87639D01*
X321000Y-87603D01*
Y-92500D01*
Y-97397D01*
X321275Y-97361D01*
X321997Y-97062D01*
X322617Y-96586D01*
X322750Y-96412D01*
X323250D01*
X323383Y-96586D01*
X324003Y-97062D01*
X324725Y-97361D01*
X325500Y-97463D01*
X326275Y-97361D01*
X326997Y-97062D01*
X327617Y-96586D01*
X327750Y-96412D01*
X328250D01*
X328383Y-96586D01*
X329003Y-97062D01*
X329725Y-97361D01*
X330500Y-97463D01*
X331275Y-97361D01*
X331997Y-97062D01*
X332617Y-96586D01*
X333093Y-95966D01*
X333392Y-95243D01*
X333494Y-94468D01*
Y-90531D01*
X333392Y-89757D01*
X333093Y-89034D01*
X332617Y-88414D01*
X331997Y-87938D01*
X331275Y-87639D01*
X330500Y-87537D01*
D02*
G37*
G36*
X430437Y-86972D02*
X420563D01*
Y-96846D01*
X430437D01*
Y-86972D01*
D02*
G37*
G36*
X49500Y-87603D02*
X49225Y-87639D01*
X48503Y-87938D01*
X47883Y-88414D01*
X47407Y-89034D01*
X47108Y-89757D01*
X47006Y-90531D01*
Y-92000D01*
X49500D01*
Y-87603D01*
D02*
G37*
G36*
X261500Y-87537D02*
X260725Y-87639D01*
X260003Y-87938D01*
X259383Y-88414D01*
X259250Y-88587D01*
X258750D01*
X258617Y-88414D01*
X257997Y-87938D01*
X257275Y-87639D01*
X256500Y-87537D01*
X255725Y-87639D01*
X255003Y-87938D01*
X254383Y-88414D01*
X254250Y-88587D01*
X253750D01*
X253617Y-88414D01*
X252997Y-87938D01*
X252275Y-87639D01*
X252000Y-87603D01*
Y-92500D01*
Y-97397D01*
X252275Y-97361D01*
X252997Y-97062D01*
X253617Y-96586D01*
X253750Y-96412D01*
X254250D01*
X254383Y-96586D01*
X255003Y-97062D01*
X255725Y-97361D01*
X256500Y-97463D01*
X257275Y-97361D01*
X257997Y-97062D01*
X258617Y-96586D01*
X258750Y-96412D01*
X259250D01*
X259383Y-96586D01*
X260003Y-97062D01*
X260725Y-97361D01*
X261500Y-97463D01*
X262275Y-97361D01*
X262997Y-97062D01*
X263617Y-96586D01*
X264093Y-95966D01*
X264392Y-95243D01*
X264494Y-94468D01*
Y-90531D01*
X264392Y-89757D01*
X264093Y-89034D01*
X263617Y-88414D01*
X262997Y-87938D01*
X262275Y-87639D01*
X261500Y-87537D01*
D02*
G37*
G36*
X194000D02*
X193225Y-87639D01*
X192503Y-87938D01*
X191883Y-88414D01*
X191750Y-88587D01*
X191250D01*
X191117Y-88414D01*
X190497Y-87938D01*
X189775Y-87639D01*
X189000Y-87537D01*
X188225Y-87639D01*
X187503Y-87938D01*
X186883Y-88414D01*
X186750Y-88587D01*
X186250D01*
X186117Y-88414D01*
X185497Y-87938D01*
X184775Y-87639D01*
X184500Y-87603D01*
Y-92500D01*
Y-97397D01*
X184775Y-97361D01*
X185497Y-97062D01*
X186117Y-96586D01*
X186250Y-96412D01*
X186750D01*
X186883Y-96586D01*
X187503Y-97062D01*
X188225Y-97361D01*
X189000Y-97463D01*
X189775Y-97361D01*
X190497Y-97062D01*
X191117Y-96586D01*
X191250Y-96412D01*
X191750D01*
X191883Y-96586D01*
X192503Y-97062D01*
X193225Y-97361D01*
X194000Y-97463D01*
X194775Y-97361D01*
X195497Y-97062D01*
X196117Y-96586D01*
X196593Y-95966D01*
X196892Y-95243D01*
X196994Y-94468D01*
Y-90531D01*
X196892Y-89757D01*
X196593Y-89034D01*
X196117Y-88414D01*
X195497Y-87938D01*
X194775Y-87639D01*
X194000Y-87537D01*
D02*
G37*
%LPD*%
G36*
X439706Y-14493D02*
Y-16094D01*
X438244D01*
Y-22819D01*
X438244D01*
Y-23181D01*
X438244D01*
Y-29906D01*
X439706D01*
Y-39550D01*
X413000Y-66256D01*
X386764Y-40020D01*
X386413Y-39665D01*
Y-38794D01*
X396972D01*
X397850Y-38620D01*
X398595Y-38122D01*
X400658Y-36059D01*
X404138D01*
Y-28941D01*
X403766D01*
Y-24419D01*
X403853Y-24353D01*
X404494Y-23517D01*
X404897Y-22544D01*
X405034Y-21500D01*
X404897Y-20456D01*
X404494Y-19483D01*
X403853Y-18647D01*
X403766Y-18581D01*
Y-14559D01*
X404693D01*
Y-12794D01*
X438006D01*
X439706Y-14493D01*
D02*
G37*
G36*
X236471Y-97048D02*
Y-224500D01*
X236587Y-225085D01*
X236919Y-225581D01*
X244688Y-233351D01*
X244590Y-233586D01*
X244470Y-234500D01*
X244590Y-235414D01*
X244943Y-236265D01*
X245504Y-236996D01*
X246235Y-237557D01*
X247086Y-237910D01*
X248000Y-238030D01*
X248914Y-237910D01*
X249765Y-237557D01*
X250496Y-236996D01*
X251057Y-236265D01*
X251410Y-235414D01*
X251530Y-234500D01*
X251410Y-233586D01*
X251057Y-232735D01*
X250496Y-232004D01*
X249765Y-231443D01*
X248914Y-231090D01*
X248000Y-230970D01*
X247086Y-231090D01*
X246851Y-231188D01*
X239529Y-223867D01*
Y-195656D01*
X239858Y-195544D01*
X240029Y-195516D01*
X240735Y-196057D01*
X241586Y-196410D01*
X242500Y-196530D01*
X243414Y-196410D01*
X244265Y-196057D01*
X244996Y-195496D01*
X245557Y-194765D01*
X245655Y-194529D01*
X252867D01*
X276188Y-217851D01*
X276090Y-218086D01*
X275970Y-219000D01*
X276090Y-219914D01*
X276443Y-220765D01*
X277004Y-221496D01*
X277735Y-222057D01*
X278586Y-222410D01*
X279500Y-222530D01*
X280414Y-222410D01*
X281265Y-222057D01*
X281996Y-221496D01*
X282557Y-220765D01*
X282655Y-220529D01*
X284500D01*
X285085Y-220413D01*
X285581Y-220081D01*
X287081Y-218581D01*
X287413Y-218085D01*
X287529Y-217500D01*
Y-137264D01*
X287587Y-137245D01*
X288029Y-137150D01*
X289010Y-137903D01*
X290211Y-138400D01*
X291500Y-138570D01*
X292789Y-138400D01*
X293990Y-137903D01*
X295021Y-137112D01*
X295813Y-136080D01*
X296310Y-134879D01*
X296480Y-133591D01*
X296310Y-132302D01*
X295813Y-131101D01*
X295021Y-130069D01*
X293990Y-129278D01*
X292789Y-128781D01*
X291500Y-128611D01*
X290211Y-128781D01*
X289010Y-129278D01*
X288029Y-130031D01*
X287587Y-129936D01*
X287529Y-129917D01*
Y-97347D01*
X294274D01*
X301971Y-105043D01*
Y-244733D01*
X293774Y-252929D01*
X286063D01*
Y-262803D01*
X289471D01*
Y-267367D01*
X282867Y-273971D01*
X243724D01*
X230437Y-260684D01*
Y-255135D01*
X235081Y-250491D01*
X235413Y-249995D01*
X235529Y-249409D01*
Y-130500D01*
X235413Y-129915D01*
X235081Y-129419D01*
X230483Y-124820D01*
X229987Y-124488D01*
X229401Y-124372D01*
X225529D01*
Y-97347D01*
X228937D01*
Y-90167D01*
X229399Y-89976D01*
X236471Y-97048D01*
D02*
G37*
%LPC*%
G36*
X422000Y-47036D02*
X421586Y-47090D01*
X420735Y-47443D01*
X420004Y-48004D01*
X419443Y-48735D01*
X419090Y-49586D01*
X419036Y-50000D01*
X422000D01*
Y-47036D01*
D02*
G37*
G36*
X423000D02*
Y-50000D01*
X425964D01*
X425910Y-49586D01*
X425557Y-48735D01*
X424996Y-48004D01*
X424265Y-47443D01*
X423414Y-47090D01*
X423000Y-47036D01*
D02*
G37*
G36*
X248964Y-267500D02*
X246000D01*
Y-270464D01*
X246414Y-270410D01*
X247265Y-270057D01*
X247996Y-269496D01*
X248557Y-268765D01*
X248910Y-267914D01*
X248964Y-267500D01*
D02*
G37*
G36*
X250500Y-200712D02*
X249519Y-200841D01*
X248606Y-201219D01*
X247821Y-201821D01*
X247219Y-202606D01*
X246841Y-203520D01*
X246712Y-204500D01*
X246841Y-205481D01*
X247219Y-206394D01*
X247821Y-207179D01*
X248606Y-207781D01*
X249519Y-208159D01*
X250500Y-208288D01*
X251481Y-208159D01*
X252394Y-207781D01*
X253179Y-207179D01*
X253781Y-206394D01*
X254159Y-205481D01*
X254288Y-204500D01*
X254159Y-203520D01*
X253781Y-202606D01*
X253179Y-201821D01*
X252394Y-201219D01*
X251481Y-200841D01*
X250500Y-200712D01*
D02*
G37*
G36*
X245000Y-263536D02*
X244586Y-263590D01*
X243735Y-263943D01*
X243004Y-264504D01*
X242443Y-265235D01*
X242090Y-266086D01*
X242036Y-266500D01*
X245000D01*
Y-263536D01*
D02*
G37*
G36*
X425964Y-51000D02*
X423000D01*
Y-53964D01*
X423414Y-53910D01*
X424265Y-53557D01*
X424996Y-52996D01*
X425557Y-52265D01*
X425910Y-51414D01*
X425964Y-51000D01*
D02*
G37*
G36*
X422000D02*
X419036D01*
X419090Y-51414D01*
X419443Y-52265D01*
X420004Y-52996D01*
X420735Y-53557D01*
X421586Y-53910D01*
X422000Y-53964D01*
Y-51000D01*
D02*
G37*
G36*
X246000Y-263536D02*
Y-266500D01*
X248964D01*
X248910Y-266086D01*
X248557Y-265235D01*
X247996Y-264504D01*
X247265Y-263943D01*
X246414Y-263590D01*
X246000Y-263536D01*
D02*
G37*
G36*
X245000Y-267500D02*
X242036D01*
X242090Y-267914D01*
X242443Y-268765D01*
X243004Y-269496D01*
X243735Y-270057D01*
X244586Y-270410D01*
X245000Y-270464D01*
Y-267500D01*
D02*
G37*
G36*
X435500Y-32536D02*
Y-35500D01*
X438464D01*
X438410Y-35086D01*
X438057Y-34235D01*
X437496Y-33504D01*
X436765Y-32943D01*
X435914Y-32590D01*
X435500Y-32536D01*
D02*
G37*
G36*
X421000Y-17466D02*
X419956Y-17603D01*
X418983Y-18006D01*
X418147Y-18647D01*
X417506Y-19483D01*
X417103Y-20456D01*
X416965Y-21500D01*
X417103Y-22544D01*
X417506Y-23517D01*
X418147Y-24353D01*
X418983Y-24994D01*
X419956Y-25397D01*
X421000Y-25534D01*
X422044Y-25397D01*
X423017Y-24994D01*
X423853Y-24353D01*
X424494Y-23517D01*
X424897Y-22544D01*
X425035Y-21500D01*
X424897Y-20456D01*
X424494Y-19483D01*
X423853Y-18647D01*
X423017Y-18006D01*
X422044Y-17603D01*
X421000Y-17466D01*
D02*
G37*
G36*
X410500Y-22000D02*
X407031D01*
X407103Y-22544D01*
X407506Y-23517D01*
X408147Y-24353D01*
X408983Y-24994D01*
X409956Y-25397D01*
X410500Y-25469D01*
Y-22000D01*
D02*
G37*
G36*
X434500Y-32536D02*
X434086Y-32590D01*
X433235Y-32943D01*
X432504Y-33504D01*
X431943Y-34235D01*
X431590Y-35086D01*
X431536Y-35500D01*
X434500D01*
Y-32536D01*
D02*
G37*
G36*
X413193Y-28941D02*
X410528D01*
Y-32000D01*
X413193D01*
Y-28941D01*
D02*
G37*
G36*
X409528D02*
X406862D01*
Y-32000D01*
X409528D01*
Y-28941D01*
D02*
G37*
G36*
X261000Y-252994D02*
X260225Y-253096D01*
X259503Y-253395D01*
X258883Y-253871D01*
X258750Y-254044D01*
X258250D01*
X258117Y-253871D01*
X257497Y-253395D01*
X256775Y-253096D01*
X256000Y-252994D01*
X255225Y-253096D01*
X254503Y-253395D01*
X253883Y-253871D01*
X253750Y-254044D01*
X253250D01*
X253117Y-253871D01*
X252497Y-253395D01*
X251775Y-253096D01*
X251500Y-253060D01*
Y-257957D01*
Y-262854D01*
X251775Y-262817D01*
X252497Y-262518D01*
X253117Y-262042D01*
X253250Y-261869D01*
X253750D01*
X253883Y-262042D01*
X254503Y-262518D01*
X255225Y-262817D01*
X256000Y-262919D01*
X256775Y-262817D01*
X257497Y-262518D01*
X258117Y-262042D01*
X258250Y-261869D01*
X258750D01*
X258883Y-262042D01*
X259503Y-262518D01*
X260225Y-262817D01*
X261000Y-262919D01*
X261775Y-262817D01*
X262497Y-262518D01*
X263117Y-262042D01*
X263593Y-261422D01*
X263892Y-260700D01*
X263994Y-259925D01*
Y-255988D01*
X263892Y-255213D01*
X263593Y-254491D01*
X263117Y-253871D01*
X262497Y-253395D01*
X261775Y-253096D01*
X261000Y-252994D01*
D02*
G37*
G36*
X250500Y-253060D02*
X250225Y-253096D01*
X249503Y-253395D01*
X248883Y-253871D01*
X248407Y-254491D01*
X248108Y-255213D01*
X248006Y-255988D01*
Y-257457D01*
X250500D01*
Y-253060D01*
D02*
G37*
G36*
X410500Y-17531D02*
X409956Y-17603D01*
X408983Y-18006D01*
X408147Y-18647D01*
X407506Y-19483D01*
X407103Y-20456D01*
X407031Y-21000D01*
X410500D01*
Y-17531D01*
D02*
G37*
G36*
X434500Y-36500D02*
X431536D01*
X431590Y-36914D01*
X431943Y-37765D01*
X432504Y-38496D01*
X433235Y-39057D01*
X434086Y-39410D01*
X434500Y-39464D01*
Y-36500D01*
D02*
G37*
G36*
X250500Y-258457D02*
X248006D01*
Y-259925D01*
X248108Y-260700D01*
X248407Y-261422D01*
X248883Y-262042D01*
X249503Y-262518D01*
X250225Y-262817D01*
X250500Y-262854D01*
Y-258457D01*
D02*
G37*
G36*
X411500Y-17531D02*
Y-21000D01*
X414969D01*
X414897Y-20456D01*
X414494Y-19483D01*
X413853Y-18647D01*
X413017Y-18006D01*
X412044Y-17603D01*
X411500Y-17531D01*
D02*
G37*
G36*
X413193Y-33000D02*
X410528D01*
Y-36059D01*
X413193D01*
Y-33000D01*
D02*
G37*
G36*
X414969Y-22000D02*
X411500D01*
Y-25469D01*
X412044Y-25397D01*
X413017Y-24994D01*
X413853Y-24353D01*
X414494Y-23517D01*
X414897Y-22544D01*
X414969Y-22000D01*
D02*
G37*
G36*
X438464Y-36500D02*
X435500D01*
Y-39464D01*
X435914Y-39410D01*
X436765Y-39057D01*
X437496Y-38496D01*
X438057Y-37765D01*
X438410Y-36914D01*
X438464Y-36500D01*
D02*
G37*
G36*
X409528Y-33000D02*
X406862D01*
Y-36059D01*
X409528D01*
Y-33000D01*
D02*
G37*
%LPD*%
D12*
X240500Y-34457D02*
D03*
Y-41543D02*
D03*
X442000Y-19457D02*
D03*
Y-26543D02*
D03*
D13*
X227000Y-33248D02*
X228209Y-34457D01*
X240000D01*
X291000Y-257866D02*
X303500Y-245366D01*
X242500Y-193000D02*
X253500D01*
X371250Y-245750D02*
X401250D01*
X371000Y-246000D02*
X371250Y-245750D01*
X179413Y-70000D02*
X198500D01*
X190500Y-395000D02*
X202500Y-407000D01*
X100500Y-395000D02*
X190500D01*
X76000Y-370500D02*
X100500Y-395000D01*
X208500Y-393000D02*
X222500Y-407000D01*
X183500Y-393000D02*
X208500D01*
X161500Y-371000D02*
X183500Y-393000D01*
X141000Y-371000D02*
X161500D01*
X211000Y-375500D02*
X242500Y-407000D01*
X211000Y-375500D02*
Y-370000D01*
X250000Y-394500D02*
X262500Y-407000D01*
X250000Y-394500D02*
Y-369957D01*
X282500Y-408500D02*
Y-407957D01*
Y-406457D02*
X319500Y-369457D01*
X302500Y-407000D02*
X345957D01*
X384000Y-368957D01*
X41000Y-221413D02*
Y-53000D01*
X77500D02*
X118000Y-12500D01*
X41000Y-53000D02*
X77500D01*
X128000Y-12500D02*
X169500Y-54000D01*
Y-224000D02*
Y-54000D01*
X133000Y-224000D02*
X169500D01*
X138000Y-12500D02*
X174500Y-49000D01*
Y-218500D02*
Y-49000D01*
X148000Y-12500D02*
X222472Y-86972D01*
X228558D01*
X238000Y-96414D01*
Y-224500D02*
Y-96414D01*
X158000Y-12500D02*
X200500Y-55000D01*
X306500D01*
X311000Y-59500D01*
X168000Y-12500D02*
X204000Y-48500D01*
X353000D01*
X372000Y-67500D01*
Y-215500D02*
Y-67500D01*
X90500Y-258410D02*
X96909D01*
X112500Y-274000D01*
X140409D01*
X155500Y-258910D01*
X159909D01*
X177000Y-276000D01*
X207409D01*
X225500Y-257909D01*
X243091Y-275500D01*
X283500D01*
X291000Y-268000D01*
Y-257866D01*
X308634Y-275500D01*
X345500D01*
X360500Y-260500D01*
Y-257366D01*
X379134Y-276000D01*
X413000D01*
X360500Y-92409D02*
X367590Y-99500D01*
Y-202410D02*
Y-99500D01*
X360500Y-209500D02*
X367590Y-202410D01*
X360500Y-257366D02*
Y-209500D01*
X291500Y-92409D02*
X303500Y-104410D01*
Y-245366D02*
Y-104410D01*
X224000Y-125901D02*
Y-92409D01*
Y-125901D02*
X229401D01*
X234000Y-130500D01*
Y-249409D02*
Y-130500D01*
X225500Y-257909D02*
X234000Y-249409D01*
X156000Y-92409D02*
X165500Y-101909D01*
Y-211500D02*
Y-101909D01*
X157500Y-219500D02*
X165500Y-211500D01*
X90000Y-92409D02*
X100500Y-102910D01*
Y-248409D02*
Y-102910D01*
X90500Y-258410D02*
X100500Y-248409D01*
X84563Y-69937D02*
X85000Y-69500D01*
X84563Y-128437D02*
Y-69937D01*
X85000Y-69500D02*
X152000D01*
X246043Y-69457D02*
X246500Y-69000D01*
X269000D01*
X277500D02*
X286000Y-77500D01*
X269000Y-69000D02*
X277500D01*
X317957Y-69457D02*
X318000Y-69500D01*
X339500D01*
X403500Y-124000D02*
Y-69500D01*
Y-124000D02*
X423500Y-144000D01*
X381043Y-69457D02*
X412957D01*
X46000Y-227000D02*
X46587D01*
X41000Y-221413D02*
X46587Y-227000D01*
X84000Y-229000D02*
X86500Y-231500D01*
Y-235500D02*
Y-231500D01*
X126000Y-231000D02*
X126500D01*
X126000D02*
X133000Y-224000D01*
X151000Y-245000D02*
Y-235500D01*
X174500Y-218500D02*
X182000Y-226000D01*
Y-234500D02*
Y-226000D01*
X151000Y-245000D02*
X194000D01*
X203500Y-235500D01*
X238000Y-224500D02*
X248000Y-234500D01*
X253500Y-193000D02*
X279500Y-219000D01*
X284500D01*
X286000Y-217500D01*
Y-77500D01*
X311000Y-219500D02*
Y-59500D01*
Y-219500D02*
X314000Y-222500D01*
Y-235500D02*
Y-222500D01*
X372000Y-215500D02*
X373000Y-216500D01*
X390000D01*
X423500Y-223500D02*
Y-144000D01*
X401250Y-245750D02*
X401500Y-245500D01*
Y-234000D01*
X413000D02*
X423500Y-223500D01*
X401500Y-234000D02*
X413000D01*
Y-276000D02*
X418000Y-271000D01*
Y-263866D01*
X425000Y-256866D01*
X222500Y-19500D02*
X223500D01*
X227000Y-33248D02*
Y-24000D01*
X222500Y-19500D02*
X227000Y-24000D01*
X84000Y-129000D02*
X84563Y-128437D01*
X84000Y-229000D02*
Y-129000D01*
D14*
X385043Y-41543D02*
X412957Y-69457D01*
X240000Y-41543D02*
X385043D01*
X442000Y-40500D02*
Y-26543D01*
X412913Y-69500D02*
X412957Y-69457D01*
X403500Y-69500D02*
X412913D01*
X413000D02*
X442000Y-40500D01*
X412913Y-69500D02*
X413000D01*
X377000Y-37500D02*
X377752D01*
X361752Y-21500D02*
X377752Y-37500D01*
X383248Y-36500D02*
X396972D01*
X400972Y-32500D01*
X401472Y-32000D01*
Y-10500D01*
X438957D01*
X442000Y-19457D02*
Y-13543D01*
X438957Y-10500D02*
X442000Y-13543D01*
D16*
X204500Y-19000D02*
D03*
X224500D02*
D03*
X244500D02*
D03*
D17*
X351500Y-21500D02*
D03*
X361500D02*
D03*
X371500D02*
D03*
X391000D02*
D03*
X401000D02*
D03*
X411000D02*
D03*
X421000D02*
D03*
X469000Y-15000D02*
D03*
X467500Y-410000D02*
D03*
X17500D02*
D03*
X16000Y-15000D02*
D03*
D18*
X360500Y-92409D02*
D03*
X224000D02*
D03*
X291500D02*
D03*
X156000D02*
D03*
X90000D02*
D03*
X90500Y-258410D02*
D03*
X425500Y-91909D02*
D03*
X225500Y-257909D02*
D03*
X155500Y-258910D02*
D03*
X425000Y-256866D02*
D03*
X360500Y-257366D02*
D03*
X291000Y-257866D02*
D03*
D19*
X360500Y-133591D02*
D03*
X224000D02*
D03*
X291500D02*
D03*
X156000D02*
D03*
X90000D02*
D03*
X90500Y-299590D02*
D03*
X425500Y-133091D02*
D03*
X225500Y-299091D02*
D03*
X155500Y-300091D02*
D03*
X425000Y-298047D02*
D03*
X360500Y-298547D02*
D03*
X291000Y-299047D02*
D03*
D20*
X346000Y-144500D02*
D03*
Y-204500D02*
D03*
X319500Y-144500D02*
D03*
Y-204500D02*
D03*
X209500Y-144500D02*
D03*
Y-204500D02*
D03*
X183000Y-144500D02*
D03*
Y-204500D02*
D03*
X277000Y-144500D02*
D03*
Y-204500D02*
D03*
X250500Y-144500D02*
D03*
Y-204500D02*
D03*
X141500Y-144500D02*
D03*
Y-204500D02*
D03*
X115000Y-144500D02*
D03*
Y-204500D02*
D03*
X75500Y-144500D02*
D03*
Y-204500D02*
D03*
X49000Y-144500D02*
D03*
Y-204500D02*
D03*
X49500Y-370500D02*
D03*
Y-310500D02*
D03*
X76000Y-370500D02*
D03*
Y-310500D02*
D03*
X384500Y-204000D02*
D03*
Y-144000D02*
D03*
X411000Y-204000D02*
D03*
Y-144000D02*
D03*
X184500Y-370000D02*
D03*
Y-310000D02*
D03*
X211000Y-370000D02*
D03*
Y-310000D02*
D03*
X114500Y-371000D02*
D03*
Y-311000D02*
D03*
X141000Y-371000D02*
D03*
Y-311000D02*
D03*
X384000Y-368957D02*
D03*
Y-308957D02*
D03*
X410500Y-368957D02*
D03*
Y-308957D02*
D03*
X319500Y-369457D02*
D03*
Y-309457D02*
D03*
X346000Y-369457D02*
D03*
Y-309457D02*
D03*
X250000Y-369957D02*
D03*
Y-309957D02*
D03*
X276500Y-369957D02*
D03*
Y-309957D02*
D03*
D21*
X320500Y-92500D02*
D03*
X330500D02*
D03*
X320500Y-130043D02*
D03*
X330500D02*
D03*
X184000Y-92500D02*
D03*
X194000D02*
D03*
X184000Y-130043D02*
D03*
X194000D02*
D03*
X251500Y-92500D02*
D03*
X261500D02*
D03*
X251500Y-130043D02*
D03*
X261500D02*
D03*
X116000Y-92500D02*
D03*
X126000D02*
D03*
X116000Y-130043D02*
D03*
X126000D02*
D03*
X50000Y-92500D02*
D03*
X60000D02*
D03*
X50000Y-130043D02*
D03*
X60000D02*
D03*
X60500Y-296043D02*
D03*
X50500D02*
D03*
X60500Y-258500D02*
D03*
X50500D02*
D03*
X395500Y-129543D02*
D03*
X385500D02*
D03*
X395500Y-92000D02*
D03*
X385500D02*
D03*
X195500Y-295543D02*
D03*
X185500D02*
D03*
X195500Y-258000D02*
D03*
X185500D02*
D03*
X125500Y-296543D02*
D03*
X115500D02*
D03*
X125500Y-259000D02*
D03*
X115500D02*
D03*
X395000Y-294500D02*
D03*
X385000D02*
D03*
X395000Y-256957D02*
D03*
X385000D02*
D03*
X330500Y-295000D02*
D03*
X320500D02*
D03*
X330500Y-257457D02*
D03*
X320500D02*
D03*
X261000Y-295500D02*
D03*
X251000D02*
D03*
X261000Y-257957D02*
D03*
X251000D02*
D03*
D22*
X325500Y-92500D02*
D03*
X325500Y-130043D02*
D03*
X189000Y-92500D02*
D03*
X189000Y-130043D02*
D03*
X256500Y-92500D02*
D03*
X256500Y-130043D02*
D03*
X121000Y-92500D02*
D03*
X121000Y-130043D02*
D03*
X55000Y-92500D02*
D03*
X55000Y-130043D02*
D03*
X55500Y-296043D02*
D03*
X55500Y-258500D02*
D03*
X390500Y-129543D02*
D03*
X390500Y-92000D02*
D03*
X190500Y-295543D02*
D03*
X190500Y-258000D02*
D03*
X120500Y-296543D02*
D03*
X120500Y-259000D02*
D03*
X390000Y-294500D02*
D03*
X390000Y-256957D02*
D03*
X325500Y-295000D02*
D03*
X325500Y-257457D02*
D03*
X256000Y-295500D02*
D03*
X256000Y-257957D02*
D03*
D23*
X58000Y-12500D02*
D03*
X51500Y-408500D02*
D03*
X192500D02*
D03*
D24*
X68000Y-12500D02*
D03*
X78000D02*
D03*
X88000D02*
D03*
X98000D02*
D03*
X108000D02*
D03*
X118000D02*
D03*
X128000D02*
D03*
X138000D02*
D03*
X148000D02*
D03*
X158000D02*
D03*
X168000D02*
D03*
X61500Y-408500D02*
D03*
X71500D02*
D03*
X81500D02*
D03*
X91500D02*
D03*
X101500D02*
D03*
X111500D02*
D03*
X121500D02*
D03*
X131500D02*
D03*
X141500D02*
D03*
X151500D02*
D03*
X161500D02*
D03*
X202500D02*
D03*
X212500D02*
D03*
X222500D02*
D03*
X232500D02*
D03*
X242500D02*
D03*
X252500D02*
D03*
X262500D02*
D03*
X272500D02*
D03*
X282500D02*
D03*
X292500D02*
D03*
X302500D02*
D03*
D25*
X242500Y-193000D02*
D03*
X371000Y-246000D02*
D03*
X381043Y-69457D02*
D03*
X317957D02*
D03*
X246043D02*
D03*
X198500Y-70000D02*
D03*
X179413D02*
D03*
X157500Y-219500D02*
D03*
X85000Y-69500D02*
D03*
X152000D02*
D03*
X269000Y-69000D02*
D03*
X339500Y-69500D02*
D03*
X403500D02*
D03*
X46000Y-227000D02*
D03*
X86500Y-235500D02*
D03*
X126500Y-231000D02*
D03*
X151000Y-235500D02*
D03*
X182000Y-234500D02*
D03*
X203500Y-235500D02*
D03*
X248000Y-234500D02*
D03*
X279500Y-219000D02*
D03*
X314000Y-235500D02*
D03*
X390000Y-216500D02*
D03*
X401500Y-234000D02*
D03*
X340000Y-24000D02*
D03*
X271500Y-34500D02*
D03*
X435000Y-36000D02*
D03*
X422500Y-50500D02*
D03*
X433000Y-60500D02*
D03*
X245500Y-267000D02*
D03*
X246000Y-284000D02*
D03*
X446500Y-47500D02*
D03*
D26*
X373252Y-11000D02*
D03*
X379748D02*
D03*
X376752Y-36500D02*
D03*
X383248D02*
D03*
X220252Y-33500D02*
D03*
X226748D02*
D03*
D27*
X410028Y-32500D02*
D03*
X400972D02*
D03*
X392472Y-11000D02*
D03*
X401528D02*
D03*
M02*
