M48
;Layer_Color=9474304
;FILE_FORMAT=2:5
INCH,LZ
;TYPE=PLATED
T1F00S00C0.02000
T2F00S00C0.02756
T3F00S00C0.03150
T4F00S00C0.04500
T5F00S00C0.05118
T6F00S00C0.05512
T7F00S00C0.06299
T8F00S00C0.07874
T9F00S00C0.09449
T10F00S00C0.10236
T11F00S00C0.12520
;TYPE=NON_PLATED
T12F00S00C0.15748
%
T01
X18285Y0583
X1749Y0586252
X1713Y0616
X1666Y05865
X15765Y0589
X1496Y0592752
X14565Y0616
X1414Y05945
X1131Y0624752
X1049Y06225
X0897496Y0675
X0888Y0727
X091052Y0739
X0931Y0758
X0875472Y0752196
X0855072
X0943Y074
X1005572Y0752196
X1025972
X1038Y07275
X1023504Y07125
X1002504Y0712504
X0989008Y0687
X0995504Y06805
X0973504
X0973Y06565
X0968Y06475
X10225Y0626
X10575
X10515Y0633
Y0654
X1057Y06615
X1056756Y06805
X1072004Y0687504
X1079004Y068
X1083504Y06545
X1072504
X1032004Y068
X1086508Y07125
X10935Y074
X10815Y0758
X106102Y0739
X1107252Y07125
X1115504Y06805
X1141004Y0683
X1156008Y06885
X1162504Y0681
X1168504Y06545
X1153004
X1141Y0661
X11405Y06375
X12115Y06275
X12305Y06375
X122Y0688
X1200504Y06815
X1192504Y07135
X11845Y07275
X1170504Y0714
X11725Y0752196
X11521
X1207547Y0739
X1240028Y074
X1228028Y0758
X13085Y07275
X1326996Y0729996
X13605Y0739972
X13485Y0757972
X13275Y06595
X13085Y0648
X1413Y0666
X14295Y0659
X14305Y068
X14525
X1446004Y06865
X14595Y0712004
X14805Y0712
X1503Y06955
X1513752Y068
Y0661252
X15295Y0654
X15405
X1536Y06795
X1529Y0687004
X1543504Y0712
X15395Y0755248
X1510496Y0758748
X14855Y0753
X14565
X1430618Y0756
X1431Y06295
X14765
X1489Y06385
Y06545
X1503Y0647
X15135Y063
X1489Y06795
X15725Y068
X15855Y06945
X1598252Y06825
X1613004Y0688
X16195Y06805
X16255Y0654
X161
X1598Y0661
X15855Y0647
X1598Y063
X1676Y0647
X169Y06405
Y06585
X1701Y0654
X1718Y06545
X1712Y068
X1705504Y06865
X169Y068
X1676Y06985
X16575Y0681
X16495Y0713
X16275Y07135
X1621Y0752196
X16006
X15655Y07585
X1564248Y0712
X1656047Y0739
X1688528Y074
X1676528Y0758
X17506Y0752196
X1771
X1806Y0739
X1803004Y0712
X1823748
X1845Y07245
X1838528Y074
X1826528Y0758
X1832Y068
X18575Y06825
X1872504Y0688
X18695Y0654
X18575Y06605
X1845Y0647
X18575Y0632
X18Y0654
X1789
X1773Y06585
X1773252Y068
X17885Y0687004
X17955Y06795
X17485
Y06465
X17365Y0632
X1773Y06315
X174Y0712
X1719Y0712004
X1887Y07135
X1909Y0713
X1917Y0681
X1879Y06805
X1885Y0654
X19215Y0647
X1920972Y0754696
X193Y0747
X195602Y07415
X19885Y07425
X19765Y07605
X1900572Y0754696
X1896472Y0815
X1892Y0821
X18985Y08325
X191182Y0835496
X19205Y0831
X1921372Y0812809
X19275Y0813748
X1933Y08075
X1949972Y08705
X1948Y08805
X1963Y08775
X1974468Y0902996
X1999252Y0886748
X2011Y09155
X20115Y09365
X199661Y0831
X19875Y08375
X1920472Y08945
X1901372Y0875992
X184928Y0884248
X1861028Y0913
X1861528Y0934
X18395Y0937
X1824496Y0900496
X1813028Y0875
X1798028Y0878
X18Y0868
X17705Y0892
X17514Y0873492
X17485Y0829
X1743Y08185
X17465Y08125
X177Y0812
X17775Y0811
X17845Y0805
X1769Y0828196
X1761848Y0832996
X1837528Y0835
X1846638Y08285
X1696638
X1687528Y0835
X169928Y0884248
X1711028Y0913
X1711528Y0934
X16895Y0937
X1674496Y0900496
X1663028Y0875
X1648028Y0878
X165Y0868
X16205Y0892
X16014Y0873492
X15985Y08285
X1593Y08185
X15965Y08125
X16214Y081031
X1628Y08115
X1634Y0804
X1619696Y08295
X1611848Y0832996
X15645Y0803748
X1558748Y0812248
X15455
X15305Y08245
X15275Y0829236
X1517Y0821
X15075Y0832
X15115Y08365
X1503744Y0812496
X1494496Y08125
X1509496Y0803996
X14795Y0825559
X14715Y083
X14625Y0821
X1453Y08315
X14565Y0837
X1449866Y0813
X1440618
X1455618Y08045
X1422Y0821
X14265Y0826
X1417Y08265
X1435118Y0847
X1489
X15435Y08455
X1561587Y0829413
X1537122Y0903378
X1482878
X14285Y0904
X1383Y0912972
X1375531Y0900469
X1371252Y0884221
X1335Y0874972
X132Y0877972
X1322252Y0867972
X13275Y0893468
X1364504Y0933972
X13835
X136861Y0828472
X13595Y0834972
X125078Y0884248
X1262528Y0913
X1263028Y0934
X1241Y0937
X1225996Y0900496
X1214528Y0875
X1199528Y0878
X12015Y0868
X1172Y0892
X11529Y0873492
X1150213Y0829287
X1163348Y0832996
X11705Y0829
X11729Y081031
X1179Y0812
X11855Y08045
X1148Y08125
X11435Y08185
X110161Y08285
X1104252Y0884248
X1116Y0913
X11165Y0934
X1094472Y0937
X1239028Y0835
X1248138Y08285
X10925Y0835
X1068Y0875
X1053Y0878
X1054972Y0868
X1025472Y0892
X1006372Y0873492
X1003686Y0830186
X1016821Y0832996
X10245Y08295
X10255Y0811
X1032Y08115
X10395Y0805
X1001472Y08125
X09965Y0818
X095111Y08285
X0942Y0835
X0953752Y0884248
X09655Y0913
X0966Y0934
X0943972Y0937
X1079469Y0900496
X0928969
X09175Y0875
X09025Y0878
X0904472Y0868
X0874972Y0892
X0855872Y0873492
X0853Y0831
X0866321Y0832996
X08735Y0829
X0875872Y081031
X08825Y08115
X089Y0805
X0850972Y08125
X0846Y08185
X0895Y0952
X09345Y0943496
X09445Y09435
X0968Y0952
X10455
X1085Y0943496
X1095Y09435
X11185Y0952
X1192028
X1231528Y0943496
X1241528Y09435
X1265028Y0952
X13125Y0951972
X1352Y0943468
X1362Y0943472
X13855Y0951972
X1438618Y09845
X14935
X15475Y0984
X1640528Y0952
X1680028Y0943496
X1690028Y09435
X1713528Y0952
X1790528
X1830028Y0943496
X1840028Y09435
X1863528Y0952
X19405Y09545
X198Y0945996
X199Y0946
X1989472Y09395
X20135Y09545
T02
X0948Y07695
X10985
X1245028
X13655Y0769472
X1693528Y07695
X1843528
X19935Y0772
Y0802
X1843528Y07995
X1693528
X13655Y0799472
X1245028Y07995
X10985
X0948
T03
X08805Y06065
Y06165
Y06265
Y06365
Y06465
Y06565
Y06665
Y06765
T04
X1260567Y0597
X1271472
X1282378
X1293283
X1304189
X1315094
X1326
X1336905
X1347811
X1358716
X1369622
X1364169Y0608181
X1353264
X1342358
X1331453
X1320547
X1309642
X1298736
X1287831
X1276925
X126602
X1255114
X1244209
X1249661Y0597
X1238756
T05
X0974Y0598
X0994
T06
X1428Y107065
Y12675
X1425Y136265
Y15595
X14255Y164965
Y18465
T07
X1552343Y10615
X1515
X1474842
X15925
X1629
X1669157
X1552343Y1268193
X1515
X1474842
X1476342Y1353307
X15165
X1553843
X1594
X16305
X1670658
X1669157Y1268193
X1629
X15925
X1594Y156
X16305
X1670658
X1553843
X15165
X1476342
Y1639307
X15165
X1553843
X1594
X16305
X1670658
Y1846
X16305
X1594
X1553843
X15165
X1476342
T08
X09495Y1088
X11695
X17745Y1093
X19945
Y1113
Y1133
Y1153
Y1173
Y1193
Y1213
Y1233
X17745
Y1213
Y1193
Y1173
Y1153
Y1133
Y1113
X11695Y1108
Y1128
Y1148
Y1168
Y1188
Y1208
Y1228
X09495
Y1208
Y1188
Y1168
Y1148
Y1128
Y1108
Y13785
Y13985
X11695
Y13785
X17745Y13835
Y14035
X19945
Y13835
Y14235
Y14435
Y14635
Y14835
Y15035
Y15235
X17745
Y15035
Y14835
Y14635
Y14435
Y14235
X11695Y14185
Y14385
Y14585
Y14785
Y14985
Y15185
X09495
Y14985
Y14785
Y14585
Y14385
Y14185
Y1665
Y1685
Y1705
X11695
Y1685
Y1665
X17745Y167
Y169
Y171
X19945
Y169
Y167
Y173
Y175
Y177
Y179
Y181
X17745
Y179
Y177
Y175
Y173
X11695Y1725
Y1745
Y1765
Y1785
Y1805
X09495
Y1785
Y1765
Y1745
Y1725
T09
X2069Y1801508
Y1768988
Y1736469
X0831Y173698
Y17695
Y180202
T10
X1226453Y137526
X13485
Y1454
Y153274
X1226453
Y1454
T11
X1396787Y0602591
X1211591
T12
X10595Y1038
X18845Y1043
X10595Y1278
Y13285
X18845Y13335
Y1283
X10595Y15685
Y1615
X18845Y162
Y15735
Y186
X10595Y1855
M30
