G04 Layer_Color=32896*
%FSLAX25Y25*%
%MOIN*%
G70*
G01*
G75*
%ADD32C,0.01000*%
%ADD48C,0.00984*%
%ADD52C,0.00700*%
D32*
X975524Y584618D02*
X993240D01*
X975524Y574382D02*
Y584618D01*
Y574382D02*
X993240D01*
Y584618D01*
X899118Y602760D02*
Y620476D01*
X888882D02*
X899118D01*
X888882Y602760D02*
Y620476D01*
Y602760D02*
X899118D01*
X854358Y633776D02*
Y659366D01*
X836642Y633776D02*
X854358D01*
X836642D02*
Y659366D01*
X854358D01*
X904358Y634276D02*
Y659866D01*
X886642Y634276D02*
X904358D01*
X886642D02*
Y659866D01*
X904358D01*
X874858Y633776D02*
Y659366D01*
X857142Y633776D02*
X874858D01*
X857142D02*
Y659366D01*
X874858D01*
X967001Y591498D02*
X968001Y592498D01*
X970000D01*
X971000Y591498D01*
Y587500D01*
X970000Y586500D01*
X968001D01*
X967001Y587500D01*
X961003Y586500D02*
X965002D01*
X961003Y590499D01*
Y591498D01*
X962003Y592498D01*
X964002D01*
X965002Y591498D01*
X959004Y592498D02*
X955005D01*
Y591498D01*
X959004Y587500D01*
Y586500D01*
X949007Y592498D02*
X951007Y591498D01*
X953006Y589499D01*
Y587500D01*
X952006Y586500D01*
X950007D01*
X949007Y587500D01*
Y588499D01*
X950007Y589499D01*
X953006D01*
X967501Y581498D02*
X968501Y582498D01*
X970500D01*
X971500Y581498D01*
Y577500D01*
X970500Y576500D01*
X968501D01*
X967501Y577500D01*
X961503Y576500D02*
X965502D01*
X961503Y580499D01*
Y581498D01*
X962503Y582498D01*
X964502D01*
X965502Y581498D01*
X959504Y582498D02*
X955505D01*
Y581498D01*
X959504Y577500D01*
Y576500D01*
X949507Y582498D02*
X953506D01*
Y579499D01*
X951507Y580499D01*
X950507D01*
X949507Y579499D01*
Y577500D01*
X950507Y576500D01*
X952506D01*
X953506Y577500D01*
X1924501Y707498D02*
X1925501Y708498D01*
X1927500D01*
X1928500Y707498D01*
Y703500D01*
X1927500Y702500D01*
X1925501D01*
X1924501Y703500D01*
X1918503Y702500D02*
X1922502D01*
X1918503Y706499D01*
Y707498D01*
X1919503Y708498D01*
X1921502D01*
X1922502Y707498D01*
X1913505Y702500D02*
Y708498D01*
X1916504Y705499D01*
X1912505D01*
X1910506Y703500D02*
X1909506Y702500D01*
X1907507D01*
X1906507Y703500D01*
Y707498D01*
X1907507Y708498D01*
X1909506D01*
X1910506Y707498D01*
Y706499D01*
X1909506Y705499D01*
X1906507D01*
X1934001Y698998D02*
X1935001Y699998D01*
X1937000D01*
X1938000Y698998D01*
Y695000D01*
X1937000Y694000D01*
X1935001D01*
X1934001Y695000D01*
X1928003Y694000D02*
X1932002D01*
X1928003Y697999D01*
Y698998D01*
X1929003Y699998D01*
X1931002D01*
X1932002Y698998D01*
X1923005Y694000D02*
Y699998D01*
X1926004Y696999D01*
X1922005D01*
X1920006Y698998D02*
X1919006Y699998D01*
X1917007D01*
X1916007Y698998D01*
Y697999D01*
X1917007Y696999D01*
X1916007Y695999D01*
Y695000D01*
X1917007Y694000D01*
X1919006D01*
X1920006Y695000D01*
Y695999D01*
X1919006Y696999D01*
X1920006Y697999D01*
Y698998D01*
X1919006Y696999D02*
X1917007D01*
X1877601Y698598D02*
X1878601Y699598D01*
X1880600D01*
X1881600Y698598D01*
Y694600D01*
X1880600Y693600D01*
X1878601D01*
X1877601Y694600D01*
X1871603Y693600D02*
X1875602D01*
X1871603Y697599D01*
Y698598D01*
X1872603Y699598D01*
X1874602D01*
X1875602Y698598D01*
X1866605Y693600D02*
Y699598D01*
X1869604Y696599D01*
X1865605D01*
X1859607Y699598D02*
X1863606D01*
Y696599D01*
X1861606Y697599D01*
X1860607D01*
X1859607Y696599D01*
Y694600D01*
X1860607Y693600D01*
X1862606D01*
X1863606Y694600D01*
X1870501Y707498D02*
X1871501Y708498D01*
X1873500D01*
X1874500Y707498D01*
Y703500D01*
X1873500Y702500D01*
X1871501D01*
X1870501Y703500D01*
X1864503Y702500D02*
X1868502D01*
X1864503Y706499D01*
Y707498D01*
X1865503Y708498D01*
X1867502D01*
X1868502Y707498D01*
X1859505Y702500D02*
Y708498D01*
X1862504Y705499D01*
X1858505D01*
X1853507Y702500D02*
Y708498D01*
X1856506Y705499D01*
X1852507D01*
X1849001Y697498D02*
X1850001Y698498D01*
X1852000D01*
X1853000Y697498D01*
Y693500D01*
X1852000Y692500D01*
X1850001D01*
X1849001Y693500D01*
X1843003Y692500D02*
X1847002D01*
X1843003Y696499D01*
Y697498D01*
X1844003Y698498D01*
X1846002D01*
X1847002Y697498D01*
X1841004D02*
X1840004Y698498D01*
X1838005D01*
X1837005Y697498D01*
Y696499D01*
X1838005Y695499D01*
X1839005D01*
X1838005D01*
X1837005Y694499D01*
Y693500D01*
X1838005Y692500D01*
X1840004D01*
X1841004Y693500D01*
X1831007Y698498D02*
X1835006D01*
Y695499D01*
X1833006Y696499D01*
X1832007D01*
X1831007Y695499D01*
Y693500D01*
X1832007Y692500D01*
X1834006D01*
X1835006Y693500D01*
X1839501Y705998D02*
X1840501Y706998D01*
X1842500D01*
X1843500Y705998D01*
Y702000D01*
X1842500Y701000D01*
X1840501D01*
X1839501Y702000D01*
X1833503Y701000D02*
X1837502D01*
X1833503Y704999D01*
Y705998D01*
X1834503Y706998D01*
X1836502D01*
X1837502Y705998D01*
X1831504D02*
X1830504Y706998D01*
X1828505D01*
X1827505Y705998D01*
Y704999D01*
X1828505Y703999D01*
X1829505D01*
X1828505D01*
X1827505Y702999D01*
Y702000D01*
X1828505Y701000D01*
X1830504D01*
X1831504Y702000D01*
X1822507Y701000D02*
Y706998D01*
X1825506Y703999D01*
X1821507D01*
X1793601Y697798D02*
X1794601Y698798D01*
X1796600D01*
X1797600Y697798D01*
Y693800D01*
X1796600Y692800D01*
X1794601D01*
X1793601Y693800D01*
X1787603Y692800D02*
X1791602D01*
X1787603Y696799D01*
Y697798D01*
X1788603Y698798D01*
X1790602D01*
X1791602Y697798D01*
X1785604D02*
X1784604Y698798D01*
X1782605D01*
X1781605Y697798D01*
Y696799D01*
X1782605Y695799D01*
X1783604D01*
X1782605D01*
X1781605Y694799D01*
Y693800D01*
X1782605Y692800D01*
X1784604D01*
X1785604Y693800D01*
X1779606Y692800D02*
X1777607D01*
X1778606D01*
Y698798D01*
X1779606Y697798D01*
X1787501Y707498D02*
X1788501Y708498D01*
X1790500D01*
X1791500Y707498D01*
Y703500D01*
X1790500Y702500D01*
X1788501D01*
X1787501Y703500D01*
X1781503Y702500D02*
X1785502D01*
X1781503Y706499D01*
Y707498D01*
X1782503Y708498D01*
X1784502D01*
X1785502Y707498D01*
X1779504D02*
X1778504Y708498D01*
X1776505D01*
X1775505Y707498D01*
Y706499D01*
X1776505Y705499D01*
X1777505D01*
X1776505D01*
X1775505Y704499D01*
Y703500D01*
X1776505Y702500D01*
X1778504D01*
X1779504Y703500D01*
X1773506Y707498D02*
X1772506Y708498D01*
X1770507D01*
X1769507Y707498D01*
Y703500D01*
X1770507Y702500D01*
X1772506D01*
X1773506Y703500D01*
Y707498D01*
X1765501Y696998D02*
X1766501Y697998D01*
X1768500D01*
X1769500Y696998D01*
Y693000D01*
X1768500Y692000D01*
X1766501D01*
X1765501Y693000D01*
X1759503Y692000D02*
X1763502D01*
X1759503Y695999D01*
Y696998D01*
X1760503Y697998D01*
X1762502D01*
X1763502Y696998D01*
X1753505Y692000D02*
X1757504D01*
X1753505Y695999D01*
Y696998D01*
X1754505Y697998D01*
X1756504D01*
X1757504Y696998D01*
X1751506Y692000D02*
X1749507D01*
X1750506D01*
Y697998D01*
X1751506Y696998D01*
X1757001Y705498D02*
X1758001Y706498D01*
X1760000D01*
X1761000Y705498D01*
Y701500D01*
X1760000Y700500D01*
X1758001D01*
X1757001Y701500D01*
X1751003Y700500D02*
X1755002D01*
X1751003Y704499D01*
Y705498D01*
X1752003Y706498D01*
X1754002D01*
X1755002Y705498D01*
X1745005Y700500D02*
X1749004D01*
X1745005Y704499D01*
Y705498D01*
X1746005Y706498D01*
X1748004D01*
X1749004Y705498D01*
X1743006D02*
X1742006Y706498D01*
X1740007D01*
X1739007Y705498D01*
Y701500D01*
X1740007Y700500D01*
X1742006D01*
X1743006Y701500D01*
Y705498D01*
X1710601Y698098D02*
X1711601Y699098D01*
X1713600D01*
X1714600Y698098D01*
Y694100D01*
X1713600Y693100D01*
X1711601D01*
X1710601Y694100D01*
X1704603Y693100D02*
X1708602D01*
X1704603Y697099D01*
Y698098D01*
X1705603Y699098D01*
X1707602D01*
X1708602Y698098D01*
X1702604Y693100D02*
X1700604D01*
X1701604D01*
Y699098D01*
X1702604Y698098D01*
X1697606Y699098D02*
X1693607D01*
Y698098D01*
X1697606Y694100D01*
Y693100D01*
X1703001Y705998D02*
X1704001Y706998D01*
X1706000D01*
X1707000Y705998D01*
Y702000D01*
X1706000Y701000D01*
X1704001D01*
X1703001Y702000D01*
X1697003Y701000D02*
X1701002D01*
X1697003Y704999D01*
Y705998D01*
X1698003Y706998D01*
X1700002D01*
X1701002Y705998D01*
X1695004Y701000D02*
X1693004D01*
X1694004D01*
Y706998D01*
X1695004Y705998D01*
X1686007Y706998D02*
X1688006Y705998D01*
X1690005Y703999D01*
Y702000D01*
X1689006Y701000D01*
X1687007D01*
X1686007Y702000D01*
Y702999D01*
X1687007Y703999D01*
X1690005D01*
X1596001Y746498D02*
X1597001Y747498D01*
X1599000D01*
X1600000Y746498D01*
Y742500D01*
X1599000Y741500D01*
X1597001D01*
X1596001Y742500D01*
X1594002Y746498D02*
X1593002Y747498D01*
X1591003D01*
X1590003Y746498D01*
Y745499D01*
X1591003Y744499D01*
X1592003D01*
X1591003D01*
X1590003Y743499D01*
Y742500D01*
X1591003Y741500D01*
X1593002D01*
X1594002Y742500D01*
X1584005Y747498D02*
X1586005Y746498D01*
X1588004Y744499D01*
Y742500D01*
X1587004Y741500D01*
X1585005D01*
X1584005Y742500D01*
Y743499D01*
X1585005Y744499D01*
X1588004D01*
X1593501Y754998D02*
X1594501Y755998D01*
X1596500D01*
X1597500Y754998D01*
Y751000D01*
X1596500Y750000D01*
X1594501D01*
X1593501Y751000D01*
X1591502Y754998D02*
X1590502Y755998D01*
X1588503D01*
X1587503Y754998D01*
Y753999D01*
X1588503Y752999D01*
X1589503D01*
X1588503D01*
X1587503Y751999D01*
Y751000D01*
X1588503Y750000D01*
X1590502D01*
X1591502Y751000D01*
X1585504Y754998D02*
X1584504Y755998D01*
X1582505D01*
X1581505Y754998D01*
Y753999D01*
X1582505Y752999D01*
X1581505Y751999D01*
Y751000D01*
X1582505Y750000D01*
X1584504D01*
X1585504Y751000D01*
Y751999D01*
X1584504Y752999D01*
X1585504Y753999D01*
Y754998D01*
X1584504Y752999D02*
X1582505D01*
X1593001Y826498D02*
X1594001Y827498D01*
X1596000D01*
X1597000Y826498D01*
Y822500D01*
X1596000Y821500D01*
X1594001D01*
X1593001Y822500D01*
X1591002Y826498D02*
X1590002Y827498D01*
X1588003D01*
X1587003Y826498D01*
Y825499D01*
X1588003Y824499D01*
X1589003D01*
X1588003D01*
X1587003Y823499D01*
Y822500D01*
X1588003Y821500D01*
X1590002D01*
X1591002Y822500D01*
X1581005Y827498D02*
X1585004D01*
Y824499D01*
X1583004Y825499D01*
X1582005D01*
X1581005Y824499D01*
Y822500D01*
X1582005Y821500D01*
X1584004D01*
X1585004Y822500D01*
X1592501Y817498D02*
X1593501Y818498D01*
X1595500D01*
X1596500Y817498D01*
Y813500D01*
X1595500Y812500D01*
X1593501D01*
X1592501Y813500D01*
X1590502Y817498D02*
X1589502Y818498D01*
X1587503D01*
X1586503Y817498D01*
Y816499D01*
X1587503Y815499D01*
X1588503D01*
X1587503D01*
X1586503Y814499D01*
Y813500D01*
X1587503Y812500D01*
X1589502D01*
X1590502Y813500D01*
X1584504Y818498D02*
X1580505D01*
Y817498D01*
X1584504Y813500D01*
Y812500D01*
X1654502Y860501D02*
X1653502Y861501D01*
Y863500D01*
X1654502Y864500D01*
X1658500D01*
X1659500Y863500D01*
Y861501D01*
X1658500Y860501D01*
X1653502Y854503D02*
Y858502D01*
X1656501D01*
X1655501Y856503D01*
Y855503D01*
X1656501Y854503D01*
X1658500D01*
X1659500Y855503D01*
Y857502D01*
X1658500Y858502D01*
X1659500Y848505D02*
Y852504D01*
X1655501Y848505D01*
X1654502D01*
X1653502Y849505D01*
Y851504D01*
X1654502Y852504D01*
X1644502Y859501D02*
X1643502Y860501D01*
Y862500D01*
X1644502Y863500D01*
X1648500D01*
X1649500Y862500D01*
Y860501D01*
X1648500Y859501D01*
X1643502Y853503D02*
Y857502D01*
X1646501D01*
X1645501Y855503D01*
Y854503D01*
X1646501Y853503D01*
X1648500D01*
X1649500Y854503D01*
Y856502D01*
X1648500Y857502D01*
X1649500Y851504D02*
Y849504D01*
Y850504D01*
X1643502D01*
X1644502Y851504D01*
X1667502Y729501D02*
X1666502Y730501D01*
Y732500D01*
X1667502Y733500D01*
X1671500D01*
X1672500Y732500D01*
Y730501D01*
X1671500Y729501D01*
X1672500Y724503D02*
X1666502D01*
X1669501Y727502D01*
Y723503D01*
X1667502Y721504D02*
X1666502Y720504D01*
Y718505D01*
X1667502Y717505D01*
X1668501D01*
X1669501Y718505D01*
Y719504D01*
Y718505D01*
X1670501Y717505D01*
X1671500D01*
X1672500Y718505D01*
Y720504D01*
X1671500Y721504D01*
X1676502Y729001D02*
X1675502Y730001D01*
Y732000D01*
X1676502Y733000D01*
X1680500D01*
X1681500Y732000D01*
Y730001D01*
X1680500Y729001D01*
X1681500Y724003D02*
X1675502D01*
X1678501Y727002D01*
Y723003D01*
X1681500Y721004D02*
Y719004D01*
Y720004D01*
X1675502D01*
X1676502Y721004D01*
X1686502Y729501D02*
X1685502Y730501D01*
Y732500D01*
X1686502Y733500D01*
X1690500D01*
X1691500Y732500D01*
Y730501D01*
X1690500Y729501D01*
X1691500Y724503D02*
X1685502D01*
X1688501Y727502D01*
Y723503D01*
X1691500Y717505D02*
Y721504D01*
X1687501Y717505D01*
X1686502D01*
X1685502Y718505D01*
Y720504D01*
X1686502Y721504D01*
X1805502Y860001D02*
X1804502Y861001D01*
Y863000D01*
X1805502Y864000D01*
X1809500D01*
X1810500Y863000D01*
Y861001D01*
X1809500Y860001D01*
X1810500Y854003D02*
Y858002D01*
X1806501Y854003D01*
X1805502D01*
X1804502Y855003D01*
Y857002D01*
X1805502Y858002D01*
X1804502Y852004D02*
Y848005D01*
X1805502D01*
X1809500Y852004D01*
X1810500D01*
X1796502Y858501D02*
X1795502Y859501D01*
Y861500D01*
X1796502Y862500D01*
X1800500D01*
X1801500Y861500D01*
Y859501D01*
X1800500Y858501D01*
X1801500Y852503D02*
Y856502D01*
X1797501Y852503D01*
X1796502D01*
X1795502Y853503D01*
Y855502D01*
X1796502Y856502D01*
X1795502Y846505D02*
X1796502Y848505D01*
X1798501Y850504D01*
X1800500D01*
X1801500Y849504D01*
Y847505D01*
X1800500Y846505D01*
X1799501D01*
X1798501Y847505D01*
Y850504D01*
X1817002Y730001D02*
X1816002Y731001D01*
Y733000D01*
X1817002Y734000D01*
X1821000D01*
X1822000Y733000D01*
Y731001D01*
X1821000Y730001D01*
X1822000Y728002D02*
Y726003D01*
Y727002D01*
X1816002D01*
X1817002Y728002D01*
Y723004D02*
X1816002Y722004D01*
Y720005D01*
X1817002Y719005D01*
X1818001D01*
X1819001Y720005D01*
X1820001Y719005D01*
X1821000D01*
X1822000Y720005D01*
Y722004D01*
X1821000Y723004D01*
X1820001D01*
X1819001Y722004D01*
X1818001Y723004D01*
X1817002D01*
X1819001Y722004D02*
Y720005D01*
X1837502Y729501D02*
X1836502Y730501D01*
Y732500D01*
X1837502Y733500D01*
X1841500D01*
X1842500Y732500D01*
Y730501D01*
X1841500Y729501D01*
X1842500Y727502D02*
Y725503D01*
Y726502D01*
X1836502D01*
X1837502Y727502D01*
X1836502Y722504D02*
Y718505D01*
X1837502D01*
X1841500Y722504D01*
X1842500D01*
X1826502Y730501D02*
X1825502Y731501D01*
Y733500D01*
X1826502Y734500D01*
X1830500D01*
X1831500Y733500D01*
Y731501D01*
X1830500Y730501D01*
X1831500Y728502D02*
Y726503D01*
Y727502D01*
X1825502D01*
X1826502Y728502D01*
X1825502Y719505D02*
X1826502Y721504D01*
X1828501Y723504D01*
X1830500D01*
X1831500Y722504D01*
Y720505D01*
X1830500Y719505D01*
X1829501D01*
X1828501Y720505D01*
Y723504D01*
X1747501Y754998D02*
X1748501Y755998D01*
X1750500D01*
X1751500Y754998D01*
Y751000D01*
X1750500Y750000D01*
X1748501D01*
X1747501Y751000D01*
X1745502Y750000D02*
X1743503D01*
X1744502D01*
Y755998D01*
X1745502Y754998D01*
X1740504D02*
X1739504Y755998D01*
X1737505D01*
X1736505Y754998D01*
Y753999D01*
X1737505Y752999D01*
X1738504D01*
X1737505D01*
X1736505Y751999D01*
Y751000D01*
X1737505Y750000D01*
X1739504D01*
X1740504Y751000D01*
X1746501Y815498D02*
X1747501Y816498D01*
X1749500D01*
X1750500Y815498D01*
Y811500D01*
X1749500Y810500D01*
X1747501D01*
X1746501Y811500D01*
X1744502Y810500D02*
X1742503D01*
X1743502D01*
Y816498D01*
X1744502Y815498D01*
X1735505Y810500D02*
X1739504D01*
X1735505Y814499D01*
Y815498D01*
X1736505Y816498D01*
X1738504D01*
X1739504Y815498D01*
X1747001Y745998D02*
X1748001Y746998D01*
X1750000D01*
X1751000Y745998D01*
Y742000D01*
X1750000Y741000D01*
X1748001D01*
X1747001Y742000D01*
X1745002Y741000D02*
X1743003D01*
X1744002D01*
Y746998D01*
X1745002Y745998D01*
X1740004Y741000D02*
X1738004D01*
X1739004D01*
Y746998D01*
X1740004Y745998D01*
X1746501Y824498D02*
X1747501Y825498D01*
X1749500D01*
X1750500Y824498D01*
Y820500D01*
X1749500Y819500D01*
X1747501D01*
X1746501Y820500D01*
X1744502Y819500D02*
X1742503D01*
X1743502D01*
Y825498D01*
X1744502Y824498D01*
X1739504D02*
X1738504Y825498D01*
X1736505D01*
X1735505Y824498D01*
Y820500D01*
X1736505Y819500D01*
X1738504D01*
X1739504Y820500D01*
Y824498D01*
X1946002Y862501D02*
X1945002Y863501D01*
Y865500D01*
X1946002Y866500D01*
X1950000D01*
X1951000Y865500D01*
Y863501D01*
X1950000Y862501D01*
X1945002Y860502D02*
Y856503D01*
X1946002D01*
X1950000Y860502D01*
X1951000D01*
X1945002Y850505D02*
X1946002Y852505D01*
X1948001Y854504D01*
X1950000D01*
X1951000Y853504D01*
Y851505D01*
X1950000Y850505D01*
X1949001D01*
X1948001Y851505D01*
Y854504D01*
X1893501Y826998D02*
X1894501Y827998D01*
X1896500D01*
X1897500Y826998D01*
Y823000D01*
X1896500Y822000D01*
X1894501D01*
X1893501Y823000D01*
X1887503Y827998D02*
X1889503Y826998D01*
X1891502Y824999D01*
Y823000D01*
X1890502Y822000D01*
X1888503D01*
X1887503Y823000D01*
Y823999D01*
X1888503Y824999D01*
X1891502D01*
X1885504Y826998D02*
X1884504Y827998D01*
X1882505D01*
X1881505Y826998D01*
Y823000D01*
X1882505Y822000D01*
X1884504D01*
X1885504Y823000D01*
Y826998D01*
X1892474Y817308D02*
X1893473Y818307D01*
X1895473D01*
X1896472Y817308D01*
Y813309D01*
X1895473Y812309D01*
X1893473D01*
X1892474Y813309D01*
X1886476Y818307D02*
X1888475Y817308D01*
X1890474Y815308D01*
Y813309D01*
X1889475Y812309D01*
X1887475D01*
X1886476Y813309D01*
Y814309D01*
X1887475Y815308D01*
X1890474D01*
X1880478Y812309D02*
X1884476D01*
X1880478Y816308D01*
Y817308D01*
X1881477Y818307D01*
X1883477D01*
X1884476Y817308D01*
X1968002Y731001D02*
X1967002Y732001D01*
Y734000D01*
X1968002Y735000D01*
X1972000D01*
X1973000Y734000D01*
Y732001D01*
X1972000Y731001D01*
X1967002Y725003D02*
X1968002Y727003D01*
X1970001Y729002D01*
X1972000D01*
X1973000Y728002D01*
Y726003D01*
X1972000Y725003D01*
X1971001D01*
X1970001Y726003D01*
Y729002D01*
X1968002Y723004D02*
X1967002Y722004D01*
Y720005D01*
X1968002Y719005D01*
X1969001D01*
X1970001Y720005D01*
X1971001Y719005D01*
X1972000D01*
X1973000Y720005D01*
Y722004D01*
X1972000Y723004D01*
X1971001D01*
X1970001Y722004D01*
X1969001Y723004D01*
X1968002D01*
X1970001Y722004D02*
Y720005D01*
X1977002Y730501D02*
X1976002Y731501D01*
Y733500D01*
X1977002Y734500D01*
X1981000D01*
X1982000Y733500D01*
Y731501D01*
X1981000Y730501D01*
X1976002Y724503D02*
X1977002Y726503D01*
X1979001Y728502D01*
X1981000D01*
X1982000Y727502D01*
Y725503D01*
X1981000Y724503D01*
X1980001D01*
X1979001Y725503D01*
Y728502D01*
X1976002Y718505D02*
X1977002Y720505D01*
X1979001Y722504D01*
X1981000D01*
X1982000Y721504D01*
Y719505D01*
X1981000Y718505D01*
X1980001D01*
X1979001Y719505D01*
Y722504D01*
X1955502Y862501D02*
X1954502Y863501D01*
Y865500D01*
X1955502Y866500D01*
X1959500D01*
X1960500Y865500D01*
Y863501D01*
X1959500Y862501D01*
X1954502Y860502D02*
Y856503D01*
X1955502D01*
X1959500Y860502D01*
X1960500D01*
X1954502Y854504D02*
Y850505D01*
X1955502D01*
X1959500Y854504D01*
X1960500D01*
X1987002Y730001D02*
X1986002Y731001D01*
Y733000D01*
X1987002Y734000D01*
X1991000D01*
X1992000Y733000D01*
Y731001D01*
X1991000Y730001D01*
X1986002Y724003D02*
X1987002Y726003D01*
X1989001Y728002D01*
X1991000D01*
X1992000Y727002D01*
Y725003D01*
X1991000Y724003D01*
X1990001D01*
X1989001Y725003D01*
Y728002D01*
X1986002Y722004D02*
Y718005D01*
X1987002D01*
X1991000Y722004D01*
X1992000D01*
X1897001Y748998D02*
X1898001Y749998D01*
X1900000D01*
X1901000Y748998D01*
Y745000D01*
X1900000Y744000D01*
X1898001D01*
X1897001Y745000D01*
X1891003Y749998D02*
X1893003Y748998D01*
X1895002Y746999D01*
Y745000D01*
X1894002Y744000D01*
X1892003D01*
X1891003Y745000D01*
Y745999D01*
X1892003Y746999D01*
X1895002D01*
X1889004Y744000D02*
X1887004D01*
X1888004D01*
Y749998D01*
X1889004Y748998D01*
X1896001Y756498D02*
X1897001Y757498D01*
X1899000D01*
X1900000Y756498D01*
Y752500D01*
X1899000Y751500D01*
X1897001D01*
X1896001Y752500D01*
X1890003Y757498D02*
X1892003Y756498D01*
X1894002Y754499D01*
Y752500D01*
X1893002Y751500D01*
X1891003D01*
X1890003Y752500D01*
Y753499D01*
X1891003Y754499D01*
X1894002D01*
X1888004Y756498D02*
X1887004Y757498D01*
X1885005D01*
X1884005Y756498D01*
Y755499D01*
X1885005Y754499D01*
X1886004D01*
X1885005D01*
X1884005Y753499D01*
Y752500D01*
X1885005Y751500D01*
X1887004D01*
X1888004Y752500D01*
X1434001Y755498D02*
X1435001Y756498D01*
X1437000D01*
X1438000Y755498D01*
Y751500D01*
X1437000Y750500D01*
X1435001D01*
X1434001Y751500D01*
X1432002Y750500D02*
X1430003D01*
X1431002D01*
Y756498D01*
X1432002Y755498D01*
X1427004D02*
X1426004Y756498D01*
X1424004D01*
X1423005Y755498D01*
Y751500D01*
X1424004Y750500D01*
X1426004D01*
X1427004Y751500D01*
Y755498D01*
X1421006D02*
X1420006Y756498D01*
X1418007D01*
X1417007Y755498D01*
Y754499D01*
X1418007Y753499D01*
X1417007Y752499D01*
Y751500D01*
X1418007Y750500D01*
X1420006D01*
X1421006Y751500D01*
Y752499D01*
X1420006Y753499D01*
X1421006Y754499D01*
Y755498D01*
X1420006Y753499D02*
X1418007D01*
X1433001Y746998D02*
X1434001Y747998D01*
X1436000D01*
X1437000Y746998D01*
Y743000D01*
X1436000Y742000D01*
X1434001D01*
X1433001Y743000D01*
X1431002Y742000D02*
X1429003D01*
X1430002D01*
Y747998D01*
X1431002Y746998D01*
X1426004D02*
X1425004Y747998D01*
X1423005D01*
X1422005Y746998D01*
Y743000D01*
X1423005Y742000D01*
X1425004D01*
X1426004Y743000D01*
Y746998D01*
X1416007Y747998D02*
X1418006Y746998D01*
X1420006Y744999D01*
Y743000D01*
X1419006Y742000D01*
X1417006D01*
X1416007Y743000D01*
Y743999D01*
X1417006Y744999D01*
X1420006D01*
X1433001Y814998D02*
X1434001Y815998D01*
X1436000D01*
X1437000Y814998D01*
Y811000D01*
X1436000Y810000D01*
X1434001D01*
X1433001Y811000D01*
X1431002Y810000D02*
X1429003D01*
X1430002D01*
Y815998D01*
X1431002Y814998D01*
X1426004D02*
X1425004Y815998D01*
X1423005D01*
X1422005Y814998D01*
Y811000D01*
X1423005Y810000D01*
X1425004D01*
X1426004Y811000D01*
Y814998D01*
X1416007Y815998D02*
X1420006D01*
Y812999D01*
X1418006Y813999D01*
X1417006D01*
X1416007Y812999D01*
Y811000D01*
X1417006Y810000D01*
X1419006D01*
X1420006Y811000D01*
X1433501Y823498D02*
X1434501Y824498D01*
X1436500D01*
X1437500Y823498D01*
Y819500D01*
X1436500Y818500D01*
X1434501D01*
X1433501Y819500D01*
X1431502Y818500D02*
X1429503D01*
X1430502D01*
Y824498D01*
X1431502Y823498D01*
X1426504D02*
X1425504Y824498D01*
X1423505D01*
X1422505Y823498D01*
Y819500D01*
X1423505Y818500D01*
X1425504D01*
X1426504Y819500D01*
Y823498D01*
X1420506Y824498D02*
X1416507D01*
Y823498D01*
X1420506Y819500D01*
Y818500D01*
X1328002Y898001D02*
X1327002Y899001D01*
Y901000D01*
X1328002Y902000D01*
X1332000D01*
X1333000Y901000D01*
Y899001D01*
X1332000Y898001D01*
Y896002D02*
X1333000Y895002D01*
Y893003D01*
X1332000Y892003D01*
X1328002D01*
X1327002Y893003D01*
Y895002D01*
X1328002Y896002D01*
X1329001D01*
X1330001Y895002D01*
Y892003D01*
X1327002Y890004D02*
Y886005D01*
X1328002D01*
X1332000Y890004D01*
X1333000D01*
X1317002Y897001D02*
X1316002Y898001D01*
Y900000D01*
X1317002Y901000D01*
X1321000D01*
X1322000Y900000D01*
Y898001D01*
X1321000Y897001D01*
Y895002D02*
X1322000Y894002D01*
Y892003D01*
X1321000Y891003D01*
X1317002D01*
X1316002Y892003D01*
Y894002D01*
X1317002Y895002D01*
X1318001D01*
X1319001Y894002D01*
Y891003D01*
X1316002Y885005D02*
X1317002Y887004D01*
X1319001Y889004D01*
X1321000D01*
X1322000Y888004D01*
Y886005D01*
X1321000Y885005D01*
X1320001D01*
X1319001Y886005D01*
Y889004D01*
X1338502Y728001D02*
X1337502Y729001D01*
Y731000D01*
X1338502Y732000D01*
X1342500D01*
X1343500Y731000D01*
Y729001D01*
X1342500Y728001D01*
X1338502Y726002D02*
X1337502Y725002D01*
Y723003D01*
X1338502Y722003D01*
X1339501D01*
X1340501Y723003D01*
X1341501Y722003D01*
X1342500D01*
X1343500Y723003D01*
Y725002D01*
X1342500Y726002D01*
X1341501D01*
X1340501Y725002D01*
X1339501Y726002D01*
X1338502D01*
X1340501Y725002D02*
Y723003D01*
X1338502Y720004D02*
X1337502Y719004D01*
Y717005D01*
X1338502Y716005D01*
X1339501D01*
X1340501Y717005D01*
X1341501Y716005D01*
X1342500D01*
X1343500Y717005D01*
Y719004D01*
X1342500Y720004D01*
X1341501D01*
X1340501Y719004D01*
X1339501Y720004D01*
X1338502D01*
X1340501Y719004D02*
Y717005D01*
X1348502Y726501D02*
X1347502Y727501D01*
Y729500D01*
X1348502Y730500D01*
X1352500D01*
X1353500Y729500D01*
Y727501D01*
X1352500Y726501D01*
X1348502Y724502D02*
X1347502Y723502D01*
Y721503D01*
X1348502Y720503D01*
X1349501D01*
X1350501Y721503D01*
X1351501Y720503D01*
X1352500D01*
X1353500Y721503D01*
Y723502D01*
X1352500Y724502D01*
X1351501D01*
X1350501Y723502D01*
X1349501Y724502D01*
X1348502D01*
X1350501Y723502D02*
Y721503D01*
X1347502Y714505D02*
X1348502Y716504D01*
X1350501Y718504D01*
X1352500D01*
X1353500Y717504D01*
Y715505D01*
X1352500Y714505D01*
X1351501D01*
X1350501Y715505D01*
Y718504D01*
X1358502Y727501D02*
X1357502Y728501D01*
Y730500D01*
X1358502Y731500D01*
X1362500D01*
X1363500Y730500D01*
Y728501D01*
X1362500Y727501D01*
X1358502Y725502D02*
X1357502Y724502D01*
Y722503D01*
X1358502Y721503D01*
X1359501D01*
X1360501Y722503D01*
X1361501Y721503D01*
X1362500D01*
X1363500Y722503D01*
Y724502D01*
X1362500Y725502D01*
X1361501D01*
X1360501Y724502D01*
X1359501Y725502D01*
X1358502D01*
X1360501Y724502D02*
Y722503D01*
X1357502Y719504D02*
Y715505D01*
X1358502D01*
X1362500Y719504D01*
X1363500D01*
X1486879Y814494D02*
X1487879Y815494D01*
X1489878D01*
X1490878Y814494D01*
Y810496D01*
X1489878Y809496D01*
X1487879D01*
X1486879Y810496D01*
X1484880Y809496D02*
X1482880D01*
X1483880D01*
Y815494D01*
X1484880Y814494D01*
X1479881Y809496D02*
X1477882D01*
X1478882D01*
Y815494D01*
X1479881Y814494D01*
X1474883D02*
X1473884Y815494D01*
X1471884D01*
X1470884Y814494D01*
Y810496D01*
X1471884Y809496D01*
X1473884D01*
X1474883Y810496D01*
Y814494D01*
X1487379Y822994D02*
X1488379Y823994D01*
X1490378D01*
X1491378Y822994D01*
Y818996D01*
X1490378Y817996D01*
X1488379D01*
X1487379Y818996D01*
X1485380Y817996D02*
X1483381D01*
X1484380D01*
Y823994D01*
X1485380Y822994D01*
X1480381Y817996D02*
X1478382D01*
X1479382D01*
Y823994D01*
X1480381Y822994D01*
X1471384Y817996D02*
X1475383D01*
X1471384Y821995D01*
Y822994D01*
X1472384Y823994D01*
X1474384D01*
X1475383Y822994D01*
X1486879Y746494D02*
X1487879Y747494D01*
X1489878D01*
X1490878Y746494D01*
Y742496D01*
X1489878Y741496D01*
X1487879D01*
X1486879Y742496D01*
X1484880Y741496D02*
X1482880D01*
X1483880D01*
Y747494D01*
X1484880Y746494D01*
X1479881Y741496D02*
X1477882D01*
X1478882D01*
Y747494D01*
X1479881Y746494D01*
X1474883Y741496D02*
X1472884D01*
X1473884D01*
Y747494D01*
X1474883Y746494D01*
X1487879Y754994D02*
X1488879Y755994D01*
X1490878D01*
X1491878Y754994D01*
Y750996D01*
X1490878Y749996D01*
X1488879D01*
X1487879Y750996D01*
X1485880Y749996D02*
X1483881D01*
X1484880D01*
Y755994D01*
X1485880Y754994D01*
X1480882Y749996D02*
X1478882D01*
X1479882D01*
Y755994D01*
X1480882Y754994D01*
X1475883D02*
X1474883Y755994D01*
X1472884D01*
X1471884Y754994D01*
Y753995D01*
X1472884Y752995D01*
X1473884D01*
X1472884D01*
X1471884Y751995D01*
Y750996D01*
X1472884Y749996D01*
X1474883D01*
X1475883Y750996D01*
X1541883Y814246D02*
X1542883Y815246D01*
X1544882D01*
X1545882Y814246D01*
Y810248D01*
X1544882Y809248D01*
X1542883D01*
X1541883Y810248D01*
X1539884Y809248D02*
X1537885D01*
X1538884D01*
Y815246D01*
X1539884Y814246D01*
X1534885Y809248D02*
X1532886D01*
X1533886D01*
Y815246D01*
X1534885Y814246D01*
X1525888Y815246D02*
X1529887D01*
Y812247D01*
X1527888Y813247D01*
X1526888D01*
X1525888Y812247D01*
Y810248D01*
X1526888Y809248D01*
X1528887D01*
X1529887Y810248D01*
X1542383Y822746D02*
X1543383Y823746D01*
X1545382D01*
X1546382Y822746D01*
Y818748D01*
X1545382Y817748D01*
X1543383D01*
X1542383Y818748D01*
X1540384Y817748D02*
X1538385D01*
X1539384D01*
Y823746D01*
X1540384Y822746D01*
X1535385Y817748D02*
X1533386D01*
X1534386D01*
Y823746D01*
X1535385Y822746D01*
X1530387Y823746D02*
X1526388D01*
Y822746D01*
X1530387Y818748D01*
Y817748D01*
X1541883Y746246D02*
X1542883Y747246D01*
X1544882D01*
X1545882Y746246D01*
Y742248D01*
X1544882Y741248D01*
X1542883D01*
X1541883Y742248D01*
X1539884Y741248D02*
X1537885D01*
X1538884D01*
Y747246D01*
X1539884Y746246D01*
X1534885Y741248D02*
X1532886D01*
X1533886D01*
Y747246D01*
X1534885Y746246D01*
X1525888Y747246D02*
X1527888Y746246D01*
X1529887Y744247D01*
Y742248D01*
X1528887Y741248D01*
X1526888D01*
X1525888Y742248D01*
Y743247D01*
X1526888Y744247D01*
X1529887D01*
X1542883Y754746D02*
X1543883Y755746D01*
X1545882D01*
X1546882Y754746D01*
Y750748D01*
X1545882Y749748D01*
X1543883D01*
X1542883Y750748D01*
X1540884Y749748D02*
X1538885D01*
X1539884D01*
Y755746D01*
X1540884Y754746D01*
X1535885Y749748D02*
X1533886D01*
X1534886D01*
Y755746D01*
X1535885Y754746D01*
X1530887D02*
X1529887Y755746D01*
X1527888D01*
X1526888Y754746D01*
Y753747D01*
X1527888Y752747D01*
X1526888Y751747D01*
Y750748D01*
X1527888Y749748D01*
X1529887D01*
X1530887Y750748D01*
Y751747D01*
X1529887Y752747D01*
X1530887Y753747D01*
Y754746D01*
X1529887Y752747D02*
X1527888D01*
X900502Y900501D02*
X899502Y901501D01*
Y903500D01*
X900502Y904500D01*
X904500D01*
X905500Y903500D01*
Y901501D01*
X904500Y900501D01*
X905500Y898502D02*
Y896503D01*
Y897502D01*
X899502D01*
X900502Y898502D01*
Y893504D02*
X899502Y892504D01*
Y890504D01*
X900502Y889505D01*
X901501D01*
X902501Y890504D01*
Y891504D01*
Y890504D01*
X903501Y889505D01*
X904500D01*
X905500Y890504D01*
Y892504D01*
X904500Y893504D01*
X899502Y883507D02*
X900502Y885506D01*
X902501Y887506D01*
X904500D01*
X905500Y886506D01*
Y884507D01*
X904500Y883507D01*
X903501D01*
X902501Y884507D01*
Y887506D01*
X850001Y824498D02*
X851001Y825498D01*
X853000D01*
X854000Y824498D01*
Y820500D01*
X853000Y819500D01*
X851001D01*
X850001Y820500D01*
X848002Y819500D02*
X846003D01*
X847002D01*
Y825498D01*
X848002Y824498D01*
X839005Y819500D02*
X843004D01*
X839005Y823499D01*
Y824498D01*
X840005Y825498D01*
X842004D01*
X843004Y824498D01*
X837006D02*
X836006Y825498D01*
X834007D01*
X833007Y824498D01*
Y820500D01*
X834007Y819500D01*
X836006D01*
X837006Y820500D01*
Y824498D01*
X850501Y816498D02*
X851501Y817498D01*
X853500D01*
X854500Y816498D01*
Y812500D01*
X853500Y811500D01*
X851501D01*
X850501Y812500D01*
X848502Y811500D02*
X846503D01*
X847502D01*
Y817498D01*
X848502Y816498D01*
X839505Y811500D02*
X843504D01*
X839505Y815499D01*
Y816498D01*
X840504Y817498D01*
X842504D01*
X843504Y816498D01*
X833507Y811500D02*
X837506D01*
X833507Y815499D01*
Y816498D01*
X834507Y817498D01*
X836506D01*
X837506Y816498D01*
X921502Y772001D02*
X920502Y773001D01*
Y775000D01*
X921502Y776000D01*
X925500D01*
X926500Y775000D01*
Y773001D01*
X925500Y772001D01*
X926500Y770002D02*
Y768003D01*
Y769002D01*
X920502D01*
X921502Y770002D01*
X926500Y761005D02*
Y765004D01*
X922501Y761005D01*
X921502D01*
X920502Y762005D01*
Y764004D01*
X921502Y765004D01*
Y759005D02*
X920502Y758006D01*
Y756006D01*
X921502Y755007D01*
X922501D01*
X923501Y756006D01*
X924501Y755007D01*
X925500D01*
X926500Y756006D01*
Y758006D01*
X925500Y759005D01*
X924501D01*
X923501Y758006D01*
X922501Y759005D01*
X921502D01*
X923501Y758006D02*
Y756006D01*
X931002Y772501D02*
X930002Y773501D01*
Y775500D01*
X931002Y776500D01*
X935000D01*
X936000Y775500D01*
Y773501D01*
X935000Y772501D01*
X936000Y770502D02*
Y768503D01*
Y769502D01*
X930002D01*
X931002Y770502D01*
X936000Y761505D02*
Y765504D01*
X932001Y761505D01*
X931002D01*
X930002Y762504D01*
Y764504D01*
X931002Y765504D01*
X930002Y755507D02*
X931002Y757506D01*
X933001Y759506D01*
X935000D01*
X936000Y758506D01*
Y756506D01*
X935000Y755507D01*
X934001D01*
X933001Y756506D01*
Y759506D01*
X909502Y900001D02*
X908502Y901001D01*
Y903000D01*
X909502Y904000D01*
X913500D01*
X914500Y903000D01*
Y901001D01*
X913500Y900001D01*
X914500Y898002D02*
Y896003D01*
Y897002D01*
X908502D01*
X909502Y898002D01*
Y893004D02*
X908502Y892004D01*
Y890005D01*
X909502Y889005D01*
X910501D01*
X911501Y890005D01*
Y891004D01*
Y890005D01*
X912501Y889005D01*
X913500D01*
X914500Y890005D01*
Y892004D01*
X913500Y893004D01*
X908502Y887006D02*
Y883007D01*
X909502D01*
X913500Y887006D01*
X914500D01*
X941002Y772501D02*
X940002Y773501D01*
Y775500D01*
X941002Y776500D01*
X945000D01*
X946000Y775500D01*
Y773501D01*
X945000Y772501D01*
X946000Y770502D02*
Y768503D01*
Y769502D01*
X940002D01*
X941002Y770502D01*
X946000Y761505D02*
Y765504D01*
X942001Y761505D01*
X941002D01*
X940002Y762504D01*
Y764504D01*
X941002Y765504D01*
X940002Y759506D02*
Y755507D01*
X941002D01*
X945000Y759506D01*
X946000D01*
X851001Y745998D02*
X852001Y746998D01*
X854000D01*
X855000Y745998D01*
Y742000D01*
X854000Y741000D01*
X852001D01*
X851001Y742000D01*
X849002Y741000D02*
X847003D01*
X848002D01*
Y746998D01*
X849002Y745998D01*
X840005Y741000D02*
X844004D01*
X840005Y744999D01*
Y745998D01*
X841004Y746998D01*
X843004D01*
X844004Y745998D01*
X838006Y741000D02*
X836006D01*
X837006D01*
Y746998D01*
X838006Y745998D01*
X851501Y753998D02*
X852501Y754998D01*
X854500D01*
X855500Y753998D01*
Y750000D01*
X854500Y749000D01*
X852501D01*
X851501Y750000D01*
X849502Y749000D02*
X847503D01*
X848502D01*
Y754998D01*
X849502Y753998D01*
X840505Y749000D02*
X844504D01*
X840505Y752999D01*
Y753998D01*
X841504Y754998D01*
X843504D01*
X844504Y753998D01*
X838505D02*
X837506Y754998D01*
X835507D01*
X834507Y753998D01*
Y752999D01*
X835507Y751999D01*
X836506D01*
X835507D01*
X834507Y750999D01*
Y750000D01*
X835507Y749000D01*
X837506D01*
X838505Y750000D01*
X1051502Y898501D02*
X1050502Y899501D01*
Y901500D01*
X1051502Y902500D01*
X1055500D01*
X1056500Y901500D01*
Y899501D01*
X1055500Y898501D01*
X1056500Y896502D02*
Y894503D01*
Y895502D01*
X1050502D01*
X1051502Y896502D01*
X1050502Y887505D02*
X1051502Y889504D01*
X1053501Y891504D01*
X1055500D01*
X1056500Y890504D01*
Y888505D01*
X1055500Y887505D01*
X1054501D01*
X1053501Y888505D01*
Y891504D01*
X1056500Y885505D02*
Y883506D01*
Y884506D01*
X1050502D01*
X1051502Y885505D01*
X1002001Y824998D02*
X1003001Y825998D01*
X1005000D01*
X1006000Y824998D01*
Y821000D01*
X1005000Y820000D01*
X1003001D01*
X1002001Y821000D01*
X1000002Y820000D02*
X998003D01*
X999002D01*
Y825998D01*
X1000002Y824998D01*
X992004Y820000D02*
Y825998D01*
X995004Y822999D01*
X991005D01*
X985007Y825998D02*
X989005D01*
Y822999D01*
X987006Y823999D01*
X986007D01*
X985007Y822999D01*
Y821000D01*
X986007Y820000D01*
X988006D01*
X989005Y821000D01*
X1002001Y816498D02*
X1003001Y817498D01*
X1005000D01*
X1006000Y816498D01*
Y812500D01*
X1005000Y811500D01*
X1003001D01*
X1002001Y812500D01*
X1000002Y811500D02*
X998003D01*
X999002D01*
Y817498D01*
X1000002Y816498D01*
X992004Y811500D02*
Y817498D01*
X995004Y814499D01*
X991005D01*
X989005Y817498D02*
X985007D01*
Y816498D01*
X989005Y812500D01*
Y811500D01*
X1076998Y717499D02*
X1077998Y716499D01*
Y714500D01*
X1076998Y713500D01*
X1073000D01*
X1072000Y714500D01*
Y716499D01*
X1073000Y717499D01*
X1072000Y719498D02*
Y721497D01*
Y720498D01*
X1077998D01*
X1076998Y719498D01*
X1077998Y728495D02*
Y724496D01*
X1074999D01*
X1075999Y726496D01*
Y727495D01*
X1074999Y728495D01*
X1073000D01*
X1072000Y727495D01*
Y725496D01*
X1073000Y724496D01*
X1076998Y730494D02*
X1077998Y731494D01*
Y733494D01*
X1076998Y734493D01*
X1075999D01*
X1074999Y733494D01*
Y732494D01*
Y733494D01*
X1073999Y734493D01*
X1073000D01*
X1072000Y733494D01*
Y731494D01*
X1073000Y730494D01*
X1086498Y719499D02*
X1087498Y718499D01*
Y716500D01*
X1086498Y715500D01*
X1082500D01*
X1081500Y716500D01*
Y718499D01*
X1082500Y719499D01*
X1081500Y721498D02*
Y723497D01*
Y722498D01*
X1087498D01*
X1086498Y721498D01*
X1087498Y730495D02*
Y726496D01*
X1084499D01*
X1085499Y728496D01*
Y729495D01*
X1084499Y730495D01*
X1082500D01*
X1081500Y729495D01*
Y727496D01*
X1082500Y726496D01*
X1081500Y732494D02*
Y734494D01*
Y733494D01*
X1087498D01*
X1086498Y732494D01*
X1060502Y900501D02*
X1059502Y901501D01*
Y903500D01*
X1060502Y904500D01*
X1064500D01*
X1065500Y903500D01*
Y901501D01*
X1064500Y900501D01*
X1065500Y898502D02*
Y896503D01*
Y897502D01*
X1059502D01*
X1060502Y898502D01*
X1059502Y889505D02*
X1060502Y891504D01*
X1062501Y893504D01*
X1064500D01*
X1065500Y892504D01*
Y890504D01*
X1064500Y889505D01*
X1063501D01*
X1062501Y890504D01*
Y893504D01*
X1065500Y883507D02*
Y887506D01*
X1061501Y883507D01*
X1060502D01*
X1059502Y884507D01*
Y886506D01*
X1060502Y887506D01*
X1095998Y716999D02*
X1096998Y715999D01*
Y714000D01*
X1095998Y713000D01*
X1092000D01*
X1091000Y714000D01*
Y715999D01*
X1092000Y716999D01*
X1091000Y718998D02*
Y720997D01*
Y719998D01*
X1096998D01*
X1095998Y718998D01*
X1096998Y727995D02*
Y723996D01*
X1093999D01*
X1094999Y725996D01*
Y726996D01*
X1093999Y727995D01*
X1092000D01*
X1091000Y726996D01*
Y724996D01*
X1092000Y723996D01*
X1091000Y733993D02*
Y729994D01*
X1094999Y733993D01*
X1095998D01*
X1096998Y732994D01*
Y730994D01*
X1095998Y729994D01*
X1000501Y745998D02*
X1001501Y746998D01*
X1003500D01*
X1004500Y745998D01*
Y742000D01*
X1003500Y741000D01*
X1001501D01*
X1000501Y742000D01*
X998502Y741000D02*
X996503D01*
X997502D01*
Y746998D01*
X998502Y745998D01*
X990504Y741000D02*
Y746998D01*
X993504Y743999D01*
X989505D01*
X983507Y746998D02*
X985506Y745998D01*
X987506Y743999D01*
Y742000D01*
X986506Y741000D01*
X984507D01*
X983507Y742000D01*
Y742999D01*
X984507Y743999D01*
X987506D01*
X1000001Y754998D02*
X1001001Y755998D01*
X1003000D01*
X1004000Y754998D01*
Y751000D01*
X1003000Y750000D01*
X1001001D01*
X1000001Y751000D01*
X998002Y750000D02*
X996003D01*
X997002D01*
Y755998D01*
X998002Y754998D01*
X990005Y750000D02*
Y755998D01*
X993004Y752999D01*
X989005D01*
X987006Y754998D02*
X986006Y755998D01*
X984007D01*
X983007Y754998D01*
Y753999D01*
X984007Y752999D01*
X983007Y751999D01*
Y751000D01*
X984007Y750000D01*
X986006D01*
X987006Y751000D01*
Y751999D01*
X986006Y752999D01*
X987006Y753999D01*
Y754998D01*
X986006Y752999D02*
X984007D01*
X1197502Y901001D02*
X1196502Y902001D01*
Y904000D01*
X1197502Y905000D01*
X1201500D01*
X1202500Y904000D01*
Y902001D01*
X1201500Y901001D01*
X1202500Y899002D02*
Y897003D01*
Y898002D01*
X1196502D01*
X1197502Y899002D01*
Y894004D02*
X1196502Y893004D01*
Y891004D01*
X1197502Y890005D01*
X1198501D01*
X1199501Y891004D01*
X1200501Y890005D01*
X1201500D01*
X1202500Y891004D01*
Y893004D01*
X1201500Y894004D01*
X1200501D01*
X1199501Y893004D01*
X1198501Y894004D01*
X1197502D01*
X1199501Y893004D02*
Y891004D01*
X1196502Y884007D02*
X1197502Y886006D01*
X1199501Y888006D01*
X1201500D01*
X1202500Y887006D01*
Y885007D01*
X1201500Y884007D01*
X1200501D01*
X1199501Y885007D01*
Y888006D01*
X1143501Y823498D02*
X1144501Y824498D01*
X1146500D01*
X1147500Y823498D01*
Y819500D01*
X1146500Y818500D01*
X1144501D01*
X1143501Y819500D01*
X1141502Y818500D02*
X1139503D01*
X1140502D01*
Y824498D01*
X1141502Y823498D01*
X1136504Y824498D02*
X1132505D01*
Y823498D01*
X1136504Y819500D01*
Y818500D01*
X1130505Y823498D02*
X1129506Y824498D01*
X1127507D01*
X1126507Y823498D01*
Y819500D01*
X1127507Y818500D01*
X1129506D01*
X1130505Y819500D01*
Y823498D01*
X1143001Y814998D02*
X1144001Y815998D01*
X1146000D01*
X1147000Y814998D01*
Y811000D01*
X1146000Y810000D01*
X1144001D01*
X1143001Y811000D01*
X1141002Y810000D02*
X1139003D01*
X1140002D01*
Y815998D01*
X1141002Y814998D01*
X1136004Y815998D02*
X1132005D01*
Y814998D01*
X1136004Y811000D01*
Y810000D01*
X1126007D02*
X1130005D01*
X1126007Y813999D01*
Y814998D01*
X1127007Y815998D01*
X1129006D01*
X1130005Y814998D01*
X1218002Y727501D02*
X1217002Y728501D01*
Y730500D01*
X1218002Y731500D01*
X1222000D01*
X1223000Y730500D01*
Y728501D01*
X1222000Y727501D01*
X1223000Y725502D02*
Y723503D01*
Y724502D01*
X1217002D01*
X1218002Y725502D01*
X1217002Y720504D02*
Y716505D01*
X1218002D01*
X1222000Y720504D01*
X1223000D01*
X1218002Y714505D02*
X1217002Y713506D01*
Y711507D01*
X1218002Y710507D01*
X1219001D01*
X1220001Y711507D01*
X1221001Y710507D01*
X1222000D01*
X1223000Y711507D01*
Y713506D01*
X1222000Y714505D01*
X1221001D01*
X1220001Y713506D01*
X1219001Y714505D01*
X1218002D01*
X1220001Y713506D02*
Y711507D01*
X1227502Y728001D02*
X1226502Y729001D01*
Y731000D01*
X1227502Y732000D01*
X1231500D01*
X1232500Y731000D01*
Y729001D01*
X1231500Y728001D01*
X1232500Y726002D02*
Y724003D01*
Y725002D01*
X1226502D01*
X1227502Y726002D01*
X1226502Y721004D02*
Y717005D01*
X1227502D01*
X1231500Y721004D01*
X1232500D01*
X1226502Y711007D02*
X1227502Y713006D01*
X1229501Y715005D01*
X1231500D01*
X1232500Y714006D01*
Y712007D01*
X1231500Y711007D01*
X1230501D01*
X1229501Y712007D01*
Y715005D01*
X1207502Y902001D02*
X1206502Y903001D01*
Y905000D01*
X1207502Y906000D01*
X1211500D01*
X1212500Y905000D01*
Y903001D01*
X1211500Y902001D01*
X1212500Y900002D02*
Y898003D01*
Y899002D01*
X1206502D01*
X1207502Y900002D01*
Y895004D02*
X1206502Y894004D01*
Y892004D01*
X1207502Y891005D01*
X1208501D01*
X1209501Y892004D01*
X1210501Y891005D01*
X1211500D01*
X1212500Y892004D01*
Y894004D01*
X1211500Y895004D01*
X1210501D01*
X1209501Y894004D01*
X1208501Y895004D01*
X1207502D01*
X1209501Y894004D02*
Y892004D01*
X1206502Y889005D02*
Y885007D01*
X1207502D01*
X1211500Y889005D01*
X1212500D01*
X1239502Y727501D02*
X1238502Y728501D01*
Y730500D01*
X1239502Y731500D01*
X1243500D01*
X1244500Y730500D01*
Y728501D01*
X1243500Y727501D01*
X1244500Y725502D02*
Y723503D01*
Y724502D01*
X1238502D01*
X1239502Y725502D01*
X1238502Y720504D02*
Y716505D01*
X1239502D01*
X1243500Y720504D01*
X1244500D01*
X1238502Y714505D02*
Y710507D01*
X1239502D01*
X1243500Y714505D01*
X1244500D01*
X1148501Y745498D02*
X1149501Y746498D01*
X1151500D01*
X1152500Y745498D01*
Y741500D01*
X1151500Y740500D01*
X1149501D01*
X1148501Y741500D01*
X1146502Y740500D02*
X1144503D01*
X1145502D01*
Y746498D01*
X1146502Y745498D01*
X1141504Y746498D02*
X1137505D01*
Y745498D01*
X1141504Y741500D01*
Y740500D01*
X1135505D02*
X1133506D01*
X1134506D01*
Y746498D01*
X1135505Y745498D01*
X1145501Y754498D02*
X1146501Y755498D01*
X1148500D01*
X1149500Y754498D01*
Y750500D01*
X1148500Y749500D01*
X1146501D01*
X1145501Y750500D01*
X1143502Y749500D02*
X1141503D01*
X1142502D01*
Y755498D01*
X1143502Y754498D01*
X1138504Y755498D02*
X1134505D01*
Y754498D01*
X1138504Y750500D01*
Y749500D01*
X1132506Y754498D02*
X1131506Y755498D01*
X1129506D01*
X1128507Y754498D01*
Y753499D01*
X1129506Y752499D01*
X1130506D01*
X1129506D01*
X1128507Y751499D01*
Y750500D01*
X1129506Y749500D01*
X1131506D01*
X1132506Y750500D01*
X870501Y629640D02*
X871501Y630640D01*
X873500D01*
X874500Y629640D01*
Y625641D01*
X873500Y624642D01*
X871501D01*
X870501Y625641D01*
X868502Y624642D02*
X866503D01*
X867502D01*
Y630640D01*
X868502Y629640D01*
X863504Y625641D02*
X862504Y624642D01*
X860505D01*
X859505Y625641D01*
Y629640D01*
X860505Y630640D01*
X862504D01*
X863504Y629640D01*
Y628640D01*
X862504Y627641D01*
X859505D01*
X853507Y630640D02*
X857506D01*
Y627641D01*
X855506Y628640D01*
X854506D01*
X853507Y627641D01*
Y625641D01*
X854506Y624642D01*
X856506D01*
X857506Y625641D01*
X924501Y650640D02*
X925501Y651640D01*
X927500D01*
X928500Y650640D01*
Y646641D01*
X927500Y645642D01*
X925501D01*
X924501Y646641D01*
X922502Y645642D02*
X920503D01*
X921502D01*
Y651640D01*
X922502Y650640D01*
X917504Y646641D02*
X916504Y645642D01*
X914505D01*
X913505Y646641D01*
Y650640D01*
X914505Y651640D01*
X916504D01*
X917504Y650640D01*
Y649640D01*
X916504Y648641D01*
X913505D01*
X907507Y651640D02*
X909506Y650640D01*
X911506Y648641D01*
Y646641D01*
X910506Y645642D01*
X908506D01*
X907507Y646641D01*
Y647641D01*
X908506Y648641D01*
X911506D01*
X846001Y629498D02*
X847001Y630498D01*
X849000D01*
X850000Y629498D01*
Y625500D01*
X849000Y624500D01*
X847001D01*
X846001Y625500D01*
X844002Y624500D02*
X842003D01*
X843002D01*
Y630498D01*
X844002Y629498D01*
X839004Y625500D02*
X838004Y624500D01*
X836005D01*
X835005Y625500D01*
Y629498D01*
X836005Y630498D01*
X838004D01*
X839004Y629498D01*
Y628499D01*
X838004Y627499D01*
X835005D01*
X833006Y630498D02*
X829007D01*
Y629498D01*
X833006Y625500D01*
Y624500D01*
X899501Y597498D02*
X900501Y598498D01*
X902500D01*
X903500Y597498D01*
Y593500D01*
X902500Y592500D01*
X900501D01*
X899501Y593500D01*
X897502Y592500D02*
X895503D01*
X896502D01*
Y598498D01*
X897502Y597498D01*
X892504Y593500D02*
X891504Y592500D01*
X889505D01*
X888505Y593500D01*
Y597498D01*
X889505Y598498D01*
X891504D01*
X892504Y597498D01*
Y596499D01*
X891504Y595499D01*
X888505D01*
X886506Y597498D02*
X885506Y598498D01*
X883506D01*
X882507Y597498D01*
Y596499D01*
X883506Y595499D01*
X882507Y594499D01*
Y593500D01*
X883506Y592500D01*
X885506D01*
X886506Y593500D01*
Y594499D01*
X885506Y595499D01*
X886506Y596499D01*
Y597498D01*
X885506Y595499D02*
X883506D01*
X857001Y614750D02*
X858001Y615750D01*
X860000D01*
X861000Y614750D01*
Y610752D01*
X860000Y609752D01*
X858001D01*
X857001Y610752D01*
X855002Y609752D02*
X853003D01*
X854002D01*
Y615750D01*
X855002Y614750D01*
X850004Y610752D02*
X849004Y609752D01*
X847005D01*
X846005Y610752D01*
Y614750D01*
X847005Y615750D01*
X849004D01*
X850004Y614750D01*
Y613751D01*
X849004Y612751D01*
X846005D01*
X844005Y610752D02*
X843006Y609752D01*
X841006D01*
X840007Y610752D01*
Y614750D01*
X841006Y615750D01*
X843006D01*
X844005Y614750D01*
Y613751D01*
X843006Y612751D01*
X840007D01*
X850501Y686498D02*
X851501Y687498D01*
X853500D01*
X854500Y686498D01*
Y682500D01*
X853500Y681500D01*
X851501D01*
X850501Y682500D01*
X844503Y681500D02*
X848502D01*
X844503Y685499D01*
Y686498D01*
X845503Y687498D01*
X847502D01*
X848502Y686498D01*
X842504D02*
X841504Y687498D01*
X839505D01*
X838505Y686498D01*
Y682500D01*
X839505Y681500D01*
X841504D01*
X842504Y682500D01*
Y686498D01*
X836506D02*
X835506Y687498D01*
X833507D01*
X832507Y686498D01*
Y682500D01*
X833507Y681500D01*
X835506D01*
X836506Y682500D01*
Y686498D01*
X850001Y667998D02*
X851001Y668998D01*
X853000D01*
X854000Y667998D01*
Y664000D01*
X853000Y663000D01*
X851001D01*
X850001Y664000D01*
X844003Y663000D02*
X848002D01*
X844003Y666999D01*
Y667998D01*
X845003Y668998D01*
X847002D01*
X848002Y667998D01*
X842004D02*
X841004Y668998D01*
X839005D01*
X838005Y667998D01*
Y664000D01*
X839005Y663000D01*
X841004D01*
X842004Y664000D01*
Y667998D01*
X836006Y663000D02*
X834007D01*
X835006D01*
Y668998D01*
X836006Y667998D01*
X849501Y677498D02*
X850501Y678498D01*
X852500D01*
X853500Y677498D01*
Y673500D01*
X852500Y672500D01*
X850501D01*
X849501Y673500D01*
X843503Y672500D02*
X847502D01*
X843503Y676499D01*
Y677498D01*
X844503Y678498D01*
X846502D01*
X847502Y677498D01*
X841504D02*
X840504Y678498D01*
X838505D01*
X837505Y677498D01*
Y673500D01*
X838505Y672500D01*
X840504D01*
X841504Y673500D01*
Y677498D01*
X831507Y672500D02*
X835506D01*
X831507Y676499D01*
Y677498D01*
X832507Y678498D01*
X834506D01*
X835506Y677498D01*
X922501Y667998D02*
X923501Y668998D01*
X925500D01*
X926500Y667998D01*
Y664000D01*
X925500Y663000D01*
X923501D01*
X922501Y664000D01*
X916503Y663000D02*
X920502D01*
X916503Y666999D01*
Y667998D01*
X917503Y668998D01*
X919502D01*
X920502Y667998D01*
X914504D02*
X913504Y668998D01*
X911505D01*
X910505Y667998D01*
Y664000D01*
X911505Y663000D01*
X913504D01*
X914504Y664000D01*
Y667998D01*
X908506D02*
X907506Y668998D01*
X905507D01*
X904507Y667998D01*
Y666999D01*
X905507Y665999D01*
X906507D01*
X905507D01*
X904507Y664999D01*
Y664000D01*
X905507Y663000D01*
X907506D01*
X908506Y664000D01*
X921501Y684998D02*
X922501Y685998D01*
X924500D01*
X925500Y684998D01*
Y681000D01*
X924500Y680000D01*
X922501D01*
X921501Y681000D01*
X915503Y680000D02*
X919502D01*
X915503Y683999D01*
Y684998D01*
X916503Y685998D01*
X918502D01*
X919502Y684998D01*
X913504D02*
X912504Y685998D01*
X910505D01*
X909505Y684998D01*
Y681000D01*
X910505Y680000D01*
X912504D01*
X913504Y681000D01*
Y684998D01*
X904507Y680000D02*
Y685998D01*
X907506Y682999D01*
X903507D01*
X921749Y676498D02*
X922749Y677498D01*
X924748D01*
X925748Y676498D01*
Y672500D01*
X924748Y671500D01*
X922749D01*
X921749Y672500D01*
X915751Y671500D02*
X919750D01*
X915751Y675499D01*
Y676498D01*
X916751Y677498D01*
X918750D01*
X919750Y676498D01*
X913752D02*
X912752Y677498D01*
X910753D01*
X909753Y676498D01*
Y672500D01*
X910753Y671500D01*
X912752D01*
X913752Y672500D01*
Y676498D01*
X903755Y677498D02*
X907754D01*
Y674499D01*
X905754Y675499D01*
X904755D01*
X903755Y674499D01*
Y672500D01*
X904755Y671500D01*
X906754D01*
X907754Y672500D01*
X1503501Y696998D02*
X1504501Y697998D01*
X1506500D01*
X1507500Y696998D01*
Y693000D01*
X1506500Y692000D01*
X1504501D01*
X1503501Y693000D01*
X1497503Y692000D02*
X1501502D01*
X1497503Y695999D01*
Y696998D01*
X1498503Y697998D01*
X1500502D01*
X1501502Y696998D01*
X1495504Y692000D02*
X1493505D01*
X1494504D01*
Y697998D01*
X1495504Y696998D01*
X1490506Y693000D02*
X1489506Y692000D01*
X1487506D01*
X1486507Y693000D01*
Y696998D01*
X1487506Y697998D01*
X1489506D01*
X1490506Y696998D01*
Y695999D01*
X1489506Y694999D01*
X1486507D01*
X1534201Y697798D02*
X1535201Y698798D01*
X1537200D01*
X1538200Y697798D01*
Y693800D01*
X1537200Y692800D01*
X1535201D01*
X1534201Y693800D01*
X1528203Y692800D02*
X1532202D01*
X1528203Y696799D01*
Y697798D01*
X1529203Y698798D01*
X1531202D01*
X1532202Y697798D01*
X1522205Y692800D02*
X1526204D01*
X1522205Y696799D01*
Y697798D01*
X1523205Y698798D01*
X1525204D01*
X1526204Y697798D01*
X1520206Y693800D02*
X1519206Y692800D01*
X1517207D01*
X1516207Y693800D01*
Y697798D01*
X1517207Y698798D01*
X1519206D01*
X1520206Y697798D01*
Y696799D01*
X1519206Y695799D01*
X1516207D01*
X1675001Y697998D02*
X1676001Y698998D01*
X1678000D01*
X1679000Y697998D01*
Y694000D01*
X1678000Y693000D01*
X1676001D01*
X1675001Y694000D01*
X1669003Y693000D02*
X1673002D01*
X1669003Y696999D01*
Y697998D01*
X1670003Y698998D01*
X1672002D01*
X1673002Y697998D01*
X1664005Y693000D02*
Y698998D01*
X1667004Y695999D01*
X1663005D01*
X1657007Y698998D02*
X1659007Y697998D01*
X1661006Y695999D01*
Y694000D01*
X1660006Y693000D01*
X1658007D01*
X1657007Y694000D01*
Y694999D01*
X1658007Y695999D01*
X1661006D01*
X1451201Y698098D02*
X1452201Y699098D01*
X1454200D01*
X1455200Y698098D01*
Y694100D01*
X1454200Y693100D01*
X1452201D01*
X1451201Y694100D01*
X1445203Y693100D02*
X1449202D01*
X1445203Y697099D01*
Y698098D01*
X1446203Y699098D01*
X1448202D01*
X1449202Y698098D01*
X1443204Y693100D02*
X1441204D01*
X1442204D01*
Y699098D01*
X1443204Y698098D01*
X1434207Y699098D02*
X1438206D01*
Y696099D01*
X1436206Y697099D01*
X1435207D01*
X1434207Y696099D01*
Y694100D01*
X1435207Y693100D01*
X1437206D01*
X1438206Y694100D01*
X1445001Y707498D02*
X1446001Y708498D01*
X1448000D01*
X1449000Y707498D01*
Y703500D01*
X1448000Y702500D01*
X1446001D01*
X1445001Y703500D01*
X1439003Y702500D02*
X1443002D01*
X1439003Y706499D01*
Y707498D01*
X1440003Y708498D01*
X1442002D01*
X1443002Y707498D01*
X1437004Y702500D02*
X1435005D01*
X1436004D01*
Y708498D01*
X1437004Y707498D01*
X1429006Y702500D02*
Y708498D01*
X1432006Y705499D01*
X1428007D01*
X1493001Y705998D02*
X1494001Y706998D01*
X1496000D01*
X1497000Y705998D01*
Y702000D01*
X1496000Y701000D01*
X1494001D01*
X1493001Y702000D01*
X1487003Y701000D02*
X1491002D01*
X1487003Y704999D01*
Y705998D01*
X1488003Y706998D01*
X1490002D01*
X1491002Y705998D01*
X1485004Y701000D02*
X1483004D01*
X1484004D01*
Y706998D01*
X1485004Y705998D01*
X1480005D02*
X1479006Y706998D01*
X1477007D01*
X1476007Y705998D01*
Y704999D01*
X1477007Y703999D01*
X1476007Y702999D01*
Y702000D01*
X1477007Y701000D01*
X1479006D01*
X1480005Y702000D01*
Y702999D01*
X1479006Y703999D01*
X1480005Y704999D01*
Y705998D01*
X1479006Y703999D02*
X1477007D01*
X1528001Y706498D02*
X1529001Y707498D01*
X1531000D01*
X1532000Y706498D01*
Y702500D01*
X1531000Y701500D01*
X1529001D01*
X1528001Y702500D01*
X1522003Y701500D02*
X1526002D01*
X1522003Y705499D01*
Y706498D01*
X1523003Y707498D01*
X1525002D01*
X1526002Y706498D01*
X1516005Y701500D02*
X1520004D01*
X1516005Y705499D01*
Y706498D01*
X1517005Y707498D01*
X1519004D01*
X1520004Y706498D01*
X1514006D02*
X1513006Y707498D01*
X1511007D01*
X1510007Y706498D01*
Y705499D01*
X1511007Y704499D01*
X1510007Y703499D01*
Y702500D01*
X1511007Y701500D01*
X1513006D01*
X1514006Y702500D01*
Y703499D01*
X1513006Y704499D01*
X1514006Y705499D01*
Y706498D01*
X1513006Y704499D02*
X1511007D01*
X1575001Y706998D02*
X1576001Y707998D01*
X1578000D01*
X1579000Y706998D01*
Y703000D01*
X1578000Y702000D01*
X1576001D01*
X1575001Y703000D01*
X1569003Y702000D02*
X1573002D01*
X1569003Y705999D01*
Y706998D01*
X1570003Y707998D01*
X1572002D01*
X1573002Y706998D01*
X1567004D02*
X1566004Y707998D01*
X1564005D01*
X1563005Y706998D01*
Y705999D01*
X1564005Y704999D01*
X1565005D01*
X1564005D01*
X1563005Y703999D01*
Y703000D01*
X1564005Y702000D01*
X1566004D01*
X1567004Y703000D01*
X1557007Y702000D02*
X1561006D01*
X1557007Y705999D01*
Y706998D01*
X1558007Y707998D01*
X1560006D01*
X1561006Y706998D01*
X1589501Y697998D02*
X1590501Y698998D01*
X1592500D01*
X1593500Y697998D01*
Y694000D01*
X1592500Y693000D01*
X1590501D01*
X1589501Y694000D01*
X1583503Y693000D02*
X1587502D01*
X1583503Y696999D01*
Y697998D01*
X1584503Y698998D01*
X1586502D01*
X1587502Y697998D01*
X1581504D02*
X1580504Y698998D01*
X1578505D01*
X1577505Y697998D01*
Y696999D01*
X1578505Y695999D01*
X1579504D01*
X1578505D01*
X1577505Y694999D01*
Y694000D01*
X1578505Y693000D01*
X1580504D01*
X1581504Y694000D01*
X1575506Y697998D02*
X1574506Y698998D01*
X1572507D01*
X1571507Y697998D01*
Y696999D01*
X1572507Y695999D01*
X1573507D01*
X1572507D01*
X1571507Y694999D01*
Y694000D01*
X1572507Y693000D01*
X1574506D01*
X1575506Y694000D01*
X1612001Y707498D02*
X1613001Y708498D01*
X1615000D01*
X1616000Y707498D01*
Y703500D01*
X1615000Y702500D01*
X1613001D01*
X1612001Y703500D01*
X1606003Y702500D02*
X1610002D01*
X1606003Y706499D01*
Y707498D01*
X1607003Y708498D01*
X1609002D01*
X1610002Y707498D01*
X1601005Y702500D02*
Y708498D01*
X1604004Y705499D01*
X1600005D01*
X1594007Y702500D02*
X1598006D01*
X1594007Y706499D01*
Y707498D01*
X1595007Y708498D01*
X1597006D01*
X1598006Y707498D01*
X1618201Y698598D02*
X1619201Y699598D01*
X1621200D01*
X1622200Y698598D01*
Y694600D01*
X1621200Y693600D01*
X1619201D01*
X1618201Y694600D01*
X1612203Y693600D02*
X1616202D01*
X1612203Y697599D01*
Y698598D01*
X1613203Y699598D01*
X1615202D01*
X1616202Y698598D01*
X1607205Y693600D02*
Y699598D01*
X1610204Y696599D01*
X1606205D01*
X1604206Y698598D02*
X1603206Y699598D01*
X1601207D01*
X1600207Y698598D01*
Y697599D01*
X1601207Y696599D01*
X1602206D01*
X1601207D01*
X1600207Y695599D01*
Y694600D01*
X1601207Y693600D01*
X1603206D01*
X1604206Y694600D01*
X1661001Y704498D02*
X1662001Y705498D01*
X1664000D01*
X1665000Y704498D01*
Y700500D01*
X1664000Y699500D01*
X1662001D01*
X1661001Y700500D01*
X1655003Y699500D02*
X1659002D01*
X1655003Y703499D01*
Y704498D01*
X1656003Y705498D01*
X1658002D01*
X1659002Y704498D01*
X1650005Y699500D02*
Y705498D01*
X1653004Y702499D01*
X1649005D01*
X1647006Y705498D02*
X1643007D01*
Y704498D01*
X1647006Y700500D01*
Y699500D01*
X1131001Y697998D02*
X1132001Y698998D01*
X1134000D01*
X1135000Y697998D01*
Y694000D01*
X1134000Y693000D01*
X1132001D01*
X1131001Y694000D01*
X1125003Y693000D02*
X1129002D01*
X1125003Y696999D01*
Y697998D01*
X1126003Y698998D01*
X1128002D01*
X1129002Y697998D01*
X1119005Y698998D02*
X1121004Y697998D01*
X1123004Y695999D01*
Y694000D01*
X1122004Y693000D01*
X1120005D01*
X1119005Y694000D01*
Y694999D01*
X1120005Y695999D01*
X1123004D01*
X1113007Y698998D02*
X1115007Y697998D01*
X1117006Y695999D01*
Y694000D01*
X1116006Y693000D01*
X1114007D01*
X1113007Y694000D01*
Y694999D01*
X1114007Y695999D01*
X1117006D01*
X1161201Y699098D02*
X1162201Y700098D01*
X1164200D01*
X1165200Y699098D01*
Y695100D01*
X1164200Y694100D01*
X1162201D01*
X1161201Y695100D01*
X1155203Y694100D02*
X1159202D01*
X1155203Y698099D01*
Y699098D01*
X1156203Y700098D01*
X1158202D01*
X1159202Y699098D01*
X1153204Y700098D02*
X1149205D01*
Y699098D01*
X1153204Y695100D01*
Y694100D01*
X1147206D02*
X1145207D01*
X1146206D01*
Y700098D01*
X1147206Y699098D01*
X994201Y698598D02*
X995201Y699598D01*
X997200D01*
X998200Y698598D01*
Y694600D01*
X997200Y693600D01*
X995201D01*
X994201Y694600D01*
X988203Y693600D02*
X992202D01*
X988203Y697599D01*
Y698598D01*
X989203Y699598D01*
X991202D01*
X992202Y698598D01*
X982205Y699598D02*
X986204D01*
Y696599D01*
X984204Y697599D01*
X983205D01*
X982205Y696599D01*
Y694600D01*
X983205Y693600D01*
X985204D01*
X986204Y694600D01*
X980206Y699598D02*
X976207D01*
Y698598D01*
X980206Y694600D01*
Y693600D01*
X1048501Y697498D02*
X1049501Y698498D01*
X1051500D01*
X1052500Y697498D01*
Y693500D01*
X1051500Y692500D01*
X1049501D01*
X1048501Y693500D01*
X1042503Y692500D02*
X1046502D01*
X1042503Y696499D01*
Y697498D01*
X1043503Y698498D01*
X1045502D01*
X1046502Y697498D01*
X1036505Y698498D02*
X1040504D01*
Y695499D01*
X1038505Y696499D01*
X1037505D01*
X1036505Y695499D01*
Y693500D01*
X1037505Y692500D01*
X1039504D01*
X1040504Y693500D01*
X1034506D02*
X1033506Y692500D01*
X1031507D01*
X1030507Y693500D01*
Y697498D01*
X1031507Y698498D01*
X1033506D01*
X1034506Y697498D01*
Y696499D01*
X1033506Y695499D01*
X1030507D01*
X1038501Y705998D02*
X1039501Y706998D01*
X1041500D01*
X1042500Y705998D01*
Y702000D01*
X1041500Y701000D01*
X1039501D01*
X1038501Y702000D01*
X1032503Y701000D02*
X1036502D01*
X1032503Y704999D01*
Y705998D01*
X1033503Y706998D01*
X1035502D01*
X1036502Y705998D01*
X1026505Y706998D02*
X1030504D01*
Y703999D01*
X1028504Y704999D01*
X1027505D01*
X1026505Y703999D01*
Y702000D01*
X1027505Y701000D01*
X1029504D01*
X1030504Y702000D01*
X1024506Y705998D02*
X1023506Y706998D01*
X1021507D01*
X1020507Y705998D01*
Y704999D01*
X1021507Y703999D01*
X1020507Y702999D01*
Y702000D01*
X1021507Y701000D01*
X1023506D01*
X1024506Y702000D01*
Y702999D01*
X1023506Y703999D01*
X1024506Y704999D01*
Y705998D01*
X1023506Y703999D02*
X1021507D01*
X1077201Y698398D02*
X1078201Y699398D01*
X1080200D01*
X1081200Y698398D01*
Y694400D01*
X1080200Y693400D01*
X1078201D01*
X1077201Y694400D01*
X1071203Y693400D02*
X1075202D01*
X1071203Y697399D01*
Y698398D01*
X1072203Y699398D01*
X1074202D01*
X1075202Y698398D01*
X1065205Y699398D02*
X1067204Y698398D01*
X1069204Y696399D01*
Y694400D01*
X1068204Y693400D01*
X1066205D01*
X1065205Y694400D01*
Y695399D01*
X1066205Y696399D01*
X1069204D01*
X1060207Y693400D02*
Y699398D01*
X1063206Y696399D01*
X1059207D01*
X1070501Y706998D02*
X1071501Y707998D01*
X1073500D01*
X1074500Y706998D01*
Y703000D01*
X1073500Y702000D01*
X1071501D01*
X1070501Y703000D01*
X1064503Y702000D02*
X1068502D01*
X1064503Y705999D01*
Y706998D01*
X1065503Y707998D01*
X1067502D01*
X1068502Y706998D01*
X1058505Y707998D02*
X1060505Y706998D01*
X1062504Y704999D01*
Y703000D01*
X1061504Y702000D01*
X1059505D01*
X1058505Y703000D01*
Y703999D01*
X1059505Y704999D01*
X1062504D01*
X1056506Y706998D02*
X1055506Y707998D01*
X1053507D01*
X1052507Y706998D01*
Y705999D01*
X1053507Y704999D01*
X1054506D01*
X1053507D01*
X1052507Y703999D01*
Y703000D01*
X1053507Y702000D01*
X1055506D01*
X1056506Y703000D01*
X1154001Y707998D02*
X1155001Y708998D01*
X1157000D01*
X1158000Y707998D01*
Y704000D01*
X1157000Y703000D01*
X1155001D01*
X1154001Y704000D01*
X1148003Y703000D02*
X1152002D01*
X1148003Y706999D01*
Y707998D01*
X1149003Y708998D01*
X1151002D01*
X1152002Y707998D01*
X1146004Y708998D02*
X1142005D01*
Y707998D01*
X1146004Y704000D01*
Y703000D01*
X1140006Y707998D02*
X1139006Y708998D01*
X1137007D01*
X1136007Y707998D01*
Y704000D01*
X1137007Y703000D01*
X1139006D01*
X1140006Y704000D01*
Y707998D01*
X1210001Y706498D02*
X1211001Y707498D01*
X1213000D01*
X1214000Y706498D01*
Y702500D01*
X1213000Y701500D01*
X1211001D01*
X1210001Y702500D01*
X1204003Y701500D02*
X1208002D01*
X1204003Y705499D01*
Y706498D01*
X1205003Y707498D01*
X1207002D01*
X1208002Y706498D01*
X1202004Y707498D02*
X1198005D01*
Y706498D01*
X1202004Y702500D01*
Y701500D01*
X1196006Y706498D02*
X1195006Y707498D01*
X1193007D01*
X1192007Y706498D01*
Y705499D01*
X1193007Y704499D01*
X1194007D01*
X1193007D01*
X1192007Y703499D01*
Y702500D01*
X1193007Y701500D01*
X1195006D01*
X1196006Y702500D01*
X987001Y707498D02*
X988001Y708498D01*
X990000D01*
X991000Y707498D01*
Y703500D01*
X990000Y702500D01*
X988001D01*
X987001Y703500D01*
X981003Y702500D02*
X985002D01*
X981003Y706499D01*
Y707498D01*
X982003Y708498D01*
X984002D01*
X985002Y707498D01*
X975005Y708498D02*
X979004D01*
Y705499D01*
X977005Y706499D01*
X976005D01*
X975005Y705499D01*
Y703500D01*
X976005Y702500D01*
X978004D01*
X979004Y703500D01*
X969007Y708498D02*
X971006Y707498D01*
X973006Y705499D01*
Y703500D01*
X972006Y702500D01*
X970007D01*
X969007Y703500D01*
Y704499D01*
X970007Y705499D01*
X973006D01*
X1122501Y706498D02*
X1123501Y707498D01*
X1125500D01*
X1126500Y706498D01*
Y702500D01*
X1125500Y701500D01*
X1123501D01*
X1122501Y702500D01*
X1116503Y701500D02*
X1120502D01*
X1116503Y705499D01*
Y706498D01*
X1117503Y707498D01*
X1119502D01*
X1120502Y706498D01*
X1110505Y707498D02*
X1112504Y706498D01*
X1114504Y704499D01*
Y702500D01*
X1113504Y701500D01*
X1111505D01*
X1110505Y702500D01*
Y703499D01*
X1111505Y704499D01*
X1114504D01*
X1104507Y707498D02*
X1108506D01*
Y704499D01*
X1106507Y705499D01*
X1105507D01*
X1104507Y704499D01*
Y702500D01*
X1105507Y701500D01*
X1107506D01*
X1108506Y702500D01*
X1219501Y698498D02*
X1220501Y699498D01*
X1222500D01*
X1223500Y698498D01*
Y694500D01*
X1222500Y693500D01*
X1220501D01*
X1219501Y694500D01*
X1213503Y693500D02*
X1217502D01*
X1213503Y697499D01*
Y698498D01*
X1214503Y699498D01*
X1216502D01*
X1217502Y698498D01*
X1211504Y699498D02*
X1207505D01*
Y698498D01*
X1211504Y694500D01*
Y693500D01*
X1201507D02*
X1205506D01*
X1201507Y697499D01*
Y698498D01*
X1202507Y699498D01*
X1204506D01*
X1205506Y698498D01*
D48*
X1236091Y736429D02*
X1240028D01*
X1236091D02*
Y752571D01*
X1243965D01*
Y736429D02*
Y752571D01*
X1240028Y736429D02*
X1243965D01*
X1089563D02*
X1093500D01*
X1089563D02*
Y752571D01*
X1097437D01*
Y736429D02*
Y752571D01*
X1093500Y736429D02*
X1097437D01*
X939063D02*
X943000D01*
X939063D02*
Y752571D01*
X946937D01*
Y736429D02*
Y752571D01*
X943000Y736429D02*
X946937D01*
X1356563Y736402D02*
X1360500D01*
X1356563D02*
Y752543D01*
X1364437D01*
Y736402D02*
Y752543D01*
X1360500Y736402D02*
X1364437D01*
X1984563Y738929D02*
X1988500D01*
X1984563D02*
Y755071D01*
X1992437D01*
Y738929D02*
Y755071D01*
X1988500Y738929D02*
X1992437D01*
X1684591Y736429D02*
X1688528D01*
X1684591D02*
Y752571D01*
X1692465D01*
Y736429D02*
Y752571D01*
X1688528Y736429D02*
X1692465D01*
X1834591D02*
X1838528D01*
X1834591D02*
Y752571D01*
X1842465D01*
Y736429D02*
Y752571D01*
X1838528Y736429D02*
X1842465D01*
D52*
X977752Y585700D02*
X990752D01*
Y592300D01*
X977752D02*
X990752D01*
X977752Y585700D02*
Y592300D01*
X1197204Y678248D02*
Y691248D01*
Y678248D02*
X1203804D01*
Y691248D01*
X1197204D02*
X1203804D01*
X1204204Y678248D02*
Y691248D01*
Y678248D02*
X1210804D01*
Y691248D01*
X1204204D02*
X1210804D01*
X1165804Y677748D02*
Y690748D01*
X1159204D02*
X1165804D01*
X1159204Y677748D02*
Y690748D01*
Y677748D02*
X1165804D01*
X1159304D02*
Y690748D01*
X1152704D02*
X1159304D01*
X1152704Y677748D02*
Y690748D01*
Y677748D02*
X1159304D01*
X1118204D02*
Y690748D01*
Y677748D02*
X1124804D01*
Y690748D01*
X1118204D02*
X1124804D01*
X1112204Y677500D02*
Y690500D01*
Y677500D02*
X1118804D01*
Y690500D01*
X1112204D02*
X1118804D01*
X1081804Y677000D02*
Y690000D01*
X1075204D02*
X1081804D01*
X1075204Y677000D02*
Y690000D01*
Y677000D02*
X1081804D01*
X1075304Y676748D02*
Y689748D01*
X1068704D02*
X1075304D01*
X1068704Y676748D02*
Y689748D01*
Y676748D02*
X1075304D01*
X1034704Y677000D02*
Y690000D01*
Y677000D02*
X1041304D01*
Y690000D01*
X1034704D02*
X1041304D01*
X1028704Y677000D02*
Y690000D01*
Y677000D02*
X1035304D01*
Y690000D01*
X1028704D02*
X1035304D01*
X998804Y677248D02*
Y690248D01*
X992204D02*
X998804D01*
X992204Y677248D02*
Y690248D01*
Y677248D02*
X998804D01*
X991804D02*
Y690248D01*
X985204D02*
X991804D01*
X985204Y677248D02*
Y690248D01*
Y677248D02*
X991804D01*
X1913700Y677748D02*
Y690748D01*
Y677748D02*
X1920300D01*
Y690748D01*
X1913700D02*
X1920300D01*
X1920700Y677748D02*
Y690748D01*
Y677748D02*
X1927300D01*
Y690748D01*
X1920700D02*
X1927300D01*
X1654200Y677748D02*
Y690748D01*
Y677748D02*
X1660800D01*
Y690748D01*
X1654200D02*
X1660800D01*
X1661200Y677748D02*
Y690748D01*
Y677748D02*
X1667800D01*
Y690748D01*
X1661200D02*
X1667800D01*
X1882300Y677248D02*
Y690248D01*
X1875700D02*
X1882300D01*
X1875700Y677248D02*
Y690248D01*
Y677248D02*
X1882300D01*
X1875800D02*
Y690248D01*
X1869200D02*
X1875800D01*
X1869200Y677248D02*
Y690248D01*
Y677248D02*
X1875800D01*
X1622800D02*
Y690248D01*
X1616200D02*
X1622800D01*
X1616200Y677248D02*
Y690248D01*
Y677248D02*
X1622800D01*
X1616300D02*
Y690248D01*
X1609700D02*
X1616300D01*
X1609700Y677248D02*
Y690248D01*
Y677248D02*
X1616300D01*
X1834700D02*
Y690248D01*
Y677248D02*
X1841300D01*
Y690248D01*
X1834700D02*
X1841300D01*
X1828700Y677000D02*
Y690000D01*
Y677000D02*
X1835300D01*
Y690000D01*
X1828700D02*
X1835300D01*
X1575200Y677248D02*
Y690248D01*
Y677248D02*
X1581800D01*
Y690248D01*
X1575200D02*
X1581800D01*
X1569200Y677000D02*
Y690000D01*
Y677000D02*
X1575800D01*
Y690000D01*
X1569200D02*
X1575800D01*
X1798300Y676500D02*
Y689500D01*
X1791700D02*
X1798300D01*
X1791700Y676500D02*
Y689500D01*
Y676500D02*
X1798300D01*
X1791800Y676248D02*
Y689248D01*
X1785200D02*
X1791800D01*
X1785200Y676248D02*
Y689248D01*
Y676248D02*
X1791800D01*
X1538800Y676500D02*
Y689500D01*
X1532200D02*
X1538800D01*
X1532200Y676500D02*
Y689500D01*
Y676500D02*
X1538800D01*
X1532300Y676248D02*
Y689248D01*
X1525700D02*
X1532300D01*
X1525700Y676248D02*
Y689248D01*
Y676248D02*
X1532300D01*
X1751200Y676500D02*
Y689500D01*
Y676500D02*
X1757800D01*
Y689500D01*
X1751200D02*
X1757800D01*
X1745200Y676500D02*
Y689500D01*
Y676500D02*
X1751800D01*
Y689500D01*
X1745200D02*
X1751800D01*
X1491700Y676500D02*
Y689500D01*
Y676500D02*
X1498300D01*
Y689500D01*
X1491700D02*
X1498300D01*
X1485700Y676500D02*
Y689500D01*
Y676500D02*
X1492300D01*
Y689500D01*
X1485700D02*
X1492300D01*
X1715300Y676748D02*
Y689748D01*
X1708700D02*
X1715300D01*
X1708700Y676748D02*
Y689748D01*
Y676748D02*
X1715300D01*
X1708300D02*
Y689748D01*
X1701700D02*
X1708300D01*
X1701700Y676748D02*
Y689748D01*
Y676748D02*
X1708300D01*
X1455800D02*
Y689748D01*
X1449200D02*
X1455800D01*
X1449200Y676748D02*
Y689748D01*
Y676748D02*
X1455800D01*
X1448800D02*
Y689748D01*
X1442200D02*
X1448800D01*
X1442200Y676748D02*
Y689748D01*
Y676748D02*
X1448800D01*
X887748Y671700D02*
X900748D01*
Y678300D01*
X887748D02*
X900748D01*
X887748Y671700D02*
Y678300D01*
Y680700D02*
X900748D01*
Y687300D01*
X887748D02*
X900748D01*
X887748Y680700D02*
Y687300D01*
Y663200D02*
X900748D01*
Y669800D01*
X887748D02*
X900748D01*
X887748Y663200D02*
Y669800D01*
X858748Y671700D02*
X871748D01*
Y678300D01*
X858748D02*
X871748D01*
X858748Y671700D02*
Y678300D01*
Y663200D02*
X871748D01*
Y669800D01*
X858748D02*
X871748D01*
X858748Y663200D02*
Y669800D01*
Y680700D02*
X871748D01*
Y687300D01*
X858748D02*
X871748D01*
X858748Y680700D02*
Y687300D01*
X865200Y606252D02*
Y619252D01*
Y606252D02*
X871800D01*
Y619252D01*
X865200D02*
X871800D01*
X1205228Y868252D02*
Y881252D01*
Y868252D02*
X1211828D01*
Y881252D01*
X1205228D02*
X1211828D01*
X1196228Y868252D02*
Y881252D01*
Y868252D02*
X1202828D01*
Y881252D01*
X1196228D02*
X1202828D01*
X1218228Y737748D02*
Y750748D01*
Y737748D02*
X1224828D01*
Y750748D01*
X1218228D02*
X1224828D01*
X1226728Y737748D02*
Y750748D01*
Y737748D02*
X1233328D01*
Y750748D01*
X1226728D02*
X1233328D01*
X1156400Y748896D02*
X1169400D01*
Y755496D01*
X1156400D02*
X1169400D01*
X1156400Y748896D02*
Y755496D01*
X1155648Y817496D02*
X1168648D01*
X1155648Y810896D02*
Y817496D01*
Y810896D02*
X1168648D01*
Y817496D01*
X1156400Y740896D02*
X1169400D01*
Y747496D01*
X1156400D02*
X1169400D01*
X1156400Y740896D02*
Y747496D01*
X1155648Y825096D02*
X1168648D01*
X1155648Y818496D02*
Y825096D01*
Y818496D02*
X1168648D01*
Y825096D01*
X1058700Y868252D02*
Y881252D01*
Y868252D02*
X1065300D01*
Y881252D01*
X1058700D02*
X1065300D01*
X1049700Y868252D02*
Y881252D01*
Y868252D02*
X1056300D01*
Y881252D01*
X1049700D02*
X1056300D01*
X1071700Y737748D02*
Y750748D01*
Y737748D02*
X1078300D01*
Y750748D01*
X1071700D02*
X1078300D01*
X1080200Y737748D02*
Y750748D01*
Y737748D02*
X1086800D01*
Y750748D01*
X1080200D02*
X1086800D01*
X1009872Y748896D02*
X1022872D01*
Y755496D01*
X1009872D02*
X1022872D01*
X1009872Y748896D02*
Y755496D01*
X1009120Y817496D02*
X1022120D01*
X1009120Y810896D02*
Y817496D01*
Y810896D02*
X1022120D01*
Y817496D01*
X1009872Y740896D02*
X1022872D01*
Y747496D01*
X1009872D02*
X1022872D01*
X1009872Y740896D02*
Y747496D01*
X1009120Y825096D02*
X1022120D01*
X1009120Y818496D02*
Y825096D01*
Y818496D02*
X1022120D01*
Y825096D01*
X908200Y868252D02*
Y881252D01*
Y868252D02*
X914800D01*
Y881252D01*
X908200D02*
X914800D01*
X899200Y868252D02*
Y881252D01*
Y868252D02*
X905800D01*
Y881252D01*
X899200D02*
X905800D01*
X921200Y737748D02*
Y750748D01*
Y737748D02*
X927800D01*
Y750748D01*
X921200D02*
X927800D01*
X929700Y737748D02*
Y750748D01*
Y737748D02*
X936300D01*
Y750748D01*
X929700D02*
X936300D01*
X859372Y748896D02*
X872372D01*
Y755496D01*
X859372D02*
X872372D01*
X859372Y748896D02*
Y755496D01*
X858620Y817496D02*
X871620D01*
X858620Y810896D02*
Y817496D01*
Y810896D02*
X871620D01*
Y817496D01*
X859372Y740896D02*
X872372D01*
Y747496D01*
X859372D02*
X872372D01*
X859372Y740896D02*
Y747496D01*
X858620Y825096D02*
X871620D01*
X858620Y818496D02*
Y825096D01*
Y818496D02*
X871620D01*
Y825096D01*
X1549500Y748948D02*
X1562500D01*
Y755548D01*
X1549500D02*
X1562500D01*
X1549500Y748948D02*
Y755548D01*
X1549000Y823048D02*
X1562000D01*
X1549000Y816448D02*
Y823048D01*
Y816448D02*
X1562000D01*
Y823048D01*
X1549752Y740948D02*
X1562752D01*
Y747548D01*
X1549752D02*
X1562752D01*
X1549752Y740948D02*
Y747548D01*
X1549000Y815548D02*
X1562000D01*
X1549000Y808948D02*
Y815548D01*
Y808948D02*
X1562000D01*
Y815548D01*
X1494496Y749196D02*
X1507496D01*
Y755796D01*
X1494496D02*
X1507496D01*
X1494496Y749196D02*
Y755796D01*
X1493996Y823296D02*
X1506996D01*
X1493996Y816696D02*
Y823296D01*
Y816696D02*
X1506996D01*
Y823296D01*
X1494748Y741196D02*
X1507748D01*
Y747796D01*
X1494748D02*
X1507748D01*
X1494748Y741196D02*
Y747796D01*
X1493996Y815796D02*
X1506996D01*
X1493996Y809196D02*
Y815796D01*
Y809196D02*
X1506996D01*
Y815796D01*
X1440618Y749700D02*
X1453618D01*
Y756300D01*
X1440618D02*
X1453618D01*
X1440618Y749700D02*
Y756300D01*
X1440118Y823800D02*
X1453118D01*
X1440118Y817200D02*
Y823800D01*
Y817200D02*
X1453118D01*
Y823800D01*
X1440870Y741700D02*
X1453870D01*
Y748300D01*
X1440870D02*
X1453870D01*
X1440870Y741700D02*
Y748300D01*
X1440118Y816300D02*
X1453118D01*
X1440118Y809700D02*
Y816300D01*
Y809700D02*
X1453118D01*
Y816300D01*
X1325700Y868224D02*
Y881224D01*
Y868224D02*
X1332300D01*
Y881224D01*
X1325700D02*
X1332300D01*
X1316700Y868224D02*
Y881224D01*
Y868224D02*
X1323300D01*
Y881224D01*
X1316700D02*
X1323300D01*
X1338700Y737720D02*
Y750721D01*
Y737720D02*
X1345300D01*
Y750721D01*
X1338700D02*
X1345300D01*
X1347200Y737720D02*
Y750721D01*
Y737720D02*
X1353800D01*
Y750721D01*
X1347200D02*
X1353800D01*
X1953700Y870752D02*
Y883752D01*
Y870752D02*
X1960300D01*
Y883752D01*
X1953700D02*
X1960300D01*
X1944700Y870752D02*
Y883752D01*
Y870752D02*
X1951300D01*
Y883752D01*
X1944700D02*
X1951300D01*
X1966700Y740248D02*
Y753248D01*
Y740248D02*
X1973300D01*
Y753248D01*
X1966700D02*
X1973300D01*
X1975200Y740248D02*
Y753248D01*
Y740248D02*
X1981800D01*
Y753248D01*
X1975200D02*
X1981800D01*
X1904872Y751396D02*
X1917872D01*
Y757996D01*
X1904872D02*
X1917872D01*
X1904872Y751396D02*
Y757996D01*
X1904120Y819996D02*
X1917121D01*
X1904120Y813396D02*
Y819996D01*
Y813396D02*
X1917121D01*
Y819996D01*
X1904872Y743396D02*
X1917872D01*
Y749996D01*
X1904872D02*
X1917872D01*
X1904872Y743396D02*
Y749996D01*
X1904120Y827596D02*
X1917121D01*
X1904120Y820996D02*
Y827596D01*
Y820996D02*
X1917121D01*
Y827596D01*
X1653728Y868252D02*
Y881252D01*
Y868252D02*
X1660328D01*
Y881252D01*
X1653728D02*
X1660328D01*
X1644728Y868252D02*
Y881252D01*
Y868252D02*
X1651328D01*
Y881252D01*
X1644728D02*
X1651328D01*
X1666728Y737748D02*
Y750748D01*
Y737748D02*
X1673328D01*
Y750748D01*
X1666728D02*
X1673328D01*
X1675228Y737748D02*
Y750748D01*
Y737748D02*
X1681828D01*
Y750748D01*
X1675228D02*
X1681828D01*
X1604900Y748896D02*
X1617900D01*
Y755496D01*
X1604900D02*
X1617900D01*
X1604900Y748896D02*
Y755496D01*
X1604148Y817496D02*
X1617148D01*
X1604148Y810896D02*
Y817496D01*
Y810896D02*
X1617148D01*
Y817496D01*
X1604900Y740896D02*
X1617900D01*
Y747496D01*
X1604900D02*
X1617900D01*
X1604900Y740896D02*
Y747496D01*
X1604148Y825096D02*
X1617148D01*
X1604148Y818496D02*
Y825096D01*
Y818496D02*
X1617148D01*
Y825096D01*
X1803728Y868252D02*
Y881252D01*
Y868252D02*
X1810328D01*
Y881252D01*
X1803728D02*
X1810328D01*
X1794728Y868252D02*
Y881252D01*
Y868252D02*
X1801328D01*
Y881252D01*
X1794728D02*
X1801328D01*
X1816728Y737748D02*
Y750748D01*
Y737748D02*
X1823328D01*
Y750748D01*
X1816728D02*
X1823328D01*
X1825228Y737748D02*
Y750748D01*
Y737748D02*
X1831828D01*
Y750748D01*
X1825228D02*
X1831828D01*
X1754900Y748896D02*
X1767900D01*
Y755496D01*
X1754900D02*
X1767900D01*
X1754900Y748896D02*
Y755496D01*
X1754148Y817496D02*
X1767148D01*
X1754148Y810896D02*
Y817496D01*
Y810896D02*
X1767148D01*
Y817496D01*
X1754900Y740896D02*
X1767900D01*
Y747496D01*
X1754900D02*
X1767900D01*
X1754900Y740896D02*
Y747496D01*
X1754148Y825096D02*
X1767148D01*
X1754148Y818496D02*
Y825096D01*
Y818496D02*
X1767148D01*
Y825096D01*
M02*
