G04 Layer_Color=16711935*
%FSLAX25Y25*%
%MOIN*%
G70*
G01*
G75*
%ADD32C,0.01000*%
%ADD58C,0.00394*%
%ADD59C,0.00600*%
D32*
X778500Y1899000D02*
X1416409D01*
X1477591D02*
X2115500D01*
X778500D02*
X784500Y1901000D01*
X778500Y1899000D02*
X784500Y1897000D01*
X2109500Y1901000D02*
X2115500Y1899000D01*
X2109500Y1897000D02*
X2115500Y1899000D01*
X778500Y1898000D02*
Y1900000D01*
X2115500Y1898000D02*
Y1900000D01*
X2118500Y559500D02*
Y1197409D01*
Y1258591D02*
Y1896500D01*
X2116500Y565500D02*
X2118500Y559500D01*
X2120500Y565500D01*
X2116500Y1890500D02*
X2118500Y1896500D01*
X2120500Y1890500D01*
X2117500Y559500D02*
X2119500D01*
X2117500Y1896500D02*
X2119500D01*
D58*
X1179642Y688799D02*
G03*
X1179642Y688799I-1969J0D01*
G01*
X1094642D02*
G03*
X1094642Y688799I-1969J0D01*
G01*
X1011142D02*
G03*
X1011142Y688799I-1969J0D01*
G01*
X1896138Y688299D02*
G03*
X1896138Y688299I-1969J0D01*
G01*
X1636638D02*
G03*
X1636638Y688299I-1969J0D01*
G01*
X1811138D02*
G03*
X1811138Y688299I-1969J0D01*
G01*
X1551638D02*
G03*
X1551638Y688299I-1969J0D01*
G01*
X1727638D02*
G03*
X1727638Y688299I-1969J0D01*
G01*
X1468138D02*
G03*
X1468138Y688299I-1969J0D01*
G01*
X1174130Y672657D02*
Y692343D01*
X1189878Y672657D02*
Y692343D01*
X1174130D02*
X1189878D01*
X1174130Y672657D02*
X1189878D01*
X1089130D02*
Y692343D01*
X1104878Y672657D02*
Y692343D01*
X1089130D02*
X1104878D01*
X1089130Y672657D02*
X1104878D01*
X1005630D02*
Y692343D01*
X1021378Y672657D02*
Y692343D01*
X1005630D02*
X1021378D01*
X1005630Y672657D02*
X1021378D01*
X1890626Y672157D02*
Y691843D01*
X1906374Y672157D02*
Y691843D01*
X1890626D02*
X1906374D01*
X1890626Y672157D02*
X1906374D01*
X1631126D02*
Y691843D01*
X1646874Y672157D02*
Y691843D01*
X1631126D02*
X1646874D01*
X1631126Y672157D02*
X1646874D01*
X1805626D02*
Y691843D01*
X1821374Y672157D02*
Y691843D01*
X1805626D02*
X1821374D01*
X1805626Y672157D02*
X1821374D01*
X1546126D02*
Y691843D01*
X1561874Y672157D02*
Y691843D01*
X1546126D02*
X1561874D01*
X1546126Y672157D02*
X1561874D01*
X1722126D02*
Y691843D01*
X1737874Y672157D02*
Y691843D01*
X1722126D02*
X1737874D01*
X1722126Y672157D02*
X1737874D01*
X1462626D02*
Y691843D01*
X1478374Y672157D02*
Y691843D01*
X1462626D02*
X1478374D01*
X1462626Y672157D02*
X1478374D01*
D59*
X1417409Y1895401D02*
X1419409D01*
X1418409D01*
Y1901399D01*
X1417409Y1900399D01*
X1422408D02*
X1423407Y1901399D01*
X1425407D01*
X1426406Y1900399D01*
Y1899400D01*
X1425407Y1898400D01*
X1424407D01*
X1425407D01*
X1426406Y1897400D01*
Y1896401D01*
X1425407Y1895401D01*
X1423407D01*
X1422408Y1896401D01*
X1428406Y1900399D02*
X1429405Y1901399D01*
X1431405D01*
X1432405Y1900399D01*
Y1899400D01*
X1431405Y1898400D01*
X1430405D01*
X1431405D01*
X1432405Y1897400D01*
Y1896401D01*
X1431405Y1895401D01*
X1429405D01*
X1428406Y1896401D01*
X1434404Y1901399D02*
X1438403D01*
Y1900399D01*
X1434404Y1896401D01*
Y1895401D01*
X1440402Y1900399D02*
X1441402Y1901399D01*
X1443401D01*
X1444401Y1900399D01*
Y1896401D01*
X1443401Y1895401D01*
X1441402D01*
X1440402Y1896401D01*
Y1900399D01*
X1454397Y1895401D02*
X1452398Y1897400D01*
Y1899400D01*
X1454397Y1901399D01*
X1457396Y1895401D02*
Y1899400D01*
X1458396D01*
X1459396Y1898400D01*
Y1895401D01*
Y1898400D01*
X1460396Y1899400D01*
X1461395Y1898400D01*
Y1895401D01*
X1463395D02*
X1465394D01*
X1464394D01*
Y1899400D01*
X1463395D01*
X1468393Y1895401D02*
X1470392D01*
X1469393D01*
Y1901399D01*
X1468393D01*
X1473391Y1895401D02*
X1475391Y1897400D01*
Y1899400D01*
X1473391Y1901399D01*
X2122099Y1198409D02*
Y1200409D01*
Y1199409D01*
X2116101D01*
X2117101Y1198409D01*
Y1203408D02*
X2116101Y1204407D01*
Y1206407D01*
X2117101Y1207407D01*
X2118100D01*
X2119100Y1206407D01*
Y1205407D01*
Y1206407D01*
X2120100Y1207407D01*
X2121099D01*
X2122099Y1206407D01*
Y1204407D01*
X2121099Y1203408D01*
X2117101Y1209406D02*
X2116101Y1210406D01*
Y1212405D01*
X2117101Y1213404D01*
X2118100D01*
X2119100Y1212405D01*
Y1211405D01*
Y1212405D01*
X2120100Y1213404D01*
X2121099D01*
X2122099Y1212405D01*
Y1210406D01*
X2121099Y1209406D01*
X2116101Y1215404D02*
Y1219403D01*
X2117101D01*
X2121099Y1215404D01*
X2122099D01*
X2117101Y1221402D02*
X2116101Y1222402D01*
Y1224401D01*
X2117101Y1225401D01*
X2121099D01*
X2122099Y1224401D01*
Y1222402D01*
X2121099Y1221402D01*
X2117101D01*
X2122099Y1235397D02*
X2120100Y1233398D01*
X2118100D01*
X2116101Y1235397D01*
X2122099Y1238396D02*
X2118100D01*
Y1239396D01*
X2119100Y1240396D01*
X2122099D01*
X2119100D01*
X2118100Y1241395D01*
X2119100Y1242395D01*
X2122099D01*
Y1244394D02*
Y1246394D01*
Y1245394D01*
X2118100D01*
Y1244394D01*
X2122099Y1249393D02*
Y1251392D01*
Y1250393D01*
X2116101D01*
Y1249393D01*
X2122099Y1254391D02*
X2120100Y1256391D01*
X2118100D01*
X2116101Y1254391D01*
M02*
