G04 Layer_Physical_Order=1*
G04 Layer_Color=255*
%FSLAX25Y25*%
%MOIN*%
G70*
G01*
G75*
%ADD10O,0.07480X0.02362*%
%ADD11R,0.03937X0.05512*%
%ADD12R,0.05512X0.03937*%
%ADD13R,0.07441X0.06181*%
%ADD14R,0.01575X0.06299*%
%ADD15R,0.02362X0.04331*%
%ADD16R,0.04331X0.02362*%
%ADD17R,0.02520X0.07500*%
%ADD18R,0.04488X0.07480*%
%ADD19R,0.04331X0.04331*%
%ADD20R,0.04331X0.04331*%
%ADD21R,0.07480X0.04724*%
%ADD22R,0.04724X0.07480*%
%ADD23R,0.11614X0.30000*%
%ADD24R,0.11614X0.06614*%
%ADD25R,0.03937X0.21654*%
%ADD26R,0.04134X0.05905*%
%ADD27R,0.09449X0.05905*%
%ADD28R,0.04331X0.05118*%
%ADD29R,0.04803X0.03583*%
%ADD30R,0.03543X0.02756*%
%ADD31C,0.00787*%
%ADD32C,0.01000*%
%ADD33C,0.01575*%
%ADD34C,0.15748*%
%ADD35C,0.02362*%
%ADD36C,0.08661*%
%ADD37C,0.05905*%
%ADD38C,0.11811*%
%ADD39C,0.03937*%
%ADD40C,0.10236*%
%ADD41C,0.13386*%
%ADD42C,0.07000*%
%ADD43C,0.15000*%
%ADD44C,0.04724*%
%ADD45C,0.04000*%
D10*
X1172752Y690000D02*
D03*
Y685000D02*
D03*
Y680000D02*
D03*
Y675000D02*
D03*
X1191256Y690000D02*
D03*
Y685000D02*
D03*
Y680000D02*
D03*
Y675000D02*
D03*
X1087752Y690000D02*
D03*
Y685000D02*
D03*
Y680000D02*
D03*
Y675000D02*
D03*
X1106256Y690000D02*
D03*
Y685000D02*
D03*
Y680000D02*
D03*
Y675000D02*
D03*
X1004252Y690000D02*
D03*
Y685000D02*
D03*
Y680000D02*
D03*
Y675000D02*
D03*
X1022756Y690000D02*
D03*
Y685000D02*
D03*
Y680000D02*
D03*
Y675000D02*
D03*
X1889248Y689500D02*
D03*
Y684500D02*
D03*
Y679500D02*
D03*
Y674500D02*
D03*
X1907752Y689500D02*
D03*
Y684500D02*
D03*
Y679500D02*
D03*
Y674500D02*
D03*
X1629748Y689500D02*
D03*
Y684500D02*
D03*
Y679500D02*
D03*
Y674500D02*
D03*
X1648252Y689500D02*
D03*
Y684500D02*
D03*
Y679500D02*
D03*
Y674500D02*
D03*
X1804248Y689500D02*
D03*
Y684500D02*
D03*
Y679500D02*
D03*
Y674500D02*
D03*
X1822752Y689500D02*
D03*
Y684500D02*
D03*
Y679500D02*
D03*
Y674500D02*
D03*
X1544748Y689500D02*
D03*
Y684500D02*
D03*
Y679500D02*
D03*
Y674500D02*
D03*
X1563252Y689500D02*
D03*
Y684500D02*
D03*
Y679500D02*
D03*
Y674500D02*
D03*
X1720748Y689500D02*
D03*
Y684500D02*
D03*
Y679500D02*
D03*
Y674500D02*
D03*
X1739252Y689500D02*
D03*
Y684500D02*
D03*
Y679500D02*
D03*
Y674500D02*
D03*
X1461248Y689500D02*
D03*
Y684500D02*
D03*
Y679500D02*
D03*
Y674500D02*
D03*
X1479752Y689500D02*
D03*
Y684500D02*
D03*
Y679500D02*
D03*
Y674500D02*
D03*
D11*
X1239760Y637661D02*
D03*
X1247240D02*
D03*
X1243500Y629000D02*
D03*
D12*
X1735831Y622740D02*
D03*
Y615260D02*
D03*
X1727169Y619000D02*
D03*
X1476331Y620740D02*
D03*
Y613260D02*
D03*
X1467669Y617000D02*
D03*
D13*
X1249689Y844268D02*
D03*
X1103161D02*
D03*
X952661D02*
D03*
X1370161Y844240D02*
D03*
X1998161Y846768D02*
D03*
X1698189Y844268D02*
D03*
X1848189D02*
D03*
D14*
X1253528Y852535D02*
D03*
X1250968D02*
D03*
X1248409D02*
D03*
X1245850D02*
D03*
Y836000D02*
D03*
X1248409D02*
D03*
X1250968D02*
D03*
X1253528D02*
D03*
X1107000Y852535D02*
D03*
X1104441D02*
D03*
X1101882D02*
D03*
X1099323D02*
D03*
Y836000D02*
D03*
X1101882D02*
D03*
X1104441D02*
D03*
X1107000D02*
D03*
X956500Y852535D02*
D03*
X953941D02*
D03*
X951382D02*
D03*
X948823D02*
D03*
Y836000D02*
D03*
X951382D02*
D03*
X953941D02*
D03*
X956500D02*
D03*
X1374000Y852508D02*
D03*
X1371441D02*
D03*
X1368882D02*
D03*
X1366323D02*
D03*
Y835972D02*
D03*
X1368882D02*
D03*
X1371441D02*
D03*
X1374000D02*
D03*
X2002000Y855035D02*
D03*
X1999441D02*
D03*
X1996882D02*
D03*
X1994323D02*
D03*
Y838500D02*
D03*
X1996882D02*
D03*
X1999441D02*
D03*
X2002000D02*
D03*
X1702028Y852535D02*
D03*
X1699468D02*
D03*
X1696909D02*
D03*
X1694350D02*
D03*
Y836000D02*
D03*
X1696909D02*
D03*
X1699468D02*
D03*
X1702028D02*
D03*
X1852028Y852535D02*
D03*
X1849468D02*
D03*
X1846909D02*
D03*
X1844350D02*
D03*
Y836000D02*
D03*
X1846909D02*
D03*
X1849468D02*
D03*
X1852028D02*
D03*
D15*
X1207547Y749630D02*
D03*
X1211287D02*
D03*
X1215028D02*
D03*
Y739000D02*
D03*
X1207547D02*
D03*
X1061020Y749630D02*
D03*
X1064760D02*
D03*
X1068500D02*
D03*
Y739000D02*
D03*
X1061020D02*
D03*
X910520Y749630D02*
D03*
X914260D02*
D03*
X918000D02*
D03*
Y739000D02*
D03*
X910520D02*
D03*
X1328020Y749602D02*
D03*
X1331760D02*
D03*
X1335500D02*
D03*
Y738972D02*
D03*
X1328020D02*
D03*
X1956020Y752130D02*
D03*
X1959760D02*
D03*
X1963500D02*
D03*
Y741500D02*
D03*
X1956020D02*
D03*
X1656047Y749630D02*
D03*
X1659787D02*
D03*
X1663528D02*
D03*
Y739000D02*
D03*
X1656047D02*
D03*
X1806047Y749630D02*
D03*
X1809787D02*
D03*
X1813528D02*
D03*
Y739000D02*
D03*
X1806047D02*
D03*
D16*
X1192342Y880740D02*
D03*
Y877000D02*
D03*
Y873260D02*
D03*
X1181713D02*
D03*
Y880740D02*
D03*
X1045815D02*
D03*
Y877000D02*
D03*
Y873260D02*
D03*
X1035185D02*
D03*
Y880740D02*
D03*
X895315D02*
D03*
Y877000D02*
D03*
Y873260D02*
D03*
X884685D02*
D03*
Y880740D02*
D03*
X1312815Y880713D02*
D03*
Y876972D02*
D03*
Y873232D02*
D03*
X1302185D02*
D03*
Y880713D02*
D03*
X1940815Y883240D02*
D03*
Y879500D02*
D03*
Y875760D02*
D03*
X1930185D02*
D03*
Y883240D02*
D03*
X1640842Y880740D02*
D03*
Y877000D02*
D03*
Y873260D02*
D03*
X1630213D02*
D03*
Y880740D02*
D03*
X1790842D02*
D03*
Y877000D02*
D03*
Y873260D02*
D03*
X1780213D02*
D03*
Y880740D02*
D03*
D17*
X1167700Y805110D02*
D03*
X1162700D02*
D03*
X1157700D02*
D03*
X1152700D02*
D03*
X1162700Y762196D02*
D03*
X1157700D02*
D03*
X1152700D02*
D03*
X1167700D02*
D03*
X1021172Y805110D02*
D03*
X1016172D02*
D03*
X1011172D02*
D03*
X1006172D02*
D03*
X1016172Y762196D02*
D03*
X1011172D02*
D03*
X1006172D02*
D03*
X1021172D02*
D03*
X870672Y805110D02*
D03*
X865672D02*
D03*
X860672D02*
D03*
X855672D02*
D03*
X865672Y762196D02*
D03*
X860672D02*
D03*
X855672D02*
D03*
X870672D02*
D03*
X1559500Y804913D02*
D03*
X1554500D02*
D03*
X1549500D02*
D03*
X1544500D02*
D03*
X1554500Y762000D02*
D03*
X1549500D02*
D03*
X1544500D02*
D03*
X1559500D02*
D03*
X1504496Y804496D02*
D03*
X1499496D02*
D03*
X1494496D02*
D03*
X1489496D02*
D03*
X1499496Y761583D02*
D03*
X1494496D02*
D03*
X1489496D02*
D03*
X1504496D02*
D03*
X1450618Y805000D02*
D03*
X1445618D02*
D03*
X1440618D02*
D03*
X1435618D02*
D03*
X1445618Y762087D02*
D03*
X1440618D02*
D03*
X1435618D02*
D03*
X1450618D02*
D03*
X1916172Y807609D02*
D03*
X1911172D02*
D03*
X1906172D02*
D03*
X1901172D02*
D03*
X1911172Y764696D02*
D03*
X1906172D02*
D03*
X1901172D02*
D03*
X1916172D02*
D03*
X1616200Y805110D02*
D03*
X1611200D02*
D03*
X1606200D02*
D03*
X1601200D02*
D03*
X1611200Y762196D02*
D03*
X1606200D02*
D03*
X1601200D02*
D03*
X1616200D02*
D03*
X1766200Y805110D02*
D03*
X1761200D02*
D03*
X1756200D02*
D03*
X1751200D02*
D03*
X1761200Y762196D02*
D03*
X1756200D02*
D03*
X1751200D02*
D03*
X1766200D02*
D03*
D18*
X1194020Y809028D02*
D03*
X1206028D02*
D03*
X1218035D02*
D03*
Y764500D02*
D03*
X1206028D02*
D03*
X1194020D02*
D03*
X1047492Y809028D02*
D03*
X1059500D02*
D03*
X1071508D02*
D03*
Y764500D02*
D03*
X1059500D02*
D03*
X1047492D02*
D03*
X896992Y809028D02*
D03*
X909000D02*
D03*
X921008D02*
D03*
Y764500D02*
D03*
X909000D02*
D03*
X896992D02*
D03*
X1314492Y809000D02*
D03*
X1326500D02*
D03*
X1338508D02*
D03*
Y764472D02*
D03*
X1326500D02*
D03*
X1314492D02*
D03*
X1942492Y811528D02*
D03*
X1954500D02*
D03*
X1966508D02*
D03*
Y767000D02*
D03*
X1954500D02*
D03*
X1942492D02*
D03*
X1642520Y809028D02*
D03*
X1654528D02*
D03*
X1666535D02*
D03*
Y764500D02*
D03*
X1654528D02*
D03*
X1642520D02*
D03*
X1792520Y809028D02*
D03*
X1804528D02*
D03*
X1816535D02*
D03*
Y764500D02*
D03*
X1804528D02*
D03*
X1792520D02*
D03*
D19*
X1155508Y674000D02*
D03*
X1162004D02*
D03*
X1171008Y713500D02*
D03*
X1177504D02*
D03*
X1178004Y655000D02*
D03*
X1184500D02*
D03*
X1192752Y713500D02*
D03*
X1186256D02*
D03*
X1147752Y683000D02*
D03*
X1141256D02*
D03*
X1207000Y674500D02*
D03*
X1200504D02*
D03*
X1071756Y673500D02*
D03*
X1078252D02*
D03*
X1086508Y712500D02*
D03*
X1093004D02*
D03*
X1094256Y655000D02*
D03*
X1100752D02*
D03*
X1107252Y712500D02*
D03*
X1100756D02*
D03*
X1063252Y680500D02*
D03*
X1056756D02*
D03*
X1122752Y674000D02*
D03*
X1116256D02*
D03*
X988256Y673500D02*
D03*
X994752D02*
D03*
X1002508Y712500D02*
D03*
X1009004D02*
D03*
X1010508Y654500D02*
D03*
X1017004D02*
D03*
X1023504Y712500D02*
D03*
X1017008D02*
D03*
X979500Y680500D02*
D03*
X973004D02*
D03*
X1039252Y673000D02*
D03*
X1032756D02*
D03*
X1872004Y673500D02*
D03*
X1878500D02*
D03*
X1887504Y713000D02*
D03*
X1894000D02*
D03*
X1612504Y673500D02*
D03*
X1619000D02*
D03*
X1628004Y713000D02*
D03*
X1634500D02*
D03*
X1894500Y654500D02*
D03*
X1900996D02*
D03*
X1635000D02*
D03*
X1641496D02*
D03*
X1909248Y713000D02*
D03*
X1902752D02*
D03*
X1649748D02*
D03*
X1643252D02*
D03*
X1864996Y682500D02*
D03*
X1858500D02*
D03*
X1604748D02*
D03*
X1598252D02*
D03*
X1923496Y674000D02*
D03*
X1917000D02*
D03*
X1663996D02*
D03*
X1657500D02*
D03*
X1788252Y673000D02*
D03*
X1794748D02*
D03*
X1803004Y712000D02*
D03*
X1809500D02*
D03*
X1528752Y673000D02*
D03*
X1535248D02*
D03*
X1543504Y712000D02*
D03*
X1550000D02*
D03*
X1810752Y654500D02*
D03*
X1817248D02*
D03*
X1551252D02*
D03*
X1557748D02*
D03*
X1823748Y712000D02*
D03*
X1817252D02*
D03*
X1564248D02*
D03*
X1557752D02*
D03*
X1779748Y680000D02*
D03*
X1773252D02*
D03*
X1520248D02*
D03*
X1513752D02*
D03*
X1839248Y673500D02*
D03*
X1832752D02*
D03*
X1579748D02*
D03*
X1573252D02*
D03*
X1704752Y673000D02*
D03*
X1711248D02*
D03*
X1719004Y712000D02*
D03*
X1725500D02*
D03*
X1445252Y673000D02*
D03*
X1451748D02*
D03*
X1459504Y712000D02*
D03*
X1466000D02*
D03*
X1727004Y654000D02*
D03*
X1733500D02*
D03*
X1467504D02*
D03*
X1474000D02*
D03*
X1740000Y712000D02*
D03*
X1733504D02*
D03*
X1480500D02*
D03*
X1474004D02*
D03*
X1696496Y680000D02*
D03*
X1690000D02*
D03*
X1436996D02*
D03*
X1430500D02*
D03*
X1755748Y672500D02*
D03*
X1749252D02*
D03*
X1496248D02*
D03*
X1489752D02*
D03*
X1243776Y875000D02*
D03*
X1237280D02*
D03*
X1259024D02*
D03*
X1252528D02*
D03*
X1097248D02*
D03*
X1090752D02*
D03*
X1112496D02*
D03*
X1106000D02*
D03*
X946748D02*
D03*
X940252D02*
D03*
X961996D02*
D03*
X955500D02*
D03*
X1364248Y874972D02*
D03*
X1357752D02*
D03*
X1379496D02*
D03*
X1373000D02*
D03*
X1992248Y877500D02*
D03*
X1985752D02*
D03*
X2007496D02*
D03*
X2001000D02*
D03*
X1692276Y875000D02*
D03*
X1685780D02*
D03*
X1707524D02*
D03*
X1701028D02*
D03*
X1842276D02*
D03*
X1835780D02*
D03*
X1857524D02*
D03*
X1851028D02*
D03*
X1155508Y666500D02*
D03*
X1162004D02*
D03*
X1162504Y688500D02*
D03*
X1156008D02*
D03*
X1207000Y667000D02*
D03*
X1200504D02*
D03*
X1071756Y666000D02*
D03*
X1078252D02*
D03*
X1078004Y688000D02*
D03*
X1071508D02*
D03*
X1123252Y666500D02*
D03*
X1116756D02*
D03*
X988008Y665000D02*
D03*
X994504D02*
D03*
X995504Y687000D02*
D03*
X989008D02*
D03*
X1039000Y665000D02*
D03*
X1032504D02*
D03*
X1872004Y666000D02*
D03*
X1878500D02*
D03*
X1612504D02*
D03*
X1619000D02*
D03*
X1879000Y688000D02*
D03*
X1872504D02*
D03*
X1619500D02*
D03*
X1613004D02*
D03*
X1923496Y666500D02*
D03*
X1917000D02*
D03*
X1663996D02*
D03*
X1657500D02*
D03*
X1788252Y665500D02*
D03*
X1794748D02*
D03*
X1528752D02*
D03*
X1535248D02*
D03*
X1794500Y687500D02*
D03*
X1788004D02*
D03*
X1535000D02*
D03*
X1528504D02*
D03*
X1839748Y666000D02*
D03*
X1833252D02*
D03*
X1580248D02*
D03*
X1573752D02*
D03*
X1704504Y664500D02*
D03*
X1711000D02*
D03*
X1445004D02*
D03*
X1451500D02*
D03*
X1712000Y686500D02*
D03*
X1705504D02*
D03*
X1452500D02*
D03*
X1446004D02*
D03*
X1755496Y664500D02*
D03*
X1749000D02*
D03*
X1495996D02*
D03*
X1489500D02*
D03*
X1736248Y596500D02*
D03*
X1729752D02*
D03*
X1736248Y605000D02*
D03*
X1729752D02*
D03*
X1475248Y595000D02*
D03*
X1468752D02*
D03*
X1475000Y604000D02*
D03*
X1468504D02*
D03*
X1258776Y884500D02*
D03*
X1252279D02*
D03*
X1254531Y921500D02*
D03*
X1261028D02*
D03*
X1252532Y866000D02*
D03*
X1259028D02*
D03*
X1210532Y857000D02*
D03*
X1217028D02*
D03*
X1210779Y846500D02*
D03*
X1217276D02*
D03*
X1207279Y914500D02*
D03*
X1213776D02*
D03*
X1208276Y868000D02*
D03*
X1201779D02*
D03*
X1194279Y857000D02*
D03*
X1200776D02*
D03*
X1194279Y846500D02*
D03*
X1200776D02*
D03*
X1156852Y832996D02*
D03*
X1163348D02*
D03*
X1112248Y884500D02*
D03*
X1105752D02*
D03*
X1108004Y921500D02*
D03*
X1114500D02*
D03*
X1106004Y866000D02*
D03*
X1112500D02*
D03*
X1064004Y857000D02*
D03*
X1070500D02*
D03*
X1064252Y846500D02*
D03*
X1070748D02*
D03*
X1060752Y914500D02*
D03*
X1067248D02*
D03*
X1061748Y868000D02*
D03*
X1055252D02*
D03*
X1047752Y857000D02*
D03*
X1054248D02*
D03*
X1047752Y846500D02*
D03*
X1054248D02*
D03*
X1010324Y832996D02*
D03*
X1016821D02*
D03*
X961748Y884500D02*
D03*
X955252D02*
D03*
X957504Y921500D02*
D03*
X964000D02*
D03*
X955504Y866000D02*
D03*
X962000D02*
D03*
X913504Y857000D02*
D03*
X920000D02*
D03*
X913752Y846500D02*
D03*
X920248D02*
D03*
X910252Y914500D02*
D03*
X916748D02*
D03*
X911248Y868000D02*
D03*
X904752D02*
D03*
X897252Y857000D02*
D03*
X903748D02*
D03*
X897252Y846500D02*
D03*
X903748D02*
D03*
X859824Y832996D02*
D03*
X866321D02*
D03*
X1548252Y836248D02*
D03*
X1554748D02*
D03*
X1493248Y836496D02*
D03*
X1499744D02*
D03*
X1439370Y837000D02*
D03*
X1445866D02*
D03*
X1379248Y884472D02*
D03*
X1372752D02*
D03*
X1375004Y921472D02*
D03*
X1381500D02*
D03*
X1373004Y865972D02*
D03*
X1379500D02*
D03*
X1331004Y856972D02*
D03*
X1337500D02*
D03*
X1331252Y846472D02*
D03*
X1337748D02*
D03*
X1327752Y914472D02*
D03*
X1334248D02*
D03*
X1328748Y867972D02*
D03*
X1322252D02*
D03*
X1314752Y856972D02*
D03*
X1321248D02*
D03*
X1314752Y846472D02*
D03*
X1321248D02*
D03*
X2007248Y887000D02*
D03*
X2000752D02*
D03*
X2003004Y924000D02*
D03*
X2009500D02*
D03*
X2001004Y868500D02*
D03*
X2007500D02*
D03*
X1959004Y859500D02*
D03*
X1965500D02*
D03*
X1959252Y849000D02*
D03*
X1965748D02*
D03*
X1955752Y917000D02*
D03*
X1962248D02*
D03*
X1956748Y870500D02*
D03*
X1950252D02*
D03*
X1942752Y859500D02*
D03*
X1949248D02*
D03*
X1942752Y849000D02*
D03*
X1949248D02*
D03*
X1905324Y835496D02*
D03*
X1911820D02*
D03*
X1707276Y884500D02*
D03*
X1700780D02*
D03*
X1703032Y921500D02*
D03*
X1709528D02*
D03*
X1701031Y866000D02*
D03*
X1707528D02*
D03*
X1659031Y857000D02*
D03*
X1665528D02*
D03*
X1659279Y846500D02*
D03*
X1665776D02*
D03*
X1655779Y914500D02*
D03*
X1662276D02*
D03*
X1656776Y868000D02*
D03*
X1650279D02*
D03*
X1642780Y857000D02*
D03*
X1649276D02*
D03*
X1642780Y846500D02*
D03*
X1649276D02*
D03*
X1605352Y832996D02*
D03*
X1611848D02*
D03*
X1857276Y884500D02*
D03*
X1850780D02*
D03*
X1853032Y921500D02*
D03*
X1859528D02*
D03*
X1851031Y866000D02*
D03*
X1857528D02*
D03*
X1809031Y857000D02*
D03*
X1815528D02*
D03*
X1809279Y846500D02*
D03*
X1815776D02*
D03*
X1805779Y914500D02*
D03*
X1812276D02*
D03*
X1806776Y868000D02*
D03*
X1800279D02*
D03*
X1792780Y857000D02*
D03*
X1799276D02*
D03*
X1792780Y846500D02*
D03*
X1799276D02*
D03*
X1755352Y832996D02*
D03*
X1761848D02*
D03*
D20*
X1177004Y704996D02*
D03*
Y698500D02*
D03*
X1186004Y704996D02*
D03*
Y698500D02*
D03*
X1093004Y704248D02*
D03*
Y697752D02*
D03*
X1100504Y703996D02*
D03*
Y697500D02*
D03*
X1009004Y704496D02*
D03*
Y698000D02*
D03*
X1017004Y704496D02*
D03*
Y698000D02*
D03*
X1893500Y704496D02*
D03*
Y698000D02*
D03*
X1634000Y704496D02*
D03*
Y698000D02*
D03*
X1902500Y704496D02*
D03*
Y698000D02*
D03*
X1643000Y704496D02*
D03*
Y698000D02*
D03*
X1809500Y703748D02*
D03*
Y697252D02*
D03*
X1550000Y703748D02*
D03*
Y697252D02*
D03*
X1817000Y703496D02*
D03*
Y697000D02*
D03*
X1557500Y703496D02*
D03*
Y697000D02*
D03*
X1725500Y703996D02*
D03*
Y697500D02*
D03*
X1466000Y703996D02*
D03*
Y697500D02*
D03*
X1733500Y703996D02*
D03*
Y697500D02*
D03*
X1474000Y703996D02*
D03*
Y697500D02*
D03*
X1241028Y943500D02*
D03*
Y937004D02*
D03*
X1231528Y943496D02*
D03*
Y937000D02*
D03*
X1156500Y738500D02*
D03*
Y744996D02*
D03*
X1164500Y738500D02*
D03*
Y744996D02*
D03*
X1179000Y805004D02*
D03*
Y811500D02*
D03*
X1094500Y943500D02*
D03*
Y937004D02*
D03*
X1085000Y943496D02*
D03*
Y937000D02*
D03*
X1009972Y738500D02*
D03*
Y744996D02*
D03*
X1017972Y738500D02*
D03*
Y744996D02*
D03*
X1031972Y804996D02*
D03*
Y811492D02*
D03*
X944000Y943500D02*
D03*
Y937004D02*
D03*
X934500Y943496D02*
D03*
Y937000D02*
D03*
X859472Y738500D02*
D03*
Y744996D02*
D03*
X867000Y738500D02*
D03*
Y744996D02*
D03*
X882500Y805004D02*
D03*
Y811500D02*
D03*
X1544000Y875248D02*
D03*
Y868752D02*
D03*
X1547882Y744500D02*
D03*
Y750996D02*
D03*
X1556000Y744748D02*
D03*
Y751244D02*
D03*
X1571500Y803752D02*
D03*
Y810248D02*
D03*
X1488996Y875496D02*
D03*
Y869000D02*
D03*
X1492878Y744748D02*
D03*
Y751244D02*
D03*
X1500996Y744996D02*
D03*
Y751492D02*
D03*
X1517000Y804252D02*
D03*
Y810748D02*
D03*
X1435118Y876000D02*
D03*
Y869504D02*
D03*
X1439000Y745252D02*
D03*
Y751748D02*
D03*
X1447118Y745500D02*
D03*
Y751996D02*
D03*
X1462500Y803500D02*
D03*
Y809996D02*
D03*
X1361500Y943472D02*
D03*
Y936976D02*
D03*
X1352000Y943468D02*
D03*
Y936972D02*
D03*
X1989500Y946000D02*
D03*
Y939504D02*
D03*
X1980000Y945996D02*
D03*
Y939500D02*
D03*
X1904972Y741000D02*
D03*
Y747496D02*
D03*
X1912972Y741000D02*
D03*
Y747496D02*
D03*
X1927500Y807252D02*
D03*
Y813748D02*
D03*
X1689528Y943500D02*
D03*
Y937004D02*
D03*
X1680028Y943496D02*
D03*
Y937000D02*
D03*
X1605000Y738500D02*
D03*
Y744996D02*
D03*
X1613000Y738500D02*
D03*
Y744996D02*
D03*
X1628000Y805252D02*
D03*
Y811748D02*
D03*
X1839528Y943500D02*
D03*
Y937004D02*
D03*
X1830028Y943496D02*
D03*
Y937000D02*
D03*
X1755000Y738500D02*
D03*
Y744996D02*
D03*
X1763000Y738500D02*
D03*
Y744996D02*
D03*
X1777500Y804500D02*
D03*
Y810996D02*
D03*
X1253028Y900496D02*
D03*
Y894000D02*
D03*
X1207028Y893496D02*
D03*
Y887000D02*
D03*
X1152900Y866996D02*
D03*
Y873492D02*
D03*
X1165300Y866596D02*
D03*
Y873092D02*
D03*
X1106500Y900496D02*
D03*
Y894000D02*
D03*
X1060500Y893496D02*
D03*
Y887000D02*
D03*
X1006372Y866996D02*
D03*
Y873492D02*
D03*
X1018772Y866596D02*
D03*
Y873092D02*
D03*
X956000Y900496D02*
D03*
Y894000D02*
D03*
X910000Y893496D02*
D03*
Y887000D02*
D03*
X855872Y866996D02*
D03*
Y873492D02*
D03*
X868272Y866596D02*
D03*
Y873092D02*
D03*
X1547500Y977252D02*
D03*
Y983748D02*
D03*
X1492496Y977500D02*
D03*
Y983996D02*
D03*
X1438618Y978004D02*
D03*
Y984500D02*
D03*
X1373500Y900469D02*
D03*
Y893972D02*
D03*
X1327500Y893468D02*
D03*
Y886972D02*
D03*
X2001500Y902996D02*
D03*
Y896500D02*
D03*
X1955500Y895996D02*
D03*
Y889500D02*
D03*
X1901372Y869496D02*
D03*
Y875992D02*
D03*
X1913772Y869096D02*
D03*
Y875592D02*
D03*
X1701528Y900496D02*
D03*
Y894000D02*
D03*
X1655528Y893496D02*
D03*
Y887000D02*
D03*
X1601400Y866996D02*
D03*
Y873492D02*
D03*
X1613800Y866596D02*
D03*
Y873092D02*
D03*
X1851528Y900496D02*
D03*
Y894000D02*
D03*
X1805528Y893496D02*
D03*
Y887000D02*
D03*
X1751400Y866996D02*
D03*
Y873492D02*
D03*
X1763800Y866596D02*
D03*
Y873092D02*
D03*
X1272000Y638000D02*
D03*
Y631504D02*
D03*
X1259000Y637248D02*
D03*
Y630752D02*
D03*
X1239028Y835000D02*
D03*
Y841496D02*
D03*
X1270028Y835504D02*
D03*
Y842000D02*
D03*
X1261028Y835500D02*
D03*
Y841996D02*
D03*
X1092500Y835000D02*
D03*
Y841496D02*
D03*
X1123500Y835504D02*
D03*
Y842000D02*
D03*
X1114500Y835500D02*
D03*
Y841996D02*
D03*
X942000Y835000D02*
D03*
Y841496D02*
D03*
X973000Y835504D02*
D03*
Y842000D02*
D03*
X964000Y835500D02*
D03*
Y841996D02*
D03*
X1359500Y834972D02*
D03*
Y841469D02*
D03*
X1390500Y835476D02*
D03*
Y841972D02*
D03*
X1381500Y835472D02*
D03*
Y841969D02*
D03*
X1987500Y837500D02*
D03*
Y843996D02*
D03*
X2018500Y838004D02*
D03*
Y844500D02*
D03*
X2009500Y838000D02*
D03*
Y844496D02*
D03*
X1687528Y835000D02*
D03*
Y841496D02*
D03*
X1718528Y835504D02*
D03*
Y842000D02*
D03*
X1709528Y835500D02*
D03*
Y841996D02*
D03*
X1837528Y835000D02*
D03*
Y841496D02*
D03*
X1868528Y835504D02*
D03*
Y842000D02*
D03*
X1859528Y835500D02*
D03*
Y841996D02*
D03*
D21*
X1152900Y855232D02*
D03*
Y844996D02*
D03*
X1165700Y855232D02*
D03*
Y844996D02*
D03*
X1006372Y855232D02*
D03*
Y844996D02*
D03*
X1019172Y855232D02*
D03*
Y844996D02*
D03*
X855872Y855232D02*
D03*
Y844996D02*
D03*
X868672Y855232D02*
D03*
Y844996D02*
D03*
X1544000Y856484D02*
D03*
Y846248D02*
D03*
X1558000Y856984D02*
D03*
Y846748D02*
D03*
X1488996Y856732D02*
D03*
Y846496D02*
D03*
X1502996Y857232D02*
D03*
Y846996D02*
D03*
X1435118Y857236D02*
D03*
Y847000D02*
D03*
X1449118Y857736D02*
D03*
Y847500D02*
D03*
X1901372Y857732D02*
D03*
Y847496D02*
D03*
X1914172Y857732D02*
D03*
Y847496D02*
D03*
X1601400Y855232D02*
D03*
Y844996D02*
D03*
X1614200Y855232D02*
D03*
Y844996D02*
D03*
X1751400Y855232D02*
D03*
Y844996D02*
D03*
X1764200Y855232D02*
D03*
Y844996D02*
D03*
D22*
X1538000Y917748D02*
D03*
X1548236D02*
D03*
X1548118Y933248D02*
D03*
X1537882D02*
D03*
Y887248D02*
D03*
X1548118D02*
D03*
X1538000Y903248D02*
D03*
X1548236D02*
D03*
X1537882Y948248D02*
D03*
X1548118D02*
D03*
Y963248D02*
D03*
X1537882D02*
D03*
X1482996Y917996D02*
D03*
X1493232D02*
D03*
X1493114Y933496D02*
D03*
X1482878D02*
D03*
Y887496D02*
D03*
X1493114D02*
D03*
X1482996Y903496D02*
D03*
X1493232D02*
D03*
X1482878Y948496D02*
D03*
X1493114D02*
D03*
Y963496D02*
D03*
X1482878D02*
D03*
X1429118Y918500D02*
D03*
X1439354D02*
D03*
X1439236Y934000D02*
D03*
X1429000D02*
D03*
Y888000D02*
D03*
X1439236D02*
D03*
X1429118Y904000D02*
D03*
X1439354D02*
D03*
X1429000Y949000D02*
D03*
X1439236D02*
D03*
Y964000D02*
D03*
X1429000D02*
D03*
D23*
X893591Y1744709D02*
D03*
X923000D02*
D03*
X1712500Y1749500D02*
D03*
X1741909D02*
D03*
X893591Y1458000D02*
D03*
X923000D02*
D03*
X1712500Y1464500D02*
D03*
X1741909D02*
D03*
X893091Y1167500D02*
D03*
X922500D02*
D03*
X1711091Y1172709D02*
D03*
X1740500D02*
D03*
D24*
X893591Y1724000D02*
D03*
X923000D02*
D03*
X1712500Y1728791D02*
D03*
X1741909D02*
D03*
X893591Y1437291D02*
D03*
X923000D02*
D03*
X1712500Y1443791D02*
D03*
X1741909D02*
D03*
X893091Y1146791D02*
D03*
X922500D02*
D03*
X1711091Y1152000D02*
D03*
X1740500D02*
D03*
D25*
X939500Y617000D02*
D03*
X919815D02*
D03*
D26*
X1254177Y933500D02*
D03*
X1210878Y927500D02*
D03*
X1107650Y933500D02*
D03*
X1064350Y927500D02*
D03*
X957150Y933500D02*
D03*
X913850Y927500D02*
D03*
X1374650Y933472D02*
D03*
X1331350Y927472D02*
D03*
X2002650Y936000D02*
D03*
X1959350Y930000D02*
D03*
X1702677Y933500D02*
D03*
X1659378Y927500D02*
D03*
X1852677Y933500D02*
D03*
X1809378Y927500D02*
D03*
D27*
X1263528Y933500D02*
D03*
X1201528Y927500D02*
D03*
X1117000Y933500D02*
D03*
X1055000Y927500D02*
D03*
X966500Y933500D02*
D03*
X904500Y927500D02*
D03*
X1384000Y933472D02*
D03*
X1322000Y927472D02*
D03*
X2012000Y936000D02*
D03*
X1950000Y930000D02*
D03*
X1712028Y933500D02*
D03*
X1650028Y927500D02*
D03*
X1862028Y933500D02*
D03*
X1800028Y927500D02*
D03*
D28*
X1265028Y952000D02*
D03*
X1255972D02*
D03*
X1201555Y952500D02*
D03*
X1192500D02*
D03*
X1118500Y952000D02*
D03*
X1109445D02*
D03*
X1055028Y952500D02*
D03*
X1045972D02*
D03*
X968000Y952000D02*
D03*
X958945D02*
D03*
X904528Y952500D02*
D03*
X895472D02*
D03*
X1385500Y951972D02*
D03*
X1376445D02*
D03*
X1322028Y952472D02*
D03*
X1312972D02*
D03*
X2013500Y954500D02*
D03*
X2004445D02*
D03*
X1950028Y955000D02*
D03*
X1940972D02*
D03*
X1713528Y952000D02*
D03*
X1704472D02*
D03*
X1650055Y952500D02*
D03*
X1641000D02*
D03*
X1863528Y952000D02*
D03*
X1854472D02*
D03*
X1800055Y952500D02*
D03*
X1791000D02*
D03*
X1262528Y913000D02*
D03*
X1253472D02*
D03*
X1216055Y904000D02*
D03*
X1207000D02*
D03*
X1116000Y913000D02*
D03*
X1106945D02*
D03*
X1069528Y904000D02*
D03*
X1060472D02*
D03*
X965500Y913000D02*
D03*
X956445D02*
D03*
X919028Y904000D02*
D03*
X909972D02*
D03*
X1383000Y912972D02*
D03*
X1373945D02*
D03*
X1336528Y903972D02*
D03*
X1327472D02*
D03*
X2011000Y915500D02*
D03*
X2001945D02*
D03*
X1964528Y906500D02*
D03*
X1955472D02*
D03*
X1711028Y913000D02*
D03*
X1701972D02*
D03*
X1664555Y904000D02*
D03*
X1655500D02*
D03*
X1861028Y913000D02*
D03*
X1851972D02*
D03*
X1814555Y904000D02*
D03*
X1805500D02*
D03*
D29*
X1218028Y835583D02*
D03*
Y824500D02*
D03*
X1194528Y825000D02*
D03*
Y836083D02*
D03*
X1071500Y835583D02*
D03*
Y824500D02*
D03*
X1048000Y825000D02*
D03*
Y836083D02*
D03*
X921000Y835583D02*
D03*
Y824500D02*
D03*
X897500Y825000D02*
D03*
Y836083D02*
D03*
X1338500Y835555D02*
D03*
Y824472D02*
D03*
X1315000Y824972D02*
D03*
Y836055D02*
D03*
X1966500Y838083D02*
D03*
Y827000D02*
D03*
X1943000Y827500D02*
D03*
Y838583D02*
D03*
X1666528Y835583D02*
D03*
Y824500D02*
D03*
X1643028Y825000D02*
D03*
Y836083D02*
D03*
X1816528Y835583D02*
D03*
Y824500D02*
D03*
X1793028Y825000D02*
D03*
Y836083D02*
D03*
D30*
X1157300Y820996D02*
D03*
X1150213Y823555D02*
D03*
Y818437D02*
D03*
X1163300Y820996D02*
D03*
X1170387Y818437D02*
D03*
Y823555D02*
D03*
X1011000Y821000D02*
D03*
X1003913Y823559D02*
D03*
Y818441D02*
D03*
X1016772Y820996D02*
D03*
X1023859Y818437D02*
D03*
Y823555D02*
D03*
X860272Y820996D02*
D03*
X853186Y823555D02*
D03*
Y818437D02*
D03*
X866272Y820996D02*
D03*
X873359Y818437D02*
D03*
Y823555D02*
D03*
X1548000Y822748D02*
D03*
X1540913Y825307D02*
D03*
Y820189D02*
D03*
X1554500Y822748D02*
D03*
X1561587Y820189D02*
D03*
Y825307D02*
D03*
X1494000Y823000D02*
D03*
X1486913Y825559D02*
D03*
Y820441D02*
D03*
X1500413Y823059D02*
D03*
X1507500Y820500D02*
D03*
Y825618D02*
D03*
X1440087Y823559D02*
D03*
X1433000Y826118D02*
D03*
Y821000D02*
D03*
X1446500Y823500D02*
D03*
X1453587Y820941D02*
D03*
Y826059D02*
D03*
X1905772Y823496D02*
D03*
X1898686Y826055D02*
D03*
Y820937D02*
D03*
X1911772Y823496D02*
D03*
X1918859Y820937D02*
D03*
Y826055D02*
D03*
X1605800Y820996D02*
D03*
X1598713Y823555D02*
D03*
Y818437D02*
D03*
X1611800Y820996D02*
D03*
X1618887Y818437D02*
D03*
Y823555D02*
D03*
X1755800Y820996D02*
D03*
X1748713Y823555D02*
D03*
Y818437D02*
D03*
X1761913Y820559D02*
D03*
X1769000Y818000D02*
D03*
Y823118D02*
D03*
D31*
X1887000Y713500D02*
X1888500D01*
X1627500D02*
X1629000D01*
X1192504D02*
Y723957D01*
X1170504Y714000D02*
X1172004D01*
X865672Y805110D02*
Y830698D01*
X885000Y729500D02*
X888000Y726500D01*
X861000Y732982D02*
Y738500D01*
X1009004Y712500D02*
Y718259D01*
X1005850Y721413D02*
X1009004Y718259D01*
X872570Y721413D02*
X1005850D01*
X861000Y732982D02*
X872570Y721413D01*
X1017004Y712496D02*
X1017008Y712500D01*
X1017004Y704496D02*
Y712496D01*
X1092628Y712124D02*
X1093004Y711748D01*
X1466000Y703996D02*
Y710500D01*
X1549624Y711624D02*
X1550000Y711248D01*
X1634500Y713000D02*
Y719000D01*
X1627087Y726413D02*
X1634500Y719000D01*
X1594343Y726413D02*
X1627087D01*
X1583386Y737369D02*
X1594343Y726413D01*
X1555013Y737369D02*
X1583386D01*
X1725500Y712000D02*
Y717759D01*
X1717772Y725487D02*
X1725500Y717759D01*
X1652495Y725487D02*
X1717772D01*
X1646995Y730987D02*
X1652495Y725487D01*
X1612513Y730987D02*
X1646995D01*
X1809500Y712000D02*
Y717982D01*
Y703748D02*
Y712000D01*
X1799495Y727987D02*
X1809500Y717982D01*
X1762013Y727987D02*
X1799495D01*
X1755000Y735000D02*
X1762013Y727987D01*
X1817000Y703496D02*
Y712727D01*
X1763000Y729575D02*
X1800152D01*
X1763000D02*
Y738500D01*
X1907987Y730005D02*
Y737602D01*
X1901165Y723182D02*
X1907987Y730005D01*
X1901165Y720165D02*
Y723182D01*
X1894000Y713000D02*
X1901165Y720165D01*
X1904972Y741000D02*
X1908000Y737972D01*
X1902752Y722525D02*
X1909575Y729348D01*
Y737602D01*
X1912972Y741000D01*
X1157700Y805110D02*
Y832996D01*
X1761200Y805110D02*
Y830698D01*
X1911172Y807609D02*
Y833198D01*
X1544500Y804248D02*
X1549500D01*
X1906172Y807609D02*
Y835496D01*
X1140000Y660000D02*
X1140500Y659500D01*
X1057500Y660000D02*
X1058000Y660500D01*
X1735831Y622740D02*
Y632000D01*
X1756200Y805110D02*
Y832996D01*
X1606200Y805110D02*
Y832996D01*
X860672Y805110D02*
Y832996D01*
X1011172Y805110D02*
Y832996D01*
X1611200Y805110D02*
Y830698D01*
X1016172Y805110D02*
Y830698D01*
X1179000Y812000D02*
X1179500Y811500D01*
X1162700Y805110D02*
Y830698D01*
X1572000Y666500D02*
X1574000D01*
X1563252Y674500D02*
X1573500D01*
X1574000Y666500D02*
Y675000D01*
X1506996Y819996D02*
X1508000Y818992D01*
X1777004Y805000D02*
X1784500D01*
X1769162Y818162D02*
X1769662Y817662D01*
X1777000Y804996D02*
X1777004Y805000D01*
X1770000Y812000D02*
Y818000D01*
X1768887Y818437D02*
X1773500D01*
X1768887D02*
X1769162Y818162D01*
X1033008Y665000D02*
Y674500D01*
X1023256D02*
X1033008D01*
X1595500Y672500D02*
X1612504D01*
X1201004Y667748D02*
Y675500D01*
X1197000Y667500D02*
X1200756D01*
X1191256Y675000D02*
X1200504D01*
X1855000Y672500D02*
X1872004D01*
X1926976Y807500D02*
X1933000D01*
X1619696Y830500D02*
X1620500Y829696D01*
X1053504Y675000D02*
X1071756D01*
X1627000Y804996D02*
X1633004D01*
X1618748Y667000D02*
Y675000D01*
X1629248D01*
X1618748Y667000D02*
X1622500D01*
X1078252Y675000D02*
X1087752D01*
X1078004Y667000D02*
X1082256D01*
X1878248Y675000D02*
X1888748D01*
X1878248Y667000D02*
X1882000D01*
X1878248D02*
Y675000D01*
X1739752Y674000D02*
X1749504D01*
Y664500D02*
Y674000D01*
X1164500Y734752D02*
X1186004Y713248D01*
X1123500Y667000D02*
Y681004D01*
X1658000Y667248D02*
Y675000D01*
X1648252Y674500D02*
X1657500D01*
X1653996Y667000D02*
X1657752D01*
X1917500Y667248D02*
Y675000D01*
X1907752Y674500D02*
X1917000D01*
X1913496Y667000D02*
X1917252D01*
X1480252Y674000D02*
X1490004D01*
Y664500D02*
Y674000D01*
X1794748Y674500D02*
X1804248D01*
X1794500Y666500D02*
X1798752D01*
X1115004Y667000D02*
X1117004D01*
Y675500D01*
X1106256Y675000D02*
X1116504D01*
X1919500Y893528D02*
X1921000Y892028D01*
X1537122Y903378D02*
X1538000Y902500D01*
X1428500Y903500D02*
Y904000D01*
X1770000Y674500D02*
X1788252D01*
X1580496Y666500D02*
Y680504D01*
X1535248Y674500D02*
X1544748D01*
X1535000Y666500D02*
X1539252D01*
X1138504Y673000D02*
X1155508D01*
X1822752Y674500D02*
X1833000D01*
X1831500Y666500D02*
X1833500D01*
Y675000D01*
X1031500Y805000D02*
X1039500D01*
X1003686Y823555D02*
Y830186D01*
X1839996Y666500D02*
Y680504D01*
X1161752Y675500D02*
X1172252D01*
X1161752Y667500D02*
X1165504D01*
X1161752D02*
Y675500D01*
X1510500Y674500D02*
X1528752D01*
X1178504Y805000D02*
X1179004Y804500D01*
X882469Y805000D02*
X890000D01*
X1256256Y579500D02*
X1819500D01*
X1238756Y597000D02*
X1256256Y579500D01*
X1819500D02*
X1894500Y654500D01*
X1725500Y703996D02*
Y712000D01*
X1733500Y703996D02*
X1733504Y704000D01*
Y712000D01*
X1911820Y835496D02*
Y843544D01*
X1920500Y827696D02*
Y831000D01*
X1919652Y826848D02*
X1920500Y827696D01*
Y831000D02*
Y889528D01*
X1921000Y890028D01*
X1920000Y891028D02*
X1921000Y890028D01*
X1023859Y823555D02*
X1024500Y824196D01*
Y829500D01*
X1025276D01*
X1025472Y829696D01*
X853000Y823741D02*
Y831000D01*
Y823741D02*
X853186Y823555D01*
X1507500Y825618D02*
Y832000D01*
X1918859Y826055D02*
X1919652Y826848D01*
X1920000Y891028D02*
X1921000Y892028D01*
X1925000Y891528D02*
X1929469Y895996D01*
X1925000Y820937D02*
Y891528D01*
X1918859Y820937D02*
X1925000D01*
X1919500Y893528D02*
X1920472Y894500D01*
X1618887Y823555D02*
X1619696Y824365D01*
Y829500D02*
Y830500D01*
Y824365D02*
Y829500D01*
X1620500Y829696D02*
Y892000D01*
X1916172Y807609D02*
X1926859D01*
X1704504Y664500D02*
X1704752Y664748D01*
Y673000D01*
X1773000Y631500D02*
Y658500D01*
X1857500Y632000D02*
Y660500D01*
X1716504Y664500D02*
X1727004Y654000D01*
X1485500Y587500D02*
X1551252Y653252D01*
X1335500Y587500D02*
X1485500D01*
X1551252Y653252D02*
Y654500D01*
X1513752Y630252D02*
Y661252D01*
X1513500Y630000D02*
X1513752Y630252D01*
X1476331Y620740D02*
X1476500Y620910D01*
Y629500D01*
X1429500Y631000D02*
X1431000Y629500D01*
X1429500Y631000D02*
Y659000D01*
X988008Y665000D02*
X988256Y665248D01*
Y673500D01*
X1355311Y589500D02*
X1403004D01*
X1347811Y597000D02*
X1355311Y589500D01*
X1403004D02*
X1467504Y654000D01*
X1326000Y597000D02*
X1335500Y587500D01*
X1178004Y655000D02*
X1212004Y621000D01*
X1285917D01*
X1239598Y637500D02*
X1239760Y637661D01*
X1230500Y637500D02*
X1239598D01*
X1057500Y626000D02*
Y660000D01*
X973000Y626000D02*
X1022500D01*
X973000D02*
Y656500D01*
X1010508Y654500D02*
X1048008Y617000D01*
X1246295D01*
X1140500Y637500D02*
Y659500D01*
X1140000Y660000D02*
X1141000Y661000D01*
X1057000Y661500D02*
X1058000Y660500D01*
X1690000Y641000D02*
Y658500D01*
X1598000Y630000D02*
Y661000D01*
Y682500D02*
X1598252D01*
X1560000Y654500D02*
X1572000Y666500D01*
X1573500Y674500D02*
X1574000Y675000D01*
X848500Y745624D02*
X855072Y752196D01*
X848500Y733500D02*
Y745624D01*
Y733500D02*
X869496Y712504D01*
X1002504D01*
X873227Y723000D02*
X1006508D01*
X867000Y729227D02*
X873227Y723000D01*
X867000Y729227D02*
Y738500D01*
X859472D02*
X861000D01*
X1006508Y723000D02*
X1017008Y712500D01*
X888000Y726500D02*
Y727000D01*
X1002196Y733808D02*
X1023504Y712500D01*
X1002196Y733808D02*
Y752196D01*
X1005572D01*
X1023504Y712500D02*
X1086508D01*
X1038000Y727500D02*
Y772000D01*
X1037500Y772500D02*
X1038000Y772000D01*
X1146500Y738004D02*
X1170504Y714000D01*
X1146500Y738004D02*
Y745000D01*
X1152100Y750600D01*
Y752196D01*
X1156500Y738500D02*
X1177504Y717496D01*
Y713500D02*
Y717496D01*
X1164500Y734752D02*
Y738500D01*
X1192504Y723957D02*
X1207547Y739000D01*
X885000Y772500D02*
X901000D01*
X880976D02*
X885000D01*
Y729500D02*
Y772500D01*
X1037500D02*
X1051500D01*
X1031476D02*
X1037500D01*
X1179500D02*
X1198028D01*
X1178004D02*
X1179500D01*
X1184500Y727500D02*
Y742500D01*
X1179500Y747500D02*
X1184500Y742500D01*
X1179500Y747500D02*
Y772500D01*
X1601400Y855232D02*
Y866996D01*
X1611200Y746796D02*
Y762196D01*
X1606200Y746196D02*
Y762196D01*
X1600600Y752196D02*
Y761596D01*
X1605025Y833323D02*
Y841371D01*
X1601400Y844996D02*
X1605025Y841371D01*
X1621400Y810310D02*
Y815924D01*
X1616200Y805110D02*
X1621400Y810310D01*
X1616200Y805110D02*
X1626887D01*
X1616200Y762196D02*
X1621000Y757396D01*
X1613800Y866596D02*
X1614200Y866196D01*
X1601400Y844996D02*
Y845960D01*
X1605025Y833323D02*
X1605352Y832996D01*
X1626887Y805110D02*
X1627000Y804996D01*
X1600600Y761596D02*
X1601200Y762196D01*
X1611200Y746796D02*
X1613000Y744996D01*
X1605000D02*
X1606200Y746196D01*
X1621000Y752196D02*
Y757396D01*
X1618887Y818437D02*
X1621400Y815924D01*
X1646528Y772500D02*
X1654528Y764500D01*
X1626504Y772500D02*
X1646528D01*
X1616200Y762196D02*
X1626504Y772500D01*
X1614200Y855232D02*
Y866196D01*
X1646102Y868000D02*
X1650000D01*
X1674496Y900496D02*
X1701528D01*
X1618887Y818437D02*
X1623500D01*
X1763800Y866596D02*
X1764200Y866196D01*
X1796102Y868000D02*
X1800000D01*
X1751400Y844996D02*
Y845960D01*
X1764200Y843396D02*
Y844996D01*
X1768887Y823555D02*
X1769000Y823668D01*
X1776887Y805110D02*
X1777000Y804996D01*
X1776504Y772500D02*
X1796528D01*
X1824496Y900496D02*
X1851528D01*
X1766200Y805110D02*
X1776887D01*
X1751400Y855232D02*
Y866996D01*
X1761848Y841044D02*
X1764200Y843396D01*
Y855232D02*
Y866196D01*
X1755025Y833323D02*
X1755352Y832996D01*
X1750600Y761596D02*
X1751200Y762196D01*
X1750600Y752196D02*
Y761596D01*
X1756200Y746196D02*
Y762196D01*
X1755000Y744996D02*
X1756200Y746196D01*
X1771000Y752196D02*
Y757396D01*
X1773500Y887500D02*
X1779496Y893496D01*
X1751400Y844996D02*
X1755025Y841371D01*
X1761200Y746796D02*
Y762196D01*
X1766200D02*
X1771000Y757396D01*
X1761200Y746796D02*
X1763000Y744996D01*
X1796528Y772500D02*
X1804528Y764500D01*
X1766200Y762196D02*
X1776504Y772500D01*
X1755025Y833323D02*
Y841371D01*
X1761848Y832996D02*
Y841044D01*
X1790842Y873260D02*
X1796102Y868000D01*
X1773500Y818437D02*
Y887500D01*
X1770500Y829696D02*
Y892000D01*
X1913772Y869096D02*
X1914172Y868696D01*
X1946075Y870500D02*
X1949972D01*
X1901372Y847496D02*
Y848460D01*
X1914172Y845896D02*
Y847496D01*
X1897327Y821096D02*
X1897423Y821000D01*
X1921372Y812809D02*
Y818424D01*
X1926476Y775000D02*
X1946500D01*
X1974468Y902996D02*
X2001500D01*
X1929469Y895996D02*
X1955500D01*
X1901372Y857732D02*
Y869496D01*
X1911820Y843544D02*
X1914172Y845896D01*
Y857732D02*
Y868696D01*
X1904998Y835823D02*
X1905324Y835496D01*
X1900572Y764096D02*
X1901172Y764696D01*
X1900572Y754696D02*
Y764096D01*
X1906172Y748696D02*
Y764696D01*
X1904972Y747496D02*
X1906172Y748696D01*
X1920972Y754696D02*
Y759896D01*
X1901372Y847496D02*
X1904998Y843871D01*
X1918859Y820937D02*
X1921372Y818424D01*
X1911172Y749296D02*
Y764696D01*
X1916172D02*
X1920972Y759896D01*
X1911172Y749296D02*
X1912972Y747496D01*
X1946500Y775000D02*
X1954500Y767000D01*
X1916172Y764696D02*
X1926476Y775000D01*
X1896472Y812309D02*
X1901172Y807609D01*
X1904998Y835823D02*
Y843871D01*
X1940815Y875760D02*
X1946075Y870500D01*
X1916172Y807609D02*
X1921372Y812809D01*
X1779496Y893496D02*
X1805528D01*
X1613000Y873992D02*
X1613500Y873492D01*
X1613000Y873992D02*
X1613500Y874492D01*
X1746500Y809809D02*
X1751200Y805110D01*
X1746500Y809809D02*
Y812500D01*
X1629496Y893496D02*
X1655528D01*
X1365500Y769472D02*
X1417146D01*
X1430618Y756000D01*
X1373500Y900469D02*
X1375531D01*
X1390500Y841972D02*
X1430091D01*
X1435118Y847000D01*
X1417000Y826500D02*
X1417500Y826000D01*
X1422000Y821000D02*
X1433000D01*
X1417500Y826000D02*
X1426500D01*
X1432500D01*
X1435618Y805000D02*
X1440618D01*
X1453587Y826059D02*
X1465441D01*
X1471059Y820441D01*
X1486913D01*
X1479500Y825559D02*
X1486913D01*
X1465441Y826059D02*
X1467559D01*
X1471500Y830000D01*
X1507500Y825618D02*
X1520882D01*
X1561587Y825307D02*
Y829413D01*
X1526311Y820189D02*
X1540913D01*
X1522382Y824118D02*
X1527500Y829236D01*
X1522382Y824118D02*
X1526311Y820189D01*
X1520882Y825618D02*
X1522382Y824118D01*
X1561587Y820189D02*
X1562000Y819776D01*
Y814500D02*
Y819776D01*
X1559748Y812248D02*
X1562000Y814500D01*
X1558748Y812248D02*
X1559748D01*
X1506996Y819996D02*
X1507500Y820500D01*
X1504504Y812496D02*
X1508000Y815992D01*
Y818992D01*
X1503744Y812496D02*
X1504504D01*
X1449866Y813000D02*
X1450473D01*
X1453587Y816114D01*
Y820941D01*
X868272Y866596D02*
X868672Y866196D01*
X900575Y868000D02*
X904472D01*
X855872Y844996D02*
Y845960D01*
X875872Y810310D02*
Y815924D01*
X883969Y893496D02*
X910000D01*
X870672Y805110D02*
X881359D01*
X855872Y855232D02*
Y866996D01*
X868672Y855232D02*
Y866196D01*
X850972Y809809D02*
Y812500D01*
X859498Y833323D02*
X859824Y832996D01*
X855072Y761596D02*
X855672Y762196D01*
X855072Y752196D02*
Y761596D01*
X875472Y752196D02*
Y757396D01*
X855872Y844996D02*
X859498Y841371D01*
X873359Y818437D02*
X875872Y815924D01*
X870672Y762196D02*
X875472Y757396D01*
X901000Y772500D02*
X909000Y764500D01*
X859498Y833323D02*
Y841371D01*
X895315Y873260D02*
X900575Y868000D01*
X874972Y829696D02*
Y892000D01*
X1489496Y804496D02*
X1494496D01*
X870672Y805110D02*
X875872Y810310D01*
X870672Y762196D02*
X880976Y772500D01*
X850972Y809809D02*
X855672Y805110D01*
X1596500Y809809D02*
X1601200Y805110D01*
X1596500Y809809D02*
Y812500D01*
X928969Y900496D02*
X956000D01*
X860672Y746196D02*
Y762196D01*
X859472Y744996D02*
X860672Y746196D01*
X865672Y745828D02*
Y762196D01*
Y745828D02*
X866504Y744996D01*
X867000D01*
X867472D01*
X1540106Y824500D02*
X1540913Y825307D01*
X1530500Y824500D02*
X1540106D01*
X1482878Y903378D02*
X1482996Y903496D01*
X1331004Y856972D02*
Y862496D01*
X1344504D01*
X1359500Y847500D01*
Y841469D02*
Y847500D01*
X1018772Y866596D02*
X1019172Y866196D01*
X1051075Y868000D02*
X1054972D01*
X1006372Y844996D02*
Y845960D01*
X1019172Y843396D02*
Y844996D01*
X1002327Y818596D02*
X1002423Y818500D01*
X1079469Y900496D02*
X1106500D01*
X1034468Y893496D02*
X1060500D01*
X1006372Y855232D02*
Y866996D01*
X1016821Y841044D02*
X1019172Y843396D01*
Y855232D02*
Y866196D01*
X1001472Y809809D02*
Y812500D01*
X1009998Y833323D02*
X1010324Y832996D01*
X1005572Y761596D02*
X1006172Y762196D01*
X1005572Y752196D02*
Y761596D01*
X1011172Y746196D02*
Y762196D01*
X1009972Y744996D02*
X1011172Y746196D01*
X1025972Y752196D02*
Y757396D01*
X1028472Y887500D02*
X1034468Y893496D01*
X1006372Y844996D02*
X1009998Y841371D01*
X1016172Y746796D02*
Y762196D01*
X1021172D02*
X1025972Y757396D01*
X1016172Y746796D02*
X1017972Y744996D01*
X1051500Y772500D02*
X1059500Y764500D01*
X1021172Y762196D02*
X1031476Y772500D01*
X1001472Y809809D02*
X1006172Y805110D01*
X1009998Y833323D02*
Y841371D01*
X1016821Y832996D02*
Y841044D01*
X1045815Y873260D02*
X1051075Y868000D01*
X1025472Y829696D02*
Y892000D01*
X1165300Y866596D02*
X1165700Y866196D01*
X1197602Y868000D02*
X1201500D01*
X1152900Y844996D02*
Y845960D01*
X1165700Y843396D02*
Y844996D01*
X1148854Y818596D02*
X1148950Y818500D01*
X1172900Y810310D02*
Y815924D01*
X1170387Y823555D02*
X1170500Y823668D01*
X1225996Y900496D02*
X1253028D01*
X1180996Y893496D02*
X1207028D01*
X1170387Y818437D02*
X1175000D01*
X1152900Y855232D02*
Y866996D01*
X1163348Y841044D02*
X1165700Y843396D01*
Y855232D02*
Y866196D01*
X1148000Y809809D02*
Y812500D01*
X1156525Y833323D02*
X1156852Y832996D01*
X1152100Y761596D02*
X1152700Y762196D01*
X1152100Y752196D02*
Y761596D01*
X1157700Y746196D02*
Y762196D01*
X1156500Y744996D02*
X1157700Y746196D01*
X1172500Y752196D02*
Y757396D01*
X1175000Y887500D02*
X1180996Y893496D01*
X1152900Y844996D02*
X1156525Y841371D01*
X1170387Y818437D02*
X1172900Y815924D01*
X1162700Y746796D02*
Y762196D01*
X1167700D02*
X1172500Y757396D01*
X1162700Y746796D02*
X1164500Y744996D01*
X1198028Y772500D02*
X1206028Y764500D01*
X1167700Y762196D02*
X1178004Y772500D01*
X1148000Y809809D02*
X1152700Y805110D01*
X1156525Y833323D02*
Y841371D01*
X1163348Y832996D02*
Y841044D01*
X1192342Y873260D02*
X1197602Y868000D01*
X1167700Y805110D02*
X1172900Y810310D01*
X1175000Y818437D02*
Y887500D01*
X1172000Y829696D02*
Y892000D01*
X1021172Y805110D02*
X1031000D01*
X1150213Y823555D02*
Y829287D01*
X868272Y873092D02*
X868500Y873320D01*
X1018772Y873092D02*
X1019000Y873320D01*
X1711248Y673000D02*
X1712748Y674500D01*
X1711000Y672752D02*
X1711248Y673000D01*
X1711000Y664500D02*
Y672752D01*
Y664500D02*
X1716504D01*
X1739252Y674500D02*
X1739752Y674000D01*
X1733500Y654000D02*
X1744000Y664500D01*
X1749000D02*
X1749504D01*
X1744000D02*
X1749000D01*
X1712000Y686500D02*
X1714000Y684500D01*
X1705500Y680000D02*
X1712000Y686500D01*
X1696496Y680000D02*
X1705500D01*
X1725500Y694252D02*
Y697500D01*
X1739252Y689500D02*
Y691748D01*
X1719000Y712004D02*
X1719004Y712000D01*
X1739252Y689500D02*
X1748500D01*
X1755748Y682252D01*
Y672500D02*
Y682252D01*
Y664752D02*
Y672500D01*
X1755496Y664500D02*
X1755748Y664752D01*
X1684500Y677500D02*
X1689000Y673000D01*
X1704752D01*
X1809500Y694752D02*
Y697252D01*
X1822752Y689500D02*
Y692500D01*
Y689500D02*
X1831000D01*
X1839996Y680504D01*
X1766500Y678000D02*
Y687000D01*
Y678000D02*
X1770000Y674500D01*
X1788004Y666500D02*
X1788252Y666748D01*
X1794500Y666500D02*
X1794748Y666748D01*
X1798752Y666500D02*
X1810752Y654500D01*
X1817248D02*
X1819500D01*
X1831500Y666500D01*
X1833000Y674500D02*
X1833500Y675000D01*
X1794748Y666748D02*
Y673000D01*
X1788252Y666748D02*
Y673000D01*
Y674500D01*
X1794748Y673000D02*
Y674500D01*
X1795500Y679500D02*
X1804248D01*
X1766500Y687000D02*
X1773500Y694000D01*
X1799748D01*
X1822752Y679500D02*
X1824752D01*
X1825252Y680000D01*
X1832000D01*
X1797500Y684500D02*
X1804248D01*
X1794500Y687500D02*
X1797500Y684500D01*
X1787000Y680000D02*
X1794500Y687500D01*
X1779748Y680000D02*
X1787000D01*
X1882000Y667000D02*
X1894500Y654500D01*
X1900996D02*
X1913496Y667000D01*
X1917252D02*
X1917500Y667248D01*
X1893500Y693752D02*
Y698000D01*
X1889248Y689500D02*
X1893500Y693752D01*
X1894000Y704996D02*
Y713000D01*
X1893500Y704496D02*
X1894000Y704996D01*
X1902500Y704496D02*
Y712748D01*
X1888748Y675000D02*
X1889248Y674500D01*
X1917000D02*
X1917500Y675000D01*
X1873500Y682500D02*
X1879000Y688000D01*
X1882500Y684500D01*
X1889248D01*
X1879000Y680500D02*
X1880000Y679500D01*
X1889248D01*
X1907752D02*
X1915500D01*
X1917000Y681000D01*
X1923496Y666500D02*
Y674000D01*
X1919000Y689500D02*
X1923496Y685004D01*
Y674000D02*
Y685004D01*
X1887500Y689500D02*
X1889248D01*
X1851500Y676000D02*
Y686500D01*
Y676000D02*
X1855000Y672500D01*
X1872004Y666000D02*
Y672500D01*
X1739252Y679500D02*
X1748500D01*
X1857500Y682500D02*
X1857752D01*
X1693000Y694000D02*
X1716248D01*
X1684500Y677500D02*
Y685500D01*
X1693000Y694000D01*
X1882000Y695000D02*
X1887500Y689500D01*
X1851500Y686500D02*
X1860000Y695000D01*
X1882000D01*
X1452500Y686500D02*
X1454500Y684500D01*
X1460748Y680000D02*
X1461248Y679500D01*
X1466000Y694252D02*
Y697500D01*
X1479752Y674500D02*
X1480252Y674000D01*
X1484500Y664500D02*
X1489500D01*
X1490004D01*
X1495996D02*
X1496248Y664752D01*
X1528752Y673000D02*
Y674500D01*
X1535248Y673000D02*
Y674500D01*
X1535000Y687500D02*
X1538000Y684500D01*
X1550000Y694752D02*
Y697252D01*
X1557748Y654500D02*
X1560000D01*
X1557500Y711748D02*
X1557752Y712000D01*
X1565252Y679500D02*
X1565752Y680000D01*
X1628000Y689500D02*
X1629748D01*
X1634000Y693752D02*
Y698000D01*
Y704496D02*
X1634500Y704996D01*
X1643000Y694752D02*
Y698000D01*
X1656000Y679500D02*
X1657500Y681000D01*
X1461248Y689500D02*
X1466000Y694252D01*
X1479752Y689500D02*
Y691748D01*
X1496248Y664752D02*
Y672500D01*
X1528504Y666500D02*
X1528752Y666748D01*
Y673000D01*
X1535000Y666500D02*
X1535248Y666748D01*
Y673000D01*
X1540248Y694000D02*
X1544748Y689500D01*
X1612504Y666000D02*
Y672500D01*
X1629248Y675000D02*
X1629748Y674500D01*
Y689500D02*
X1634000Y693752D01*
X1657752Y667000D02*
X1658000Y667248D01*
X1657500Y674500D02*
X1658000Y675000D01*
X1663996Y666500D02*
Y674000D01*
X1425000Y677500D02*
Y685500D01*
X1496248Y672500D02*
Y682252D01*
X1507000Y678000D02*
Y687000D01*
X1550000Y703748D02*
Y711248D01*
X1557500Y703496D02*
Y711748D01*
X1592000Y676000D02*
Y686500D01*
X1634500Y704996D02*
Y713000D01*
X1643000Y704496D02*
Y712748D01*
X1663996Y674000D02*
Y685004D01*
X1451500Y664500D02*
X1457004D01*
X1451500Y672752D02*
X1451748Y673000D01*
X1453248Y674500D02*
X1461248D01*
X1451748Y673000D02*
X1453248Y674500D01*
X1452500Y680000D02*
X1460748D01*
X1454500Y684500D02*
X1461248D01*
X1459500Y712004D02*
X1459504Y712000D01*
X1479752Y679500D02*
X1489000D01*
X1479752Y689500D02*
X1489000D01*
X1474000Y697500D02*
X1479752Y691748D01*
X1520248Y680000D02*
X1527500D01*
X1536000Y679500D02*
X1544748D01*
X1538000Y684500D02*
X1544748D01*
X1558500Y697252D02*
X1563252Y692500D01*
X1619500Y680500D02*
X1620500Y679500D01*
X1604748Y682500D02*
X1614000D01*
X1620500Y679500D02*
X1629748D01*
X1619500Y688000D02*
X1623000Y684500D01*
X1629748D01*
X1600500Y695000D02*
X1622500D01*
X1648252Y679500D02*
X1656000D01*
X1648252Y689500D02*
X1659500D01*
X1643000Y712748D02*
X1643252Y713000D01*
X1425000Y677500D02*
X1429500Y673000D01*
X1425000Y685500D02*
X1433500Y694000D01*
X1451500Y664500D02*
Y672752D01*
X1457004Y664500D02*
X1467504Y654000D01*
X1446000Y680000D02*
X1452500Y686500D01*
X1456748Y694000D02*
X1461248Y689500D01*
X1474000Y654000D02*
X1484500Y664500D01*
X1489000Y689500D02*
X1496248Y682252D01*
X1507000Y678000D02*
X1510500Y674500D01*
X1507000Y687000D02*
X1514000Y694000D01*
X1527500Y680000D02*
X1535000Y687500D01*
X1539252Y666500D02*
X1551252Y654500D01*
X1563252Y689500D02*
Y692500D01*
X1544748Y689500D02*
X1550000Y694752D01*
X1592000Y676000D02*
X1595500Y672500D01*
X1571500Y689500D02*
X1580496Y680504D01*
X1614000Y682500D02*
X1619500Y688000D01*
X1622500Y695000D02*
X1628000Y689500D01*
X1641496Y654500D02*
X1653996Y667000D01*
X1643000Y694752D02*
X1648252Y689500D01*
X1429500Y673000D02*
X1445252D01*
X1436996Y680000D02*
X1446000D01*
X1433500Y694000D02*
X1456748D01*
X1565752Y680000D02*
X1572500D01*
X1514000Y694000D02*
X1540248D01*
X1659500Y689500D02*
X1663996Y685004D01*
X1592000Y686500D02*
X1600500Y695000D01*
X1622500Y667000D02*
X1635000Y654500D01*
X1474000Y703996D02*
Y711996D01*
X994504Y673252D02*
X994752Y673500D01*
X996252Y675000D01*
X995504Y687000D02*
X997504Y685000D01*
X1003752Y680500D02*
X1004252Y680000D01*
X1002504Y712504D02*
X1002508Y712500D01*
X1009004Y694752D02*
Y698000D01*
X1022756Y675000D02*
X1023256Y674500D01*
X1032504Y665000D02*
X1033008D01*
X1039000D02*
X1039252Y665252D01*
X1071756Y673500D02*
Y675000D01*
X1093004Y695252D02*
Y697752D01*
X1100504Y712248D02*
X1100756Y712500D01*
X1108256Y680000D02*
X1108756Y680500D01*
X1106256Y680000D02*
X1108256D01*
X1162504Y681000D02*
X1163504Y680000D01*
X1171004Y690000D02*
X1172752D01*
X1177004Y694252D02*
Y698500D01*
Y704996D02*
X1177504Y705496D01*
X1186004Y695252D02*
Y698500D01*
X1199004Y680000D02*
X1200504Y681500D01*
X968004Y678000D02*
X972504Y673500D01*
X994504Y665000D02*
Y673252D01*
X999752Y694500D02*
X1004252Y690000D01*
X1022756D02*
Y692248D01*
X1039252Y665252D02*
Y673000D01*
X1050004Y678500D02*
X1053504Y675000D01*
X1071508Y667000D02*
X1071756Y667248D01*
Y673500D01*
X1087752Y690000D02*
X1093004Y695252D01*
X1106256Y690000D02*
Y693000D01*
X1116504Y675000D02*
X1117004Y675500D01*
X1135004Y676500D02*
X1138504Y673000D01*
X1155508Y666500D02*
Y673000D01*
X1172252Y675500D02*
X1172752Y675000D01*
X1200756Y667500D02*
X1201004Y667748D01*
X1200504Y675000D02*
X1201004Y675500D01*
X1207000Y667000D02*
Y674500D01*
X968004Y678000D02*
Y686000D01*
X1009004Y704496D02*
Y712500D01*
X1039252Y673000D02*
Y682752D01*
X1050004Y678500D02*
Y687500D01*
X1093004Y704248D02*
Y711748D01*
X1100504Y703996D02*
Y712248D01*
X1135004Y676500D02*
Y687000D01*
X1177504Y705496D02*
Y713500D01*
X1186004Y704996D02*
Y713248D01*
X1207000Y674500D02*
Y685504D01*
X994504Y665000D02*
X1000008D01*
X996252Y675000D02*
X1004252D01*
X995504Y680500D02*
X1003752D01*
X1027504Y665000D02*
X1032504D01*
X1022756Y680000D02*
X1032004D01*
X1022756Y690000D02*
X1032004D01*
X1078252Y673500D02*
Y675000D01*
X1063252Y680500D02*
X1070504D01*
X1078004Y688000D02*
X1081004Y685000D01*
X1100752Y655000D02*
X1103004D01*
X1101504Y697752D02*
X1106256Y693000D01*
X1147752Y683000D02*
X1157004D01*
X1163504Y680000D02*
X1172752D01*
X1162504Y688500D02*
X1166004Y685000D01*
X1172752D01*
X1191256Y680000D02*
X1199004D01*
X1191256Y690000D02*
X1202504D01*
X1207000Y685504D01*
X968004Y686000D02*
X976504Y694500D01*
X1000008Y665000D02*
X1010508Y654500D01*
X1004252Y690000D02*
X1009004Y694752D01*
X989004Y680500D02*
X995504Y687000D01*
X1032004Y690000D02*
X1039252Y682752D01*
X1078004Y667000D02*
X1078252Y667248D01*
Y673500D01*
X1070504Y680500D02*
X1078004Y688000D01*
X1083252Y694500D02*
X1087752Y690000D01*
X1114504D02*
X1123500Y681004D01*
X1135004Y687000D02*
X1143504Y695500D01*
X1172752Y690000D02*
X1177004Y694252D01*
X1157004Y683000D02*
X1162504Y688500D01*
X1165504Y695500D02*
X1171004Y690000D01*
X1184500Y655000D02*
X1197000Y667500D01*
X1186004Y695252D02*
X1191256Y690000D01*
X972504Y673500D02*
X988256D01*
X1017004Y698000D02*
X1022756Y692248D01*
X976504Y694500D02*
X999752D01*
X1079004Y680000D02*
X1087752D01*
X1108756Y680500D02*
X1115504D01*
X1081004Y685000D02*
X1087752D01*
X1106256Y690000D02*
X1114504D01*
X1057004Y694500D02*
X1083252D01*
X1017004Y654500D02*
X1027504Y665000D01*
X1082256Y667000D02*
X1094256Y655000D01*
X1103004D02*
X1115004Y667000D01*
X1050004Y687500D02*
X1057004Y694500D01*
X1165504Y667500D02*
X1178004Y655000D01*
X1143504Y695500D02*
X1165504D01*
X979500Y680500D02*
X989004D01*
X997504Y685000D02*
X1004252D01*
X1614200Y843396D02*
Y844996D01*
X1611848Y832996D02*
Y841044D01*
X1614200Y843396D01*
X1623500Y818437D02*
Y887500D01*
X1629496Y893496D01*
X1640842Y873260D02*
X1646102Y868000D01*
X923000Y1437291D02*
X925000Y1435291D01*
X921500Y1145791D02*
X922500Y1146791D01*
X868672Y843396D02*
Y844996D01*
X866321Y832996D02*
Y841044D01*
X868672Y843396D01*
X1902500Y712748D02*
X1902752Y713000D01*
X1605000Y738500D02*
X1612513Y730987D01*
X1613000Y738500D02*
X1618925Y732575D01*
X1647652D01*
X1653152Y727075D01*
X1718429D02*
X1733504Y712000D01*
X1653152Y727075D02*
X1718429D01*
X1800152Y729575D02*
X1817000Y712727D01*
X1755000Y735000D02*
Y738500D01*
X1902752Y713000D02*
Y722525D01*
X1896472Y812309D02*
Y815000D01*
X1926859Y807609D02*
X1926972Y807496D01*
X1926976Y807500D01*
X1927500Y813748D02*
Y815000D01*
X1769000Y823668D02*
Y828196D01*
X1770500Y829696D01*
X1633004Y804996D02*
X1634000Y804000D01*
X1453000Y826646D02*
X1453587Y826059D01*
X1453000Y826646D02*
Y831500D01*
X1167700Y805110D02*
X1167809Y805000D01*
X1178500Y804996D02*
X1178504Y805000D01*
X1167809D02*
X1178504D01*
X1021172Y805110D02*
X1025500Y809437D01*
Y811000D01*
X1589000Y861092D02*
X1601400Y873492D01*
X1589000Y814500D02*
Y861092D01*
Y814500D02*
X1591000Y812500D01*
X1596500D01*
X1597354Y818596D02*
X1597450Y818500D01*
X1593000D02*
X1597450D01*
X1598500Y823769D02*
X1598713Y823555D01*
X1598500Y823769D02*
Y828500D01*
X1737500Y859592D02*
X1751400Y873492D01*
X1737500Y815500D02*
Y859592D01*
Y815500D02*
X1740500Y812500D01*
X1746500D01*
X1747354Y818596D02*
X1747450Y818500D01*
X1743000D02*
X1747450D01*
X1748500Y823769D02*
Y829000D01*
Y823769D02*
X1748713Y823555D01*
X1885000Y859620D02*
X1901372Y875992D01*
X1885000Y821500D02*
Y859620D01*
Y821500D02*
X1891500Y815000D01*
X1896472D01*
X1892000Y821000D02*
X1897423D01*
X1898500Y826241D02*
X1898686Y826055D01*
X1898500Y826241D02*
Y832500D01*
X1136000Y856592D02*
X1152900Y873492D01*
X1136000Y816500D02*
Y856592D01*
Y816500D02*
X1140000Y812500D01*
X1148000D01*
X1143500Y818500D02*
X1148950D01*
X992000Y859120D02*
X1006372Y873492D01*
X992000Y814500D02*
Y859120D01*
Y814500D02*
X994000Y812500D01*
X1001472D01*
X1001923Y818000D02*
X1002423Y818500D01*
X996500Y818000D02*
X1001923D01*
X1023859Y818437D02*
X1028472D01*
Y887500D01*
X1024500Y812000D02*
X1025500Y811000D01*
X1024500Y812000D02*
Y817796D01*
X1023859Y818437D02*
X1024500Y817796D01*
X873359Y818437D02*
X878000D01*
Y887528D01*
X883969Y893496D01*
X881359Y805110D02*
X881968Y804500D01*
X840500Y858120D02*
X855872Y873492D01*
X840500Y814500D02*
Y858120D01*
Y814500D02*
X842500Y812500D01*
X850972D01*
X851827Y818596D02*
X851923Y818500D01*
X846000D02*
X851923D01*
X881968Y804500D02*
X882469Y805000D01*
X1031000Y804500D02*
X1031500Y805000D01*
X1179004Y804500D02*
X1185500D01*
X1595000Y728000D02*
X1628252D01*
X1643252Y713000D01*
X1547882Y744500D02*
X1555013Y737369D01*
X1556000Y744748D02*
X1561791Y738957D01*
X1584043D01*
X1595000Y728000D01*
X1864248Y682500D02*
X1864996D01*
X1873500D01*
X1907752Y689500D02*
X1919000D01*
X1902500Y694752D02*
Y698000D01*
Y694752D02*
X1907752Y689500D01*
X1921500Y647000D02*
X1930000Y655500D01*
Y747000D01*
X1701000Y654000D02*
X1701500Y654500D01*
X1445252Y664748D02*
Y673000D01*
X1445004Y664500D02*
X1445252Y664748D01*
X1414500Y594500D02*
X1474000Y654000D01*
X1414000Y594500D02*
X1414500D01*
X1496000Y592752D02*
X1557748Y654500D01*
X1304189Y597000D02*
X1315689Y585500D01*
X1576500Y589000D02*
Y589504D01*
X1641496Y654500D01*
X1315689Y585500D02*
X1567500D01*
X1635000Y653000D01*
Y654500D01*
X1656504Y583500D02*
X1727004Y654000D01*
X1282378Y597000D02*
X1295878Y583500D01*
X1656504D01*
X1666000Y586500D02*
X1733500Y654000D01*
X1737752Y581500D02*
X1810752Y654500D01*
X1276067Y581500D02*
X1737752D01*
X1260567Y597000D02*
X1276067Y581500D01*
X1749000Y586252D02*
X1817248Y654500D01*
X1829496Y583000D02*
X1900996Y654500D01*
X1828500Y583000D02*
X1829496D01*
X1246295Y617000D02*
X1255114Y608181D01*
X1049000Y622500D02*
Y622504D01*
X1017004Y654500D02*
X1049000Y622504D01*
X1094256Y655000D02*
X1130256Y619000D01*
X1266106D01*
X1276925Y608181D01*
X1100752Y655000D02*
X1131000Y624752D01*
X1285917Y621000D02*
X1298736Y608181D01*
X1184500Y655000D02*
X1211500Y628000D01*
Y627500D02*
Y628000D01*
X1804248Y689500D02*
X1809500Y694752D01*
X1799748Y694000D02*
X1804248Y689500D01*
X1818000Y697252D02*
X1822752Y692500D01*
X1733500Y697500D02*
X1739252Y691748D01*
X1720748Y689500D02*
X1725500Y694252D01*
X1712748Y674500D02*
X1720748D01*
X1714000Y684500D02*
X1720748D01*
X1720248Y680000D02*
X1720748Y679500D01*
X1712000Y680000D02*
X1720248D01*
X1716248Y694000D02*
X1720748Y689500D01*
X1563252D02*
X1571500D01*
X1563252Y679500D02*
X1565252D01*
X880500Y676500D02*
X882000Y675000D01*
X1735500Y633000D02*
X1736500Y632000D01*
X1170500Y823668D02*
Y829000D01*
X1171304D02*
X1172000Y829696D01*
X1170500Y829000D02*
X1171304D01*
X873500Y823696D02*
Y829000D01*
X874276D02*
X874972Y829696D01*
X873500Y829000D02*
X874276D01*
X873359Y823555D02*
X873500Y823696D01*
X1769662Y817662D02*
X1770000Y818000D01*
X1766200Y805110D02*
Y808200D01*
X1770000Y812000D01*
D32*
X1559500Y761335D02*
X1562665D01*
X1735831Y596917D02*
Y615260D01*
X1476331Y596083D02*
Y613260D01*
X1270587Y637661D02*
X1272000Y636248D01*
X1247240Y637661D02*
X1270587D01*
X1030703Y717752D02*
X1087752D01*
X1009972Y738482D02*
X1030703Y717752D01*
X1087752D02*
X1093004Y712500D01*
X1009972Y738482D02*
Y738500D01*
X1474000Y711996D02*
Y719500D01*
X1448136Y732910D02*
X1460590D01*
X1447118Y733927D02*
X1448136Y732910D01*
X1447118Y733927D02*
Y745500D01*
X1439000Y739500D02*
X1447390Y731110D01*
X1439000Y739500D02*
Y745252D01*
X1447390Y731110D02*
X1459845D01*
X1466000Y712000D02*
Y724954D01*
Y710500D02*
Y712000D01*
X1459845Y731110D02*
X1466000Y724954D01*
X1550000Y712000D02*
Y717206D01*
X1530506Y736700D02*
X1550000Y717206D01*
X1496800Y736700D02*
X1530506D01*
X1085004Y937004D02*
X1094500D01*
X1100500Y882000D02*
X1103500Y885000D01*
X1105429Y842000D02*
X1123500D01*
X1054972Y867721D02*
Y868000D01*
X934504Y937004D02*
X944000D01*
X950000Y882000D02*
X953000Y885000D01*
X954929Y842000D02*
X973000D01*
X904472Y867721D02*
Y868000D01*
X1231532Y937004D02*
X1241028D01*
X1247028Y882000D02*
X1250028Y885000D01*
X1251957Y842000D02*
X1270028D01*
X1201500Y867721D02*
Y868000D01*
X1680032Y937004D02*
X1689528D01*
X1695528Y882000D02*
X1698528Y885000D01*
X1700457Y842000D02*
X1718528D01*
X1650000Y867721D02*
Y868000D01*
X1980004Y939504D02*
X1989500D01*
X1995500Y884500D02*
X1998500Y887500D01*
X2000429Y844500D02*
X2018500D01*
X1830032Y937004D02*
X1839528D01*
X1845528Y882000D02*
X1848528Y885000D01*
X1850457Y842000D02*
X1868528D01*
X1800000Y867721D02*
Y868000D01*
X1548118Y887248D02*
Y917630D01*
X1499496Y804496D02*
Y836248D01*
X1544000Y840500D02*
Y845500D01*
X1372429Y841972D02*
X1390500D01*
X1549500Y808248D02*
Y835000D01*
X1494496Y812500D02*
Y835248D01*
X1440618Y813000D02*
Y835752D01*
X1367500Y881972D02*
X1370500Y884972D01*
X1446366Y836500D02*
X1446866Y837000D01*
X1445618Y805000D02*
Y836752D01*
X1493114Y887496D02*
Y917878D01*
X1439236Y888000D02*
Y918382D01*
X1048000Y836083D02*
Y856752D01*
X897500Y836083D02*
Y856752D01*
X1504496Y802996D02*
X1505496Y803996D01*
X1327500Y893468D02*
Y914221D01*
X1450618Y803500D02*
X1451618Y804500D01*
X1805528Y893496D02*
Y914248D01*
X1194528Y836083D02*
Y856752D01*
X957504Y921500D02*
Y950559D01*
X956000Y900496D02*
Y919996D01*
X1375004Y921472D02*
Y950531D01*
X1373500Y900469D02*
Y919969D01*
X1955500Y895996D02*
Y916748D01*
X1703032Y921500D02*
Y950559D01*
X1701528Y900496D02*
Y919996D01*
X1108004Y921500D02*
Y950559D01*
X1106500Y900496D02*
Y919996D01*
X1655528Y893496D02*
Y914248D01*
X956500Y836000D02*
X972504D01*
X921000Y835583D02*
Y856000D01*
X1793028Y836083D02*
Y856752D01*
X1943000Y838583D02*
Y859252D01*
X1254531Y921500D02*
Y950559D01*
X1253028Y900496D02*
Y919996D01*
X1107000Y836000D02*
X1123004D01*
X1071500Y835583D02*
Y856000D01*
X1853032Y921500D02*
Y950559D01*
X1851528Y900496D02*
Y919996D01*
X2003004Y924000D02*
Y953059D01*
X2001500Y902996D02*
Y922496D01*
X1253528Y836000D02*
X1269532D01*
X1218028Y835583D02*
Y856000D01*
X1315000Y836055D02*
Y856724D01*
X1060500Y893496D02*
Y914248D01*
X1643028Y836083D02*
Y856752D01*
X1852028Y836000D02*
X1868032D01*
X1816528Y835583D02*
Y856000D01*
X1374000Y835972D02*
X1390004D01*
X1338500Y835555D02*
Y855972D01*
X1702028Y836000D02*
X1718032D01*
X1666528Y835583D02*
Y856000D01*
X1207028Y893496D02*
Y914248D01*
X910000Y893496D02*
Y914248D01*
X2002000Y838500D02*
X2018004D01*
X1966500Y838083D02*
Y858500D01*
X948000Y745000D02*
Y769500D01*
X943000Y740000D02*
X948000Y745000D01*
Y769500D02*
Y770000D01*
X947500Y770500D02*
X948000Y770000D01*
X1844350Y848106D02*
Y852535D01*
X1846909D01*
X1503000Y639929D02*
Y647000D01*
X1476331Y613260D02*
X1503000Y639929D01*
X1308500Y638000D02*
Y648000D01*
X1272000Y638000D02*
X1308500D01*
X1748500Y646500D02*
X1748760Y646240D01*
Y615260D02*
Y646240D01*
X1735831Y615260D02*
X1748760D01*
X1735831Y596917D02*
X1736248Y596500D01*
X1729752D02*
Y605000D01*
X1727169Y607583D02*
X1729752Y605000D01*
X1727169Y607583D02*
Y619000D01*
X1468504Y604000D02*
X1468752Y603752D01*
Y595000D02*
Y603752D01*
X1467669Y604835D02*
X1468504Y604000D01*
X1467669Y604835D02*
Y617000D01*
X1475248Y595000D02*
X1476331Y596083D01*
X1342358Y608181D02*
Y644642D01*
X1327500Y659500D02*
X1342358Y644642D01*
X1308500Y667000D02*
Y727500D01*
X1412000Y667000D02*
X1413000Y666000D01*
X1308500Y749500D02*
X1309500Y750500D01*
X1308500Y727500D02*
Y749500D01*
X1031000Y720000D02*
X1093256D01*
X1017972Y733028D02*
X1031000Y720000D01*
X1017972Y733028D02*
Y738500D01*
X1093256Y720000D02*
X1100756Y712500D01*
X1107252D02*
Y728748D01*
X1103980Y732020D02*
X1107252Y728748D01*
X1068000Y732020D02*
X1103980D01*
X1061020Y739000D02*
X1068000Y732020D01*
X1296500Y763500D02*
Y774500D01*
Y763500D02*
X1309500Y750500D01*
X1296500Y774500D02*
X1317500D01*
X1326500Y765500D01*
Y764472D02*
Y765500D01*
X1307500Y864224D02*
X1314752Y856972D01*
X1640528Y952028D02*
X1641000Y952500D01*
X1650028Y952472D02*
X1650055Y952500D01*
X1712528Y951000D02*
X1713528Y952000D01*
X1689528Y943500D02*
X1690028D01*
X1680028Y937000D02*
X1680032Y937004D01*
X1698528Y885000D02*
X1699280Y884248D01*
X1700528D02*
X1700780Y884500D01*
X1699280Y884248D02*
X1700528D01*
X1707276Y884500D02*
X1707524Y884252D01*
X1701028Y875000D02*
X1701031Y874996D01*
X1707524Y875000D02*
X1707528Y874996D01*
X1699468Y864437D02*
X1701031Y866000D01*
X1642780Y857000D02*
X1643028Y856752D01*
X1665528Y857000D02*
X1666528Y856000D01*
X1694350Y848106D02*
Y852535D01*
X1696909D02*
X1697181Y852264D01*
X1698189Y844268D02*
X1700457Y842000D01*
X1694350Y834323D02*
Y836000D01*
X1696638Y835728D02*
X1696909Y836000D01*
X1718032D02*
X1718528Y835504D01*
X1642520Y824492D02*
X1643028Y825000D01*
X1666028D02*
X1666528Y824500D01*
X1688028Y828000D02*
X1692528Y823500D01*
X1699684D02*
X1702028Y825843D01*
X1642520Y763158D02*
Y764500D01*
X1703032Y950559D02*
X1704472Y952000D01*
X1668878Y937000D02*
X1680028D01*
X1709528Y921500D02*
X1712028Y924000D01*
X1701528Y919996D02*
X1703032Y921500D01*
X1655528Y914248D02*
X1655779Y914500D01*
X1662276D02*
X1664555Y912220D01*
X1710028Y912000D02*
X1711028Y913000D01*
X1709528Y914500D02*
X1711028Y913000D01*
X1647102Y887000D02*
X1655528D01*
X1692780Y882000D02*
X1695528D01*
X1640842Y877000D02*
X1647028D01*
X1655528Y869248D02*
X1656776Y868000D01*
X1649276Y857000D02*
X1659031D01*
X1694350Y852535D02*
X1696909D01*
X1690299Y844268D02*
X1698189D01*
X1687528Y841496D02*
X1690299Y844268D01*
X1643028Y825000D02*
X1666028D01*
X1654528Y764500D02*
X1659787Y759240D01*
X1663528Y761492D02*
X1666535Y764500D01*
X1687528Y739000D02*
X1688528Y740000D01*
X1663028Y875000D02*
X1685780D01*
X1692276D02*
X1701028D01*
X1666528Y835583D02*
X1680445D01*
X1692528Y823500D02*
X1699684D01*
X1666535Y809028D02*
X1684000D01*
X1662528Y772500D02*
X1676528D01*
X1663528Y739000D02*
X1687528D01*
X1650028Y927500D02*
Y952472D01*
X1712028Y924000D02*
Y933500D01*
X1664555Y904000D02*
Y912220D01*
X1709528Y914500D02*
Y921500D01*
X1701031Y866000D02*
Y874996D01*
X1707528Y866000D02*
Y874996D01*
X1707524Y875000D02*
Y884252D01*
X1649276Y846500D02*
Y857000D01*
X1659279Y833248D02*
Y846500D01*
Y833248D02*
X1662528Y830000D01*
X1688028Y828000D02*
X1694350Y834323D01*
X1696638Y828500D02*
Y835728D01*
X1642520Y809028D02*
Y824492D01*
X1659787Y749630D02*
Y759240D01*
X1688528Y740000D02*
X1693528Y745000D01*
X1711528Y934000D02*
X1712028Y933500D01*
X1647028Y877000D02*
X1648028Y878000D01*
X1685780Y875000D02*
X1694350Y866429D01*
X1685780Y875000D02*
X1692780Y882000D01*
X1702028Y860500D02*
X1707528Y866000D01*
X1649276Y846500D02*
X1659279D01*
X1694350Y848106D02*
X1698189Y844268D01*
X1680445Y835583D02*
X1688028Y828000D01*
X1684000Y809028D02*
X1693528Y799500D01*
X1654528Y764500D02*
X1662528Y772500D01*
X1663528Y749630D02*
Y761492D01*
X1659378Y927500D02*
X1668878Y937000D01*
X1662528Y830000D02*
X1676028D01*
X1666535Y809028D02*
X1676028Y818520D01*
X1701528Y890248D02*
Y894000D01*
X1649276Y857000D02*
Y866996D01*
X1676028Y818520D02*
Y830000D01*
X1676528Y758000D02*
Y772500D01*
X1694350Y852535D02*
Y866429D01*
X1699468Y852535D02*
Y864437D01*
X1702028Y852535D02*
Y860500D01*
Y825843D02*
Y836000D01*
X1655779Y914500D02*
Y921748D01*
X1701528Y890248D02*
X1707276Y884500D01*
X1642520Y763158D02*
X1656047Y749630D01*
X1693528Y745000D02*
Y769500D01*
X1656047Y739000D02*
X1663528D01*
X1689524Y937000D02*
X1689528Y937004D01*
X1689500Y937000D02*
X1689524D01*
X1649276Y866996D02*
X1650000Y867721D01*
X1662276Y914500D02*
Y924602D01*
X1790528Y952028D02*
X1791000Y952500D01*
X1800028Y952472D02*
X1800055Y952500D01*
X1853032Y950559D02*
X1854472Y952000D01*
X1862528Y951000D02*
X1863528Y952000D01*
X1861528Y934000D02*
X1862028Y933500D01*
X1805528Y914248D02*
X1805779Y914500D01*
X1860028Y912000D02*
X1861028Y913000D01*
X1851528Y890248D02*
Y894000D01*
X1850528Y884248D02*
X1850780Y884500D01*
X1785528Y877000D02*
X1790842D01*
X1797028D02*
X1798028Y878000D01*
X1851028Y875000D02*
X1851031Y874996D01*
X1857524Y875000D02*
X1857528Y874996D01*
X1799276Y866996D02*
X1800000Y867721D01*
X1805528Y869248D02*
X1806776Y868000D01*
X1846909Y852535D02*
X1847181Y852264D01*
X1844350Y848106D02*
X1848189Y844268D01*
X1844350Y834323D02*
Y836000D01*
X1846638Y835728D02*
X1846909Y836000D01*
X1868032D02*
X1868528Y835504D01*
X1837528Y739000D02*
X1838528Y740000D01*
X1818878Y937000D02*
X1830028D01*
X1809378Y927500D02*
X1812276Y924602D01*
X1848528Y885000D02*
X1849280Y884248D01*
X1850528D01*
X1857276Y884500D02*
X1857524Y884252D01*
X1790842Y877000D02*
X1797028D01*
X1813028Y875000D02*
X1835780D01*
X1842276D02*
X1851028D01*
X1792780Y857000D02*
X1793028Y856752D01*
X1815528Y857000D02*
X1816528Y856000D01*
X1840299Y844268D02*
X1848189D01*
X1816528Y835583D02*
X1830445D01*
X1812528Y830000D02*
X1826028D01*
X1792520Y824492D02*
X1793028Y825000D01*
X1816028D02*
X1816528Y824500D01*
X1842528Y823500D02*
X1849684D01*
X1812528Y772500D02*
X1826528D01*
X1792520Y763158D02*
Y764500D01*
X1838528Y740000D02*
X1843528Y745000D01*
X1797102Y887000D02*
X1805528D01*
X1799276Y857000D02*
X1809031D01*
X1799276Y846500D02*
X1809279D01*
X1793028Y825000D02*
X1816028D01*
X1813528Y739000D02*
X1837528D01*
X1830028Y937000D02*
X1830032Y937004D01*
X1839524Y937000D02*
X1839528Y937004D01*
X1805779Y914500D02*
Y921748D01*
X1814555Y904000D02*
Y912220D01*
X1812276Y914500D02*
X1814555Y912220D01*
X1812276Y914500D02*
Y924602D01*
X1859528Y914500D02*
X1861028Y913000D01*
X1859528Y914500D02*
Y921500D01*
X1842780Y882000D02*
X1845528D01*
X1857524Y875000D02*
Y884252D01*
X1799276Y846500D02*
Y857000D01*
Y866996D01*
X1837528Y841496D02*
X1840299Y844268D01*
X1844350Y852535D02*
Y866429D01*
X1852028Y852535D02*
Y860500D01*
X1826028Y818520D02*
Y830000D01*
X1846638Y828500D02*
Y835728D01*
X1849684Y823500D02*
X1852028Y825843D01*
Y836000D01*
X1813528Y749630D02*
Y761492D01*
X1826528Y758000D02*
Y772500D01*
X1843528Y745000D02*
Y769500D01*
X1790842Y880740D02*
X1797102Y887000D01*
X1851528Y890248D02*
X1857276Y884500D01*
X1785528Y864252D02*
X1792780Y857000D01*
X1849468Y864437D02*
X1851031Y866000D01*
X1848189Y844268D02*
X1850457Y842000D01*
X1849468Y852535D02*
Y864437D01*
X1852028Y860500D02*
X1857528Y866000D01*
X1792520Y809028D02*
Y824492D01*
X1809279Y833248D02*
X1812528Y830000D01*
X1816535Y809028D02*
X1826028Y818520D01*
X1816535Y809028D02*
X1834000D01*
X1838028Y828000D02*
X1842528Y823500D01*
X1838028Y828000D02*
X1844350Y834323D01*
X1813528Y761492D02*
X1816535Y764500D01*
X1800028Y927500D02*
X1805779Y921748D01*
X1835780Y875000D02*
X1842780Y882000D01*
X1830445Y835583D02*
X1838028Y828000D01*
X1804528Y764500D02*
X1812528Y772500D01*
X1792520Y763158D02*
X1806047Y749630D01*
X1785528Y864252D02*
Y877000D01*
X1800028Y927500D02*
Y952472D01*
X1805528Y869248D02*
Y887000D01*
X1851031Y866000D02*
Y874996D01*
X1857528Y866000D02*
Y874996D01*
X1809378Y927500D02*
X1818878Y937000D01*
X1809279Y833248D02*
Y846500D01*
X1835780Y875000D02*
X1844350Y866429D01*
X1834000Y809028D02*
X1843528Y799500D01*
X1940500Y954528D02*
X1940972Y955000D01*
X1950000Y954972D02*
X1950028Y955000D01*
X2003004Y953059D02*
X2004445Y954500D01*
X2012500Y953500D02*
X2013500Y954500D01*
X1989500Y946000D02*
X1990000D01*
X1989472Y939500D02*
X1989496D01*
X2011500Y936500D02*
X2012000Y936000D01*
X1955500Y916748D02*
X1955752Y917000D01*
X2010000Y914500D02*
X2011000Y915500D01*
X2001500Y892748D02*
Y896500D01*
X1947000Y879500D02*
X1948000Y880500D01*
X2001000Y877500D02*
X2001004Y877496D01*
X2007496Y877500D02*
X2007500Y877496D01*
X1955500Y871748D02*
X1956748Y870500D01*
X1994323Y855035D02*
X1996882D01*
X1994323Y850606D02*
X1998161Y846768D01*
X1994323Y836823D02*
Y838500D01*
X1996610Y838228D02*
X1996882Y838500D01*
X2018004D02*
X2018500Y838004D01*
X1968850Y939500D02*
X1980000D01*
X1959350Y930000D02*
X1962248Y927102D01*
X1998500Y887500D02*
X1999252Y886748D01*
X2007248Y887000D02*
X2007496Y886752D01*
X1940815Y879500D02*
X1947000D01*
X1963000Y877500D02*
X1985752D01*
X1992248D02*
X2001000D01*
X1942752Y859500D02*
X1943000Y859252D01*
X1965500Y859500D02*
X1966500Y858500D01*
X1990272Y846768D02*
X1998161D01*
X1966500Y838083D02*
X1980417D01*
X1962500Y832500D02*
X1976000D01*
X1942492Y826992D02*
X1943000Y827500D01*
X1966000D02*
X1966500Y827000D01*
X1992500Y826000D02*
X1999657D01*
X1962500Y775000D02*
X1976500D01*
X1942492Y765658D02*
Y767000D01*
X1956020Y741500D02*
X1963500D01*
X1988500Y742500D02*
X1993500Y747500D01*
X1947075Y889500D02*
X1955500D01*
X1949248Y859500D02*
X1959004D01*
X1949248Y849000D02*
X1959252D01*
X1943000Y827500D02*
X1966000D01*
X1963500Y741500D02*
X1987500D01*
X1980000Y939500D02*
X1980004Y939504D01*
X1989496Y939500D02*
X1989500Y939504D01*
X1955752Y917000D02*
Y924248D01*
X1964528Y906500D02*
Y914721D01*
X1962248Y917000D02*
X1964528Y914721D01*
X1962248Y917000D02*
Y927102D01*
X2001500Y922496D02*
X2003004Y924000D01*
X2009500Y917000D02*
X2011000Y915500D01*
X2009500Y917000D02*
Y924000D01*
X2012000Y926500D01*
X1992752Y884500D02*
X1995500D01*
X2007496Y877500D02*
Y886752D01*
X1949248Y849000D02*
Y859500D01*
Y869496D01*
X1987500Y843996D02*
X1990272Y846768D01*
X1994323Y850606D02*
Y855035D01*
Y868929D01*
X2002000Y855035D02*
Y863000D01*
X1976000Y821020D02*
Y832500D01*
X1996610Y831000D02*
Y838228D01*
X1999657Y826000D02*
X2002000Y828343D01*
Y838500D01*
X1959760Y752130D02*
Y761740D01*
X1963500Y752130D02*
Y763992D01*
X1976500Y760500D02*
Y775000D01*
X1993500Y747500D02*
Y772000D01*
X1940815Y883240D02*
X1947075Y889500D01*
X2001500Y892748D02*
X2007248Y887000D01*
X1935500Y866752D02*
X1942752Y859500D01*
X1999441Y866937D02*
X2001004Y868500D01*
X1998161Y846768D02*
X2000429Y844500D01*
X1999441Y855035D02*
Y866937D01*
X2002000Y863000D02*
X2007500Y868500D01*
X1942492Y811528D02*
Y826992D01*
X1959252Y835748D02*
X1962500Y832500D01*
X1966508Y811528D02*
X1976000Y821020D01*
X1966508Y811528D02*
X1983972D01*
X1988000Y830500D02*
X1992500Y826000D01*
X1988000Y830500D02*
X1994323Y836823D01*
X1963500Y763992D02*
X1966508Y767000D01*
X1950000Y930000D02*
X1955752Y924248D01*
X1985752Y877500D02*
X1992752Y884500D01*
X1980417Y838083D02*
X1988000Y830500D01*
X1954500Y767000D02*
X1959760Y761740D01*
X1954500Y767000D02*
X1962500Y775000D01*
X1942492Y765658D02*
X1956020Y752130D01*
X1935500Y866752D02*
Y879500D01*
X1950000Y930000D02*
Y954972D01*
X1955500Y871748D02*
Y889500D01*
X2001004Y868500D02*
Y877496D01*
X2007500Y868500D02*
Y877496D01*
X2012000Y926500D02*
Y936000D01*
X1959350Y930000D02*
X1968850Y939500D01*
X1959252Y835748D02*
Y849000D01*
X1985752Y877500D02*
X1994323Y868929D01*
X1983972Y811528D02*
X1993500Y802000D01*
X1935500Y879500D02*
X1940815D01*
X1987500Y741500D02*
X1988500Y742500D01*
X1862028Y924000D02*
Y933500D01*
X1859528Y921500D02*
X1862028Y924000D01*
X1851528Y919996D02*
X1853032Y921500D01*
X1429000Y934000D02*
X1429118Y933882D01*
X1439236Y918382D02*
X1439354Y918500D01*
X1447118Y751500D02*
Y751996D01*
X1438618Y978004D02*
X1439236Y977386D01*
X1430618Y757087D02*
X1435618Y762087D01*
X1439236Y964000D02*
Y977386D01*
Y934000D02*
Y949000D01*
X1435118Y876000D02*
Y881882D01*
Y841252D02*
Y847000D01*
X1449118Y840252D02*
Y847500D01*
X1450618Y803500D02*
Y805000D01*
X1455618Y804500D02*
X1461622D01*
X1429000Y888000D02*
X1435118Y881882D01*
X1439236Y888000D02*
X1449118Y878118D01*
X1435118Y841252D02*
X1439370Y837000D01*
X1445866D02*
X1449118Y840252D01*
X1451618Y804500D02*
X1455618D01*
X1430618Y756000D02*
Y757087D01*
X1429118Y918500D02*
Y933882D01*
X1429000Y949000D02*
Y964000D01*
X1435118Y857236D02*
Y869504D01*
X1449118Y857736D02*
Y878118D01*
X1640842Y880740D02*
X1647102Y887000D01*
X1655528Y869248D02*
Y887000D01*
X1439118Y752000D02*
X1440000Y752882D01*
Y761469D01*
X1440618Y762087D01*
X1445618Y753496D02*
X1447118Y751996D01*
X1445618Y753496D02*
Y762087D01*
X1312500Y952000D02*
X1312972Y952472D01*
X1322000Y952445D02*
X1322028Y952472D01*
X1384500Y950972D02*
X1385500Y951972D01*
X1361500Y943472D02*
X1362000D01*
X1352000Y936972D02*
X1352004Y936976D01*
X1370500Y884972D02*
X1371252Y884221D01*
X1372500D02*
X1372752Y884472D01*
X1371252Y884221D02*
X1372500D01*
X1379248Y884472D02*
X1379496Y884224D01*
X1312815Y873232D02*
X1316992D01*
X1373000Y874972D02*
X1373004Y874969D01*
X1379496Y874972D02*
X1379500Y874969D01*
X1321248Y866969D02*
X1322252Y867972D01*
X1371441Y864409D02*
X1373004Y865972D01*
X1314752Y856972D02*
X1315000Y856724D01*
X1337500Y856972D02*
X1338500Y855972D01*
X1366323Y848079D02*
Y852508D01*
X1368882D02*
X1369153Y852236D01*
X1370161Y844240D02*
X1372429Y841972D01*
X1366323Y834295D02*
Y835972D01*
X1368610Y835701D02*
X1368882Y835972D01*
X1390004D02*
X1390500Y835476D01*
X1314492Y824465D02*
X1315000Y824972D01*
X1338000D02*
X1338500Y824472D01*
X1360000Y827972D02*
X1364500Y823472D01*
X1371657D02*
X1374000Y825816D01*
X1314492Y763130D02*
Y764472D01*
X1375004Y950531D02*
X1376445Y951972D01*
X1340850Y936972D02*
X1352000D01*
X1352004Y936976D02*
X1361500D01*
X1381500Y921472D02*
X1384000Y923972D01*
X1373500Y919969D02*
X1375004Y921472D01*
X1327500Y914221D02*
X1327752Y914472D01*
X1334248D02*
X1336528Y912193D01*
X1382000Y911972D02*
X1383000Y912972D01*
X1381500Y914472D02*
X1383000Y912972D01*
X1364752Y881972D02*
X1367500D01*
X1312815Y876972D02*
X1319000D01*
X1327500Y869221D02*
X1328748Y867972D01*
X1321248Y856972D02*
X1331004D01*
X1366323Y852508D02*
X1368882D01*
X1362272Y844240D02*
X1370161D01*
X1359500Y841469D02*
X1362272Y844240D01*
X1315000Y824972D02*
X1338000D01*
X1326500Y764472D02*
X1331760Y759213D01*
X1335500Y761465D02*
X1338508Y764472D01*
X1328020Y738972D02*
X1335500D01*
X1359500D02*
X1360500Y739972D01*
X1307500Y876972D02*
X1312815D01*
X1364248Y874972D02*
X1373000D01*
X1338500Y835555D02*
X1352417D01*
X1364500Y823472D02*
X1371657D01*
X1338508Y809000D02*
X1355972D01*
X1334500Y772472D02*
X1348500D01*
X1335500Y738972D02*
X1359500D01*
X1322000Y927472D02*
Y952445D01*
X1331350Y927472D02*
X1334248Y924575D01*
X1361500Y936976D02*
X1364504Y933972D01*
X1384000Y923972D02*
Y933472D01*
X1336528Y903972D02*
Y912193D01*
X1381500Y914472D02*
Y921472D01*
X1307500Y864224D02*
Y876972D01*
X1373004Y865972D02*
Y874969D01*
X1379500Y865972D02*
Y874969D01*
X1379496Y874972D02*
Y884224D01*
X1321248Y846472D02*
Y856972D01*
X1331252Y833220D02*
Y846472D01*
Y833220D02*
X1334500Y829972D01*
X1360000Y827972D02*
X1366323Y834295D01*
X1368610Y828472D02*
Y835701D01*
X1314492Y809000D02*
Y824465D01*
X1331760Y749602D02*
Y759213D01*
X1360500Y739972D02*
X1365500Y744972D01*
X1383500Y933972D02*
X1384000Y933472D01*
X1316992Y873232D02*
X1322252Y867972D01*
X1319000Y876972D02*
X1320000Y877972D01*
X1357752Y874972D02*
X1364752Y881972D01*
X1321248Y846472D02*
X1331252D01*
X1366323Y848079D02*
X1370161Y844240D01*
X1352417Y835555D02*
X1360000Y827972D01*
X1355972Y809000D02*
X1365500Y799472D01*
X1326500Y764472D02*
X1334500Y772472D01*
X1335500Y749602D02*
Y761465D01*
X1331350Y927472D02*
X1340850Y936972D01*
X1334500Y829972D02*
X1348000D01*
X1338508Y809000D02*
X1348000Y818492D01*
X1334248Y914472D02*
Y924575D01*
X1373500Y890221D02*
Y893972D01*
X1321248Y856972D02*
Y866969D01*
X1348000Y818492D02*
Y829972D01*
X1348500Y757972D02*
Y772472D01*
X1374000Y825816D02*
Y835972D01*
X1327752Y914472D02*
Y921721D01*
X1322000Y927472D02*
X1327752Y921721D01*
X1373500Y890221D02*
X1379248Y884472D01*
X1314492Y763130D02*
X1328020Y749602D01*
X1365500Y744972D02*
Y769472D01*
X1374000Y860472D02*
X1379500Y865972D01*
X1374000Y852508D02*
Y860472D01*
X1371441Y852508D02*
Y864409D01*
X1357752Y874972D02*
X1366323Y866402D01*
Y852508D02*
Y866402D01*
X1312815Y880713D02*
X1319075Y886972D01*
X1327500D01*
Y869221D02*
Y886972D01*
X1335000Y874972D02*
X1357752D01*
X1445618Y836752D02*
X1445866Y837000D01*
X1488996Y840748D02*
Y846496D01*
X1493878Y760965D02*
X1494496Y761583D01*
X1493248Y836496D02*
X1494496Y835248D01*
X1493114Y917878D02*
X1493232Y917996D01*
X1492496Y977500D02*
X1493114Y976882D01*
X1500996Y750996D02*
Y751492D01*
X1504496Y802996D02*
Y804496D01*
X1488996Y856732D02*
Y869000D01*
X1492996Y751496D02*
X1493878Y752378D01*
Y760965D01*
X1488996Y875496D02*
Y881378D01*
X1493114Y933496D02*
Y948496D01*
Y963496D02*
Y976882D01*
X1502996Y857232D02*
Y877614D01*
Y839748D02*
Y846996D01*
X1505496Y803996D02*
X1509496D01*
X1499496Y836248D02*
X1499744Y836496D01*
X1482878Y933496D02*
X1482996Y933378D01*
X1507661Y761583D02*
X1510496Y758748D01*
X1499496Y752992D02*
X1500996Y751492D01*
X1499496Y752992D02*
Y761583D01*
X1488996Y840748D02*
X1493248Y836496D01*
X1499744D02*
X1502996Y839748D01*
X1482878Y887496D02*
Y903378D01*
X1493114Y887496D02*
X1502996Y877614D01*
X1482878Y887496D02*
X1488996Y881378D01*
X1482996Y917996D02*
Y933378D01*
X1482878Y948496D02*
Y963496D01*
X1450618Y762087D02*
X1455500D01*
X1456500Y761087D01*
Y753000D02*
Y761087D01*
X1489496Y759575D02*
Y761583D01*
X1485500Y755579D02*
X1489496Y759575D01*
X1485500Y753000D02*
Y755579D01*
X1439370Y837000D02*
X1440618Y835752D01*
Y805000D02*
Y813000D01*
X1539500Y755248D02*
Y756335D01*
X1548882Y760716D02*
X1549500Y761335D01*
X1548252Y836248D02*
X1549500Y835000D01*
X1548118Y917630D02*
X1548236Y917748D01*
X1547500Y977252D02*
X1548118Y976634D01*
X1556000Y750748D02*
Y751244D01*
X1559500Y802748D02*
Y804248D01*
X1539500Y756335D02*
X1544500Y761335D01*
X1548000Y751248D02*
X1548882Y752130D01*
Y760716D01*
X1544000Y875248D02*
Y881130D01*
X1548118Y933248D02*
Y948248D01*
Y963248D02*
Y976634D01*
X1558000Y856984D02*
Y877366D01*
Y839500D02*
Y846748D01*
X1560500Y803748D02*
X1564500D01*
X1545500Y812248D02*
X1549500Y808248D01*
X1554500Y836000D02*
X1554748Y836248D01*
X1537882Y933248D02*
X1538000Y933130D01*
X1562665Y761335D02*
X1565500Y758500D01*
X1554500Y752744D02*
X1556000Y751244D01*
X1554500Y752744D02*
Y761335D01*
Y822748D02*
Y836000D01*
X1544000Y840500D02*
X1548252Y836248D01*
X1554748D02*
X1558000Y839500D01*
X1548118Y887248D02*
X1558000Y877366D01*
X1537882Y887248D02*
X1544000Y881130D01*
X1538000Y917748D02*
Y933130D01*
X1537882Y948248D02*
Y963248D01*
X1564500Y803748D02*
X1570504D01*
X895000Y952028D02*
X895472Y952500D01*
X904500Y952472D02*
X904528Y952500D01*
X957504Y950559D02*
X958945Y952000D01*
X967000Y951000D02*
X968000Y952000D01*
X944000Y943500D02*
X944500D01*
X943972Y937000D02*
X943996D01*
X966000Y934000D02*
X966500Y933500D01*
X910000Y914248D02*
X910252Y914500D01*
X964500Y912000D02*
X965500Y913000D01*
X956000Y890248D02*
Y894000D01*
X955000Y884248D02*
X955252Y884500D01*
X890000Y877000D02*
X895315D01*
X901500D02*
X902500Y878000D01*
X955500Y875000D02*
X955504Y874996D01*
X961996Y875000D02*
X962000Y874996D01*
X903748Y866996D02*
X904472Y867721D01*
X910000Y869248D02*
X911248Y868000D01*
X951382Y852535D02*
X951653Y852264D01*
X948823Y852535D02*
X951382D01*
X948823Y848106D02*
X952661Y844268D01*
X948823Y834323D02*
Y836000D01*
X951110Y835728D02*
X951382Y836000D01*
X972504D02*
X973000Y835504D01*
X942000Y739000D02*
X943000Y740000D01*
X923350Y937000D02*
X934500D01*
X953000Y885000D02*
X953752Y884248D01*
X955000D01*
X961748Y884500D02*
X961996Y884252D01*
X895315Y877000D02*
X901500D01*
X917500Y875000D02*
X940252D01*
X946748D02*
X955500D01*
X897252Y857000D02*
X897500Y856752D01*
X920000Y857000D02*
X921000Y856000D01*
X944772Y844268D02*
X952661D01*
X921000Y835583D02*
X934917D01*
X917000Y830000D02*
X930500D01*
X896992Y824492D02*
X897500Y825000D01*
X920500D02*
X921000Y824500D01*
X947000Y823500D02*
X954157D01*
X917000Y772500D02*
X931000D01*
X896992Y763158D02*
Y764500D01*
X910520Y739000D02*
X918000D01*
X901575Y887000D02*
X910000D01*
X903748Y857000D02*
X913504D01*
X903748Y846500D02*
X913752D01*
X897500Y825000D02*
X920500D01*
X918000Y739000D02*
X942000D01*
X934500Y937000D02*
X934504Y937004D01*
X943996Y937000D02*
X944000Y937004D01*
X919028Y904000D02*
Y912220D01*
X916748Y914500D02*
X919028Y912220D01*
X956000Y919996D02*
X957504Y921500D01*
X964000Y914500D02*
X965500Y913000D01*
X964000Y914500D02*
Y921500D01*
X966500Y924000D01*
X947252Y882000D02*
X950000D01*
X961996Y875000D02*
Y884252D01*
X903748Y846500D02*
Y857000D01*
Y866996D01*
X942000Y841496D02*
X944772Y844268D01*
X948823Y848106D02*
Y852535D01*
Y866429D01*
X956500Y852535D02*
Y860500D01*
X930500Y818520D02*
Y830000D01*
X951110Y828500D02*
Y835728D01*
X954157Y823500D02*
X956500Y825843D01*
Y836000D01*
X914260Y749630D02*
Y759240D01*
X918000Y749630D02*
Y761492D01*
X931000Y758000D02*
Y772500D01*
X895315Y880740D02*
X901575Y887000D01*
X956000Y890248D02*
X961748Y884500D01*
X953941Y864437D02*
X955504Y866000D01*
X952661Y844268D02*
X954929Y842000D01*
X953941Y852535D02*
Y864437D01*
X956500Y860500D02*
X962000Y866000D01*
X896992Y809028D02*
Y824492D01*
X913752Y833248D02*
X917000Y830000D01*
X921008Y809028D02*
X930500Y818520D01*
X921008Y809028D02*
X938472D01*
X942500Y828000D02*
X947000Y823500D01*
X942500Y828000D02*
X948823Y834323D01*
X918000Y761492D02*
X921008Y764500D01*
X940252Y875000D02*
X947252Y882000D01*
X934917Y835583D02*
X942500Y828000D01*
X909000Y764500D02*
X914260Y759240D01*
X909000Y764500D02*
X917000Y772500D01*
X896992Y763158D02*
X910520Y749630D01*
X904500Y927500D02*
Y952472D01*
X910000Y869248D02*
Y887000D01*
X955504Y866000D02*
Y874996D01*
X962000Y866000D02*
Y874996D01*
X966500Y924000D02*
Y933500D01*
X913752Y833248D02*
Y846500D01*
X940252Y875000D02*
X948823Y866429D01*
X938472Y809028D02*
X948000Y799500D01*
X1504496Y761583D02*
X1507661D01*
X1494496Y804496D02*
Y812500D01*
X1559500Y802748D02*
X1560500Y803748D01*
X1554500Y804913D02*
Y822748D01*
X1549500Y804248D02*
Y804913D01*
Y808248D01*
X890000Y861500D02*
Y877000D01*
Y861500D02*
X894500Y857000D01*
X897252D01*
X1544000Y856484D02*
Y868752D01*
X1429000Y888000D02*
Y903500D01*
X1537882Y887248D02*
Y902500D01*
X1045500Y952028D02*
X1045972Y952500D01*
X1055000Y952472D02*
X1055028Y952500D01*
X1108004Y950559D02*
X1109445Y952000D01*
X1117500Y951000D02*
X1118500Y952000D01*
X1094500Y943500D02*
X1095000D01*
X1094472Y937000D02*
X1094496D01*
X1116500Y934000D02*
X1117000Y933500D01*
X1060500Y914248D02*
X1060752Y914500D01*
X1115000Y912000D02*
X1116000Y913000D01*
X1106500Y890248D02*
Y894000D01*
X1105500Y884248D02*
X1105752Y884500D01*
X1040500Y877000D02*
X1045815D01*
X1052000D02*
X1053000Y878000D01*
X1106000Y875000D02*
X1106004Y874996D01*
X1112496Y875000D02*
X1112500Y874996D01*
X1054248Y866996D02*
X1054972Y867721D01*
X1060500Y869248D02*
X1061748Y868000D01*
X1101882Y852535D02*
X1102153Y852264D01*
X1099323Y852535D02*
X1101882D01*
X1099323Y848106D02*
X1103161Y844268D01*
X1099323Y834323D02*
Y836000D01*
X1101610Y835728D02*
X1101882Y836000D01*
X1123004D02*
X1123500Y835504D01*
X1092500Y739000D02*
X1093500Y740000D01*
X1073850Y937000D02*
X1085000D01*
X1064350Y927500D02*
X1067248Y924602D01*
X1103500Y885000D02*
X1104252Y884248D01*
X1105500D01*
X1112248Y884500D02*
X1112496Y884252D01*
X1045815Y877000D02*
X1052000D01*
X1068000Y875000D02*
X1090752D01*
X1097248D02*
X1106000D01*
X1047752Y857000D02*
X1048000Y856752D01*
X1070500Y857000D02*
X1071500Y856000D01*
X1095272Y844268D02*
X1103161D01*
X1071500Y835583D02*
X1085417D01*
X1067500Y830000D02*
X1081000D01*
X1047492Y824492D02*
X1048000Y825000D01*
X1071000D02*
X1071500Y824500D01*
X1097500Y823500D02*
X1104657D01*
X1067500Y772500D02*
X1081500D01*
X1047492Y763158D02*
Y764500D01*
X1061020Y739000D02*
X1068500D01*
X1093500Y740000D02*
X1098500Y745000D01*
X1052075Y887000D02*
X1060500D01*
X1054248Y857000D02*
X1064004D01*
X1054248Y846500D02*
X1064252D01*
X1048000Y825000D02*
X1071000D01*
X1068500Y739000D02*
X1092500D01*
X1085000Y937000D02*
X1085004Y937004D01*
X1094496Y937000D02*
X1094500Y937004D01*
X1060752Y914500D02*
Y921748D01*
X1069528Y904000D02*
Y912220D01*
X1067248Y914500D02*
X1069528Y912220D01*
X1067248Y914500D02*
Y924602D01*
X1106500Y919996D02*
X1108004Y921500D01*
X1114500Y914500D02*
X1116000Y913000D01*
X1114500Y914500D02*
Y921500D01*
X1117000Y924000D01*
X1097752Y882000D02*
X1100500D01*
X1112496Y875000D02*
Y884252D01*
X1054248Y846500D02*
Y857000D01*
Y866996D01*
X1092500Y841496D02*
X1095272Y844268D01*
X1099323Y848106D02*
Y852535D01*
Y866429D01*
X1107000Y852535D02*
Y860500D01*
X1081000Y818520D02*
Y830000D01*
X1101610Y828500D02*
Y835728D01*
X1104657Y823500D02*
X1107000Y825843D01*
Y836000D01*
X1064760Y749630D02*
Y759240D01*
X1068500Y749630D02*
Y761492D01*
X1081500Y758000D02*
Y772500D01*
X1098500Y745000D02*
Y769500D01*
X1045815Y880740D02*
X1052075Y887000D01*
X1106500Y890248D02*
X1112248Y884500D01*
X1104441Y864437D02*
X1106004Y866000D01*
X1103161Y844268D02*
X1105429Y842000D01*
X1104441Y852535D02*
Y864437D01*
X1107000Y860500D02*
X1112500Y866000D01*
X1047492Y809028D02*
Y824492D01*
X1064252Y833248D02*
X1067500Y830000D01*
X1071508Y809028D02*
X1081000Y818520D01*
X1071508Y809028D02*
X1088972D01*
X1093000Y828000D02*
X1097500Y823500D01*
X1093000Y828000D02*
X1099323Y834323D01*
X1068500Y761492D02*
X1071508Y764500D01*
X1055000Y927500D02*
X1060752Y921748D01*
X1090752Y875000D02*
X1097752Y882000D01*
X1085417Y835583D02*
X1093000Y828000D01*
X1059500Y764500D02*
X1064760Y759240D01*
X1059500Y764500D02*
X1067500Y772500D01*
X1047492Y763158D02*
X1061020Y749630D01*
X1055000Y927500D02*
Y952472D01*
X1060500Y869248D02*
Y887000D01*
X1106004Y866000D02*
Y874996D01*
X1112500Y866000D02*
Y874996D01*
X1117000Y924000D02*
Y933500D01*
X1064350Y927500D02*
X1073850Y937000D01*
X1064252Y833248D02*
Y846500D01*
X1090752Y875000D02*
X1099323Y866429D01*
X1088972Y809028D02*
X1098500Y799500D01*
X1192028Y952028D02*
X1192500Y952500D01*
X1201528Y952472D02*
X1201555Y952500D01*
X1254531Y950559D02*
X1255972Y952000D01*
X1264028Y951000D02*
X1265028Y952000D01*
X1241028Y943500D02*
X1241528D01*
X1241000Y937000D02*
X1241024D01*
X1263028Y934000D02*
X1263528Y933500D01*
X1207028Y914248D02*
X1207279Y914500D01*
X1261528Y912000D02*
X1262528Y913000D01*
X1253028Y890248D02*
Y894000D01*
X1252028Y884248D02*
X1252279Y884500D01*
X1187028Y877000D02*
X1192342D01*
X1198528D02*
X1199528Y878000D01*
X1252528Y875000D02*
X1252532Y874996D01*
X1259024Y875000D02*
X1259028Y874996D01*
X1200776Y866996D02*
X1201500Y867721D01*
X1207028Y869248D02*
X1208276Y868000D01*
X1248409Y852535D02*
X1248681Y852264D01*
X1245850Y852535D02*
X1248409D01*
X1245850Y848106D02*
X1249689Y844268D01*
X1245850Y834323D02*
Y836000D01*
X1248138Y835728D02*
X1248409Y836000D01*
X1269532D02*
X1270028Y835504D01*
X1239028Y739000D02*
X1240028Y740000D01*
X1220378Y937000D02*
X1231528D01*
X1210878Y927500D02*
X1213776Y924602D01*
X1250028Y885000D02*
X1250780Y884248D01*
X1252028D01*
X1258776Y884500D02*
X1259024Y884252D01*
X1192342Y877000D02*
X1198528D01*
X1214528Y875000D02*
X1237280D01*
X1243776D02*
X1252528D01*
X1194279Y857000D02*
X1194528Y856752D01*
X1217028Y857000D02*
X1218028Y856000D01*
X1241799Y844268D02*
X1249689D01*
X1218028Y835583D02*
X1231945D01*
X1214028Y830000D02*
X1227528D01*
X1194020Y824492D02*
X1194528Y825000D01*
X1217528D02*
X1218028Y824500D01*
X1244028Y823500D02*
X1251184D01*
X1214028Y772500D02*
X1228028D01*
X1194020Y763158D02*
Y764500D01*
X1207547Y739000D02*
X1215028D01*
X1240028Y740000D02*
X1245028Y745000D01*
X1198602Y887000D02*
X1207028D01*
X1200776Y857000D02*
X1210532D01*
X1200776Y846500D02*
X1210779D01*
X1194528Y825000D02*
X1217528D01*
X1215028Y739000D02*
X1239028D01*
X1231528Y937000D02*
X1231532Y937004D01*
X1241024Y937000D02*
X1241028Y937004D01*
X1207279Y914500D02*
Y921748D01*
X1216055Y904000D02*
Y912220D01*
X1213776Y914500D02*
X1216055Y912220D01*
X1213776Y914500D02*
Y924602D01*
X1253028Y919996D02*
X1254531Y921500D01*
X1261028Y914500D02*
X1262528Y913000D01*
X1261028Y914500D02*
Y921500D01*
X1263528Y924000D01*
X1244279Y882000D02*
X1247028D01*
X1259024Y875000D02*
Y884252D01*
X1200776Y846500D02*
Y857000D01*
Y866996D01*
X1239028Y841496D02*
X1241799Y844268D01*
X1245850Y848106D02*
Y852535D01*
Y866429D01*
X1253528Y852535D02*
Y860500D01*
X1227528Y818520D02*
Y830000D01*
X1248138Y828500D02*
Y835728D01*
X1251184Y823500D02*
X1253528Y825843D01*
Y836000D01*
X1211287Y749630D02*
Y759240D01*
X1215028Y749630D02*
Y761492D01*
X1228028Y758000D02*
Y772500D01*
X1245028Y745000D02*
Y769500D01*
X1192342Y880740D02*
X1198602Y887000D01*
X1253028Y890248D02*
X1258776Y884500D01*
X1187028Y864252D02*
X1194279Y857000D01*
X1250968Y864437D02*
X1252532Y866000D01*
X1249689Y844268D02*
X1251957Y842000D01*
X1250968Y852535D02*
Y864437D01*
X1253528Y860500D02*
X1259028Y866000D01*
X1194020Y809028D02*
Y824492D01*
X1210779Y833248D02*
X1214028Y830000D01*
X1218035Y809028D02*
X1227528Y818520D01*
X1218035Y809028D02*
X1235500D01*
X1239528Y828000D02*
X1244028Y823500D01*
X1239528Y828000D02*
X1245850Y834323D01*
X1215028Y761492D02*
X1218035Y764500D01*
X1201528Y927500D02*
X1207279Y921748D01*
X1237280Y875000D02*
X1244279Y882000D01*
X1231945Y835583D02*
X1239528Y828000D01*
X1206028Y764500D02*
X1211287Y759240D01*
X1206028Y764500D02*
X1214028Y772500D01*
X1194020Y763158D02*
X1207547Y749630D01*
X1187028Y864252D02*
Y877000D01*
X1201528Y927500D02*
Y952472D01*
X1207028Y869248D02*
Y887000D01*
X1252532Y866000D02*
Y874996D01*
X1259028Y866000D02*
Y874996D01*
X1263528Y924000D02*
Y933500D01*
X1210878Y927500D02*
X1220378Y937000D01*
X1210779Y833248D02*
Y846500D01*
X1237280Y875000D02*
X1245850Y866429D01*
X1235500Y809028D02*
X1245028Y799500D01*
X1040500Y864252D02*
X1047752Y857000D01*
X1040500Y864252D02*
Y877000D01*
X1839528Y943500D02*
X1840028D01*
X1839500Y937000D02*
X1839524D01*
X1659378Y927500D02*
X1662276Y924602D01*
X1650028Y927500D02*
X1655779Y921748D01*
X1635528Y864252D02*
X1642780Y857000D01*
X1635528Y864252D02*
Y877000D01*
X1640842D01*
X910252Y914500D02*
Y921748D01*
X916748Y914500D02*
Y924602D01*
X913850Y927500D02*
X923350Y937000D01*
X913850Y927500D02*
X916748Y924602D01*
X904500Y927500D02*
X910252Y921748D01*
X1554748Y836248D02*
X1554996Y836000D01*
X1566500D01*
X1571500Y831000D01*
Y810248D02*
Y831000D01*
X1509496Y803996D02*
X1515500D01*
X1517000Y810748D02*
Y821000D01*
X1511496Y836496D02*
X1511500Y836500D01*
X1499744Y836496D02*
X1511496D01*
X1462500Y809996D02*
Y821000D01*
X1445866Y837000D02*
X1446366Y836500D01*
X1446866Y837000D02*
X1456500D01*
X1806000Y739000D02*
X1806047D01*
X1813528D01*
X1809787Y749630D02*
Y759240D01*
X1804528Y764500D02*
X1809787Y759240D01*
X1845000Y647000D02*
Y724500D01*
X1676000Y647000D02*
Y698500D01*
X1585500Y647000D02*
Y694500D01*
X1531252Y738500D02*
X1557752Y712000D01*
X1492878Y740622D02*
Y744748D01*
Y740622D02*
X1496800Y736700D01*
X1500996Y740004D02*
Y744996D01*
Y740004D02*
X1502500Y738500D01*
X1531252D01*
X1503000Y647000D02*
Y695500D01*
X1460590Y732910D02*
X1474000Y719500D01*
D33*
X1010987Y878502D02*
Y1250495D01*
X907000Y1354482D02*
X1010987Y1250495D01*
X907000Y1354482D02*
Y1423882D01*
X893591Y1437291D02*
X907000Y1423882D01*
X855872Y873492D02*
X860487Y878107D01*
Y944346D01*
X906000Y989859D01*
Y1133882D01*
X893091Y1146791D02*
X906000Y1133882D01*
X909500Y1355341D02*
X1013362Y1251478D01*
Y878502D02*
Y1251478D01*
Y878502D02*
X1018772Y873092D01*
X1159375Y879017D02*
Y1016625D01*
X1134125Y1037977D02*
X1157000Y1015103D01*
Y877592D02*
Y1015103D01*
X1152900Y873492D02*
X1157000Y877592D01*
X910000Y1663000D02*
X1137000Y1436000D01*
Y1039000D02*
Y1436000D01*
Y1039000D02*
X1159375Y1016625D01*
X1134125Y1037977D02*
Y1434875D01*
X1159375Y879017D02*
X1165300Y873092D01*
X907000Y1662000D02*
X1134125Y1434875D01*
X907000Y1662000D02*
Y1710591D01*
X910000Y1663000D02*
Y1711000D01*
X923000Y1724000D01*
X1609500Y941982D02*
X1726500Y1058982D01*
X1609500Y877392D02*
Y941982D01*
Y877392D02*
X1613800Y873092D01*
X1607000Y942841D02*
X1724125Y1059966D01*
X1607000Y879092D02*
Y942841D01*
X1601400Y873492D02*
X1607000Y879092D01*
X1724125Y1059966D02*
Y1138965D01*
X1711091Y1152000D02*
X1724125Y1138965D01*
X1726500Y1138000D02*
X1740500Y1152000D01*
X1726500Y1058982D02*
Y1138000D01*
X1712500Y1728791D02*
X1725625Y1715666D01*
Y1674591D02*
Y1715666D01*
Y1674591D02*
X1931500Y1468716D01*
X1728000Y1714882D02*
X1741909Y1728791D01*
X1728000Y1675575D02*
Y1714882D01*
Y1675575D02*
X1933875Y1469700D01*
Y979875D02*
Y1469700D01*
X1909000Y955000D02*
X1933875Y979875D01*
X1931500Y980859D02*
Y1468716D01*
X1906625Y955984D02*
X1931500Y980859D01*
X1906625Y881245D02*
Y955984D01*
X1901372Y875992D02*
X1906625Y881245D01*
X1757125Y950966D02*
X1831500Y1025341D01*
X1757125Y879217D02*
Y950966D01*
X1751400Y873492D02*
X1757125Y879217D01*
X1759500Y877392D02*
Y949982D01*
X1833875Y1024357D01*
Y1257484D01*
X1726375Y1364984D02*
X1833875Y1257484D01*
X1726375Y1364984D02*
Y1431875D01*
X1738291Y1443791D02*
X1741409D01*
X1726375Y1431875D02*
X1738291Y1443791D01*
X1724000Y1364000D02*
Y1432291D01*
X1712500Y1443791D02*
X1724000Y1432291D01*
X1909000Y880365D02*
Y955000D01*
Y880365D02*
X1913772Y875592D01*
X1724000Y1364000D02*
X1831500Y1256500D01*
Y1025341D02*
Y1256500D01*
X1759500Y877392D02*
X1763800Y873092D01*
X881500Y617500D02*
X920315D01*
X1308130Y631504D02*
X1331453Y608181D01*
X1724169Y616000D02*
X1727169Y619000D01*
X1713000Y616000D02*
X1724169D01*
X1457500Y617000D02*
X1467669D01*
X1456500Y616000D02*
X1457500Y617000D01*
X1220000Y688000D02*
X1222500Y685500D01*
Y629000D02*
Y685500D01*
Y629000D02*
X1243500D01*
X1245252Y630752D01*
X1259000D01*
X1272000Y631504D02*
X1308130D01*
X1271248Y630752D02*
X1272000Y631504D01*
X1259000Y630752D02*
X1271248D01*
X1308500Y648000D02*
Y667000D01*
X1412000D01*
X959000Y656500D02*
X968000Y647500D01*
X1051500Y633000D02*
Y654000D01*
X1153004Y654500D02*
X1168504D01*
X1328020Y731020D02*
Y738972D01*
X1326996Y729996D02*
X1328020Y731020D01*
X1869500Y654000D02*
X1885000D01*
X1789000D02*
X1800000D01*
X1610000D02*
X1625500D01*
X1529500D02*
X1540500D01*
X1072504Y654500D02*
X1083504D01*
X1547500Y983748D02*
Y984000D01*
X1438500Y984500D02*
X1438618D01*
X1493000Y984000D02*
X1493500Y984500D01*
X909500Y1423791D02*
X923000Y1437291D01*
X909500Y1355341D02*
Y1423791D01*
X1006372Y873492D02*
X1011000Y878120D01*
X893591Y1724000D02*
X907000Y1710591D01*
X908862Y989362D02*
Y1133154D01*
X921500Y1145791D01*
X862862Y878502D02*
X868272Y873092D01*
X862862Y878502D02*
Y943362D01*
X908862Y989362D01*
X1701500Y654500D02*
X1718000D01*
X1489000Y638500D02*
Y654500D01*
X882000Y675000D02*
X897496D01*
X880500Y616500D02*
X881500Y617500D01*
X880500Y656500D02*
X959000D01*
D34*
X1994500Y1133000D02*
Y1153000D01*
Y1173000D01*
Y1093000D02*
Y1113000D01*
Y1133000D01*
Y1173000D02*
Y1193000D01*
Y1213000D01*
Y1233000D01*
X1774500Y1153000D02*
Y1173000D01*
Y1093000D02*
Y1113000D01*
Y1133000D02*
Y1153000D01*
X1747291Y1173000D02*
X1774500D01*
Y1193000D01*
Y1213000D02*
Y1233000D01*
Y1193000D02*
Y1213000D01*
Y1113000D02*
Y1133000D01*
X2067520Y1802520D02*
X2069000D01*
X1996480Y1730000D02*
X2069000Y1802520D01*
X2028500Y1729500D02*
X2069000Y1770000D01*
X1349000Y1221000D02*
Y1382500D01*
X831000Y1769500D02*
X860000Y1740500D01*
Y1456000D02*
Y1740500D01*
Y1456000D02*
X886000D01*
X831000Y1167500D02*
X888000D01*
X831000D02*
Y1736980D01*
Y1802020D02*
X888311Y1744709D01*
X893591D01*
X2069000Y1736469D02*
Y1737480D01*
Y1227500D02*
Y1736469D01*
X1994500Y1153000D02*
X2069000Y1227500D01*
X1994500Y1730000D02*
X1996480D01*
X1994500D02*
Y1750000D01*
X2028500Y1477500D02*
Y1729500D01*
X1994500Y1443500D02*
X2028500Y1477500D01*
X1994500Y1443500D02*
Y1463500D01*
Y1423500D02*
Y1443500D01*
Y1403500D02*
Y1423500D01*
Y1383500D02*
Y1403500D01*
Y1503500D02*
Y1523500D01*
Y1483500D02*
Y1503500D01*
Y1463500D02*
Y1483500D01*
Y1710000D02*
Y1730000D01*
Y1690000D02*
Y1710000D01*
Y1670000D02*
Y1690000D01*
Y1790000D02*
Y1810000D01*
Y1770000D02*
Y1790000D01*
Y1750000D02*
Y1770000D01*
X928291Y1745000D02*
X949500D01*
X927000Y1168000D02*
X949500D01*
X927500Y1458500D02*
X949500D01*
X1451500Y1454000D02*
X1476342Y1429158D01*
X1348500Y1454000D02*
X1451500D01*
X1747000Y1172709D02*
X1747291Y1173000D01*
X1669157Y1172709D02*
X1706500D01*
X1669157Y1061500D02*
Y1172709D01*
X1670658Y1353307D02*
Y1462658D01*
X1671000Y1463000D01*
X1706000D01*
X1747000Y1463500D02*
X1774500D01*
X1774000Y1749500D02*
X1774500Y1750000D01*
X1746000Y1749500D02*
X1774000D01*
X1670658Y1749000D02*
X1709500D01*
X1670658Y1639307D02*
Y1749000D01*
X1774500Y1710000D02*
Y1730000D01*
Y1483500D02*
Y1503500D01*
Y1423500D02*
Y1443500D01*
Y1383500D02*
Y1403500D01*
X949500Y1378500D02*
Y1398500D01*
Y1438500D02*
Y1458500D01*
Y1478500D02*
Y1498500D01*
Y1665000D02*
Y1685000D01*
Y1725000D02*
Y1745000D01*
Y1765000D02*
Y1785000D01*
X1169500Y1685000D02*
Y1705000D01*
Y1765000D02*
Y1785000D01*
Y1665000D02*
X1226453Y1608047D01*
Y1532740D02*
Y1608047D01*
X1169500Y1398500D02*
Y1418500D01*
Y1478500D02*
Y1498500D01*
Y1458500D02*
X1174000Y1454000D01*
X1169500Y1318307D02*
X1226453Y1375260D01*
X1348500Y1532740D02*
Y1663500D01*
X1394500Y1712000D02*
X1436000D01*
X1476342Y1671658D01*
Y1639307D02*
Y1671658D01*
Y1353307D02*
Y1429158D01*
X1474842Y1061500D02*
Y1167657D01*
Y1268193D02*
X1515000D01*
X1428000Y1267500D02*
X1428693Y1268193D01*
X1425500Y1560000D02*
X1476342D01*
X1516500D01*
X1425000Y1559500D02*
X1425500Y1560000D01*
X1426000Y1846000D02*
X1476342D01*
X1516500D01*
X1425500Y1846500D02*
X1426000Y1846000D01*
X1547500D02*
X1553843D01*
X1594000D01*
X1630500D01*
X1670658D01*
X1476342Y1639307D02*
X1516500D01*
X1553843D01*
X1594000D01*
X1630500D01*
X1670658D01*
X1630500Y1560000D02*
X1670658D01*
X1476342Y1353307D02*
X1516500D01*
X1630500D02*
X1670658D01*
X1774500Y1403500D02*
Y1423500D01*
Y1443500D02*
Y1463500D01*
Y1503500D02*
Y1523500D01*
X1629000Y1268193D02*
X1669157D01*
X1474842Y1061500D02*
X1515000D01*
X1629000D02*
X1669157D01*
X949500Y1705000D02*
Y1725000D01*
Y1785000D02*
Y1805000D01*
Y1745000D02*
Y1765000D01*
X1169500Y1378500D02*
Y1398500D01*
Y1458500D02*
Y1478500D01*
Y1498500D02*
Y1518500D01*
X1174000Y1454000D02*
X1226453D01*
X1169500Y1665000D02*
Y1685000D01*
Y1785000D02*
Y1805000D01*
Y1745000D02*
Y1765000D01*
X949500Y1498500D02*
Y1518500D01*
Y1458500D02*
Y1478500D01*
Y1418500D02*
Y1438500D01*
Y1398500D02*
Y1418500D01*
X1169500Y1705000D02*
Y1725000D01*
Y1745000D01*
Y1438500D02*
Y1458500D01*
Y1418500D02*
Y1438500D01*
X949500Y1685000D02*
Y1705000D01*
X1428693Y1268193D02*
X1474842D01*
X1402343Y1167657D02*
X1474842D01*
X1349500Y1667000D02*
X1394500Y1712000D01*
X1774500Y1690000D02*
Y1710000D01*
Y1670000D02*
Y1690000D01*
Y1770000D02*
Y1790000D01*
Y1810000D01*
Y1730000D02*
Y1750000D01*
Y1770000D01*
X949500Y1108000D02*
Y1128000D01*
Y1088000D02*
Y1108000D01*
Y1128000D02*
Y1148000D01*
Y1168000D01*
Y1188000D01*
Y1208000D01*
Y1228000D01*
X1169500Y1208000D02*
Y1228000D01*
Y1148000D02*
Y1168000D01*
Y1128000D02*
Y1148000D01*
Y1168000D02*
Y1188000D01*
Y1088000D02*
Y1108000D01*
Y1128000D01*
Y1188000D02*
Y1208000D01*
Y1228000D02*
Y1318307D01*
X1774500Y1463500D02*
Y1483500D01*
X1592500Y1268193D02*
X1629000D01*
X1552343D02*
X1592500D01*
X1515000Y1061500D02*
X1552343D01*
X1592500D02*
X1629000D01*
X1552343D02*
X1592500D01*
X1594000Y1560000D02*
X1630500D01*
X1553843D02*
X1594000D01*
X1516500Y1353307D02*
X1553843D01*
X1594000D02*
X1630500D01*
X1553843D02*
X1594000D01*
X1349000Y1221000D02*
X1402343Y1167657D01*
D35*
X976500Y617000D02*
X994000Y599500D01*
X939500Y617000D02*
X976500D01*
D36*
X1425500Y1649650D02*
D03*
Y1846500D02*
D03*
X1425000Y1362650D02*
D03*
Y1559500D02*
D03*
X1428000Y1070650D02*
D03*
Y1267500D02*
D03*
X974000Y598000D02*
D03*
X994000D02*
D03*
X1516500Y1846000D02*
D03*
X1476342D02*
D03*
X1516500Y1639307D02*
D03*
X1476342D02*
D03*
X1594000Y1846000D02*
D03*
X1553843D02*
D03*
X1594000Y1639307D02*
D03*
X1553843D02*
D03*
X1670658Y1846000D02*
D03*
X1630500D02*
D03*
X1670658Y1639307D02*
D03*
X1630500D02*
D03*
X1516500Y1560000D02*
D03*
X1476342D02*
D03*
X1516500Y1353307D02*
D03*
X1476342D02*
D03*
X1594000Y1560000D02*
D03*
X1553843D02*
D03*
X1594000Y1353307D02*
D03*
X1553843D02*
D03*
X1670658Y1560000D02*
D03*
X1630500D02*
D03*
X1670658Y1353307D02*
D03*
X1630500D02*
D03*
X1515000Y1268193D02*
D03*
X1474842D02*
D03*
X1515000Y1061500D02*
D03*
X1474842D02*
D03*
X1592500Y1268193D02*
D03*
X1552343D02*
D03*
X1592500Y1061500D02*
D03*
X1552343D02*
D03*
X1669157Y1268193D02*
D03*
X1629000D02*
D03*
X1669157Y1061500D02*
D03*
X1629000D02*
D03*
D37*
X880500Y606500D02*
D03*
Y616500D02*
D03*
Y626500D02*
D03*
Y636500D02*
D03*
Y646500D02*
D03*
Y656500D02*
D03*
Y666500D02*
D03*
Y676500D02*
D03*
D38*
X831000Y1736980D02*
D03*
Y1769500D02*
D03*
Y1802020D02*
D03*
X2069000Y1801508D02*
D03*
Y1768988D02*
D03*
Y1736469D02*
D03*
D39*
X1059500Y1855000D02*
D03*
Y1615000D02*
D03*
X1884500Y1860000D02*
D03*
Y1620000D02*
D03*
X1059500Y1568500D02*
D03*
Y1328500D02*
D03*
X1884500Y1573500D02*
D03*
Y1333500D02*
D03*
X1059500Y1278000D02*
D03*
Y1038000D02*
D03*
X1884500Y1283000D02*
D03*
Y1043000D02*
D03*
D40*
X949500Y1665000D02*
D03*
Y1685000D02*
D03*
Y1705000D02*
D03*
Y1725000D02*
D03*
Y1745000D02*
D03*
Y1765000D02*
D03*
Y1785000D02*
D03*
Y1805000D02*
D03*
X1169500Y1665000D02*
D03*
Y1685000D02*
D03*
Y1705000D02*
D03*
Y1725000D02*
D03*
Y1745000D02*
D03*
Y1765000D02*
D03*
Y1785000D02*
D03*
Y1805000D02*
D03*
X1774500Y1670000D02*
D03*
Y1690000D02*
D03*
Y1710000D02*
D03*
Y1730000D02*
D03*
Y1750000D02*
D03*
Y1770000D02*
D03*
Y1790000D02*
D03*
Y1810000D02*
D03*
X1994500Y1670000D02*
D03*
Y1690000D02*
D03*
Y1710000D02*
D03*
Y1730000D02*
D03*
Y1750000D02*
D03*
Y1770000D02*
D03*
Y1790000D02*
D03*
Y1810000D02*
D03*
X949500Y1378500D02*
D03*
Y1398500D02*
D03*
Y1418500D02*
D03*
Y1438500D02*
D03*
Y1458500D02*
D03*
Y1478500D02*
D03*
Y1498500D02*
D03*
Y1518500D02*
D03*
X1169500Y1378500D02*
D03*
Y1398500D02*
D03*
Y1418500D02*
D03*
Y1438500D02*
D03*
Y1458500D02*
D03*
Y1478500D02*
D03*
Y1498500D02*
D03*
Y1518500D02*
D03*
X1774500Y1383500D02*
D03*
Y1403500D02*
D03*
Y1423500D02*
D03*
Y1443500D02*
D03*
Y1463500D02*
D03*
Y1483500D02*
D03*
Y1503500D02*
D03*
Y1523500D02*
D03*
X1994500Y1383500D02*
D03*
Y1403500D02*
D03*
Y1423500D02*
D03*
Y1443500D02*
D03*
Y1463500D02*
D03*
Y1483500D02*
D03*
Y1503500D02*
D03*
Y1523500D02*
D03*
X949500Y1088000D02*
D03*
Y1108000D02*
D03*
Y1128000D02*
D03*
Y1148000D02*
D03*
Y1168000D02*
D03*
Y1188000D02*
D03*
Y1208000D02*
D03*
Y1228000D02*
D03*
X1169500Y1088000D02*
D03*
Y1108000D02*
D03*
Y1128000D02*
D03*
Y1148000D02*
D03*
Y1168000D02*
D03*
Y1188000D02*
D03*
Y1208000D02*
D03*
Y1228000D02*
D03*
X1774500Y1093000D02*
D03*
Y1113000D02*
D03*
Y1133000D02*
D03*
Y1153000D02*
D03*
Y1173000D02*
D03*
Y1193000D02*
D03*
Y1213000D02*
D03*
Y1233000D02*
D03*
X1994500Y1093000D02*
D03*
Y1113000D02*
D03*
Y1133000D02*
D03*
Y1153000D02*
D03*
Y1173000D02*
D03*
Y1193000D02*
D03*
Y1213000D02*
D03*
Y1233000D02*
D03*
D41*
X1226453Y1454000D02*
D03*
Y1532740D02*
D03*
X1348500Y1375260D02*
D03*
X1226453D02*
D03*
X1348500Y1532740D02*
D03*
Y1454000D02*
D03*
D42*
X1315094Y597000D02*
D03*
X1309642Y608181D02*
D03*
X1304189Y597000D02*
D03*
X1298736Y608181D02*
D03*
X1293283Y597000D02*
D03*
X1287831Y608181D02*
D03*
X1282378Y597000D02*
D03*
X1276925Y608181D02*
D03*
X1271472Y597000D02*
D03*
X1266020Y608181D02*
D03*
X1260567Y597000D02*
D03*
X1255114Y608181D02*
D03*
X1249661Y597000D02*
D03*
X1244209Y608181D02*
D03*
X1238756Y597000D02*
D03*
X1326000D02*
D03*
X1336905D02*
D03*
X1347811D02*
D03*
X1358716D02*
D03*
X1369622D02*
D03*
X1320547Y608181D02*
D03*
X1331453D02*
D03*
X1342358D02*
D03*
X1353264D02*
D03*
X1364169D02*
D03*
D43*
X1211591Y602591D02*
D03*
X1396787D02*
D03*
D44*
X1245028Y799500D02*
D03*
Y769500D02*
D03*
X1098500Y799500D02*
D03*
Y769500D02*
D03*
X948000Y799500D02*
D03*
Y769500D02*
D03*
X1365500Y799472D02*
D03*
Y769472D02*
D03*
X1993500Y802000D02*
D03*
Y772000D02*
D03*
X1693528Y799500D02*
D03*
Y769500D02*
D03*
X1843528Y799500D02*
D03*
Y769500D02*
D03*
D45*
X1920500Y831000D02*
D03*
X1911820Y835496D02*
D03*
X1024500Y829500D02*
D03*
X853000Y831000D02*
D03*
X1507500Y832000D02*
D03*
X1619696Y829500D02*
D03*
X1713000Y616000D02*
D03*
X1456500D02*
D03*
X1748500Y646500D02*
D03*
X1773000Y631500D02*
D03*
X1857500Y632000D02*
D03*
X1690000Y640500D02*
D03*
X1598000Y630000D02*
D03*
X1513500D02*
D03*
X1476500Y629500D02*
D03*
X1431000D02*
D03*
X1327500Y659500D02*
D03*
X1220000Y688000D02*
D03*
X1230500Y637500D02*
D03*
X1057500Y626000D02*
D03*
X1022500D02*
D03*
X1140500Y637500D02*
D03*
X1308500Y648000D02*
D03*
X1413000Y666000D02*
D03*
X968000Y647500D02*
D03*
X1051500Y654000D02*
D03*
Y633000D02*
D03*
X973000Y656500D02*
D03*
X1057000Y661500D02*
D03*
X1141000Y661000D02*
D03*
X1857500Y660500D02*
D03*
X1690000Y658500D02*
D03*
Y680000D02*
D03*
X1598000Y661000D02*
D03*
X1598252Y682500D02*
D03*
X1429500Y659000D02*
D03*
X1513752Y661252D02*
D03*
Y680000D02*
D03*
X1773000Y658500D02*
D03*
X1153004Y654500D02*
D03*
X888000Y727000D02*
D03*
X1308500Y727500D02*
D03*
X1038000D02*
D03*
X1184500D02*
D03*
X1326996Y729996D02*
D03*
X1600600Y752196D02*
D03*
X1621400Y810310D02*
D03*
X1621000Y752196D02*
D03*
X1711028Y913000D02*
D03*
X1663028Y875000D02*
D03*
X1687528Y835000D02*
D03*
X1690028Y943500D02*
D03*
X1699280Y884248D02*
D03*
X1676528Y758000D02*
D03*
X1711528Y934000D02*
D03*
X1648028Y878000D02*
D03*
X1696638Y828500D02*
D03*
X1688528Y740000D02*
D03*
X1640528Y952000D02*
D03*
X1713528D02*
D03*
X1656047Y739000D02*
D03*
X1689500Y937000D02*
D03*
X1650000Y868000D02*
D03*
X1674496Y900496D02*
D03*
X1620500Y892000D02*
D03*
X1861528Y934000D02*
D03*
X1798028Y878000D02*
D03*
X1838528Y740000D02*
D03*
X1824496Y900496D02*
D03*
X1770500Y892000D02*
D03*
X1849280Y884248D02*
D03*
X1800000Y868000D02*
D03*
X1769000Y828196D02*
D03*
X1846638Y828500D02*
D03*
X1826528Y758000D02*
D03*
X1790528Y952000D02*
D03*
X1830028Y943496D02*
D03*
X1861028Y913000D02*
D03*
X1813028Y875000D02*
D03*
X1837528Y835000D02*
D03*
X1863528Y952000D02*
D03*
X1750600Y752196D02*
D03*
X1771000D02*
D03*
X2011500Y936500D02*
D03*
X1948000Y880500D02*
D03*
X1988500Y742500D02*
D03*
X1974468Y902996D02*
D03*
X1920472Y894500D02*
D03*
X1999252Y886748D02*
D03*
X1949972Y870500D02*
D03*
X1996610Y831000D02*
D03*
X1976500Y760500D02*
D03*
X1940500Y954500D02*
D03*
X1980000Y945996D02*
D03*
X2011000Y915500D02*
D03*
X1963000Y877500D02*
D03*
X1921372Y812809D02*
D03*
X1987500Y837500D02*
D03*
X1956020Y741500D02*
D03*
X2013500Y954500D02*
D03*
X1990000Y946000D02*
D03*
X1989472Y939500D02*
D03*
X1900572Y754696D02*
D03*
X1920972D02*
D03*
X1746500Y812500D02*
D03*
X1455618Y804500D02*
D03*
X1430618Y756000D02*
D03*
X1383000Y912972D02*
D03*
X1359500Y834972D02*
D03*
X1364504Y933972D02*
D03*
X1362000Y943472D02*
D03*
X1322252Y867972D02*
D03*
X1371252Y884221D02*
D03*
X1348500Y757972D02*
D03*
X1352000Y943468D02*
D03*
X1383500Y933972D02*
D03*
X1320000Y877972D02*
D03*
X1368610Y828472D02*
D03*
X1360500Y739972D02*
D03*
X1312500Y951972D02*
D03*
X1385500D02*
D03*
X1335000Y874972D02*
D03*
X1327500Y893468D02*
D03*
X1375531Y900469D02*
D03*
X1417000Y826500D02*
D03*
X1510496Y758748D02*
D03*
X1509496Y803996D02*
D03*
X1456500Y753000D02*
D03*
X1485500D02*
D03*
X1422000Y821000D02*
D03*
X1426500Y826000D02*
D03*
X1440618Y813000D02*
D03*
X1435118Y847000D02*
D03*
X1489000D02*
D03*
X1494496Y812500D02*
D03*
X1479500Y825559D02*
D03*
X1471500Y830000D02*
D03*
X1565500Y758500D02*
D03*
X1539500Y755248D02*
D03*
X1545500Y812248D02*
D03*
X1564500Y803748D02*
D03*
X1527500Y829236D02*
D03*
X1561587Y829413D02*
D03*
X1543500Y845500D02*
D03*
X1558748Y812248D02*
D03*
X1503744Y812496D02*
D03*
X1449866Y813000D02*
D03*
X966000Y934000D02*
D03*
X902500Y878000D02*
D03*
X943000Y740000D02*
D03*
X874972Y892000D02*
D03*
X953752Y884248D02*
D03*
X904472Y868000D02*
D03*
X951110Y828500D02*
D03*
X850972Y812500D02*
D03*
X931000Y758000D02*
D03*
X895000Y952000D02*
D03*
X934500Y943496D02*
D03*
X965500Y913000D02*
D03*
X917500Y875000D02*
D03*
X875872Y810310D02*
D03*
X942000Y835000D02*
D03*
X910520Y739000D02*
D03*
X968000Y952000D02*
D03*
X944500Y943500D02*
D03*
X943972Y937000D02*
D03*
X855872Y873492D02*
D03*
X855072Y752196D02*
D03*
X875472D02*
D03*
X1596500Y812500D02*
D03*
X1634000Y804000D02*
D03*
X1784500Y805000D02*
D03*
X928969Y900496D02*
D03*
X1530500Y824500D02*
D03*
X1428500Y904000D02*
D03*
X1482878Y903378D02*
D03*
X1537122D02*
D03*
X1116500Y934000D02*
D03*
X1053000Y878000D02*
D03*
X1093500Y740000D02*
D03*
X1079469Y900496D02*
D03*
X1025472Y892000D02*
D03*
X1104252Y884248D02*
D03*
X1054972Y868000D02*
D03*
X1101610Y828500D02*
D03*
X1001472Y812500D02*
D03*
X1081500Y758000D02*
D03*
X1045500Y952000D02*
D03*
X1085000Y943496D02*
D03*
X1116000Y913000D02*
D03*
X1068000Y875000D02*
D03*
X1092500Y835000D02*
D03*
X1061020Y739000D02*
D03*
X1118500Y952000D02*
D03*
X1095000Y943500D02*
D03*
X1094472Y937000D02*
D03*
X1006372Y873492D02*
D03*
X1005572Y752196D02*
D03*
X1025972D02*
D03*
X1263028Y934000D02*
D03*
X1199528Y878000D02*
D03*
X1240028Y740000D02*
D03*
X1225996Y900496D02*
D03*
X1172000Y892000D02*
D03*
X1250780Y884248D02*
D03*
X1201500Y868000D02*
D03*
X1248138Y828500D02*
D03*
X1148000Y812500D02*
D03*
X1228028Y758000D02*
D03*
X1192028Y952000D02*
D03*
X1231528Y943496D02*
D03*
X1262528Y913000D02*
D03*
X1214528Y875000D02*
D03*
X1172900Y810310D02*
D03*
X1239028Y835000D02*
D03*
X1207547Y739000D02*
D03*
X1265028Y952000D02*
D03*
X1241528Y943500D02*
D03*
X1241000Y937000D02*
D03*
X1152900Y873492D02*
D03*
X1152100Y752196D02*
D03*
X1172500D02*
D03*
X1003686Y830186D02*
D03*
X1150213Y829287D02*
D03*
X1705504Y686500D02*
D03*
X1740000Y712000D02*
D03*
X1719000Y712004D02*
D03*
X1795500Y679500D02*
D03*
X1788500Y687004D02*
D03*
X1823748Y712000D02*
D03*
X1832000Y680000D02*
D03*
X1803004Y712000D02*
D03*
X1872504Y688000D02*
D03*
X1887000Y713500D02*
D03*
X1909000Y713000D02*
D03*
X1879000Y680500D02*
D03*
X1917000Y681000D02*
D03*
X1748500Y679500D02*
D03*
X1712000Y680000D02*
D03*
X1773252D02*
D03*
X1885000Y654000D02*
D03*
X1869500D02*
D03*
X1800000D02*
D03*
X1789000D02*
D03*
X1430500Y680000D02*
D03*
X1446004Y686500D02*
D03*
X1480500Y712000D02*
D03*
X1489000Y679500D02*
D03*
X1529000Y687004D02*
D03*
X1536000Y679500D02*
D03*
X1543504Y712000D02*
D03*
X1452500Y680000D02*
D03*
X1459500Y712004D02*
D03*
X1529500Y654000D02*
D03*
X1540500D02*
D03*
X1564248Y712000D02*
D03*
X1572500Y680000D02*
D03*
X1625500Y654000D02*
D03*
X1610000D02*
D03*
X1619500Y680500D02*
D03*
X1613004Y688000D02*
D03*
X1627500Y713500D02*
D03*
X1649500Y713000D02*
D03*
X1657500Y681000D02*
D03*
X995504Y680500D02*
D03*
X1002504Y712504D02*
D03*
X1056756Y680500D02*
D03*
X1072504Y654500D02*
D03*
X1083504D02*
D03*
X1107252Y712500D02*
D03*
X1115504Y680500D02*
D03*
X1162504Y681000D02*
D03*
X1168504Y654500D02*
D03*
X1170504Y714000D02*
D03*
X1192504Y713500D02*
D03*
X1200504Y681500D02*
D03*
X973504Y680500D02*
D03*
X989008Y687000D02*
D03*
X1032004Y680000D02*
D03*
X1023504Y712500D02*
D03*
X1079004Y680000D02*
D03*
X1072004Y687504D02*
D03*
X1086508Y712500D02*
D03*
X1156008Y688500D02*
D03*
X1141004Y683000D02*
D03*
X1840028Y943500D02*
D03*
X1839500Y937000D02*
D03*
X1680028Y943496D02*
D03*
X1601400Y873492D02*
D03*
X1751400D02*
D03*
X1901372Y875992D02*
D03*
X1547500Y984000D02*
D03*
X1438618Y984500D02*
D03*
X1493500D02*
D03*
X1896472Y815000D02*
D03*
X1933000Y807500D02*
D03*
X1927500Y813748D02*
D03*
X1761848Y832996D02*
D03*
X1777500Y811000D02*
D03*
X1611848Y832996D02*
D03*
X1628000Y811500D02*
D03*
X1517000Y821000D02*
D03*
X1511500Y836500D02*
D03*
X1462500Y821000D02*
D03*
X1453000Y831500D02*
D03*
X1456500Y837000D02*
D03*
X1163348Y832996D02*
D03*
X1179000Y812000D02*
D03*
X1016821Y832996D02*
D03*
X1032000Y811500D02*
D03*
X1025500Y811000D02*
D03*
X1593000Y818500D02*
D03*
X1598500Y828500D02*
D03*
X1743000Y818500D02*
D03*
X1748500Y829000D02*
D03*
X1892000Y821000D02*
D03*
X1898500Y832500D02*
D03*
X1143500Y818500D02*
D03*
X996500Y818000D02*
D03*
X846000Y818500D02*
D03*
X866321Y832996D02*
D03*
X882500Y811500D02*
D03*
X890000Y805000D02*
D03*
X1039500D02*
D03*
X1185500Y804500D02*
D03*
X1857500Y682500D02*
D03*
X1930000Y747000D02*
D03*
X1921500Y647000D02*
D03*
X1806000Y739000D02*
D03*
X1845000Y647000D02*
D03*
Y724500D02*
D03*
X1676000Y698500D02*
D03*
Y647000D02*
D03*
X1585500Y694500D02*
D03*
Y647000D02*
D03*
X1503000Y695500D02*
D03*
Y647000D02*
D03*
X1718000Y654500D02*
D03*
X1701000Y654000D02*
D03*
X1489000Y654500D02*
D03*
Y638500D02*
D03*
X897496Y675000D02*
D03*
X1414000Y594500D02*
D03*
X1496000Y592752D02*
D03*
X1576500Y589000D02*
D03*
X1666000Y586500D02*
D03*
X1749000Y586252D02*
D03*
X1828500Y583000D02*
D03*
X1049000Y622500D02*
D03*
X1131000Y624752D02*
D03*
X1211500Y627500D02*
D03*
X1736500Y632000D02*
D03*
X1170500Y829000D02*
D03*
X873500D02*
D03*
X1770000Y812000D02*
D03*
M02*
