G04 Layer_Color=128*
%FSLAX25Y25*%
%MOIN*%
G70*
G01*
G75*
%ADD19R,0.04331X0.04331*%
%ADD20R,0.04331X0.04331*%
%ADD21R,0.07480X0.04724*%
%ADD22R,0.04724X0.07480*%
%ADD46R,0.13780X0.05905*%
%ADD47R,0.05118X0.04331*%
D19*
X981004Y589000D02*
D03*
X987500D02*
D03*
X891000Y675000D02*
D03*
X897496D02*
D03*
X891000Y684000D02*
D03*
X897496D02*
D03*
X891000Y666500D02*
D03*
X897496D02*
D03*
X862000Y675000D02*
D03*
X868496D02*
D03*
X862000Y666500D02*
D03*
X868496D02*
D03*
X862000Y684000D02*
D03*
X868496D02*
D03*
X1159652Y752196D02*
D03*
X1166148D02*
D03*
X1165396Y814196D02*
D03*
X1158900D02*
D03*
X1159652Y744196D02*
D03*
X1166148D02*
D03*
X1165396Y821796D02*
D03*
X1158900D02*
D03*
X1013124Y752196D02*
D03*
X1019621D02*
D03*
X1018869Y814196D02*
D03*
X1012372D02*
D03*
X1013124Y744196D02*
D03*
X1019621D02*
D03*
X1018869Y821796D02*
D03*
X1012372D02*
D03*
X862624Y752196D02*
D03*
X869121D02*
D03*
X868369Y814196D02*
D03*
X861872D02*
D03*
X862624Y744196D02*
D03*
X869121D02*
D03*
X868369Y821796D02*
D03*
X861872D02*
D03*
X1552752Y752248D02*
D03*
X1559248D02*
D03*
X1558748Y819748D02*
D03*
X1552252D02*
D03*
X1553004Y744248D02*
D03*
X1559500D02*
D03*
X1558748Y812248D02*
D03*
X1552252D02*
D03*
X1497748Y752496D02*
D03*
X1504244D02*
D03*
X1503744Y819996D02*
D03*
X1497248D02*
D03*
X1498000Y744496D02*
D03*
X1504496D02*
D03*
X1503744Y812496D02*
D03*
X1497248D02*
D03*
X1443870Y753000D02*
D03*
X1450366D02*
D03*
X1449866Y820500D02*
D03*
X1443370D02*
D03*
X1444122Y745000D02*
D03*
X1450618D02*
D03*
X1449866Y813000D02*
D03*
X1443370D02*
D03*
X1908124Y754696D02*
D03*
X1914621D02*
D03*
X1913869Y816696D02*
D03*
X1907372D02*
D03*
X1908124Y746696D02*
D03*
X1914621D02*
D03*
X1913869Y824296D02*
D03*
X1907372D02*
D03*
X1608152Y752196D02*
D03*
X1614648D02*
D03*
X1613896Y814196D02*
D03*
X1607400D02*
D03*
X1608152Y744196D02*
D03*
X1614648D02*
D03*
X1613896Y821796D02*
D03*
X1607400D02*
D03*
X1758152Y752196D02*
D03*
X1764648D02*
D03*
X1763896Y814196D02*
D03*
X1757400D02*
D03*
X1758152Y744196D02*
D03*
X1764648D02*
D03*
X1763896Y821796D02*
D03*
X1757400D02*
D03*
D20*
X1200504Y687996D02*
D03*
Y681500D02*
D03*
X1207504Y687996D02*
D03*
Y681500D02*
D03*
X1162504Y681000D02*
D03*
Y687496D02*
D03*
X1156004Y681000D02*
D03*
Y687496D02*
D03*
X1121504D02*
D03*
Y681000D02*
D03*
X1115504Y687248D02*
D03*
Y680752D02*
D03*
X1078504Y680252D02*
D03*
Y686748D02*
D03*
X1072004Y680000D02*
D03*
Y686496D02*
D03*
X1038004Y686748D02*
D03*
Y680252D02*
D03*
X1032004Y686748D02*
D03*
Y680252D02*
D03*
X995504Y680500D02*
D03*
Y686996D02*
D03*
X988504Y680500D02*
D03*
Y686996D02*
D03*
X1917000Y687496D02*
D03*
Y681000D02*
D03*
X1924000Y687496D02*
D03*
Y681000D02*
D03*
X1657500Y687496D02*
D03*
Y681000D02*
D03*
X1664500Y687496D02*
D03*
Y681000D02*
D03*
X1879000Y680500D02*
D03*
Y686996D02*
D03*
X1872500Y680500D02*
D03*
Y686996D02*
D03*
X1619500Y680500D02*
D03*
Y686996D02*
D03*
X1613000Y680500D02*
D03*
Y686996D02*
D03*
X1838000D02*
D03*
Y680500D02*
D03*
X1832000Y686748D02*
D03*
Y680252D02*
D03*
X1578500Y686996D02*
D03*
Y680500D02*
D03*
X1572500Y686748D02*
D03*
Y680252D02*
D03*
X1795000Y679752D02*
D03*
Y686248D02*
D03*
X1788500Y679500D02*
D03*
Y685996D02*
D03*
X1535500Y679752D02*
D03*
Y686248D02*
D03*
X1529000Y679500D02*
D03*
Y685996D02*
D03*
X1754500Y686248D02*
D03*
Y679752D02*
D03*
X1748500Y686248D02*
D03*
Y679752D02*
D03*
X1495000Y686248D02*
D03*
Y679752D02*
D03*
X1489000Y686248D02*
D03*
Y679752D02*
D03*
X1712000Y680000D02*
D03*
Y686496D02*
D03*
X1705000Y680000D02*
D03*
Y686496D02*
D03*
X1452500Y680000D02*
D03*
Y686496D02*
D03*
X1445500Y680000D02*
D03*
Y686496D02*
D03*
X868500Y616000D02*
D03*
Y609504D02*
D03*
X1208528Y878000D02*
D03*
Y871504D02*
D03*
X1199528Y878000D02*
D03*
Y871504D02*
D03*
X1221528Y747496D02*
D03*
Y741000D02*
D03*
X1230028Y747496D02*
D03*
Y741000D02*
D03*
X1062000Y878000D02*
D03*
Y871504D02*
D03*
X1053000Y878000D02*
D03*
Y871504D02*
D03*
X1075000Y747496D02*
D03*
Y741000D02*
D03*
X1083500Y747496D02*
D03*
Y741000D02*
D03*
X911500Y878000D02*
D03*
Y871504D02*
D03*
X902500Y878000D02*
D03*
Y871504D02*
D03*
X924500Y747496D02*
D03*
Y741000D02*
D03*
X933000Y747496D02*
D03*
Y741000D02*
D03*
X1329000Y877972D02*
D03*
Y871476D02*
D03*
X1320000Y877972D02*
D03*
Y871476D02*
D03*
X1342000Y747469D02*
D03*
Y740972D02*
D03*
X1350500Y747469D02*
D03*
Y740972D02*
D03*
X1957000Y880500D02*
D03*
Y874004D02*
D03*
X1948000Y880500D02*
D03*
Y874004D02*
D03*
X1970000Y749996D02*
D03*
Y743500D02*
D03*
X1978500Y749996D02*
D03*
Y743500D02*
D03*
X1657028Y878000D02*
D03*
Y871504D02*
D03*
X1648028Y878000D02*
D03*
Y871504D02*
D03*
X1670028Y747496D02*
D03*
Y741000D02*
D03*
X1678528Y747496D02*
D03*
Y741000D02*
D03*
X1807028Y878000D02*
D03*
Y871504D02*
D03*
X1798028Y878000D02*
D03*
Y871504D02*
D03*
X1820028Y747496D02*
D03*
Y741000D02*
D03*
X1828528Y747496D02*
D03*
Y741000D02*
D03*
D21*
X894000Y606500D02*
D03*
Y616736D02*
D03*
D22*
X989500Y579500D02*
D03*
X979264D02*
D03*
D46*
X845500Y654642D02*
D03*
Y638500D02*
D03*
X895500Y655142D02*
D03*
Y639000D02*
D03*
X866000Y654642D02*
D03*
Y638500D02*
D03*
D47*
X1240028Y739972D02*
D03*
Y749028D02*
D03*
X1093500Y739972D02*
D03*
Y749028D02*
D03*
X943000Y739972D02*
D03*
Y749028D02*
D03*
X1360500Y739945D02*
D03*
Y749000D02*
D03*
X1988500Y742472D02*
D03*
Y751528D02*
D03*
X1688528Y739972D02*
D03*
Y749028D02*
D03*
X1838528Y739972D02*
D03*
Y749028D02*
D03*
M02*
