G04 Layer_Physical_Order=1*
G04 Layer_Color=255*
%FSLAX25Y25*%
%MOIN*%
G70*
G01*
G75*
%ADD10R,0.05118X0.04331*%
%ADD11R,0.03937X0.21654*%
%ADD12R,0.05512X0.04724*%
%ADD13C,0.01000*%
%ADD14C,0.02500*%
%ADD15C,0.05000*%
%ADD16C,0.07000*%
%ADD17C,0.06000*%
%ADD18R,0.07874X0.07874*%
%ADD19C,0.07874*%
%ADD20C,0.05512*%
%ADD21O,0.03937X0.07874*%
%ADD22O,0.03937X0.07874*%
%ADD23R,0.05906X0.05906*%
%ADD24C,0.05906*%
%ADD25C,0.05000*%
D10*
X330000Y-16972D02*
D03*
Y-26028D02*
D03*
X264500Y-17472D02*
D03*
Y-26528D02*
D03*
X279000Y-16972D02*
D03*
Y-26028D02*
D03*
D11*
X312500Y-20500D02*
D03*
X292815D02*
D03*
D12*
X348000Y-69457D02*
D03*
Y-76543D02*
D03*
X325500Y-69457D02*
D03*
Y-76543D02*
D03*
X325500Y-106500D02*
D03*
Y-113587D02*
D03*
X211500Y-69457D02*
D03*
Y-76543D02*
D03*
X189000Y-69457D02*
D03*
Y-76543D02*
D03*
X189000Y-106500D02*
D03*
Y-113587D02*
D03*
X279000Y-69457D02*
D03*
Y-76543D02*
D03*
X256500Y-69457D02*
D03*
Y-76543D02*
D03*
X256500Y-106500D02*
D03*
Y-113587D02*
D03*
X143500Y-69457D02*
D03*
Y-76543D02*
D03*
X121000Y-69457D02*
D03*
Y-76543D02*
D03*
X121000Y-106500D02*
D03*
Y-113587D02*
D03*
X77500Y-69457D02*
D03*
Y-76543D02*
D03*
X55000Y-69457D02*
D03*
Y-76543D02*
D03*
X55000Y-106500D02*
D03*
Y-113587D02*
D03*
X55500Y-279587D02*
D03*
Y-272500D02*
D03*
X55500Y-242543D02*
D03*
Y-235457D02*
D03*
X78000Y-242543D02*
D03*
Y-235457D02*
D03*
X390500Y-113087D02*
D03*
Y-106000D02*
D03*
X390500Y-76043D02*
D03*
Y-68957D02*
D03*
X413000Y-76043D02*
D03*
Y-68957D02*
D03*
X190500Y-279087D02*
D03*
Y-272000D02*
D03*
X190500Y-242043D02*
D03*
Y-234957D02*
D03*
X213000Y-242043D02*
D03*
Y-234957D02*
D03*
X120500Y-280087D02*
D03*
Y-273000D02*
D03*
X120500Y-243043D02*
D03*
Y-235957D02*
D03*
X143000Y-243043D02*
D03*
Y-235957D02*
D03*
X390000Y-278043D02*
D03*
Y-270957D02*
D03*
X390000Y-241000D02*
D03*
Y-233913D02*
D03*
X412500Y-241000D02*
D03*
Y-233913D02*
D03*
X325500Y-278543D02*
D03*
Y-271457D02*
D03*
X325500Y-241500D02*
D03*
Y-234413D02*
D03*
X348000Y-241500D02*
D03*
Y-234413D02*
D03*
X256000Y-279043D02*
D03*
Y-271957D02*
D03*
X256000Y-242000D02*
D03*
Y-234913D02*
D03*
X278500Y-242000D02*
D03*
Y-234913D02*
D03*
D13*
X152000Y-69500D02*
X179913D01*
X143543D02*
X152000D01*
X180543Y-61000D02*
X189000Y-69457D01*
X213000Y-234957D02*
Y-222500D01*
X242500Y-193000D01*
X362500Y-246000D02*
X371000D01*
X350913Y-234413D02*
X362500Y-246000D01*
X379744Y-255339D02*
X384500Y-250583D01*
X379744Y-344256D02*
Y-255339D01*
X55000Y-69457D02*
X58000Y-66457D01*
X121000Y-69457D02*
Y-65500D01*
X242043Y-55000D02*
X256500Y-69457D01*
X384043Y-62500D02*
X390500Y-68957D01*
X279000Y-69457D02*
X317957D01*
X211500D02*
X246043D01*
X199043D02*
X211500D01*
X198500Y-70000D02*
X199043Y-69457D01*
X81500Y-408500D02*
X101500Y-388500D01*
Y-218000D01*
X115000Y-204500D01*
X101500Y-408500D02*
X127500Y-382500D01*
X156500D01*
X167500Y-371500D01*
Y-220000D01*
X183000Y-204500D01*
X121500Y-408500D02*
X145000Y-385000D01*
X220500D01*
X234500Y-371000D01*
Y-220500D01*
X250500Y-204500D01*
X141500Y-408500D02*
X163000Y-387000D01*
X281000D01*
X307000Y-361000D01*
X161500Y-408500D02*
X181000Y-389000D01*
X335000D01*
X379744Y-344256D01*
X384500Y-250583D02*
Y-204000D01*
X319500Y-144500D02*
X346000D01*
X319500Y-204500D02*
X346000D01*
X360500Y-190000D01*
X319500Y-144500D02*
X330500Y-133500D01*
X325500Y-106500D02*
X330500Y-101500D01*
X360500Y-190000D02*
Y-133591D01*
X325500Y-130043D02*
Y-113587D01*
X325500Y-92500D02*
Y-76543D01*
X330500Y-101500D02*
Y-92500D01*
X330500Y-133500D02*
Y-130043D01*
X183000Y-144500D02*
X209500D01*
X183000Y-204500D02*
X209500D01*
X195543Y-92500D02*
X211500Y-76543D01*
X183000Y-144500D02*
X194000Y-133500D01*
X189000Y-106500D02*
X194000Y-101500D01*
X189000Y-130043D02*
Y-113587D01*
X189000Y-92500D02*
Y-76543D01*
X194000Y-101500D02*
Y-92500D01*
X194000Y-133500D02*
Y-130043D01*
X250500Y-144500D02*
X277000D01*
X250500Y-204500D02*
X277000D01*
X263043Y-92500D02*
X279000Y-76543D01*
X277000Y-204500D02*
X291500Y-190000D01*
X250500Y-144500D02*
X261500Y-133500D01*
X256500Y-106500D02*
X261500Y-101500D01*
X291500Y-190000D02*
Y-133591D01*
X256500Y-130043D02*
Y-113587D01*
X256500Y-92500D02*
Y-76543D01*
X261500Y-101500D02*
Y-92500D01*
X261500Y-133500D02*
Y-130043D01*
X115000Y-144500D02*
X141500D01*
X115000Y-204500D02*
X141500D01*
X127543Y-92500D02*
X143500Y-76543D01*
X141500Y-204500D02*
X156000Y-190000D01*
X115000Y-144500D02*
X126000Y-133500D01*
X121000Y-106500D02*
X126000Y-101500D01*
X156000Y-190000D02*
Y-133591D01*
X121000Y-130043D02*
Y-113587D01*
X121000Y-92500D02*
Y-76543D01*
X126000Y-101500D02*
Y-92500D01*
X126000Y-133500D02*
Y-130043D01*
X49000Y-144500D02*
X75500D01*
X49000Y-204500D02*
X75500D01*
X61543Y-92500D02*
X77500Y-76543D01*
X75500Y-204500D02*
X90000Y-190000D01*
X49000Y-144500D02*
X60000Y-133500D01*
X55000Y-106500D02*
X60000Y-101500D01*
X90000Y-190000D02*
Y-133591D01*
X55000Y-130043D02*
Y-113587D01*
X55000Y-92500D02*
Y-76543D01*
X60000Y-101500D02*
Y-92500D01*
X60000Y-133500D02*
Y-130043D01*
X60500Y-299500D02*
Y-296043D01*
X60500Y-267500D02*
Y-258500D01*
X55500Y-258500D02*
Y-242543D01*
X55500Y-296043D02*
Y-279587D01*
X90500Y-356000D02*
Y-299590D01*
X55500Y-272500D02*
X60500Y-267500D01*
X49500Y-310500D02*
X60500Y-299500D01*
X76000Y-370500D02*
X90500Y-356000D01*
X62043Y-258500D02*
X78000Y-242543D01*
X49500Y-370500D02*
X76000D01*
X49500Y-310500D02*
X76000D01*
X395500Y-133000D02*
Y-129543D01*
X395500Y-101000D02*
Y-92000D01*
X390500Y-92000D02*
Y-76043D01*
X390500Y-129543D02*
Y-113087D01*
X425500Y-189500D02*
Y-133091D01*
X390500Y-106000D02*
X395500Y-101000D01*
X384500Y-144000D02*
X395500Y-133000D01*
X411000Y-204000D02*
X425500Y-189500D01*
X397043Y-92000D02*
X413000Y-76043D01*
X384500Y-204000D02*
X411000D01*
X384500Y-144000D02*
X411000D01*
X195500Y-299000D02*
Y-295543D01*
X195500Y-267000D02*
Y-258000D01*
X190500Y-258000D02*
Y-242043D01*
X190500Y-295543D02*
Y-279087D01*
X225500Y-355500D02*
Y-299091D01*
X190500Y-272000D02*
X195500Y-267000D01*
X184500Y-310000D02*
X195500Y-299000D01*
X211000Y-370000D02*
X225500Y-355500D01*
X197043Y-258000D02*
X213000Y-242043D01*
X184500Y-370000D02*
X211000D01*
X184500Y-310000D02*
X211000D01*
X125500Y-300000D02*
Y-296543D01*
X125500Y-268000D02*
Y-259000D01*
X120500Y-259000D02*
Y-243043D01*
X120500Y-296543D02*
Y-280087D01*
X155500Y-356500D02*
Y-300091D01*
X120500Y-273000D02*
X125500Y-268000D01*
X114500Y-311000D02*
X125500Y-300000D01*
X141000Y-371000D02*
X155500Y-356500D01*
X127043Y-259000D02*
X143000Y-243043D01*
X114500Y-371000D02*
X141000D01*
X114500Y-311000D02*
X141000D01*
X395000Y-297957D02*
Y-294500D01*
X395000Y-265957D02*
Y-256957D01*
X390000Y-256957D02*
Y-241000D01*
X390000Y-294500D02*
Y-278043D01*
X425000Y-354457D02*
Y-298047D01*
X390000Y-270957D02*
X395000Y-265957D01*
X384000Y-308957D02*
X395000Y-297957D01*
X410500Y-368957D02*
X425000Y-354457D01*
X396543Y-256957D02*
X412500Y-241000D01*
X384000Y-368957D02*
X410500D01*
X384000Y-308957D02*
X410500D01*
X330500Y-298457D02*
Y-295000D01*
X330500Y-266457D02*
Y-257457D01*
X325500Y-257457D02*
Y-241500D01*
X325500Y-295000D02*
Y-278543D01*
X360500Y-354957D02*
Y-298547D01*
X325500Y-271457D02*
X330500Y-266457D01*
X319500Y-309457D02*
X330500Y-298457D01*
X346000Y-369457D02*
X360500Y-354957D01*
X332043Y-257457D02*
X348000Y-241500D01*
X319500Y-369457D02*
X346000D01*
X319500Y-309457D02*
X346000D01*
X256000Y-257957D02*
Y-242000D01*
X256000Y-295500D02*
Y-279043D01*
X281500Y-364957D02*
Y-308547D01*
X276500Y-369957D02*
X281500Y-364957D01*
X262543Y-257957D02*
X278500Y-242000D01*
X250000Y-369957D02*
X276500D01*
X250000Y-309957D02*
X276500D01*
X281500Y-308547D02*
X291000Y-299047D01*
X261000Y-266957D02*
Y-257957D01*
X256000Y-271957D02*
X261000Y-266957D01*
X250000Y-309957D02*
X261000Y-298957D01*
Y-295500D01*
X209500Y-204500D02*
X224000Y-190000D01*
Y-133591D01*
X58000Y-66457D02*
Y-12500D01*
X68000D02*
X121000Y-65500D01*
X78000Y-12500D02*
X126500Y-61000D01*
X180543D01*
X88000Y-12500D02*
X130500Y-55000D01*
X242043D01*
X98000Y-12500D02*
X99000D01*
X135500Y-49000D01*
X305043D01*
X325500Y-69457D01*
X108000Y-12500D02*
X138500Y-43000D01*
X307500D01*
X327000Y-62500D01*
X384043D01*
X118000Y-13000D02*
Y-12500D01*
X157500D02*
X158000D01*
X155500Y-221500D02*
X157500Y-219500D01*
X155500Y-258910D02*
Y-221500D01*
X332043Y-92500D02*
X348000Y-76543D01*
X77500Y-69457D02*
X77543Y-69500D01*
X85000D01*
X179413Y-70000D02*
X179913Y-69500D01*
X278543Y-69000D02*
X279000Y-69457D01*
X269000Y-69000D02*
X278543D01*
X381000Y-69500D02*
X381043Y-69457D01*
X339500Y-69500D02*
X381000D01*
X403500D02*
X412457D01*
X413000Y-68957D01*
X41000Y-212500D02*
X49000Y-204500D01*
X41000Y-388000D02*
X61500Y-408500D01*
X41000Y-388000D02*
Y-212500D01*
X46000Y-227000D02*
X47043D01*
X55500Y-235457D01*
X78000D02*
X86457D01*
X125457Y-231000D02*
X126500D01*
X120500Y-235957D02*
X125457Y-231000D01*
X143457Y-235500D02*
X151000D01*
X143000Y-235957D02*
X143457Y-235500D01*
X182000Y-234500D02*
X190043D01*
X190500Y-234957D01*
X203500Y-235500D02*
X212457D01*
X213000Y-234957D01*
X248000Y-234500D02*
X255587D01*
X256000Y-234913D01*
X279500Y-233913D02*
Y-219000D01*
X278500Y-234913D02*
X279500Y-233913D01*
X307000Y-217000D02*
X319500Y-204500D01*
X307000Y-361000D02*
Y-217000D01*
X314000Y-235500D02*
X324413D01*
X325500Y-234413D01*
X390000Y-233913D02*
Y-216500D01*
X390000Y-233913D02*
X390000Y-233913D01*
X401500Y-234000D02*
X412413D01*
X412500Y-233913D01*
X71500Y-415000D02*
Y-408500D01*
X91500Y-415000D02*
Y-408500D01*
X51500Y-415000D02*
Y-408500D01*
X111500Y-415000D02*
Y-408500D01*
X131000Y-415000D02*
Y-409000D01*
X151500Y-415000D02*
Y-408500D01*
X292500Y-415000D02*
Y-408500D01*
X212500Y-415000D02*
Y-408500D01*
X232500Y-415000D02*
Y-408500D01*
X252500Y-415000D02*
Y-408500D01*
X272500Y-415000D02*
Y-408500D01*
X191500Y-415000D02*
Y-408000D01*
X425000Y-256866D02*
X443866D01*
D14*
X313250Y-14750D02*
X361500D01*
Y-23000D02*
Y-14750D01*
X332028Y-24000D02*
X340000D01*
X330000Y-26028D02*
X332028Y-24000D01*
X278500Y-26528D02*
X279000Y-26028D01*
X271500Y-34500D02*
Y-26528D01*
X264500D02*
X271500D01*
X278500D01*
X432500Y-60500D02*
X433000D01*
X245500Y-283500D02*
Y-267000D01*
Y-283500D02*
X246000Y-284000D01*
D15*
X244500Y-19000D02*
X262972D01*
X289287Y-16972D02*
X292815Y-20500D01*
Y-22815D02*
Y-20500D01*
Y-22815D02*
X307500Y-37500D01*
X320000D01*
X337000Y-54500D01*
X415500D01*
X425500Y-64500D01*
Y-91909D02*
Y-64500D01*
X262972Y-19000D02*
X264500Y-17472D01*
X265000Y-16972D01*
X279000D01*
X289287D01*
X425500Y-91909D02*
X444000Y-110409D01*
X376000Y-415500D02*
X444000Y-347500D01*
X52500Y-415500D02*
X376000D01*
X444000Y-347500D02*
Y-110409D01*
X422500Y-50500D02*
X432500Y-60500D01*
X435000Y-36000D02*
X446500Y-47500D01*
D16*
X204500Y-19000D02*
D03*
X224500D02*
D03*
X244500D02*
D03*
D17*
X351500Y-21500D02*
D03*
X361500D02*
D03*
X371500D02*
D03*
X391000D02*
D03*
X401000D02*
D03*
X411000D02*
D03*
X421000D02*
D03*
X469000Y-15000D02*
D03*
X467500Y-410000D02*
D03*
X17500D02*
D03*
X16000Y-15000D02*
D03*
D18*
X360500Y-92409D02*
D03*
X224000D02*
D03*
X291500D02*
D03*
X156000D02*
D03*
X90000D02*
D03*
X90500Y-258410D02*
D03*
X425500Y-91909D02*
D03*
X225500Y-257909D02*
D03*
X155500Y-258910D02*
D03*
X425000Y-256866D02*
D03*
X360500Y-257366D02*
D03*
X291000Y-257866D02*
D03*
D19*
X360500Y-133591D02*
D03*
X224000D02*
D03*
X291500D02*
D03*
X156000D02*
D03*
X90000D02*
D03*
X90500Y-299590D02*
D03*
X425500Y-133091D02*
D03*
X225500Y-299091D02*
D03*
X155500Y-300091D02*
D03*
X425000Y-298047D02*
D03*
X360500Y-298547D02*
D03*
X291000Y-299047D02*
D03*
D20*
X346000Y-144500D02*
D03*
Y-204500D02*
D03*
X319500Y-144500D02*
D03*
Y-204500D02*
D03*
X209500Y-144500D02*
D03*
Y-204500D02*
D03*
X183000Y-144500D02*
D03*
Y-204500D02*
D03*
X277000Y-144500D02*
D03*
Y-204500D02*
D03*
X250500Y-144500D02*
D03*
Y-204500D02*
D03*
X141500Y-144500D02*
D03*
Y-204500D02*
D03*
X115000Y-144500D02*
D03*
Y-204500D02*
D03*
X75500Y-144500D02*
D03*
Y-204500D02*
D03*
X49000Y-144500D02*
D03*
Y-204500D02*
D03*
X49500Y-370500D02*
D03*
Y-310500D02*
D03*
X76000Y-370500D02*
D03*
Y-310500D02*
D03*
X384500Y-204000D02*
D03*
Y-144000D02*
D03*
X411000Y-204000D02*
D03*
Y-144000D02*
D03*
X184500Y-370000D02*
D03*
Y-310000D02*
D03*
X211000Y-370000D02*
D03*
Y-310000D02*
D03*
X114500Y-371000D02*
D03*
Y-311000D02*
D03*
X141000Y-371000D02*
D03*
Y-311000D02*
D03*
X384000Y-368957D02*
D03*
Y-308957D02*
D03*
X410500Y-368957D02*
D03*
Y-308957D02*
D03*
X319500Y-369457D02*
D03*
Y-309457D02*
D03*
X346000Y-369457D02*
D03*
Y-309457D02*
D03*
X250000Y-369957D02*
D03*
Y-309957D02*
D03*
X276500Y-369957D02*
D03*
Y-309957D02*
D03*
D21*
X320500Y-92500D02*
D03*
X330500D02*
D03*
X320500Y-130043D02*
D03*
X330500D02*
D03*
X184000Y-92500D02*
D03*
X194000D02*
D03*
X184000Y-130043D02*
D03*
X194000D02*
D03*
X251500Y-92500D02*
D03*
X261500D02*
D03*
X251500Y-130043D02*
D03*
X261500D02*
D03*
X116000Y-92500D02*
D03*
X126000D02*
D03*
X116000Y-130043D02*
D03*
X126000D02*
D03*
X50000Y-92500D02*
D03*
X60000D02*
D03*
X50000Y-130043D02*
D03*
X60000D02*
D03*
X60500Y-296043D02*
D03*
X50500D02*
D03*
X60500Y-258500D02*
D03*
X50500D02*
D03*
X395500Y-129543D02*
D03*
X385500D02*
D03*
X395500Y-92000D02*
D03*
X385500D02*
D03*
X195500Y-295543D02*
D03*
X185500D02*
D03*
X195500Y-258000D02*
D03*
X185500D02*
D03*
X125500Y-296543D02*
D03*
X115500D02*
D03*
X125500Y-259000D02*
D03*
X115500D02*
D03*
X395000Y-294500D02*
D03*
X385000D02*
D03*
X395000Y-256957D02*
D03*
X385000D02*
D03*
X330500Y-295000D02*
D03*
X320500D02*
D03*
X330500Y-257457D02*
D03*
X320500D02*
D03*
X261000Y-295500D02*
D03*
X251000D02*
D03*
X261000Y-257957D02*
D03*
X251000D02*
D03*
D22*
X325500Y-92500D02*
D03*
X325500Y-130043D02*
D03*
X189000Y-92500D02*
D03*
X189000Y-130043D02*
D03*
X256500Y-92500D02*
D03*
X256500Y-130043D02*
D03*
X121000Y-92500D02*
D03*
X121000Y-130043D02*
D03*
X55000Y-92500D02*
D03*
X55000Y-130043D02*
D03*
X55500Y-296043D02*
D03*
X55500Y-258500D02*
D03*
X390500Y-129543D02*
D03*
X390500Y-92000D02*
D03*
X190500Y-295543D02*
D03*
X190500Y-258000D02*
D03*
X120500Y-296543D02*
D03*
X120500Y-259000D02*
D03*
X390000Y-294500D02*
D03*
X390000Y-256957D02*
D03*
X325500Y-295000D02*
D03*
X325500Y-257457D02*
D03*
X256000Y-295500D02*
D03*
X256000Y-257957D02*
D03*
D23*
X58000Y-12500D02*
D03*
X51500Y-408500D02*
D03*
X192500D02*
D03*
D24*
X68000Y-12500D02*
D03*
X78000D02*
D03*
X88000D02*
D03*
X98000D02*
D03*
X108000D02*
D03*
X118000D02*
D03*
X128000D02*
D03*
X138000D02*
D03*
X148000D02*
D03*
X158000D02*
D03*
X168000D02*
D03*
X61500Y-408500D02*
D03*
X71500D02*
D03*
X81500D02*
D03*
X91500D02*
D03*
X101500D02*
D03*
X111500D02*
D03*
X121500D02*
D03*
X131500D02*
D03*
X141500D02*
D03*
X151500D02*
D03*
X161500D02*
D03*
X202500D02*
D03*
X212500D02*
D03*
X222500D02*
D03*
X232500D02*
D03*
X242500D02*
D03*
X252500D02*
D03*
X262500D02*
D03*
X272500D02*
D03*
X282500D02*
D03*
X292500D02*
D03*
X302500D02*
D03*
D25*
X242500Y-193000D02*
D03*
X371000Y-246000D02*
D03*
X381043Y-69457D02*
D03*
X317957D02*
D03*
X246043D02*
D03*
X198500Y-70000D02*
D03*
X179413D02*
D03*
X157500Y-219500D02*
D03*
X85000Y-69500D02*
D03*
X152000D02*
D03*
X269000Y-69000D02*
D03*
X339500Y-69500D02*
D03*
X403500D02*
D03*
X46000Y-227000D02*
D03*
X86500Y-235500D02*
D03*
X126500Y-231000D02*
D03*
X151000Y-235500D02*
D03*
X182000Y-234500D02*
D03*
X203500Y-235500D02*
D03*
X248000Y-234500D02*
D03*
X279500Y-219000D02*
D03*
X314000Y-235500D02*
D03*
X390000Y-216500D02*
D03*
X401500Y-234000D02*
D03*
X340000Y-24000D02*
D03*
X271500Y-34500D02*
D03*
X435000Y-36000D02*
D03*
X422500Y-50500D02*
D03*
X433000Y-60500D02*
D03*
X245500Y-267000D02*
D03*
X246000Y-284000D02*
D03*
X446500Y-47500D02*
D03*
M02*
