G04 Layer_Physical_Order=2*
G04 Layer_Color=16711680*
%FSLAX25Y25*%
%MOIN*%
G70*
G01*
G75*
%ADD19R,0.04331X0.04331*%
%ADD20R,0.04331X0.04331*%
%ADD21R,0.07480X0.04724*%
%ADD22R,0.04724X0.07480*%
%ADD31C,0.00787*%
%ADD32C,0.01000*%
%ADD33C,0.01575*%
%ADD34C,0.15748*%
%ADD35C,0.02362*%
%ADD36C,0.08661*%
%ADD37C,0.05905*%
%ADD38C,0.11811*%
%ADD39C,0.03937*%
%ADD40C,0.10236*%
%ADD41C,0.13386*%
%ADD42C,0.07000*%
%ADD43C,0.15000*%
%ADD44C,0.04724*%
%ADD45C,0.04000*%
%ADD46R,0.13780X0.05905*%
%ADD47R,0.05118X0.04331*%
G36*
X1334187Y600334D02*
X1333839Y600067D01*
X1333150Y599168D01*
X1332716Y598123D01*
X1332568Y597000D01*
X1332716Y595878D01*
X1333150Y594832D01*
X1333839Y593933D01*
X1334737Y593244D01*
X1335783Y592811D01*
X1336905Y592663D01*
X1338028Y592811D01*
X1338980Y593205D01*
X1345005Y587179D01*
X1344814Y586717D01*
X1327099D01*
X1318890Y594926D01*
X1319284Y595878D01*
X1319432Y597000D01*
X1319284Y598123D01*
X1318851Y599168D01*
X1318161Y600067D01*
X1317813Y600334D01*
X1317982Y600834D01*
X1323112D01*
X1323282Y600334D01*
X1322933Y600067D01*
X1322244Y599168D01*
X1321811Y598123D01*
X1321663Y597000D01*
X1321811Y595878D01*
X1322244Y594832D01*
X1322933Y593933D01*
X1323831Y593244D01*
X1324877Y592811D01*
X1326000Y592663D01*
X1327122Y592811D01*
X1328168Y593244D01*
X1329067Y593933D01*
X1329756Y594832D01*
X1330189Y595878D01*
X1330337Y597000D01*
X1330189Y598123D01*
X1329756Y599168D01*
X1329067Y600067D01*
X1328718Y600334D01*
X1328888Y600834D01*
X1334018D01*
X1334187Y600334D01*
D02*
G37*
G36*
X1312376D02*
X1312028Y600067D01*
X1311339Y599168D01*
X1310905Y598123D01*
X1310757Y597000D01*
X1310905Y595878D01*
X1311339Y594832D01*
X1312028Y593933D01*
X1312926Y593244D01*
X1313972Y592811D01*
X1315094Y592663D01*
X1316217Y592811D01*
X1317169Y593205D01*
X1325194Y585179D01*
X1325003Y584717D01*
X1307288D01*
X1297079Y594926D01*
X1297473Y595878D01*
X1297621Y597000D01*
X1297473Y598123D01*
X1297040Y599168D01*
X1296350Y600067D01*
X1296002Y600334D01*
X1296171Y600834D01*
X1301301D01*
X1301471Y600334D01*
X1301122Y600067D01*
X1300433Y599168D01*
X1300000Y598123D01*
X1299852Y597000D01*
X1300000Y595878D01*
X1300433Y594832D01*
X1301122Y593933D01*
X1302020Y593244D01*
X1303067Y592811D01*
X1304189Y592663D01*
X1305311Y592811D01*
X1306357Y593244D01*
X1307256Y593933D01*
X1307945Y594832D01*
X1308378Y595878D01*
X1308526Y597000D01*
X1308378Y598123D01*
X1307945Y599168D01*
X1307256Y600067D01*
X1306907Y600334D01*
X1307077Y600834D01*
X1312206D01*
X1312376Y600334D01*
D02*
G37*
G36*
X1290565D02*
X1290217Y600067D01*
X1289527Y599168D01*
X1289094Y598123D01*
X1288946Y597000D01*
X1289094Y595878D01*
X1289527Y594832D01*
X1290217Y593933D01*
X1291115Y593244D01*
X1292161Y592811D01*
X1293283Y592663D01*
X1294406Y592811D01*
X1295358Y593205D01*
X1305383Y583179D01*
X1305192Y582717D01*
X1287477D01*
X1275268Y594926D01*
X1275662Y595878D01*
X1275809Y597000D01*
X1275662Y598123D01*
X1275229Y599168D01*
X1274539Y600067D01*
X1274191Y600334D01*
X1274360Y600834D01*
X1279490D01*
X1279660Y600334D01*
X1279311Y600067D01*
X1278622Y599168D01*
X1278189Y598123D01*
X1278041Y597000D01*
X1278189Y595878D01*
X1278622Y594832D01*
X1279311Y593933D01*
X1280209Y593244D01*
X1281255Y592811D01*
X1282378Y592663D01*
X1283500Y592811D01*
X1284546Y593244D01*
X1285445Y593933D01*
X1286134Y594832D01*
X1286567Y595878D01*
X1286715Y597000D01*
X1286567Y598123D01*
X1286134Y599168D01*
X1285445Y600067D01*
X1285096Y600334D01*
X1285266Y600834D01*
X1290396D01*
X1290565Y600334D01*
D02*
G37*
G36*
X1355998D02*
X1355650Y600067D01*
X1354961Y599168D01*
X1354527Y598123D01*
X1354379Y597000D01*
X1354527Y595878D01*
X1354961Y594832D01*
X1355650Y593933D01*
X1356548Y593244D01*
X1357594Y592811D01*
X1358716Y592663D01*
X1359839Y592811D01*
X1360791Y593205D01*
X1364816Y589179D01*
X1364625Y588717D01*
X1346910D01*
X1340701Y594926D01*
X1341095Y595878D01*
X1341243Y597000D01*
X1341095Y598123D01*
X1340662Y599168D01*
X1339972Y600067D01*
X1339624Y600334D01*
X1339793Y600834D01*
X1344923D01*
X1345093Y600334D01*
X1344744Y600067D01*
X1344055Y599168D01*
X1343622Y598123D01*
X1343474Y597000D01*
X1343622Y595878D01*
X1344055Y594832D01*
X1344744Y593933D01*
X1345642Y593244D01*
X1346688Y592811D01*
X1347811Y592663D01*
X1348934Y592811D01*
X1349980Y593244D01*
X1350878Y593933D01*
X1351567Y594832D01*
X1352000Y595878D01*
X1352148Y597000D01*
X1352000Y598123D01*
X1351567Y599168D01*
X1350878Y600067D01*
X1350529Y600334D01*
X1350699Y600834D01*
X1355829D01*
X1355998Y600334D01*
D02*
G37*
G36*
X950249Y652962D02*
X950058Y652500D01*
X903205D01*
Y653381D01*
X949830D01*
X950249Y652962D01*
D02*
G37*
G36*
X945000Y620000D02*
X1012500D01*
Y570000D01*
X790000D01*
Y642500D01*
X837546D01*
X837773Y642000D01*
X837668Y641843D01*
X837591Y641453D01*
Y639000D01*
X845500D01*
X853409D01*
Y641453D01*
X853332Y641843D01*
X853227Y642000D01*
X853454Y642500D01*
X858338D01*
X858479Y642159D01*
X858514Y642000D01*
X858357Y641765D01*
X858295Y641453D01*
Y635547D01*
X858357Y635235D01*
X858533Y634971D01*
X858798Y634794D01*
X859110Y634732D01*
X866881D01*
Y618981D01*
X866335D01*
X866022Y618919D01*
X865758Y618742D01*
X865581Y618477D01*
X865519Y618165D01*
Y613835D01*
X865581Y613522D01*
X865758Y613258D01*
X865958Y613124D01*
X865971Y612838D01*
X865919Y612594D01*
X865614Y612390D01*
X865393Y612059D01*
X865315Y611669D01*
Y611524D01*
X860833D01*
X847520Y624837D01*
Y634528D01*
X852390D01*
X852780Y634605D01*
X853111Y634826D01*
X853332Y635157D01*
X853409Y635547D01*
Y638000D01*
X845500D01*
X837591D01*
Y635547D01*
X837668Y635157D01*
X837889Y634826D01*
X838220Y634605D01*
X838610Y634528D01*
X843480D01*
Y624000D01*
X843634Y623227D01*
X844072Y622572D01*
X858568Y608076D01*
X859223Y607638D01*
X859996Y607484D01*
X865315D01*
Y607339D01*
X865393Y606948D01*
X865614Y606618D01*
X865944Y606397D01*
X866335Y606319D01*
X868000D01*
Y609504D01*
X868500D01*
Y610004D01*
X871685D01*
Y611669D01*
X871607Y612059D01*
X871386Y612390D01*
X871081Y612594D01*
X871029Y612838D01*
X871041Y613124D01*
X871242Y613258D01*
X871419Y613522D01*
X871481Y613835D01*
Y614882D01*
X877108D01*
X877222Y614607D01*
X877824Y613824D01*
X878607Y613222D01*
X879520Y612844D01*
X880500Y612715D01*
X881480Y612844D01*
X882393Y613222D01*
X883177Y613824D01*
X883778Y614607D01*
X883891Y614882D01*
X889444D01*
Y614374D01*
X889506Y614062D01*
X889683Y613797D01*
X889948Y613620D01*
X890260Y613558D01*
X897740D01*
X898052Y613620D01*
X898317Y613797D01*
X898494Y614062D01*
X898556Y614374D01*
Y619098D01*
X898494Y619411D01*
X898317Y619675D01*
X898052Y619852D01*
X897740Y619914D01*
X890260D01*
X889948Y619852D01*
X889683Y619675D01*
X889506Y619411D01*
X889444Y619098D01*
Y618118D01*
X883891D01*
X883778Y618393D01*
X883177Y619176D01*
X882393Y619778D01*
X881480Y620156D01*
X880500Y620285D01*
X879520Y620156D01*
X878607Y619778D01*
X877824Y619176D01*
X877222Y618393D01*
X877108Y618118D01*
X871481D01*
Y618165D01*
X871419Y618477D01*
X871242Y618742D01*
X870977Y618919D01*
X870665Y618981D01*
X870119D01*
Y634732D01*
X872890D01*
X873202Y634794D01*
X873466Y634971D01*
X873643Y635235D01*
X873705Y635547D01*
Y641453D01*
X873643Y641765D01*
X873486Y642000D01*
X873520Y642159D01*
X873662Y642500D01*
X887218D01*
X887600Y642000D01*
X887591Y641953D01*
Y639500D01*
X895500D01*
X903409D01*
Y641953D01*
X903400Y642000D01*
X903782Y642500D01*
X945000D01*
Y620000D01*
D02*
G37*
G36*
X1262224Y610255D02*
X1261830Y609304D01*
X1261683Y608181D01*
X1261830Y607059D01*
X1262264Y606013D01*
X1262953Y605114D01*
X1263661Y604571D01*
X1263491Y604071D01*
X1257643D01*
X1257473Y604571D01*
X1258181Y605114D01*
X1258870Y606013D01*
X1259303Y607059D01*
X1259451Y608181D01*
X1259303Y609304D01*
X1258870Y610350D01*
X1258181Y611248D01*
X1257283Y611937D01*
X1256237Y612370D01*
X1255114Y612518D01*
X1253992Y612370D01*
X1252946Y611937D01*
X1252047Y611248D01*
X1251358Y610350D01*
X1250925Y609304D01*
X1250777Y608181D01*
X1250925Y607059D01*
X1251358Y606013D01*
X1252047Y605114D01*
X1252755Y604571D01*
X1252585Y604071D01*
X1246737D01*
X1246568Y604571D01*
X1247276Y605114D01*
X1247965Y606013D01*
X1248398Y607059D01*
X1248546Y608181D01*
X1248398Y609304D01*
X1247965Y610350D01*
X1247276Y611248D01*
X1246377Y611937D01*
X1245331Y612370D01*
X1244209Y612518D01*
X1243086Y612370D01*
X1242213Y612009D01*
X1236900Y617321D01*
X1237092Y617783D01*
X1254697D01*
X1262224Y610255D01*
D02*
G37*
G36*
X1844028Y766175D02*
X1844405Y766224D01*
X1845223Y766563D01*
X1845926Y767102D01*
X1846231Y767500D01*
X2105000D01*
Y570000D01*
X1022500D01*
Y623176D01*
X1023231Y623272D01*
X1023912Y623554D01*
X1024497Y624003D01*
X1024946Y624588D01*
X1025027Y624783D01*
X1046592D01*
X1046839Y624283D01*
X1046554Y623912D01*
X1046272Y623231D01*
X1046176Y622500D01*
X1046272Y621769D01*
X1046554Y621088D01*
X1047003Y620503D01*
X1047588Y620054D01*
X1048269Y619772D01*
X1049000Y619676D01*
X1049731Y619772D01*
X1050412Y620054D01*
X1050589Y620190D01*
X1054639Y616139D01*
X1055034Y615876D01*
X1055500Y615783D01*
X1234996D01*
X1240446Y610333D01*
X1240019Y609304D01*
X1239872Y608181D01*
X1240019Y607059D01*
X1240453Y606013D01*
X1241142Y605114D01*
X1241850Y604571D01*
X1241680Y604071D01*
X1219986D01*
X1219968Y604257D01*
X1219481Y605859D01*
X1218692Y607336D01*
X1217630Y608630D01*
X1216336Y609692D01*
X1214859Y610482D01*
X1213257Y610968D01*
X1212091Y611082D01*
Y602591D01*
Y594099D01*
X1213257Y594213D01*
X1214859Y594700D01*
X1216336Y595489D01*
X1217630Y596551D01*
X1218692Y597845D01*
X1219481Y599322D01*
X1219940Y600834D01*
X1235868D01*
X1236038Y600334D01*
X1235689Y600067D01*
X1235000Y599168D01*
X1234567Y598123D01*
X1234419Y597000D01*
X1234567Y595878D01*
X1235000Y594832D01*
X1235689Y593933D01*
X1236587Y593244D01*
X1237633Y592811D01*
X1238756Y592663D01*
X1239878Y592811D01*
X1240924Y593244D01*
X1241823Y593933D01*
X1242512Y594832D01*
X1242945Y595878D01*
X1243093Y597000D01*
X1242945Y598123D01*
X1242512Y599168D01*
X1241823Y600067D01*
X1241474Y600334D01*
X1241644Y600834D01*
X1246774D01*
X1246943Y600334D01*
X1246595Y600067D01*
X1245905Y599168D01*
X1245472Y598123D01*
X1245324Y597000D01*
X1245472Y595878D01*
X1245905Y594832D01*
X1246595Y593933D01*
X1247493Y593244D01*
X1248539Y592811D01*
X1249661Y592663D01*
X1250784Y592811D01*
X1251735Y593205D01*
X1266301Y578639D01*
X1266696Y578376D01*
X1267161Y578283D01*
X1825000D01*
X1825466Y578376D01*
X1825861Y578639D01*
X1827574Y580353D01*
X1827769Y580272D01*
X1828500Y580176D01*
X1829231Y580272D01*
X1829912Y580554D01*
X1830497Y581003D01*
X1830946Y581588D01*
X1831228Y582269D01*
X1831324Y583000D01*
X1831228Y583731D01*
X1830946Y584412D01*
X1830497Y584997D01*
X1829912Y585446D01*
X1829231Y585728D01*
X1828500Y585824D01*
X1827769Y585728D01*
X1827088Y585446D01*
X1826503Y584997D01*
X1826054Y584412D01*
X1825772Y583731D01*
X1825676Y583000D01*
X1825772Y582269D01*
X1825853Y582074D01*
X1824496Y580717D01*
X1745840D01*
X1745648Y581179D01*
X1748074Y583605D01*
X1748269Y583524D01*
X1749000Y583428D01*
X1749731Y583524D01*
X1750412Y583806D01*
X1750997Y584255D01*
X1751446Y584840D01*
X1751728Y585521D01*
X1751824Y586252D01*
X1751728Y586983D01*
X1751446Y587664D01*
X1750997Y588249D01*
X1750412Y588698D01*
X1749731Y588980D01*
X1749000Y589076D01*
X1748269Y588980D01*
X1747588Y588698D01*
X1747003Y588249D01*
X1746554Y587664D01*
X1746272Y586983D01*
X1746176Y586252D01*
X1746272Y585521D01*
X1746353Y585326D01*
X1743744Y582717D01*
X1664592D01*
X1664400Y583179D01*
X1665074Y583853D01*
X1665269Y583772D01*
X1666000Y583676D01*
X1666731Y583772D01*
X1667412Y584054D01*
X1667997Y584503D01*
X1668446Y585088D01*
X1668728Y585769D01*
X1668824Y586500D01*
X1668728Y587231D01*
X1668446Y587912D01*
X1667997Y588497D01*
X1667412Y588946D01*
X1666731Y589228D01*
X1666000Y589324D01*
X1665269Y589228D01*
X1664588Y588946D01*
X1664003Y588497D01*
X1663554Y587912D01*
X1663272Y587231D01*
X1663176Y586500D01*
X1663272Y585769D01*
X1663353Y585574D01*
X1662496Y584717D01*
X1574592D01*
X1574400Y585179D01*
X1575574Y586353D01*
X1575769Y586272D01*
X1576500Y586176D01*
X1577231Y586272D01*
X1577912Y586554D01*
X1578497Y587003D01*
X1578946Y587588D01*
X1579228Y588269D01*
X1579324Y589000D01*
X1579228Y589731D01*
X1578946Y590412D01*
X1578497Y590997D01*
X1577912Y591446D01*
X1577231Y591728D01*
X1576500Y591824D01*
X1575769Y591728D01*
X1575088Y591446D01*
X1574503Y590997D01*
X1574054Y590412D01*
X1573772Y589731D01*
X1573676Y589000D01*
X1573772Y588269D01*
X1573853Y588074D01*
X1572496Y586717D01*
X1492092D01*
X1491900Y587179D01*
X1494899Y590177D01*
X1495269Y590024D01*
X1496000Y589928D01*
X1496731Y590024D01*
X1497412Y590306D01*
X1497997Y590755D01*
X1498446Y591340D01*
X1498728Y592021D01*
X1498824Y592752D01*
X1498728Y593483D01*
X1498446Y594164D01*
X1497997Y594749D01*
X1497412Y595198D01*
X1496731Y595480D01*
X1496000Y595576D01*
X1495269Y595480D01*
X1494588Y595198D01*
X1494003Y594749D01*
X1493554Y594164D01*
X1493272Y593483D01*
X1493176Y592752D01*
X1493272Y592021D01*
X1493280Y592001D01*
X1489996Y588717D01*
X1410592D01*
X1410400Y589179D01*
X1413074Y591853D01*
X1413269Y591772D01*
X1414000Y591676D01*
X1414731Y591772D01*
X1415412Y592054D01*
X1415997Y592503D01*
X1416446Y593088D01*
X1416728Y593769D01*
X1416824Y594500D01*
X1416728Y595231D01*
X1416446Y595912D01*
X1415997Y596497D01*
X1415412Y596946D01*
X1414731Y597228D01*
X1414000Y597324D01*
X1413269Y597228D01*
X1412588Y596946D01*
X1412003Y596497D01*
X1411554Y595912D01*
X1411272Y595231D01*
X1411176Y594500D01*
X1411272Y593769D01*
X1411353Y593574D01*
X1408496Y590717D01*
X1366721D01*
X1362512Y594926D01*
X1362906Y595878D01*
X1363054Y597000D01*
X1362906Y598123D01*
X1362473Y599168D01*
X1361783Y600067D01*
X1361435Y600334D01*
X1361604Y600834D01*
X1363499D01*
X1365508Y598826D01*
X1365238Y598175D01*
X1365149Y597500D01*
X1369122D01*
Y601473D01*
X1368447Y601384D01*
X1367796Y601115D01*
X1365788Y603123D01*
Y603981D01*
X1366439Y604250D01*
X1367379Y604972D01*
X1368100Y605912D01*
X1368370Y606563D01*
X1373681D01*
X1374300Y606686D01*
X1374825Y607037D01*
X1382170Y614382D01*
X1411939D01*
X1412131Y613920D01*
X1404763Y606552D01*
X1404269Y606626D01*
X1403889Y607336D01*
X1402827Y608630D01*
X1401533Y609692D01*
X1400056Y610482D01*
X1398454Y610968D01*
X1397287Y611082D01*
Y602591D01*
Y594099D01*
X1398454Y594213D01*
X1400056Y594700D01*
X1401533Y595489D01*
X1402827Y596551D01*
X1403889Y597845D01*
X1404678Y599322D01*
X1405164Y600924D01*
X1405323Y602534D01*
X1417170Y614382D01*
X1453961D01*
X1454360Y613860D01*
X1454987Y613379D01*
X1455717Y613077D01*
X1456000Y613040D01*
Y616000D01*
Y618960D01*
X1455717Y618923D01*
X1454987Y618620D01*
X1454360Y618140D01*
X1453961Y617619D01*
X1381500D01*
X1380881Y617495D01*
X1380355Y617144D01*
X1373011Y609800D01*
X1368370D01*
X1368100Y610451D01*
X1367379Y611390D01*
X1366439Y612112D01*
X1365344Y612565D01*
X1364669Y612654D01*
Y608181D01*
X1363669D01*
Y612654D01*
X1362994Y612565D01*
X1361900Y612112D01*
X1360960Y611390D01*
X1360239Y610451D01*
X1359969Y609800D01*
X1357464D01*
X1357195Y610451D01*
X1356473Y611390D01*
X1355533Y612112D01*
X1354438Y612565D01*
X1353764Y612654D01*
Y608181D01*
X1352764D01*
Y612654D01*
X1352089Y612565D01*
X1350994Y612112D01*
X1350054Y611390D01*
X1349333Y610451D01*
X1349063Y609800D01*
X1346559D01*
X1346289Y610451D01*
X1345568Y611390D01*
X1344628Y612112D01*
X1343533Y612565D01*
X1342858Y612654D01*
Y608181D01*
X1341858D01*
Y612654D01*
X1341183Y612565D01*
X1340089Y612112D01*
X1339149Y611390D01*
X1338428Y610451D01*
X1338158Y609800D01*
X1335653D01*
X1335384Y610451D01*
X1334662Y611390D01*
X1333722Y612112D01*
X1332627Y612565D01*
X1331953Y612654D01*
Y608181D01*
X1331453D01*
Y607681D01*
X1326980D01*
X1327069Y607006D01*
X1327522Y605912D01*
X1328243Y604972D01*
X1328765Y604571D01*
X1328595Y604071D01*
X1323076D01*
X1322906Y604571D01*
X1323614Y605114D01*
X1324303Y606013D01*
X1324737Y607059D01*
X1324884Y608181D01*
X1324737Y609304D01*
X1324303Y610350D01*
X1323614Y611248D01*
X1322716Y611937D01*
X1321670Y612370D01*
X1320547Y612518D01*
X1319425Y612370D01*
X1318379Y611937D01*
X1317480Y611248D01*
X1316791Y610350D01*
X1316358Y609304D01*
X1316210Y608181D01*
X1316358Y607059D01*
X1316791Y606013D01*
X1317480Y605114D01*
X1318188Y604571D01*
X1318018Y604071D01*
X1312171D01*
X1312001Y604571D01*
X1312708Y605114D01*
X1313398Y606013D01*
X1313831Y607059D01*
X1313979Y608181D01*
X1313831Y609304D01*
X1313398Y610350D01*
X1312708Y611248D01*
X1311810Y611937D01*
X1310764Y612370D01*
X1309642Y612518D01*
X1308519Y612370D01*
X1307473Y611937D01*
X1306575Y611248D01*
X1305886Y610350D01*
X1305452Y609304D01*
X1305305Y608181D01*
X1305452Y607059D01*
X1305886Y606013D01*
X1306575Y605114D01*
X1307283Y604571D01*
X1307113Y604071D01*
X1301265D01*
X1301095Y604571D01*
X1301803Y605114D01*
X1302492Y606013D01*
X1302925Y607059D01*
X1303073Y608181D01*
X1302925Y609304D01*
X1302492Y610350D01*
X1301803Y611248D01*
X1300905Y611937D01*
X1299859Y612370D01*
X1298736Y612518D01*
X1297614Y612370D01*
X1296568Y611937D01*
X1295669Y611248D01*
X1294980Y610350D01*
X1294547Y609304D01*
X1294399Y608181D01*
X1294547Y607059D01*
X1294980Y606013D01*
X1295669Y605114D01*
X1296377Y604571D01*
X1296207Y604071D01*
X1290359D01*
X1290190Y604571D01*
X1290897Y605114D01*
X1291587Y606013D01*
X1292020Y607059D01*
X1292168Y608181D01*
X1292020Y609304D01*
X1291587Y610350D01*
X1290897Y611248D01*
X1289999Y611937D01*
X1288953Y612370D01*
X1287831Y612518D01*
X1286708Y612370D01*
X1285757Y611976D01*
X1275872Y621861D01*
X1275478Y622124D01*
X1275012Y622217D01*
X1218504D01*
X1214147Y626574D01*
X1214228Y626769D01*
X1214324Y627500D01*
X1214228Y628231D01*
X1213946Y628912D01*
X1213497Y629497D01*
X1212912Y629946D01*
X1212231Y630228D01*
X1211500Y630324D01*
X1210769Y630228D01*
X1210088Y629946D01*
X1209503Y629497D01*
X1209054Y628912D01*
X1208772Y628231D01*
X1208676Y627500D01*
X1208772Y626769D01*
X1209054Y626088D01*
X1209503Y625503D01*
X1210088Y625054D01*
X1210769Y624772D01*
X1211500Y624676D01*
X1212231Y624772D01*
X1212426Y624853D01*
X1216600Y620679D01*
X1216408Y620217D01*
X1137256D01*
X1133647Y623826D01*
X1133728Y624021D01*
X1133824Y624752D01*
X1133728Y625483D01*
X1133446Y626164D01*
X1132997Y626749D01*
X1132412Y627198D01*
X1131731Y627480D01*
X1131000Y627576D01*
X1130269Y627480D01*
X1129588Y627198D01*
X1129003Y626749D01*
X1128554Y626164D01*
X1128272Y625483D01*
X1128176Y624752D01*
X1128272Y624021D01*
X1128554Y623340D01*
X1129003Y622755D01*
X1129588Y622306D01*
X1130269Y622024D01*
X1131000Y621928D01*
X1131731Y622024D01*
X1131926Y622105D01*
X1135352Y618679D01*
X1135160Y618217D01*
X1056004D01*
X1051812Y622409D01*
X1051824Y622500D01*
X1051728Y623231D01*
X1051446Y623912D01*
X1051161Y624283D01*
X1051408Y624783D01*
X1054973D01*
X1055054Y624588D01*
X1055503Y624003D01*
X1056088Y623554D01*
X1056769Y623272D01*
X1057500Y623176D01*
X1058231Y623272D01*
X1058912Y623554D01*
X1059497Y624003D01*
X1059946Y624588D01*
X1060228Y625269D01*
X1060324Y626000D01*
X1060228Y626731D01*
X1060147Y626926D01*
X1069504Y636283D01*
X1137973D01*
X1138054Y636088D01*
X1138503Y635503D01*
X1139088Y635054D01*
X1139769Y634772D01*
X1140500Y634676D01*
X1141231Y634772D01*
X1141912Y635054D01*
X1142497Y635503D01*
X1142946Y636088D01*
X1143027Y636283D01*
X1227973D01*
X1228054Y636088D01*
X1228503Y635503D01*
X1229088Y635054D01*
X1229769Y634772D01*
X1230500Y634676D01*
X1231231Y634772D01*
X1231912Y635054D01*
X1232497Y635503D01*
X1232946Y636088D01*
X1233228Y636769D01*
X1233324Y637500D01*
X1233228Y638231D01*
X1232946Y638912D01*
X1232497Y639497D01*
X1231912Y639946D01*
X1231231Y640228D01*
X1230500Y640324D01*
X1229769Y640228D01*
X1229088Y639946D01*
X1228503Y639497D01*
X1228054Y638912D01*
X1227973Y638717D01*
X1143027D01*
X1142946Y638912D01*
X1142497Y639497D01*
X1141912Y639946D01*
X1141231Y640228D01*
X1140500Y640324D01*
X1139769Y640228D01*
X1139088Y639946D01*
X1138503Y639497D01*
X1138054Y638912D01*
X1137973Y638717D01*
X1069000D01*
X1068534Y638624D01*
X1068139Y638361D01*
X1058426Y628647D01*
X1058231Y628728D01*
X1057500Y628824D01*
X1056769Y628728D01*
X1056088Y628446D01*
X1055503Y627997D01*
X1055054Y627412D01*
X1054973Y627217D01*
X1025027D01*
X1024946Y627412D01*
X1024497Y627997D01*
X1023912Y628446D01*
X1023231Y628728D01*
X1022500Y628824D01*
Y630000D01*
X955000D01*
Y647558D01*
X955462Y647749D01*
X971856Y631355D01*
X972381Y631005D01*
X973000Y630882D01*
X1049661D01*
X1050088Y630554D01*
X1050769Y630272D01*
X1051500Y630176D01*
X1052231Y630272D01*
X1052912Y630554D01*
X1053497Y631003D01*
X1053946Y631588D01*
X1054228Y632269D01*
X1054324Y633000D01*
X1054228Y633731D01*
X1053946Y634412D01*
X1053497Y634997D01*
X1052912Y635446D01*
X1052231Y635728D01*
X1051500Y635824D01*
X1050769Y635728D01*
X1050088Y635446D01*
X1049503Y634997D01*
X1049054Y634412D01*
X1048933Y634119D01*
X973670D01*
X951644Y656144D01*
X951119Y656495D01*
X950500Y656618D01*
X903205D01*
Y658095D01*
X903143Y658407D01*
X902966Y658671D01*
X902702Y658848D01*
X902390Y658910D01*
X899115D01*
Y663519D01*
X899661D01*
X899974Y663581D01*
X900238Y663758D01*
X900415Y664022D01*
X900477Y664335D01*
Y668665D01*
X900415Y668977D01*
X900238Y669242D01*
X899974Y669419D01*
X899661Y669481D01*
X899115D01*
Y672019D01*
X899661D01*
X899974Y672081D01*
X900238Y672258D01*
X900415Y672522D01*
X900477Y672835D01*
Y677165D01*
X900415Y677478D01*
X900238Y677742D01*
X899974Y677919D01*
X899661Y677981D01*
X899119D01*
Y681019D01*
X899661D01*
X899974Y681081D01*
X900238Y681258D01*
X900415Y681523D01*
X900477Y681835D01*
Y686165D01*
X900415Y686478D01*
X900238Y686742D01*
X899974Y686919D01*
X899661Y686981D01*
X895331D01*
X895019Y686919D01*
X894754Y686742D01*
X894620Y686542D01*
X894334Y686529D01*
X894090Y686581D01*
X893886Y686886D01*
X893556Y687107D01*
X893165Y687185D01*
X892618D01*
Y701000D01*
X892495Y701619D01*
X892144Y702144D01*
X879618Y714670D01*
Y737783D01*
X907777D01*
X907899Y737487D01*
X908380Y736860D01*
X909007Y736379D01*
X909737Y736077D01*
X910020Y736040D01*
Y739000D01*
Y741960D01*
X909737Y741923D01*
X909007Y741620D01*
X908380Y741140D01*
X907899Y740513D01*
X907777Y740217D01*
X879036D01*
X878619Y740495D01*
X878000Y740619D01*
X877381Y740495D01*
X876964Y740217D01*
X868325D01*
X867789Y740753D01*
X867980Y741215D01*
X871286D01*
X871598Y741277D01*
X871863Y741454D01*
X872039Y741719D01*
X872101Y742031D01*
Y746361D01*
X872039Y746673D01*
X871863Y746938D01*
X871598Y747115D01*
X871286Y747177D01*
X870338D01*
Y749215D01*
X871286D01*
X871598Y749277D01*
X871863Y749454D01*
X872039Y749719D01*
X872101Y750031D01*
Y750979D01*
X872946D01*
X873027Y750784D01*
X873475Y750199D01*
X874060Y749750D01*
X874741Y749468D01*
X875472Y749372D01*
X876203Y749468D01*
X876884Y749750D01*
X877469Y750199D01*
X877918Y750784D01*
X878200Y751465D01*
X878297Y752196D01*
X878200Y752927D01*
X877918Y753608D01*
X877469Y754193D01*
X876884Y754642D01*
X876203Y754924D01*
X875472Y755020D01*
X874741Y754924D01*
X874060Y754642D01*
X873475Y754193D01*
X873027Y753608D01*
X872946Y753413D01*
X872101D01*
Y754361D01*
X872039Y754673D01*
X871863Y754938D01*
X871598Y755115D01*
X871286Y755177D01*
X866955D01*
X866643Y755115D01*
X866378Y754938D01*
X866244Y754738D01*
X865958Y754725D01*
X865715Y754777D01*
X865511Y755082D01*
X865180Y755303D01*
X864790Y755381D01*
X863124D01*
Y752196D01*
X862124D01*
Y755381D01*
X860459D01*
X860069Y755303D01*
X859738Y755082D01*
X859517Y754752D01*
X859439Y754361D01*
Y753413D01*
X857815D01*
X857693Y753709D01*
X857212Y754336D01*
X856585Y754817D01*
X855856Y755119D01*
X855572Y755156D01*
Y752196D01*
Y749236D01*
X855856Y749273D01*
X856585Y749576D01*
X857212Y750056D01*
X857693Y750683D01*
X857815Y750979D01*
X859439D01*
Y750031D01*
X859517Y749641D01*
X859738Y749310D01*
X860069Y749089D01*
X860459Y749011D01*
X861407D01*
Y747381D01*
X860459D01*
X860069Y747303D01*
X859738Y747082D01*
X859517Y746752D01*
X859439Y746361D01*
Y744696D01*
X862624D01*
Y744196D01*
X863124D01*
Y741011D01*
X864088D01*
X866960Y738139D01*
X867355Y737876D01*
X867820Y737783D01*
X876381D01*
Y714000D01*
X876505Y713381D01*
X876856Y712856D01*
X889382Y700330D01*
Y687185D01*
X888835D01*
X888445Y687107D01*
X888114Y686886D01*
X887893Y686555D01*
X887815Y686165D01*
Y684500D01*
X891000D01*
Y683500D01*
X887815D01*
Y681835D01*
X887893Y681445D01*
X888114Y681114D01*
X888445Y680893D01*
X888835Y680815D01*
X889382D01*
Y678185D01*
X888835D01*
X888445Y678107D01*
X888114Y677886D01*
X887893Y677556D01*
X887815Y677165D01*
Y675500D01*
X891000D01*
Y674500D01*
X887815D01*
Y672835D01*
X887893Y672444D01*
X888114Y672114D01*
X888445Y671893D01*
X888835Y671815D01*
X889382D01*
Y669685D01*
X888835D01*
X888445Y669607D01*
X888114Y669386D01*
X887893Y669056D01*
X887815Y668665D01*
Y668118D01*
X884108D01*
X883953Y668493D01*
X883319Y669319D01*
X882493Y669953D01*
X881532Y670351D01*
X881000Y670421D01*
Y666500D01*
Y662579D01*
X881532Y662649D01*
X882493Y663047D01*
X883319Y663681D01*
X883953Y664507D01*
X884108Y664882D01*
X887815D01*
Y664335D01*
X887893Y663944D01*
X888114Y663614D01*
X888445Y663393D01*
X888835Y663315D01*
X890500D01*
Y666500D01*
X891500D01*
Y663315D01*
X893165D01*
X893556Y663393D01*
X893886Y663614D01*
X894090Y663919D01*
X894334Y663971D01*
X894620Y663959D01*
X894754Y663758D01*
X895019Y663581D01*
X895331Y663519D01*
X895878D01*
Y658910D01*
X888610D01*
X888298Y658848D01*
X888033Y658671D01*
X887857Y658407D01*
X887795Y658095D01*
Y652500D01*
X881956D01*
X881857Y653000D01*
X882393Y653222D01*
X883177Y653824D01*
X883778Y654607D01*
X884156Y655520D01*
X884285Y656500D01*
X884156Y657480D01*
X883778Y658393D01*
X883177Y659176D01*
X882393Y659778D01*
X881480Y660156D01*
X880500Y660285D01*
X879520Y660156D01*
X878607Y659778D01*
X877824Y659176D01*
X877222Y658393D01*
X877108Y658118D01*
X873502D01*
X873466Y658171D01*
X873202Y658348D01*
X872890Y658410D01*
X864520D01*
X863618Y659312D01*
Y663519D01*
X864165D01*
X864478Y663581D01*
X864742Y663758D01*
X864876Y663959D01*
X865162Y663971D01*
X865406Y663919D01*
X865610Y663614D01*
X865940Y663393D01*
X866331Y663315D01*
X867996D01*
Y666500D01*
X868996D01*
Y663315D01*
X870661D01*
X871052Y663393D01*
X871382Y663614D01*
X871603Y663944D01*
X871681Y664335D01*
Y664882D01*
X876892D01*
X877047Y664507D01*
X877681Y663681D01*
X878507Y663047D01*
X879468Y662649D01*
X880000Y662579D01*
Y666500D01*
Y670421D01*
X879468Y670351D01*
X878507Y669953D01*
X877681Y669319D01*
X877047Y668493D01*
X876892Y668118D01*
X871681D01*
Y668665D01*
X871603Y669056D01*
X871382Y669386D01*
X871052Y669607D01*
X870661Y669685D01*
X870115D01*
Y671815D01*
X870661D01*
X871052Y671893D01*
X871382Y672114D01*
X871603Y672444D01*
X871681Y672835D01*
Y674500D01*
X868496D01*
Y675500D01*
X871681D01*
Y677165D01*
X871603Y677556D01*
X871382Y677886D01*
X871052Y678107D01*
X870661Y678185D01*
X870115D01*
Y680815D01*
X870661D01*
X871052Y680893D01*
X871382Y681114D01*
X871603Y681445D01*
X871681Y681835D01*
Y683500D01*
X868496D01*
Y684500D01*
X871681D01*
Y686165D01*
X871603Y686555D01*
X871382Y686886D01*
X871052Y687107D01*
X870661Y687185D01*
X870115D01*
Y692004D01*
X869991Y692623D01*
X869641Y693148D01*
X869115Y693499D01*
X868496Y693622D01*
X850004D01*
X849385Y693499D01*
X848860Y693148D01*
X844356Y688644D01*
X844005Y688119D01*
X843882Y687500D01*
Y658614D01*
X838610D01*
X838220Y658536D01*
X837889Y658315D01*
X837668Y657985D01*
X837591Y657594D01*
Y655142D01*
X845500D01*
X853409D01*
Y657594D01*
X853332Y657985D01*
X853111Y658315D01*
X852780Y658536D01*
X852390Y658614D01*
X847118D01*
Y686830D01*
X850674Y690385D01*
X866878D01*
Y687185D01*
X866331D01*
X865940Y687107D01*
X865610Y686886D01*
X865406Y686581D01*
X865162Y686529D01*
X864876Y686542D01*
X864742Y686742D01*
X864478Y686919D01*
X864165Y686981D01*
X859835D01*
X859523Y686919D01*
X859258Y686742D01*
X859081Y686478D01*
X859019Y686165D01*
Y681835D01*
X859081Y681523D01*
X859258Y681258D01*
X859523Y681081D01*
X859835Y681019D01*
X860382D01*
Y677981D01*
X859835D01*
X859523Y677919D01*
X859258Y677742D01*
X859081Y677478D01*
X859019Y677165D01*
Y672835D01*
X859081Y672522D01*
X859258Y672258D01*
X859523Y672081D01*
X859835Y672019D01*
X860382D01*
Y669481D01*
X859835D01*
X859523Y669419D01*
X859258Y669242D01*
X859081Y668977D01*
X859019Y668665D01*
Y664335D01*
X859081Y664022D01*
X859258Y663758D01*
X859523Y663581D01*
X859835Y663519D01*
X860382D01*
Y658642D01*
X860191Y658410D01*
X859110D01*
X858798Y658348D01*
X858533Y658171D01*
X858357Y657907D01*
X858295Y657594D01*
Y652500D01*
X853409D01*
Y654142D01*
X845500D01*
X837591D01*
Y652500D01*
X790000D01*
Y767500D01*
X945297D01*
X945602Y767102D01*
X946304Y766563D01*
X947122Y766224D01*
X947500Y766175D01*
Y769500D01*
X948500D01*
Y766175D01*
X948878Y766224D01*
X949696Y766563D01*
X950398Y767102D01*
X950703Y767500D01*
X1095797D01*
X1096102Y767102D01*
X1096804Y766563D01*
X1097622Y766224D01*
X1098000Y766175D01*
Y769500D01*
X1099000D01*
Y766175D01*
X1099378Y766224D01*
X1100196Y766563D01*
X1100898Y767102D01*
X1101203Y767500D01*
X1242324D01*
X1242630Y767102D01*
X1243332Y766563D01*
X1244150Y766224D01*
X1244528Y766175D01*
Y769500D01*
X1245527D01*
Y766175D01*
X1245905Y766224D01*
X1246723Y766563D01*
X1247425Y767102D01*
X1247731Y767500D01*
X1362776D01*
X1363102Y767074D01*
X1363804Y766536D01*
X1364622Y766197D01*
X1365000Y766147D01*
Y769473D01*
X1366000D01*
Y766147D01*
X1366378Y766197D01*
X1367196Y766536D01*
X1367898Y767074D01*
X1368225Y767500D01*
X1690824D01*
X1691130Y767102D01*
X1691832Y766563D01*
X1692650Y766224D01*
X1693027Y766175D01*
Y769500D01*
X1694028D01*
Y766175D01*
X1694405Y766224D01*
X1695223Y766563D01*
X1695926Y767102D01*
X1696231Y767500D01*
X1840824D01*
X1841130Y767102D01*
X1841832Y766563D01*
X1842650Y766224D01*
X1843027Y766175D01*
Y769500D01*
X1844028D01*
Y766175D01*
D02*
G37*
G36*
X1284035Y610255D02*
X1283641Y609304D01*
X1283494Y608181D01*
X1283641Y607059D01*
X1284075Y606013D01*
X1284764Y605114D01*
X1285472Y604571D01*
X1285302Y604071D01*
X1279454D01*
X1279284Y604571D01*
X1279992Y605114D01*
X1280681Y606013D01*
X1281114Y607059D01*
X1281262Y608181D01*
X1281114Y609304D01*
X1280681Y610350D01*
X1279992Y611248D01*
X1279094Y611937D01*
X1278048Y612370D01*
X1276925Y612518D01*
X1275803Y612370D01*
X1274757Y611937D01*
X1273858Y611248D01*
X1273169Y610350D01*
X1272736Y609304D01*
X1272588Y608181D01*
X1272736Y607059D01*
X1273169Y606013D01*
X1273858Y605114D01*
X1274566Y604571D01*
X1274396Y604071D01*
X1268548D01*
X1268379Y604571D01*
X1269086Y605114D01*
X1269776Y606013D01*
X1270209Y607059D01*
X1270357Y608181D01*
X1270209Y609304D01*
X1269776Y610350D01*
X1269086Y611248D01*
X1268188Y611937D01*
X1267142Y612370D01*
X1266020Y612518D01*
X1264897Y612370D01*
X1263946Y611976D01*
X1256601Y619321D01*
X1256792Y619783D01*
X1274508D01*
X1284035Y610255D01*
D02*
G37*
G36*
X1268754Y600334D02*
X1268406Y600067D01*
X1267716Y599168D01*
X1267283Y598123D01*
X1267135Y597000D01*
X1267283Y595878D01*
X1267716Y594832D01*
X1268406Y593933D01*
X1269304Y593244D01*
X1270350Y592811D01*
X1271472Y592663D01*
X1272595Y592811D01*
X1273546Y593205D01*
X1285572Y581179D01*
X1285381Y580717D01*
X1267666D01*
X1253457Y594926D01*
X1253851Y595878D01*
X1253998Y597000D01*
X1253851Y598123D01*
X1253417Y599168D01*
X1252728Y600067D01*
X1252380Y600334D01*
X1252549Y600834D01*
X1257679D01*
X1257849Y600334D01*
X1257500Y600067D01*
X1256811Y599168D01*
X1256378Y598123D01*
X1256230Y597000D01*
X1256378Y595878D01*
X1256811Y594832D01*
X1257500Y593933D01*
X1258398Y593244D01*
X1259444Y592811D01*
X1260567Y592663D01*
X1261689Y592811D01*
X1262735Y593244D01*
X1263634Y593933D01*
X1264323Y594832D01*
X1264756Y595878D01*
X1264904Y597000D01*
X1264756Y598123D01*
X1264323Y599168D01*
X1263634Y600067D01*
X1263285Y600334D01*
X1263455Y600834D01*
X1268585D01*
X1268754Y600334D01*
D02*
G37*
%LPC*%
G36*
X974500Y603311D02*
Y598500D01*
X979311D01*
X979193Y599392D01*
X978656Y600688D01*
X977802Y601802D01*
X976688Y602656D01*
X975392Y603194D01*
X974500Y603311D01*
D02*
G37*
G36*
X903409Y638500D02*
X896000D01*
Y635028D01*
X899616D01*
X904980Y629663D01*
Y601520D01*
X901837D01*
X898760Y604597D01*
Y606000D01*
X894500D01*
Y603118D01*
X894525D01*
X899572Y598072D01*
X900227Y597634D01*
X901000Y597480D01*
X968692D01*
X968806Y596608D01*
X969344Y595312D01*
X970198Y594198D01*
X971312Y593344D01*
X972608Y592806D01*
X973500Y592689D01*
Y598000D01*
Y603311D01*
X972608Y603194D01*
X971312Y602656D01*
X970198Y601802D01*
X969982Y601520D01*
X909020D01*
Y630500D01*
X908866Y631273D01*
X908428Y631928D01*
X903409Y636947D01*
Y638500D01*
D02*
G37*
G36*
X880000Y610421D02*
X879468Y610351D01*
X878507Y609953D01*
X877681Y609319D01*
X877047Y608493D01*
X876649Y607532D01*
X876595Y607122D01*
X873170D01*
X871685Y608608D01*
Y609004D01*
X869000D01*
Y606319D01*
X869396D01*
X871356Y604359D01*
X871881Y604009D01*
X872500Y603885D01*
X877524D01*
X877681Y603681D01*
X878507Y603047D01*
X879468Y602649D01*
X880000Y602579D01*
Y606500D01*
Y610421D01*
D02*
G37*
G36*
X881000D02*
Y606500D01*
Y602579D01*
X881532Y602649D01*
X882493Y603047D01*
X883319Y603681D01*
X883953Y604507D01*
X884108Y604881D01*
X889240D01*
Y604138D01*
X889318Y603748D01*
X889539Y603417D01*
X889870Y603196D01*
X890260Y603118D01*
X893500D01*
Y606500D01*
Y609882D01*
X890260D01*
X889870Y609804D01*
X889539Y609583D01*
X889318Y609252D01*
X889240Y608862D01*
Y608118D01*
X884108D01*
X883953Y608493D01*
X883319Y609319D01*
X882493Y609953D01*
X881532Y610351D01*
X881000Y610421D01*
D02*
G37*
G36*
X897740Y609882D02*
X894500D01*
Y607000D01*
X898760D01*
Y608862D01*
X898682Y609252D01*
X898461Y609583D01*
X898130Y609804D01*
X897740Y609882D01*
D02*
G37*
G36*
X979311Y597500D02*
X974500D01*
Y592647D01*
X977647Y589500D01*
X980504D01*
Y592357D01*
X978176Y594685D01*
X978656Y595312D01*
X979193Y596608D01*
X979311Y597500D01*
D02*
G37*
G36*
X978764Y579000D02*
X975882D01*
Y575760D01*
X975960Y575370D01*
X976181Y575039D01*
X976511Y574818D01*
X976902Y574740D01*
X978764D01*
Y579000D01*
D02*
G37*
G36*
X982646D02*
X979764D01*
Y574740D01*
X981626D01*
X982016Y574818D01*
X982347Y575039D01*
X982568Y575370D01*
X982646Y575760D01*
Y579000D01*
D02*
G37*
G36*
X994000Y603175D02*
X992661Y602999D01*
X991413Y602482D01*
X990341Y601659D01*
X989518Y600588D01*
X989001Y599339D01*
X988825Y598000D01*
X989001Y596661D01*
X989518Y595412D01*
X990341Y594341D01*
X990354Y594143D01*
X988192Y591981D01*
X985335D01*
X985023Y591919D01*
X984758Y591742D01*
X984624Y591541D01*
X984338Y591529D01*
X984094Y591581D01*
X983890Y591886D01*
X983560Y592107D01*
X983169Y592185D01*
X981504D01*
Y589000D01*
X981004D01*
Y588500D01*
X977819D01*
Y586835D01*
X977897Y586445D01*
X978118Y586114D01*
X978448Y585893D01*
X978839Y585815D01*
X978984D01*
Y584260D01*
X976902D01*
X976511Y584182D01*
X976181Y583961D01*
X975960Y583630D01*
X975882Y583240D01*
Y580000D01*
X979264D01*
X982646D01*
Y580131D01*
X982870Y580467D01*
X983024Y581240D01*
Y585815D01*
X983169D01*
X983560Y585893D01*
X983890Y586114D01*
X984094Y586419D01*
X984338Y586471D01*
X984624Y586458D01*
X984758Y586258D01*
X985023Y586081D01*
X985335Y586019D01*
X985882D01*
Y581500D01*
X986005Y580881D01*
X986322Y580406D01*
Y575760D01*
X986384Y575448D01*
X986561Y575183D01*
X986826Y575006D01*
X987138Y574944D01*
X991862D01*
X992174Y575006D01*
X992439Y575183D01*
X992616Y575448D01*
X992678Y575760D01*
Y583240D01*
X992616Y583552D01*
X992439Y583817D01*
X992174Y583994D01*
X991862Y584056D01*
X989118D01*
Y586019D01*
X989665D01*
X989977Y586081D01*
X990242Y586258D01*
X990419Y586522D01*
X990481Y586835D01*
Y589692D01*
X993659Y592870D01*
X994000Y592825D01*
X995339Y593001D01*
X996587Y593518D01*
X997659Y594341D01*
X998482Y595412D01*
X998999Y596661D01*
X999175Y598000D01*
X998999Y599339D01*
X998482Y600588D01*
X997659Y601659D01*
X996587Y602482D01*
X995339Y602999D01*
X994000Y603175D01*
D02*
G37*
G36*
X880500Y630285D02*
X879520Y630156D01*
X878607Y629778D01*
X877824Y629177D01*
X877222Y628393D01*
X876844Y627480D01*
X876715Y626500D01*
X876844Y625520D01*
X877222Y624607D01*
X877824Y623823D01*
X878607Y623222D01*
X879520Y622844D01*
X880500Y622715D01*
X881480Y622844D01*
X882393Y623222D01*
X883177Y623823D01*
X883778Y624607D01*
X884156Y625520D01*
X884285Y626500D01*
X884156Y627480D01*
X883778Y628393D01*
X883177Y629177D01*
X882393Y629778D01*
X881480Y630156D01*
X880500Y630285D01*
D02*
G37*
G36*
X895000Y638500D02*
X887591D01*
Y636047D01*
X887668Y635657D01*
X887889Y635326D01*
X888220Y635105D01*
X888610Y635028D01*
X895000D01*
Y638500D01*
D02*
G37*
G36*
X880500Y640285D02*
X879520Y640156D01*
X878607Y639778D01*
X877824Y639177D01*
X877222Y638393D01*
X876844Y637480D01*
X876715Y636500D01*
X876844Y635520D01*
X877222Y634607D01*
X877824Y633823D01*
X878607Y633222D01*
X879520Y632844D01*
X880500Y632715D01*
X881480Y632844D01*
X882393Y633222D01*
X883177Y633823D01*
X883778Y634607D01*
X884156Y635520D01*
X884285Y636500D01*
X884156Y637480D01*
X883778Y638393D01*
X883177Y639177D01*
X882393Y639778D01*
X881480Y640156D01*
X880500Y640285D01*
D02*
G37*
G36*
X1005464Y712004D02*
X1003004D01*
Y709544D01*
X1003287Y709581D01*
X1004017Y709883D01*
X1004644Y710364D01*
X1005124Y710991D01*
X1005427Y711721D01*
X1005464Y712004D01*
D02*
G37*
G36*
X1889960Y713000D02*
X1887500D01*
Y710540D01*
X1887783Y710577D01*
X1888513Y710880D01*
X1889140Y711360D01*
X1889621Y711987D01*
X1889923Y712717D01*
X1889960Y713000D01*
D02*
G37*
G36*
X1649000Y712500D02*
X1646540D01*
X1646577Y712217D01*
X1646880Y711487D01*
X1647360Y710860D01*
X1647987Y710380D01*
X1648717Y710077D01*
X1649000Y710040D01*
Y712500D01*
D02*
G37*
G36*
X1908500D02*
X1906040D01*
X1906077Y712217D01*
X1906380Y711487D01*
X1906860Y710860D01*
X1907487Y710380D01*
X1908217Y710077D01*
X1908500Y710040D01*
Y712500D01*
D02*
G37*
G36*
X1192004Y713000D02*
X1189544D01*
X1189581Y712717D01*
X1189883Y711987D01*
X1190364Y711360D01*
X1190991Y710880D01*
X1191721Y710577D01*
X1192004Y710540D01*
Y713000D01*
D02*
G37*
G36*
X1630460D02*
X1628000D01*
Y710540D01*
X1628283Y710577D01*
X1629013Y710880D01*
X1629640Y711360D01*
X1630120Y711987D01*
X1630423Y712717D01*
X1630460Y713000D01*
D02*
G37*
G36*
X1805964Y711500D02*
X1803504D01*
Y709040D01*
X1803787Y709077D01*
X1804517Y709379D01*
X1805144Y709860D01*
X1805624Y710487D01*
X1805927Y711217D01*
X1805964Y711500D01*
D02*
G37*
G36*
X1823248D02*
X1820788D01*
X1820825Y711217D01*
X1821128Y710487D01*
X1821608Y709860D01*
X1822235Y709379D01*
X1822965Y709077D01*
X1823248Y709040D01*
Y711500D01*
D02*
G37*
G36*
X1739500D02*
X1737040D01*
X1737077Y711217D01*
X1737379Y710487D01*
X1737860Y709860D01*
X1738487Y709379D01*
X1739217Y709077D01*
X1739500Y709040D01*
Y711500D01*
D02*
G37*
G36*
X1546464D02*
X1544004D01*
Y709040D01*
X1544287Y709077D01*
X1545017Y709379D01*
X1545644Y709860D01*
X1546124Y710487D01*
X1546427Y711217D01*
X1546464Y711500D01*
D02*
G37*
G36*
X1563748D02*
X1561288D01*
X1561325Y711217D01*
X1561627Y710487D01*
X1562108Y709860D01*
X1562735Y709379D01*
X1563465Y709077D01*
X1563748Y709040D01*
Y711500D01*
D02*
G37*
G36*
X1089468Y712000D02*
X1087008D01*
Y709540D01*
X1087291Y709577D01*
X1088021Y709879D01*
X1088647Y710360D01*
X1089128Y710987D01*
X1089431Y711717D01*
X1089468Y712000D01*
D02*
G37*
G36*
X1106752D02*
X1104292D01*
X1104329Y711717D01*
X1104632Y710987D01*
X1105112Y710360D01*
X1105739Y709879D01*
X1106469Y709577D01*
X1106752Y709540D01*
Y712000D01*
D02*
G37*
G36*
X1023004D02*
X1020544D01*
X1020581Y711717D01*
X1020883Y710987D01*
X1021364Y710360D01*
X1021991Y709879D01*
X1022721Y709577D01*
X1023004Y709540D01*
Y712000D01*
D02*
G37*
G36*
X1462460Y711504D02*
X1460000D01*
Y709044D01*
X1460283Y709081D01*
X1461013Y709383D01*
X1461640Y709864D01*
X1462121Y710491D01*
X1462423Y711221D01*
X1462460Y711504D01*
D02*
G37*
G36*
X1721960D02*
X1719500D01*
Y709044D01*
X1719783Y709081D01*
X1720513Y709383D01*
X1721140Y709864D01*
X1721621Y710491D01*
X1721923Y711221D01*
X1721960Y711504D01*
D02*
G37*
G36*
X1173464Y713500D02*
X1171004D01*
Y711040D01*
X1171287Y711077D01*
X1172017Y711379D01*
X1172644Y711860D01*
X1173124Y712487D01*
X1173427Y713217D01*
X1173464Y713500D01*
D02*
G37*
G36*
X1718500Y714964D02*
X1718217Y714927D01*
X1717487Y714624D01*
X1716860Y714144D01*
X1716380Y713517D01*
X1716077Y712787D01*
X1716040Y712504D01*
X1718500D01*
Y714964D01*
D02*
G37*
G36*
X1719500D02*
Y712504D01*
X1721960D01*
X1721923Y712787D01*
X1721621Y713517D01*
X1721140Y714144D01*
X1720513Y714624D01*
X1719783Y714927D01*
X1719500Y714964D01*
D02*
G37*
G36*
X1824248Y714960D02*
Y712500D01*
X1826708D01*
X1826671Y712783D01*
X1826369Y713513D01*
X1825888Y714140D01*
X1825261Y714620D01*
X1824531Y714923D01*
X1824248Y714960D01*
D02*
G37*
G36*
X1460000Y714964D02*
Y712504D01*
X1462460D01*
X1462423Y712787D01*
X1462121Y713517D01*
X1461640Y714144D01*
X1461013Y714624D01*
X1460283Y714927D01*
X1460000Y714964D01*
D02*
G37*
G36*
X1023004Y715460D02*
X1022721Y715423D01*
X1021991Y715121D01*
X1021364Y714640D01*
X1020883Y714013D01*
X1020581Y713283D01*
X1020544Y713000D01*
X1023004D01*
Y715460D01*
D02*
G37*
G36*
X1087008D02*
Y713000D01*
X1089468D01*
X1089431Y713283D01*
X1089128Y714013D01*
X1088647Y714640D01*
X1088021Y715121D01*
X1087291Y715423D01*
X1087008Y715460D01*
D02*
G37*
G36*
X1106752D02*
X1106469Y715423D01*
X1105739Y715121D01*
X1105112Y714640D01*
X1104632Y714013D01*
X1104329Y713283D01*
X1104292Y713000D01*
X1106752D01*
Y715460D01*
D02*
G37*
G36*
X1024004D02*
Y713000D01*
X1026464D01*
X1026427Y713283D01*
X1026124Y714013D01*
X1025644Y714640D01*
X1025017Y715121D01*
X1024287Y715423D01*
X1024004Y715460D01*
D02*
G37*
G36*
X1086008D02*
X1085725Y715423D01*
X1084995Y715121D01*
X1084368Y714640D01*
X1083887Y714013D01*
X1083585Y713283D01*
X1083548Y713000D01*
X1086008D01*
Y715460D01*
D02*
G37*
G36*
X1552504Y743748D02*
X1549819D01*
Y742784D01*
X1542643Y735609D01*
X1542379Y735214D01*
X1542287Y734748D01*
Y714743D01*
X1541991Y714620D01*
X1541364Y714140D01*
X1540883Y713513D01*
X1540581Y712783D01*
X1540544Y712500D01*
X1546464D01*
X1546427Y712783D01*
X1546124Y713513D01*
X1545644Y714140D01*
X1545017Y714620D01*
X1544721Y714743D01*
Y734244D01*
X1551540Y741063D01*
X1552504D01*
Y743748D01*
D02*
G37*
G36*
X1563748Y714960D02*
X1563465Y714923D01*
X1562735Y714620D01*
X1562108Y714140D01*
X1561627Y713513D01*
X1561325Y712783D01*
X1561288Y712500D01*
X1563748D01*
Y714960D01*
D02*
G37*
G36*
X1480000D02*
X1479717Y714923D01*
X1478987Y714620D01*
X1478360Y714140D01*
X1477880Y713513D01*
X1477577Y712783D01*
X1477540Y712500D01*
X1480000D01*
Y714960D01*
D02*
G37*
G36*
X1481000D02*
Y712500D01*
X1483460D01*
X1483423Y712783D01*
X1483121Y713513D01*
X1482640Y714140D01*
X1482013Y714620D01*
X1481283Y714923D01*
X1481000Y714960D01*
D02*
G37*
G36*
X1564748D02*
Y712500D01*
X1567208D01*
X1567171Y712783D01*
X1566868Y713513D01*
X1566388Y714140D01*
X1565761Y714620D01*
X1565031Y714923D01*
X1564748Y714960D01*
D02*
G37*
G36*
X1802504D02*
X1802221Y714923D01*
X1801491Y714620D01*
X1800864Y714140D01*
X1800383Y713513D01*
X1800081Y712783D01*
X1800044Y712500D01*
X1802504D01*
Y714960D01*
D02*
G37*
G36*
X1823248D02*
X1822965Y714923D01*
X1822235Y714620D01*
X1821608Y714140D01*
X1821128Y713513D01*
X1820825Y712783D01*
X1820788Y712500D01*
X1823248D01*
Y714960D01*
D02*
G37*
G36*
X1739500D02*
X1739217Y714923D01*
X1738487Y714620D01*
X1737860Y714140D01*
X1737379Y713513D01*
X1737077Y712783D01*
X1737040Y712500D01*
X1739500D01*
Y714960D01*
D02*
G37*
G36*
X1740500D02*
Y712500D01*
X1742960D01*
X1742923Y712783D01*
X1742620Y713513D01*
X1742140Y714140D01*
X1741513Y714620D01*
X1740783Y714923D01*
X1740500Y714960D01*
D02*
G37*
G36*
X1211091Y611082D02*
X1209924Y610968D01*
X1208322Y610482D01*
X1206845Y609692D01*
X1205551Y608630D01*
X1204489Y607336D01*
X1203700Y605859D01*
X1203214Y604257D01*
X1203099Y603090D01*
X1211091D01*
Y611082D01*
D02*
G37*
G36*
X1396287D02*
X1395121Y610968D01*
X1393519Y610482D01*
X1392042Y609692D01*
X1390748Y608630D01*
X1389686Y607336D01*
X1388896Y605859D01*
X1388410Y604257D01*
X1388295Y603090D01*
X1396287D01*
Y611082D01*
D02*
G37*
G36*
X1330953Y612654D02*
X1330278Y612565D01*
X1329183Y612112D01*
X1328243Y611390D01*
X1327522Y610451D01*
X1327069Y609356D01*
X1326980Y608681D01*
X1330953D01*
Y612654D01*
D02*
G37*
G36*
X1370122Y601473D02*
Y597500D01*
X1374095D01*
X1374006Y598175D01*
X1373553Y599269D01*
X1372832Y600209D01*
X1371891Y600931D01*
X1370797Y601384D01*
X1370122Y601473D01*
D02*
G37*
G36*
X1369122Y596500D02*
X1365149D01*
X1365238Y595825D01*
X1365691Y594731D01*
X1366413Y593791D01*
X1367353Y593069D01*
X1368447Y592616D01*
X1369122Y592527D01*
Y596500D01*
D02*
G37*
G36*
X1211091Y602091D02*
X1203099D01*
X1203214Y600924D01*
X1203700Y599322D01*
X1204489Y597845D01*
X1205551Y596551D01*
X1206845Y595489D01*
X1208322Y594700D01*
X1209924Y594213D01*
X1211091Y594099D01*
Y602091D01*
D02*
G37*
G36*
X1396287D02*
X1388295D01*
X1388410Y600924D01*
X1388896Y599322D01*
X1389686Y597845D01*
X1390748Y596551D01*
X1392042Y595489D01*
X1393519Y594700D01*
X1395121Y594213D01*
X1396287Y594099D01*
Y602091D01*
D02*
G37*
G36*
X1374095Y596500D02*
X1370122D01*
Y592527D01*
X1370797Y592616D01*
X1371891Y593069D01*
X1372832Y593791D01*
X1373553Y594731D01*
X1374006Y595825D01*
X1374095Y596500D01*
D02*
G37*
G36*
X1715960Y615500D02*
X1713500D01*
Y613040D01*
X1713783Y613077D01*
X1714513Y613379D01*
X1715140Y613860D01*
X1715620Y614487D01*
X1715923Y615217D01*
X1715960Y615500D01*
D02*
G37*
G36*
X1222960Y687500D02*
X1220500D01*
Y685040D01*
X1220783Y685077D01*
X1221513Y685380D01*
X1222140Y685860D01*
X1222620Y686487D01*
X1222923Y687217D01*
X1222960Y687500D01*
D02*
G37*
G36*
X1926165Y690681D02*
X1924500D01*
Y687996D01*
X1927185D01*
Y689661D01*
X1927107Y690052D01*
X1926886Y690382D01*
X1926555Y690603D01*
X1926165Y690681D01*
D02*
G37*
G36*
X1329956Y729496D02*
X1324036D01*
X1324073Y729213D01*
X1324376Y728483D01*
X1324856Y727856D01*
X1325483Y727376D01*
X1325671Y727298D01*
Y661878D01*
X1325360Y661640D01*
X1324879Y661013D01*
X1324577Y660283D01*
X1324540Y660000D01*
X1330460D01*
X1330423Y660283D01*
X1330120Y661013D01*
X1329640Y661640D01*
X1329013Y662120D01*
X1328321Y662407D01*
Y727298D01*
X1328509Y727376D01*
X1329136Y727856D01*
X1329617Y728483D01*
X1329919Y729213D01*
X1329956Y729496D01*
D02*
G37*
G36*
X880500Y680285D02*
X879520Y680156D01*
X878607Y679778D01*
X877824Y679177D01*
X877222Y678393D01*
X876844Y677480D01*
X876715Y676500D01*
X876844Y675520D01*
X877222Y674607D01*
X877824Y673823D01*
X878607Y673222D01*
X879520Y672844D01*
X880500Y672715D01*
X881480Y672844D01*
X882393Y673222D01*
X883177Y673823D01*
X883778Y674607D01*
X884156Y675520D01*
X884285Y676500D01*
X884156Y677480D01*
X883778Y678393D01*
X883177Y679177D01*
X882393Y679778D01*
X881480Y680156D01*
X880500Y680285D01*
D02*
G37*
G36*
X1565500Y761324D02*
X1564769Y761228D01*
X1564088Y760946D01*
X1563503Y760497D01*
X1563054Y759912D01*
X1562772Y759231D01*
X1562676Y758500D01*
X1562772Y757769D01*
X1562808Y757682D01*
X1560355Y755229D01*
X1557083D01*
X1556771Y755167D01*
X1556506Y754990D01*
X1556372Y754790D01*
X1556086Y754777D01*
X1555842Y754829D01*
X1555638Y755134D01*
X1555307Y755355D01*
X1554917Y755433D01*
X1553252D01*
Y752248D01*
X1552752D01*
Y751748D01*
X1549567D01*
Y750083D01*
X1549645Y749692D01*
X1549866Y749362D01*
X1550196Y749141D01*
X1550587Y749063D01*
X1551678D01*
Y747433D01*
X1550839D01*
X1550448Y747355D01*
X1550118Y747134D01*
X1549897Y746804D01*
X1549819Y746413D01*
Y744748D01*
X1553004D01*
Y744248D01*
X1553504D01*
Y741063D01*
X1555169D01*
X1555560Y741141D01*
X1555890Y741362D01*
X1556094Y741667D01*
X1556338Y741719D01*
X1556624Y741707D01*
X1556758Y741506D01*
X1557022Y741329D01*
X1557335Y741267D01*
X1561665D01*
X1561977Y741329D01*
X1562242Y741506D01*
X1562419Y741771D01*
X1562481Y742083D01*
Y746413D01*
X1562419Y746726D01*
X1562242Y746990D01*
X1561977Y747167D01*
X1561665Y747229D01*
X1560573D01*
Y749267D01*
X1561413D01*
X1561726Y749329D01*
X1561990Y749506D01*
X1562167Y749770D01*
X1562229Y750083D01*
Y753355D01*
X1564682Y755808D01*
X1564769Y755772D01*
X1565500Y755676D01*
X1566231Y755772D01*
X1566318Y755808D01*
X1584175Y737951D01*
Y696982D01*
X1584088Y696946D01*
X1583503Y696497D01*
X1583054Y695912D01*
X1582772Y695231D01*
X1582676Y694500D01*
X1582772Y693769D01*
X1583054Y693088D01*
X1583503Y692503D01*
X1584088Y692054D01*
X1584769Y691772D01*
X1585500Y691676D01*
X1586231Y691772D01*
X1586912Y692054D01*
X1587497Y692503D01*
X1587946Y693088D01*
X1588228Y693769D01*
X1588324Y694500D01*
X1588228Y695231D01*
X1587946Y695912D01*
X1587497Y696497D01*
X1586912Y696946D01*
X1586825Y696982D01*
Y738500D01*
X1586725Y739007D01*
X1586437Y739437D01*
X1568192Y757682D01*
X1568228Y757769D01*
X1568324Y758500D01*
X1568228Y759231D01*
X1567946Y759912D01*
X1567497Y760497D01*
X1566912Y760946D01*
X1566231Y761228D01*
X1565500Y761324D01*
D02*
G37*
G36*
X1480000Y711500D02*
X1477540D01*
X1477577Y711217D01*
X1477880Y710487D01*
X1478360Y709860D01*
X1478987Y709379D01*
X1479717Y709077D01*
X1480000Y709040D01*
Y711500D01*
D02*
G37*
G36*
X1220500Y690960D02*
Y688500D01*
X1222960D01*
X1222923Y688783D01*
X1222620Y689513D01*
X1222140Y690140D01*
X1221513Y690621D01*
X1220783Y690923D01*
X1220500Y690960D01*
D02*
G37*
G36*
X1170004Y713500D02*
X1167544D01*
X1167581Y713217D01*
X1167704Y712921D01*
X1155147Y700364D01*
X1154883Y699970D01*
X1154791Y699504D01*
Y691243D01*
X1154495Y691120D01*
X1153922Y690681D01*
X1153839D01*
X1153448Y690603D01*
X1153118Y690382D01*
X1152897Y690052D01*
X1152830Y689717D01*
X1124678D01*
X1124611Y690052D01*
X1124390Y690382D01*
X1124059Y690603D01*
X1123669Y690681D01*
X1122004D01*
Y687496D01*
X1121004D01*
Y690681D01*
X1119339D01*
X1118948Y690603D01*
X1118618Y690382D01*
X1118095Y690332D01*
X1118060Y690355D01*
X1117669Y690433D01*
X1116721D01*
Y704248D01*
X1116628Y704714D01*
X1116365Y705109D01*
X1110052Y711421D01*
X1110175Y711717D01*
X1110212Y712000D01*
X1107752D01*
Y709540D01*
X1108035Y709577D01*
X1108331Y709700D01*
X1114287Y703744D01*
Y690433D01*
X1113339D01*
X1112948Y690355D01*
X1112618Y690134D01*
X1112397Y689804D01*
X1112319Y689413D01*
Y688465D01*
X1081689D01*
Y688913D01*
X1081611Y689304D01*
X1081390Y689634D01*
X1081059Y689855D01*
X1080669Y689933D01*
X1079004D01*
Y686748D01*
X1078004D01*
Y689933D01*
X1076339D01*
X1075948Y689855D01*
X1075618Y689634D01*
X1075470Y689414D01*
X1075067Y689347D01*
X1074900Y689368D01*
X1074890Y689382D01*
X1074559Y689603D01*
X1074169Y689681D01*
X1074095D01*
X1073517Y690124D01*
X1073221Y690247D01*
Y698496D01*
X1084774Y710049D01*
X1084995Y709879D01*
X1085725Y709577D01*
X1086008Y709540D01*
Y712000D01*
X1083283D01*
X1071143Y699861D01*
X1070879Y699466D01*
X1070787Y699000D01*
Y690247D01*
X1070491Y690124D01*
X1069913Y689681D01*
X1069839D01*
X1069448Y689603D01*
X1069118Y689382D01*
X1068897Y689052D01*
X1068831Y688721D01*
X1041189D01*
Y688913D01*
X1041111Y689304D01*
X1040890Y689634D01*
X1040559Y689855D01*
X1040169Y689933D01*
X1038504D01*
Y686748D01*
X1037504D01*
Y689933D01*
X1035839D01*
X1035448Y689855D01*
X1035118Y689634D01*
X1034890D01*
X1034560Y689855D01*
X1034169Y689933D01*
X1033221D01*
Y704000D01*
X1033128Y704466D01*
X1032865Y704861D01*
X1026304Y711421D01*
X1026427Y711717D01*
X1026464Y712000D01*
X1024004D01*
Y709540D01*
X1024287Y709577D01*
X1024583Y709700D01*
X1030787Y703496D01*
Y689933D01*
X1029839D01*
X1029448Y689855D01*
X1029118Y689634D01*
X1028897Y689304D01*
X1028819Y688913D01*
Y687965D01*
X998689D01*
Y689161D01*
X998611Y689552D01*
X998390Y689882D01*
X998059Y690103D01*
X997669Y690181D01*
X996004D01*
Y686996D01*
X995004D01*
Y690181D01*
X993339D01*
X992948Y690103D01*
X992618Y689882D01*
X992397Y689552D01*
X992319Y689161D01*
Y688213D01*
X991753D01*
X991689Y688367D01*
Y689161D01*
X991611Y689552D01*
X991390Y689882D01*
X991059Y690103D01*
X990669Y690181D01*
X990225D01*
Y698504D01*
X1001425Y709704D01*
X1001721Y709581D01*
X1002004Y709544D01*
Y712004D01*
X999544D01*
X999581Y711721D01*
X999704Y711425D01*
X988147Y699868D01*
X987883Y699474D01*
X987791Y699008D01*
Y690181D01*
X986339D01*
X985948Y690103D01*
X985618Y689882D01*
X985397Y689552D01*
X985319Y689161D01*
Y687496D01*
X988504D01*
Y686496D01*
X985319D01*
Y684831D01*
X985397Y684441D01*
X985618Y684110D01*
X985923Y683906D01*
X985975Y683662D01*
X985962Y683376D01*
X985762Y683242D01*
X985585Y682977D01*
X985523Y682665D01*
Y678335D01*
X985585Y678022D01*
X985762Y677758D01*
X986026Y677581D01*
X986339Y677519D01*
X990669D01*
X990981Y677581D01*
X991246Y677758D01*
X991423Y678022D01*
X991485Y678335D01*
Y679283D01*
X992523D01*
Y678335D01*
X992585Y678022D01*
X992762Y677758D01*
X993026Y677581D01*
X993339Y677519D01*
X994287D01*
Y649119D01*
X970287D01*
X969997Y649497D01*
X969412Y649946D01*
X968731Y650228D01*
X968000Y650324D01*
X967269Y650228D01*
X966588Y649946D01*
X966003Y649497D01*
X965554Y648912D01*
X965272Y648231D01*
X965176Y647500D01*
X965272Y646769D01*
X965554Y646088D01*
X966003Y645503D01*
X966588Y645054D01*
X967269Y644772D01*
X968000Y644676D01*
X968731Y644772D01*
X969412Y645054D01*
X969997Y645503D01*
X970287Y645882D01*
X1306661D01*
X1307088Y645554D01*
X1307769Y645272D01*
X1308500Y645176D01*
X1309231Y645272D01*
X1309912Y645554D01*
X1310497Y646003D01*
X1310946Y646588D01*
X1311228Y647269D01*
X1311324Y648000D01*
X1311228Y648731D01*
X1310946Y649412D01*
X1310497Y649997D01*
X1309912Y650446D01*
X1309231Y650728D01*
X1308500Y650824D01*
X1307769Y650728D01*
X1307088Y650446D01*
X1306503Y649997D01*
X1306054Y649412D01*
X1305933Y649119D01*
X1163721D01*
Y678019D01*
X1164669D01*
X1164981Y678081D01*
X1165246Y678258D01*
X1165423Y678522D01*
X1165485Y678835D01*
Y683165D01*
X1165423Y683477D01*
X1165246Y683742D01*
X1165046Y683876D01*
X1165033Y684162D01*
X1165085Y684406D01*
X1165390Y684610D01*
X1165611Y684940D01*
X1165689Y685331D01*
Y686779D01*
X1197319D01*
Y685831D01*
X1197397Y685440D01*
X1197618Y685110D01*
X1197923Y684906D01*
X1197975Y684662D01*
X1197962Y684376D01*
X1197762Y684242D01*
X1197585Y683978D01*
X1197523Y683665D01*
Y679335D01*
X1197585Y679023D01*
X1197762Y678758D01*
X1198026Y678581D01*
X1198339Y678519D01*
X1199287D01*
Y656118D01*
X1170791D01*
X1170501Y656497D01*
X1169916Y656946D01*
X1169235Y657228D01*
X1168504Y657324D01*
X1167773Y657228D01*
X1167092Y656946D01*
X1166507Y656497D01*
X1166058Y655912D01*
X1165776Y655231D01*
X1165680Y654500D01*
X1165776Y653769D01*
X1166058Y653088D01*
X1166507Y652503D01*
X1167092Y652054D01*
X1167773Y651772D01*
X1168504Y651676D01*
X1169235Y651772D01*
X1169916Y652054D01*
X1170501Y652503D01*
X1170791Y652881D01*
X1411330D01*
X1426856Y637356D01*
X1427381Y637005D01*
X1428000Y636881D01*
X1486713D01*
X1487003Y636503D01*
X1487588Y636054D01*
X1488269Y635772D01*
X1489000Y635676D01*
X1489731Y635772D01*
X1490412Y636054D01*
X1490997Y636503D01*
X1491446Y637088D01*
X1491728Y637769D01*
X1491824Y638500D01*
X1491728Y639231D01*
X1491446Y639912D01*
X1490997Y640497D01*
X1490412Y640946D01*
X1489731Y641228D01*
X1489000Y641324D01*
X1488269Y641228D01*
X1487588Y640946D01*
X1487003Y640497D01*
X1486713Y640119D01*
X1428670D01*
X1413144Y655644D01*
X1412619Y655995D01*
X1412000Y656118D01*
X1328482D01*
X1328383Y656618D01*
X1329013Y656880D01*
X1329640Y657360D01*
X1330120Y657987D01*
X1330423Y658717D01*
X1330460Y659000D01*
X1324540D01*
X1324577Y658717D01*
X1324879Y657987D01*
X1325360Y657360D01*
X1325987Y656880D01*
X1326617Y656618D01*
X1326518Y656118D01*
X1201721D01*
Y678519D01*
X1202669D01*
X1202981Y678581D01*
X1203246Y678758D01*
X1203423Y679023D01*
X1203485Y679335D01*
Y680283D01*
X1204523D01*
Y679335D01*
X1204585Y679023D01*
X1204762Y678758D01*
X1205026Y678581D01*
X1205339Y678519D01*
X1209669D01*
X1209981Y678581D01*
X1210246Y678758D01*
X1210423Y679023D01*
X1210485Y679335D01*
Y683665D01*
X1210423Y683978D01*
X1210246Y684242D01*
X1210046Y684376D01*
X1210033Y684662D01*
X1210085Y684906D01*
X1210390Y685110D01*
X1210611Y685440D01*
X1210689Y685831D01*
Y686381D01*
X1217461D01*
X1217860Y685860D01*
X1218487Y685380D01*
X1219217Y685077D01*
X1219500Y685040D01*
Y688000D01*
Y690960D01*
X1219217Y690923D01*
X1218487Y690621D01*
X1217860Y690140D01*
X1217461Y689618D01*
X1210689D01*
Y690161D01*
X1210611Y690552D01*
X1210390Y690882D01*
X1210060Y691103D01*
X1209669Y691181D01*
X1208004D01*
Y687996D01*
X1207004D01*
Y691181D01*
X1205339D01*
X1204948Y691103D01*
X1204618Y690882D01*
X1204397Y690552D01*
X1204319Y690161D01*
Y688717D01*
X1203689D01*
Y690161D01*
X1203611Y690552D01*
X1203390Y690882D01*
X1203059Y691103D01*
X1202669Y691181D01*
X1201721D01*
Y705500D01*
X1201628Y705966D01*
X1201365Y706361D01*
X1195304Y712421D01*
X1195427Y712717D01*
X1195464Y713000D01*
X1193004D01*
Y710540D01*
X1193287Y710577D01*
X1193583Y710700D01*
X1199287Y704996D01*
Y691181D01*
X1198339D01*
X1197948Y691103D01*
X1197618Y690882D01*
X1197397Y690552D01*
X1197319Y690161D01*
Y689213D01*
X1165689D01*
Y689661D01*
X1165611Y690052D01*
X1165390Y690382D01*
X1165059Y690603D01*
X1164669Y690681D01*
X1163004D01*
Y687496D01*
X1162004D01*
Y690681D01*
X1160339D01*
X1159948Y690603D01*
X1159618Y690382D01*
X1159540Y690266D01*
X1158968D01*
X1158890Y690382D01*
X1158560Y690603D01*
X1158169Y690681D01*
X1158094D01*
X1157521Y691120D01*
X1157225Y691243D01*
Y699000D01*
X1169425Y711200D01*
X1169721Y711077D01*
X1170004Y711040D01*
Y713500D01*
D02*
G37*
G36*
X1430500Y682824D02*
X1429769Y682728D01*
X1429088Y682446D01*
X1428503Y681997D01*
X1428054Y681412D01*
X1427772Y680731D01*
X1427676Y680000D01*
X1427772Y679269D01*
X1428054Y678588D01*
X1428503Y678003D01*
X1429088Y677554D01*
X1429283Y677473D01*
Y661796D01*
X1428769Y661728D01*
X1428088Y661446D01*
X1427503Y660997D01*
X1427054Y660412D01*
X1426772Y659731D01*
X1426676Y659000D01*
X1426772Y658269D01*
X1427054Y657588D01*
X1427503Y657003D01*
X1428088Y656554D01*
X1428769Y656272D01*
X1429500Y656176D01*
X1430231Y656272D01*
X1430912Y656554D01*
X1431497Y657003D01*
X1431946Y657588D01*
X1432228Y658269D01*
X1432324Y659000D01*
X1432228Y659731D01*
X1431946Y660412D01*
X1431717Y660710D01*
Y677473D01*
X1431912Y677554D01*
X1432497Y678003D01*
X1432946Y678588D01*
X1433228Y679269D01*
X1433324Y680000D01*
X1433228Y680731D01*
X1432946Y681412D01*
X1432497Y681997D01*
X1431912Y682446D01*
X1431231Y682728D01*
X1430500Y682824D01*
D02*
G37*
G36*
X1690000Y643324D02*
X1689269Y643228D01*
X1688588Y642946D01*
X1688003Y642497D01*
X1687554Y641912D01*
X1687272Y641231D01*
X1687176Y640500D01*
X1687272Y639769D01*
X1687554Y639088D01*
X1688003Y638503D01*
X1688588Y638054D01*
X1689269Y637772D01*
X1690000Y637676D01*
X1690731Y637772D01*
X1690926Y637853D01*
X1697139Y631639D01*
X1697534Y631376D01*
X1698000Y631283D01*
X1698414Y631365D01*
X1698639Y631139D01*
X1699034Y630876D01*
X1699500Y630783D01*
X1733973D01*
X1734054Y630588D01*
X1734503Y630003D01*
X1735088Y629554D01*
X1735769Y629272D01*
X1736500Y629176D01*
X1737231Y629272D01*
X1737912Y629554D01*
X1738497Y630003D01*
X1738946Y630588D01*
X1739027Y630783D01*
X1770270D01*
X1770272Y630769D01*
X1770554Y630088D01*
X1771003Y629503D01*
X1771588Y629054D01*
X1772269Y628772D01*
X1773000Y628676D01*
X1773731Y628772D01*
X1774412Y629054D01*
X1774997Y629503D01*
X1775446Y630088D01*
X1775728Y630769D01*
X1775730Y630783D01*
X1854973D01*
X1855054Y630588D01*
X1855503Y630003D01*
X1856088Y629554D01*
X1856769Y629272D01*
X1857500Y629176D01*
X1858231Y629272D01*
X1858912Y629554D01*
X1859497Y630003D01*
X1859946Y630588D01*
X1860228Y631269D01*
X1860324Y632000D01*
X1860228Y632731D01*
X1859946Y633412D01*
X1859497Y633997D01*
X1858912Y634446D01*
X1858231Y634728D01*
X1857500Y634824D01*
X1856769Y634728D01*
X1856088Y634446D01*
X1855503Y633997D01*
X1855054Y633412D01*
X1854973Y633217D01*
X1775212D01*
X1774997Y633497D01*
X1774412Y633946D01*
X1773731Y634228D01*
X1773000Y634324D01*
X1772269Y634228D01*
X1771588Y633946D01*
X1771003Y633497D01*
X1770788Y633217D01*
X1739027D01*
X1738946Y633412D01*
X1738497Y633997D01*
X1737912Y634446D01*
X1737231Y634728D01*
X1736500Y634824D01*
X1735769Y634728D01*
X1735088Y634446D01*
X1734503Y633997D01*
X1734054Y633412D01*
X1733973Y633217D01*
X1700004D01*
X1699361Y633861D01*
X1698966Y634124D01*
X1698500Y634217D01*
X1698086Y634135D01*
X1692647Y639574D01*
X1692728Y639769D01*
X1692824Y640500D01*
X1692728Y641231D01*
X1692446Y641912D01*
X1691997Y642497D01*
X1691412Y642946D01*
X1690731Y643228D01*
X1690000Y643324D01*
D02*
G37*
G36*
X1713500Y618960D02*
Y616500D01*
X1715960D01*
X1715923Y616783D01*
X1715620Y617513D01*
X1715140Y618140D01*
X1714513Y618620D01*
X1713783Y618923D01*
X1713500Y618960D01*
D02*
G37*
G36*
X1712500D02*
X1712217Y618923D01*
X1711487Y618620D01*
X1710860Y618140D01*
X1710460Y617619D01*
X1459039D01*
X1458640Y618140D01*
X1458013Y618620D01*
X1457283Y618923D01*
X1457000Y618960D01*
Y616000D01*
Y613040D01*
X1457283Y613077D01*
X1458013Y613379D01*
X1458640Y613860D01*
X1459039Y614382D01*
X1710460D01*
X1710860Y613860D01*
X1711487Y613379D01*
X1712217Y613077D01*
X1712500Y613040D01*
Y616000D01*
Y618960D01*
D02*
G37*
G36*
X973504Y683324D02*
X972773Y683228D01*
X972092Y682946D01*
X971507Y682497D01*
X971058Y681912D01*
X970776Y681231D01*
X970680Y680500D01*
X970776Y679769D01*
X971058Y679088D01*
X971507Y678503D01*
X972092Y678054D01*
X972287Y677973D01*
Y659230D01*
X972269Y659228D01*
X971588Y658946D01*
X971003Y658497D01*
X970554Y657912D01*
X970272Y657231D01*
X970176Y656500D01*
X970272Y655769D01*
X970554Y655088D01*
X971003Y654503D01*
X971588Y654054D01*
X972269Y653772D01*
X973000Y653676D01*
X973731Y653772D01*
X974412Y654054D01*
X974997Y654503D01*
X975446Y655088D01*
X975728Y655769D01*
X975824Y656500D01*
X975728Y657231D01*
X975446Y657912D01*
X974997Y658497D01*
X974721Y658709D01*
Y677973D01*
X974916Y678054D01*
X975501Y678503D01*
X975950Y679088D01*
X976232Y679769D01*
X976328Y680500D01*
X976232Y681231D01*
X975950Y681912D01*
X975501Y682497D01*
X974916Y682946D01*
X974235Y683228D01*
X973504Y683324D01*
D02*
G37*
G36*
X1598000Y632824D02*
X1597269Y632728D01*
X1596588Y632446D01*
X1596003Y631997D01*
X1595554Y631412D01*
X1595473Y631217D01*
X1516027D01*
X1515946Y631412D01*
X1515497Y631997D01*
X1514912Y632446D01*
X1514231Y632728D01*
X1513500Y632824D01*
X1512769Y632728D01*
X1512088Y632446D01*
X1511503Y631997D01*
X1511054Y631412D01*
X1510973Y631217D01*
X1478712D01*
X1478497Y631497D01*
X1477912Y631946D01*
X1477231Y632228D01*
X1476500Y632324D01*
X1475769Y632228D01*
X1475088Y631946D01*
X1474503Y631497D01*
X1474054Y630912D01*
X1473973Y630717D01*
X1433527D01*
X1433446Y630912D01*
X1432997Y631497D01*
X1432412Y631946D01*
X1431731Y632228D01*
X1431000Y632324D01*
X1430269Y632228D01*
X1429588Y631946D01*
X1429003Y631497D01*
X1428554Y630912D01*
X1428272Y630231D01*
X1428176Y629500D01*
X1428272Y628769D01*
X1428554Y628088D01*
X1429003Y627503D01*
X1429588Y627054D01*
X1430269Y626772D01*
X1431000Y626676D01*
X1431731Y626772D01*
X1432412Y627054D01*
X1432997Y627503D01*
X1433446Y628088D01*
X1433527Y628283D01*
X1473973D01*
X1474054Y628088D01*
X1474503Y627503D01*
X1475088Y627054D01*
X1475769Y626772D01*
X1476500Y626676D01*
X1477231Y626772D01*
X1477912Y627054D01*
X1478497Y627503D01*
X1478946Y628088D01*
X1479228Y628769D01*
X1479230Y628783D01*
X1510973D01*
X1511054Y628588D01*
X1511503Y628003D01*
X1512088Y627554D01*
X1512769Y627272D01*
X1513500Y627176D01*
X1514231Y627272D01*
X1514912Y627554D01*
X1515497Y628003D01*
X1515946Y628588D01*
X1516027Y628783D01*
X1595473D01*
X1595554Y628588D01*
X1596003Y628003D01*
X1596588Y627554D01*
X1597269Y627272D01*
X1598000Y627176D01*
X1598731Y627272D01*
X1599412Y627554D01*
X1599997Y628003D01*
X1600446Y628588D01*
X1600728Y629269D01*
X1600824Y630000D01*
X1600728Y630731D01*
X1600446Y631412D01*
X1599997Y631997D01*
X1599412Y632446D01*
X1598731Y632728D01*
X1598000Y632824D01*
D02*
G37*
G36*
X1107752Y715460D02*
Y713000D01*
X1110212D01*
X1110175Y713283D01*
X1109873Y714013D01*
X1109392Y714640D01*
X1108765Y715121D01*
X1108035Y715423D01*
X1107752Y715460D01*
D02*
G37*
G36*
X1485000Y752500D02*
X1482540D01*
X1482577Y752217D01*
X1482880Y751487D01*
X1483360Y750860D01*
X1483987Y750380D01*
X1484717Y750077D01*
X1485000Y750040D01*
Y752500D01*
D02*
G37*
G36*
X1900072Y754196D02*
X1897612D01*
X1897650Y753913D01*
X1897952Y753183D01*
X1898433Y752556D01*
X1899059Y752076D01*
X1899789Y751773D01*
X1900072Y751736D01*
Y754196D01*
D02*
G37*
G36*
X1600100Y751696D02*
X1597640D01*
X1597677Y751413D01*
X1597980Y750683D01*
X1598460Y750056D01*
X1599087Y749576D01*
X1599817Y749273D01*
X1600100Y749236D01*
Y751696D01*
D02*
G37*
G36*
X1750100D02*
X1747640D01*
X1747677Y751413D01*
X1747980Y750683D01*
X1748460Y750056D01*
X1749087Y749576D01*
X1749817Y749273D01*
X1750100Y749236D01*
Y751696D01*
D02*
G37*
G36*
X1015290Y755381D02*
X1013624D01*
Y752196D01*
X1012624D01*
Y755381D01*
X1010959D01*
X1010569Y755303D01*
X1010238Y755082D01*
X1010017Y754752D01*
X1009939Y754361D01*
Y753413D01*
X1008315D01*
X1008193Y753709D01*
X1007712Y754336D01*
X1007085Y754817D01*
X1006356Y755119D01*
X1006072Y755156D01*
Y752196D01*
Y749236D01*
X1006356Y749273D01*
X1007085Y749576D01*
X1007712Y750056D01*
X1008193Y750683D01*
X1008315Y750979D01*
X1009939D01*
Y750031D01*
X1010017Y749641D01*
X1010238Y749310D01*
X1010569Y749089D01*
X1010959Y749011D01*
X1011907D01*
Y747381D01*
X1010959D01*
X1010569Y747303D01*
X1010238Y747082D01*
X1010017Y746752D01*
X1009939Y746361D01*
Y744696D01*
X1013124D01*
Y744196D01*
X1013624D01*
Y741011D01*
X1014588D01*
X1017460Y738139D01*
X1017855Y737876D01*
X1018320Y737783D01*
X1058277D01*
X1058399Y737487D01*
X1058880Y736860D01*
X1059507Y736379D01*
X1060236Y736077D01*
X1060520Y736040D01*
Y739000D01*
Y741960D01*
X1060236Y741923D01*
X1059507Y741620D01*
X1058880Y741140D01*
X1058399Y740513D01*
X1058277Y740217D01*
X1018825D01*
X1018289Y740753D01*
X1018480Y741215D01*
X1021786D01*
X1022098Y741277D01*
X1022363Y741454D01*
X1022539Y741719D01*
X1022602Y742031D01*
Y746361D01*
X1022539Y746673D01*
X1022363Y746938D01*
X1022098Y747115D01*
X1021786Y747177D01*
X1020838D01*
Y749215D01*
X1021786D01*
X1022098Y749277D01*
X1022363Y749454D01*
X1022539Y749719D01*
X1022602Y750031D01*
Y750979D01*
X1023446D01*
X1023527Y750784D01*
X1023975Y750199D01*
X1024560Y749750D01*
X1025241Y749468D01*
X1025972Y749372D01*
X1026703Y749468D01*
X1027384Y749750D01*
X1027969Y750199D01*
X1028418Y750784D01*
X1028700Y751465D01*
X1028797Y752196D01*
X1028700Y752927D01*
X1028418Y753608D01*
X1027969Y754193D01*
X1027384Y754642D01*
X1026703Y754924D01*
X1025972Y755020D01*
X1025241Y754924D01*
X1024560Y754642D01*
X1023975Y754193D01*
X1023527Y753608D01*
X1023446Y753413D01*
X1022602D01*
Y754361D01*
X1022539Y754673D01*
X1022363Y754938D01*
X1022098Y755115D01*
X1021786Y755177D01*
X1017455D01*
X1017143Y755115D01*
X1016878Y754938D01*
X1016744Y754738D01*
X1016458Y754725D01*
X1016215Y754777D01*
X1016011Y755082D01*
X1015680Y755303D01*
X1015290Y755381D01*
D02*
G37*
G36*
X1760317D02*
X1758652D01*
Y752196D01*
X1757652D01*
Y755381D01*
X1755987D01*
X1755596Y755303D01*
X1755266Y755082D01*
X1755045Y754752D01*
X1754967Y754361D01*
Y753413D01*
X1753343D01*
X1753221Y753709D01*
X1752740Y754336D01*
X1752113Y754817D01*
X1751383Y755119D01*
X1751100Y755156D01*
Y752196D01*
Y749236D01*
X1751383Y749273D01*
X1752113Y749576D01*
X1752740Y750056D01*
X1753221Y750683D01*
X1753343Y750979D01*
X1754967D01*
Y750031D01*
X1755045Y749641D01*
X1755266Y749310D01*
X1755596Y749089D01*
X1755987Y749011D01*
X1756935D01*
Y747381D01*
X1755987D01*
X1755596Y747303D01*
X1755266Y747082D01*
X1755045Y746752D01*
X1754967Y746361D01*
Y744696D01*
X1758152D01*
Y744196D01*
X1758652D01*
Y741011D01*
X1759616D01*
X1762487Y738139D01*
X1762882Y737876D01*
X1763348Y737783D01*
X1803257D01*
X1803379Y737487D01*
X1803860Y736860D01*
X1804487Y736379D01*
X1804783Y736257D01*
Y715500D01*
X1804083Y714800D01*
X1803787Y714923D01*
X1803504Y714960D01*
Y712500D01*
X1805964D01*
X1805927Y712783D01*
X1805804Y713079D01*
X1806908Y714183D01*
X1807172Y714577D01*
X1807264Y715043D01*
X1807217Y715281D01*
Y736257D01*
X1807513Y736379D01*
X1808140Y736860D01*
X1808620Y737487D01*
X1808923Y738217D01*
X1808960Y738500D01*
X1806000D01*
Y739000D01*
X1805500D01*
Y741960D01*
X1805217Y741923D01*
X1804487Y741620D01*
X1803860Y741140D01*
X1803379Y740513D01*
X1803257Y740217D01*
X1763852D01*
X1763316Y740753D01*
X1763507Y741215D01*
X1766813D01*
X1767126Y741277D01*
X1767390Y741454D01*
X1767567Y741719D01*
X1767629Y742031D01*
Y746361D01*
X1767567Y746673D01*
X1767390Y746938D01*
X1767126Y747115D01*
X1766813Y747177D01*
X1765865D01*
Y749215D01*
X1766813D01*
X1767126Y749277D01*
X1767390Y749454D01*
X1767567Y749719D01*
X1767629Y750031D01*
Y750979D01*
X1768473D01*
X1768554Y750784D01*
X1769003Y750199D01*
X1769588Y749750D01*
X1770269Y749468D01*
X1771000Y749372D01*
X1771731Y749468D01*
X1772412Y749750D01*
X1772997Y750199D01*
X1773446Y750784D01*
X1773728Y751465D01*
X1773824Y752196D01*
X1773728Y752927D01*
X1773446Y753608D01*
X1772997Y754193D01*
X1772412Y754642D01*
X1771731Y754924D01*
X1771000Y755020D01*
X1770269Y754924D01*
X1769588Y754642D01*
X1769003Y754193D01*
X1768554Y753608D01*
X1768473Y753413D01*
X1767629D01*
Y754361D01*
X1767567Y754673D01*
X1767390Y754938D01*
X1767126Y755115D01*
X1766813Y755177D01*
X1762483D01*
X1762170Y755115D01*
X1761906Y754938D01*
X1761772Y754738D01*
X1761486Y754725D01*
X1761242Y754777D01*
X1761038Y755082D01*
X1760707Y755303D01*
X1760317Y755381D01*
D02*
G37*
G36*
X1539000Y754748D02*
X1536540D01*
X1536577Y754465D01*
X1536880Y753735D01*
X1537360Y753108D01*
X1537987Y752628D01*
X1538717Y752325D01*
X1539000Y752288D01*
Y754748D01*
D02*
G37*
G36*
X1610317Y755381D02*
X1608652D01*
Y752196D01*
X1607652D01*
Y755381D01*
X1605987D01*
X1605596Y755303D01*
X1605266Y755082D01*
X1605045Y754752D01*
X1604967Y754361D01*
Y753413D01*
X1603343D01*
X1603221Y753709D01*
X1602740Y754336D01*
X1602113Y754817D01*
X1601383Y755119D01*
X1601100Y755156D01*
Y752196D01*
Y749236D01*
X1601383Y749273D01*
X1602113Y749576D01*
X1602740Y750056D01*
X1603221Y750683D01*
X1603343Y750979D01*
X1604967D01*
Y750031D01*
X1605045Y749641D01*
X1605266Y749310D01*
X1605596Y749089D01*
X1605987Y749011D01*
X1606935D01*
Y747381D01*
X1605987D01*
X1605596Y747303D01*
X1605266Y747082D01*
X1605045Y746752D01*
X1604967Y746361D01*
Y744696D01*
X1608152D01*
Y744196D01*
X1608652D01*
Y741011D01*
X1609616D01*
X1612487Y738139D01*
X1612882Y737876D01*
X1613348Y737783D01*
X1653304D01*
X1653427Y737487D01*
X1653908Y736860D01*
X1654534Y736379D01*
X1654830Y736257D01*
Y720051D01*
X1650579Y715800D01*
X1650283Y715923D01*
X1650000Y715960D01*
Y713500D01*
X1652460D01*
X1652423Y713783D01*
X1652300Y714079D01*
X1656908Y718687D01*
X1657172Y719081D01*
X1657264Y719547D01*
Y736257D01*
X1657560Y736379D01*
X1658187Y736860D01*
X1658668Y737487D01*
X1658970Y738217D01*
X1659007Y738500D01*
X1656047D01*
Y739000D01*
X1655547D01*
Y741960D01*
X1655264Y741923D01*
X1654534Y741620D01*
X1653908Y741140D01*
X1653427Y740513D01*
X1653304Y740217D01*
X1613852D01*
X1613316Y740753D01*
X1613507Y741215D01*
X1616813D01*
X1617126Y741277D01*
X1617390Y741454D01*
X1617567Y741719D01*
X1617629Y742031D01*
Y746361D01*
X1617567Y746673D01*
X1617390Y746938D01*
X1617126Y747115D01*
X1616813Y747177D01*
X1615865D01*
Y749215D01*
X1616813D01*
X1617126Y749277D01*
X1617390Y749454D01*
X1617567Y749719D01*
X1617629Y750031D01*
Y750979D01*
X1618473D01*
X1618554Y750784D01*
X1619003Y750199D01*
X1619588Y749750D01*
X1620269Y749468D01*
X1621000Y749372D01*
X1621731Y749468D01*
X1622412Y749750D01*
X1622997Y750199D01*
X1623446Y750784D01*
X1623728Y751465D01*
X1623824Y752196D01*
X1623728Y752927D01*
X1623446Y753608D01*
X1622997Y754193D01*
X1622412Y754642D01*
X1621731Y754924D01*
X1621000Y755020D01*
X1620269Y754924D01*
X1619588Y754642D01*
X1619003Y754193D01*
X1618554Y753608D01*
X1618473Y753413D01*
X1617629D01*
Y754361D01*
X1617567Y754673D01*
X1617390Y754938D01*
X1617126Y755115D01*
X1616813Y755177D01*
X1612483D01*
X1612170Y755115D01*
X1611906Y754938D01*
X1611772Y754738D01*
X1611486Y754725D01*
X1611242Y754777D01*
X1611038Y755082D01*
X1610707Y755303D01*
X1610317Y755381D01*
D02*
G37*
G36*
X1161817D02*
X1160152D01*
Y752196D01*
X1159152D01*
Y755381D01*
X1157487D01*
X1157096Y755303D01*
X1156766Y755082D01*
X1156545Y754752D01*
X1156467Y754361D01*
Y753413D01*
X1154843D01*
X1154720Y753709D01*
X1154240Y754336D01*
X1153613Y754817D01*
X1152883Y755119D01*
X1152600Y755156D01*
Y752196D01*
Y749236D01*
X1152883Y749273D01*
X1153613Y749576D01*
X1154240Y750056D01*
X1154720Y750683D01*
X1154843Y750979D01*
X1156467D01*
Y750031D01*
X1156545Y749641D01*
X1156766Y749310D01*
X1157096Y749089D01*
X1157487Y749011D01*
X1158435D01*
Y747381D01*
X1157487D01*
X1157096Y747303D01*
X1156766Y747082D01*
X1156545Y746752D01*
X1156467Y746361D01*
Y744696D01*
X1159652D01*
Y744196D01*
X1160152D01*
Y741011D01*
X1161116D01*
X1163987Y738139D01*
X1164382Y737876D01*
X1164848Y737783D01*
X1204804D01*
X1204927Y737487D01*
X1205408Y736860D01*
X1206034Y736379D01*
X1206764Y736077D01*
X1207047Y736040D01*
Y739000D01*
Y741960D01*
X1206764Y741923D01*
X1206034Y741620D01*
X1205408Y741140D01*
X1204927Y740513D01*
X1204804Y740217D01*
X1165352D01*
X1164816Y740753D01*
X1165007Y741215D01*
X1168313D01*
X1168626Y741277D01*
X1168890Y741454D01*
X1169067Y741719D01*
X1169129Y742031D01*
Y746361D01*
X1169067Y746673D01*
X1168890Y746938D01*
X1168626Y747115D01*
X1168313Y747177D01*
X1167365D01*
Y749215D01*
X1168313D01*
X1168626Y749277D01*
X1168890Y749454D01*
X1169067Y749719D01*
X1169129Y750031D01*
Y750979D01*
X1169973D01*
X1170054Y750784D01*
X1170503Y750199D01*
X1171088Y749750D01*
X1171769Y749468D01*
X1172500Y749372D01*
X1173231Y749468D01*
X1173912Y749750D01*
X1174497Y750199D01*
X1174946Y750784D01*
X1175228Y751465D01*
X1175324Y752196D01*
X1175228Y752927D01*
X1174946Y753608D01*
X1174497Y754193D01*
X1173912Y754642D01*
X1173231Y754924D01*
X1172500Y755020D01*
X1171769Y754924D01*
X1171088Y754642D01*
X1170503Y754193D01*
X1170054Y753608D01*
X1169973Y753413D01*
X1169129D01*
Y754361D01*
X1169067Y754673D01*
X1168890Y754938D01*
X1168626Y755115D01*
X1168313Y755177D01*
X1163983D01*
X1163671Y755115D01*
X1163406Y754938D01*
X1163272Y754738D01*
X1162986Y754725D01*
X1162743Y754777D01*
X1162538Y755082D01*
X1162208Y755303D01*
X1161817Y755381D01*
D02*
G37*
G36*
X1151600Y751696D02*
X1149140D01*
X1149177Y751413D01*
X1149479Y750683D01*
X1149960Y750056D01*
X1150587Y749576D01*
X1151317Y749273D01*
X1151600Y749236D01*
Y751696D01*
D02*
G37*
G36*
X1607652Y743696D02*
X1604967D01*
Y742031D01*
X1605045Y741641D01*
X1605266Y741310D01*
X1605596Y741089D01*
X1605987Y741011D01*
X1607652D01*
Y743696D01*
D02*
G37*
G36*
X1757652D02*
X1754967D01*
Y742031D01*
X1755045Y741641D01*
X1755266Y741310D01*
X1755596Y741089D01*
X1755987Y741011D01*
X1757652D01*
Y743696D01*
D02*
G37*
G36*
X1012624D02*
X1009939D01*
Y742031D01*
X1010017Y741641D01*
X1010238Y741310D01*
X1010569Y741089D01*
X1010959Y741011D01*
X1012624D01*
Y743696D01*
D02*
G37*
G36*
X1159152D02*
X1156467D01*
Y742031D01*
X1156545Y741641D01*
X1156766Y741310D01*
X1157096Y741089D01*
X1157487Y741011D01*
X1159152D01*
Y743696D01*
D02*
G37*
G36*
X1956520Y744460D02*
Y742000D01*
X1958980D01*
X1958942Y742283D01*
X1958640Y743013D01*
X1958159Y743640D01*
X1957533Y744121D01*
X1956803Y744423D01*
X1956520Y744460D01*
D02*
G37*
G36*
X854572Y751696D02*
X852112D01*
X852150Y751413D01*
X852452Y750683D01*
X852933Y750056D01*
X853559Y749576D01*
X854289Y749273D01*
X854572Y749236D01*
Y751696D01*
D02*
G37*
G36*
X1005072D02*
X1002612D01*
X1002650Y751413D01*
X1002952Y750683D01*
X1003433Y750056D01*
X1004060Y749576D01*
X1004789Y749273D01*
X1005072Y749236D01*
Y751696D01*
D02*
G37*
G36*
X1991059Y745657D02*
X1989000D01*
Y742973D01*
X1992079D01*
Y744638D01*
X1992001Y745028D01*
X1991780Y745359D01*
X1991449Y745580D01*
X1991059Y745657D01*
D02*
G37*
G36*
X1907625Y746196D02*
X1904939D01*
Y744531D01*
X1905017Y744140D01*
X1905238Y743810D01*
X1905569Y743589D01*
X1905959Y743511D01*
X1907625D01*
Y746196D01*
D02*
G37*
G36*
X854572Y755156D02*
X854289Y755119D01*
X853559Y754817D01*
X852933Y754336D01*
X852452Y753709D01*
X852150Y752979D01*
X852112Y752696D01*
X854572D01*
Y755156D01*
D02*
G37*
G36*
X1228028Y760824D02*
X1227297Y760728D01*
X1226616Y760446D01*
X1226031Y759997D01*
X1225582Y759412D01*
X1225300Y758731D01*
X1225203Y758000D01*
X1225300Y757269D01*
X1225336Y757182D01*
X1220590Y752437D01*
X1220303Y752007D01*
X1220202Y751500D01*
Y750477D01*
X1219362D01*
X1219050Y750415D01*
X1218785Y750238D01*
X1218609Y749973D01*
X1218546Y749661D01*
Y745331D01*
X1218609Y745019D01*
X1218785Y744754D01*
X1218986Y744620D01*
X1218999Y744334D01*
X1218947Y744091D01*
X1218641Y743886D01*
X1218420Y743555D01*
X1218343Y743165D01*
Y741500D01*
X1221527D01*
Y741000D01*
X1222027D01*
Y737815D01*
X1223693D01*
X1224083Y737893D01*
X1224414Y738114D01*
X1224635Y738445D01*
X1224681Y738674D01*
X1226875D01*
X1226920Y738445D01*
X1227141Y738114D01*
X1227472Y737893D01*
X1227862Y737815D01*
X1229527D01*
Y741000D01*
X1230527D01*
Y737815D01*
X1232193D01*
X1232583Y737893D01*
X1232914Y738114D01*
X1233135Y738445D01*
X1233181Y738674D01*
X1236449D01*
Y737807D01*
X1236526Y737417D01*
X1236748Y737086D01*
X1237078Y736865D01*
X1237469Y736788D01*
X1239528D01*
Y739972D01*
Y743157D01*
X1237469D01*
X1237078Y743080D01*
X1236748Y742859D01*
X1236526Y742528D01*
X1236449Y742138D01*
Y741326D01*
X1233212D01*
Y743165D01*
X1233135Y743555D01*
X1232914Y743886D01*
X1232608Y744091D01*
X1232557Y744334D01*
X1232569Y744620D01*
X1232770Y744754D01*
X1232946Y745019D01*
X1233009Y745331D01*
Y746171D01*
X1237064D01*
X1237156Y746109D01*
X1237469Y746046D01*
X1242587D01*
X1242899Y746109D01*
X1243163Y746285D01*
X1243340Y746550D01*
X1243402Y746862D01*
Y751193D01*
X1243340Y751505D01*
X1243163Y751770D01*
X1242899Y751946D01*
X1242587Y752009D01*
X1237469D01*
X1237156Y751946D01*
X1236892Y751770D01*
X1236715Y751505D01*
X1236653Y751193D01*
Y748821D01*
X1233009D01*
Y749661D01*
X1232946Y749973D01*
X1232770Y750238D01*
X1232505Y750415D01*
X1232193Y750477D01*
X1227862D01*
X1227550Y750415D01*
X1227285Y750238D01*
X1227109Y749973D01*
X1227046Y749661D01*
Y748821D01*
X1224509D01*
Y749661D01*
X1224446Y749973D01*
X1224270Y750238D01*
X1224005Y750415D01*
X1223693Y750477D01*
X1222916D01*
X1222879Y750977D01*
X1227210Y755308D01*
X1227297Y755272D01*
X1228028Y755176D01*
X1228759Y755272D01*
X1229440Y755554D01*
X1230025Y756003D01*
X1230473Y756588D01*
X1230756Y757269D01*
X1230852Y758000D01*
X1230756Y758731D01*
X1230473Y759412D01*
X1230025Y759997D01*
X1229440Y760446D01*
X1228759Y760728D01*
X1228028Y760824D01*
D02*
G37*
G36*
X1676528D02*
X1675797Y760728D01*
X1675116Y760446D01*
X1674531Y759997D01*
X1674082Y759412D01*
X1673800Y758731D01*
X1673703Y758000D01*
X1673800Y757269D01*
X1673836Y757182D01*
X1669090Y752437D01*
X1668803Y752007D01*
X1668702Y751500D01*
Y750477D01*
X1667862D01*
X1667550Y750415D01*
X1667285Y750238D01*
X1667109Y749973D01*
X1667047Y749661D01*
Y745331D01*
X1667109Y745019D01*
X1667285Y744754D01*
X1667486Y744620D01*
X1667499Y744334D01*
X1667447Y744091D01*
X1667141Y743886D01*
X1666920Y743555D01*
X1666843Y743165D01*
Y741500D01*
X1670028D01*
Y741000D01*
X1670527D01*
Y737815D01*
X1672193D01*
X1672583Y737893D01*
X1672914Y738114D01*
X1673135Y738445D01*
X1673181Y738674D01*
X1675374D01*
X1675420Y738445D01*
X1675641Y738114D01*
X1675972Y737893D01*
X1676362Y737815D01*
X1678028D01*
Y741000D01*
X1679028D01*
Y737815D01*
X1680693D01*
X1681083Y737893D01*
X1681414Y738114D01*
X1681635Y738445D01*
X1681681Y738674D01*
X1684949D01*
Y737807D01*
X1685027Y737417D01*
X1685248Y737086D01*
X1685578Y736865D01*
X1685969Y736788D01*
X1688028D01*
Y739972D01*
Y743157D01*
X1685969D01*
X1685578Y743080D01*
X1685248Y742859D01*
X1685027Y742528D01*
X1684949Y742138D01*
Y741326D01*
X1681713D01*
Y743165D01*
X1681635Y743555D01*
X1681414Y743886D01*
X1681108Y744091D01*
X1681057Y744334D01*
X1681069Y744620D01*
X1681270Y744754D01*
X1681446Y745019D01*
X1681509Y745331D01*
Y746171D01*
X1685564D01*
X1685656Y746109D01*
X1685969Y746046D01*
X1689634D01*
X1699174Y736506D01*
Y723549D01*
X1676818Y701192D01*
X1676731Y701228D01*
X1676000Y701324D01*
X1675269Y701228D01*
X1674588Y700946D01*
X1674003Y700497D01*
X1673554Y699912D01*
X1673272Y699231D01*
X1673176Y698500D01*
X1673272Y697769D01*
X1673554Y697088D01*
X1674003Y696503D01*
X1674588Y696054D01*
X1675269Y695772D01*
X1676000Y695676D01*
X1676731Y695772D01*
X1677412Y696054D01*
X1677997Y696503D01*
X1678446Y697088D01*
X1678728Y697769D01*
X1678824Y698500D01*
X1678728Y699231D01*
X1678692Y699318D01*
X1701437Y722063D01*
X1701725Y722493D01*
X1701826Y723000D01*
Y737055D01*
X1701725Y737562D01*
X1701437Y737992D01*
X1691902Y747527D01*
Y751193D01*
X1691840Y751505D01*
X1691663Y751770D01*
X1691399Y751946D01*
X1691087Y752009D01*
X1685969D01*
X1685656Y751946D01*
X1685392Y751770D01*
X1685215Y751505D01*
X1685153Y751193D01*
Y748821D01*
X1681509D01*
Y749661D01*
X1681446Y749973D01*
X1681270Y750238D01*
X1681005Y750415D01*
X1680693Y750477D01*
X1676362D01*
X1676050Y750415D01*
X1675785Y750238D01*
X1675609Y749973D01*
X1675546Y749661D01*
Y748821D01*
X1673009D01*
Y749661D01*
X1672947Y749973D01*
X1672770Y750238D01*
X1672505Y750415D01*
X1672193Y750477D01*
X1671416D01*
X1671379Y750977D01*
X1675710Y755308D01*
X1675797Y755272D01*
X1676528Y755176D01*
X1677258Y755272D01*
X1677940Y755554D01*
X1678525Y756003D01*
X1678973Y756588D01*
X1679255Y757269D01*
X1679352Y758000D01*
X1679255Y758731D01*
X1678973Y759412D01*
X1678525Y759997D01*
X1677940Y760446D01*
X1677258Y760728D01*
X1676528Y760824D01*
D02*
G37*
G36*
X931000D02*
X930269Y760728D01*
X929588Y760446D01*
X929003Y759997D01*
X928554Y759412D01*
X928272Y758731D01*
X928176Y758000D01*
X928272Y757269D01*
X928308Y757182D01*
X923563Y752437D01*
X923275Y752007D01*
X923174Y751500D01*
Y750477D01*
X922335D01*
X922023Y750415D01*
X921758Y750238D01*
X921581Y749973D01*
X921519Y749661D01*
Y745331D01*
X921581Y745019D01*
X921758Y744754D01*
X921959Y744620D01*
X921971Y744334D01*
X921919Y744091D01*
X921614Y743886D01*
X921393Y743555D01*
X921315Y743165D01*
Y741500D01*
X924500D01*
Y741000D01*
X925000D01*
Y737815D01*
X926665D01*
X927055Y737893D01*
X927386Y738114D01*
X927607Y738445D01*
X927653Y738674D01*
X929847D01*
X929893Y738445D01*
X930114Y738114D01*
X930445Y737893D01*
X930835Y737815D01*
X932500D01*
Y741000D01*
X933500D01*
Y737815D01*
X935165D01*
X935555Y737893D01*
X935886Y738114D01*
X936107Y738445D01*
X936153Y738674D01*
X939421D01*
Y737807D01*
X939499Y737417D01*
X939720Y737086D01*
X940051Y736865D01*
X940441Y736788D01*
X942500D01*
Y739972D01*
Y743157D01*
X940441D01*
X940051Y743080D01*
X939720Y742859D01*
X939499Y742528D01*
X939421Y742138D01*
Y741326D01*
X936185D01*
Y743165D01*
X936107Y743555D01*
X935886Y743886D01*
X935581Y744091D01*
X935529Y744334D01*
X935542Y744620D01*
X935742Y744754D01*
X935919Y745019D01*
X935981Y745331D01*
Y746171D01*
X940036D01*
X940129Y746109D01*
X940441Y746046D01*
X945559D01*
X945871Y746109D01*
X946136Y746285D01*
X946313Y746550D01*
X946375Y746862D01*
Y751193D01*
X946313Y751505D01*
X946136Y751770D01*
X945871Y751946D01*
X945559Y752009D01*
X940441D01*
X940129Y751946D01*
X939864Y751770D01*
X939687Y751505D01*
X939625Y751193D01*
Y748821D01*
X935981D01*
Y749661D01*
X935919Y749973D01*
X935742Y750238D01*
X935478Y750415D01*
X935165Y750477D01*
X930835D01*
X930523Y750415D01*
X930258Y750238D01*
X930081Y749973D01*
X930019Y749661D01*
Y748821D01*
X927481D01*
Y749661D01*
X927419Y749973D01*
X927242Y750238D01*
X926978Y750415D01*
X926665Y750477D01*
X925889D01*
X925852Y750977D01*
X930182Y755308D01*
X930269Y755272D01*
X931000Y755176D01*
X931731Y755272D01*
X932412Y755554D01*
X932997Y756003D01*
X933446Y756588D01*
X933728Y757269D01*
X933824Y758000D01*
X933728Y758731D01*
X933446Y759412D01*
X932997Y759997D01*
X932412Y760446D01*
X931731Y760728D01*
X931000Y760824D01*
D02*
G37*
G36*
X1081500D02*
X1080769Y760728D01*
X1080088Y760446D01*
X1079503Y759997D01*
X1079054Y759412D01*
X1078772Y758731D01*
X1078676Y758000D01*
X1078772Y757269D01*
X1078808Y757182D01*
X1074063Y752437D01*
X1073775Y752007D01*
X1073674Y751500D01*
Y750477D01*
X1072835D01*
X1072523Y750415D01*
X1072258Y750238D01*
X1072081Y749973D01*
X1072019Y749661D01*
Y745331D01*
X1072081Y745019D01*
X1072258Y744754D01*
X1072458Y744620D01*
X1072471Y744334D01*
X1072419Y744091D01*
X1072114Y743886D01*
X1071893Y743555D01*
X1071815Y743165D01*
Y741500D01*
X1075000D01*
Y741000D01*
X1075500D01*
Y737815D01*
X1077165D01*
X1077555Y737893D01*
X1077886Y738114D01*
X1078107Y738445D01*
X1078153Y738674D01*
X1080347D01*
X1080393Y738445D01*
X1080614Y738114D01*
X1080945Y737893D01*
X1081335Y737815D01*
X1083000D01*
Y741000D01*
X1084000D01*
Y737815D01*
X1085665D01*
X1086055Y737893D01*
X1086386Y738114D01*
X1086607Y738445D01*
X1086653Y738674D01*
X1089921D01*
Y737807D01*
X1089999Y737417D01*
X1090220Y737086D01*
X1090551Y736865D01*
X1090941Y736788D01*
X1093000D01*
Y739972D01*
Y743157D01*
X1090941D01*
X1090551Y743080D01*
X1090220Y742859D01*
X1089999Y742528D01*
X1089921Y742138D01*
Y741326D01*
X1086685D01*
Y743165D01*
X1086607Y743555D01*
X1086386Y743886D01*
X1086081Y744091D01*
X1086029Y744334D01*
X1086042Y744620D01*
X1086242Y744754D01*
X1086419Y745019D01*
X1086481Y745331D01*
Y746171D01*
X1090536D01*
X1090629Y746109D01*
X1090941Y746046D01*
X1096059D01*
X1096371Y746109D01*
X1096636Y746285D01*
X1096813Y746550D01*
X1096875Y746862D01*
Y751193D01*
X1096813Y751505D01*
X1096636Y751770D01*
X1096371Y751946D01*
X1096059Y752009D01*
X1090941D01*
X1090629Y751946D01*
X1090364Y751770D01*
X1090187Y751505D01*
X1090125Y751193D01*
Y748821D01*
X1086481D01*
Y749661D01*
X1086419Y749973D01*
X1086242Y750238D01*
X1085977Y750415D01*
X1085665Y750477D01*
X1081335D01*
X1081022Y750415D01*
X1080758Y750238D01*
X1080581Y749973D01*
X1080519Y749661D01*
Y748821D01*
X1077981D01*
Y749661D01*
X1077919Y749973D01*
X1077742Y750238D01*
X1077477Y750415D01*
X1077165Y750477D01*
X1076388D01*
X1076352Y750977D01*
X1080682Y755308D01*
X1080769Y755272D01*
X1081500Y755176D01*
X1082231Y755272D01*
X1082912Y755554D01*
X1083497Y756003D01*
X1083946Y756588D01*
X1084228Y757269D01*
X1084324Y758000D01*
X1084228Y758731D01*
X1083946Y759412D01*
X1083497Y759997D01*
X1082912Y760446D01*
X1082231Y760728D01*
X1081500Y760824D01*
D02*
G37*
G36*
X1826528D02*
X1825797Y760728D01*
X1825116Y760446D01*
X1824531Y759997D01*
X1824082Y759412D01*
X1823800Y758731D01*
X1823703Y758000D01*
X1823800Y757269D01*
X1823836Y757182D01*
X1819090Y752437D01*
X1818803Y752007D01*
X1818702Y751500D01*
Y750477D01*
X1817862D01*
X1817550Y750415D01*
X1817285Y750238D01*
X1817109Y749973D01*
X1817047Y749661D01*
Y745331D01*
X1817109Y745019D01*
X1817285Y744754D01*
X1817486Y744620D01*
X1817499Y744334D01*
X1817447Y744091D01*
X1817141Y743886D01*
X1816920Y743555D01*
X1816843Y743165D01*
Y741500D01*
X1820028D01*
Y741000D01*
X1820527D01*
Y737815D01*
X1822193D01*
X1822583Y737893D01*
X1822914Y738114D01*
X1823135Y738445D01*
X1823181Y738674D01*
X1825374D01*
X1825420Y738445D01*
X1825641Y738114D01*
X1825972Y737893D01*
X1826362Y737815D01*
X1828028D01*
Y741000D01*
X1829028D01*
Y737815D01*
X1830693D01*
X1831083Y737893D01*
X1831414Y738114D01*
X1831635Y738445D01*
X1831681Y738674D01*
X1834949D01*
Y737807D01*
X1835027Y737417D01*
X1835248Y737086D01*
X1835578Y736865D01*
X1835969Y736788D01*
X1838028D01*
Y739972D01*
Y743157D01*
X1835969D01*
X1835578Y743080D01*
X1835248Y742859D01*
X1835027Y742528D01*
X1834949Y742138D01*
Y741326D01*
X1831713D01*
Y743165D01*
X1831635Y743555D01*
X1831414Y743886D01*
X1831108Y744091D01*
X1831057Y744334D01*
X1831069Y744620D01*
X1831270Y744754D01*
X1831446Y745019D01*
X1831509Y745331D01*
Y746171D01*
X1835564D01*
X1835656Y746109D01*
X1835969Y746046D01*
X1839634D01*
X1843674Y742006D01*
Y726982D01*
X1843588Y726946D01*
X1843003Y726497D01*
X1842554Y725912D01*
X1842272Y725231D01*
X1842176Y724500D01*
X1842272Y723769D01*
X1842554Y723088D01*
X1843003Y722503D01*
X1843588Y722054D01*
X1844269Y721772D01*
X1845000Y721676D01*
X1845731Y721772D01*
X1846412Y722054D01*
X1846997Y722503D01*
X1847446Y723088D01*
X1847728Y723769D01*
X1847824Y724500D01*
X1847728Y725231D01*
X1847446Y725912D01*
X1846997Y726497D01*
X1846412Y726946D01*
X1846325Y726982D01*
Y742555D01*
X1846225Y743062D01*
X1845937Y743492D01*
X1841902Y747527D01*
Y751193D01*
X1841840Y751505D01*
X1841663Y751770D01*
X1841399Y751946D01*
X1841087Y752009D01*
X1835969D01*
X1835656Y751946D01*
X1835392Y751770D01*
X1835215Y751505D01*
X1835153Y751193D01*
Y748821D01*
X1831509D01*
Y749661D01*
X1831446Y749973D01*
X1831270Y750238D01*
X1831005Y750415D01*
X1830693Y750477D01*
X1826362D01*
X1826050Y750415D01*
X1825785Y750238D01*
X1825609Y749973D01*
X1825546Y749661D01*
Y748821D01*
X1823009D01*
Y749661D01*
X1822947Y749973D01*
X1822770Y750238D01*
X1822505Y750415D01*
X1822193Y750477D01*
X1821416D01*
X1821379Y750977D01*
X1825710Y755308D01*
X1825797Y755272D01*
X1826528Y755176D01*
X1827258Y755272D01*
X1827940Y755554D01*
X1828525Y756003D01*
X1828973Y756588D01*
X1829255Y757269D01*
X1829352Y758000D01*
X1829255Y758731D01*
X1828973Y759412D01*
X1828525Y759997D01*
X1827940Y760446D01*
X1827258Y760728D01*
X1826528Y760824D01*
D02*
G37*
G36*
X1430118Y758960D02*
X1429835Y758923D01*
X1429105Y758621D01*
X1428479Y758140D01*
X1427998Y757513D01*
X1427695Y756783D01*
X1427658Y756500D01*
X1430118D01*
Y758960D01*
D02*
G37*
G36*
X1976500Y763324D02*
X1975769Y763228D01*
X1975088Y762946D01*
X1974503Y762497D01*
X1974054Y761912D01*
X1973772Y761231D01*
X1973676Y760500D01*
X1973772Y759769D01*
X1973808Y759682D01*
X1969063Y754937D01*
X1968775Y754507D01*
X1968674Y754000D01*
Y752977D01*
X1967835D01*
X1967522Y752915D01*
X1967258Y752738D01*
X1967081Y752473D01*
X1967019Y752161D01*
Y747831D01*
X1967081Y747519D01*
X1967258Y747254D01*
X1967459Y747120D01*
X1967471Y746834D01*
X1967419Y746591D01*
X1967114Y746386D01*
X1966893Y746056D01*
X1966815Y745665D01*
Y744000D01*
X1970000D01*
Y743500D01*
X1970500D01*
Y740315D01*
X1972165D01*
X1972556Y740393D01*
X1972886Y740614D01*
X1973107Y740944D01*
X1973153Y741175D01*
X1975347D01*
X1975393Y740944D01*
X1975614Y740614D01*
X1975945Y740393D01*
X1976335Y740315D01*
X1978000D01*
Y743500D01*
X1979000D01*
Y740315D01*
X1980665D01*
X1981055Y740393D01*
X1981386Y740614D01*
X1981607Y740944D01*
X1981653Y741175D01*
X1984921D01*
Y740307D01*
X1984999Y739917D01*
X1985220Y739586D01*
X1985551Y739365D01*
X1985941Y739288D01*
X1988000D01*
Y742473D01*
Y745657D01*
X1985941D01*
X1985551Y745580D01*
X1985220Y745359D01*
X1984999Y745028D01*
X1984921Y744638D01*
Y743825D01*
X1981685D01*
Y745665D01*
X1981607Y746056D01*
X1981386Y746386D01*
X1981081Y746591D01*
X1981029Y746834D01*
X1981042Y747120D01*
X1981242Y747254D01*
X1981419Y747519D01*
X1981481Y747831D01*
Y748671D01*
X1985536D01*
X1985629Y748609D01*
X1985941Y748547D01*
X1991059D01*
X1991371Y748609D01*
X1991636Y748785D01*
X1991813Y749050D01*
X1991875Y749362D01*
Y753693D01*
X1991813Y754005D01*
X1991636Y754270D01*
X1991371Y754447D01*
X1991059Y754509D01*
X1985941D01*
X1985629Y754447D01*
X1985364Y754270D01*
X1985187Y754005D01*
X1985125Y753693D01*
Y751322D01*
X1981481D01*
Y752161D01*
X1981419Y752473D01*
X1981242Y752738D01*
X1980977Y752915D01*
X1980665Y752977D01*
X1976335D01*
X1976023Y752915D01*
X1975758Y752738D01*
X1975581Y752473D01*
X1975519Y752161D01*
Y751322D01*
X1972981D01*
Y752161D01*
X1972919Y752473D01*
X1972742Y752738D01*
X1972478Y752915D01*
X1972165Y752977D01*
X1971388D01*
X1971352Y753477D01*
X1975682Y757808D01*
X1975769Y757772D01*
X1976500Y757676D01*
X1977231Y757772D01*
X1977912Y758054D01*
X1978497Y758503D01*
X1978946Y759088D01*
X1979228Y759769D01*
X1979324Y760500D01*
X1979228Y761231D01*
X1978946Y761912D01*
X1978497Y762497D01*
X1977912Y762946D01*
X1977231Y763228D01*
X1976500Y763324D01*
D02*
G37*
G36*
X1900072Y757656D02*
X1899789Y757619D01*
X1899059Y757317D01*
X1898433Y756836D01*
X1897952Y756209D01*
X1897650Y755479D01*
X1897612Y755196D01*
X1900072D01*
Y757656D01*
D02*
G37*
G36*
X1539000Y758208D02*
X1538717Y758171D01*
X1537987Y757868D01*
X1537360Y757388D01*
X1536880Y756761D01*
X1536577Y756031D01*
X1536540Y755748D01*
X1539000D01*
Y758208D01*
D02*
G37*
G36*
X1348500Y760797D02*
X1347769Y760700D01*
X1347088Y760418D01*
X1346503Y759969D01*
X1346054Y759384D01*
X1345772Y758703D01*
X1345676Y757972D01*
X1345772Y757241D01*
X1345808Y757155D01*
X1341063Y752410D01*
X1340775Y751980D01*
X1340674Y751472D01*
Y750450D01*
X1339835D01*
X1339522Y750387D01*
X1339258Y750211D01*
X1339081Y749946D01*
X1339019Y749634D01*
Y745303D01*
X1339081Y744991D01*
X1339258Y744726D01*
X1339458Y744592D01*
X1339471Y744306D01*
X1339419Y744063D01*
X1339114Y743859D01*
X1338893Y743528D01*
X1338815Y743138D01*
Y741472D01*
X1342000D01*
Y740973D01*
X1342500D01*
Y737787D01*
X1344165D01*
X1344555Y737865D01*
X1344886Y738086D01*
X1345107Y738417D01*
X1345153Y738647D01*
X1347347D01*
X1347393Y738417D01*
X1347614Y738086D01*
X1347945Y737865D01*
X1348335Y737787D01*
X1350000D01*
Y740973D01*
X1351000D01*
Y737787D01*
X1352665D01*
X1353055Y737865D01*
X1353386Y738086D01*
X1353607Y738417D01*
X1353653Y738647D01*
X1356921D01*
Y737780D01*
X1356999Y737389D01*
X1357220Y737059D01*
X1357551Y736838D01*
X1357941Y736760D01*
X1360000D01*
Y739945D01*
Y743130D01*
X1357941D01*
X1357551Y743052D01*
X1357220Y742831D01*
X1356999Y742500D01*
X1356921Y742110D01*
Y741298D01*
X1353685D01*
Y743138D01*
X1353607Y743528D01*
X1353386Y743859D01*
X1353081Y744063D01*
X1353029Y744306D01*
X1353041Y744592D01*
X1353242Y744726D01*
X1353419Y744991D01*
X1353481Y745303D01*
Y746143D01*
X1357536D01*
X1357629Y746081D01*
X1357941Y746019D01*
X1363059D01*
X1363371Y746081D01*
X1363636Y746258D01*
X1363813Y746523D01*
X1363875Y746835D01*
Y751165D01*
X1363813Y751477D01*
X1363636Y751742D01*
X1363371Y751919D01*
X1363059Y751981D01*
X1357941D01*
X1357629Y751919D01*
X1357364Y751742D01*
X1357187Y751477D01*
X1357125Y751165D01*
Y748794D01*
X1353481D01*
Y749634D01*
X1353419Y749946D01*
X1353242Y750211D01*
X1352977Y750387D01*
X1352665Y750450D01*
X1348335D01*
X1348022Y750387D01*
X1347758Y750211D01*
X1347581Y749946D01*
X1347519Y749634D01*
Y748794D01*
X1344981D01*
Y749634D01*
X1344919Y749946D01*
X1344742Y750211D01*
X1344477Y750387D01*
X1344165Y750450D01*
X1343388D01*
X1343352Y750949D01*
X1347682Y755280D01*
X1347769Y755244D01*
X1348500Y755148D01*
X1349231Y755244D01*
X1349912Y755527D01*
X1350497Y755975D01*
X1350946Y756560D01*
X1351228Y757241D01*
X1351324Y757972D01*
X1351228Y758703D01*
X1350946Y759384D01*
X1350497Y759969D01*
X1349912Y760418D01*
X1349231Y760700D01*
X1348500Y760797D01*
D02*
G37*
G36*
X1600100Y755156D02*
X1599817Y755119D01*
X1599087Y754817D01*
X1598460Y754336D01*
X1597980Y753709D01*
X1597677Y752979D01*
X1597640Y752696D01*
X1600100D01*
Y755156D01*
D02*
G37*
G36*
X1750100D02*
X1749817Y755119D01*
X1749087Y754817D01*
X1748460Y754336D01*
X1747980Y753709D01*
X1747677Y752979D01*
X1747640Y752696D01*
X1750100D01*
Y755156D01*
D02*
G37*
G36*
X1005072D02*
X1004789Y755119D01*
X1004060Y754817D01*
X1003433Y754336D01*
X1002952Y753709D01*
X1002650Y752979D01*
X1002612Y752696D01*
X1005072D01*
Y755156D01*
D02*
G37*
G36*
X1151600D02*
X1151317Y755119D01*
X1150587Y754817D01*
X1149960Y754336D01*
X1149479Y753709D01*
X1149177Y752979D01*
X1149140Y752696D01*
X1151600D01*
Y755156D01*
D02*
G37*
G36*
X1540000Y758208D02*
Y755248D01*
Y752288D01*
X1540283Y752325D01*
X1541013Y752628D01*
X1541640Y753108D01*
X1542120Y753735D01*
X1542198Y753923D01*
X1549203D01*
X1549567Y753558D01*
Y752748D01*
X1552252D01*
Y755433D01*
X1551441D01*
X1550689Y756185D01*
X1550259Y756473D01*
X1549752Y756573D01*
X1542198D01*
X1542120Y756761D01*
X1541640Y757388D01*
X1541013Y757868D01*
X1540283Y758171D01*
X1540000Y758208D01*
D02*
G37*
G36*
X1510496Y761572D02*
X1509765Y761476D01*
X1509084Y761194D01*
X1508499Y760745D01*
X1508050Y760160D01*
X1507768Y759479D01*
X1507672Y758748D01*
X1507768Y758017D01*
X1507804Y757931D01*
X1505351Y755477D01*
X1502079D01*
X1501767Y755415D01*
X1501502Y755238D01*
X1501368Y755038D01*
X1501082Y755025D01*
X1500838Y755077D01*
X1500634Y755382D01*
X1500304Y755603D01*
X1499913Y755681D01*
X1498248D01*
Y752496D01*
X1497248D01*
Y755681D01*
X1495583D01*
X1495193Y755603D01*
X1494862Y755382D01*
X1494641Y755052D01*
X1494563Y754661D01*
Y753822D01*
X1488407D01*
X1488120Y754513D01*
X1487640Y755140D01*
X1487013Y755620D01*
X1486283Y755923D01*
X1486000Y755960D01*
Y753000D01*
Y750040D01*
X1486283Y750077D01*
X1487013Y750380D01*
X1487640Y750860D01*
X1487878Y751171D01*
X1494563D01*
Y750331D01*
X1494641Y749940D01*
X1494862Y749610D01*
X1495193Y749389D01*
X1495583Y749311D01*
X1496675D01*
Y747681D01*
X1495835D01*
X1495444Y747603D01*
X1495114Y747382D01*
X1494893Y747052D01*
X1494815Y746661D01*
Y744996D01*
X1498000D01*
Y743996D01*
X1494815D01*
Y742331D01*
X1494893Y741940D01*
X1495042Y741717D01*
X1494912Y741340D01*
X1494820Y741217D01*
X1470004D01*
X1459147Y752074D01*
X1459228Y752269D01*
X1459324Y753000D01*
X1459228Y753731D01*
X1458946Y754412D01*
X1458497Y754997D01*
X1457912Y755446D01*
X1457231Y755728D01*
X1456500Y755824D01*
X1455769Y755728D01*
X1455088Y755446D01*
X1454503Y754997D01*
X1454054Y754412D01*
X1453973Y754217D01*
X1453347D01*
Y755165D01*
X1453285Y755478D01*
X1453108Y755742D01*
X1452844Y755919D01*
X1452532Y755981D01*
X1449226D01*
X1449034Y756443D01*
X1450374Y757783D01*
X1478996D01*
X1482700Y754079D01*
X1482577Y753783D01*
X1482540Y753500D01*
X1485000D01*
Y755960D01*
X1484717Y755923D01*
X1484421Y755800D01*
X1480361Y759861D01*
X1479966Y760124D01*
X1479500Y760217D01*
X1449870D01*
X1449404Y760124D01*
X1449010Y759861D01*
X1445334Y756185D01*
X1444370D01*
Y753000D01*
X1443870D01*
Y752500D01*
X1440685D01*
Y750835D01*
X1440763Y750445D01*
X1440984Y750114D01*
X1441315Y749893D01*
X1441705Y749815D01*
X1442797D01*
Y748185D01*
X1441957D01*
X1441566Y748107D01*
X1441236Y747886D01*
X1441015Y747555D01*
X1440937Y747165D01*
Y745500D01*
X1444122D01*
Y744500D01*
X1440937D01*
Y742835D01*
X1441015Y742445D01*
X1441236Y742114D01*
X1441566Y741893D01*
X1441957Y741815D01*
X1442797D01*
Y727382D01*
X1442898Y726875D01*
X1443185Y726445D01*
X1456655Y712975D01*
X1456577Y712787D01*
X1456540Y712504D01*
X1459000D01*
Y714964D01*
X1458717Y714927D01*
X1458529Y714849D01*
X1445448Y727931D01*
Y741815D01*
X1446287D01*
X1446678Y741893D01*
X1447008Y742114D01*
X1447213Y742419D01*
X1447456Y742471D01*
X1447742Y742458D01*
X1447876Y742258D01*
X1448141Y742081D01*
X1448453Y742019D01*
X1452783D01*
X1453096Y742081D01*
X1453360Y742258D01*
X1453537Y742522D01*
X1453599Y742835D01*
Y747165D01*
X1453537Y747477D01*
X1453360Y747742D01*
X1453096Y747919D01*
X1452783Y747981D01*
X1451692D01*
Y750019D01*
X1452532D01*
X1452844Y750081D01*
X1453108Y750258D01*
X1453285Y750523D01*
X1453347Y750835D01*
Y751783D01*
X1453973D01*
X1454054Y751588D01*
X1454503Y751003D01*
X1455088Y750554D01*
X1455769Y750272D01*
X1456500Y750176D01*
X1457231Y750272D01*
X1457426Y750353D01*
X1468639Y739139D01*
X1469034Y738876D01*
X1469500Y738783D01*
X1504000D01*
X1504466Y738876D01*
X1504861Y739139D01*
X1505124Y739534D01*
X1505217Y740000D01*
Y741515D01*
X1506661D01*
X1506974Y741577D01*
X1507238Y741754D01*
X1507415Y742019D01*
X1507477Y742331D01*
Y746661D01*
X1507415Y746974D01*
X1507238Y747238D01*
X1506974Y747415D01*
X1506661Y747477D01*
X1505570D01*
Y749515D01*
X1506409D01*
X1506722Y749577D01*
X1506986Y749754D01*
X1507163Y750019D01*
X1507225Y750331D01*
Y753603D01*
X1509678Y756056D01*
X1509765Y756020D01*
X1510496Y755924D01*
X1511227Y756020D01*
X1511314Y756056D01*
X1515174Y752195D01*
Y709549D01*
X1503818Y698192D01*
X1503731Y698228D01*
X1503000Y698324D01*
X1502269Y698228D01*
X1501588Y697946D01*
X1501003Y697497D01*
X1500554Y696912D01*
X1500272Y696231D01*
X1500176Y695500D01*
X1500272Y694769D01*
X1500554Y694088D01*
X1501003Y693503D01*
X1501588Y693054D01*
X1502269Y692772D01*
X1503000Y692676D01*
X1503731Y692772D01*
X1504412Y693054D01*
X1504997Y693503D01*
X1505446Y694088D01*
X1505728Y694769D01*
X1505824Y695500D01*
X1505728Y696231D01*
X1505692Y696318D01*
X1517437Y708063D01*
X1517725Y708493D01*
X1517826Y709000D01*
Y752744D01*
X1517725Y753251D01*
X1517437Y753681D01*
X1513188Y757931D01*
X1513224Y758017D01*
X1513320Y758748D01*
X1513224Y759479D01*
X1512942Y760160D01*
X1512493Y760745D01*
X1511908Y761194D01*
X1511227Y761476D01*
X1510496Y761572D01*
D02*
G37*
G36*
X1910290Y757881D02*
X1908625D01*
Y754696D01*
X1907625D01*
Y757881D01*
X1905959D01*
X1905569Y757803D01*
X1905238Y757582D01*
X1905017Y757252D01*
X1904939Y756861D01*
Y755913D01*
X1903316D01*
X1903193Y756209D01*
X1902712Y756836D01*
X1902085Y757317D01*
X1901356Y757619D01*
X1901072Y757656D01*
Y754696D01*
Y751736D01*
X1901356Y751773D01*
X1902085Y752076D01*
X1902712Y752556D01*
X1903193Y753183D01*
X1903316Y753479D01*
X1904939D01*
Y752531D01*
X1905017Y752141D01*
X1905238Y751810D01*
X1905569Y751589D01*
X1905959Y751511D01*
X1906907D01*
Y749881D01*
X1905959D01*
X1905569Y749803D01*
X1905238Y749582D01*
X1905017Y749252D01*
X1904939Y748861D01*
Y747196D01*
X1908125D01*
Y746696D01*
X1908625D01*
Y743511D01*
X1909588D01*
X1912460Y740639D01*
X1912855Y740376D01*
X1913321Y740283D01*
X1952428D01*
X1952619Y739821D01*
X1927016Y714217D01*
X1911743D01*
X1911621Y714513D01*
X1911140Y715140D01*
X1910513Y715621D01*
X1909783Y715923D01*
X1909500Y715960D01*
Y713000D01*
Y710040D01*
X1909783Y710077D01*
X1910079Y710200D01*
X1915783Y704496D01*
Y690681D01*
X1914835D01*
X1914445Y690603D01*
X1914114Y690382D01*
X1913893Y690052D01*
X1913815Y689661D01*
Y688713D01*
X1882185D01*
Y689161D01*
X1882107Y689552D01*
X1881886Y689882D01*
X1881556Y690103D01*
X1881165Y690181D01*
X1879500D01*
Y686996D01*
X1878500D01*
Y690181D01*
X1876835D01*
X1876444Y690103D01*
X1876114Y689882D01*
X1876036Y689766D01*
X1875464D01*
X1875386Y689882D01*
X1875056Y690103D01*
X1874665Y690181D01*
X1874590D01*
X1874017Y690621D01*
X1873721Y690743D01*
Y698500D01*
X1885921Y710700D01*
X1886217Y710577D01*
X1886500Y710540D01*
Y713000D01*
X1884040D01*
X1884077Y712717D01*
X1884200Y712421D01*
X1871643Y699864D01*
X1871379Y699470D01*
X1871287Y699004D01*
Y690743D01*
X1870991Y690621D01*
X1870418Y690181D01*
X1870335D01*
X1869945Y690103D01*
X1869614Y689882D01*
X1869393Y689552D01*
X1869315Y689161D01*
Y688213D01*
X1841185D01*
Y689161D01*
X1841107Y689552D01*
X1840886Y689882D01*
X1840556Y690103D01*
X1840165Y690181D01*
X1837807D01*
X1837616Y690643D01*
X1838361Y691387D01*
X1838624Y691782D01*
X1838717Y692248D01*
Y698248D01*
X1838624Y698714D01*
X1838361Y699109D01*
X1826548Y710921D01*
X1826671Y711217D01*
X1826708Y711500D01*
X1824248D01*
Y709040D01*
X1824531Y709077D01*
X1824827Y709200D01*
X1836283Y697744D01*
Y692752D01*
X1833464Y689933D01*
X1832500D01*
Y686748D01*
X1831500D01*
Y689933D01*
X1829835D01*
X1829445Y689855D01*
X1829114Y689634D01*
X1828893Y689304D01*
X1828815Y688913D01*
Y687965D01*
X1798185D01*
Y688413D01*
X1798107Y688804D01*
X1797886Y689134D01*
X1797556Y689355D01*
X1797165Y689433D01*
X1795500D01*
Y686248D01*
X1794500D01*
Y689433D01*
X1792835D01*
X1792444Y689355D01*
X1792114Y689134D01*
X1791966Y688914D01*
X1791563Y688846D01*
X1791396Y688868D01*
X1791386Y688882D01*
X1791055Y689103D01*
X1790665Y689181D01*
X1790591D01*
X1790013Y689624D01*
X1789717Y689747D01*
Y697996D01*
X1801270Y709549D01*
X1801491Y709379D01*
X1802221Y709077D01*
X1802504Y709040D01*
Y711500D01*
X1799779D01*
X1787639Y699361D01*
X1787376Y698966D01*
X1787283Y698500D01*
Y689747D01*
X1786987Y689624D01*
X1786409Y689181D01*
X1786335D01*
X1785945Y689103D01*
X1785614Y688882D01*
X1785393Y688552D01*
X1785327Y688221D01*
X1757685D01*
Y688413D01*
X1757607Y688804D01*
X1757386Y689134D01*
X1757055Y689355D01*
X1756665Y689433D01*
X1755000D01*
Y686248D01*
X1754000D01*
Y689433D01*
X1752335D01*
X1751945Y689355D01*
X1751614Y689134D01*
X1751386D01*
X1751056Y689355D01*
X1750665Y689433D01*
X1749717D01*
Y703500D01*
X1749624Y703966D01*
X1749361Y704361D01*
X1742800Y710921D01*
X1742923Y711217D01*
X1742960Y711500D01*
X1740500D01*
Y709040D01*
X1740783Y709077D01*
X1741079Y709200D01*
X1747283Y702996D01*
Y689433D01*
X1746335D01*
X1745945Y689355D01*
X1745614Y689134D01*
X1745393Y688804D01*
X1745315Y688413D01*
Y687465D01*
X1715185D01*
Y688661D01*
X1715107Y689052D01*
X1714886Y689382D01*
X1714556Y689603D01*
X1714165Y689681D01*
X1712500D01*
Y686496D01*
X1711500D01*
Y689681D01*
X1709835D01*
X1709444Y689603D01*
X1709114Y689382D01*
X1708893Y689052D01*
X1708815Y688661D01*
Y687713D01*
X1708249D01*
X1708185Y687867D01*
Y688661D01*
X1708107Y689052D01*
X1707886Y689382D01*
X1707556Y689603D01*
X1707165Y689681D01*
X1706721D01*
Y698004D01*
X1717921Y709204D01*
X1718217Y709081D01*
X1718500Y709044D01*
Y711504D01*
X1716040D01*
X1716077Y711221D01*
X1716200Y710925D01*
X1704643Y699368D01*
X1704379Y698974D01*
X1704287Y698508D01*
Y689681D01*
X1702835D01*
X1702444Y689603D01*
X1702114Y689382D01*
X1701893Y689052D01*
X1701815Y688661D01*
Y687717D01*
X1667685D01*
Y689661D01*
X1667607Y690052D01*
X1667386Y690382D01*
X1667056Y690603D01*
X1666665Y690681D01*
X1665000D01*
Y687496D01*
X1664000D01*
Y690681D01*
X1662335D01*
X1661945Y690603D01*
X1661614Y690382D01*
X1661393Y690052D01*
X1661315Y689661D01*
Y688217D01*
X1660685D01*
Y689661D01*
X1660607Y690052D01*
X1660386Y690382D01*
X1660056Y690603D01*
X1659665Y690681D01*
X1658717D01*
Y705000D01*
X1658624Y705466D01*
X1658361Y705861D01*
X1652300Y711921D01*
X1652423Y712217D01*
X1652460Y712500D01*
X1650000D01*
Y710040D01*
X1650283Y710077D01*
X1650579Y710200D01*
X1656283Y704496D01*
Y690681D01*
X1655335D01*
X1654944Y690603D01*
X1654614Y690382D01*
X1654393Y690052D01*
X1654315Y689661D01*
Y688213D01*
X1622685D01*
Y689161D01*
X1622607Y689552D01*
X1622386Y689882D01*
X1622055Y690103D01*
X1621665Y690181D01*
X1620000D01*
Y686996D01*
X1619000D01*
Y690181D01*
X1617335D01*
X1616945Y690103D01*
X1616614Y689882D01*
X1616536Y689766D01*
X1615964D01*
X1615886Y689882D01*
X1615556Y690103D01*
X1615165Y690181D01*
X1615090D01*
X1614517Y690621D01*
X1614221Y690743D01*
Y698500D01*
X1626421Y710700D01*
X1626717Y710577D01*
X1627000Y710540D01*
Y713000D01*
X1624540D01*
X1624577Y712717D01*
X1624700Y712421D01*
X1612143Y699864D01*
X1611880Y699470D01*
X1611787Y699004D01*
Y690743D01*
X1611491Y690621D01*
X1610918Y690181D01*
X1610835D01*
X1610444Y690103D01*
X1610114Y689882D01*
X1609893Y689552D01*
X1609826Y689217D01*
X1581674D01*
X1581607Y689552D01*
X1581386Y689882D01*
X1581056Y690103D01*
X1580665Y690181D01*
X1579000D01*
Y686996D01*
X1578000D01*
Y690181D01*
X1576335D01*
X1575945Y690103D01*
X1575614Y689882D01*
X1575554Y689794D01*
X1575386Y689634D01*
X1575056Y689855D01*
X1574665Y689933D01*
X1573717D01*
Y703748D01*
X1573624Y704214D01*
X1573361Y704609D01*
X1567048Y710921D01*
X1567171Y711217D01*
X1567208Y711500D01*
X1564748D01*
Y709040D01*
X1565031Y709077D01*
X1565327Y709200D01*
X1571283Y703244D01*
Y689933D01*
X1570335D01*
X1569944Y689855D01*
X1569614Y689634D01*
X1569393Y689304D01*
X1569315Y688913D01*
Y687965D01*
X1538685D01*
Y688413D01*
X1538607Y688804D01*
X1538386Y689134D01*
X1538056Y689355D01*
X1537665Y689433D01*
X1536000D01*
Y686248D01*
X1535000D01*
Y689433D01*
X1533335D01*
X1532944Y689355D01*
X1532614Y689134D01*
X1532467Y688914D01*
X1532063Y688846D01*
X1531896Y688868D01*
X1531886Y688882D01*
X1531555Y689103D01*
X1531165Y689181D01*
X1531091D01*
X1530513Y689624D01*
X1530217Y689747D01*
Y697996D01*
X1541770Y709549D01*
X1541991Y709379D01*
X1542721Y709077D01*
X1543004Y709040D01*
Y711500D01*
X1540279D01*
X1528139Y699361D01*
X1527876Y698966D01*
X1527783Y698500D01*
Y689747D01*
X1527487Y689624D01*
X1526909Y689181D01*
X1526835D01*
X1526445Y689103D01*
X1526114Y688882D01*
X1525893Y688552D01*
X1525827Y688221D01*
X1498185D01*
Y688413D01*
X1498107Y688804D01*
X1497886Y689134D01*
X1497556Y689355D01*
X1497165Y689433D01*
X1495500D01*
Y686248D01*
X1494500D01*
Y689433D01*
X1492835D01*
X1492445Y689355D01*
X1492114Y689134D01*
X1491886D01*
X1491556Y689355D01*
X1491165Y689433D01*
X1490217D01*
Y703500D01*
X1490124Y703966D01*
X1489861Y704361D01*
X1483300Y710921D01*
X1483423Y711217D01*
X1483460Y711500D01*
X1481000D01*
Y709040D01*
X1481283Y709077D01*
X1481579Y709200D01*
X1487783Y702996D01*
Y689433D01*
X1486835D01*
X1486444Y689355D01*
X1486114Y689134D01*
X1485893Y688804D01*
X1485815Y688413D01*
Y687465D01*
X1455685D01*
Y688661D01*
X1455607Y689052D01*
X1455386Y689382D01*
X1455056Y689603D01*
X1454665Y689681D01*
X1453000D01*
Y686496D01*
X1452000D01*
Y689681D01*
X1450335D01*
X1449944Y689603D01*
X1449614Y689382D01*
X1449393Y689052D01*
X1449315Y688661D01*
Y687713D01*
X1448749D01*
X1448685Y687867D01*
Y688661D01*
X1448607Y689052D01*
X1448386Y689382D01*
X1448055Y689603D01*
X1447665Y689681D01*
X1447221D01*
Y698004D01*
X1458421Y709204D01*
X1458717Y709081D01*
X1459000Y709044D01*
Y711504D01*
X1456540D01*
X1456577Y711221D01*
X1456700Y710925D01*
X1445143Y699368D01*
X1444880Y698974D01*
X1444787Y698508D01*
Y689681D01*
X1443335D01*
X1442945Y689603D01*
X1442614Y689382D01*
X1442393Y689052D01*
X1442315Y688661D01*
Y686996D01*
X1445500D01*
Y685996D01*
X1442315D01*
Y684331D01*
X1442393Y683941D01*
X1442614Y683610D01*
X1442919Y683406D01*
X1442971Y683162D01*
X1442959Y682876D01*
X1442758Y682742D01*
X1442581Y682478D01*
X1442519Y682165D01*
Y677835D01*
X1442581Y677523D01*
X1442758Y677258D01*
X1443023Y677081D01*
X1443335Y677019D01*
X1447665D01*
X1447978Y677081D01*
X1448242Y677258D01*
X1448419Y677523D01*
X1448481Y677835D01*
Y678783D01*
X1449519D01*
Y677835D01*
X1449581Y677523D01*
X1449758Y677258D01*
X1450023Y677081D01*
X1450335Y677019D01*
X1451283D01*
Y648619D01*
X1432162D01*
X1432144Y648644D01*
X1415667Y665122D01*
X1415728Y665269D01*
X1415824Y666000D01*
X1415728Y666731D01*
X1415446Y667412D01*
X1414997Y667997D01*
X1414412Y668446D01*
X1413731Y668728D01*
X1413000Y668824D01*
X1412269Y668728D01*
X1411588Y668446D01*
X1411003Y667997D01*
X1410554Y667412D01*
X1410272Y666731D01*
X1410176Y666000D01*
X1410272Y665269D01*
X1410554Y664588D01*
X1411003Y664003D01*
X1411588Y663554D01*
X1412269Y663272D01*
X1413000Y663176D01*
X1413031Y663180D01*
X1429424Y646787D01*
X1429505Y646381D01*
X1429856Y645856D01*
X1430381Y645505D01*
X1431000Y645381D01*
X1500713D01*
X1501003Y645003D01*
X1501588Y644554D01*
X1502269Y644272D01*
X1503000Y644176D01*
X1503731Y644272D01*
X1504412Y644554D01*
X1504997Y645003D01*
X1505287Y645381D01*
X1583213D01*
X1583503Y645003D01*
X1584088Y644554D01*
X1584769Y644272D01*
X1585500Y644176D01*
X1586231Y644272D01*
X1586912Y644554D01*
X1587497Y645003D01*
X1587787Y645381D01*
X1673713D01*
X1674003Y645003D01*
X1674588Y644554D01*
X1675269Y644272D01*
X1676000Y644176D01*
X1676731Y644272D01*
X1677412Y644554D01*
X1677997Y645003D01*
X1678287Y645381D01*
X1745933D01*
X1746054Y645088D01*
X1746503Y644503D01*
X1747088Y644054D01*
X1747769Y643772D01*
X1748500Y643676D01*
X1749231Y643772D01*
X1749912Y644054D01*
X1750497Y644503D01*
X1750946Y645088D01*
X1751067Y645381D01*
X1842713D01*
X1843003Y645003D01*
X1843588Y644554D01*
X1844269Y644272D01*
X1845000Y644176D01*
X1845731Y644272D01*
X1846412Y644554D01*
X1846997Y645003D01*
X1847287Y645381D01*
X1919213D01*
X1919503Y645003D01*
X1920088Y644554D01*
X1920769Y644272D01*
X1921500Y644176D01*
X1922231Y644272D01*
X1922912Y644554D01*
X1923497Y645003D01*
X1923946Y645588D01*
X1924228Y646269D01*
X1924324Y647000D01*
X1924228Y647731D01*
X1923946Y648412D01*
X1923497Y648997D01*
X1922912Y649446D01*
X1922231Y649728D01*
X1921500Y649824D01*
X1920769Y649728D01*
X1920088Y649446D01*
X1919503Y648997D01*
X1919213Y648619D01*
X1880217D01*
Y677519D01*
X1881165D01*
X1881478Y677581D01*
X1881742Y677758D01*
X1881919Y678022D01*
X1881981Y678335D01*
Y682665D01*
X1881919Y682977D01*
X1881742Y683242D01*
X1881541Y683376D01*
X1881529Y683662D01*
X1881581Y683906D01*
X1881886Y684110D01*
X1882107Y684441D01*
X1882185Y684831D01*
Y686279D01*
X1913815D01*
Y685331D01*
X1913893Y684940D01*
X1914114Y684610D01*
X1914419Y684406D01*
X1914471Y684162D01*
X1914458Y683876D01*
X1914258Y683742D01*
X1914081Y683477D01*
X1914019Y683165D01*
Y678835D01*
X1914081Y678522D01*
X1914258Y678258D01*
X1914523Y678081D01*
X1914835Y678019D01*
X1915783D01*
Y655618D01*
X1887287D01*
X1886997Y655997D01*
X1886412Y656446D01*
X1885731Y656728D01*
X1885000Y656824D01*
X1884269Y656728D01*
X1883588Y656446D01*
X1883003Y655997D01*
X1882554Y655412D01*
X1882272Y654731D01*
X1882176Y654000D01*
X1882272Y653269D01*
X1882554Y652588D01*
X1883003Y652003D01*
X1883588Y651554D01*
X1884269Y651272D01*
X1885000Y651176D01*
X1885731Y651272D01*
X1886412Y651554D01*
X1886997Y652003D01*
X1887287Y652382D01*
X1917000D01*
X1917619Y652505D01*
X1918144Y652856D01*
X1918495Y653381D01*
X1918619Y654000D01*
X1918495Y654619D01*
X1918217Y655036D01*
Y678019D01*
X1919165D01*
X1919477Y678081D01*
X1919742Y678258D01*
X1919919Y678522D01*
X1919981Y678835D01*
Y679783D01*
X1921019D01*
Y678835D01*
X1921081Y678522D01*
X1921258Y678258D01*
X1921523Y678081D01*
X1921835Y678019D01*
X1926165D01*
X1926477Y678081D01*
X1926742Y678258D01*
X1926919Y678522D01*
X1926981Y678835D01*
Y683165D01*
X1926919Y683477D01*
X1926742Y683742D01*
X1926542Y683876D01*
X1926529Y684162D01*
X1926581Y684406D01*
X1926886Y684610D01*
X1927107Y684940D01*
X1927185Y685331D01*
Y686996D01*
X1924000D01*
Y687496D01*
X1923500D01*
Y690681D01*
X1921835D01*
X1921445Y690603D01*
X1921114Y690382D01*
X1920893Y690052D01*
X1920815Y689661D01*
Y688217D01*
X1920185D01*
Y689661D01*
X1920107Y690052D01*
X1919886Y690382D01*
X1919555Y690603D01*
X1919165Y690681D01*
X1918217D01*
Y705000D01*
X1918124Y705466D01*
X1917861Y705861D01*
X1912400Y711321D01*
X1912592Y711783D01*
X1927520D01*
X1927985Y711876D01*
X1928380Y712139D01*
X1954941Y738700D01*
X1955236Y738577D01*
X1955520Y738540D01*
Y741500D01*
Y744460D01*
X1955236Y744423D01*
X1954507Y744121D01*
X1953880Y743640D01*
X1953399Y743013D01*
X1953277Y742717D01*
X1913825D01*
X1913289Y743253D01*
X1913480Y743715D01*
X1916786D01*
X1917098Y743777D01*
X1917363Y743954D01*
X1917539Y744219D01*
X1917602Y744531D01*
Y745479D01*
X1927638D01*
X1928003Y745003D01*
X1928588Y744554D01*
X1929269Y744272D01*
X1930000Y744176D01*
X1930731Y744272D01*
X1931412Y744554D01*
X1931997Y745003D01*
X1932446Y745588D01*
X1932728Y746269D01*
X1932824Y747000D01*
X1932728Y747731D01*
X1932446Y748412D01*
X1931997Y748997D01*
X1931412Y749446D01*
X1930731Y749728D01*
X1930000Y749824D01*
X1929269Y749728D01*
X1928588Y749446D01*
X1928003Y748997D01*
X1927554Y748412D01*
X1927348Y747913D01*
X1917602D01*
Y748861D01*
X1917539Y749173D01*
X1917363Y749438D01*
X1917098Y749615D01*
X1916786Y749677D01*
X1915838D01*
Y751715D01*
X1916786D01*
X1917098Y751777D01*
X1917363Y751954D01*
X1917539Y752219D01*
X1917602Y752531D01*
Y753479D01*
X1918446D01*
X1918527Y753284D01*
X1918975Y752699D01*
X1919560Y752250D01*
X1920242Y751968D01*
X1920972Y751872D01*
X1921703Y751968D01*
X1922384Y752250D01*
X1922969Y752699D01*
X1923418Y753284D01*
X1923700Y753965D01*
X1923797Y754696D01*
X1923700Y755427D01*
X1923418Y756108D01*
X1922969Y756693D01*
X1922384Y757142D01*
X1921703Y757424D01*
X1920972Y757520D01*
X1920242Y757424D01*
X1919560Y757142D01*
X1918975Y756693D01*
X1918527Y756108D01*
X1918446Y755913D01*
X1917602D01*
Y756861D01*
X1917539Y757173D01*
X1917363Y757438D01*
X1917098Y757615D01*
X1916786Y757677D01*
X1912455D01*
X1912143Y757615D01*
X1911878Y757438D01*
X1911744Y757238D01*
X1911458Y757225D01*
X1911215Y757277D01*
X1911011Y757582D01*
X1910680Y757803D01*
X1910290Y757881D01*
D02*
G37*
G36*
X1430118Y755500D02*
X1427658D01*
X1427695Y755217D01*
X1427998Y754487D01*
X1428479Y753860D01*
X1429105Y753379D01*
X1429835Y753077D01*
X1430118Y753040D01*
Y755500D01*
D02*
G37*
G36*
X1431118Y758960D02*
Y756000D01*
Y753040D01*
X1431401Y753077D01*
X1432131Y753379D01*
X1432758Y753860D01*
X1433239Y754487D01*
X1433316Y754674D01*
X1440321D01*
X1440685Y754310D01*
Y753500D01*
X1443370D01*
Y756185D01*
X1442560D01*
X1441807Y756937D01*
X1441377Y757225D01*
X1440870Y757326D01*
X1433316D01*
X1433239Y757513D01*
X1432758Y758140D01*
X1432131Y758621D01*
X1431401Y758923D01*
X1431118Y758960D01*
D02*
G37*
G36*
X862124Y743696D02*
X859439D01*
Y742031D01*
X859517Y741641D01*
X859738Y741310D01*
X860069Y741089D01*
X860459Y741011D01*
X862124D01*
Y743696D01*
D02*
G37*
G36*
X1061520Y741960D02*
Y739000D01*
Y736040D01*
X1061803Y736077D01*
X1062533Y736379D01*
X1063159Y736860D01*
X1063640Y737487D01*
X1063943Y738217D01*
X1063945Y738236D01*
X1064144Y738534D01*
X1064237Y739000D01*
X1064144Y739466D01*
X1063945Y739764D01*
X1063943Y739783D01*
X1063640Y740513D01*
X1063159Y741140D01*
X1062533Y741620D01*
X1061803Y741923D01*
X1061520Y741960D01*
D02*
G37*
G36*
X1208047D02*
Y739000D01*
Y736040D01*
X1208330Y736077D01*
X1209060Y736379D01*
X1209687Y736860D01*
X1210168Y737487D01*
X1210470Y738217D01*
X1210473Y738236D01*
X1210672Y738534D01*
X1210764Y739000D01*
X1210672Y739466D01*
X1210473Y739764D01*
X1210470Y739783D01*
X1210168Y740513D01*
X1209687Y741140D01*
X1209060Y741620D01*
X1208330Y741923D01*
X1208047Y741960D01*
D02*
G37*
G36*
X1364079Y739445D02*
X1361000D01*
Y736760D01*
X1363059D01*
X1363449Y736838D01*
X1363780Y737059D01*
X1364001Y737389D01*
X1364079Y737780D01*
Y739445D01*
D02*
G37*
G36*
X1242587Y743157D02*
X1240528D01*
Y739972D01*
Y736788D01*
X1242587D01*
X1242977Y736865D01*
X1243308Y737086D01*
X1243529Y737417D01*
X1243606Y737807D01*
Y738674D01*
X1316443D01*
X1324151Y730967D01*
X1324073Y730779D01*
X1324036Y730496D01*
X1326496D01*
Y732956D01*
X1326213Y732919D01*
X1326025Y732841D01*
X1317929Y740937D01*
X1317499Y741225D01*
X1316992Y741326D01*
X1243606D01*
Y742138D01*
X1243529Y742528D01*
X1243308Y742859D01*
X1242977Y743080D01*
X1242587Y743157D01*
D02*
G37*
G36*
X1327496Y732956D02*
Y730496D01*
X1329956D01*
X1329919Y730779D01*
X1329617Y731509D01*
X1329136Y732136D01*
X1328509Y732617D01*
X1327779Y732919D01*
X1327496Y732956D01*
D02*
G37*
G36*
X911020Y741960D02*
Y739000D01*
Y736040D01*
X911303Y736077D01*
X912033Y736379D01*
X912659Y736860D01*
X913140Y737487D01*
X913443Y738217D01*
X913445Y738236D01*
X913644Y738534D01*
X913737Y739000D01*
X913644Y739466D01*
X913445Y739764D01*
X913443Y739783D01*
X913140Y740513D01*
X912659Y741140D01*
X912033Y741620D01*
X911303Y741923D01*
X911020Y741960D01*
D02*
G37*
G36*
X946579Y739472D02*
X943500D01*
Y736788D01*
X945559D01*
X945949Y736865D01*
X946280Y737086D01*
X946501Y737417D01*
X946579Y737807D01*
Y739472D01*
D02*
G37*
G36*
X1341500Y740473D02*
X1338815D01*
Y738807D01*
X1338893Y738417D01*
X1339114Y738086D01*
X1339445Y737865D01*
X1339835Y737787D01*
X1341500D01*
Y740473D01*
D02*
G37*
G36*
X924000Y740500D02*
X921315D01*
Y738835D01*
X921393Y738445D01*
X921614Y738114D01*
X921945Y737893D01*
X922335Y737815D01*
X924000D01*
Y740500D01*
D02*
G37*
G36*
X1074500D02*
X1071815D01*
Y738835D01*
X1071893Y738445D01*
X1072114Y738114D01*
X1072445Y737893D01*
X1072835Y737815D01*
X1074500D01*
Y740500D01*
D02*
G37*
G36*
X1097079Y739472D02*
X1094000D01*
Y736788D01*
X1096059D01*
X1096449Y736865D01*
X1096780Y737086D01*
X1097001Y737417D01*
X1097079Y737807D01*
Y739472D01*
D02*
G37*
G36*
X1692106Y739472D02*
X1689028D01*
Y736788D01*
X1691087D01*
X1691477Y736865D01*
X1691808Y737086D01*
X1692029Y737417D01*
X1692106Y737807D01*
Y739472D01*
D02*
G37*
G36*
X1842106D02*
X1839028D01*
Y736788D01*
X1841087D01*
X1841477Y736865D01*
X1841808Y737086D01*
X1842029Y737417D01*
X1842106Y737807D01*
Y739472D01*
D02*
G37*
G36*
X1908500Y715960D02*
X1908217Y715923D01*
X1907487Y715621D01*
X1906860Y715140D01*
X1906380Y714513D01*
X1906077Y713783D01*
X1906040Y713500D01*
X1908500D01*
Y715960D01*
D02*
G37*
G36*
X1192004Y716460D02*
X1191721Y716423D01*
X1190991Y716120D01*
X1190364Y715640D01*
X1189883Y715013D01*
X1189581Y714283D01*
X1189544Y714000D01*
X1192004D01*
Y716460D01*
D02*
G37*
G36*
X1193004D02*
Y714000D01*
X1195464D01*
X1195427Y714283D01*
X1195124Y715013D01*
X1194644Y715640D01*
X1194017Y716120D01*
X1193287Y716423D01*
X1193004Y716460D01*
D02*
G37*
G36*
X1002004Y715464D02*
X1001721Y715427D01*
X1000991Y715124D01*
X1000364Y714644D01*
X999883Y714017D01*
X999581Y713287D01*
X999544Y713004D01*
X1002004D01*
Y715464D01*
D02*
G37*
G36*
X1003004D02*
Y713004D01*
X1005464D01*
X1005427Y713287D01*
X1005124Y714017D01*
X1004644Y714644D01*
X1004017Y715124D01*
X1003287Y715427D01*
X1003004Y715464D01*
D02*
G37*
G36*
X1649000Y715960D02*
X1648717Y715923D01*
X1647987Y715621D01*
X1647360Y715140D01*
X1646880Y714513D01*
X1646577Y713783D01*
X1646540Y713500D01*
X1649000D01*
Y715960D01*
D02*
G37*
G36*
X1627000Y716460D02*
X1626717Y716423D01*
X1625987Y716120D01*
X1625360Y715640D01*
X1624879Y715013D01*
X1624577Y714283D01*
X1624540Y714000D01*
X1627000D01*
Y716460D01*
D02*
G37*
G36*
X1170004Y716960D02*
X1169721Y716923D01*
X1168991Y716620D01*
X1168364Y716140D01*
X1167883Y715513D01*
X1167581Y714783D01*
X1167544Y714500D01*
X1170004D01*
Y716960D01*
D02*
G37*
G36*
X1171004D02*
Y714500D01*
X1173464D01*
X1173427Y714783D01*
X1173124Y715513D01*
X1172644Y716140D01*
X1172017Y716620D01*
X1171287Y716923D01*
X1171004Y716960D01*
D02*
G37*
G36*
X1308500Y730324D02*
X1307769Y730228D01*
X1307088Y729946D01*
X1306503Y729497D01*
X1306213Y729118D01*
X1186787D01*
X1186497Y729497D01*
X1185912Y729946D01*
X1185231Y730228D01*
X1184500Y730324D01*
X1183769Y730228D01*
X1183088Y729946D01*
X1182503Y729497D01*
X1182213Y729118D01*
X1040287D01*
X1039997Y729497D01*
X1039412Y729946D01*
X1038731Y730228D01*
X1038000Y730324D01*
X1037269Y730228D01*
X1036588Y729946D01*
X1036003Y729497D01*
X1035713Y729118D01*
X889839D01*
X889412Y729446D01*
X888731Y729728D01*
X888000Y729824D01*
X887269Y729728D01*
X886588Y729446D01*
X886003Y728997D01*
X885554Y728412D01*
X885272Y727731D01*
X885176Y727000D01*
X885272Y726269D01*
X885554Y725588D01*
X886003Y725003D01*
X886588Y724554D01*
X887269Y724272D01*
X888000Y724176D01*
X888731Y724272D01*
X889412Y724554D01*
X889997Y725003D01*
X890446Y725588D01*
X890567Y725881D01*
X1035713D01*
X1036003Y725503D01*
X1036588Y725054D01*
X1037269Y724772D01*
X1038000Y724676D01*
X1038731Y724772D01*
X1039412Y725054D01*
X1039997Y725503D01*
X1040287Y725881D01*
X1182213D01*
X1182503Y725503D01*
X1183088Y725054D01*
X1183769Y724772D01*
X1184500Y724676D01*
X1185231Y724772D01*
X1185912Y725054D01*
X1186497Y725503D01*
X1186787Y725881D01*
X1306213D01*
X1306503Y725503D01*
X1307088Y725054D01*
X1307769Y724772D01*
X1308500Y724676D01*
X1309231Y724772D01*
X1309912Y725054D01*
X1310497Y725503D01*
X1310946Y726088D01*
X1311228Y726769D01*
X1311324Y727500D01*
X1311228Y728231D01*
X1310946Y728912D01*
X1310497Y729497D01*
X1309912Y729946D01*
X1309231Y730228D01*
X1308500Y730324D01*
D02*
G37*
G36*
X1628000Y716460D02*
Y714000D01*
X1630460D01*
X1630423Y714283D01*
X1630120Y715013D01*
X1629640Y715640D01*
X1629013Y716120D01*
X1628283Y716423D01*
X1628000Y716460D01*
D02*
G37*
G36*
X1886500D02*
X1886217Y716423D01*
X1885487Y716120D01*
X1884860Y715640D01*
X1884380Y715013D01*
X1884077Y714283D01*
X1884040Y714000D01*
X1886500D01*
Y716460D01*
D02*
G37*
G36*
X1887500D02*
Y714000D01*
X1889960D01*
X1889923Y714283D01*
X1889621Y715013D01*
X1889140Y715640D01*
X1888513Y716120D01*
X1887783Y716423D01*
X1887500Y716460D01*
D02*
G37*
G36*
X1221027Y740500D02*
X1218343D01*
Y738835D01*
X1218420Y738445D01*
X1218641Y738114D01*
X1218972Y737893D01*
X1219362Y737815D01*
X1221027D01*
Y740500D01*
D02*
G37*
G36*
X1363059Y743130D02*
X1361000D01*
Y740445D01*
X1364079D01*
Y742110D01*
X1364001Y742500D01*
X1363780Y742831D01*
X1363449Y743052D01*
X1363059Y743130D01*
D02*
G37*
G36*
X1969500Y743000D02*
X1966815D01*
Y741335D01*
X1966893Y740944D01*
X1967114Y740614D01*
X1967444Y740393D01*
X1967835Y740315D01*
X1969500D01*
Y743000D01*
D02*
G37*
G36*
X1841087Y743157D02*
X1839028D01*
Y740473D01*
X1842106D01*
Y742138D01*
X1842029Y742528D01*
X1841808Y742859D01*
X1841477Y743080D01*
X1841087Y743157D01*
D02*
G37*
G36*
X1096059D02*
X1094000D01*
Y740473D01*
X1097079D01*
Y742138D01*
X1097001Y742528D01*
X1096780Y742859D01*
X1096449Y743080D01*
X1096059Y743157D01*
D02*
G37*
G36*
X1691087D02*
X1689028D01*
Y740473D01*
X1692106D01*
Y742138D01*
X1692029Y742528D01*
X1691808Y742859D01*
X1691477Y743080D01*
X1691087Y743157D01*
D02*
G37*
G36*
X945559D02*
X943500D01*
Y740473D01*
X946579D01*
Y742138D01*
X946501Y742528D01*
X946280Y742859D01*
X945949Y743080D01*
X945559Y743157D01*
D02*
G37*
G36*
X1669527Y740500D02*
X1666843D01*
Y738835D01*
X1666920Y738445D01*
X1667141Y738114D01*
X1667472Y737893D01*
X1667862Y737815D01*
X1669527D01*
Y740500D01*
D02*
G37*
G36*
X1819527D02*
X1816843D01*
Y738835D01*
X1816920Y738445D01*
X1817141Y738114D01*
X1817472Y737893D01*
X1817862Y737815D01*
X1819527D01*
Y740500D01*
D02*
G37*
G36*
X1958980Y741000D02*
X1956520D01*
Y738540D01*
X1956803Y738577D01*
X1957533Y738879D01*
X1958159Y739360D01*
X1958640Y739987D01*
X1958942Y740717D01*
X1958980Y741000D01*
D02*
G37*
G36*
X1806500Y741960D02*
Y739500D01*
X1808960D01*
X1808923Y739783D01*
X1808620Y740513D01*
X1808140Y741140D01*
X1807513Y741620D01*
X1806783Y741923D01*
X1806500Y741960D01*
D02*
G37*
G36*
X1656547D02*
Y739500D01*
X1659007D01*
X1658970Y739783D01*
X1658668Y740513D01*
X1658187Y741140D01*
X1657560Y741620D01*
X1656830Y741923D01*
X1656547Y741960D01*
D02*
G37*
G36*
X1992079Y741972D02*
X1989000D01*
Y739288D01*
X1991059D01*
X1991449Y739365D01*
X1991780Y739586D01*
X1992001Y739917D01*
X1992079Y740307D01*
Y741972D01*
D02*
G37*
%LPD*%
G36*
X1152819Y685331D02*
X1152897Y684940D01*
X1153118Y684610D01*
X1153423Y684406D01*
X1153475Y684162D01*
X1153462Y683876D01*
X1153262Y683742D01*
X1153085Y683477D01*
X1153023Y683165D01*
Y678835D01*
X1153085Y678522D01*
X1153262Y678258D01*
X1153526Y678081D01*
X1153839Y678019D01*
X1158169D01*
X1158481Y678081D01*
X1158746Y678258D01*
X1158923Y678522D01*
X1158985Y678835D01*
Y679783D01*
X1159523D01*
Y678835D01*
X1159585Y678522D01*
X1159762Y678258D01*
X1160026Y678081D01*
X1160339Y678019D01*
X1161287D01*
Y649119D01*
X1080221D01*
Y654154D01*
X1080721Y654187D01*
X1080776Y653769D01*
X1081058Y653088D01*
X1081507Y652503D01*
X1082092Y652054D01*
X1082773Y651772D01*
X1083504Y651676D01*
X1084235Y651772D01*
X1084916Y652054D01*
X1085501Y652503D01*
X1085791Y652881D01*
X1150716D01*
X1151007Y652503D01*
X1151592Y652054D01*
X1152273Y651772D01*
X1153004Y651676D01*
X1153735Y651772D01*
X1154416Y652054D01*
X1155001Y652503D01*
X1155450Y653088D01*
X1155732Y653769D01*
X1155828Y654500D01*
X1155732Y655231D01*
X1155450Y655912D01*
X1155001Y656497D01*
X1154416Y656946D01*
X1153735Y657228D01*
X1153004Y657324D01*
X1152273Y657228D01*
X1151592Y656946D01*
X1151007Y656497D01*
X1150716Y656118D01*
X1116721D01*
Y677771D01*
X1117669D01*
X1117981Y677833D01*
X1118246Y678010D01*
X1118286Y678070D01*
X1118663Y678219D01*
X1118904Y678163D01*
X1119026Y678081D01*
X1119339Y678019D01*
X1123669D01*
X1123981Y678081D01*
X1124246Y678258D01*
X1124423Y678522D01*
X1124485Y678835D01*
Y683165D01*
X1124423Y683477D01*
X1124246Y683742D01*
X1124045Y683876D01*
X1124033Y684162D01*
X1124085Y684406D01*
X1124390Y684610D01*
X1124611Y684940D01*
X1124689Y685331D01*
Y687283D01*
X1152819D01*
Y685331D01*
D02*
G37*
G36*
X1068819Y684331D02*
X1068897Y683941D01*
X1069118Y683610D01*
X1069423Y683406D01*
X1069475Y683162D01*
X1069462Y682876D01*
X1069262Y682742D01*
X1069085Y682478D01*
X1069023Y682165D01*
Y677835D01*
X1069085Y677523D01*
X1069262Y677258D01*
X1069526Y677081D01*
X1069839Y677019D01*
X1074169D01*
X1074481Y677081D01*
X1074746Y677258D01*
X1074923Y677523D01*
X1074985Y677835D01*
Y678783D01*
X1075523D01*
Y678087D01*
X1075585Y677774D01*
X1075762Y677510D01*
X1076026Y677333D01*
X1076339Y677271D01*
X1077787D01*
Y649119D01*
X996721D01*
Y677519D01*
X997669D01*
X997981Y677581D01*
X998246Y677758D01*
X998423Y678022D01*
X998485Y678335D01*
Y682665D01*
X998423Y682977D01*
X998246Y683242D01*
X998046Y683376D01*
X998033Y683662D01*
X998085Y683906D01*
X998390Y684110D01*
X998611Y684441D01*
X998689Y684831D01*
Y685531D01*
X1028819D01*
Y684583D01*
X1028897Y684193D01*
X1029118Y683862D01*
X1029423Y683658D01*
X1029475Y683414D01*
X1029462Y683128D01*
X1029262Y682994D01*
X1029085Y682729D01*
X1029023Y682417D01*
Y678087D01*
X1029085Y677774D01*
X1029262Y677510D01*
X1029526Y677333D01*
X1029839Y677271D01*
X1030787D01*
Y655000D01*
X1030879Y654534D01*
X1030889Y654520D01*
X1030885Y654500D01*
X1031009Y653881D01*
X1031359Y653356D01*
X1031885Y653005D01*
X1032504Y652881D01*
X1048933D01*
X1049054Y652588D01*
X1049503Y652003D01*
X1050088Y651554D01*
X1050769Y651272D01*
X1051500Y651176D01*
X1052231Y651272D01*
X1052912Y651554D01*
X1053497Y652003D01*
X1053946Y652588D01*
X1054067Y652881D01*
X1070216D01*
X1070507Y652503D01*
X1071092Y652054D01*
X1071773Y651772D01*
X1072504Y651676D01*
X1073235Y651772D01*
X1073916Y652054D01*
X1074501Y652503D01*
X1074950Y653088D01*
X1075232Y653769D01*
X1075328Y654500D01*
X1075232Y655231D01*
X1074950Y655912D01*
X1074501Y656497D01*
X1073916Y656946D01*
X1073235Y657228D01*
X1072504Y657324D01*
X1071773Y657228D01*
X1071092Y656946D01*
X1070507Y656497D01*
X1070216Y656118D01*
X1053339D01*
X1052912Y656446D01*
X1052231Y656728D01*
X1051500Y656824D01*
X1050769Y656728D01*
X1050088Y656446D01*
X1049661Y656118D01*
X1033221D01*
Y677271D01*
X1034169D01*
X1034481Y677333D01*
X1034746Y677510D01*
X1035262D01*
X1035526Y677333D01*
X1035839Y677271D01*
X1040169D01*
X1040481Y677333D01*
X1040746Y677510D01*
X1040923Y677774D01*
X1040985Y678087D01*
Y682417D01*
X1040923Y682729D01*
X1040746Y682994D01*
X1040545Y683128D01*
X1040533Y683414D01*
X1040585Y683658D01*
X1040890Y683862D01*
X1041111Y684193D01*
X1041189Y684583D01*
Y686287D01*
X1068819D01*
Y684331D01*
D02*
G37*
G36*
X1112319Y685083D02*
X1112397Y684692D01*
X1112618Y684362D01*
X1112923Y684158D01*
X1112975Y683914D01*
X1112962Y683628D01*
X1112762Y683494D01*
X1112585Y683229D01*
X1112523Y682917D01*
Y678587D01*
X1112585Y678274D01*
X1112762Y678010D01*
X1113026Y677833D01*
X1113339Y677771D01*
X1114287D01*
Y656118D01*
X1085791D01*
X1085501Y656497D01*
X1084916Y656946D01*
X1084235Y657228D01*
X1083504Y657324D01*
X1082773Y657228D01*
X1082092Y656946D01*
X1081507Y656497D01*
X1081058Y655912D01*
X1080776Y655231D01*
X1080721Y654813D01*
X1080221Y654846D01*
Y677271D01*
X1080669D01*
X1080981Y677333D01*
X1081246Y677510D01*
X1081423Y677774D01*
X1081485Y678087D01*
Y678673D01*
X1081732Y679269D01*
X1081828Y680000D01*
X1081732Y680731D01*
X1081485Y681327D01*
Y682417D01*
X1081423Y682729D01*
X1081246Y682994D01*
X1081046Y683128D01*
X1081033Y683414D01*
X1081085Y683658D01*
X1081390Y683862D01*
X1081611Y684193D01*
X1081689Y684583D01*
Y686031D01*
X1112319D01*
Y685083D01*
D02*
G37*
%LPC*%
G36*
X1141004Y685824D02*
X1140273Y685728D01*
X1139592Y685446D01*
X1139007Y684997D01*
X1138558Y684412D01*
X1138276Y683731D01*
X1138180Y683000D01*
X1138276Y682269D01*
X1138558Y681588D01*
X1139007Y681003D01*
X1139592Y680554D01*
X1139787Y680473D01*
Y663528D01*
X1139588Y663446D01*
X1139003Y662997D01*
X1138554Y662412D01*
X1138272Y661731D01*
X1138176Y661000D01*
X1138272Y660269D01*
X1138554Y659588D01*
X1139003Y659003D01*
X1139588Y658554D01*
X1140269Y658272D01*
X1141000Y658176D01*
X1141731Y658272D01*
X1142412Y658554D01*
X1142997Y659003D01*
X1143446Y659588D01*
X1143728Y660269D01*
X1143824Y661000D01*
X1143728Y661731D01*
X1143446Y662412D01*
X1142997Y662997D01*
X1142412Y663446D01*
X1142221Y663525D01*
Y680473D01*
X1142416Y680554D01*
X1143001Y681003D01*
X1143450Y681588D01*
X1143732Y682269D01*
X1143828Y683000D01*
X1143732Y683731D01*
X1143450Y684412D01*
X1143001Y684997D01*
X1142416Y685446D01*
X1141735Y685728D01*
X1141004Y685824D01*
D02*
G37*
G36*
X1056756Y683324D02*
X1056025Y683228D01*
X1055344Y682946D01*
X1054759Y682497D01*
X1054310Y681912D01*
X1054028Y681231D01*
X1053932Y680500D01*
X1054028Y679769D01*
X1054310Y679088D01*
X1054759Y678503D01*
X1055344Y678054D01*
X1055539Y677973D01*
Y663908D01*
X1055003Y663497D01*
X1054554Y662912D01*
X1054272Y662231D01*
X1054176Y661500D01*
X1054272Y660769D01*
X1054554Y660088D01*
X1055003Y659503D01*
X1055588Y659054D01*
X1056269Y658772D01*
X1057000Y658676D01*
X1057731Y658772D01*
X1058412Y659054D01*
X1058997Y659503D01*
X1059446Y660088D01*
X1059728Y660769D01*
X1059824Y661500D01*
X1059728Y662231D01*
X1059446Y662912D01*
X1058997Y663497D01*
X1058412Y663946D01*
X1057973Y664128D01*
Y677973D01*
X1058168Y678054D01*
X1058753Y678503D01*
X1059202Y679088D01*
X1059484Y679769D01*
X1059580Y680500D01*
X1059484Y681231D01*
X1059202Y681912D01*
X1058753Y682497D01*
X1058168Y682946D01*
X1057487Y683228D01*
X1056756Y683324D01*
D02*
G37*
%LPD*%
G36*
X1525815Y683831D02*
X1525893Y683440D01*
X1526114Y683110D01*
X1526419Y682906D01*
X1526471Y682662D01*
X1526458Y682376D01*
X1526258Y682242D01*
X1526081Y681978D01*
X1526019Y681665D01*
Y677335D01*
X1526081Y677023D01*
X1526258Y676758D01*
X1526523Y676581D01*
X1526835Y676519D01*
X1531165D01*
X1531478Y676581D01*
X1531742Y676758D01*
X1531919Y677023D01*
X1531981Y677335D01*
Y678283D01*
X1532519D01*
Y677587D01*
X1532581Y677275D01*
X1532758Y677010D01*
X1533022Y676833D01*
X1533335Y676771D01*
X1534783D01*
Y648619D01*
X1505287D01*
X1504997Y648997D01*
X1504412Y649446D01*
X1503731Y649728D01*
X1503000Y649824D01*
X1502269Y649728D01*
X1501588Y649446D01*
X1501003Y648997D01*
X1500713Y648619D01*
X1453717D01*
Y677019D01*
X1454665D01*
X1454978Y677081D01*
X1455242Y677258D01*
X1455419Y677523D01*
X1455481Y677835D01*
Y682165D01*
X1455419Y682478D01*
X1455242Y682742D01*
X1455042Y682876D01*
X1455029Y683162D01*
X1455081Y683406D01*
X1455386Y683610D01*
X1455607Y683941D01*
X1455685Y684331D01*
Y685031D01*
X1485815D01*
Y684083D01*
X1485893Y683693D01*
X1486114Y683362D01*
X1486419Y683157D01*
X1486471Y682914D01*
X1486458Y682628D01*
X1486258Y682494D01*
X1486081Y682230D01*
X1486019Y681917D01*
Y677587D01*
X1486081Y677275D01*
X1486258Y677010D01*
X1486522Y676833D01*
X1486835Y676771D01*
X1487783D01*
Y657027D01*
X1487588Y656946D01*
X1487003Y656497D01*
X1486554Y655912D01*
X1486272Y655231D01*
X1486176Y654500D01*
X1486272Y653769D01*
X1486554Y653088D01*
X1487003Y652503D01*
X1487588Y652054D01*
X1488269Y651772D01*
X1489000Y651676D01*
X1489731Y651772D01*
X1490412Y652054D01*
X1490839Y652382D01*
X1527213D01*
X1527503Y652003D01*
X1528088Y651554D01*
X1528769Y651272D01*
X1529500Y651176D01*
X1530231Y651272D01*
X1530912Y651554D01*
X1531497Y652003D01*
X1531946Y652588D01*
X1532228Y653269D01*
X1532324Y654000D01*
X1532228Y654731D01*
X1531946Y655412D01*
X1531497Y655997D01*
X1530912Y656446D01*
X1530231Y656728D01*
X1529500Y656824D01*
X1528769Y656728D01*
X1528088Y656446D01*
X1527503Y655997D01*
X1527213Y655618D01*
X1491567D01*
X1491446Y655912D01*
X1490997Y656497D01*
X1490412Y656946D01*
X1490217Y657027D01*
Y676771D01*
X1491165D01*
X1491477Y676833D01*
X1491742Y677010D01*
X1492258D01*
X1492523Y676833D01*
X1492835Y676771D01*
X1497165D01*
X1497478Y676833D01*
X1497742Y677010D01*
X1497919Y677275D01*
X1497981Y677587D01*
Y681917D01*
X1497919Y682230D01*
X1497742Y682494D01*
X1497542Y682628D01*
X1497529Y682914D01*
X1497581Y683157D01*
X1497886Y683362D01*
X1498107Y683693D01*
X1498185Y684083D01*
Y685787D01*
X1525815D01*
Y683831D01*
D02*
G37*
G36*
X1609815Y684831D02*
X1609893Y684441D01*
X1610114Y684110D01*
X1610419Y683906D01*
X1610471Y683662D01*
X1610459Y683376D01*
X1610258Y683242D01*
X1610081Y682977D01*
X1610019Y682665D01*
Y678335D01*
X1610081Y678022D01*
X1610258Y677758D01*
X1610522Y677581D01*
X1610835Y677519D01*
X1615165D01*
X1615478Y677581D01*
X1615742Y677758D01*
X1615919Y678022D01*
X1615981Y678335D01*
Y679283D01*
X1616519D01*
Y678335D01*
X1616581Y678022D01*
X1616758Y677758D01*
X1617023Y677581D01*
X1617335Y677519D01*
X1618283D01*
Y648619D01*
X1587787D01*
X1587497Y648997D01*
X1586912Y649446D01*
X1586231Y649728D01*
X1585500Y649824D01*
X1584769Y649728D01*
X1584088Y649446D01*
X1583503Y648997D01*
X1583213Y648619D01*
X1537217D01*
Y653654D01*
X1537717Y653687D01*
X1537772Y653269D01*
X1538054Y652588D01*
X1538503Y652003D01*
X1539088Y651554D01*
X1539769Y651272D01*
X1540500Y651176D01*
X1541231Y651272D01*
X1541912Y651554D01*
X1542497Y652003D01*
X1542787Y652382D01*
X1607713D01*
X1608003Y652003D01*
X1608588Y651554D01*
X1609269Y651272D01*
X1610000Y651176D01*
X1610731Y651272D01*
X1611412Y651554D01*
X1611997Y652003D01*
X1612446Y652588D01*
X1612728Y653269D01*
X1612824Y654000D01*
X1612728Y654731D01*
X1612446Y655412D01*
X1611997Y655997D01*
X1611412Y656446D01*
X1610731Y656728D01*
X1610000Y656824D01*
X1609269Y656728D01*
X1608588Y656446D01*
X1608003Y655997D01*
X1607713Y655618D01*
X1573717D01*
Y677271D01*
X1574665D01*
X1574977Y677333D01*
X1575242Y677510D01*
X1575282Y677570D01*
X1575659Y677719D01*
X1575900Y677663D01*
X1576023Y677581D01*
X1576335Y677519D01*
X1580665D01*
X1580978Y677581D01*
X1581242Y677758D01*
X1581419Y678022D01*
X1581481Y678335D01*
Y682665D01*
X1581419Y682977D01*
X1581242Y683242D01*
X1581042Y683376D01*
X1581029Y683662D01*
X1581081Y683906D01*
X1581386Y684110D01*
X1581607Y684441D01*
X1581685Y684831D01*
Y686783D01*
X1609815D01*
Y684831D01*
D02*
G37*
G36*
X1785315Y683831D02*
X1785393Y683440D01*
X1785614Y683110D01*
X1785919Y682906D01*
X1785971Y682662D01*
X1785958Y682376D01*
X1785758Y682242D01*
X1785581Y681978D01*
X1785519Y681665D01*
Y677335D01*
X1785581Y677023D01*
X1785758Y676758D01*
X1786023Y676581D01*
X1786335Y676519D01*
X1790665D01*
X1790977Y676581D01*
X1791242Y676758D01*
X1791419Y677023D01*
X1791481Y677335D01*
Y678283D01*
X1792019D01*
Y677587D01*
X1792081Y677275D01*
X1792258Y677010D01*
X1792522Y676833D01*
X1792835Y676771D01*
X1794283D01*
Y648619D01*
X1750339D01*
X1749912Y648946D01*
X1749231Y649228D01*
X1748500Y649324D01*
X1747769Y649228D01*
X1747088Y648946D01*
X1746661Y648619D01*
X1713217D01*
Y677019D01*
X1714165D01*
X1714478Y677081D01*
X1714742Y677258D01*
X1714919Y677523D01*
X1714981Y677835D01*
Y682165D01*
X1714919Y682478D01*
X1714742Y682742D01*
X1714541Y682876D01*
X1714529Y683162D01*
X1714581Y683406D01*
X1714886Y683610D01*
X1715107Y683941D01*
X1715185Y684331D01*
Y685031D01*
X1745315D01*
Y684083D01*
X1745393Y683693D01*
X1745614Y683362D01*
X1745919Y683157D01*
X1745971Y682914D01*
X1745959Y682628D01*
X1745758Y682494D01*
X1745581Y682230D01*
X1745519Y681917D01*
Y677587D01*
X1745581Y677275D01*
X1745758Y677010D01*
X1746022Y676833D01*
X1746335Y676771D01*
X1747283D01*
Y656118D01*
X1720287D01*
X1719997Y656497D01*
X1719412Y656946D01*
X1718731Y657228D01*
X1718000Y657324D01*
X1717269Y657228D01*
X1716588Y656946D01*
X1716003Y656497D01*
X1715554Y655912D01*
X1715272Y655231D01*
X1715176Y654500D01*
X1715272Y653769D01*
X1715554Y653088D01*
X1716003Y652503D01*
X1716588Y652054D01*
X1717269Y651772D01*
X1718000Y651676D01*
X1718731Y651772D01*
X1719412Y652054D01*
X1719997Y652503D01*
X1720287Y652881D01*
X1786433D01*
X1786554Y652588D01*
X1787003Y652003D01*
X1787588Y651554D01*
X1788269Y651272D01*
X1789000Y651176D01*
X1789731Y651272D01*
X1790412Y651554D01*
X1790997Y652003D01*
X1791446Y652588D01*
X1791728Y653269D01*
X1791824Y654000D01*
X1791728Y654731D01*
X1791446Y655412D01*
X1790997Y655997D01*
X1790412Y656446D01*
X1789731Y656728D01*
X1789000Y656824D01*
X1788269Y656728D01*
X1787588Y656446D01*
X1787161Y656118D01*
X1775255D01*
X1775086Y656618D01*
X1775446Y657088D01*
X1775728Y657769D01*
X1775824Y658500D01*
X1775728Y659231D01*
X1775446Y659912D01*
X1774997Y660497D01*
X1774469Y660902D01*
Y677473D01*
X1774664Y677554D01*
X1775249Y678003D01*
X1775698Y678588D01*
X1775980Y679269D01*
X1776076Y680000D01*
X1775980Y680731D01*
X1775698Y681412D01*
X1775249Y681997D01*
X1774664Y682446D01*
X1773983Y682728D01*
X1773252Y682824D01*
X1772521Y682728D01*
X1771840Y682446D01*
X1771255Y681997D01*
X1770806Y681412D01*
X1770524Y680731D01*
X1770428Y680000D01*
X1770524Y679269D01*
X1770806Y678588D01*
X1771255Y678003D01*
X1771840Y677554D01*
X1772035Y677473D01*
Y661131D01*
X1771588Y660946D01*
X1771003Y660497D01*
X1770554Y659912D01*
X1770272Y659231D01*
X1770176Y658500D01*
X1770272Y657769D01*
X1770554Y657088D01*
X1770914Y656618D01*
X1770745Y656118D01*
X1749717D01*
Y676771D01*
X1750665D01*
X1750978Y676833D01*
X1751242Y677010D01*
X1751758D01*
X1752023Y676833D01*
X1752335Y676771D01*
X1756665D01*
X1756977Y676833D01*
X1757242Y677010D01*
X1757419Y677275D01*
X1757481Y677587D01*
Y681917D01*
X1757419Y682230D01*
X1757242Y682494D01*
X1757042Y682628D01*
X1757029Y682914D01*
X1757081Y683157D01*
X1757386Y683362D01*
X1757607Y683693D01*
X1757685Y684083D01*
Y685787D01*
X1785315D01*
Y683831D01*
D02*
G37*
G36*
X1828815Y684583D02*
X1828893Y684193D01*
X1829114Y683862D01*
X1829419Y683658D01*
X1829471Y683414D01*
X1829458Y683128D01*
X1829258Y682994D01*
X1829081Y682729D01*
X1829019Y682417D01*
Y678087D01*
X1829081Y677774D01*
X1829258Y677510D01*
X1829523Y677333D01*
X1829835Y677271D01*
X1830783D01*
Y655618D01*
X1802287D01*
X1801997Y655997D01*
X1801412Y656446D01*
X1800731Y656728D01*
X1800000Y656824D01*
X1799269Y656728D01*
X1798588Y656446D01*
X1798003Y655997D01*
X1797554Y655412D01*
X1797272Y654731D01*
X1797217Y654313D01*
X1796717Y654346D01*
Y676771D01*
X1797165D01*
X1797478Y676833D01*
X1797742Y677010D01*
X1797919Y677275D01*
X1797981Y677587D01*
Y678173D01*
X1798228Y678769D01*
X1798324Y679500D01*
X1798228Y680231D01*
X1797981Y680827D01*
Y681917D01*
X1797919Y682230D01*
X1797742Y682494D01*
X1797541Y682628D01*
X1797529Y682914D01*
X1797581Y683157D01*
X1797886Y683362D01*
X1798107Y683693D01*
X1798185Y684083D01*
Y685531D01*
X1828815D01*
Y684583D01*
D02*
G37*
G36*
X1654315Y685331D02*
X1654393Y684940D01*
X1654614Y684610D01*
X1654919Y684406D01*
X1654971Y684162D01*
X1654959Y683876D01*
X1654758Y683742D01*
X1654581Y683477D01*
X1654519Y683165D01*
Y678835D01*
X1654581Y678522D01*
X1654758Y678258D01*
X1655022Y678081D01*
X1655335Y678019D01*
X1656283D01*
Y655618D01*
X1627787D01*
X1627497Y655997D01*
X1626912Y656446D01*
X1626231Y656728D01*
X1625500Y656824D01*
X1624769Y656728D01*
X1624088Y656446D01*
X1623503Y655997D01*
X1623054Y655412D01*
X1622772Y654731D01*
X1622676Y654000D01*
X1622772Y653269D01*
X1623054Y652588D01*
X1623503Y652003D01*
X1624088Y651554D01*
X1624769Y651272D01*
X1625500Y651176D01*
X1626231Y651272D01*
X1626912Y651554D01*
X1627497Y652003D01*
X1627787Y652382D01*
X1698713D01*
X1699003Y652003D01*
X1699588Y651554D01*
X1700269Y651272D01*
X1701000Y651176D01*
X1701731Y651272D01*
X1702412Y651554D01*
X1702997Y652003D01*
X1703446Y652588D01*
X1703728Y653269D01*
X1703824Y654000D01*
X1703728Y654731D01*
X1703446Y655412D01*
X1702997Y655997D01*
X1702412Y656446D01*
X1701731Y656728D01*
X1701000Y656824D01*
X1700269Y656728D01*
X1699588Y656446D01*
X1699003Y655997D01*
X1698713Y655618D01*
X1691630D01*
X1691546Y655787D01*
X1691496Y656118D01*
X1691997Y656503D01*
X1692446Y657088D01*
X1692728Y657769D01*
X1692824Y658500D01*
X1692728Y659231D01*
X1692446Y659912D01*
X1691997Y660497D01*
X1691412Y660946D01*
X1691217Y661027D01*
Y677473D01*
X1691412Y677554D01*
X1691997Y678003D01*
X1692446Y678588D01*
X1692728Y679269D01*
X1692824Y680000D01*
X1692728Y680731D01*
X1692446Y681412D01*
X1691997Y681997D01*
X1691412Y682446D01*
X1690731Y682728D01*
X1690000Y682824D01*
X1689269Y682728D01*
X1688588Y682446D01*
X1688003Y681997D01*
X1687554Y681412D01*
X1687272Y680731D01*
X1687176Y680000D01*
X1687272Y679269D01*
X1687554Y678588D01*
X1688003Y678003D01*
X1688588Y677554D01*
X1688783Y677473D01*
Y661027D01*
X1688588Y660946D01*
X1688003Y660497D01*
X1687554Y659912D01*
X1687272Y659231D01*
X1687176Y658500D01*
X1687272Y657769D01*
X1687554Y657088D01*
X1688003Y656503D01*
X1688504Y656118D01*
X1688454Y655787D01*
X1688370Y655618D01*
X1658717D01*
Y678019D01*
X1659665D01*
X1659978Y678081D01*
X1660242Y678258D01*
X1660419Y678522D01*
X1660481Y678835D01*
Y679783D01*
X1661519D01*
Y678835D01*
X1661581Y678522D01*
X1661758Y678258D01*
X1662023Y678081D01*
X1662335Y678019D01*
X1666665D01*
X1666978Y678081D01*
X1667242Y678258D01*
X1667419Y678522D01*
X1667481Y678835D01*
Y683165D01*
X1667419Y683477D01*
X1667242Y683742D01*
X1667042Y683876D01*
X1667029Y684162D01*
X1667081Y684406D01*
X1667386Y684610D01*
X1667607Y684940D01*
X1667675Y685283D01*
X1701815D01*
Y684331D01*
X1701893Y683941D01*
X1702114Y683610D01*
X1702419Y683406D01*
X1702471Y683162D01*
X1702459Y682876D01*
X1702258Y682742D01*
X1702081Y682478D01*
X1702019Y682165D01*
Y677835D01*
X1702081Y677523D01*
X1702258Y677258D01*
X1702522Y677081D01*
X1702835Y677019D01*
X1707165D01*
X1707478Y677081D01*
X1707742Y677258D01*
X1707919Y677523D01*
X1707981Y677835D01*
Y678783D01*
X1709019D01*
Y677835D01*
X1709081Y677523D01*
X1709258Y677258D01*
X1709522Y677081D01*
X1709835Y677019D01*
X1710783D01*
Y648619D01*
X1678287D01*
X1677997Y648997D01*
X1677412Y649446D01*
X1676731Y649728D01*
X1676000Y649824D01*
X1675269Y649728D01*
X1674588Y649446D01*
X1674003Y648997D01*
X1673713Y648619D01*
X1620717D01*
Y677519D01*
X1621665D01*
X1621977Y677581D01*
X1622242Y677758D01*
X1622419Y678022D01*
X1622481Y678335D01*
Y682665D01*
X1622419Y682977D01*
X1622242Y683242D01*
X1622042Y683376D01*
X1622029Y683662D01*
X1622081Y683906D01*
X1622386Y684110D01*
X1622607Y684441D01*
X1622685Y684831D01*
Y685779D01*
X1654315D01*
Y685331D01*
D02*
G37*
G36*
X1569315Y684583D02*
X1569393Y684193D01*
X1569614Y683862D01*
X1569919Y683658D01*
X1569971Y683414D01*
X1569958Y683128D01*
X1569758Y682994D01*
X1569581Y682729D01*
X1569519Y682417D01*
Y678087D01*
X1569581Y677774D01*
X1569758Y677510D01*
X1570022Y677333D01*
X1570335Y677271D01*
X1571283D01*
Y655618D01*
X1542787D01*
X1542497Y655997D01*
X1541912Y656446D01*
X1541231Y656728D01*
X1540500Y656824D01*
X1539769Y656728D01*
X1539088Y656446D01*
X1538503Y655997D01*
X1538054Y655412D01*
X1537772Y654731D01*
X1537717Y654313D01*
X1537217Y654346D01*
Y676771D01*
X1537665D01*
X1537978Y676833D01*
X1538242Y677010D01*
X1538419Y677275D01*
X1538481Y677587D01*
Y678173D01*
X1538728Y678769D01*
X1538824Y679500D01*
X1538728Y680231D01*
X1538481Y680827D01*
Y681917D01*
X1538419Y682230D01*
X1538242Y682494D01*
X1538041Y682628D01*
X1538029Y682914D01*
X1538081Y683157D01*
X1538386Y683362D01*
X1538607Y683693D01*
X1538685Y684083D01*
Y685531D01*
X1569315D01*
Y684583D01*
D02*
G37*
G36*
X1869315Y684831D02*
X1869393Y684441D01*
X1869614Y684110D01*
X1869919Y683906D01*
X1869971Y683662D01*
X1869958Y683376D01*
X1869758Y683242D01*
X1869581Y682977D01*
X1869519Y682665D01*
Y678335D01*
X1869581Y678022D01*
X1869758Y677758D01*
X1870023Y677581D01*
X1870335Y677519D01*
X1874665D01*
X1874977Y677581D01*
X1875242Y677758D01*
X1875419Y678022D01*
X1875481Y678335D01*
Y679283D01*
X1876019D01*
Y678335D01*
X1876081Y678022D01*
X1876258Y677758D01*
X1876522Y677581D01*
X1876835Y677519D01*
X1877783D01*
Y648619D01*
X1847287D01*
X1846997Y648997D01*
X1846412Y649446D01*
X1845731Y649728D01*
X1845000Y649824D01*
X1844269Y649728D01*
X1843588Y649446D01*
X1843003Y648997D01*
X1842713Y648619D01*
X1796717D01*
Y653654D01*
X1797217Y653687D01*
X1797272Y653269D01*
X1797554Y652588D01*
X1798003Y652003D01*
X1798588Y651554D01*
X1799269Y651272D01*
X1800000Y651176D01*
X1800731Y651272D01*
X1801412Y651554D01*
X1801997Y652003D01*
X1802287Y652382D01*
X1867213D01*
X1867503Y652003D01*
X1868088Y651554D01*
X1868769Y651272D01*
X1869500Y651176D01*
X1870231Y651272D01*
X1870912Y651554D01*
X1871497Y652003D01*
X1871946Y652588D01*
X1872228Y653269D01*
X1872324Y654000D01*
X1872228Y654731D01*
X1871946Y655412D01*
X1871497Y655997D01*
X1870912Y656446D01*
X1870231Y656728D01*
X1869500Y656824D01*
X1868769Y656728D01*
X1868088Y656446D01*
X1867503Y655997D01*
X1867213Y655618D01*
X1833217D01*
Y677271D01*
X1834165D01*
X1834477Y677333D01*
X1834742Y677510D01*
X1834782Y677570D01*
X1835159Y677719D01*
X1835400Y677663D01*
X1835522Y677581D01*
X1835835Y677519D01*
X1840165D01*
X1840478Y677581D01*
X1840742Y677758D01*
X1840919Y678022D01*
X1840981Y678335D01*
Y682665D01*
X1840919Y682977D01*
X1840742Y683242D01*
X1840541Y683376D01*
X1840529Y683662D01*
X1840581Y683906D01*
X1840886Y684110D01*
X1841107Y684441D01*
X1841185Y684831D01*
Y685779D01*
X1857124D01*
X1857157Y685279D01*
X1856769Y685228D01*
X1856088Y684946D01*
X1855503Y684497D01*
X1855054Y683912D01*
X1854772Y683231D01*
X1854676Y682500D01*
X1854772Y681769D01*
X1855054Y681088D01*
X1855503Y680503D01*
X1856088Y680054D01*
X1856283Y679973D01*
Y663027D01*
X1856088Y662946D01*
X1855503Y662497D01*
X1855054Y661912D01*
X1854772Y661231D01*
X1854676Y660500D01*
X1854772Y659769D01*
X1855054Y659088D01*
X1855503Y658503D01*
X1856088Y658054D01*
X1856769Y657772D01*
X1857500Y657676D01*
X1858231Y657772D01*
X1858912Y658054D01*
X1859497Y658503D01*
X1859946Y659088D01*
X1860228Y659769D01*
X1860324Y660500D01*
X1860228Y661231D01*
X1859946Y661912D01*
X1859497Y662497D01*
X1858912Y662946D01*
X1858717Y663027D01*
Y679973D01*
X1858912Y680054D01*
X1859497Y680503D01*
X1859946Y681088D01*
X1860228Y681769D01*
X1860324Y682500D01*
X1860228Y683231D01*
X1859946Y683912D01*
X1859497Y684497D01*
X1858912Y684946D01*
X1858231Y685228D01*
X1857843Y685279D01*
X1857876Y685779D01*
X1869315D01*
Y684831D01*
D02*
G37*
%LPC*%
G36*
X1513752Y682824D02*
X1513021Y682728D01*
X1512340Y682446D01*
X1511755Y681997D01*
X1511306Y681412D01*
X1511024Y680731D01*
X1510928Y680000D01*
X1511024Y679269D01*
X1511306Y678588D01*
X1511755Y678003D01*
X1512340Y677554D01*
X1512535Y677473D01*
Y663778D01*
X1512340Y663698D01*
X1511755Y663249D01*
X1511306Y662664D01*
X1511024Y661983D01*
X1510928Y661252D01*
X1511024Y660521D01*
X1511306Y659840D01*
X1511755Y659255D01*
X1512340Y658806D01*
X1513021Y658524D01*
X1513752Y658428D01*
X1514483Y658524D01*
X1515164Y658806D01*
X1515749Y659255D01*
X1516198Y659840D01*
X1516480Y660521D01*
X1516576Y661252D01*
X1516480Y661983D01*
X1516198Y662664D01*
X1515749Y663249D01*
X1515164Y663698D01*
X1514969Y663778D01*
Y677473D01*
X1515164Y677554D01*
X1515749Y678003D01*
X1516198Y678588D01*
X1516480Y679269D01*
X1516576Y680000D01*
X1516480Y680731D01*
X1516198Y681412D01*
X1515749Y681997D01*
X1515164Y682446D01*
X1514483Y682728D01*
X1513752Y682824D01*
D02*
G37*
G36*
X1598252Y685324D02*
X1597521Y685228D01*
X1596840Y684946D01*
X1596255Y684497D01*
X1595806Y683912D01*
X1595524Y683231D01*
X1595428Y682500D01*
X1595524Y681769D01*
X1595806Y681088D01*
X1596255Y680503D01*
X1596840Y680054D01*
X1597035Y679973D01*
Y663631D01*
X1596588Y663446D01*
X1596003Y662997D01*
X1595554Y662412D01*
X1595272Y661731D01*
X1595176Y661000D01*
X1595272Y660269D01*
X1595554Y659588D01*
X1596003Y659003D01*
X1596588Y658554D01*
X1597269Y658272D01*
X1598000Y658176D01*
X1598731Y658272D01*
X1599412Y658554D01*
X1599997Y659003D01*
X1600446Y659588D01*
X1600728Y660269D01*
X1600824Y661000D01*
X1600728Y661731D01*
X1600446Y662412D01*
X1599997Y662997D01*
X1599469Y663402D01*
Y679973D01*
X1599664Y680054D01*
X1600249Y680503D01*
X1600698Y681088D01*
X1600980Y681769D01*
X1601076Y682500D01*
X1600980Y683231D01*
X1600698Y683912D01*
X1600249Y684497D01*
X1599664Y684946D01*
X1598983Y685228D01*
X1598252Y685324D01*
D02*
G37*
%LPD*%
D19*
X981004Y589000D02*
D03*
X987500D02*
D03*
X891000Y675000D02*
D03*
X897496D02*
D03*
X891000Y684000D02*
D03*
X897496D02*
D03*
X891000Y666500D02*
D03*
X897496D02*
D03*
X862000Y675000D02*
D03*
X868496D02*
D03*
X862000Y666500D02*
D03*
X868496D02*
D03*
X862000Y684000D02*
D03*
X868496D02*
D03*
X1159652Y752196D02*
D03*
X1166148D02*
D03*
X1165396Y814196D02*
D03*
X1158900D02*
D03*
X1159652Y744196D02*
D03*
X1166148D02*
D03*
X1165396Y821796D02*
D03*
X1158900D02*
D03*
X1013124Y752196D02*
D03*
X1019621D02*
D03*
X1018869Y814196D02*
D03*
X1012372D02*
D03*
X1013124Y744196D02*
D03*
X1019621D02*
D03*
X1018869Y821796D02*
D03*
X1012372D02*
D03*
X862624Y752196D02*
D03*
X869121D02*
D03*
X868369Y814196D02*
D03*
X861872D02*
D03*
X862624Y744196D02*
D03*
X869121D02*
D03*
X868369Y821796D02*
D03*
X861872D02*
D03*
X1552752Y752248D02*
D03*
X1559248D02*
D03*
X1558748Y819748D02*
D03*
X1552252D02*
D03*
X1553004Y744248D02*
D03*
X1559500D02*
D03*
X1558748Y812248D02*
D03*
X1552252D02*
D03*
X1497748Y752496D02*
D03*
X1504244D02*
D03*
X1503744Y819996D02*
D03*
X1497248D02*
D03*
X1498000Y744496D02*
D03*
X1504496D02*
D03*
X1503744Y812496D02*
D03*
X1497248D02*
D03*
X1443870Y753000D02*
D03*
X1450366D02*
D03*
X1449866Y820500D02*
D03*
X1443370D02*
D03*
X1444122Y745000D02*
D03*
X1450618D02*
D03*
X1449866Y813000D02*
D03*
X1443370D02*
D03*
X1908124Y754696D02*
D03*
X1914621D02*
D03*
X1913869Y816696D02*
D03*
X1907372D02*
D03*
X1908124Y746696D02*
D03*
X1914621D02*
D03*
X1913869Y824296D02*
D03*
X1907372D02*
D03*
X1608152Y752196D02*
D03*
X1614648D02*
D03*
X1613896Y814196D02*
D03*
X1607400D02*
D03*
X1608152Y744196D02*
D03*
X1614648D02*
D03*
X1613896Y821796D02*
D03*
X1607400D02*
D03*
X1758152Y752196D02*
D03*
X1764648D02*
D03*
X1763896Y814196D02*
D03*
X1757400D02*
D03*
X1758152Y744196D02*
D03*
X1764648D02*
D03*
X1763896Y821796D02*
D03*
X1757400D02*
D03*
D20*
X1200504Y687996D02*
D03*
Y681500D02*
D03*
X1207504Y687996D02*
D03*
Y681500D02*
D03*
X1162504Y681000D02*
D03*
Y687496D02*
D03*
X1156004Y681000D02*
D03*
Y687496D02*
D03*
X1121504D02*
D03*
Y681000D02*
D03*
X1115504Y687248D02*
D03*
Y680752D02*
D03*
X1078504Y680252D02*
D03*
Y686748D02*
D03*
X1072004Y680000D02*
D03*
Y686496D02*
D03*
X1038004Y686748D02*
D03*
Y680252D02*
D03*
X1032004Y686748D02*
D03*
Y680252D02*
D03*
X995504Y680500D02*
D03*
Y686996D02*
D03*
X988504Y680500D02*
D03*
Y686996D02*
D03*
X1917000Y687496D02*
D03*
Y681000D02*
D03*
X1924000Y687496D02*
D03*
Y681000D02*
D03*
X1657500Y687496D02*
D03*
Y681000D02*
D03*
X1664500Y687496D02*
D03*
Y681000D02*
D03*
X1879000Y680500D02*
D03*
Y686996D02*
D03*
X1872500Y680500D02*
D03*
Y686996D02*
D03*
X1619500Y680500D02*
D03*
Y686996D02*
D03*
X1613000Y680500D02*
D03*
Y686996D02*
D03*
X1838000D02*
D03*
Y680500D02*
D03*
X1832000Y686748D02*
D03*
Y680252D02*
D03*
X1578500Y686996D02*
D03*
Y680500D02*
D03*
X1572500Y686748D02*
D03*
Y680252D02*
D03*
X1795000Y679752D02*
D03*
Y686248D02*
D03*
X1788500Y679500D02*
D03*
Y685996D02*
D03*
X1535500Y679752D02*
D03*
Y686248D02*
D03*
X1529000Y679500D02*
D03*
Y685996D02*
D03*
X1754500Y686248D02*
D03*
Y679752D02*
D03*
X1748500Y686248D02*
D03*
Y679752D02*
D03*
X1495000Y686248D02*
D03*
Y679752D02*
D03*
X1489000Y686248D02*
D03*
Y679752D02*
D03*
X1712000Y680000D02*
D03*
Y686496D02*
D03*
X1705000Y680000D02*
D03*
Y686496D02*
D03*
X1452500Y680000D02*
D03*
Y686496D02*
D03*
X1445500Y680000D02*
D03*
Y686496D02*
D03*
X868500Y616000D02*
D03*
Y609504D02*
D03*
X1208528Y878000D02*
D03*
Y871504D02*
D03*
X1199528Y878000D02*
D03*
Y871504D02*
D03*
X1221528Y747496D02*
D03*
Y741000D02*
D03*
X1230028Y747496D02*
D03*
Y741000D02*
D03*
X1062000Y878000D02*
D03*
Y871504D02*
D03*
X1053000Y878000D02*
D03*
Y871504D02*
D03*
X1075000Y747496D02*
D03*
Y741000D02*
D03*
X1083500Y747496D02*
D03*
Y741000D02*
D03*
X911500Y878000D02*
D03*
Y871504D02*
D03*
X902500Y878000D02*
D03*
Y871504D02*
D03*
X924500Y747496D02*
D03*
Y741000D02*
D03*
X933000Y747496D02*
D03*
Y741000D02*
D03*
X1329000Y877972D02*
D03*
Y871476D02*
D03*
X1320000Y877972D02*
D03*
Y871476D02*
D03*
X1342000Y747469D02*
D03*
Y740972D02*
D03*
X1350500Y747469D02*
D03*
Y740972D02*
D03*
X1957000Y880500D02*
D03*
Y874004D02*
D03*
X1948000Y880500D02*
D03*
Y874004D02*
D03*
X1970000Y749996D02*
D03*
Y743500D02*
D03*
X1978500Y749996D02*
D03*
Y743500D02*
D03*
X1657028Y878000D02*
D03*
Y871504D02*
D03*
X1648028Y878000D02*
D03*
Y871504D02*
D03*
X1670028Y747496D02*
D03*
Y741000D02*
D03*
X1678528Y747496D02*
D03*
Y741000D02*
D03*
X1807028Y878000D02*
D03*
Y871504D02*
D03*
X1798028Y878000D02*
D03*
Y871504D02*
D03*
X1820028Y747496D02*
D03*
Y741000D02*
D03*
X1828528Y747496D02*
D03*
Y741000D02*
D03*
D21*
X894000Y606500D02*
D03*
Y616736D02*
D03*
D22*
X989500Y579500D02*
D03*
X979264D02*
D03*
D31*
X1922252Y687000D02*
X1924000Y688748D01*
X1871500Y686996D02*
X1872504Y688000D01*
X1917000Y687000D02*
X1922252D01*
X1832496D02*
X1838000D01*
X1754256Y687004D02*
X1788500D01*
X1874008Y686496D02*
X1879000D01*
X1788500Y687004D02*
X1789008Y686496D01*
X1753500Y686248D02*
X1754256Y687004D01*
X1665496Y686500D02*
X1705504D01*
X1662752Y687000D02*
X1664500Y688748D01*
X1613004Y688000D02*
X1614508Y686496D01*
X1657500Y687000D02*
X1662752D01*
X1579504Y688000D02*
X1613004D01*
X1572500Y687496D02*
X1572874Y687122D01*
X1572996Y687000D02*
X1578500D01*
X1495756Y687004D02*
X1529000D01*
X1614508Y686496D02*
X1619500D01*
X1529000Y687004D02*
X1529508Y686496D01*
X1205756Y687500D02*
X1207504Y689248D01*
X1200504Y687500D02*
X1205756D01*
X1122504Y688500D02*
X1156008D01*
X1157512Y686996D02*
X1162504D01*
X1156008Y688500D02*
X1157512Y686996D01*
X1115504Y687996D02*
X1115878Y687622D01*
X1116000Y687500D02*
X1121504D01*
X1078256Y687248D02*
X1115504D01*
X1072004Y687504D02*
X1072512Y686996D01*
X1038760Y687504D02*
X1072004D01*
X1078004Y686996D02*
X1078256Y687248D01*
X882500Y811500D02*
Y825500D01*
X875004Y832996D02*
X882500Y825500D01*
X866321Y832996D02*
X875004D01*
X1504000Y744500D02*
X1504496Y744996D01*
X1788500Y680500D02*
X1789500Y679500D01*
X1705500D02*
X1706000Y680000D01*
X1789500Y679500D02*
X1795500D01*
X1504000Y740000D02*
Y744500D01*
X1530000Y679500D02*
X1536000D01*
X1529000Y680500D02*
X1530000Y679500D01*
X1446000D02*
X1446500Y680000D01*
X1072004Y681000D02*
X1073004Y680000D01*
X1079004D01*
X989004D02*
X989504Y680500D01*
X1489000Y847000D02*
X1543500D01*
X1736500Y632000D02*
X1857500D01*
X1598252Y660748D02*
Y682500D01*
X1832000Y681000D02*
X1838000D01*
X1748500Y679752D02*
X1754500D01*
X1748248Y679500D02*
X1748500Y679752D01*
X1748248Y679500D02*
X1748500D01*
X1572500Y681000D02*
X1578500D01*
X1489000Y679752D02*
X1495000D01*
X1115504Y681500D02*
X1121504D01*
X1488748Y679500D02*
X1489000D01*
X1488748D02*
X1489000Y679752D01*
X1031752Y680000D02*
X1032004Y680252D01*
X1038004D01*
X1031752Y680000D02*
X1032004D01*
X895000Y655000D02*
X897496Y657496D01*
X1763896Y815654D02*
X1765354Y814196D01*
X874472Y892000D02*
X882969Y900496D01*
X1620000Y892000D02*
X1628496Y900496D01*
X1024972Y892000D02*
X1033469Y900496D01*
X1171500Y892000D02*
X1179996Y900496D01*
X1770000Y892000D02*
X1778496Y900496D01*
X1919972Y894500D02*
X1928469Y902996D01*
X1901772Y829728D02*
X1903045Y831000D01*
X1920500D01*
X1901772Y821096D02*
Y829728D01*
X1897327Y821096D02*
X1901772D01*
X1925000Y835500D02*
X1927500Y833000D01*
X1924996Y835496D02*
X1925000Y835500D01*
X1911820Y835496D02*
X1924996D01*
X1008876Y829500D02*
X1024500D01*
X1007572Y828196D02*
X1008876Y829500D01*
X853000Y831000D02*
Y834000D01*
X857500Y838500D01*
X1473500Y832000D02*
X1507500D01*
X1471500Y830000D02*
X1473500Y832000D01*
X1605904Y829500D02*
X1619696D01*
X1604904Y830500D02*
X1605904Y829500D01*
X1602600Y828196D02*
X1604904Y830500D01*
X1513500Y630000D02*
X1598000D01*
X1477000D02*
X1513500D01*
X1476500Y629500D02*
X1477000Y630000D01*
X1431000Y629500D02*
X1476500D01*
X1140500Y637500D02*
X1230500D01*
X1069000D02*
X1140500D01*
X1057500Y626000D02*
X1069000Y637500D01*
X1022500Y626000D02*
X1057500D01*
X1050000Y622500D02*
X1055500Y617000D01*
X1235500D01*
X1162504Y647500D02*
Y681000D01*
X867820Y739000D02*
X878000D01*
X910520D01*
X1200504Y654500D02*
Y681500D01*
X973000Y656500D02*
X973504Y657004D01*
Y680500D01*
X1056756Y661744D02*
X1057000Y661500D01*
X1056756Y661744D02*
Y680500D01*
X1141000Y661000D02*
X1141004Y661004D01*
Y683000D01*
X1038004Y686748D02*
X1038760Y687504D01*
X1121504Y687500D02*
X1122504Y688500D01*
X1857500Y660500D02*
Y682500D01*
X1690000Y658500D02*
Y680000D01*
X1598000Y661000D02*
X1598252Y660748D01*
X1429500Y659000D02*
X1430500Y660000D01*
Y680000D01*
X1513752Y661252D02*
Y680000D01*
X1773000Y658500D02*
X1773252Y658752D01*
Y680000D01*
X995504Y647500D02*
Y680500D01*
X1602600Y819396D02*
Y828196D01*
X1608152Y744196D02*
Y752196D01*
X1617513Y814196D02*
X1621400Y810310D01*
X1613896Y814196D02*
Y821796D01*
X1607400Y814196D02*
Y821796D01*
X1614648Y744196D02*
Y752196D01*
X1613896Y814196D02*
X1617513D01*
X1600600Y752196D02*
X1608152D01*
X1601800Y818596D02*
X1602600Y819396D01*
X1607000Y814596D02*
X1607400Y814196D01*
X1614648Y752196D02*
X1621000D01*
X1608152Y744196D02*
X1613348Y739000D01*
X1656047D01*
X1603388Y871504D02*
X1648028D01*
X1657028D01*
X1770000Y892000D02*
X1770500D01*
X1752600Y828196D02*
X1769000D01*
X1750600Y752196D02*
X1758152D01*
X1764648D02*
X1771000D01*
X1798028Y871504D02*
X1807028D01*
X1778496Y900496D02*
X1824496D01*
X1758152Y744196D02*
Y752196D01*
X1764648Y744196D02*
Y752196D01*
X1919972Y894500D02*
X1920472D01*
X1903361Y874004D02*
X1948000D01*
X1897327Y821096D02*
X1897423Y821000D01*
X1900572Y754696D02*
X1908124D01*
X1914621D02*
X1920972D01*
X1908124Y746696D02*
X1913321Y741500D01*
X1948000Y874004D02*
X1957000D01*
X1928469Y902996D02*
X1974468D01*
X1908124Y746696D02*
Y754696D01*
X1913321Y741500D02*
X1956020D01*
X1751800Y818596D02*
X1752600Y819396D01*
Y828196D01*
X1746500Y814096D02*
X1747000Y814596D01*
X1757000D01*
X1746500Y812500D02*
Y814096D01*
X1366000Y857500D02*
X1395472D01*
X1330031Y893468D02*
X1366000Y857500D01*
X1327500Y893468D02*
X1330031D01*
X1449500Y820866D02*
Y825500D01*
X1395472Y857500D02*
X1417000Y835972D01*
Y826500D02*
Y835972D01*
X1450366Y753000D02*
X1456500D01*
X1469500Y740000D01*
X1504000D01*
X1443870Y753000D02*
X1449870Y759000D01*
X1479500D01*
X1485500Y753000D01*
X1449500Y820866D02*
X1449866Y820500D01*
X1375531Y900469D02*
X1425000Y851000D01*
Y831000D02*
Y851000D01*
X1422000Y828000D02*
X1425000Y831000D01*
X1422000Y821000D02*
Y828000D01*
X1426500Y826000D02*
X1429000Y828500D01*
X1446500D01*
X1449500Y825500D01*
X1425000Y831000D02*
X1425500Y831500D01*
X1435118Y847000D02*
X1489000D01*
X1475059Y825559D02*
X1479500D01*
X1498181D01*
X1503744Y819996D01*
X1527500Y829236D02*
X1527677Y829413D01*
X1529500Y824492D02*
X1529992Y824000D01*
X1530492Y824500D01*
X1553996D02*
X1558748Y819748D01*
X1527677Y829413D02*
X1561587D01*
X1558748Y812248D02*
X1559500Y813000D01*
X1517504Y812496D02*
X1529500Y824492D01*
X1503744Y812496D02*
X1517504D01*
X1462500Y813000D02*
X1475059Y825559D01*
X1449866Y813000D02*
X1462500D01*
X874472Y892000D02*
X874972D01*
X902472Y871504D02*
X902500D01*
X850972Y814096D02*
X851472Y814596D01*
X850972Y812500D02*
Y814096D01*
X861472Y814596D02*
X861872Y814196D01*
X868369D02*
X871986D01*
X910520Y739000D02*
X912520D01*
X871986Y814196D02*
X875872Y810310D01*
X851472Y814596D02*
X861472D01*
X855072Y752196D02*
X862624D01*
X869121D02*
X875472D01*
X862624Y744196D02*
X867820Y739000D01*
X902500Y871504D02*
X911500D01*
X900484Y873492D02*
X902472Y871504D01*
X857072Y819396D02*
Y828196D01*
X861872Y814196D02*
Y821796D01*
X868369Y814196D02*
Y821796D01*
X862624Y744196D02*
Y752196D01*
X869121Y744196D02*
Y752196D01*
X855872Y873492D02*
X900484D01*
X1596500Y814096D02*
X1597000Y814596D01*
X1607000D01*
X1596500Y812500D02*
Y814096D01*
X882969Y900496D02*
X928969D01*
X1530500Y824500D02*
X1553996D01*
X1530492D02*
X1530500D01*
X1024972Y892000D02*
X1025472D01*
X1052972Y871504D02*
X1053000D01*
X1006772Y818596D02*
X1007572Y819396D01*
X1002327Y818596D02*
X1002423Y818500D01*
X1001472Y814096D02*
X1001972Y814596D01*
X1001472Y812500D02*
Y814096D01*
X1011972Y814596D02*
X1012372Y814196D01*
X1018869D02*
X1022486D01*
X1061020Y739000D02*
X1063020D01*
X1001972Y814596D02*
X1011972D01*
X1005572Y752196D02*
X1013124D01*
X1019621D02*
X1025972D01*
X1013124Y744196D02*
X1018320Y739000D01*
X1053000Y871504D02*
X1062000D01*
X1018320Y739000D02*
X1061020D01*
X1033469Y900496D02*
X1079469D01*
X1050984Y873492D02*
X1052972Y871504D01*
X1007572Y819396D02*
Y828196D01*
X1012372Y814196D02*
Y821796D01*
X1018869Y814196D02*
Y821796D01*
X1013124Y744196D02*
Y752196D01*
X1019621Y744196D02*
Y752196D01*
X1006372Y873492D02*
X1050984D01*
X1171500Y892000D02*
X1172000D01*
X1199500Y871504D02*
X1199528D01*
X1153300Y818596D02*
X1154100Y819396D01*
X1148854Y818596D02*
X1148950Y818500D01*
X1148000Y814096D02*
X1148500Y814596D01*
X1148000Y812500D02*
Y814096D01*
X1158500Y814596D02*
X1158900Y814196D01*
X1165396D02*
X1169013D01*
X1207547Y739000D02*
X1209547D01*
X1169013Y814196D02*
X1172900Y810310D01*
X1148500Y814596D02*
X1158500D01*
X1152100Y752196D02*
X1159652D01*
X1166148D02*
X1172500D01*
X1159652Y744196D02*
X1164848Y739000D01*
X1199528Y871504D02*
X1208528D01*
X1164848Y739000D02*
X1207547D01*
X1179996Y900496D02*
X1225996D01*
X1197512Y873492D02*
X1199500Y871504D01*
X1154100Y819396D02*
Y828196D01*
X1158900Y814196D02*
Y821796D01*
X1165396Y814196D02*
Y821796D01*
X1159652Y744196D02*
Y752196D01*
X1166148Y744196D02*
Y752196D01*
X1152900Y873492D02*
X1197512D01*
X1705000Y680000D02*
X1705500Y679500D01*
X1706000Y680000D02*
X1712000D01*
X1748500Y686248D02*
Y703500D01*
X1740000Y712000D02*
X1748500Y703500D01*
X1705504Y686500D02*
Y698508D01*
X1719000Y712004D01*
X1788500Y687004D02*
Y698500D01*
X1802000Y712000D01*
X1789008Y686496D02*
X1794500D01*
X1705508D02*
X1712000D01*
X1705504Y686500D02*
X1705508Y686496D01*
X1802000Y712000D02*
X1803004D01*
X1872504Y688000D02*
Y699004D01*
X1887000Y713500D01*
X1909000Y713000D02*
X1917000Y705000D01*
X1872500Y680500D02*
X1879000D01*
X1917000Y687000D02*
Y687496D01*
Y705000D01*
Y681000D02*
X1924000D01*
X1917000Y654000D02*
Y681000D01*
X1795500Y647000D02*
Y679500D01*
X1832000Y654000D02*
Y680000D01*
X1748500Y654500D02*
Y679500D01*
X1445500Y680000D02*
X1446000Y679500D01*
X1446004Y686500D02*
X1446008Y686496D01*
X1489000Y654500D02*
X1489500Y654000D01*
X1542500Y712000D02*
X1543504D01*
X1657500Y687000D02*
Y687496D01*
X1446004Y686500D02*
Y698508D01*
X1489000Y686248D02*
Y703500D01*
X1529000Y687004D02*
Y698500D01*
X1572500Y687496D02*
Y703748D01*
X1613004Y688000D02*
Y699004D01*
X1657500Y687496D02*
Y705000D01*
X1452500Y647000D02*
Y680000D01*
X1489000Y654500D02*
Y679500D01*
X1536000Y647000D02*
Y679500D01*
X1657500Y654000D02*
Y681000D01*
X1446500Y680000D02*
X1452500D01*
X1446008Y686496D02*
X1452500D01*
X1489000Y686248D02*
X1495000D01*
X1529508Y686496D02*
X1535000D01*
X1613000Y680500D02*
X1619500D01*
X1446004Y698508D02*
X1459500Y712004D01*
X1480500Y712000D02*
X1489000Y703500D01*
X1613004Y699004D02*
X1627500Y713500D01*
X1649500Y713000D02*
X1657500Y705000D01*
X1619500Y647000D02*
Y680500D01*
X1657500Y681000D02*
X1664500D01*
X1529000Y698500D02*
X1542500Y712000D01*
X1564248D02*
X1572500Y703748D01*
X988504Y680500D02*
X989004Y680000D01*
X989008Y687000D02*
X989012Y686996D01*
X1032004Y655000D02*
X1032504Y654500D01*
X1200504Y687500D02*
Y687996D01*
X989008Y687000D02*
Y699008D01*
X1032004Y686748D02*
Y704000D01*
X1072004Y687504D02*
Y699000D01*
X1115504Y687996D02*
Y704248D01*
X1156008Y688500D02*
Y699504D01*
X1200504Y687996D02*
Y705500D01*
X1032004Y655000D02*
Y680000D01*
X1079004Y647500D02*
Y680000D01*
X1115504Y654500D02*
Y680500D01*
X989504D02*
X995504D01*
X989012Y686996D02*
X995504D01*
X1032004Y686748D02*
X1038004D01*
X1072512Y686996D02*
X1078004D01*
X1085504Y712500D02*
X1086508D01*
X1156004Y681000D02*
X1162504D01*
X1200504Y681500D02*
X1207504D01*
X989008Y699008D02*
X1002504Y712504D01*
X1023504Y712500D02*
X1032004Y704000D01*
X1156008Y699504D02*
X1170504Y714000D01*
X1192504Y713500D02*
X1200504Y705500D01*
X1072004Y699000D02*
X1085504Y712500D01*
X1107252D02*
X1115504Y704248D01*
X1002327Y818596D02*
X1006772D01*
X1148854D02*
X1153300D01*
X1597354D02*
X1601800D01*
X1628496Y900496D02*
X1674496D01*
X1620000Y892000D02*
X1620500D01*
X1601400Y873492D02*
X1603388Y871504D01*
X1751400Y873492D02*
X1753388Y871504D01*
X1798028D01*
X1901372Y875992D02*
X1903361Y874004D01*
X1758152Y744196D02*
X1763348Y739000D01*
X1879500Y687496D02*
X1917000D01*
X1879000Y686996D02*
X1879500Y687496D01*
X1795500Y686748D02*
X1832000D01*
X1795000Y686248D02*
X1795500Y686748D01*
X1838000Y686996D02*
X1871500D01*
X1927520Y713000D02*
X1956020Y741500D01*
X1909000Y713000D02*
X1927520D01*
X1896972Y817096D02*
X1906972D01*
X1907372Y816696D01*
X1913869D02*
X1917486D01*
X1921372Y812809D01*
X1913869Y816696D02*
Y824296D01*
X1907372Y816696D02*
Y824296D01*
X1898686Y840314D02*
X1927686D01*
X1933000Y835000D01*
Y807500D02*
Y835000D01*
X1927500Y813748D02*
Y833000D01*
X1748713Y838500D02*
X1777000D01*
X1784500Y831000D01*
Y805000D02*
Y831000D01*
X1761848Y832996D02*
X1773004D01*
X1777500Y828500D01*
Y811000D02*
Y828500D01*
X1757000Y814596D02*
X1757400Y814196D01*
X1747354Y818596D02*
X1751800D01*
X1611848Y832996D02*
X1625004D01*
X1628000Y830000D01*
Y811500D02*
Y830000D01*
X1603000Y838000D02*
X1625000D01*
X1634000Y829000D01*
Y804000D02*
Y829000D01*
X1425500Y831500D02*
X1453000D01*
X1150213Y829287D02*
Y833213D01*
X1154000Y837000D01*
X1174500D01*
X1179000Y812000D02*
Y827500D01*
X1003686Y830186D02*
Y835186D01*
X1007500Y839000D01*
X1034500D01*
X1022486Y814196D02*
X1025500Y811182D01*
Y811000D02*
Y811182D01*
X1597354Y818596D02*
X1597450Y818500D01*
X1593000D02*
X1597450D01*
X1598500Y828500D02*
Y833500D01*
X1603000Y838000D01*
X1747354Y818596D02*
X1747450Y818500D01*
X1743000D02*
X1747450D01*
X1748000Y837787D02*
X1748713Y838500D01*
X1748000Y837787D02*
X1748500Y837287D01*
Y829000D02*
Y837287D01*
X1892000Y821000D02*
X1897423D01*
X1898500Y840128D02*
X1898686Y840314D01*
X1898500Y832500D02*
Y840128D01*
X1143500Y818500D02*
X1148950D01*
X1016821Y832996D02*
X1029504D01*
X1032000Y830500D01*
Y811500D02*
Y830500D01*
X1001923Y818000D02*
X1002423Y818500D01*
X996500Y818000D02*
X1001923D01*
X851827Y818596D02*
X851923Y818500D01*
X846000D02*
X851923D01*
X1879000Y647000D02*
Y680500D01*
X1803004Y712000D02*
X1806047Y715043D01*
X1806000Y715091D02*
X1806047Y715043D01*
X1806000Y715091D02*
Y739000D01*
X1763348D02*
X1806000D01*
X1929696Y746696D02*
X1930000Y747000D01*
X1914621Y746696D02*
X1929696D01*
X1914621D02*
Y754696D01*
X1656047Y719547D02*
Y739000D01*
X1649500Y713000D02*
X1656047Y719547D01*
X1712000Y647000D02*
Y680000D01*
X1748500Y686248D02*
X1753500D01*
X1712248D02*
X1748500D01*
X1712000Y686496D02*
X1712248Y686248D01*
X1664500Y687496D02*
X1665496Y686500D01*
X1578500Y686996D02*
X1579504Y688000D01*
X1536000Y686748D02*
X1572500D01*
X1535500Y686248D02*
X1536000Y686748D01*
X1495000Y686248D02*
X1495756Y687004D01*
X1452748Y686248D02*
X1489000D01*
X1452500Y686496D02*
X1452748Y686248D01*
X1543504Y712000D02*
Y734748D01*
X1553004Y744248D01*
X897496Y684000D02*
X897500Y683996D01*
X897496Y675000D02*
X897500D01*
X1572500Y654000D02*
Y680000D01*
X1619500Y686996D02*
X1657496D01*
X1657500Y687000D01*
X1163004Y687996D02*
X1200504D01*
X1162504Y687496D02*
X1163004Y687996D01*
X995752Y686748D02*
X1032004D01*
X995504Y686996D02*
X995752Y686748D01*
X1358716Y597000D02*
X1366216Y589500D01*
X1409000D01*
X1414000Y594500D01*
X1336905Y597000D02*
X1346406Y587500D01*
X1490500D01*
X1495752Y592752D01*
X1496000D01*
X1315094Y597000D02*
X1326595Y585500D01*
X1573000D01*
X1576500Y589000D01*
X1663000Y583500D02*
X1666000Y586500D01*
X1306783Y583500D02*
X1663000D01*
X1293283Y597000D02*
X1306783Y583500D01*
X1744248Y581500D02*
X1749000Y586252D01*
X1286972Y581500D02*
X1744248D01*
X1271472Y597000D02*
X1286972Y581500D01*
X1249661Y597000D02*
X1267161Y579500D01*
X1825000D01*
X1828500Y583000D01*
X1235500Y617000D02*
X1243500Y609000D01*
X1049000Y622500D02*
X1050000D01*
X1211500Y627500D02*
X1218000Y621000D01*
X1275012D01*
X1287831Y608181D01*
X1131000Y624752D02*
X1136752Y619000D01*
X1255201D01*
X1266020Y608181D01*
X1163348Y832996D02*
X1173504D01*
X1179000Y827500D01*
X1174500Y837000D02*
X1185500Y826000D01*
Y804500D02*
Y826000D01*
X851827Y818596D02*
X856272D01*
X857072Y819396D01*
X890000Y805000D02*
Y821500D01*
X857500Y838500D02*
X873000D01*
X890000Y821500D01*
X1034500Y839000D02*
X1039500Y834000D01*
Y805000D02*
Y834000D01*
X1832374Y687122D02*
X1837500Y692248D01*
Y698248D01*
X1823748Y712000D02*
X1837500Y698248D01*
X1690000Y640500D02*
X1698000Y632500D01*
X1698500Y633000D01*
X1699500Y632000D01*
X1736500D01*
X1154100Y828196D02*
X1154904Y829000D01*
X1170500D01*
X857072Y828196D02*
X857876Y829000D01*
X873500D01*
X1763896Y815654D02*
Y821796D01*
X1764000Y814196D02*
X1765354D01*
X1757400D02*
Y821796D01*
X1766196Y812000D02*
X1770000D01*
X1764000Y814196D02*
X1766196Y812000D01*
D32*
X1971000Y742500D02*
X1988500D01*
X1821028Y740000D02*
X1838528D01*
X1485496Y752496D02*
X1497748D01*
X1671028Y740000D02*
X1688528D01*
X1343000Y739972D02*
X1360500D01*
X1240028Y740000D02*
X1316992D01*
X1222528D02*
X1240028D01*
X1076000D02*
X1093500D01*
X925500D02*
X943000D01*
X1511000Y836500D02*
X1517000Y830500D01*
X1326996Y660004D02*
X1327500Y659500D01*
X1326996Y660004D02*
Y729996D01*
X1308500Y648000D02*
X1309000Y647500D01*
X1316992Y740000D02*
X1326996Y729996D01*
X1640528Y952000D02*
Y952028D01*
X1658532Y871504D02*
X1662028Y875000D01*
X1657028Y871504D02*
X1658532D01*
X1694248Y828279D02*
X1694468Y828500D01*
X1662028Y875000D02*
X1663028D01*
X1694468Y828500D02*
X1696638D01*
X1686996Y747496D02*
X1688528Y749028D01*
X1670028Y747496D02*
X1678528D01*
X1686996D01*
X1670028Y741000D02*
X1671028Y740000D01*
X1698528Y952000D02*
X1713528D01*
X1648028Y870252D02*
Y871504D01*
X1670028Y747496D02*
Y751500D01*
X1690028Y943500D02*
X1698528Y952000D01*
X1648028Y878000D02*
X1657028D01*
X1687528Y835000D02*
X1694248Y828279D01*
X1670028Y751500D02*
X1676528Y758000D01*
X1694028Y896000D02*
X1711028Y913000D01*
X1694028Y889500D02*
X1699280Y884248D01*
X1694028Y889500D02*
Y896000D01*
X1708528Y937000D02*
X1711528Y934000D01*
X1689500Y937000D02*
X1708528D01*
X1648028Y870252D02*
X1650000Y868279D01*
Y868000D02*
Y868279D01*
X1790528Y952000D02*
Y952028D01*
X1858528Y937000D02*
X1861528Y934000D01*
X1812028Y875000D02*
X1813028D01*
X1798028Y870252D02*
Y871504D01*
Y870252D02*
X1800000Y868279D01*
Y868000D02*
Y868279D01*
X1844248Y828279D02*
X1844468Y828500D01*
X1846638D01*
X1820028Y747496D02*
Y751500D01*
X1836996Y747496D02*
X1838528Y749028D01*
X1820028Y741000D02*
X1821028Y740000D01*
X1848528Y952000D02*
X1863528D01*
X1807028Y871504D02*
X1808532D01*
X1820028Y747496D02*
X1828528D01*
X1798028Y878000D02*
X1807028D01*
X1828528Y747496D02*
X1836996D01*
X1792524Y943496D02*
X1830028D01*
X1790528Y945492D02*
Y952000D01*
X1844028Y889500D02*
Y896000D01*
X1790528Y945492D02*
X1792524Y943496D01*
X1808532Y871504D02*
X1812028Y875000D01*
X1844028Y889500D02*
X1849280Y884248D01*
X1837528Y835000D02*
X1844248Y828279D01*
X1820028Y751500D02*
X1826528Y758000D01*
X1844028Y896000D02*
X1861028Y913000D01*
X1940500Y954500D02*
Y954528D01*
X2008500Y939500D02*
X2011500Y936500D01*
X1962000Y877500D02*
X1963000D01*
X1948000Y872752D02*
Y874004D01*
Y872752D02*
X1949972Y870780D01*
Y870500D02*
Y870780D01*
X1994221Y830779D02*
X1994441Y831000D01*
X1996610D01*
X1970000Y749996D02*
Y754000D01*
X1986968Y749996D02*
X1988500Y751528D01*
X1970000Y743500D02*
X1971000Y742500D01*
X1998500Y954500D02*
X2013500D01*
X1989472Y939500D02*
X2008500D01*
X1957000Y874004D02*
X1958504D01*
X1970000Y749996D02*
X1978500D01*
X1948000Y880500D02*
X1957000D01*
X1978500Y749996D02*
X1986968D01*
X1942496Y945996D02*
X1980000D01*
X1994000Y892000D02*
Y898500D01*
X1940500Y947992D02*
X1942496Y945996D01*
X1990000Y946000D02*
X1998500Y954500D01*
X1958504Y874004D02*
X1962000Y877500D01*
X1994000Y892000D02*
X1999252Y886748D01*
X1987500Y837500D02*
X1994221Y830779D01*
X1970000Y754000D02*
X1976500Y760500D01*
X1994000Y898500D02*
X2011000Y915500D01*
X1940500Y947992D02*
Y954500D01*
X1640528Y945492D02*
Y952000D01*
Y945492D02*
X1642524Y943496D01*
X1440870Y756000D02*
X1443870Y753000D01*
X1430618Y756000D02*
X1440870D01*
X1443370Y813000D02*
Y820500D01*
X1455618Y804500D02*
Y807248D01*
X1312500Y951972D02*
Y952000D01*
Y945465D02*
X1314496Y943468D01*
X1330504Y871476D02*
X1334000Y874972D01*
X1329000Y871476D02*
X1330504D01*
X1366220Y828252D02*
X1366441Y828472D01*
X1368610D01*
X1358969Y747469D02*
X1360500Y749000D01*
X1342000Y747469D02*
X1350500D01*
X1358969D01*
X1342000Y740972D02*
X1343000Y739972D01*
X1370500Y951972D02*
X1385500D01*
X1314496Y943468D02*
X1352000D01*
X1312500Y945465D02*
Y951972D01*
X1320000Y870224D02*
X1322252Y867972D01*
X1320000Y870224D02*
Y871476D01*
X1342000Y747469D02*
Y751472D01*
X1362000Y943472D02*
X1370500Y951972D01*
X1320000Y877972D02*
X1329000D01*
X1359500Y834972D02*
X1366220Y828252D01*
X1342000Y751472D02*
X1348500Y757972D01*
X1364504Y933972D02*
X1383500D01*
X1366000Y889472D02*
X1371252Y884221D01*
X1444122Y745000D02*
Y752748D01*
X1334000Y874972D02*
X1335000D01*
X1366000Y889472D02*
Y895972D01*
X1383000Y912972D01*
X1504244Y745248D02*
X1504496Y744996D01*
X1509496Y803996D02*
Y806744D01*
X1497748Y752496D02*
X1498000Y752244D01*
X1497248Y812496D02*
Y819996D01*
X1498000Y744496D02*
Y752244D01*
X1504244Y745248D02*
Y752496D01*
X1510496Y758748D01*
X1450366Y745752D02*
Y753000D01*
X1443870D02*
X1444122Y752748D01*
X1485500Y752500D02*
Y753000D01*
X1485496Y752496D02*
X1485500Y752500D01*
X1440618Y813000D02*
X1443370D01*
X1497244Y812500D02*
X1497248Y812496D01*
X1494496Y812500D02*
X1497244D01*
X1549752Y755248D02*
X1552752Y752248D01*
X1559248Y745000D02*
X1559500Y744748D01*
X1564500Y803748D02*
Y806496D01*
X1552752Y752248D02*
X1553004Y751996D01*
Y744248D02*
Y751996D01*
X1559248Y745000D02*
Y752248D01*
X1565500Y758500D01*
X1539500Y755248D02*
X1549752D01*
X1545500Y812248D02*
X1552252D01*
Y819748D01*
X1558748Y812248D02*
Y819748D01*
Y812248D02*
X1564500Y806496D01*
X1503744Y812496D02*
Y819996D01*
Y812496D02*
X1509496Y806744D01*
X1449866Y813000D02*
Y820500D01*
Y813000D02*
X1455618Y807248D01*
X895000Y952000D02*
Y952028D01*
X963000Y937000D02*
X966000Y934000D01*
X916500Y875000D02*
X917500D01*
X902500Y870252D02*
Y871504D01*
Y870252D02*
X904472Y868279D01*
Y868000D02*
Y868279D01*
X948720Y828279D02*
X948941Y828500D01*
X951110D01*
X924500Y747496D02*
Y751500D01*
X941469Y747496D02*
X943000Y749028D01*
X924500Y741000D02*
X925500Y740000D01*
X953000Y952000D02*
X968000D01*
X943972Y937000D02*
X963000D01*
X911500Y871504D02*
X913004D01*
X924500Y747496D02*
X933000D01*
X902500Y878000D02*
X911500D01*
X933000Y747496D02*
X941469D01*
X896996Y943496D02*
X934500D01*
X895000Y945492D02*
Y952000D01*
X948500Y889500D02*
Y896000D01*
X895000Y945492D02*
X896996Y943496D01*
X944500Y943500D02*
X953000Y952000D01*
X913004Y871504D02*
X916500Y875000D01*
X948500Y889500D02*
X953752Y884248D01*
X942000Y835000D02*
X948720Y828279D01*
X924500Y751500D02*
X931000Y758000D01*
X948500Y896000D02*
X965500Y913000D01*
X1045500Y952000D02*
Y952028D01*
X1113500Y937000D02*
X1116500Y934000D01*
X1067000Y875000D02*
X1068000D01*
X1053000Y870252D02*
Y871504D01*
Y870252D02*
X1054972Y868279D01*
Y868000D02*
Y868279D01*
X1099220Y828279D02*
X1099441Y828500D01*
X1101610D01*
X1075000Y747496D02*
Y751500D01*
X1091969Y747496D02*
X1093500Y749028D01*
X1075000Y741000D02*
X1076000Y740000D01*
X1103500Y952000D02*
X1118500D01*
X1094472Y937000D02*
X1113500D01*
X1062000Y871504D02*
X1063504D01*
X1075000Y747496D02*
X1083500D01*
X1053000Y878000D02*
X1062000D01*
X1083500Y747496D02*
X1091969D01*
X1099000Y889500D02*
Y896000D01*
X1095000Y943500D02*
X1103500Y952000D01*
X1063504Y871504D02*
X1067000Y875000D01*
X1099000Y889500D02*
X1104252Y884248D01*
X1092500Y835000D02*
X1099220Y828279D01*
X1075000Y751500D02*
X1081500Y758000D01*
X1099000Y896000D02*
X1116000Y913000D01*
X1192028Y952000D02*
Y952028D01*
X1260028Y937000D02*
X1263028Y934000D01*
X1213528Y875000D02*
X1214528D01*
X1199528Y870252D02*
Y871504D01*
Y870252D02*
X1201500Y868279D01*
Y868000D02*
Y868279D01*
X1245748Y828279D02*
X1245969Y828500D01*
X1248138D01*
X1221528Y747496D02*
Y751500D01*
X1238496Y747496D02*
X1240028Y749028D01*
X1221528Y741000D02*
X1222528Y740000D01*
X1250028Y952000D02*
X1265028D01*
X1241000Y937000D02*
X1260028D01*
X1208528Y871504D02*
X1210032D01*
X1221528Y747496D02*
X1230028D01*
X1199528Y878000D02*
X1208528D01*
X1230028Y747496D02*
X1238496D01*
X1194024Y943496D02*
X1231528D01*
X1192028Y945492D02*
Y952000D01*
X1245528Y889500D02*
Y896000D01*
X1192028Y945492D02*
X1194024Y943496D01*
X1241528Y943500D02*
X1250028Y952000D01*
X1210032Y871504D02*
X1213528Y875000D01*
X1245528Y889500D02*
X1250780Y884248D01*
X1239028Y835000D02*
X1245748Y828279D01*
X1221528Y751500D02*
X1228028Y758000D01*
X1245528Y896000D02*
X1262528Y913000D01*
X1045500Y945492D02*
Y952000D01*
X1047496Y943496D02*
X1085000D01*
X1045500Y945492D02*
X1047496Y943496D01*
X1840028Y943500D02*
X1848528Y952000D01*
X1839500Y937000D02*
X1858528D01*
X1642524Y943496D02*
X1680028D01*
X1517000Y821000D02*
Y830500D01*
X1511000Y836500D02*
X1511500D01*
X1456500Y837000D02*
X1462500Y831000D01*
Y821000D02*
Y831000D01*
X1838528Y749028D02*
X1845000Y742555D01*
Y724500D02*
Y742555D01*
X1688528Y749028D02*
X1700500Y737055D01*
Y723000D02*
Y737055D01*
X1676000Y698500D02*
X1700500Y723000D01*
X1565500Y758500D02*
X1585500Y738500D01*
Y694500D02*
Y738500D01*
X1510496Y758748D02*
X1516500Y752744D01*
Y709000D02*
Y752744D01*
X1503000Y695500D02*
X1516500Y709000D01*
X1444122Y727382D02*
Y745000D01*
Y727382D02*
X1459500Y712004D01*
D33*
X1207504Y689248D02*
X1208752Y688000D01*
X1712000Y647000D02*
X1795500D01*
X1162504Y647500D02*
X1309000D01*
X897500Y675000D02*
Y683996D01*
X895000Y655000D02*
X950500D01*
X1051000Y654500D02*
X1072504D01*
X973000Y632500D02*
X1051500D01*
X868500Y614748D02*
X870252Y616500D01*
X1331453Y608181D02*
X1342358D01*
X1330953Y608681D02*
X1331453Y608181D01*
X862000Y658642D02*
X866000Y654642D01*
X862000Y658642D02*
Y666500D01*
X845500Y687500D02*
X850004Y692004D01*
X868496D01*
X845500Y654642D02*
Y687500D01*
X868496Y684000D02*
Y692004D01*
X866000Y654642D02*
X867858Y656500D01*
X880500D01*
X866000Y638500D02*
X868500Y636000D01*
Y616000D02*
Y636000D01*
X987500Y581500D02*
X989500Y579500D01*
X987500Y581500D02*
Y589000D01*
X994000Y595500D02*
Y598000D01*
X987500Y589000D02*
X994000Y595500D01*
X879000Y655000D02*
X880500Y656500D01*
X870252Y616500D02*
X880500D01*
X868496Y666500D02*
X880500D01*
X872500Y605504D02*
X879504D01*
X1200504Y654500D02*
X1412000D01*
X1456500Y616000D02*
X1713000D01*
X879504Y605504D02*
X880500Y606500D01*
X1208752Y688000D02*
X1220000D01*
X1079004Y647500D02*
X1162504D01*
X1536000Y647000D02*
X1585500D01*
X1428000Y638500D02*
X1489000D01*
X1412000Y654500D02*
X1428000Y638500D01*
X1413500Y665000D02*
X1431000Y647500D01*
Y647000D02*
Y647500D01*
Y647000D02*
X1452500D01*
X968000Y647500D02*
X995504D01*
X878000Y714000D02*
Y739000D01*
Y714000D02*
X891000Y701000D01*
Y684000D02*
Y701000D01*
X1032504Y654500D02*
X1051000D01*
X1051500Y654000D01*
Y632500D02*
Y633000D01*
X1676000Y647000D02*
X1712000D01*
X1795500D02*
X1845000D01*
X1168504Y654500D02*
X1200504D01*
X995504Y647500D02*
X1079004D01*
X1115504Y654500D02*
X1153004D01*
X862000Y675000D02*
Y684000D01*
X1184500Y727500D02*
X1308500D01*
X1038000D02*
X1184500D01*
X891000Y675000D02*
Y684000D01*
Y666500D02*
Y675000D01*
X893764Y616500D02*
X894000Y616736D01*
X868500Y609504D02*
X872500Y605504D01*
X868500Y614748D02*
Y616000D01*
X862000Y666500D02*
Y675000D01*
X868496D02*
Y684000D01*
Y666500D02*
Y675000D01*
X1885000Y654000D02*
X1917000D01*
X1832000D02*
X1869500D01*
X1800000D02*
X1832000D01*
X1540500D02*
X1572500D01*
X1489500D02*
X1529500D01*
X1625500D02*
X1657500D01*
X1083504Y654500D02*
X1115504D01*
X1547500Y984000D02*
X1577000D01*
X1646000Y1053000D01*
Y1587307D01*
X1594000Y1639307D02*
X1646000Y1587307D01*
X1577500Y1336807D02*
X1594000Y1353307D01*
X1577500Y1038000D02*
Y1336807D01*
X1493500Y984500D02*
X1524000D01*
X1577500Y1038000D01*
X1386650Y1362650D02*
X1425000D01*
X1349000Y1325000D02*
X1386650Y1362650D01*
X1438618Y984500D02*
X1475342D01*
X1552343Y1061500D01*
X1349000Y1036000D02*
Y1325000D01*
Y1036000D02*
X1415000Y970000D01*
Y917500D02*
Y970000D01*
Y917500D02*
X1428500Y904000D01*
X1482256D01*
X1482878Y903378D01*
X1537122D01*
X1879000Y647000D02*
X1921500D01*
X1845000D02*
X1879000D01*
X1657500Y654000D02*
X1701000D01*
X1619500Y647000D02*
X1676000D01*
X1585500D02*
X1619500D01*
X1452500D02*
X1503000D01*
X1536000D01*
X1718000Y654500D02*
X1748500D01*
X897496Y666500D02*
Y675000D01*
Y657496D02*
Y666500D01*
X1572500Y654000D02*
X1610000D01*
X1748500Y654500D02*
X1788500D01*
X1789000Y654000D01*
X1342358Y608181D02*
X1353264D01*
X1364169D01*
X888000Y727000D02*
X888500Y727500D01*
X1038000D01*
X880500Y616500D02*
X893764D01*
X880500Y606500D02*
X894000D01*
X880500Y666500D02*
X891000D01*
X950500Y655000D02*
X973000Y632500D01*
X1396787Y602591D02*
X1403091D01*
X1416500Y616000D01*
X1456500D01*
X1381500D02*
X1416500D01*
X1373681Y608181D02*
X1381500Y616000D01*
X1364169Y608181D02*
X1373681D01*
X1364169Y602453D02*
Y608181D01*
Y602453D02*
X1369622Y597000D01*
X1211728Y602453D02*
X1364169D01*
X1211591Y602591D02*
X1211728Y602453D01*
D34*
X1383500Y1115150D02*
Y1321150D01*
Y1115150D02*
X1428000Y1070650D01*
X1511535Y1309000D02*
X1552343Y1268193D01*
X1437500Y1309000D02*
X1511535D01*
X1426000Y1320500D02*
X1437500Y1309000D01*
X1426000Y1320500D02*
Y1361650D01*
X1425000Y1362650D02*
X1426000Y1361650D01*
X1385000Y1609150D02*
X1425500Y1649650D01*
X1385000Y1402650D02*
Y1609150D01*
Y1402650D02*
X1425000Y1362650D01*
X1493500Y1745500D02*
X1594000Y1846000D01*
X1425500Y1745500D02*
X1493500D01*
X1425500Y1649650D02*
Y1745500D01*
X1553843Y1560000D02*
Y1561658D01*
X1518500Y1597000D02*
X1553843Y1561658D01*
X1478150Y1597000D02*
X1518500D01*
X1425500Y1649650D02*
X1478150Y1597000D01*
X1383500Y1321150D02*
X1425000Y1362650D01*
D35*
X907000Y599500D02*
X974000D01*
X845500Y624000D02*
Y638500D01*
Y624000D02*
X859996Y609504D01*
X901000Y599500D02*
X907000D01*
Y630500D01*
X898500Y639000D02*
X907000Y630500D01*
X895500Y639000D02*
X898500D01*
X859996Y609504D02*
X868500D01*
X979264Y579500D02*
X981004Y581240D01*
Y589000D01*
X974000Y596004D02*
Y598000D01*
Y596004D02*
X981004Y589000D01*
X894000Y606500D02*
X901000Y599500D01*
D36*
X1425500Y1649650D02*
D03*
Y1846500D02*
D03*
X1425000Y1362650D02*
D03*
Y1559500D02*
D03*
X1428000Y1070650D02*
D03*
Y1267500D02*
D03*
X974000Y598000D02*
D03*
X994000D02*
D03*
X1516500Y1846000D02*
D03*
X1476342D02*
D03*
X1516500Y1639307D02*
D03*
X1476342D02*
D03*
X1594000Y1846000D02*
D03*
X1553843D02*
D03*
X1594000Y1639307D02*
D03*
X1553843D02*
D03*
X1670658Y1846000D02*
D03*
X1630500D02*
D03*
X1670658Y1639307D02*
D03*
X1630500D02*
D03*
X1516500Y1560000D02*
D03*
X1476342D02*
D03*
X1516500Y1353307D02*
D03*
X1476342D02*
D03*
X1594000Y1560000D02*
D03*
X1553843D02*
D03*
X1594000Y1353307D02*
D03*
X1553843D02*
D03*
X1670658Y1560000D02*
D03*
X1630500D02*
D03*
X1670658Y1353307D02*
D03*
X1630500D02*
D03*
X1515000Y1268193D02*
D03*
X1474842D02*
D03*
X1515000Y1061500D02*
D03*
X1474842D02*
D03*
X1592500Y1268193D02*
D03*
X1552343D02*
D03*
X1592500Y1061500D02*
D03*
X1552343D02*
D03*
X1669157Y1268193D02*
D03*
X1629000D02*
D03*
X1669157Y1061500D02*
D03*
X1629000D02*
D03*
D37*
X880500Y606500D02*
D03*
Y616500D02*
D03*
Y626500D02*
D03*
Y636500D02*
D03*
Y646500D02*
D03*
Y656500D02*
D03*
Y666500D02*
D03*
Y676500D02*
D03*
D38*
X831000Y1736980D02*
D03*
Y1769500D02*
D03*
Y1802020D02*
D03*
X2069000Y1801508D02*
D03*
Y1768988D02*
D03*
Y1736469D02*
D03*
D39*
X1059500Y1855000D02*
D03*
Y1615000D02*
D03*
X1884500Y1860000D02*
D03*
Y1620000D02*
D03*
X1059500Y1568500D02*
D03*
Y1328500D02*
D03*
X1884500Y1573500D02*
D03*
Y1333500D02*
D03*
X1059500Y1278000D02*
D03*
Y1038000D02*
D03*
X1884500Y1283000D02*
D03*
Y1043000D02*
D03*
D40*
X949500Y1665000D02*
D03*
Y1685000D02*
D03*
Y1705000D02*
D03*
Y1725000D02*
D03*
Y1745000D02*
D03*
Y1765000D02*
D03*
Y1785000D02*
D03*
Y1805000D02*
D03*
X1169500Y1665000D02*
D03*
Y1685000D02*
D03*
Y1705000D02*
D03*
Y1725000D02*
D03*
Y1745000D02*
D03*
Y1765000D02*
D03*
Y1785000D02*
D03*
Y1805000D02*
D03*
X1774500Y1670000D02*
D03*
Y1690000D02*
D03*
Y1710000D02*
D03*
Y1730000D02*
D03*
Y1750000D02*
D03*
Y1770000D02*
D03*
Y1790000D02*
D03*
Y1810000D02*
D03*
X1994500Y1670000D02*
D03*
Y1690000D02*
D03*
Y1710000D02*
D03*
Y1730000D02*
D03*
Y1750000D02*
D03*
Y1770000D02*
D03*
Y1790000D02*
D03*
Y1810000D02*
D03*
X949500Y1378500D02*
D03*
Y1398500D02*
D03*
Y1418500D02*
D03*
Y1438500D02*
D03*
Y1458500D02*
D03*
Y1478500D02*
D03*
Y1498500D02*
D03*
Y1518500D02*
D03*
X1169500Y1378500D02*
D03*
Y1398500D02*
D03*
Y1418500D02*
D03*
Y1438500D02*
D03*
Y1458500D02*
D03*
Y1478500D02*
D03*
Y1498500D02*
D03*
Y1518500D02*
D03*
X1774500Y1383500D02*
D03*
Y1403500D02*
D03*
Y1423500D02*
D03*
Y1443500D02*
D03*
Y1463500D02*
D03*
Y1483500D02*
D03*
Y1503500D02*
D03*
Y1523500D02*
D03*
X1994500Y1383500D02*
D03*
Y1403500D02*
D03*
Y1423500D02*
D03*
Y1443500D02*
D03*
Y1463500D02*
D03*
Y1483500D02*
D03*
Y1503500D02*
D03*
Y1523500D02*
D03*
X949500Y1088000D02*
D03*
Y1108000D02*
D03*
Y1128000D02*
D03*
Y1148000D02*
D03*
Y1168000D02*
D03*
Y1188000D02*
D03*
Y1208000D02*
D03*
Y1228000D02*
D03*
X1169500Y1088000D02*
D03*
Y1108000D02*
D03*
Y1128000D02*
D03*
Y1148000D02*
D03*
Y1168000D02*
D03*
Y1188000D02*
D03*
Y1208000D02*
D03*
Y1228000D02*
D03*
X1774500Y1093000D02*
D03*
Y1113000D02*
D03*
Y1133000D02*
D03*
Y1153000D02*
D03*
Y1173000D02*
D03*
Y1193000D02*
D03*
Y1213000D02*
D03*
Y1233000D02*
D03*
X1994500Y1093000D02*
D03*
Y1113000D02*
D03*
Y1133000D02*
D03*
Y1153000D02*
D03*
Y1173000D02*
D03*
Y1193000D02*
D03*
Y1213000D02*
D03*
Y1233000D02*
D03*
D41*
X1226453Y1454000D02*
D03*
Y1532740D02*
D03*
X1348500Y1375260D02*
D03*
X1226453D02*
D03*
X1348500Y1532740D02*
D03*
Y1454000D02*
D03*
D42*
X1315094Y597000D02*
D03*
X1309642Y608181D02*
D03*
X1304189Y597000D02*
D03*
X1298736Y608181D02*
D03*
X1293283Y597000D02*
D03*
X1287831Y608181D02*
D03*
X1282378Y597000D02*
D03*
X1276925Y608181D02*
D03*
X1271472Y597000D02*
D03*
X1266020Y608181D02*
D03*
X1260567Y597000D02*
D03*
X1255114Y608181D02*
D03*
X1249661Y597000D02*
D03*
X1244209Y608181D02*
D03*
X1238756Y597000D02*
D03*
X1326000D02*
D03*
X1336905D02*
D03*
X1347811D02*
D03*
X1358716D02*
D03*
X1369622D02*
D03*
X1320547Y608181D02*
D03*
X1331453D02*
D03*
X1342358D02*
D03*
X1353264D02*
D03*
X1364169D02*
D03*
D43*
X1211591Y602591D02*
D03*
X1396787D02*
D03*
D44*
X1245028Y799500D02*
D03*
Y769500D02*
D03*
X1098500Y799500D02*
D03*
Y769500D02*
D03*
X948000Y799500D02*
D03*
Y769500D02*
D03*
X1365500Y799472D02*
D03*
Y769472D02*
D03*
X1993500Y802000D02*
D03*
Y772000D02*
D03*
X1693528Y799500D02*
D03*
Y769500D02*
D03*
X1843528Y799500D02*
D03*
Y769500D02*
D03*
D45*
X1920500Y831000D02*
D03*
X1911820Y835496D02*
D03*
X1024500Y829500D02*
D03*
X853000Y831000D02*
D03*
X1507500Y832000D02*
D03*
X1619696Y829500D02*
D03*
X1713000Y616000D02*
D03*
X1456500D02*
D03*
X1748500Y646500D02*
D03*
X1773000Y631500D02*
D03*
X1857500Y632000D02*
D03*
X1690000Y640500D02*
D03*
X1598000Y630000D02*
D03*
X1513500D02*
D03*
X1476500Y629500D02*
D03*
X1431000D02*
D03*
X1327500Y659500D02*
D03*
X1220000Y688000D02*
D03*
X1230500Y637500D02*
D03*
X1057500Y626000D02*
D03*
X1022500D02*
D03*
X1140500Y637500D02*
D03*
X1308500Y648000D02*
D03*
X1413000Y666000D02*
D03*
X968000Y647500D02*
D03*
X1051500Y654000D02*
D03*
Y633000D02*
D03*
X973000Y656500D02*
D03*
X1057000Y661500D02*
D03*
X1141000Y661000D02*
D03*
X1857500Y660500D02*
D03*
X1690000Y658500D02*
D03*
Y680000D02*
D03*
X1598000Y661000D02*
D03*
X1598252Y682500D02*
D03*
X1429500Y659000D02*
D03*
X1513752Y661252D02*
D03*
Y680000D02*
D03*
X1773000Y658500D02*
D03*
X1153004Y654500D02*
D03*
X888000Y727000D02*
D03*
X1308500Y727500D02*
D03*
X1038000D02*
D03*
X1184500D02*
D03*
X1326996Y729996D02*
D03*
X1600600Y752196D02*
D03*
X1621400Y810310D02*
D03*
X1621000Y752196D02*
D03*
X1711028Y913000D02*
D03*
X1663028Y875000D02*
D03*
X1687528Y835000D02*
D03*
X1690028Y943500D02*
D03*
X1699280Y884248D02*
D03*
X1676528Y758000D02*
D03*
X1711528Y934000D02*
D03*
X1648028Y878000D02*
D03*
X1696638Y828500D02*
D03*
X1688528Y740000D02*
D03*
X1640528Y952000D02*
D03*
X1713528D02*
D03*
X1656047Y739000D02*
D03*
X1689500Y937000D02*
D03*
X1650000Y868000D02*
D03*
X1674496Y900496D02*
D03*
X1620500Y892000D02*
D03*
X1861528Y934000D02*
D03*
X1798028Y878000D02*
D03*
X1838528Y740000D02*
D03*
X1824496Y900496D02*
D03*
X1770500Y892000D02*
D03*
X1849280Y884248D02*
D03*
X1800000Y868000D02*
D03*
X1769000Y828196D02*
D03*
X1846638Y828500D02*
D03*
X1826528Y758000D02*
D03*
X1790528Y952000D02*
D03*
X1830028Y943496D02*
D03*
X1861028Y913000D02*
D03*
X1813028Y875000D02*
D03*
X1837528Y835000D02*
D03*
X1863528Y952000D02*
D03*
X1750600Y752196D02*
D03*
X1771000D02*
D03*
X2011500Y936500D02*
D03*
X1948000Y880500D02*
D03*
X1988500Y742500D02*
D03*
X1974468Y902996D02*
D03*
X1920472Y894500D02*
D03*
X1999252Y886748D02*
D03*
X1949972Y870500D02*
D03*
X1996610Y831000D02*
D03*
X1976500Y760500D02*
D03*
X1940500Y954500D02*
D03*
X1980000Y945996D02*
D03*
X2011000Y915500D02*
D03*
X1963000Y877500D02*
D03*
X1921372Y812809D02*
D03*
X1987500Y837500D02*
D03*
X1956020Y741500D02*
D03*
X2013500Y954500D02*
D03*
X1990000Y946000D02*
D03*
X1989472Y939500D02*
D03*
X1900572Y754696D02*
D03*
X1920972D02*
D03*
X1746500Y812500D02*
D03*
X1455618Y804500D02*
D03*
X1430618Y756000D02*
D03*
X1383000Y912972D02*
D03*
X1359500Y834972D02*
D03*
X1364504Y933972D02*
D03*
X1362000Y943472D02*
D03*
X1322252Y867972D02*
D03*
X1371252Y884221D02*
D03*
X1348500Y757972D02*
D03*
X1352000Y943468D02*
D03*
X1383500Y933972D02*
D03*
X1320000Y877972D02*
D03*
X1368610Y828472D02*
D03*
X1360500Y739972D02*
D03*
X1312500Y951972D02*
D03*
X1385500D02*
D03*
X1335000Y874972D02*
D03*
X1327500Y893468D02*
D03*
X1375531Y900469D02*
D03*
X1417000Y826500D02*
D03*
X1510496Y758748D02*
D03*
X1509496Y803996D02*
D03*
X1456500Y753000D02*
D03*
X1485500D02*
D03*
X1422000Y821000D02*
D03*
X1426500Y826000D02*
D03*
X1440618Y813000D02*
D03*
X1435118Y847000D02*
D03*
X1489000D02*
D03*
X1494496Y812500D02*
D03*
X1479500Y825559D02*
D03*
X1471500Y830000D02*
D03*
X1565500Y758500D02*
D03*
X1539500Y755248D02*
D03*
X1545500Y812248D02*
D03*
X1564500Y803748D02*
D03*
X1527500Y829236D02*
D03*
X1561587Y829413D02*
D03*
X1543500Y845500D02*
D03*
X1558748Y812248D02*
D03*
X1503744Y812496D02*
D03*
X1449866Y813000D02*
D03*
X966000Y934000D02*
D03*
X902500Y878000D02*
D03*
X943000Y740000D02*
D03*
X874972Y892000D02*
D03*
X953752Y884248D02*
D03*
X904472Y868000D02*
D03*
X951110Y828500D02*
D03*
X850972Y812500D02*
D03*
X931000Y758000D02*
D03*
X895000Y952000D02*
D03*
X934500Y943496D02*
D03*
X965500Y913000D02*
D03*
X917500Y875000D02*
D03*
X875872Y810310D02*
D03*
X942000Y835000D02*
D03*
X910520Y739000D02*
D03*
X968000Y952000D02*
D03*
X944500Y943500D02*
D03*
X943972Y937000D02*
D03*
X855872Y873492D02*
D03*
X855072Y752196D02*
D03*
X875472D02*
D03*
X1596500Y812500D02*
D03*
X1634000Y804000D02*
D03*
X1784500Y805000D02*
D03*
X928969Y900496D02*
D03*
X1530500Y824500D02*
D03*
X1428500Y904000D02*
D03*
X1482878Y903378D02*
D03*
X1537122D02*
D03*
X1116500Y934000D02*
D03*
X1053000Y878000D02*
D03*
X1093500Y740000D02*
D03*
X1079469Y900496D02*
D03*
X1025472Y892000D02*
D03*
X1104252Y884248D02*
D03*
X1054972Y868000D02*
D03*
X1101610Y828500D02*
D03*
X1001472Y812500D02*
D03*
X1081500Y758000D02*
D03*
X1045500Y952000D02*
D03*
X1085000Y943496D02*
D03*
X1116000Y913000D02*
D03*
X1068000Y875000D02*
D03*
X1092500Y835000D02*
D03*
X1061020Y739000D02*
D03*
X1118500Y952000D02*
D03*
X1095000Y943500D02*
D03*
X1094472Y937000D02*
D03*
X1006372Y873492D02*
D03*
X1005572Y752196D02*
D03*
X1025972D02*
D03*
X1263028Y934000D02*
D03*
X1199528Y878000D02*
D03*
X1240028Y740000D02*
D03*
X1225996Y900496D02*
D03*
X1172000Y892000D02*
D03*
X1250780Y884248D02*
D03*
X1201500Y868000D02*
D03*
X1248138Y828500D02*
D03*
X1148000Y812500D02*
D03*
X1228028Y758000D02*
D03*
X1192028Y952000D02*
D03*
X1231528Y943496D02*
D03*
X1262528Y913000D02*
D03*
X1214528Y875000D02*
D03*
X1172900Y810310D02*
D03*
X1239028Y835000D02*
D03*
X1207547Y739000D02*
D03*
X1265028Y952000D02*
D03*
X1241528Y943500D02*
D03*
X1241000Y937000D02*
D03*
X1152900Y873492D02*
D03*
X1152100Y752196D02*
D03*
X1172500D02*
D03*
X1003686Y830186D02*
D03*
X1150213Y829287D02*
D03*
X1705504Y686500D02*
D03*
X1740000Y712000D02*
D03*
X1719000Y712004D02*
D03*
X1795500Y679500D02*
D03*
X1788500Y687004D02*
D03*
X1823748Y712000D02*
D03*
X1832000Y680000D02*
D03*
X1803004Y712000D02*
D03*
X1872504Y688000D02*
D03*
X1887000Y713500D02*
D03*
X1909000Y713000D02*
D03*
X1879000Y680500D02*
D03*
X1917000Y681000D02*
D03*
X1748500Y679500D02*
D03*
X1712000Y680000D02*
D03*
X1773252D02*
D03*
X1885000Y654000D02*
D03*
X1869500D02*
D03*
X1800000D02*
D03*
X1789000D02*
D03*
X1430500Y680000D02*
D03*
X1446004Y686500D02*
D03*
X1480500Y712000D02*
D03*
X1489000Y679500D02*
D03*
X1529000Y687004D02*
D03*
X1536000Y679500D02*
D03*
X1543504Y712000D02*
D03*
X1452500Y680000D02*
D03*
X1459500Y712004D02*
D03*
X1529500Y654000D02*
D03*
X1540500D02*
D03*
X1564248Y712000D02*
D03*
X1572500Y680000D02*
D03*
X1625500Y654000D02*
D03*
X1610000D02*
D03*
X1619500Y680500D02*
D03*
X1613004Y688000D02*
D03*
X1627500Y713500D02*
D03*
X1649500Y713000D02*
D03*
X1657500Y681000D02*
D03*
X995504Y680500D02*
D03*
X1002504Y712504D02*
D03*
X1056756Y680500D02*
D03*
X1072504Y654500D02*
D03*
X1083504D02*
D03*
X1107252Y712500D02*
D03*
X1115504Y680500D02*
D03*
X1162504Y681000D02*
D03*
X1168504Y654500D02*
D03*
X1170504Y714000D02*
D03*
X1192504Y713500D02*
D03*
X1200504Y681500D02*
D03*
X973504Y680500D02*
D03*
X989008Y687000D02*
D03*
X1032004Y680000D02*
D03*
X1023504Y712500D02*
D03*
X1079004Y680000D02*
D03*
X1072004Y687504D02*
D03*
X1086508Y712500D02*
D03*
X1156008Y688500D02*
D03*
X1141004Y683000D02*
D03*
X1840028Y943500D02*
D03*
X1839500Y937000D02*
D03*
X1680028Y943496D02*
D03*
X1601400Y873492D02*
D03*
X1751400D02*
D03*
X1901372Y875992D02*
D03*
X1547500Y984000D02*
D03*
X1438618Y984500D02*
D03*
X1493500D02*
D03*
X1896472Y815000D02*
D03*
X1933000Y807500D02*
D03*
X1927500Y813748D02*
D03*
X1761848Y832996D02*
D03*
X1777500Y811000D02*
D03*
X1611848Y832996D02*
D03*
X1628000Y811500D02*
D03*
X1517000Y821000D02*
D03*
X1511500Y836500D02*
D03*
X1462500Y821000D02*
D03*
X1453000Y831500D02*
D03*
X1456500Y837000D02*
D03*
X1163348Y832996D02*
D03*
X1179000Y812000D02*
D03*
X1016821Y832996D02*
D03*
X1032000Y811500D02*
D03*
X1025500Y811000D02*
D03*
X1593000Y818500D02*
D03*
X1598500Y828500D02*
D03*
X1743000Y818500D02*
D03*
X1748500Y829000D02*
D03*
X1892000Y821000D02*
D03*
X1898500Y832500D02*
D03*
X1143500Y818500D02*
D03*
X996500Y818000D02*
D03*
X846000Y818500D02*
D03*
X866321Y832996D02*
D03*
X882500Y811500D02*
D03*
X890000Y805000D02*
D03*
X1039500D02*
D03*
X1185500Y804500D02*
D03*
X1857500Y682500D02*
D03*
X1930000Y747000D02*
D03*
X1921500Y647000D02*
D03*
X1806000Y739000D02*
D03*
X1845000Y647000D02*
D03*
Y724500D02*
D03*
X1676000Y698500D02*
D03*
Y647000D02*
D03*
X1585500Y694500D02*
D03*
Y647000D02*
D03*
X1503000Y695500D02*
D03*
Y647000D02*
D03*
X1718000Y654500D02*
D03*
X1701000Y654000D02*
D03*
X1489000Y654500D02*
D03*
Y638500D02*
D03*
X897496Y675000D02*
D03*
X1414000Y594500D02*
D03*
X1496000Y592752D02*
D03*
X1576500Y589000D02*
D03*
X1666000Y586500D02*
D03*
X1749000Y586252D02*
D03*
X1828500Y583000D02*
D03*
X1049000Y622500D02*
D03*
X1131000Y624752D02*
D03*
X1211500Y627500D02*
D03*
X1736500Y632000D02*
D03*
X1170500Y829000D02*
D03*
X873500D02*
D03*
X1770000Y812000D02*
D03*
D46*
X845500Y654642D02*
D03*
Y638500D02*
D03*
X895500Y655142D02*
D03*
Y639000D02*
D03*
X866000Y654642D02*
D03*
Y638500D02*
D03*
D47*
X1240028Y739972D02*
D03*
Y749028D02*
D03*
X1093500Y739972D02*
D03*
Y749028D02*
D03*
X943000Y739972D02*
D03*
Y749028D02*
D03*
X1360500Y739945D02*
D03*
Y749000D02*
D03*
X1988500Y742472D02*
D03*
Y751528D02*
D03*
X1688528Y739972D02*
D03*
Y749028D02*
D03*
X1838528Y739972D02*
D03*
Y749028D02*
D03*
M02*
