G04 Layer_Color=16711935*
%FSLAX25Y25*%
%MOIN*%
G70*
G01*
G75*
%ADD19R,0.04331X0.04331*%
%ADD20R,0.04331X0.04331*%
%ADD21R,0.07480X0.04724*%
%ADD22R,0.04724X0.07480*%
%ADD36C,0.08661*%
%ADD37C,0.05905*%
%ADD38C,0.11811*%
%ADD39C,0.03937*%
%ADD40C,0.10236*%
%ADD41C,0.13386*%
%ADD42C,0.07000*%
%ADD43C,0.15000*%
%ADD44C,0.04724*%
%ADD45C,0.04000*%
%ADD46R,0.13780X0.05905*%
%ADD47R,0.05118X0.04331*%
D19*
X981004Y589000D02*
D03*
X987500D02*
D03*
X891000Y675000D02*
D03*
X897496D02*
D03*
X891000Y684000D02*
D03*
X897496D02*
D03*
X891000Y666500D02*
D03*
X897496D02*
D03*
X862000Y675000D02*
D03*
X868496D02*
D03*
X862000Y666500D02*
D03*
X868496D02*
D03*
X862000Y684000D02*
D03*
X868496D02*
D03*
X1159652Y752196D02*
D03*
X1166148D02*
D03*
X1165396Y814196D02*
D03*
X1158900D02*
D03*
X1159652Y744196D02*
D03*
X1166148D02*
D03*
X1165396Y821796D02*
D03*
X1158900D02*
D03*
X1013124Y752196D02*
D03*
X1019621D02*
D03*
X1018869Y814196D02*
D03*
X1012372D02*
D03*
X1013124Y744196D02*
D03*
X1019621D02*
D03*
X1018869Y821796D02*
D03*
X1012372D02*
D03*
X862624Y752196D02*
D03*
X869121D02*
D03*
X868369Y814196D02*
D03*
X861872D02*
D03*
X862624Y744196D02*
D03*
X869121D02*
D03*
X868369Y821796D02*
D03*
X861872D02*
D03*
X1552752Y752248D02*
D03*
X1559248D02*
D03*
X1558748Y819748D02*
D03*
X1552252D02*
D03*
X1553004Y744248D02*
D03*
X1559500D02*
D03*
X1558748Y812248D02*
D03*
X1552252D02*
D03*
X1497748Y752496D02*
D03*
X1504244D02*
D03*
X1503744Y819996D02*
D03*
X1497248D02*
D03*
X1498000Y744496D02*
D03*
X1504496D02*
D03*
X1503744Y812496D02*
D03*
X1497248D02*
D03*
X1443870Y753000D02*
D03*
X1450366D02*
D03*
X1449866Y820500D02*
D03*
X1443370D02*
D03*
X1444122Y745000D02*
D03*
X1450618D02*
D03*
X1449866Y813000D02*
D03*
X1443370D02*
D03*
X1908124Y754696D02*
D03*
X1914621D02*
D03*
X1913869Y816696D02*
D03*
X1907372D02*
D03*
X1908124Y746696D02*
D03*
X1914621D02*
D03*
X1913869Y824296D02*
D03*
X1907372D02*
D03*
X1608152Y752196D02*
D03*
X1614648D02*
D03*
X1613896Y814196D02*
D03*
X1607400D02*
D03*
X1608152Y744196D02*
D03*
X1614648D02*
D03*
X1613896Y821796D02*
D03*
X1607400D02*
D03*
X1758152Y752196D02*
D03*
X1764648D02*
D03*
X1763896Y814196D02*
D03*
X1757400D02*
D03*
X1758152Y744196D02*
D03*
X1764648D02*
D03*
X1763896Y821796D02*
D03*
X1757400D02*
D03*
D20*
X1200504Y687996D02*
D03*
Y681500D02*
D03*
X1207504Y687996D02*
D03*
Y681500D02*
D03*
X1162504Y681000D02*
D03*
Y687496D02*
D03*
X1156004Y681000D02*
D03*
Y687496D02*
D03*
X1121504D02*
D03*
Y681000D02*
D03*
X1115504Y687248D02*
D03*
Y680752D02*
D03*
X1078504Y680252D02*
D03*
Y686748D02*
D03*
X1072004Y680000D02*
D03*
Y686496D02*
D03*
X1038004Y686748D02*
D03*
Y680252D02*
D03*
X1032004Y686748D02*
D03*
Y680252D02*
D03*
X995504Y680500D02*
D03*
Y686996D02*
D03*
X988504Y680500D02*
D03*
Y686996D02*
D03*
X1917000Y687496D02*
D03*
Y681000D02*
D03*
X1924000Y687496D02*
D03*
Y681000D02*
D03*
X1657500Y687496D02*
D03*
Y681000D02*
D03*
X1664500Y687496D02*
D03*
Y681000D02*
D03*
X1879000Y680500D02*
D03*
Y686996D02*
D03*
X1872500Y680500D02*
D03*
Y686996D02*
D03*
X1619500Y680500D02*
D03*
Y686996D02*
D03*
X1613000Y680500D02*
D03*
Y686996D02*
D03*
X1838000D02*
D03*
Y680500D02*
D03*
X1832000Y686748D02*
D03*
Y680252D02*
D03*
X1578500Y686996D02*
D03*
Y680500D02*
D03*
X1572500Y686748D02*
D03*
Y680252D02*
D03*
X1795000Y679752D02*
D03*
Y686248D02*
D03*
X1788500Y679500D02*
D03*
Y685996D02*
D03*
X1535500Y679752D02*
D03*
Y686248D02*
D03*
X1529000Y679500D02*
D03*
Y685996D02*
D03*
X1754500Y686248D02*
D03*
Y679752D02*
D03*
X1748500Y686248D02*
D03*
Y679752D02*
D03*
X1495000Y686248D02*
D03*
Y679752D02*
D03*
X1489000Y686248D02*
D03*
Y679752D02*
D03*
X1712000Y680000D02*
D03*
Y686496D02*
D03*
X1705000Y680000D02*
D03*
Y686496D02*
D03*
X1452500Y680000D02*
D03*
Y686496D02*
D03*
X1445500Y680000D02*
D03*
Y686496D02*
D03*
X868500Y616000D02*
D03*
Y609504D02*
D03*
X1208528Y878000D02*
D03*
Y871504D02*
D03*
X1199528Y878000D02*
D03*
Y871504D02*
D03*
X1221528Y747496D02*
D03*
Y741000D02*
D03*
X1230028Y747496D02*
D03*
Y741000D02*
D03*
X1062000Y878000D02*
D03*
Y871504D02*
D03*
X1053000Y878000D02*
D03*
Y871504D02*
D03*
X1075000Y747496D02*
D03*
Y741000D02*
D03*
X1083500Y747496D02*
D03*
Y741000D02*
D03*
X911500Y878000D02*
D03*
Y871504D02*
D03*
X902500Y878000D02*
D03*
Y871504D02*
D03*
X924500Y747496D02*
D03*
Y741000D02*
D03*
X933000Y747496D02*
D03*
Y741000D02*
D03*
X1329000Y877972D02*
D03*
Y871476D02*
D03*
X1320000Y877972D02*
D03*
Y871476D02*
D03*
X1342000Y747469D02*
D03*
Y740972D02*
D03*
X1350500Y747469D02*
D03*
Y740972D02*
D03*
X1957000Y880500D02*
D03*
Y874004D02*
D03*
X1948000Y880500D02*
D03*
Y874004D02*
D03*
X1970000Y749996D02*
D03*
Y743500D02*
D03*
X1978500Y749996D02*
D03*
Y743500D02*
D03*
X1657028Y878000D02*
D03*
Y871504D02*
D03*
X1648028Y878000D02*
D03*
Y871504D02*
D03*
X1670028Y747496D02*
D03*
Y741000D02*
D03*
X1678528Y747496D02*
D03*
Y741000D02*
D03*
X1807028Y878000D02*
D03*
Y871504D02*
D03*
X1798028Y878000D02*
D03*
Y871504D02*
D03*
X1820028Y747496D02*
D03*
Y741000D02*
D03*
X1828528Y747496D02*
D03*
Y741000D02*
D03*
D21*
X894000Y606500D02*
D03*
Y616736D02*
D03*
D22*
X989500Y579500D02*
D03*
X979264D02*
D03*
D36*
X1425500Y1649650D02*
D03*
Y1846500D02*
D03*
X1425000Y1362650D02*
D03*
Y1559500D02*
D03*
X1428000Y1070650D02*
D03*
Y1267500D02*
D03*
X974000Y598000D02*
D03*
X994000D02*
D03*
X1516500Y1846000D02*
D03*
X1476342D02*
D03*
X1516500Y1639307D02*
D03*
X1476342D02*
D03*
X1594000Y1846000D02*
D03*
X1553843D02*
D03*
X1594000Y1639307D02*
D03*
X1553843D02*
D03*
X1670658Y1846000D02*
D03*
X1630500D02*
D03*
X1670658Y1639307D02*
D03*
X1630500D02*
D03*
X1516500Y1560000D02*
D03*
X1476342D02*
D03*
X1516500Y1353307D02*
D03*
X1476342D02*
D03*
X1594000Y1560000D02*
D03*
X1553843D02*
D03*
X1594000Y1353307D02*
D03*
X1553843D02*
D03*
X1670658Y1560000D02*
D03*
X1630500D02*
D03*
X1670658Y1353307D02*
D03*
X1630500D02*
D03*
X1515000Y1268193D02*
D03*
X1474842D02*
D03*
X1515000Y1061500D02*
D03*
X1474842D02*
D03*
X1592500Y1268193D02*
D03*
X1552343D02*
D03*
X1592500Y1061500D02*
D03*
X1552343D02*
D03*
X1669157Y1268193D02*
D03*
X1629000D02*
D03*
X1669157Y1061500D02*
D03*
X1629000D02*
D03*
D37*
X880500Y606500D02*
D03*
Y616500D02*
D03*
Y626500D02*
D03*
Y636500D02*
D03*
Y646500D02*
D03*
Y656500D02*
D03*
Y666500D02*
D03*
Y676500D02*
D03*
D38*
X831000Y1736980D02*
D03*
Y1769500D02*
D03*
Y1802020D02*
D03*
X2069000Y1801508D02*
D03*
Y1768988D02*
D03*
Y1736469D02*
D03*
D39*
X1059500Y1855000D02*
D03*
Y1615000D02*
D03*
X1884500Y1860000D02*
D03*
Y1620000D02*
D03*
X1059500Y1568500D02*
D03*
Y1328500D02*
D03*
X1884500Y1573500D02*
D03*
Y1333500D02*
D03*
X1059500Y1278000D02*
D03*
Y1038000D02*
D03*
X1884500Y1283000D02*
D03*
Y1043000D02*
D03*
D40*
X949500Y1665000D02*
D03*
Y1685000D02*
D03*
Y1705000D02*
D03*
Y1725000D02*
D03*
Y1745000D02*
D03*
Y1765000D02*
D03*
Y1785000D02*
D03*
Y1805000D02*
D03*
X1169500Y1665000D02*
D03*
Y1685000D02*
D03*
Y1705000D02*
D03*
Y1725000D02*
D03*
Y1745000D02*
D03*
Y1765000D02*
D03*
Y1785000D02*
D03*
Y1805000D02*
D03*
X1774500Y1670000D02*
D03*
Y1690000D02*
D03*
Y1710000D02*
D03*
Y1730000D02*
D03*
Y1750000D02*
D03*
Y1770000D02*
D03*
Y1790000D02*
D03*
Y1810000D02*
D03*
X1994500Y1670000D02*
D03*
Y1690000D02*
D03*
Y1710000D02*
D03*
Y1730000D02*
D03*
Y1750000D02*
D03*
Y1770000D02*
D03*
Y1790000D02*
D03*
Y1810000D02*
D03*
X949500Y1378500D02*
D03*
Y1398500D02*
D03*
Y1418500D02*
D03*
Y1438500D02*
D03*
Y1458500D02*
D03*
Y1478500D02*
D03*
Y1498500D02*
D03*
Y1518500D02*
D03*
X1169500Y1378500D02*
D03*
Y1398500D02*
D03*
Y1418500D02*
D03*
Y1438500D02*
D03*
Y1458500D02*
D03*
Y1478500D02*
D03*
Y1498500D02*
D03*
Y1518500D02*
D03*
X1774500Y1383500D02*
D03*
Y1403500D02*
D03*
Y1423500D02*
D03*
Y1443500D02*
D03*
Y1463500D02*
D03*
Y1483500D02*
D03*
Y1503500D02*
D03*
Y1523500D02*
D03*
X1994500Y1383500D02*
D03*
Y1403500D02*
D03*
Y1423500D02*
D03*
Y1443500D02*
D03*
Y1463500D02*
D03*
Y1483500D02*
D03*
Y1503500D02*
D03*
Y1523500D02*
D03*
X949500Y1088000D02*
D03*
Y1108000D02*
D03*
Y1128000D02*
D03*
Y1148000D02*
D03*
Y1168000D02*
D03*
Y1188000D02*
D03*
Y1208000D02*
D03*
Y1228000D02*
D03*
X1169500Y1088000D02*
D03*
Y1108000D02*
D03*
Y1128000D02*
D03*
Y1148000D02*
D03*
Y1168000D02*
D03*
Y1188000D02*
D03*
Y1208000D02*
D03*
Y1228000D02*
D03*
X1774500Y1093000D02*
D03*
Y1113000D02*
D03*
Y1133000D02*
D03*
Y1153000D02*
D03*
Y1173000D02*
D03*
Y1193000D02*
D03*
Y1213000D02*
D03*
Y1233000D02*
D03*
X1994500Y1093000D02*
D03*
Y1113000D02*
D03*
Y1133000D02*
D03*
Y1153000D02*
D03*
Y1173000D02*
D03*
Y1193000D02*
D03*
Y1213000D02*
D03*
Y1233000D02*
D03*
D41*
X1226453Y1454000D02*
D03*
Y1532740D02*
D03*
X1348500Y1375260D02*
D03*
X1226453D02*
D03*
X1348500Y1532740D02*
D03*
Y1454000D02*
D03*
D42*
X1315094Y597000D02*
D03*
X1309642Y608181D02*
D03*
X1304189Y597000D02*
D03*
X1298736Y608181D02*
D03*
X1293283Y597000D02*
D03*
X1287831Y608181D02*
D03*
X1282378Y597000D02*
D03*
X1276925Y608181D02*
D03*
X1271472Y597000D02*
D03*
X1266020Y608181D02*
D03*
X1260567Y597000D02*
D03*
X1255114Y608181D02*
D03*
X1249661Y597000D02*
D03*
X1244209Y608181D02*
D03*
X1238756Y597000D02*
D03*
X1326000D02*
D03*
X1336905D02*
D03*
X1347811D02*
D03*
X1358716D02*
D03*
X1369622D02*
D03*
X1320547Y608181D02*
D03*
X1331453D02*
D03*
X1342358D02*
D03*
X1353264D02*
D03*
X1364169D02*
D03*
D43*
X1211591Y602591D02*
D03*
X1396787D02*
D03*
D44*
X1245028Y799500D02*
D03*
Y769500D02*
D03*
X1098500Y799500D02*
D03*
Y769500D02*
D03*
X948000Y799500D02*
D03*
Y769500D02*
D03*
X1365500Y799472D02*
D03*
Y769472D02*
D03*
X1993500Y802000D02*
D03*
Y772000D02*
D03*
X1693528Y799500D02*
D03*
Y769500D02*
D03*
X1843528Y799500D02*
D03*
Y769500D02*
D03*
D45*
X1920500Y831000D02*
D03*
X1911820Y835496D02*
D03*
X1024500Y829500D02*
D03*
X853000Y831000D02*
D03*
X1507500Y832000D02*
D03*
X1619696Y829500D02*
D03*
X1713000Y616000D02*
D03*
X1456500D02*
D03*
X1748500Y646500D02*
D03*
X1773000Y631500D02*
D03*
X1857500Y632000D02*
D03*
X1690000Y640500D02*
D03*
X1598000Y630000D02*
D03*
X1513500D02*
D03*
X1476500Y629500D02*
D03*
X1431000D02*
D03*
X1327500Y659500D02*
D03*
X1220000Y688000D02*
D03*
X1230500Y637500D02*
D03*
X1057500Y626000D02*
D03*
X1022500D02*
D03*
X1140500Y637500D02*
D03*
X1308500Y648000D02*
D03*
X1413000Y666000D02*
D03*
X968000Y647500D02*
D03*
X1051500Y654000D02*
D03*
Y633000D02*
D03*
X973000Y656500D02*
D03*
X1057000Y661500D02*
D03*
X1141000Y661000D02*
D03*
X1857500Y660500D02*
D03*
X1690000Y658500D02*
D03*
Y680000D02*
D03*
X1598000Y661000D02*
D03*
X1598252Y682500D02*
D03*
X1429500Y659000D02*
D03*
X1513752Y661252D02*
D03*
Y680000D02*
D03*
X1773000Y658500D02*
D03*
X1153004Y654500D02*
D03*
X888000Y727000D02*
D03*
X1308500Y727500D02*
D03*
X1038000D02*
D03*
X1184500D02*
D03*
X1326996Y729996D02*
D03*
X1600600Y752196D02*
D03*
X1621400Y810310D02*
D03*
X1621000Y752196D02*
D03*
X1711028Y913000D02*
D03*
X1663028Y875000D02*
D03*
X1687528Y835000D02*
D03*
X1690028Y943500D02*
D03*
X1699280Y884248D02*
D03*
X1676528Y758000D02*
D03*
X1711528Y934000D02*
D03*
X1648028Y878000D02*
D03*
X1696638Y828500D02*
D03*
X1688528Y740000D02*
D03*
X1640528Y952000D02*
D03*
X1713528D02*
D03*
X1656047Y739000D02*
D03*
X1689500Y937000D02*
D03*
X1650000Y868000D02*
D03*
X1674496Y900496D02*
D03*
X1620500Y892000D02*
D03*
X1861528Y934000D02*
D03*
X1798028Y878000D02*
D03*
X1838528Y740000D02*
D03*
X1824496Y900496D02*
D03*
X1770500Y892000D02*
D03*
X1849280Y884248D02*
D03*
X1800000Y868000D02*
D03*
X1769000Y828196D02*
D03*
X1846638Y828500D02*
D03*
X1826528Y758000D02*
D03*
X1790528Y952000D02*
D03*
X1830028Y943496D02*
D03*
X1861028Y913000D02*
D03*
X1813028Y875000D02*
D03*
X1837528Y835000D02*
D03*
X1863528Y952000D02*
D03*
X1750600Y752196D02*
D03*
X1771000D02*
D03*
X2011500Y936500D02*
D03*
X1948000Y880500D02*
D03*
X1988500Y742500D02*
D03*
X1974468Y902996D02*
D03*
X1920472Y894500D02*
D03*
X1999252Y886748D02*
D03*
X1949972Y870500D02*
D03*
X1996610Y831000D02*
D03*
X1976500Y760500D02*
D03*
X1940500Y954500D02*
D03*
X1980000Y945996D02*
D03*
X2011000Y915500D02*
D03*
X1963000Y877500D02*
D03*
X1921372Y812809D02*
D03*
X1987500Y837500D02*
D03*
X1956020Y741500D02*
D03*
X2013500Y954500D02*
D03*
X1990000Y946000D02*
D03*
X1989472Y939500D02*
D03*
X1900572Y754696D02*
D03*
X1920972D02*
D03*
X1746500Y812500D02*
D03*
X1455618Y804500D02*
D03*
X1430618Y756000D02*
D03*
X1383000Y912972D02*
D03*
X1359500Y834972D02*
D03*
X1364504Y933972D02*
D03*
X1362000Y943472D02*
D03*
X1322252Y867972D02*
D03*
X1371252Y884221D02*
D03*
X1348500Y757972D02*
D03*
X1352000Y943468D02*
D03*
X1383500Y933972D02*
D03*
X1320000Y877972D02*
D03*
X1368610Y828472D02*
D03*
X1360500Y739972D02*
D03*
X1312500Y951972D02*
D03*
X1385500D02*
D03*
X1335000Y874972D02*
D03*
X1327500Y893468D02*
D03*
X1375531Y900469D02*
D03*
X1417000Y826500D02*
D03*
X1510496Y758748D02*
D03*
X1509496Y803996D02*
D03*
X1456500Y753000D02*
D03*
X1485500D02*
D03*
X1422000Y821000D02*
D03*
X1426500Y826000D02*
D03*
X1440618Y813000D02*
D03*
X1435118Y847000D02*
D03*
X1489000D02*
D03*
X1494496Y812500D02*
D03*
X1479500Y825559D02*
D03*
X1471500Y830000D02*
D03*
X1565500Y758500D02*
D03*
X1539500Y755248D02*
D03*
X1545500Y812248D02*
D03*
X1564500Y803748D02*
D03*
X1527500Y829236D02*
D03*
X1561587Y829413D02*
D03*
X1543500Y845500D02*
D03*
X1558748Y812248D02*
D03*
X1503744Y812496D02*
D03*
X1449866Y813000D02*
D03*
X966000Y934000D02*
D03*
X902500Y878000D02*
D03*
X943000Y740000D02*
D03*
X874972Y892000D02*
D03*
X953752Y884248D02*
D03*
X904472Y868000D02*
D03*
X951110Y828500D02*
D03*
X850972Y812500D02*
D03*
X931000Y758000D02*
D03*
X895000Y952000D02*
D03*
X934500Y943496D02*
D03*
X965500Y913000D02*
D03*
X917500Y875000D02*
D03*
X875872Y810310D02*
D03*
X942000Y835000D02*
D03*
X910520Y739000D02*
D03*
X968000Y952000D02*
D03*
X944500Y943500D02*
D03*
X943972Y937000D02*
D03*
X855872Y873492D02*
D03*
X855072Y752196D02*
D03*
X875472D02*
D03*
X1596500Y812500D02*
D03*
X1634000Y804000D02*
D03*
X1784500Y805000D02*
D03*
X928969Y900496D02*
D03*
X1530500Y824500D02*
D03*
X1428500Y904000D02*
D03*
X1482878Y903378D02*
D03*
X1537122D02*
D03*
X1116500Y934000D02*
D03*
X1053000Y878000D02*
D03*
X1093500Y740000D02*
D03*
X1079469Y900496D02*
D03*
X1025472Y892000D02*
D03*
X1104252Y884248D02*
D03*
X1054972Y868000D02*
D03*
X1101610Y828500D02*
D03*
X1001472Y812500D02*
D03*
X1081500Y758000D02*
D03*
X1045500Y952000D02*
D03*
X1085000Y943496D02*
D03*
X1116000Y913000D02*
D03*
X1068000Y875000D02*
D03*
X1092500Y835000D02*
D03*
X1061020Y739000D02*
D03*
X1118500Y952000D02*
D03*
X1095000Y943500D02*
D03*
X1094472Y937000D02*
D03*
X1006372Y873492D02*
D03*
X1005572Y752196D02*
D03*
X1025972D02*
D03*
X1263028Y934000D02*
D03*
X1199528Y878000D02*
D03*
X1240028Y740000D02*
D03*
X1225996Y900496D02*
D03*
X1172000Y892000D02*
D03*
X1250780Y884248D02*
D03*
X1201500Y868000D02*
D03*
X1248138Y828500D02*
D03*
X1148000Y812500D02*
D03*
X1228028Y758000D02*
D03*
X1192028Y952000D02*
D03*
X1231528Y943496D02*
D03*
X1262528Y913000D02*
D03*
X1214528Y875000D02*
D03*
X1172900Y810310D02*
D03*
X1239028Y835000D02*
D03*
X1207547Y739000D02*
D03*
X1265028Y952000D02*
D03*
X1241528Y943500D02*
D03*
X1241000Y937000D02*
D03*
X1152900Y873492D02*
D03*
X1152100Y752196D02*
D03*
X1172500D02*
D03*
X1003686Y830186D02*
D03*
X1150213Y829287D02*
D03*
X1705504Y686500D02*
D03*
X1740000Y712000D02*
D03*
X1719000Y712004D02*
D03*
X1795500Y679500D02*
D03*
X1788500Y687004D02*
D03*
X1823748Y712000D02*
D03*
X1832000Y680000D02*
D03*
X1803004Y712000D02*
D03*
X1872504Y688000D02*
D03*
X1887000Y713500D02*
D03*
X1909000Y713000D02*
D03*
X1879000Y680500D02*
D03*
X1917000Y681000D02*
D03*
X1748500Y679500D02*
D03*
X1712000Y680000D02*
D03*
X1773252D02*
D03*
X1885000Y654000D02*
D03*
X1869500D02*
D03*
X1800000D02*
D03*
X1789000D02*
D03*
X1430500Y680000D02*
D03*
X1446004Y686500D02*
D03*
X1480500Y712000D02*
D03*
X1489000Y679500D02*
D03*
X1529000Y687004D02*
D03*
X1536000Y679500D02*
D03*
X1543504Y712000D02*
D03*
X1452500Y680000D02*
D03*
X1459500Y712004D02*
D03*
X1529500Y654000D02*
D03*
X1540500D02*
D03*
X1564248Y712000D02*
D03*
X1572500Y680000D02*
D03*
X1625500Y654000D02*
D03*
X1610000D02*
D03*
X1619500Y680500D02*
D03*
X1613004Y688000D02*
D03*
X1627500Y713500D02*
D03*
X1649500Y713000D02*
D03*
X1657500Y681000D02*
D03*
X995504Y680500D02*
D03*
X1002504Y712504D02*
D03*
X1056756Y680500D02*
D03*
X1072504Y654500D02*
D03*
X1083504D02*
D03*
X1107252Y712500D02*
D03*
X1115504Y680500D02*
D03*
X1162504Y681000D02*
D03*
X1168504Y654500D02*
D03*
X1170504Y714000D02*
D03*
X1192504Y713500D02*
D03*
X1200504Y681500D02*
D03*
X973504Y680500D02*
D03*
X989008Y687000D02*
D03*
X1032004Y680000D02*
D03*
X1023504Y712500D02*
D03*
X1079004Y680000D02*
D03*
X1072004Y687504D02*
D03*
X1086508Y712500D02*
D03*
X1156008Y688500D02*
D03*
X1141004Y683000D02*
D03*
X1840028Y943500D02*
D03*
X1839500Y937000D02*
D03*
X1680028Y943496D02*
D03*
X1601400Y873492D02*
D03*
X1751400D02*
D03*
X1901372Y875992D02*
D03*
X1547500Y984000D02*
D03*
X1438618Y984500D02*
D03*
X1493500D02*
D03*
X1896472Y815000D02*
D03*
X1933000Y807500D02*
D03*
X1927500Y813748D02*
D03*
X1761848Y832996D02*
D03*
X1777500Y811000D02*
D03*
X1611848Y832996D02*
D03*
X1628000Y811500D02*
D03*
X1517000Y821000D02*
D03*
X1511500Y836500D02*
D03*
X1462500Y821000D02*
D03*
X1453000Y831500D02*
D03*
X1456500Y837000D02*
D03*
X1163348Y832996D02*
D03*
X1179000Y812000D02*
D03*
X1016821Y832996D02*
D03*
X1032000Y811500D02*
D03*
X1025500Y811000D02*
D03*
X1593000Y818500D02*
D03*
X1598500Y828500D02*
D03*
X1743000Y818500D02*
D03*
X1748500Y829000D02*
D03*
X1892000Y821000D02*
D03*
X1898500Y832500D02*
D03*
X1143500Y818500D02*
D03*
X996500Y818000D02*
D03*
X846000Y818500D02*
D03*
X866321Y832996D02*
D03*
X882500Y811500D02*
D03*
X890000Y805000D02*
D03*
X1039500D02*
D03*
X1185500Y804500D02*
D03*
X1857500Y682500D02*
D03*
X1930000Y747000D02*
D03*
X1921500Y647000D02*
D03*
X1806000Y739000D02*
D03*
X1845000Y647000D02*
D03*
Y724500D02*
D03*
X1676000Y698500D02*
D03*
Y647000D02*
D03*
X1585500Y694500D02*
D03*
Y647000D02*
D03*
X1503000Y695500D02*
D03*
Y647000D02*
D03*
X1718000Y654500D02*
D03*
X1701000Y654000D02*
D03*
X1489000Y654500D02*
D03*
Y638500D02*
D03*
X897496Y675000D02*
D03*
X1414000Y594500D02*
D03*
X1496000Y592752D02*
D03*
X1576500Y589000D02*
D03*
X1666000Y586500D02*
D03*
X1749000Y586252D02*
D03*
X1828500Y583000D02*
D03*
X1049000Y622500D02*
D03*
X1131000Y624752D02*
D03*
X1211500Y627500D02*
D03*
X1736500Y632000D02*
D03*
X1170500Y829000D02*
D03*
X873500D02*
D03*
X1770000Y812000D02*
D03*
D46*
X845500Y654642D02*
D03*
Y638500D02*
D03*
X895500Y655142D02*
D03*
Y639000D02*
D03*
X866000Y654642D02*
D03*
Y638500D02*
D03*
D47*
X1240028Y739972D02*
D03*
Y749028D02*
D03*
X1093500Y739972D02*
D03*
Y749028D02*
D03*
X943000Y739972D02*
D03*
Y749028D02*
D03*
X1360500Y739945D02*
D03*
Y749000D02*
D03*
X1988500Y742472D02*
D03*
Y751528D02*
D03*
X1688528Y739972D02*
D03*
Y749028D02*
D03*
X1838528Y739972D02*
D03*
Y749028D02*
D03*
M02*
