G04 Layer_Color=8421504*
%FSLAX25Y25*%
%MOIN*%
G70*
G01*
G75*
%ADD10O,0.07480X0.02362*%
%ADD11R,0.03937X0.05512*%
%ADD12R,0.05512X0.03937*%
%ADD13R,0.07441X0.06181*%
%ADD14R,0.01575X0.06299*%
%ADD15R,0.02362X0.04331*%
%ADD16R,0.04331X0.02362*%
%ADD17R,0.02520X0.07500*%
%ADD18R,0.04488X0.07480*%
%ADD19R,0.04331X0.04331*%
%ADD20R,0.04331X0.04331*%
%ADD21R,0.07480X0.04724*%
%ADD22R,0.04724X0.07480*%
%ADD23R,0.11614X0.30000*%
%ADD24R,0.11614X0.06614*%
%ADD25R,0.03937X0.21654*%
%ADD26R,0.04134X0.05905*%
%ADD27R,0.09449X0.05905*%
%ADD28R,0.04331X0.05118*%
%ADD29R,0.04803X0.03583*%
%ADD30R,0.03543X0.02756*%
D10*
X1172752Y690000D02*
D03*
Y685000D02*
D03*
Y680000D02*
D03*
Y675000D02*
D03*
X1191256Y690000D02*
D03*
Y685000D02*
D03*
Y680000D02*
D03*
Y675000D02*
D03*
X1087752Y690000D02*
D03*
Y685000D02*
D03*
Y680000D02*
D03*
Y675000D02*
D03*
X1106256Y690000D02*
D03*
Y685000D02*
D03*
Y680000D02*
D03*
Y675000D02*
D03*
X1004252Y690000D02*
D03*
Y685000D02*
D03*
Y680000D02*
D03*
Y675000D02*
D03*
X1022756Y690000D02*
D03*
Y685000D02*
D03*
Y680000D02*
D03*
Y675000D02*
D03*
X1889248Y689500D02*
D03*
Y684500D02*
D03*
Y679500D02*
D03*
Y674500D02*
D03*
X1907752Y689500D02*
D03*
Y684500D02*
D03*
Y679500D02*
D03*
Y674500D02*
D03*
X1629748Y689500D02*
D03*
Y684500D02*
D03*
Y679500D02*
D03*
Y674500D02*
D03*
X1648252Y689500D02*
D03*
Y684500D02*
D03*
Y679500D02*
D03*
Y674500D02*
D03*
X1804248Y689500D02*
D03*
Y684500D02*
D03*
Y679500D02*
D03*
Y674500D02*
D03*
X1822752Y689500D02*
D03*
Y684500D02*
D03*
Y679500D02*
D03*
Y674500D02*
D03*
X1544748Y689500D02*
D03*
Y684500D02*
D03*
Y679500D02*
D03*
Y674500D02*
D03*
X1563252Y689500D02*
D03*
Y684500D02*
D03*
Y679500D02*
D03*
Y674500D02*
D03*
X1720748Y689500D02*
D03*
Y684500D02*
D03*
Y679500D02*
D03*
Y674500D02*
D03*
X1739252Y689500D02*
D03*
Y684500D02*
D03*
Y679500D02*
D03*
Y674500D02*
D03*
X1461248Y689500D02*
D03*
Y684500D02*
D03*
Y679500D02*
D03*
Y674500D02*
D03*
X1479752Y689500D02*
D03*
Y684500D02*
D03*
Y679500D02*
D03*
Y674500D02*
D03*
D11*
X1239760Y637661D02*
D03*
X1247240D02*
D03*
X1243500Y629000D02*
D03*
D12*
X1735831Y622740D02*
D03*
Y615260D02*
D03*
X1727169Y619000D02*
D03*
X1476331Y620740D02*
D03*
Y613260D02*
D03*
X1467669Y617000D02*
D03*
D13*
X1249689Y844268D02*
D03*
X1103161D02*
D03*
X952661D02*
D03*
X1370161Y844240D02*
D03*
X1998161Y846768D02*
D03*
X1698189Y844268D02*
D03*
X1848189D02*
D03*
D14*
X1253528Y852535D02*
D03*
X1250968D02*
D03*
X1248409D02*
D03*
X1245850D02*
D03*
Y836000D02*
D03*
X1248409D02*
D03*
X1250968D02*
D03*
X1253528D02*
D03*
X1107000Y852535D02*
D03*
X1104441D02*
D03*
X1101882D02*
D03*
X1099323D02*
D03*
Y836000D02*
D03*
X1101882D02*
D03*
X1104441D02*
D03*
X1107000D02*
D03*
X956500Y852535D02*
D03*
X953941D02*
D03*
X951382D02*
D03*
X948823D02*
D03*
Y836000D02*
D03*
X951382D02*
D03*
X953941D02*
D03*
X956500D02*
D03*
X1374000Y852508D02*
D03*
X1371441D02*
D03*
X1368882D02*
D03*
X1366323D02*
D03*
Y835972D02*
D03*
X1368882D02*
D03*
X1371441D02*
D03*
X1374000D02*
D03*
X2002000Y855035D02*
D03*
X1999441D02*
D03*
X1996882D02*
D03*
X1994323D02*
D03*
Y838500D02*
D03*
X1996882D02*
D03*
X1999441D02*
D03*
X2002000D02*
D03*
X1702028Y852535D02*
D03*
X1699468D02*
D03*
X1696909D02*
D03*
X1694350D02*
D03*
Y836000D02*
D03*
X1696909D02*
D03*
X1699468D02*
D03*
X1702028D02*
D03*
X1852028Y852535D02*
D03*
X1849468D02*
D03*
X1846909D02*
D03*
X1844350D02*
D03*
Y836000D02*
D03*
X1846909D02*
D03*
X1849468D02*
D03*
X1852028D02*
D03*
D15*
X1207547Y749630D02*
D03*
X1211287D02*
D03*
X1215028D02*
D03*
Y739000D02*
D03*
X1207547D02*
D03*
X1061020Y749630D02*
D03*
X1064760D02*
D03*
X1068500D02*
D03*
Y739000D02*
D03*
X1061020D02*
D03*
X910520Y749630D02*
D03*
X914260D02*
D03*
X918000D02*
D03*
Y739000D02*
D03*
X910520D02*
D03*
X1328020Y749602D02*
D03*
X1331760D02*
D03*
X1335500D02*
D03*
Y738972D02*
D03*
X1328020D02*
D03*
X1956020Y752130D02*
D03*
X1959760D02*
D03*
X1963500D02*
D03*
Y741500D02*
D03*
X1956020D02*
D03*
X1656047Y749630D02*
D03*
X1659787D02*
D03*
X1663528D02*
D03*
Y739000D02*
D03*
X1656047D02*
D03*
X1806047Y749630D02*
D03*
X1809787D02*
D03*
X1813528D02*
D03*
Y739000D02*
D03*
X1806047D02*
D03*
D16*
X1192342Y880740D02*
D03*
Y877000D02*
D03*
Y873260D02*
D03*
X1181713D02*
D03*
Y880740D02*
D03*
X1045815D02*
D03*
Y877000D02*
D03*
Y873260D02*
D03*
X1035185D02*
D03*
Y880740D02*
D03*
X895315D02*
D03*
Y877000D02*
D03*
Y873260D02*
D03*
X884685D02*
D03*
Y880740D02*
D03*
X1312815Y880713D02*
D03*
Y876972D02*
D03*
Y873232D02*
D03*
X1302185D02*
D03*
Y880713D02*
D03*
X1940815Y883240D02*
D03*
Y879500D02*
D03*
Y875760D02*
D03*
X1930185D02*
D03*
Y883240D02*
D03*
X1640842Y880740D02*
D03*
Y877000D02*
D03*
Y873260D02*
D03*
X1630213D02*
D03*
Y880740D02*
D03*
X1790842D02*
D03*
Y877000D02*
D03*
Y873260D02*
D03*
X1780213D02*
D03*
Y880740D02*
D03*
D17*
X1167700Y805110D02*
D03*
X1162700D02*
D03*
X1157700D02*
D03*
X1152700D02*
D03*
X1162700Y762196D02*
D03*
X1157700D02*
D03*
X1152700D02*
D03*
X1167700D02*
D03*
X1021172Y805110D02*
D03*
X1016172D02*
D03*
X1011172D02*
D03*
X1006172D02*
D03*
X1016172Y762196D02*
D03*
X1011172D02*
D03*
X1006172D02*
D03*
X1021172D02*
D03*
X870672Y805110D02*
D03*
X865672D02*
D03*
X860672D02*
D03*
X855672D02*
D03*
X865672Y762196D02*
D03*
X860672D02*
D03*
X855672D02*
D03*
X870672D02*
D03*
X1559500Y804913D02*
D03*
X1554500D02*
D03*
X1549500D02*
D03*
X1544500D02*
D03*
X1554500Y762000D02*
D03*
X1549500D02*
D03*
X1544500D02*
D03*
X1559500D02*
D03*
X1504496Y804496D02*
D03*
X1499496D02*
D03*
X1494496D02*
D03*
X1489496D02*
D03*
X1499496Y761583D02*
D03*
X1494496D02*
D03*
X1489496D02*
D03*
X1504496D02*
D03*
X1450618Y805000D02*
D03*
X1445618D02*
D03*
X1440618D02*
D03*
X1435618D02*
D03*
X1445618Y762087D02*
D03*
X1440618D02*
D03*
X1435618D02*
D03*
X1450618D02*
D03*
X1916172Y807609D02*
D03*
X1911172D02*
D03*
X1906172D02*
D03*
X1901172D02*
D03*
X1911172Y764696D02*
D03*
X1906172D02*
D03*
X1901172D02*
D03*
X1916172D02*
D03*
X1616200Y805110D02*
D03*
X1611200D02*
D03*
X1606200D02*
D03*
X1601200D02*
D03*
X1611200Y762196D02*
D03*
X1606200D02*
D03*
X1601200D02*
D03*
X1616200D02*
D03*
X1766200Y805110D02*
D03*
X1761200D02*
D03*
X1756200D02*
D03*
X1751200D02*
D03*
X1761200Y762196D02*
D03*
X1756200D02*
D03*
X1751200D02*
D03*
X1766200D02*
D03*
D18*
X1194020Y809028D02*
D03*
X1206028D02*
D03*
X1218035D02*
D03*
Y764500D02*
D03*
X1206028D02*
D03*
X1194020D02*
D03*
X1047492Y809028D02*
D03*
X1059500D02*
D03*
X1071508D02*
D03*
Y764500D02*
D03*
X1059500D02*
D03*
X1047492D02*
D03*
X896992Y809028D02*
D03*
X909000D02*
D03*
X921008D02*
D03*
Y764500D02*
D03*
X909000D02*
D03*
X896992D02*
D03*
X1314492Y809000D02*
D03*
X1326500D02*
D03*
X1338508D02*
D03*
Y764472D02*
D03*
X1326500D02*
D03*
X1314492D02*
D03*
X1942492Y811528D02*
D03*
X1954500D02*
D03*
X1966508D02*
D03*
Y767000D02*
D03*
X1954500D02*
D03*
X1942492D02*
D03*
X1642520Y809028D02*
D03*
X1654528D02*
D03*
X1666535D02*
D03*
Y764500D02*
D03*
X1654528D02*
D03*
X1642520D02*
D03*
X1792520Y809028D02*
D03*
X1804528D02*
D03*
X1816535D02*
D03*
Y764500D02*
D03*
X1804528D02*
D03*
X1792520D02*
D03*
D19*
X1155508Y674000D02*
D03*
X1162004D02*
D03*
X1171008Y713500D02*
D03*
X1177504D02*
D03*
X1178004Y655000D02*
D03*
X1184500D02*
D03*
X1192752Y713500D02*
D03*
X1186256D02*
D03*
X1147752Y683000D02*
D03*
X1141256D02*
D03*
X1207000Y674500D02*
D03*
X1200504D02*
D03*
X1071756Y673500D02*
D03*
X1078252D02*
D03*
X1086508Y712500D02*
D03*
X1093004D02*
D03*
X1094256Y655000D02*
D03*
X1100752D02*
D03*
X1107252Y712500D02*
D03*
X1100756D02*
D03*
X1063252Y680500D02*
D03*
X1056756D02*
D03*
X1122752Y674000D02*
D03*
X1116256D02*
D03*
X988256Y673500D02*
D03*
X994752D02*
D03*
X1002508Y712500D02*
D03*
X1009004D02*
D03*
X1010508Y654500D02*
D03*
X1017004D02*
D03*
X1023504Y712500D02*
D03*
X1017008D02*
D03*
X979500Y680500D02*
D03*
X973004D02*
D03*
X1039252Y673000D02*
D03*
X1032756D02*
D03*
X1872004Y673500D02*
D03*
X1878500D02*
D03*
X1887504Y713000D02*
D03*
X1894000D02*
D03*
X1612504Y673500D02*
D03*
X1619000D02*
D03*
X1628004Y713000D02*
D03*
X1634500D02*
D03*
X1894500Y654500D02*
D03*
X1900996D02*
D03*
X1635000D02*
D03*
X1641496D02*
D03*
X1909248Y713000D02*
D03*
X1902752D02*
D03*
X1649748D02*
D03*
X1643252D02*
D03*
X1864996Y682500D02*
D03*
X1858500D02*
D03*
X1604748D02*
D03*
X1598252D02*
D03*
X1923496Y674000D02*
D03*
X1917000D02*
D03*
X1663996D02*
D03*
X1657500D02*
D03*
X1788252Y673000D02*
D03*
X1794748D02*
D03*
X1803004Y712000D02*
D03*
X1809500D02*
D03*
X1528752Y673000D02*
D03*
X1535248D02*
D03*
X1543504Y712000D02*
D03*
X1550000D02*
D03*
X1810752Y654500D02*
D03*
X1817248D02*
D03*
X1551252D02*
D03*
X1557748D02*
D03*
X1823748Y712000D02*
D03*
X1817252D02*
D03*
X1564248D02*
D03*
X1557752D02*
D03*
X1779748Y680000D02*
D03*
X1773252D02*
D03*
X1520248D02*
D03*
X1513752D02*
D03*
X1839248Y673500D02*
D03*
X1832752D02*
D03*
X1579748D02*
D03*
X1573252D02*
D03*
X1704752Y673000D02*
D03*
X1711248D02*
D03*
X1719004Y712000D02*
D03*
X1725500D02*
D03*
X1445252Y673000D02*
D03*
X1451748D02*
D03*
X1459504Y712000D02*
D03*
X1466000D02*
D03*
X1727004Y654000D02*
D03*
X1733500D02*
D03*
X1467504D02*
D03*
X1474000D02*
D03*
X1740000Y712000D02*
D03*
X1733504D02*
D03*
X1480500D02*
D03*
X1474004D02*
D03*
X1696496Y680000D02*
D03*
X1690000D02*
D03*
X1436996D02*
D03*
X1430500D02*
D03*
X1755748Y672500D02*
D03*
X1749252D02*
D03*
X1496248D02*
D03*
X1489752D02*
D03*
X1243776Y875000D02*
D03*
X1237280D02*
D03*
X1259024D02*
D03*
X1252528D02*
D03*
X1097248D02*
D03*
X1090752D02*
D03*
X1112496D02*
D03*
X1106000D02*
D03*
X946748D02*
D03*
X940252D02*
D03*
X961996D02*
D03*
X955500D02*
D03*
X1364248Y874972D02*
D03*
X1357752D02*
D03*
X1379496D02*
D03*
X1373000D02*
D03*
X1992248Y877500D02*
D03*
X1985752D02*
D03*
X2007496D02*
D03*
X2001000D02*
D03*
X1692276Y875000D02*
D03*
X1685780D02*
D03*
X1707524D02*
D03*
X1701028D02*
D03*
X1842276D02*
D03*
X1835780D02*
D03*
X1857524D02*
D03*
X1851028D02*
D03*
X1155508Y666500D02*
D03*
X1162004D02*
D03*
X1162504Y688500D02*
D03*
X1156008D02*
D03*
X1207000Y667000D02*
D03*
X1200504D02*
D03*
X1071756Y666000D02*
D03*
X1078252D02*
D03*
X1078004Y688000D02*
D03*
X1071508D02*
D03*
X1123252Y666500D02*
D03*
X1116756D02*
D03*
X988008Y665000D02*
D03*
X994504D02*
D03*
X995504Y687000D02*
D03*
X989008D02*
D03*
X1039000Y665000D02*
D03*
X1032504D02*
D03*
X1872004Y666000D02*
D03*
X1878500D02*
D03*
X1612504D02*
D03*
X1619000D02*
D03*
X1879000Y688000D02*
D03*
X1872504D02*
D03*
X1619500D02*
D03*
X1613004D02*
D03*
X1923496Y666500D02*
D03*
X1917000D02*
D03*
X1663996D02*
D03*
X1657500D02*
D03*
X1788252Y665500D02*
D03*
X1794748D02*
D03*
X1528752D02*
D03*
X1535248D02*
D03*
X1794500Y687500D02*
D03*
X1788004D02*
D03*
X1535000D02*
D03*
X1528504D02*
D03*
X1839748Y666000D02*
D03*
X1833252D02*
D03*
X1580248D02*
D03*
X1573752D02*
D03*
X1704504Y664500D02*
D03*
X1711000D02*
D03*
X1445004D02*
D03*
X1451500D02*
D03*
X1712000Y686500D02*
D03*
X1705504D02*
D03*
X1452500D02*
D03*
X1446004D02*
D03*
X1755496Y664500D02*
D03*
X1749000D02*
D03*
X1495996D02*
D03*
X1489500D02*
D03*
X1736248Y596500D02*
D03*
X1729752D02*
D03*
X1736248Y605000D02*
D03*
X1729752D02*
D03*
X1475248Y595000D02*
D03*
X1468752D02*
D03*
X1475000Y604000D02*
D03*
X1468504D02*
D03*
X1258776Y884500D02*
D03*
X1252279D02*
D03*
X1254531Y921500D02*
D03*
X1261028D02*
D03*
X1252532Y866000D02*
D03*
X1259028D02*
D03*
X1210532Y857000D02*
D03*
X1217028D02*
D03*
X1210779Y846500D02*
D03*
X1217276D02*
D03*
X1207279Y914500D02*
D03*
X1213776D02*
D03*
X1208276Y868000D02*
D03*
X1201779D02*
D03*
X1194279Y857000D02*
D03*
X1200776D02*
D03*
X1194279Y846500D02*
D03*
X1200776D02*
D03*
X1156852Y832996D02*
D03*
X1163348D02*
D03*
X1112248Y884500D02*
D03*
X1105752D02*
D03*
X1108004Y921500D02*
D03*
X1114500D02*
D03*
X1106004Y866000D02*
D03*
X1112500D02*
D03*
X1064004Y857000D02*
D03*
X1070500D02*
D03*
X1064252Y846500D02*
D03*
X1070748D02*
D03*
X1060752Y914500D02*
D03*
X1067248D02*
D03*
X1061748Y868000D02*
D03*
X1055252D02*
D03*
X1047752Y857000D02*
D03*
X1054248D02*
D03*
X1047752Y846500D02*
D03*
X1054248D02*
D03*
X1010324Y832996D02*
D03*
X1016821D02*
D03*
X961748Y884500D02*
D03*
X955252D02*
D03*
X957504Y921500D02*
D03*
X964000D02*
D03*
X955504Y866000D02*
D03*
X962000D02*
D03*
X913504Y857000D02*
D03*
X920000D02*
D03*
X913752Y846500D02*
D03*
X920248D02*
D03*
X910252Y914500D02*
D03*
X916748D02*
D03*
X911248Y868000D02*
D03*
X904752D02*
D03*
X897252Y857000D02*
D03*
X903748D02*
D03*
X897252Y846500D02*
D03*
X903748D02*
D03*
X859824Y832996D02*
D03*
X866321D02*
D03*
X1548252Y836248D02*
D03*
X1554748D02*
D03*
X1493248Y836496D02*
D03*
X1499744D02*
D03*
X1439370Y837000D02*
D03*
X1445866D02*
D03*
X1379248Y884472D02*
D03*
X1372752D02*
D03*
X1375004Y921472D02*
D03*
X1381500D02*
D03*
X1373004Y865972D02*
D03*
X1379500D02*
D03*
X1331004Y856972D02*
D03*
X1337500D02*
D03*
X1331252Y846472D02*
D03*
X1337748D02*
D03*
X1327752Y914472D02*
D03*
X1334248D02*
D03*
X1328748Y867972D02*
D03*
X1322252D02*
D03*
X1314752Y856972D02*
D03*
X1321248D02*
D03*
X1314752Y846472D02*
D03*
X1321248D02*
D03*
X2007248Y887000D02*
D03*
X2000752D02*
D03*
X2003004Y924000D02*
D03*
X2009500D02*
D03*
X2001004Y868500D02*
D03*
X2007500D02*
D03*
X1959004Y859500D02*
D03*
X1965500D02*
D03*
X1959252Y849000D02*
D03*
X1965748D02*
D03*
X1955752Y917000D02*
D03*
X1962248D02*
D03*
X1956748Y870500D02*
D03*
X1950252D02*
D03*
X1942752Y859500D02*
D03*
X1949248D02*
D03*
X1942752Y849000D02*
D03*
X1949248D02*
D03*
X1905324Y835496D02*
D03*
X1911820D02*
D03*
X1707276Y884500D02*
D03*
X1700780D02*
D03*
X1703032Y921500D02*
D03*
X1709528D02*
D03*
X1701031Y866000D02*
D03*
X1707528D02*
D03*
X1659031Y857000D02*
D03*
X1665528D02*
D03*
X1659279Y846500D02*
D03*
X1665776D02*
D03*
X1655779Y914500D02*
D03*
X1662276D02*
D03*
X1656776Y868000D02*
D03*
X1650279D02*
D03*
X1642780Y857000D02*
D03*
X1649276D02*
D03*
X1642780Y846500D02*
D03*
X1649276D02*
D03*
X1605352Y832996D02*
D03*
X1611848D02*
D03*
X1857276Y884500D02*
D03*
X1850780D02*
D03*
X1853032Y921500D02*
D03*
X1859528D02*
D03*
X1851031Y866000D02*
D03*
X1857528D02*
D03*
X1809031Y857000D02*
D03*
X1815528D02*
D03*
X1809279Y846500D02*
D03*
X1815776D02*
D03*
X1805779Y914500D02*
D03*
X1812276D02*
D03*
X1806776Y868000D02*
D03*
X1800279D02*
D03*
X1792780Y857000D02*
D03*
X1799276D02*
D03*
X1792780Y846500D02*
D03*
X1799276D02*
D03*
X1755352Y832996D02*
D03*
X1761848D02*
D03*
D20*
X1177004Y704996D02*
D03*
Y698500D02*
D03*
X1186004Y704996D02*
D03*
Y698500D02*
D03*
X1093004Y704248D02*
D03*
Y697752D02*
D03*
X1100504Y703996D02*
D03*
Y697500D02*
D03*
X1009004Y704496D02*
D03*
Y698000D02*
D03*
X1017004Y704496D02*
D03*
Y698000D02*
D03*
X1893500Y704496D02*
D03*
Y698000D02*
D03*
X1634000Y704496D02*
D03*
Y698000D02*
D03*
X1902500Y704496D02*
D03*
Y698000D02*
D03*
X1643000Y704496D02*
D03*
Y698000D02*
D03*
X1809500Y703748D02*
D03*
Y697252D02*
D03*
X1550000Y703748D02*
D03*
Y697252D02*
D03*
X1817000Y703496D02*
D03*
Y697000D02*
D03*
X1557500Y703496D02*
D03*
Y697000D02*
D03*
X1725500Y703996D02*
D03*
Y697500D02*
D03*
X1466000Y703996D02*
D03*
Y697500D02*
D03*
X1733500Y703996D02*
D03*
Y697500D02*
D03*
X1474000Y703996D02*
D03*
Y697500D02*
D03*
X1241028Y943500D02*
D03*
Y937004D02*
D03*
X1231528Y943496D02*
D03*
Y937000D02*
D03*
X1156500Y738500D02*
D03*
Y744996D02*
D03*
X1164500Y738500D02*
D03*
Y744996D02*
D03*
X1179000Y805004D02*
D03*
Y811500D02*
D03*
X1094500Y943500D02*
D03*
Y937004D02*
D03*
X1085000Y943496D02*
D03*
Y937000D02*
D03*
X1009972Y738500D02*
D03*
Y744996D02*
D03*
X1017972Y738500D02*
D03*
Y744996D02*
D03*
X1031972Y804996D02*
D03*
Y811492D02*
D03*
X944000Y943500D02*
D03*
Y937004D02*
D03*
X934500Y943496D02*
D03*
Y937000D02*
D03*
X859472Y738500D02*
D03*
Y744996D02*
D03*
X867000Y738500D02*
D03*
Y744996D02*
D03*
X882500Y805004D02*
D03*
Y811500D02*
D03*
X1544000Y875248D02*
D03*
Y868752D02*
D03*
X1547882Y744500D02*
D03*
Y750996D02*
D03*
X1556000Y744748D02*
D03*
Y751244D02*
D03*
X1571500Y803752D02*
D03*
Y810248D02*
D03*
X1488996Y875496D02*
D03*
Y869000D02*
D03*
X1492878Y744748D02*
D03*
Y751244D02*
D03*
X1500996Y744996D02*
D03*
Y751492D02*
D03*
X1517000Y804252D02*
D03*
Y810748D02*
D03*
X1435118Y876000D02*
D03*
Y869504D02*
D03*
X1439000Y745252D02*
D03*
Y751748D02*
D03*
X1447118Y745500D02*
D03*
Y751996D02*
D03*
X1462500Y803500D02*
D03*
Y809996D02*
D03*
X1361500Y943472D02*
D03*
Y936976D02*
D03*
X1352000Y943468D02*
D03*
Y936972D02*
D03*
X1989500Y946000D02*
D03*
Y939504D02*
D03*
X1980000Y945996D02*
D03*
Y939500D02*
D03*
X1904972Y741000D02*
D03*
Y747496D02*
D03*
X1912972Y741000D02*
D03*
Y747496D02*
D03*
X1927500Y807252D02*
D03*
Y813748D02*
D03*
X1689528Y943500D02*
D03*
Y937004D02*
D03*
X1680028Y943496D02*
D03*
Y937000D02*
D03*
X1605000Y738500D02*
D03*
Y744996D02*
D03*
X1613000Y738500D02*
D03*
Y744996D02*
D03*
X1628000Y805252D02*
D03*
Y811748D02*
D03*
X1839528Y943500D02*
D03*
Y937004D02*
D03*
X1830028Y943496D02*
D03*
Y937000D02*
D03*
X1755000Y738500D02*
D03*
Y744996D02*
D03*
X1763000Y738500D02*
D03*
Y744996D02*
D03*
X1777500Y804500D02*
D03*
Y810996D02*
D03*
X1253028Y900496D02*
D03*
Y894000D02*
D03*
X1207028Y893496D02*
D03*
Y887000D02*
D03*
X1152900Y866996D02*
D03*
Y873492D02*
D03*
X1165300Y866596D02*
D03*
Y873092D02*
D03*
X1106500Y900496D02*
D03*
Y894000D02*
D03*
X1060500Y893496D02*
D03*
Y887000D02*
D03*
X1006372Y866996D02*
D03*
Y873492D02*
D03*
X1018772Y866596D02*
D03*
Y873092D02*
D03*
X956000Y900496D02*
D03*
Y894000D02*
D03*
X910000Y893496D02*
D03*
Y887000D02*
D03*
X855872Y866996D02*
D03*
Y873492D02*
D03*
X868272Y866596D02*
D03*
Y873092D02*
D03*
X1547500Y977252D02*
D03*
Y983748D02*
D03*
X1492496Y977500D02*
D03*
Y983996D02*
D03*
X1438618Y978004D02*
D03*
Y984500D02*
D03*
X1373500Y900469D02*
D03*
Y893972D02*
D03*
X1327500Y893468D02*
D03*
Y886972D02*
D03*
X2001500Y902996D02*
D03*
Y896500D02*
D03*
X1955500Y895996D02*
D03*
Y889500D02*
D03*
X1901372Y869496D02*
D03*
Y875992D02*
D03*
X1913772Y869096D02*
D03*
Y875592D02*
D03*
X1701528Y900496D02*
D03*
Y894000D02*
D03*
X1655528Y893496D02*
D03*
Y887000D02*
D03*
X1601400Y866996D02*
D03*
Y873492D02*
D03*
X1613800Y866596D02*
D03*
Y873092D02*
D03*
X1851528Y900496D02*
D03*
Y894000D02*
D03*
X1805528Y893496D02*
D03*
Y887000D02*
D03*
X1751400Y866996D02*
D03*
Y873492D02*
D03*
X1763800Y866596D02*
D03*
Y873092D02*
D03*
X1272000Y638000D02*
D03*
Y631504D02*
D03*
X1259000Y637248D02*
D03*
Y630752D02*
D03*
X1239028Y835000D02*
D03*
Y841496D02*
D03*
X1270028Y835504D02*
D03*
Y842000D02*
D03*
X1261028Y835500D02*
D03*
Y841996D02*
D03*
X1092500Y835000D02*
D03*
Y841496D02*
D03*
X1123500Y835504D02*
D03*
Y842000D02*
D03*
X1114500Y835500D02*
D03*
Y841996D02*
D03*
X942000Y835000D02*
D03*
Y841496D02*
D03*
X973000Y835504D02*
D03*
Y842000D02*
D03*
X964000Y835500D02*
D03*
Y841996D02*
D03*
X1359500Y834972D02*
D03*
Y841469D02*
D03*
X1390500Y835476D02*
D03*
Y841972D02*
D03*
X1381500Y835472D02*
D03*
Y841969D02*
D03*
X1987500Y837500D02*
D03*
Y843996D02*
D03*
X2018500Y838004D02*
D03*
Y844500D02*
D03*
X2009500Y838000D02*
D03*
Y844496D02*
D03*
X1687528Y835000D02*
D03*
Y841496D02*
D03*
X1718528Y835504D02*
D03*
Y842000D02*
D03*
X1709528Y835500D02*
D03*
Y841996D02*
D03*
X1837528Y835000D02*
D03*
Y841496D02*
D03*
X1868528Y835504D02*
D03*
Y842000D02*
D03*
X1859528Y835500D02*
D03*
Y841996D02*
D03*
D21*
X1152900Y855232D02*
D03*
Y844996D02*
D03*
X1165700Y855232D02*
D03*
Y844996D02*
D03*
X1006372Y855232D02*
D03*
Y844996D02*
D03*
X1019172Y855232D02*
D03*
Y844996D02*
D03*
X855872Y855232D02*
D03*
Y844996D02*
D03*
X868672Y855232D02*
D03*
Y844996D02*
D03*
X1544000Y856484D02*
D03*
Y846248D02*
D03*
X1558000Y856984D02*
D03*
Y846748D02*
D03*
X1488996Y856732D02*
D03*
Y846496D02*
D03*
X1502996Y857232D02*
D03*
Y846996D02*
D03*
X1435118Y857236D02*
D03*
Y847000D02*
D03*
X1449118Y857736D02*
D03*
Y847500D02*
D03*
X1901372Y857732D02*
D03*
Y847496D02*
D03*
X1914172Y857732D02*
D03*
Y847496D02*
D03*
X1601400Y855232D02*
D03*
Y844996D02*
D03*
X1614200Y855232D02*
D03*
Y844996D02*
D03*
X1751400Y855232D02*
D03*
Y844996D02*
D03*
X1764200Y855232D02*
D03*
Y844996D02*
D03*
D22*
X1538000Y917748D02*
D03*
X1548236D02*
D03*
X1548118Y933248D02*
D03*
X1537882D02*
D03*
Y887248D02*
D03*
X1548118D02*
D03*
X1538000Y903248D02*
D03*
X1548236D02*
D03*
X1537882Y948248D02*
D03*
X1548118D02*
D03*
Y963248D02*
D03*
X1537882D02*
D03*
X1482996Y917996D02*
D03*
X1493232D02*
D03*
X1493114Y933496D02*
D03*
X1482878D02*
D03*
Y887496D02*
D03*
X1493114D02*
D03*
X1482996Y903496D02*
D03*
X1493232D02*
D03*
X1482878Y948496D02*
D03*
X1493114D02*
D03*
Y963496D02*
D03*
X1482878D02*
D03*
X1429118Y918500D02*
D03*
X1439354D02*
D03*
X1439236Y934000D02*
D03*
X1429000D02*
D03*
Y888000D02*
D03*
X1439236D02*
D03*
X1429118Y904000D02*
D03*
X1439354D02*
D03*
X1429000Y949000D02*
D03*
X1439236D02*
D03*
Y964000D02*
D03*
X1429000D02*
D03*
D23*
X893591Y1744709D02*
D03*
X923000D02*
D03*
X1712500Y1749500D02*
D03*
X1741909D02*
D03*
X893591Y1458000D02*
D03*
X923000D02*
D03*
X1712500Y1464500D02*
D03*
X1741909D02*
D03*
X893091Y1167500D02*
D03*
X922500D02*
D03*
X1711091Y1172709D02*
D03*
X1740500D02*
D03*
D24*
X893591Y1724000D02*
D03*
X923000D02*
D03*
X1712500Y1728791D02*
D03*
X1741909D02*
D03*
X893591Y1437291D02*
D03*
X923000D02*
D03*
X1712500Y1443791D02*
D03*
X1741909D02*
D03*
X893091Y1146791D02*
D03*
X922500D02*
D03*
X1711091Y1152000D02*
D03*
X1740500D02*
D03*
D25*
X939500Y617000D02*
D03*
X919815D02*
D03*
D26*
X1254177Y933500D02*
D03*
X1210878Y927500D02*
D03*
X1107650Y933500D02*
D03*
X1064350Y927500D02*
D03*
X957150Y933500D02*
D03*
X913850Y927500D02*
D03*
X1374650Y933472D02*
D03*
X1331350Y927472D02*
D03*
X2002650Y936000D02*
D03*
X1959350Y930000D02*
D03*
X1702677Y933500D02*
D03*
X1659378Y927500D02*
D03*
X1852677Y933500D02*
D03*
X1809378Y927500D02*
D03*
D27*
X1263528Y933500D02*
D03*
X1201528Y927500D02*
D03*
X1117000Y933500D02*
D03*
X1055000Y927500D02*
D03*
X966500Y933500D02*
D03*
X904500Y927500D02*
D03*
X1384000Y933472D02*
D03*
X1322000Y927472D02*
D03*
X2012000Y936000D02*
D03*
X1950000Y930000D02*
D03*
X1712028Y933500D02*
D03*
X1650028Y927500D02*
D03*
X1862028Y933500D02*
D03*
X1800028Y927500D02*
D03*
D28*
X1265028Y952000D02*
D03*
X1255972D02*
D03*
X1201555Y952500D02*
D03*
X1192500D02*
D03*
X1118500Y952000D02*
D03*
X1109445D02*
D03*
X1055028Y952500D02*
D03*
X1045972D02*
D03*
X968000Y952000D02*
D03*
X958945D02*
D03*
X904528Y952500D02*
D03*
X895472D02*
D03*
X1385500Y951972D02*
D03*
X1376445D02*
D03*
X1322028Y952472D02*
D03*
X1312972D02*
D03*
X2013500Y954500D02*
D03*
X2004445D02*
D03*
X1950028Y955000D02*
D03*
X1940972D02*
D03*
X1713528Y952000D02*
D03*
X1704472D02*
D03*
X1650055Y952500D02*
D03*
X1641000D02*
D03*
X1863528Y952000D02*
D03*
X1854472D02*
D03*
X1800055Y952500D02*
D03*
X1791000D02*
D03*
X1262528Y913000D02*
D03*
X1253472D02*
D03*
X1216055Y904000D02*
D03*
X1207000D02*
D03*
X1116000Y913000D02*
D03*
X1106945D02*
D03*
X1069528Y904000D02*
D03*
X1060472D02*
D03*
X965500Y913000D02*
D03*
X956445D02*
D03*
X919028Y904000D02*
D03*
X909972D02*
D03*
X1383000Y912972D02*
D03*
X1373945D02*
D03*
X1336528Y903972D02*
D03*
X1327472D02*
D03*
X2011000Y915500D02*
D03*
X2001945D02*
D03*
X1964528Y906500D02*
D03*
X1955472D02*
D03*
X1711028Y913000D02*
D03*
X1701972D02*
D03*
X1664555Y904000D02*
D03*
X1655500D02*
D03*
X1861028Y913000D02*
D03*
X1851972D02*
D03*
X1814555Y904000D02*
D03*
X1805500D02*
D03*
D29*
X1218028Y835583D02*
D03*
Y824500D02*
D03*
X1194528Y825000D02*
D03*
Y836083D02*
D03*
X1071500Y835583D02*
D03*
Y824500D02*
D03*
X1048000Y825000D02*
D03*
Y836083D02*
D03*
X921000Y835583D02*
D03*
Y824500D02*
D03*
X897500Y825000D02*
D03*
Y836083D02*
D03*
X1338500Y835555D02*
D03*
Y824472D02*
D03*
X1315000Y824972D02*
D03*
Y836055D02*
D03*
X1966500Y838083D02*
D03*
Y827000D02*
D03*
X1943000Y827500D02*
D03*
Y838583D02*
D03*
X1666528Y835583D02*
D03*
Y824500D02*
D03*
X1643028Y825000D02*
D03*
Y836083D02*
D03*
X1816528Y835583D02*
D03*
Y824500D02*
D03*
X1793028Y825000D02*
D03*
Y836083D02*
D03*
D30*
X1157300Y820996D02*
D03*
X1150213Y823555D02*
D03*
Y818437D02*
D03*
X1163300Y820996D02*
D03*
X1170387Y818437D02*
D03*
Y823555D02*
D03*
X1011000Y821000D02*
D03*
X1003913Y823559D02*
D03*
Y818441D02*
D03*
X1016772Y820996D02*
D03*
X1023859Y818437D02*
D03*
Y823555D02*
D03*
X860272Y820996D02*
D03*
X853186Y823555D02*
D03*
Y818437D02*
D03*
X866272Y820996D02*
D03*
X873359Y818437D02*
D03*
Y823555D02*
D03*
X1548000Y822748D02*
D03*
X1540913Y825307D02*
D03*
Y820189D02*
D03*
X1554500Y822748D02*
D03*
X1561587Y820189D02*
D03*
Y825307D02*
D03*
X1494000Y823000D02*
D03*
X1486913Y825559D02*
D03*
Y820441D02*
D03*
X1500413Y823059D02*
D03*
X1507500Y820500D02*
D03*
Y825618D02*
D03*
X1440087Y823559D02*
D03*
X1433000Y826118D02*
D03*
Y821000D02*
D03*
X1446500Y823500D02*
D03*
X1453587Y820941D02*
D03*
Y826059D02*
D03*
X1905772Y823496D02*
D03*
X1898686Y826055D02*
D03*
Y820937D02*
D03*
X1911772Y823496D02*
D03*
X1918859Y820937D02*
D03*
Y826055D02*
D03*
X1605800Y820996D02*
D03*
X1598713Y823555D02*
D03*
Y818437D02*
D03*
X1611800Y820996D02*
D03*
X1618887Y818437D02*
D03*
Y823555D02*
D03*
X1755800Y820996D02*
D03*
X1748713Y823555D02*
D03*
Y818437D02*
D03*
X1761913Y820559D02*
D03*
X1769000Y818000D02*
D03*
Y823118D02*
D03*
M02*
