M48
;Layer_Color=9474304
;FILE_FORMAT=2:5
INCH,TZ
;TYPE=PLATED
T1F00S00C0.02000
T2F00S00C0.02756
T3F00S00C0.03000
T4F00S00C0.03937
T5F00S00C0.04500
T6F00S00C0.05118
T7F00S00C0.05512
T8F00S00C0.06299
T9F00S00C0.06693
T10F00S00C0.07874
T11F00S00C0.08100
T12F00S00C0.09449
T13F00S00C0.10236
T14F00S00C0.12520
T15F00S00C0.20000
;TYPE=NON_PLATED
T16F00S00C0.15748
%
T01
X651000Y54500
X656500Y54000
X431000Y34831
X417000Y32748
X408000
X115500Y101500
X110000
Y108500
X115500
X138618Y139000
X146472Y201696
X126072
X161250Y178250
X181520Y188500
X214000Y189500
X202000Y207500
X276572Y201696
X296972
X309000Y178000
X332020Y188500
X364500Y189500
X352500Y207500
X423100Y201696
X443500
X455000Y182500
X462508Y133500
X469004Y127000
X446504
X446500Y103000
X441500Y94000
X447000Y80500
X486000Y73000
X492000Y74500
X531000Y80500
X525000Y87000
Y100500
X530500Y108000
X530256Y127000
X545504Y134004
X552504Y126500
X557004Y101000
X546004
X567500Y65500
X574000Y66000
X614000Y84000
X614500Y107500
X626504Y101000
X614504Y129500
X589004Y127000
X580752Y159000
X560008
X579500Y182500
X599020Y187000
X619500Y207472
X499028Y207500
X511028Y189500
X478547Y188500
X476004Y159004
X497004Y159000
X505504Y126500
X636004Y127500
X629508Y135000
X644004Y160500
X666004Y160000
X674004Y128000
X701500Y129500
X700500Y108500
X718500Y104000
X727000
X723500Y129500
X717004Y136000
X730500Y161504
X751500Y161500
X774000Y145000
X760000Y129000
Y104000
X774000Y96500
X702000Y79000
X642004Y101000
X631500Y189472
X701618Y205500
X727500Y202500
X756500
X781496Y208248
X810500Y204748
X836500Y208000
X871600Y201696
X892000
X898500Y163000
X920500Y162500
X927047Y188500
X928500Y130500
X890500Y130000
X884004Y137500
X869252Y132000
X869000Y110500
X881000Y103500
X896500
X856500Y96500
X869000Y79500
X843500Y129500
X856500Y144000
X835248Y161500
X814504
X800000Y136504
X807000Y129000
X784752Y129500
Y110752
X800500Y103500
X811500
X784500Y79500
X947000Y96500
X961000Y90000
Y108000
X972000Y103500
X989000Y104000
X983000Y129500
X976504Y136000
X961000Y129500
X947000Y148000
X959528Y189500
X947528Y207500
X1021600Y201696
X1042000
X1077000Y188500
X1074004Y161500
X1094748
X1059500Y136504
X1066500Y129000
X1044252Y129500
X1044000Y108000
Y90000
X1060000Y103500
X1071000
X1019500Y129000
X1011000Y161500
X990000Y161504
X1116000Y174000
X1109528Y189500
X1097528Y207500
X1171572Y204196
X1191972
X1201000Y196500
X1227020Y191000
X1247500Y210000
X1180000Y162500
X1158000Y163000
X1143504Y137500
X1150000Y130000
X1128500Y132000
Y110000
X1140500Y103500
X1156000
X1128000Y90000
X1116000Y96500
X1103000Y129500
X1188000Y130500
X1192500Y96500
X1259500Y192000
X1258500Y287000
X1267610Y280500
X1270252Y336248
X1282000Y365000
X1245469Y352496
X1234000Y327000
X1219000Y330000
X1220972Y320000
X1191472Y344000
X1172372Y325492
X1182821Y284996
X1189500Y281000
X1192000Y275500
X1195118Y270382
X1198500Y263248
X1192372Y262310
X1167472Y264500
X1164000Y271000
Y277000
X1117638Y278000
X1108528Y284500
X1120280Y333748
X1132028Y362500
X1095496Y349996
X1084028Y324500
X1069028Y327500
X1071000Y317500
X1041500Y341500
X1022400Y322992
X1032848Y282496
X1038500Y279000
X1041500Y272500
X1044000Y266500
X1041000Y261500
X1048500Y260500
X1017500Y262000
X1012618Y267382
X1013000Y272500
X967638Y278000
X958528Y284500
X970280Y333748
X982028Y362500
X945496Y349996
X934028Y324500
X919028Y327500
X921000Y317500
X891500Y341500
X872400Y322992
X882848Y282496
X890696Y279000
X892500Y273000
X895500Y267500
X899000Y261000
X892400Y259809
X867500Y262000
X863500Y267500
X863000Y273000
X834882Y275618
X834000Y281000
X812500Y280500
X811059Y269941
X814500Y261500
X829748Y261748
X835500Y253248
X800500Y281500
X788000Y270500
X807000Y304500
X796500Y342882
X741000Y343000
X751000Y304000
X756250Y280750
X755500Y270000
X759500Y262000
X774744Y261996
X780496Y253496
X780059Y275059
X778500Y281500
X782500Y286000
X743000Y281000
X724000
X726000Y275500
X727500Y286500
X733000Y268500
X720866Y262500
X726618Y254000
X706000Y262500
X701500Y271000
X699500Y281000
X697500Y304000
X686500Y342500
X646531Y349969
X654000Y362472
X642252Y333720
X639610Y277972
X630500Y284472
X606000Y324472
X591000Y327472
X593252Y317472
X598500Y342969
X533528Y362500
X521779Y333748
X496996Y349996
X485528Y324500
X472500Y317500
X510028Y284500
X519138Y278000
X441500Y278500
X443500Y272500
X443618Y267382
X443900Y259809
X450000Y261500
X419000Y262000
X414000Y267500
X414500Y273000
X434348Y282496
X423900Y322992
X443000Y341500
X470528Y327500
X375252Y333748
X387000Y362500
X350468Y349996
X339000Y324500
X324000Y327500
X325972Y317500
X363500Y284500
X372610Y278000
X295500Y279000
X296559Y274059
Y268941
X296500Y260500
X303000Y261000
X272472Y262000
X271500Y269000
Y274500
X287821Y282496
X277372Y322992
X296472Y341500
X224752Y333748
X236500Y362500
X199969Y349996
X188500Y324500
X173500Y327500
X175472Y317500
X213000Y284500
X222110Y278000
X144500Y278500
X145441Y273059
X145941Y267941
X146872Y259809
X153500Y261000
X121972Y262000
X120000Y267500
Y273000
X137320Y282496
X126872Y322992
X145972Y341500
X166000Y401500
X205500Y392996
X215500Y393000
X214972Y386500
X237000Y383500
X239000Y401500
X316500
X356000Y392996
X366000Y393000
X365472Y386500
X387500Y383500
X389500Y401500
X463028
X502528Y392996
X512528Y393000
X512000Y386500
X534028Y383500
X536028Y401500
X583500Y401472
X623000Y392969
X633000Y392972
X635504Y383472
X654500
X656500Y401472
X709618Y434000
X764500
X731500Y385500
X786500Y385000
X818500Y433500
X911528Y401500
X951028Y392996
X961028Y393000
X960500Y386500
X982528Y383500
X984528Y401500
X1061528
X1101028Y392996
X1111028Y393000
X1110500Y386500
X1132528Y383500
X1134528Y401500
X1211500Y404000
X1251000Y395496
X1261000Y395500
X1260472Y389000
X1282500Y386000
X1284500Y404000
T02
X219000Y219000
X369500
X516028
X636500Y218972
X964528Y219000
X1114528
X1264500Y221500
Y251500
X1114528Y249000
X964528
X636500Y248972
X516028Y249000
X369500
X219000
T03
X387882Y25000
X388264Y104000
X399000
T04
X84000Y138500
X103685
T05
X1103284Y32500
X1114189
X1125095
X1136000
X1146906
X1141453Y43681
X1130547
X1119642
X1108736
X1097831
X1086925
X1076020
X1065114
X1054209
X1043303
X1032398
X1021492
X1026945Y32500
X1037850
X1048756
X1059661
X1070567
X1081472
X1092378
X1016039
T06
X89000Y33000
X109000
T07
X658650Y471000
X855500
X658650Y770000
X855500
X658500Y1061000
X855350
T08
X727500Y25000
X463500Y52500
X303000Y140000
X1217500Y66500
X1315000Y106000
X1314500Y126000
X764039Y510185
X698579
X658421
X804000
X843961
X880000Y505500
X610000Y697000
X658421Y716878
X698579
X764039
Y804154
X698579Y805153
X658421
X804000Y804154
X843961
X888000Y770000
X843961Y716878
X804000
X615500Y1012500
X658421Y1011847
X698579
X764039Y1010847
Y1099291
X698579Y1100653
X658421
X804000Y1099291
X843961
X884000Y1060500
X843961Y1010847
X804000
Y1305984
X843961
X764039
X698579Y1307347
X658421
X582500Y1308000
T09
X231500Y56000
X311500Y26000
Y66000
Y106000
X231500
Y76000
T10
X196500Y519500
X416500
X967500Y520500
X1187500
Y540500
Y560500
Y580500
Y600500
Y620500
Y640500
Y660500
X967500
Y640500
Y620500
Y600500
Y580500
Y560500
Y540500
X416500Y539500
Y559500
Y579500
Y599500
Y619500
Y639500
Y659500
X196500
Y639500
Y619500
Y599500
Y579500
Y559500
Y539500
Y814500
Y834500
X416500
Y814500
X967500Y815500
Y835500
X1187500
Y815500
Y855500
Y875500
Y895500
Y915500
Y935500
Y955500
X967500
Y935500
Y915500
Y895500
Y875500
Y855500
X416500Y854500
Y874500
Y894500
Y914500
Y934500
Y954500
X196500
Y934500
Y914500
Y894500
Y874500
Y854500
Y1109000
Y1129000
Y1149000
X416500
Y1129000
Y1109000
X967500Y1110000
Y1130000
Y1150000
X1187500
Y1130000
Y1110000
Y1170000
Y1190000
Y1210000
Y1230000
Y1250000
X967500
Y1230000
Y1210000
Y1190000
Y1170000
X416500Y1169000
Y1189000
Y1209000
Y1229000
Y1249000
X196500
Y1229000
Y1209000
Y1189000
Y1169000
T11
X146500Y46000
Y64500
T12
X1271000Y848700
Y892500
Y936300
X68500
Y892500
Y848700
T13
X488000Y800760
X610047
Y879500
Y958240
X488000
Y879500
T14
X1174071Y38091
X988874
T15
X1299500Y24000
X779500
X466000
X21000
Y445000
X531500Y465500
X1300000Y474000
X899500Y675000
X21000Y751000
X531500Y728000
X1300000Y789000
X901000Y941500
X531500Y1013500
X1300000Y1309000
X901000
X531500
X21000
T16
X306500Y469500
X1077500Y470500
X306500Y709500
Y764500
X1077500Y765500
Y710500
X306500Y1004500
Y1059000
X1077500Y1060000
Y1005500
Y1300000
X306500Y1299000
M30
