G04 Layer_Color=128*
%FSLAX25Y25*%
%MOIN*%
G70*
G01*
G75*
%ADD11R,0.07480X0.04724*%
%ADD12R,0.04724X0.07480*%
%ADD13R,0.04331X0.04331*%
%ADD14R,0.04331X0.04331*%
%ADD51R,0.05905X0.13780*%
%ADD52R,0.05118X0.04331*%
D11*
X326000Y42000D02*
D03*
Y52236D02*
D03*
X326500Y80264D02*
D03*
Y90500D02*
D03*
D12*
X953382Y37500D02*
D03*
X963618D02*
D03*
X1192882Y38500D02*
D03*
X1203118D02*
D03*
X104618Y46000D02*
D03*
X94382D02*
D03*
D13*
X356000Y82252D02*
D03*
Y88748D02*
D03*
X336500Y43500D02*
D03*
Y49996D02*
D03*
X345500Y43504D02*
D03*
Y50000D02*
D03*
X355000Y43504D02*
D03*
Y50000D02*
D03*
X346500Y82004D02*
D03*
Y88500D02*
D03*
X337000Y82252D02*
D03*
Y88748D02*
D03*
X674004Y134496D02*
D03*
Y128000D02*
D03*
X681004Y134496D02*
D03*
Y128000D02*
D03*
X636004Y127500D02*
D03*
Y133996D02*
D03*
X629504Y127500D02*
D03*
Y133996D02*
D03*
X595004D02*
D03*
Y127500D02*
D03*
X589004Y133748D02*
D03*
Y127252D02*
D03*
X552004Y126752D02*
D03*
Y133248D02*
D03*
X545504Y126500D02*
D03*
Y132996D02*
D03*
X511504Y133248D02*
D03*
Y126752D02*
D03*
X505504Y133248D02*
D03*
Y126752D02*
D03*
X469004Y127000D02*
D03*
Y133496D02*
D03*
X462004Y127000D02*
D03*
Y133496D02*
D03*
X1188000Y136996D02*
D03*
Y130500D02*
D03*
X1195000Y136996D02*
D03*
Y130500D02*
D03*
X928500Y136996D02*
D03*
Y130500D02*
D03*
X935500Y136996D02*
D03*
Y130500D02*
D03*
X1150000Y130000D02*
D03*
Y136496D02*
D03*
X1143500Y130000D02*
D03*
Y136496D02*
D03*
X890500Y130000D02*
D03*
Y136496D02*
D03*
X884000Y130000D02*
D03*
Y136496D02*
D03*
X1109000D02*
D03*
Y130000D02*
D03*
X1103000Y136248D02*
D03*
Y129752D02*
D03*
X849500Y136496D02*
D03*
Y130000D02*
D03*
X843500Y136248D02*
D03*
Y129752D02*
D03*
X1066000Y129252D02*
D03*
Y135748D02*
D03*
X1059500Y129000D02*
D03*
Y135496D02*
D03*
X806500Y129252D02*
D03*
Y135748D02*
D03*
X800000Y129000D02*
D03*
Y135496D02*
D03*
X1025500Y135748D02*
D03*
Y129252D02*
D03*
X1019500Y135748D02*
D03*
Y129252D02*
D03*
X766000Y135748D02*
D03*
Y129252D02*
D03*
X760000Y135748D02*
D03*
Y129252D02*
D03*
X983000Y129500D02*
D03*
Y135996D02*
D03*
X976000Y129500D02*
D03*
Y135996D02*
D03*
X723500Y129500D02*
D03*
Y135996D02*
D03*
X716500Y129500D02*
D03*
Y135996D02*
D03*
X479528Y327500D02*
D03*
Y321004D02*
D03*
X470528Y327500D02*
D03*
Y321004D02*
D03*
X492528Y196996D02*
D03*
Y190500D02*
D03*
X501028Y196996D02*
D03*
Y190500D02*
D03*
X333000Y327500D02*
D03*
Y321004D02*
D03*
X324000Y327500D02*
D03*
Y321004D02*
D03*
X346000Y196996D02*
D03*
Y190500D02*
D03*
X354500Y196996D02*
D03*
Y190500D02*
D03*
X182500Y327500D02*
D03*
Y321004D02*
D03*
X173500Y327500D02*
D03*
Y321004D02*
D03*
X195500Y196996D02*
D03*
Y190500D02*
D03*
X204000Y196996D02*
D03*
Y190500D02*
D03*
X600000Y327472D02*
D03*
Y320976D02*
D03*
X591000Y327472D02*
D03*
Y320976D02*
D03*
X613000Y196968D02*
D03*
Y190472D02*
D03*
X621500Y196968D02*
D03*
Y190472D02*
D03*
X1228000Y330000D02*
D03*
Y323504D02*
D03*
X1219000Y330000D02*
D03*
Y323504D02*
D03*
X1241000Y199496D02*
D03*
Y193000D02*
D03*
X1249500Y199496D02*
D03*
Y193000D02*
D03*
X928028Y327500D02*
D03*
Y321004D02*
D03*
X919028Y327500D02*
D03*
Y321004D02*
D03*
X941028Y196996D02*
D03*
Y190500D02*
D03*
X949528Y196996D02*
D03*
Y190500D02*
D03*
X1078028Y327500D02*
D03*
Y321004D02*
D03*
X1069028Y327500D02*
D03*
Y321004D02*
D03*
X1091028Y196996D02*
D03*
Y190500D02*
D03*
X1099528Y196996D02*
D03*
Y190500D02*
D03*
D14*
X102748Y58000D02*
D03*
X96252D02*
D03*
X430652Y201696D02*
D03*
X437148D02*
D03*
X436396Y263696D02*
D03*
X429900D02*
D03*
X430652Y193696D02*
D03*
X437148D02*
D03*
X436396Y271296D02*
D03*
X429900D02*
D03*
X284124Y201696D02*
D03*
X290620D02*
D03*
X289868Y263696D02*
D03*
X283372D02*
D03*
X284124Y193696D02*
D03*
X290620D02*
D03*
X289868Y271296D02*
D03*
X283372D02*
D03*
X133624Y201696D02*
D03*
X140120D02*
D03*
X139368Y263696D02*
D03*
X132872D02*
D03*
X133624Y193696D02*
D03*
X140120D02*
D03*
X139368Y271296D02*
D03*
X132872D02*
D03*
X823752Y201748D02*
D03*
X830248D02*
D03*
X829748Y269248D02*
D03*
X823252D02*
D03*
X824004Y193748D02*
D03*
X830500D02*
D03*
X829748Y261748D02*
D03*
X823252D02*
D03*
X768748Y201996D02*
D03*
X775244D02*
D03*
X774744Y269496D02*
D03*
X768248D02*
D03*
X769000Y193996D02*
D03*
X775496D02*
D03*
X774744Y261996D02*
D03*
X768248D02*
D03*
X714870Y202500D02*
D03*
X721366D02*
D03*
X720866Y270000D02*
D03*
X714370D02*
D03*
X715122Y194500D02*
D03*
X721618D02*
D03*
X720866Y262500D02*
D03*
X714370D02*
D03*
X1179124Y204196D02*
D03*
X1185620D02*
D03*
X1184869Y266196D02*
D03*
X1178372D02*
D03*
X1179124Y196196D02*
D03*
X1185620D02*
D03*
X1184869Y273796D02*
D03*
X1178372D02*
D03*
X879152Y201696D02*
D03*
X885648D02*
D03*
X884896Y263696D02*
D03*
X878400D02*
D03*
X879152Y193696D02*
D03*
X885648D02*
D03*
X884896Y271296D02*
D03*
X878400D02*
D03*
X1029152Y201696D02*
D03*
X1035648D02*
D03*
X1034896Y263696D02*
D03*
X1028400D02*
D03*
X1029152Y193696D02*
D03*
X1035648D02*
D03*
X1034896Y271296D02*
D03*
X1028400D02*
D03*
D51*
X276071Y106000D02*
D03*
X259929D02*
D03*
X275571Y54500D02*
D03*
X259429D02*
D03*
D52*
X511028Y189472D02*
D03*
Y198528D02*
D03*
X364500Y189472D02*
D03*
Y198528D02*
D03*
X214000Y189472D02*
D03*
Y198528D02*
D03*
X631500Y189445D02*
D03*
Y198500D02*
D03*
X1259500Y191972D02*
D03*
Y201028D02*
D03*
X959528Y189472D02*
D03*
Y198528D02*
D03*
X1109528Y189472D02*
D03*
Y198528D02*
D03*
M02*
